G04 #@! TF.GenerationSoftware,KiCad,Pcbnew,5.1.7*
G04 #@! TF.CreationDate,2020-10-26T11:57:42-04:00*
G04 #@! TF.ProjectId,PCB,5043422e-6b69-4636-9164-5f7063625858,rev?*
G04 #@! TF.SameCoordinates,Original*
G04 #@! TF.FileFunction,Soldermask,Bot*
G04 #@! TF.FilePolarity,Negative*
%FSLAX46Y46*%
G04 Gerber Fmt 4.6, Leading zero omitted, Abs format (unit mm)*
G04 Created by KiCad (PCBNEW 5.1.7) date 2020-10-26 11:57:42*
%MOMM*%
%LPD*%
G01*
G04 APERTURE LIST*
%ADD10C,1.802000*%
%ADD11C,3.602000*%
%ADD12C,3.302000*%
%ADD13O,2.102000X2.007000*%
%ADD14O,3.602000X3.602000*%
%ADD15C,1.602000*%
%ADD16O,1.702000X1.702000*%
%ADD17C,1.702000*%
%ADD18O,1.802000X1.802000*%
%ADD19C,2.102000*%
%ADD20C,1.902000*%
%ADD21C,2.601360*%
%ADD22O,2.502000X1.702000*%
%ADD23C,0.100000*%
G04 APERTURE END LIST*
G36*
G01*
X110070000Y-93611000D02*
X108370000Y-93611000D01*
G75*
G02*
X108319000Y-93560000I0J51000D01*
G01*
X108319000Y-91860000D01*
G75*
G02*
X108370000Y-91809000I51000J0D01*
G01*
X110070000Y-91809000D01*
G75*
G02*
X110121000Y-91860000I0J-51000D01*
G01*
X110121000Y-93560000D01*
G75*
G02*
X110070000Y-93611000I-51000J0D01*
G01*
G37*
D10*
X111720000Y-92710000D03*
X111720000Y-90710000D03*
X109220000Y-90710000D03*
D11*
X104450000Y-88000000D03*
X116490000Y-88000000D03*
D12*
X109220000Y-147955000D03*
D13*
X147170000Y-90170000D03*
X147170000Y-87630000D03*
G36*
G01*
X146170000Y-84086500D02*
X148170000Y-84086500D01*
G75*
G02*
X148221000Y-84137500I0J-51000D01*
G01*
X148221000Y-86042500D01*
G75*
G02*
X148170000Y-86093500I-51000J0D01*
G01*
X146170000Y-86093500D01*
G75*
G02*
X146119000Y-86042500I0J51000D01*
G01*
X146119000Y-84137500D01*
G75*
G02*
X146170000Y-84086500I51000J0D01*
G01*
G37*
D14*
X163830000Y-87630000D03*
G36*
G01*
X150102000Y-135929000D02*
X148602000Y-135929000D01*
G75*
G02*
X148551000Y-135878000I0J51000D01*
G01*
X148551000Y-134378000D01*
G75*
G02*
X148602000Y-134327000I51000J0D01*
G01*
X150102000Y-134327000D01*
G75*
G02*
X150153000Y-134378000I0J-51000D01*
G01*
X150153000Y-135878000D01*
G75*
G02*
X150102000Y-135929000I-51000J0D01*
G01*
G37*
D15*
X154432000Y-135128000D03*
X151892000Y-132588000D03*
G36*
G01*
X157214000Y-135929000D02*
X155714000Y-135929000D01*
G75*
G02*
X155663000Y-135878000I0J51000D01*
G01*
X155663000Y-134378000D01*
G75*
G02*
X155714000Y-134327000I51000J0D01*
G01*
X157214000Y-134327000D01*
G75*
G02*
X157265000Y-134378000I0J-51000D01*
G01*
X157265000Y-135878000D01*
G75*
G02*
X157214000Y-135929000I-51000J0D01*
G01*
G37*
X161544000Y-135128000D03*
X159004000Y-132588000D03*
G36*
G01*
X150102000Y-117133000D02*
X148602000Y-117133000D01*
G75*
G02*
X148551000Y-117082000I0J51000D01*
G01*
X148551000Y-115582000D01*
G75*
G02*
X148602000Y-115531000I51000J0D01*
G01*
X150102000Y-115531000D01*
G75*
G02*
X150153000Y-115582000I0J-51000D01*
G01*
X150153000Y-117082000D01*
G75*
G02*
X150102000Y-117133000I-51000J0D01*
G01*
G37*
X154432000Y-116332000D03*
X151892000Y-113792000D03*
G36*
G01*
X157214000Y-117133000D02*
X155714000Y-117133000D01*
G75*
G02*
X155663000Y-117082000I0J51000D01*
G01*
X155663000Y-115582000D01*
G75*
G02*
X155714000Y-115531000I51000J0D01*
G01*
X157214000Y-115531000D01*
G75*
G02*
X157265000Y-115582000I0J-51000D01*
G01*
X157265000Y-117082000D01*
G75*
G02*
X157214000Y-117133000I-51000J0D01*
G01*
G37*
X161544000Y-116332000D03*
X159004000Y-113792000D03*
G36*
G01*
X150102000Y-98337000D02*
X148602000Y-98337000D01*
G75*
G02*
X148551000Y-98286000I0J51000D01*
G01*
X148551000Y-96786000D01*
G75*
G02*
X148602000Y-96735000I51000J0D01*
G01*
X150102000Y-96735000D01*
G75*
G02*
X150153000Y-96786000I0J-51000D01*
G01*
X150153000Y-98286000D01*
G75*
G02*
X150102000Y-98337000I-51000J0D01*
G01*
G37*
X154432000Y-97536000D03*
X151892000Y-94996000D03*
G36*
G01*
X157214000Y-98337000D02*
X155714000Y-98337000D01*
G75*
G02*
X155663000Y-98286000I0J51000D01*
G01*
X155663000Y-96786000D01*
G75*
G02*
X155714000Y-96735000I51000J0D01*
G01*
X157214000Y-96735000D01*
G75*
G02*
X157265000Y-96786000I0J-51000D01*
G01*
X157265000Y-98286000D01*
G75*
G02*
X157214000Y-98337000I-51000J0D01*
G01*
G37*
X161544000Y-97536000D03*
X159004000Y-94996000D03*
D16*
X154432000Y-138684000D03*
D17*
X154432000Y-148844000D03*
D16*
X161544000Y-138684000D03*
D17*
X161544000Y-148844000D03*
D16*
X154432000Y-119888000D03*
D17*
X154432000Y-130048000D03*
D16*
X161544000Y-119888000D03*
D17*
X161544000Y-130048000D03*
D16*
X154432000Y-101092000D03*
D17*
X154432000Y-111252000D03*
D16*
X161544000Y-101092000D03*
D17*
X161544000Y-111252000D03*
D18*
X128016000Y-140208000D03*
X128016000Y-137668000D03*
X130556000Y-140208000D03*
X130556000Y-137668000D03*
X133096000Y-140208000D03*
G36*
G01*
X132246000Y-136767000D02*
X133946000Y-136767000D01*
G75*
G02*
X133997000Y-136818000I0J-51000D01*
G01*
X133997000Y-138518000D01*
G75*
G02*
X133946000Y-138569000I-51000J0D01*
G01*
X132246000Y-138569000D01*
G75*
G02*
X132195000Y-138518000I0J51000D01*
G01*
X132195000Y-136818000D01*
G75*
G02*
X132246000Y-136767000I51000J0D01*
G01*
G37*
D19*
X125072000Y-84836000D03*
X125072000Y-80336000D03*
X131572000Y-84836000D03*
X131572000Y-80336000D03*
D16*
X127635000Y-90170000D03*
D17*
X137795000Y-90170000D03*
D20*
X144145000Y-82804000D03*
X141986000Y-82804000D03*
X139827000Y-82804000D03*
G36*
G01*
X136717000Y-83704000D02*
X136717000Y-81904000D01*
G75*
G02*
X136768000Y-81853000I51000J0D01*
G01*
X138568000Y-81853000D01*
G75*
G02*
X138619000Y-81904000I0J-51000D01*
G01*
X138619000Y-83704000D01*
G75*
G02*
X138568000Y-83755000I-51000J0D01*
G01*
X136768000Y-83755000D01*
G75*
G02*
X136717000Y-83704000I0J51000D01*
G01*
G37*
G36*
G01*
X149067320Y-81513680D02*
X149067320Y-79014320D01*
G75*
G02*
X149118320Y-78963320I51000J0D01*
G01*
X151617680Y-78963320D01*
G75*
G02*
X151668680Y-79014320I0J-51000D01*
G01*
X151668680Y-81513680D01*
G75*
G02*
X151617680Y-81564680I-51000J0D01*
G01*
X149118320Y-81564680D01*
G75*
G02*
X149067320Y-81513680I0J51000D01*
G01*
G37*
D21*
X154178000Y-80264000D03*
G36*
G01*
X157703320Y-81513680D02*
X157703320Y-79014320D01*
G75*
G02*
X157754320Y-78963320I51000J0D01*
G01*
X160253680Y-78963320D01*
G75*
G02*
X160304680Y-79014320I0J-51000D01*
G01*
X160304680Y-81513680D01*
G75*
G02*
X160253680Y-81564680I-51000J0D01*
G01*
X157754320Y-81564680D01*
G75*
G02*
X157703320Y-81513680I0J51000D01*
G01*
G37*
X162814000Y-80264000D03*
D15*
X120904000Y-122482000D03*
X120904000Y-117602000D03*
G36*
G01*
X166001000Y-143930000D02*
X166001000Y-145630000D01*
G75*
G02*
X165950000Y-145681000I-51000J0D01*
G01*
X164250000Y-145681000D01*
G75*
G02*
X164199000Y-145630000I0J51000D01*
G01*
X164199000Y-143930000D01*
G75*
G02*
X164250000Y-143879000I51000J0D01*
G01*
X165950000Y-143879000D01*
G75*
G02*
X166001000Y-143930000I0J-51000D01*
G01*
G37*
D18*
X165100000Y-142240000D03*
X165100000Y-139700000D03*
X165100000Y-137160000D03*
X165100000Y-134620000D03*
X165100000Y-132080000D03*
X165100000Y-129540000D03*
X165100000Y-127000000D03*
X165100000Y-124460000D03*
X165100000Y-121920000D03*
X165100000Y-119380000D03*
X165100000Y-116840000D03*
X165100000Y-114300000D03*
X165100000Y-111760000D03*
X165100000Y-109220000D03*
X165100000Y-106680000D03*
X165100000Y-104140000D03*
X165100000Y-101600000D03*
G36*
G01*
X105041000Y-143930000D02*
X105041000Y-145630000D01*
G75*
G02*
X104990000Y-145681000I-51000J0D01*
G01*
X103290000Y-145681000D01*
G75*
G02*
X103239000Y-145630000I0J51000D01*
G01*
X103239000Y-143930000D01*
G75*
G02*
X103290000Y-143879000I51000J0D01*
G01*
X104990000Y-143879000D01*
G75*
G02*
X105041000Y-143930000I0J-51000D01*
G01*
G37*
X104140000Y-142240000D03*
X104140000Y-139700000D03*
X104140000Y-137160000D03*
X104140000Y-134620000D03*
X104140000Y-132080000D03*
X104140000Y-129540000D03*
X104140000Y-127000000D03*
X104140000Y-124460000D03*
X104140000Y-121920000D03*
X104140000Y-119380000D03*
X104140000Y-116840000D03*
X104140000Y-114300000D03*
X104140000Y-111760000D03*
X104140000Y-109220000D03*
X104140000Y-106680000D03*
X104140000Y-104140000D03*
X104140000Y-101600000D03*
G36*
G01*
X113049000Y-129070000D02*
X113049000Y-127470000D01*
G75*
G02*
X113100000Y-127419000I51000J0D01*
G01*
X115500000Y-127419000D01*
G75*
G02*
X115551000Y-127470000I0J-51000D01*
G01*
X115551000Y-129070000D01*
G75*
G02*
X115500000Y-129121000I-51000J0D01*
G01*
X113100000Y-129121000D01*
G75*
G02*
X113049000Y-129070000I0J51000D01*
G01*
G37*
D22*
X121920000Y-146050000D03*
X114300000Y-130810000D03*
X121920000Y-143510000D03*
X114300000Y-133350000D03*
X121920000Y-140970000D03*
X114300000Y-135890000D03*
X121920000Y-138430000D03*
X114300000Y-138430000D03*
X121920000Y-135890000D03*
X114300000Y-140970000D03*
X121920000Y-133350000D03*
X114300000Y-143510000D03*
X121920000Y-130810000D03*
X114300000Y-146050000D03*
X121920000Y-128270000D03*
G36*
G01*
X126149000Y-99860000D02*
X126149000Y-98260000D01*
G75*
G02*
X126200000Y-98209000I51000J0D01*
G01*
X127800000Y-98209000D01*
G75*
G02*
X127851000Y-98260000I0J-51000D01*
G01*
X127851000Y-99860000D01*
G75*
G02*
X127800000Y-99911000I-51000J0D01*
G01*
X126200000Y-99911000D01*
G75*
G02*
X126149000Y-99860000I0J51000D01*
G01*
G37*
D16*
X134620000Y-132080000D03*
X127000000Y-101600000D03*
X134620000Y-129540000D03*
X127000000Y-104140000D03*
X134620000Y-127000000D03*
X127000000Y-106680000D03*
X134620000Y-124460000D03*
X127000000Y-109220000D03*
X134620000Y-121920000D03*
X127000000Y-111760000D03*
X134620000Y-119380000D03*
X127000000Y-114300000D03*
X134620000Y-116840000D03*
X127000000Y-116840000D03*
X134620000Y-114300000D03*
X127000000Y-119380000D03*
X134620000Y-111760000D03*
X127000000Y-121920000D03*
X134620000Y-109220000D03*
X127000000Y-124460000D03*
X134620000Y-106680000D03*
X127000000Y-127000000D03*
X134620000Y-104140000D03*
X127000000Y-129540000D03*
X134620000Y-101600000D03*
X127000000Y-132080000D03*
X134620000Y-99060000D03*
D17*
X150368000Y-138684000D03*
D16*
X150368000Y-148844000D03*
D17*
X111125000Y-122428000D03*
X116125000Y-122428000D03*
X111125000Y-117602000D03*
X116125000Y-117602000D03*
G36*
G01*
X147555000Y-119850000D02*
X147555000Y-121450000D01*
G75*
G02*
X147504000Y-121501000I-51000J0D01*
G01*
X145104000Y-121501000D01*
G75*
G02*
X145053000Y-121450000I0J51000D01*
G01*
X145053000Y-119850000D01*
G75*
G02*
X145104000Y-119799000I51000J0D01*
G01*
X147504000Y-119799000D01*
G75*
G02*
X147555000Y-119850000I0J-51000D01*
G01*
G37*
D22*
X138684000Y-102870000D03*
X146304000Y-118110000D03*
X138684000Y-105410000D03*
X146304000Y-115570000D03*
X138684000Y-107950000D03*
X146304000Y-113030000D03*
X138684000Y-110490000D03*
X146304000Y-110490000D03*
X138684000Y-113030000D03*
X146304000Y-107950000D03*
X138684000Y-115570000D03*
X146304000Y-105410000D03*
X138684000Y-118110000D03*
X146304000Y-102870000D03*
X138684000Y-120650000D03*
G36*
G01*
X147555000Y-145250000D02*
X147555000Y-146850000D01*
G75*
G02*
X147504000Y-146901000I-51000J0D01*
G01*
X145104000Y-146901000D01*
G75*
G02*
X145053000Y-146850000I0J51000D01*
G01*
X145053000Y-145250000D01*
G75*
G02*
X145104000Y-145199000I51000J0D01*
G01*
X147504000Y-145199000D01*
G75*
G02*
X147555000Y-145250000I0J-51000D01*
G01*
G37*
X138684000Y-128270000D03*
X146304000Y-143510000D03*
X138684000Y-130810000D03*
X146304000Y-140970000D03*
X138684000Y-133350000D03*
X146304000Y-138430000D03*
X138684000Y-135890000D03*
X146304000Y-135890000D03*
X138684000Y-138430000D03*
X146304000Y-133350000D03*
X138684000Y-140970000D03*
X146304000Y-130810000D03*
X138684000Y-143510000D03*
X146304000Y-128270000D03*
X138684000Y-146050000D03*
D17*
X157480000Y-138684000D03*
D16*
X157480000Y-148844000D03*
D17*
X150368000Y-119888000D03*
D16*
X150368000Y-130048000D03*
D17*
X157480000Y-119888000D03*
D16*
X157480000Y-130048000D03*
D17*
X150368000Y-101092000D03*
D16*
X150368000Y-111252000D03*
D17*
X157480000Y-101092000D03*
D16*
X157480000Y-111252000D03*
D23*
G36*
X111897684Y-91587864D02*
G01*
X111898074Y-91589826D01*
X111896761Y-91591097D01*
X111879369Y-91596373D01*
X111858105Y-91607738D01*
X111839468Y-91623033D01*
X111824173Y-91641670D01*
X111812808Y-91662934D01*
X111805808Y-91686009D01*
X111803445Y-91710000D01*
X111805808Y-91733991D01*
X111812808Y-91757066D01*
X111824173Y-91778330D01*
X111839468Y-91796967D01*
X111858105Y-91812262D01*
X111879369Y-91823627D01*
X111896761Y-91828903D01*
X111898128Y-91830363D01*
X111897547Y-91832277D01*
X111895790Y-91832779D01*
X111808114Y-91815339D01*
X111631886Y-91815339D01*
X111544210Y-91832779D01*
X111542316Y-91832136D01*
X111541926Y-91830174D01*
X111543239Y-91828903D01*
X111560631Y-91823627D01*
X111581895Y-91812262D01*
X111600532Y-91796967D01*
X111615827Y-91778330D01*
X111627192Y-91757066D01*
X111634192Y-91733991D01*
X111636555Y-91710000D01*
X111634192Y-91686009D01*
X111627192Y-91662934D01*
X111615827Y-91641670D01*
X111600532Y-91623033D01*
X111581895Y-91607738D01*
X111560631Y-91596373D01*
X111543239Y-91591097D01*
X111541872Y-91589637D01*
X111542453Y-91587723D01*
X111544210Y-91587221D01*
X111631886Y-91604661D01*
X111808114Y-91604661D01*
X111895790Y-91587221D01*
X111897684Y-91587864D01*
G37*
G36*
X109484682Y-91569821D02*
G01*
X109485448Y-91571669D01*
X109484408Y-91573172D01*
X109468379Y-91581739D01*
X109449742Y-91597035D01*
X109434447Y-91615672D01*
X109423082Y-91636935D01*
X109416082Y-91660010D01*
X109413719Y-91684001D01*
X109416082Y-91707992D01*
X109423082Y-91731067D01*
X109434447Y-91752331D01*
X109449743Y-91770968D01*
X109468380Y-91786263D01*
X109489643Y-91797628D01*
X109512718Y-91804628D01*
X109536905Y-91807010D01*
X109538531Y-91808175D01*
X109538335Y-91810165D01*
X109536709Y-91811000D01*
X108903291Y-91811000D01*
X108901559Y-91810000D01*
X108901559Y-91808000D01*
X108903095Y-91807010D01*
X108927282Y-91804628D01*
X108950357Y-91797628D01*
X108971621Y-91786263D01*
X108990258Y-91770968D01*
X109005553Y-91752331D01*
X109016918Y-91731067D01*
X109023918Y-91707992D01*
X109026281Y-91684001D01*
X109023918Y-91660010D01*
X109016918Y-91636935D01*
X109005553Y-91615671D01*
X108990258Y-91597034D01*
X108971621Y-91581739D01*
X108955592Y-91573172D01*
X108954536Y-91571473D01*
X108955479Y-91569710D01*
X108957300Y-91569560D01*
X108959036Y-91570279D01*
X109131886Y-91604661D01*
X109308114Y-91604661D01*
X109480964Y-91570279D01*
X109482700Y-91569560D01*
X109484682Y-91569821D01*
G37*
M02*
