%FSLAX45Y45*%
G04 Gerber Fmt 4.5, Leading zero omitted, Abs format (unit mm)*
G04 Created by KiCad (PCBNEW 5.1.6+dfsg1-1) date 2020-07-01 02:54:39*
%MOMM*%
%LPD*%
G01*
G04 APERTURE LIST*
%TA.AperFunction,Profile*%
%ADD10C,0.050000*%
%TD*%
%ADD11C,0.200000*%
%ADD12C,0.300000*%
G04 APERTURE END LIST*
D10*
X16764000Y-7747000D02*
X16764000Y-9525000D01*
X13335000Y-7747000D02*
X16764000Y-7747000D01*
X10160000Y-7747000D02*
X13335000Y-7747000D01*
X10160000Y-9525000D02*
X10160000Y-7747000D01*
X10160000Y-9525000D02*
X10160000Y-15113000D01*
X16764000Y-15113000D02*
X16764000Y-9525000D01*
X10160000Y-15113000D02*
X16764000Y-15113000D01*
D11*
X10673400Y-13568998D02*
X10713400Y-13608998D01*
X10713400Y-13568998D02*
X10673400Y-13608998D01*
X10673400Y-14534200D02*
X10713400Y-14574200D01*
X10713400Y-14534200D02*
X10673400Y-14574200D01*
X11092500Y-11981500D02*
X11132500Y-12021500D01*
X11132500Y-11981500D02*
X11092500Y-12021500D01*
X12438700Y-13873800D02*
X12478700Y-13913800D01*
X12478700Y-13873800D02*
X12438700Y-13913800D01*
X12908135Y-10038865D02*
X12948135Y-10078865D01*
X12948135Y-10038865D02*
X12908135Y-10078865D01*
X12908600Y-9759000D02*
X12948600Y-9799000D01*
X12948600Y-9759000D02*
X12908600Y-9799000D01*
X13200700Y-12781600D02*
X13240700Y-12821600D01*
X13240700Y-12781600D02*
X13200700Y-12821600D01*
X13213402Y-9505000D02*
X13253402Y-9545000D01*
X13253402Y-9505000D02*
X13213402Y-9545000D01*
X13521900Y-13403900D02*
X13561900Y-13443900D01*
X13561900Y-13403900D02*
X13521900Y-13443900D01*
X13594400Y-13988100D02*
X13634400Y-14028100D01*
X13634400Y-13988100D02*
X13594400Y-14028100D01*
X13607100Y-12362501D02*
X13647100Y-12402501D01*
X13647100Y-12362501D02*
X13607100Y-12402501D01*
X14089700Y-11029000D02*
X14129700Y-11069000D01*
X14129700Y-11029000D02*
X14089700Y-11069000D01*
X14102400Y-10775000D02*
X14142400Y-10815000D01*
X14142400Y-10775000D02*
X14102400Y-10815000D01*
X14110166Y-11402234D02*
X14150166Y-11442234D01*
X14150166Y-11402234D02*
X14110166Y-11442234D01*
X14200798Y-12551850D02*
X14240798Y-12591850D01*
X14240798Y-12551850D02*
X14200798Y-12591850D01*
X14245799Y-12641900D02*
X14285799Y-12681900D01*
X14285799Y-12641900D02*
X14245799Y-12681900D01*
X15601000Y-12426000D02*
X15641000Y-12466000D01*
X15641000Y-12426000D02*
X15601000Y-12466000D01*
X15931200Y-10825800D02*
X15971200Y-10865800D01*
X15971200Y-10825800D02*
X15931200Y-10865800D01*
X16070900Y-13226100D02*
X16110900Y-13266100D01*
X16110900Y-13226100D02*
X16070900Y-13266100D01*
X16312200Y-13238800D02*
X16352200Y-13278800D01*
X16352200Y-13238800D02*
X16312200Y-13278800D01*
X16337600Y-10990900D02*
X16377600Y-11030900D01*
X16377600Y-10990900D02*
X16337600Y-11030900D01*
X11470000Y-12827000D02*
G75*
G03*
X11470000Y-12827000I-40000J0D01*
G01*
X11470000Y-13081000D02*
G75*
G03*
X11470000Y-13081000I-40000J0D01*
G01*
X11470000Y-13335000D02*
G75*
G03*
X11470000Y-13335000I-40000J0D01*
G01*
X11470000Y-13589000D02*
G75*
G03*
X11470000Y-13589000I-40000J0D01*
G01*
X11470000Y-13843000D02*
G75*
G03*
X11470000Y-13843000I-40000J0D01*
G01*
X11470000Y-14097000D02*
G75*
G03*
X11470000Y-14097000I-40000J0D01*
G01*
X11470000Y-14351000D02*
G75*
G03*
X11470000Y-14351000I-40000J0D01*
G01*
X11470000Y-14605000D02*
G75*
G03*
X11470000Y-14605000I-40000J0D01*
G01*
X12232000Y-12827000D02*
G75*
G03*
X12232000Y-12827000I-40000J0D01*
G01*
X12232000Y-13081000D02*
G75*
G03*
X12232000Y-13081000I-40000J0D01*
G01*
X12232000Y-13335000D02*
G75*
G03*
X12232000Y-13335000I-40000J0D01*
G01*
X12232000Y-13589000D02*
G75*
G03*
X12232000Y-13589000I-40000J0D01*
G01*
X12232000Y-13843000D02*
G75*
G03*
X12232000Y-13843000I-40000J0D01*
G01*
X12232000Y-14097000D02*
G75*
G03*
X12232000Y-14097000I-40000J0D01*
G01*
X12232000Y-14351000D02*
G75*
G03*
X12232000Y-14351000I-40000J0D01*
G01*
X12232000Y-14605000D02*
G75*
G03*
X12232000Y-14605000I-40000J0D01*
G01*
X15076800Y-11988800D02*
G75*
G03*
X15076800Y-11988800I-40000J0D01*
G01*
X15076800Y-13004800D02*
G75*
G03*
X15076800Y-13004800I-40000J0D01*
G01*
X15483200Y-10109200D02*
G75*
G03*
X15483200Y-10109200I-40000J0D01*
G01*
X15483200Y-11125200D02*
G75*
G03*
X15483200Y-11125200I-40000J0D01*
G01*
X15076800Y-10109200D02*
G75*
G03*
X15076800Y-10109200I-40000J0D01*
G01*
X15076800Y-11125200D02*
G75*
G03*
X15076800Y-11125200I-40000J0D01*
G01*
X15686400Y-11633200D02*
G75*
G03*
X15686400Y-11633200I-40000J0D01*
G01*
X15940400Y-11379200D02*
G75*
G03*
X15940400Y-11379200I-40000J0D01*
G01*
X16194400Y-11633200D02*
G75*
G03*
X16194400Y-11633200I-40000J0D01*
G01*
X14975200Y-11633200D02*
G75*
G03*
X14975200Y-11633200I-40000J0D01*
G01*
X15229200Y-11379200D02*
G75*
G03*
X15229200Y-11379200I-40000J0D01*
G01*
X15483200Y-11633200D02*
G75*
G03*
X15483200Y-11633200I-40000J0D01*
G01*
X12130400Y-11760200D02*
G75*
G03*
X12130400Y-11760200I-40000J0D01*
G01*
X12130400Y-12248200D02*
G75*
G03*
X12130400Y-12248200I-40000J0D01*
G01*
X14975200Y-13512800D02*
G75*
G03*
X14975200Y-13512800I-40000J0D01*
G01*
X15229200Y-13258800D02*
G75*
G03*
X15229200Y-13258800I-40000J0D01*
G01*
X15483200Y-13512800D02*
G75*
G03*
X15483200Y-13512800I-40000J0D01*
G01*
X11152500Y-11760200D02*
G75*
G03*
X11152500Y-11760200I-40000J0D01*
G01*
X11652500Y-11760200D02*
G75*
G03*
X11652500Y-11760200I-40000J0D01*
G01*
X16194400Y-13868400D02*
G75*
G03*
X16194400Y-13868400I-40000J0D01*
G01*
X16194400Y-14884400D02*
G75*
G03*
X16194400Y-14884400I-40000J0D01*
G01*
X12740000Y-9906000D02*
G75*
G03*
X12740000Y-9906000I-40000J0D01*
G01*
X12740000Y-10160000D02*
G75*
G03*
X12740000Y-10160000I-40000J0D01*
G01*
X12740000Y-10414000D02*
G75*
G03*
X12740000Y-10414000I-40000J0D01*
G01*
X12740000Y-10668000D02*
G75*
G03*
X12740000Y-10668000I-40000J0D01*
G01*
X12740000Y-10922000D02*
G75*
G03*
X12740000Y-10922000I-40000J0D01*
G01*
X12740000Y-11176000D02*
G75*
G03*
X12740000Y-11176000I-40000J0D01*
G01*
X12740000Y-11430000D02*
G75*
G03*
X12740000Y-11430000I-40000J0D01*
G01*
X12740000Y-11684000D02*
G75*
G03*
X12740000Y-11684000I-40000J0D01*
G01*
X12740000Y-11938000D02*
G75*
G03*
X12740000Y-11938000I-40000J0D01*
G01*
X12740000Y-12192000D02*
G75*
G03*
X12740000Y-12192000I-40000J0D01*
G01*
X12740000Y-12446000D02*
G75*
G03*
X12740000Y-12446000I-40000J0D01*
G01*
X12740000Y-12700000D02*
G75*
G03*
X12740000Y-12700000I-40000J0D01*
G01*
X12740000Y-12954000D02*
G75*
G03*
X12740000Y-12954000I-40000J0D01*
G01*
X12740000Y-13208000D02*
G75*
G03*
X12740000Y-13208000I-40000J0D01*
G01*
X13502000Y-9906000D02*
G75*
G03*
X13502000Y-9906000I-40000J0D01*
G01*
X13502000Y-10160000D02*
G75*
G03*
X13502000Y-10160000I-40000J0D01*
G01*
X13502000Y-10414000D02*
G75*
G03*
X13502000Y-10414000I-40000J0D01*
G01*
X13502000Y-10668000D02*
G75*
G03*
X13502000Y-10668000I-40000J0D01*
G01*
X13502000Y-10922000D02*
G75*
G03*
X13502000Y-10922000I-40000J0D01*
G01*
X13502000Y-11176000D02*
G75*
G03*
X13502000Y-11176000I-40000J0D01*
G01*
X13502000Y-11430000D02*
G75*
G03*
X13502000Y-11430000I-40000J0D01*
G01*
X13502000Y-11684000D02*
G75*
G03*
X13502000Y-11684000I-40000J0D01*
G01*
X13502000Y-11938000D02*
G75*
G03*
X13502000Y-11938000I-40000J0D01*
G01*
X13502000Y-12192000D02*
G75*
G03*
X13502000Y-12192000I-40000J0D01*
G01*
X13502000Y-12446000D02*
G75*
G03*
X13502000Y-12446000I-40000J0D01*
G01*
X13502000Y-12700000D02*
G75*
G03*
X13502000Y-12700000I-40000J0D01*
G01*
X13502000Y-12954000D02*
G75*
G03*
X13502000Y-12954000I-40000J0D01*
G01*
X13502000Y-13208000D02*
G75*
G03*
X13502000Y-13208000I-40000J0D01*
G01*
X15483200Y-13868400D02*
G75*
G03*
X15483200Y-13868400I-40000J0D01*
G01*
X15483200Y-14884400D02*
G75*
G03*
X15483200Y-14884400I-40000J0D01*
G01*
X12803500Y-9017000D02*
G75*
G03*
X12803500Y-9017000I-40000J0D01*
G01*
X13819500Y-9017000D02*
G75*
G03*
X13819500Y-9017000I-40000J0D01*
G01*
X15788000Y-10109200D02*
G75*
G03*
X15788000Y-10109200I-40000J0D01*
G01*
X15788000Y-11125200D02*
G75*
G03*
X15788000Y-11125200I-40000J0D01*
G01*
X11152500Y-12242800D02*
G75*
G03*
X11152500Y-12242800I-40000J0D01*
G01*
X11652500Y-12242800D02*
G75*
G03*
X11652500Y-12242800I-40000J0D01*
G01*
X15686400Y-9753600D02*
G75*
G03*
X15686400Y-9753600I-40000J0D01*
G01*
X15940400Y-9499600D02*
G75*
G03*
X15940400Y-9499600I-40000J0D01*
G01*
X16194400Y-9753600D02*
G75*
G03*
X16194400Y-9753600I-40000J0D01*
G01*
X15788000Y-11988800D02*
G75*
G03*
X15788000Y-11988800I-40000J0D01*
G01*
X15788000Y-13004800D02*
G75*
G03*
X15788000Y-13004800I-40000J0D01*
G01*
X16194400Y-10109200D02*
G75*
G03*
X16194400Y-10109200I-40000J0D01*
G01*
X16194400Y-11125200D02*
G75*
G03*
X16194400Y-11125200I-40000J0D01*
G01*
X13908400Y-12827000D02*
G75*
G03*
X13908400Y-12827000I-40000J0D01*
G01*
X13908400Y-13081000D02*
G75*
G03*
X13908400Y-13081000I-40000J0D01*
G01*
X13908400Y-13335000D02*
G75*
G03*
X13908400Y-13335000I-40000J0D01*
G01*
X13908400Y-13589000D02*
G75*
G03*
X13908400Y-13589000I-40000J0D01*
G01*
X13908400Y-13843000D02*
G75*
G03*
X13908400Y-13843000I-40000J0D01*
G01*
X13908400Y-14097000D02*
G75*
G03*
X13908400Y-14097000I-40000J0D01*
G01*
X13908400Y-14351000D02*
G75*
G03*
X13908400Y-14351000I-40000J0D01*
G01*
X13908400Y-14605000D02*
G75*
G03*
X13908400Y-14605000I-40000J0D01*
G01*
X14670400Y-12827000D02*
G75*
G03*
X14670400Y-12827000I-40000J0D01*
G01*
X14670400Y-13081000D02*
G75*
G03*
X14670400Y-13081000I-40000J0D01*
G01*
X14670400Y-13335000D02*
G75*
G03*
X14670400Y-13335000I-40000J0D01*
G01*
X14670400Y-13589000D02*
G75*
G03*
X14670400Y-13589000I-40000J0D01*
G01*
X14670400Y-13843000D02*
G75*
G03*
X14670400Y-13843000I-40000J0D01*
G01*
X14670400Y-14097000D02*
G75*
G03*
X14670400Y-14097000I-40000J0D01*
G01*
X14670400Y-14351000D02*
G75*
G03*
X14670400Y-14351000I-40000J0D01*
G01*
X14670400Y-14605000D02*
G75*
G03*
X14670400Y-14605000I-40000J0D01*
G01*
X15076800Y-13868400D02*
G75*
G03*
X15076800Y-13868400I-40000J0D01*
G01*
X15076800Y-14884400D02*
G75*
G03*
X15076800Y-14884400I-40000J0D01*
G01*
X10962000Y-9779000D02*
G75*
G03*
X10962000Y-9779000I-40000J0D01*
G01*
X11462000Y-9779000D02*
G75*
G03*
X11462000Y-9779000I-40000J0D01*
G01*
X13908400Y-10287000D02*
G75*
G03*
X13908400Y-10287000I-40000J0D01*
G01*
X13908400Y-10541000D02*
G75*
G03*
X13908400Y-10541000I-40000J0D01*
G01*
X13908400Y-10795000D02*
G75*
G03*
X13908400Y-10795000I-40000J0D01*
G01*
X13908400Y-11049000D02*
G75*
G03*
X13908400Y-11049000I-40000J0D01*
G01*
X13908400Y-11303000D02*
G75*
G03*
X13908400Y-11303000I-40000J0D01*
G01*
X13908400Y-11557000D02*
G75*
G03*
X13908400Y-11557000I-40000J0D01*
G01*
X13908400Y-11811000D02*
G75*
G03*
X13908400Y-11811000I-40000J0D01*
G01*
X13908400Y-12065000D02*
G75*
G03*
X13908400Y-12065000I-40000J0D01*
G01*
X14670400Y-10287000D02*
G75*
G03*
X14670400Y-10287000I-40000J0D01*
G01*
X14670400Y-10541000D02*
G75*
G03*
X14670400Y-10541000I-40000J0D01*
G01*
X14670400Y-10795000D02*
G75*
G03*
X14670400Y-10795000I-40000J0D01*
G01*
X14670400Y-11049000D02*
G75*
G03*
X14670400Y-11049000I-40000J0D01*
G01*
X14670400Y-11303000D02*
G75*
G03*
X14670400Y-11303000I-40000J0D01*
G01*
X14670400Y-11557000D02*
G75*
G03*
X14670400Y-11557000I-40000J0D01*
G01*
X14670400Y-11811000D02*
G75*
G03*
X14670400Y-11811000I-40000J0D01*
G01*
X14670400Y-12065000D02*
G75*
G03*
X14670400Y-12065000I-40000J0D01*
G01*
X16194400Y-11988800D02*
G75*
G03*
X16194400Y-11988800I-40000J0D01*
G01*
X16194400Y-13004800D02*
G75*
G03*
X16194400Y-13004800I-40000J0D01*
G01*
X15686400Y-13512800D02*
G75*
G03*
X15686400Y-13512800I-40000J0D01*
G01*
X15940400Y-13258800D02*
G75*
G03*
X15940400Y-13258800I-40000J0D01*
G01*
X16194400Y-13512800D02*
G75*
G03*
X16194400Y-13512800I-40000J0D01*
G01*
X14975200Y-9753600D02*
G75*
G03*
X14975200Y-9753600I-40000J0D01*
G01*
X15229200Y-9499600D02*
G75*
G03*
X15229200Y-9499600I-40000J0D01*
G01*
X15483200Y-9753600D02*
G75*
G03*
X15483200Y-9753600I-40000J0D01*
G01*
X15788000Y-13868400D02*
G75*
G03*
X15788000Y-13868400I-40000J0D01*
G01*
X15788000Y-14884400D02*
G75*
G03*
X15788000Y-14884400I-40000J0D01*
G01*
X15483200Y-11988800D02*
G75*
G03*
X15483200Y-11988800I-40000J0D01*
G01*
X15483200Y-13004800D02*
G75*
G03*
X15483200Y-13004800I-40000J0D01*
G01*
X13766800Y-8235400D02*
X13766800Y-8325400D01*
X13721800Y-8280400D02*
X13811800Y-8280400D01*
X13982700Y-8235400D02*
X13982700Y-8325400D01*
X13937700Y-8280400D02*
X14027700Y-8280400D01*
X14198600Y-8235400D02*
X14198600Y-8325400D01*
X14153600Y-8280400D02*
X14243600Y-8280400D01*
X14414500Y-8235400D02*
X14414500Y-8325400D01*
X14369500Y-8280400D02*
X14459500Y-8280400D01*
X10954527Y-9103527D02*
X10954527Y-9038473D01*
X10889473Y-9038473D01*
X10889473Y-9103527D01*
X10954527Y-9103527D01*
X10954527Y-9303527D02*
X10954527Y-9238473D01*
X10889473Y-9238473D01*
X10889473Y-9303527D01*
X10954527Y-9303527D01*
X11204527Y-9103527D02*
X11204527Y-9038473D01*
X11139473Y-9038473D01*
X11139473Y-9103527D01*
X11204527Y-9103527D01*
X11204527Y-9303527D02*
X11204527Y-9238473D01*
X11139473Y-9238473D01*
X11139473Y-9303527D01*
X11204527Y-9303527D01*
X12801600Y-13816800D02*
X12851600Y-13766800D01*
X12801600Y-13716800D01*
X12751600Y-13766800D01*
X12801600Y-13816800D01*
X12801600Y-14070800D02*
X12851600Y-14020800D01*
X12801600Y-13970800D01*
X12751600Y-14020800D01*
X12801600Y-14070800D01*
X13055600Y-13816800D02*
X13105600Y-13766800D01*
X13055600Y-13716800D01*
X13005600Y-13766800D01*
X13055600Y-13816800D01*
X13055600Y-14070800D02*
X13105600Y-14020800D01*
X13055600Y-13970800D01*
X13005600Y-14020800D01*
X13055600Y-14070800D01*
X13309600Y-13816800D02*
X13359600Y-13766800D01*
X13309600Y-13716800D01*
X13259600Y-13766800D01*
X13309600Y-13816800D01*
X13309600Y-14070800D02*
X13359600Y-14020800D01*
X13309600Y-13970800D01*
X13259600Y-14020800D01*
X13309600Y-14070800D01*
X16510000Y-10210000D02*
X16560000Y-10160000D01*
X16510000Y-10110000D01*
X16460000Y-10160000D01*
X16510000Y-10210000D01*
X16510000Y-10464000D02*
X16560000Y-10414000D01*
X16510000Y-10364000D01*
X16460000Y-10414000D01*
X16510000Y-10464000D01*
X16510000Y-10718000D02*
X16560000Y-10668000D01*
X16510000Y-10618000D01*
X16460000Y-10668000D01*
X16510000Y-10718000D01*
X16510000Y-10972000D02*
X16560000Y-10922000D01*
X16510000Y-10872000D01*
X16460000Y-10922000D01*
X16510000Y-10972000D01*
X16510000Y-11226000D02*
X16560000Y-11176000D01*
X16510000Y-11126000D01*
X16460000Y-11176000D01*
X16510000Y-11226000D01*
X16510000Y-11480000D02*
X16560000Y-11430000D01*
X16510000Y-11380000D01*
X16460000Y-11430000D01*
X16510000Y-11480000D01*
X16510000Y-11734000D02*
X16560000Y-11684000D01*
X16510000Y-11634000D01*
X16460000Y-11684000D01*
X16510000Y-11734000D01*
X16510000Y-11988000D02*
X16560000Y-11938000D01*
X16510000Y-11888000D01*
X16460000Y-11938000D01*
X16510000Y-11988000D01*
X16510000Y-12242000D02*
X16560000Y-12192000D01*
X16510000Y-12142000D01*
X16460000Y-12192000D01*
X16510000Y-12242000D01*
X16510000Y-12496000D02*
X16560000Y-12446000D01*
X16510000Y-12396000D01*
X16460000Y-12446000D01*
X16510000Y-12496000D01*
X16510000Y-12750000D02*
X16560000Y-12700000D01*
X16510000Y-12650000D01*
X16460000Y-12700000D01*
X16510000Y-12750000D01*
X16510000Y-13004000D02*
X16560000Y-12954000D01*
X16510000Y-12904000D01*
X16460000Y-12954000D01*
X16510000Y-13004000D01*
X16510000Y-13258000D02*
X16560000Y-13208000D01*
X16510000Y-13158000D01*
X16460000Y-13208000D01*
X16510000Y-13258000D01*
X16510000Y-13512000D02*
X16560000Y-13462000D01*
X16510000Y-13412000D01*
X16460000Y-13462000D01*
X16510000Y-13512000D01*
X16510000Y-13766000D02*
X16560000Y-13716000D01*
X16510000Y-13666000D01*
X16460000Y-13716000D01*
X16510000Y-13766000D01*
X16510000Y-14020000D02*
X16560000Y-13970000D01*
X16510000Y-13920000D01*
X16460000Y-13970000D01*
X16510000Y-14020000D01*
X16510000Y-14274000D02*
X16560000Y-14224000D01*
X16510000Y-14174000D01*
X16460000Y-14224000D01*
X16510000Y-14274000D01*
X16510000Y-14528000D02*
X16560000Y-14478000D01*
X16510000Y-14428000D01*
X16460000Y-14478000D01*
X16510000Y-14528000D01*
X10414000Y-10210000D02*
X10464000Y-10160000D01*
X10414000Y-10110000D01*
X10364000Y-10160000D01*
X10414000Y-10210000D01*
X10414000Y-10464000D02*
X10464000Y-10414000D01*
X10414000Y-10364000D01*
X10364000Y-10414000D01*
X10414000Y-10464000D01*
X10414000Y-10718000D02*
X10464000Y-10668000D01*
X10414000Y-10618000D01*
X10364000Y-10668000D01*
X10414000Y-10718000D01*
X10414000Y-10972000D02*
X10464000Y-10922000D01*
X10414000Y-10872000D01*
X10364000Y-10922000D01*
X10414000Y-10972000D01*
X10414000Y-11226000D02*
X10464000Y-11176000D01*
X10414000Y-11126000D01*
X10364000Y-11176000D01*
X10414000Y-11226000D01*
X10414000Y-11480000D02*
X10464000Y-11430000D01*
X10414000Y-11380000D01*
X10364000Y-11430000D01*
X10414000Y-11480000D01*
X10414000Y-11734000D02*
X10464000Y-11684000D01*
X10414000Y-11634000D01*
X10364000Y-11684000D01*
X10414000Y-11734000D01*
X10414000Y-11988000D02*
X10464000Y-11938000D01*
X10414000Y-11888000D01*
X10364000Y-11938000D01*
X10414000Y-11988000D01*
X10414000Y-12242000D02*
X10464000Y-12192000D01*
X10414000Y-12142000D01*
X10364000Y-12192000D01*
X10414000Y-12242000D01*
X10414000Y-12496000D02*
X10464000Y-12446000D01*
X10414000Y-12396000D01*
X10364000Y-12446000D01*
X10414000Y-12496000D01*
X10414000Y-12750000D02*
X10464000Y-12700000D01*
X10414000Y-12650000D01*
X10364000Y-12700000D01*
X10414000Y-12750000D01*
X10414000Y-13004000D02*
X10464000Y-12954000D01*
X10414000Y-12904000D01*
X10364000Y-12954000D01*
X10414000Y-13004000D01*
X10414000Y-13258000D02*
X10464000Y-13208000D01*
X10414000Y-13158000D01*
X10364000Y-13208000D01*
X10414000Y-13258000D01*
X10414000Y-13512000D02*
X10464000Y-13462000D01*
X10414000Y-13412000D01*
X10364000Y-13462000D01*
X10414000Y-13512000D01*
X10414000Y-13766000D02*
X10464000Y-13716000D01*
X10414000Y-13666000D01*
X10364000Y-13716000D01*
X10414000Y-13766000D01*
X10414000Y-14020000D02*
X10464000Y-13970000D01*
X10414000Y-13920000D01*
X10364000Y-13970000D01*
X10414000Y-14020000D01*
X10414000Y-14274000D02*
X10464000Y-14224000D01*
X10414000Y-14174000D01*
X10364000Y-14224000D01*
X10414000Y-14274000D01*
X10414000Y-14528000D02*
X10464000Y-14478000D01*
X10414000Y-14428000D01*
X10364000Y-14478000D01*
X10414000Y-14528000D01*
X15850362Y-7976362D02*
X15950438Y-8076438D01*
X15950438Y-7976362D02*
X15850362Y-8076438D01*
X15950438Y-8026400D02*
G75*
G03*
X15950438Y-8026400I-50038J0D01*
G01*
X16231362Y-7976362D02*
X16331438Y-8076438D01*
X16331438Y-7976362D02*
X16231362Y-8076438D01*
X16331438Y-8026400D02*
G75*
G03*
X16331438Y-8026400I-50038J0D01*
G01*
X14986762Y-7976362D02*
X15086838Y-8076438D01*
X15086838Y-7976362D02*
X14986762Y-8076438D01*
X15086838Y-8026400D02*
G75*
G03*
X15086838Y-8026400I-50038J0D01*
G01*
X15367762Y-7976362D02*
X15467838Y-8076438D01*
X15467838Y-7976362D02*
X15367762Y-8076438D01*
X15467838Y-8026400D02*
G75*
G03*
X15467838Y-8026400I-50038J0D01*
G01*
X14662000Y-8454000D02*
X14772000Y-8564000D01*
X14772000Y-8454000D02*
X14662000Y-8564000D01*
X14717000Y-8454000D02*
X14717000Y-8564000D01*
X14662000Y-8509000D02*
X14772000Y-8509000D01*
X14662000Y-8708000D02*
X14772000Y-8818000D01*
X14772000Y-8708000D02*
X14662000Y-8818000D01*
X14717000Y-8708000D02*
X14717000Y-8818000D01*
X14662000Y-8763000D02*
X14772000Y-8763000D01*
X14662000Y-8962000D02*
X14772000Y-9072000D01*
X14772000Y-8962000D02*
X14662000Y-9072000D01*
X14717000Y-8962000D02*
X14717000Y-9072000D01*
X14662000Y-9017000D02*
X14772000Y-9017000D01*
X12452200Y-7978600D02*
X12562200Y-8088600D01*
X12562200Y-7978600D02*
X12452200Y-8088600D01*
X12507200Y-7978600D02*
X12507200Y-8088600D01*
X12452200Y-8033600D02*
X12562200Y-8033600D01*
X12452200Y-8428600D02*
X12562200Y-8538600D01*
X12562200Y-8428600D02*
X12452200Y-8538600D01*
X12507200Y-8428600D02*
X12507200Y-8538600D01*
X12452200Y-8483600D02*
X12562200Y-8483600D01*
X13102200Y-7978600D02*
X13212200Y-8088600D01*
X13212200Y-7978600D02*
X13102200Y-8088600D01*
X13157200Y-7978600D02*
X13157200Y-8088600D01*
X13102200Y-8033600D02*
X13212200Y-8033600D01*
X13102200Y-8428600D02*
X13212200Y-8538600D01*
X13212200Y-8428600D02*
X13102200Y-8538600D01*
X13157200Y-8428600D02*
X13157200Y-8538600D01*
X13102200Y-8483600D02*
X13212200Y-8483600D01*
X10328500Y-8683500D02*
X10561500Y-8916500D01*
X10561500Y-8683500D02*
X10328500Y-8916500D01*
X10527379Y-8882379D02*
X10527379Y-8717621D01*
X10362621Y-8717621D01*
X10362621Y-8882379D01*
X10527379Y-8882379D01*
X11532500Y-8683500D02*
X11765500Y-8916500D01*
X11765500Y-8683500D02*
X11532500Y-8916500D01*
X11731379Y-8882379D02*
X11731379Y-8717621D01*
X11566621Y-8717621D01*
X11566621Y-8882379D01*
X11731379Y-8882379D01*
D12*
X10443928Y-15581214D02*
X10443928Y-15281214D01*
X10515357Y-15281214D01*
X10558214Y-15295500D01*
X10586786Y-15324071D01*
X10601071Y-15352643D01*
X10615357Y-15409786D01*
X10615357Y-15452643D01*
X10601071Y-15509786D01*
X10586786Y-15538357D01*
X10558214Y-15566929D01*
X10515357Y-15581214D01*
X10443928Y-15581214D01*
X10743928Y-15581214D02*
X10743928Y-15381214D01*
X10743928Y-15438357D02*
X10758214Y-15409786D01*
X10772500Y-15395500D01*
X10801071Y-15381214D01*
X10829643Y-15381214D01*
X10929643Y-15581214D02*
X10929643Y-15381214D01*
X10929643Y-15281214D02*
X10915357Y-15295500D01*
X10929643Y-15309786D01*
X10943928Y-15295500D01*
X10929643Y-15281214D01*
X10929643Y-15309786D01*
X11115357Y-15581214D02*
X11086786Y-15566929D01*
X11072500Y-15538357D01*
X11072500Y-15281214D01*
X11272500Y-15581214D02*
X11243928Y-15566929D01*
X11229643Y-15538357D01*
X11229643Y-15281214D01*
X11615357Y-15581214D02*
X11615357Y-15281214D01*
X11715357Y-15495500D01*
X11815357Y-15281214D01*
X11815357Y-15581214D01*
X12086786Y-15581214D02*
X12086786Y-15424071D01*
X12072500Y-15395500D01*
X12043928Y-15381214D01*
X11986786Y-15381214D01*
X11958214Y-15395500D01*
X12086786Y-15566929D02*
X12058214Y-15581214D01*
X11986786Y-15581214D01*
X11958214Y-15566929D01*
X11943928Y-15538357D01*
X11943928Y-15509786D01*
X11958214Y-15481214D01*
X11986786Y-15466929D01*
X12058214Y-15466929D01*
X12086786Y-15452643D01*
X12229643Y-15381214D02*
X12229643Y-15681214D01*
X12229643Y-15395500D02*
X12258214Y-15381214D01*
X12315357Y-15381214D01*
X12343928Y-15395500D01*
X12358214Y-15409786D01*
X12372500Y-15438357D01*
X12372500Y-15524071D01*
X12358214Y-15552643D01*
X12343928Y-15566929D01*
X12315357Y-15581214D01*
X12258214Y-15581214D01*
X12229643Y-15566929D01*
X12501071Y-15552643D02*
X12515357Y-15566929D01*
X12501071Y-15581214D01*
X12486786Y-15566929D01*
X12501071Y-15552643D01*
X12501071Y-15581214D01*
X12501071Y-15395500D02*
X12515357Y-15409786D01*
X12501071Y-15424071D01*
X12486786Y-15409786D01*
X12501071Y-15395500D01*
X12501071Y-15424071D01*
X10117500Y-16055500D02*
X10157500Y-16095500D01*
X10157500Y-16055500D02*
X10117500Y-16095500D01*
X10501071Y-15911214D02*
X10529643Y-15911214D01*
X10558214Y-15925500D01*
X10572500Y-15939786D01*
X10586786Y-15968357D01*
X10601071Y-16025500D01*
X10601071Y-16096929D01*
X10586786Y-16154071D01*
X10572500Y-16182643D01*
X10558214Y-16196929D01*
X10529643Y-16211214D01*
X10501071Y-16211214D01*
X10472500Y-16196929D01*
X10458214Y-16182643D01*
X10443928Y-16154071D01*
X10429643Y-16096929D01*
X10429643Y-16025500D01*
X10443928Y-15968357D01*
X10458214Y-15939786D01*
X10472500Y-15925500D01*
X10501071Y-15911214D01*
X10729643Y-16182643D02*
X10743928Y-16196929D01*
X10729643Y-16211214D01*
X10715357Y-16196929D01*
X10729643Y-16182643D01*
X10729643Y-16211214D01*
X11001071Y-16011214D02*
X11001071Y-16211214D01*
X10929643Y-15896929D02*
X10858214Y-16111214D01*
X11043928Y-16111214D01*
X11215357Y-15911214D02*
X11243928Y-15911214D01*
X11272500Y-15925500D01*
X11286786Y-15939786D01*
X11301071Y-15968357D01*
X11315357Y-16025500D01*
X11315357Y-16096929D01*
X11301071Y-16154071D01*
X11286786Y-16182643D01*
X11272500Y-16196929D01*
X11243928Y-16211214D01*
X11215357Y-16211214D01*
X11186786Y-16196929D01*
X11172500Y-16182643D01*
X11158214Y-16154071D01*
X11143928Y-16096929D01*
X11143928Y-16025500D01*
X11158214Y-15968357D01*
X11172500Y-15939786D01*
X11186786Y-15925500D01*
X11215357Y-15911214D01*
X11443928Y-16211214D02*
X11443928Y-16011214D01*
X11443928Y-16039786D02*
X11458214Y-16025500D01*
X11486786Y-16011214D01*
X11529643Y-16011214D01*
X11558214Y-16025500D01*
X11572500Y-16054071D01*
X11572500Y-16211214D01*
X11572500Y-16054071D02*
X11586786Y-16025500D01*
X11615357Y-16011214D01*
X11658214Y-16011214D01*
X11686786Y-16025500D01*
X11701071Y-16054071D01*
X11701071Y-16211214D01*
X11843928Y-16211214D02*
X11843928Y-16011214D01*
X11843928Y-16039786D02*
X11858214Y-16025500D01*
X11886786Y-16011214D01*
X11929643Y-16011214D01*
X11958214Y-16025500D01*
X11972500Y-16054071D01*
X11972500Y-16211214D01*
X11972500Y-16054071D02*
X11986786Y-16025500D01*
X12015357Y-16011214D01*
X12058214Y-16011214D01*
X12086786Y-16025500D01*
X12101071Y-16054071D01*
X12101071Y-16211214D01*
X12686786Y-15896929D02*
X12429643Y-16282643D01*
X13072500Y-15911214D02*
X13101071Y-15911214D01*
X13129643Y-15925500D01*
X13143928Y-15939786D01*
X13158214Y-15968357D01*
X13172500Y-16025500D01*
X13172500Y-16096929D01*
X13158214Y-16154071D01*
X13143928Y-16182643D01*
X13129643Y-16196929D01*
X13101071Y-16211214D01*
X13072500Y-16211214D01*
X13043928Y-16196929D01*
X13029643Y-16182643D01*
X13015357Y-16154071D01*
X13001071Y-16096929D01*
X13001071Y-16025500D01*
X13015357Y-15968357D01*
X13029643Y-15939786D01*
X13043928Y-15925500D01*
X13072500Y-15911214D01*
X13301071Y-16182643D02*
X13315357Y-16196929D01*
X13301071Y-16211214D01*
X13286786Y-16196929D01*
X13301071Y-16182643D01*
X13301071Y-16211214D01*
X13501071Y-15911214D02*
X13529643Y-15911214D01*
X13558214Y-15925500D01*
X13572500Y-15939786D01*
X13586786Y-15968357D01*
X13601071Y-16025500D01*
X13601071Y-16096929D01*
X13586786Y-16154071D01*
X13572500Y-16182643D01*
X13558214Y-16196929D01*
X13529643Y-16211214D01*
X13501071Y-16211214D01*
X13472500Y-16196929D01*
X13458214Y-16182643D01*
X13443928Y-16154071D01*
X13429643Y-16096929D01*
X13429643Y-16025500D01*
X13443928Y-15968357D01*
X13458214Y-15939786D01*
X13472500Y-15925500D01*
X13501071Y-15911214D01*
X13886786Y-16211214D02*
X13715357Y-16211214D01*
X13801071Y-16211214D02*
X13801071Y-15911214D01*
X13772500Y-15954071D01*
X13743928Y-15982643D01*
X13715357Y-15996929D01*
X14143928Y-15911214D02*
X14086786Y-15911214D01*
X14058214Y-15925500D01*
X14043928Y-15939786D01*
X14015357Y-15982643D01*
X14001071Y-16039786D01*
X14001071Y-16154071D01*
X14015357Y-16182643D01*
X14029643Y-16196929D01*
X14058214Y-16211214D01*
X14115357Y-16211214D01*
X14143928Y-16196929D01*
X14158214Y-16182643D01*
X14172500Y-16154071D01*
X14172500Y-16082643D01*
X14158214Y-16054071D01*
X14143928Y-16039786D01*
X14115357Y-16025500D01*
X14058214Y-16025500D01*
X14029643Y-16039786D01*
X14015357Y-16054071D01*
X14001071Y-16082643D01*
X14286786Y-15911214D02*
X14286786Y-15968357D01*
X14401071Y-15911214D02*
X14401071Y-15968357D01*
X14843928Y-16325500D02*
X14829643Y-16311214D01*
X14801071Y-16268357D01*
X14786786Y-16239786D01*
X14772500Y-16196929D01*
X14758214Y-16125500D01*
X14758214Y-16068357D01*
X14772500Y-15996929D01*
X14786786Y-15954071D01*
X14801071Y-15925500D01*
X14829643Y-15882643D01*
X14843928Y-15868357D01*
X14943928Y-15939786D02*
X14958214Y-15925500D01*
X14986786Y-15911214D01*
X15058214Y-15911214D01*
X15086786Y-15925500D01*
X15101071Y-15939786D01*
X15115357Y-15968357D01*
X15115357Y-15996929D01*
X15101071Y-16039786D01*
X14929643Y-16211214D01*
X15115357Y-16211214D01*
X15401071Y-16211214D02*
X15229643Y-16211214D01*
X15315357Y-16211214D02*
X15315357Y-15911214D01*
X15286786Y-15954071D01*
X15258214Y-15982643D01*
X15229643Y-15996929D01*
X15758214Y-16211214D02*
X15758214Y-15911214D01*
X15886786Y-16211214D02*
X15886786Y-16054071D01*
X15872500Y-16025500D01*
X15843928Y-16011214D01*
X15801071Y-16011214D01*
X15772500Y-16025500D01*
X15758214Y-16039786D01*
X16072500Y-16211214D02*
X16043928Y-16196929D01*
X16029643Y-16182643D01*
X16015357Y-16154071D01*
X16015357Y-16068357D01*
X16029643Y-16039786D01*
X16043928Y-16025500D01*
X16072500Y-16011214D01*
X16115357Y-16011214D01*
X16143928Y-16025500D01*
X16158214Y-16039786D01*
X16172500Y-16068357D01*
X16172500Y-16154071D01*
X16158214Y-16182643D01*
X16143928Y-16196929D01*
X16115357Y-16211214D01*
X16072500Y-16211214D01*
X16343928Y-16211214D02*
X16315357Y-16196929D01*
X16301071Y-16168357D01*
X16301071Y-15911214D01*
X16572500Y-16196929D02*
X16543928Y-16211214D01*
X16486786Y-16211214D01*
X16458214Y-16196929D01*
X16443928Y-16168357D01*
X16443928Y-16054071D01*
X16458214Y-16025500D01*
X16486786Y-16011214D01*
X16543928Y-16011214D01*
X16572500Y-16025500D01*
X16586786Y-16054071D01*
X16586786Y-16082643D01*
X16443928Y-16111214D01*
X16701071Y-16196929D02*
X16729643Y-16211214D01*
X16786786Y-16211214D01*
X16815357Y-16196929D01*
X16829643Y-16168357D01*
X16829643Y-16154071D01*
X16815357Y-16125500D01*
X16786786Y-16111214D01*
X16743928Y-16111214D01*
X16715357Y-16096929D01*
X16701071Y-16068357D01*
X16701071Y-16054071D01*
X16715357Y-16025500D01*
X16743928Y-16011214D01*
X16786786Y-16011214D01*
X16815357Y-16025500D01*
X16929643Y-16325500D02*
X16943928Y-16311214D01*
X16972500Y-16268357D01*
X16986786Y-16239786D01*
X17001071Y-16196929D01*
X17015357Y-16125500D01*
X17015357Y-16068357D01*
X17001071Y-15996929D01*
X16986786Y-15954071D01*
X16972500Y-15925500D01*
X16943928Y-15882643D01*
X16929643Y-15868357D01*
X10157500Y-16471500D02*
G75*
G03*
X10157500Y-16471500I-40000J0D01*
G01*
X10501071Y-16307214D02*
X10529643Y-16307214D01*
X10558214Y-16321500D01*
X10572500Y-16335786D01*
X10586786Y-16364357D01*
X10601071Y-16421500D01*
X10601071Y-16492929D01*
X10586786Y-16550071D01*
X10572500Y-16578643D01*
X10558214Y-16592929D01*
X10529643Y-16607214D01*
X10501071Y-16607214D01*
X10472500Y-16592929D01*
X10458214Y-16578643D01*
X10443928Y-16550071D01*
X10429643Y-16492929D01*
X10429643Y-16421500D01*
X10443928Y-16364357D01*
X10458214Y-16335786D01*
X10472500Y-16321500D01*
X10501071Y-16307214D01*
X10729643Y-16578643D02*
X10743928Y-16592929D01*
X10729643Y-16607214D01*
X10715357Y-16592929D01*
X10729643Y-16578643D01*
X10729643Y-16607214D01*
X10915357Y-16435786D02*
X10886786Y-16421500D01*
X10872500Y-16407214D01*
X10858214Y-16378643D01*
X10858214Y-16364357D01*
X10872500Y-16335786D01*
X10886786Y-16321500D01*
X10915357Y-16307214D01*
X10972500Y-16307214D01*
X11001071Y-16321500D01*
X11015357Y-16335786D01*
X11029643Y-16364357D01*
X11029643Y-16378643D01*
X11015357Y-16407214D01*
X11001071Y-16421500D01*
X10972500Y-16435786D01*
X10915357Y-16435786D01*
X10886786Y-16450071D01*
X10872500Y-16464357D01*
X10858214Y-16492929D01*
X10858214Y-16550071D01*
X10872500Y-16578643D01*
X10886786Y-16592929D01*
X10915357Y-16607214D01*
X10972500Y-16607214D01*
X11001071Y-16592929D01*
X11015357Y-16578643D01*
X11029643Y-16550071D01*
X11029643Y-16492929D01*
X11015357Y-16464357D01*
X11001071Y-16450071D01*
X10972500Y-16435786D01*
X11215357Y-16307214D02*
X11243928Y-16307214D01*
X11272500Y-16321500D01*
X11286786Y-16335786D01*
X11301071Y-16364357D01*
X11315357Y-16421500D01*
X11315357Y-16492929D01*
X11301071Y-16550071D01*
X11286786Y-16578643D01*
X11272500Y-16592929D01*
X11243928Y-16607214D01*
X11215357Y-16607214D01*
X11186786Y-16592929D01*
X11172500Y-16578643D01*
X11158214Y-16550071D01*
X11143928Y-16492929D01*
X11143928Y-16421500D01*
X11158214Y-16364357D01*
X11172500Y-16335786D01*
X11186786Y-16321500D01*
X11215357Y-16307214D01*
X11443928Y-16607214D02*
X11443928Y-16407214D01*
X11443928Y-16435786D02*
X11458214Y-16421500D01*
X11486786Y-16407214D01*
X11529643Y-16407214D01*
X11558214Y-16421500D01*
X11572500Y-16450071D01*
X11572500Y-16607214D01*
X11572500Y-16450071D02*
X11586786Y-16421500D01*
X11615357Y-16407214D01*
X11658214Y-16407214D01*
X11686786Y-16421500D01*
X11701071Y-16450071D01*
X11701071Y-16607214D01*
X11843928Y-16607214D02*
X11843928Y-16407214D01*
X11843928Y-16435786D02*
X11858214Y-16421500D01*
X11886786Y-16407214D01*
X11929643Y-16407214D01*
X11958214Y-16421500D01*
X11972500Y-16450071D01*
X11972500Y-16607214D01*
X11972500Y-16450071D02*
X11986786Y-16421500D01*
X12015357Y-16407214D01*
X12058214Y-16407214D01*
X12086786Y-16421500D01*
X12101071Y-16450071D01*
X12101071Y-16607214D01*
X12686786Y-16292929D02*
X12429643Y-16678643D01*
X13072500Y-16307214D02*
X13101071Y-16307214D01*
X13129643Y-16321500D01*
X13143928Y-16335786D01*
X13158214Y-16364357D01*
X13172500Y-16421500D01*
X13172500Y-16492929D01*
X13158214Y-16550071D01*
X13143928Y-16578643D01*
X13129643Y-16592929D01*
X13101071Y-16607214D01*
X13072500Y-16607214D01*
X13043928Y-16592929D01*
X13029643Y-16578643D01*
X13015357Y-16550071D01*
X13001071Y-16492929D01*
X13001071Y-16421500D01*
X13015357Y-16364357D01*
X13029643Y-16335786D01*
X13043928Y-16321500D01*
X13072500Y-16307214D01*
X13301071Y-16578643D02*
X13315357Y-16592929D01*
X13301071Y-16607214D01*
X13286786Y-16592929D01*
X13301071Y-16578643D01*
X13301071Y-16607214D01*
X13501071Y-16307214D02*
X13529643Y-16307214D01*
X13558214Y-16321500D01*
X13572500Y-16335786D01*
X13586786Y-16364357D01*
X13601071Y-16421500D01*
X13601071Y-16492929D01*
X13586786Y-16550071D01*
X13572500Y-16578643D01*
X13558214Y-16592929D01*
X13529643Y-16607214D01*
X13501071Y-16607214D01*
X13472500Y-16592929D01*
X13458214Y-16578643D01*
X13443928Y-16550071D01*
X13429643Y-16492929D01*
X13429643Y-16421500D01*
X13443928Y-16364357D01*
X13458214Y-16335786D01*
X13472500Y-16321500D01*
X13501071Y-16307214D01*
X13701071Y-16307214D02*
X13886786Y-16307214D01*
X13786786Y-16421500D01*
X13829643Y-16421500D01*
X13858214Y-16435786D01*
X13872500Y-16450071D01*
X13886786Y-16478643D01*
X13886786Y-16550071D01*
X13872500Y-16578643D01*
X13858214Y-16592929D01*
X13829643Y-16607214D01*
X13743928Y-16607214D01*
X13715357Y-16592929D01*
X13701071Y-16578643D01*
X14172500Y-16607214D02*
X14001071Y-16607214D01*
X14086786Y-16607214D02*
X14086786Y-16307214D01*
X14058214Y-16350071D01*
X14029643Y-16378643D01*
X14001071Y-16392929D01*
X14286786Y-16307214D02*
X14286786Y-16364357D01*
X14401071Y-16307214D02*
X14401071Y-16364357D01*
X14843928Y-16721500D02*
X14829643Y-16707214D01*
X14801071Y-16664357D01*
X14786786Y-16635786D01*
X14772500Y-16592929D01*
X14758214Y-16521500D01*
X14758214Y-16464357D01*
X14772500Y-16392929D01*
X14786786Y-16350071D01*
X14801071Y-16321500D01*
X14829643Y-16278643D01*
X14843928Y-16264357D01*
X15115357Y-16607214D02*
X14943928Y-16607214D01*
X15029643Y-16607214D02*
X15029643Y-16307214D01*
X15001071Y-16350071D01*
X14972500Y-16378643D01*
X14943928Y-16392929D01*
X15229643Y-16335786D02*
X15243928Y-16321500D01*
X15272500Y-16307214D01*
X15343928Y-16307214D01*
X15372500Y-16321500D01*
X15386786Y-16335786D01*
X15401071Y-16364357D01*
X15401071Y-16392929D01*
X15386786Y-16435786D01*
X15215357Y-16607214D01*
X15401071Y-16607214D01*
X15572500Y-16435786D02*
X15543928Y-16421500D01*
X15529643Y-16407214D01*
X15515357Y-16378643D01*
X15515357Y-16364357D01*
X15529643Y-16335786D01*
X15543928Y-16321500D01*
X15572500Y-16307214D01*
X15629643Y-16307214D01*
X15658214Y-16321500D01*
X15672500Y-16335786D01*
X15686786Y-16364357D01*
X15686786Y-16378643D01*
X15672500Y-16407214D01*
X15658214Y-16421500D01*
X15629643Y-16435786D01*
X15572500Y-16435786D01*
X15543928Y-16450071D01*
X15529643Y-16464357D01*
X15515357Y-16492929D01*
X15515357Y-16550071D01*
X15529643Y-16578643D01*
X15543928Y-16592929D01*
X15572500Y-16607214D01*
X15629643Y-16607214D01*
X15658214Y-16592929D01*
X15672500Y-16578643D01*
X15686786Y-16550071D01*
X15686786Y-16492929D01*
X15672500Y-16464357D01*
X15658214Y-16450071D01*
X15629643Y-16435786D01*
X16043928Y-16607214D02*
X16043928Y-16307214D01*
X16172500Y-16607214D02*
X16172500Y-16450071D01*
X16158214Y-16421500D01*
X16129643Y-16407214D01*
X16086786Y-16407214D01*
X16058214Y-16421500D01*
X16043928Y-16435786D01*
X16358214Y-16607214D02*
X16329643Y-16592929D01*
X16315357Y-16578643D01*
X16301071Y-16550071D01*
X16301071Y-16464357D01*
X16315357Y-16435786D01*
X16329643Y-16421500D01*
X16358214Y-16407214D01*
X16401071Y-16407214D01*
X16429643Y-16421500D01*
X16443928Y-16435786D01*
X16458214Y-16464357D01*
X16458214Y-16550071D01*
X16443928Y-16578643D01*
X16429643Y-16592929D01*
X16401071Y-16607214D01*
X16358214Y-16607214D01*
X16629643Y-16607214D02*
X16601071Y-16592929D01*
X16586786Y-16564357D01*
X16586786Y-16307214D01*
X16858214Y-16592929D02*
X16829643Y-16607214D01*
X16772500Y-16607214D01*
X16743928Y-16592929D01*
X16729643Y-16564357D01*
X16729643Y-16450071D01*
X16743928Y-16421500D01*
X16772500Y-16407214D01*
X16829643Y-16407214D01*
X16858214Y-16421500D01*
X16872500Y-16450071D01*
X16872500Y-16478643D01*
X16729643Y-16507214D01*
X16986786Y-16592929D02*
X17015357Y-16607214D01*
X17072500Y-16607214D01*
X17101071Y-16592929D01*
X17115357Y-16564357D01*
X17115357Y-16550071D01*
X17101071Y-16521500D01*
X17072500Y-16507214D01*
X17029643Y-16507214D01*
X17001071Y-16492929D01*
X16986786Y-16464357D01*
X16986786Y-16450071D01*
X17001071Y-16421500D01*
X17029643Y-16407214D01*
X17072500Y-16407214D01*
X17101071Y-16421500D01*
X17215357Y-16721500D02*
X17229643Y-16707214D01*
X17258214Y-16664357D01*
X17272500Y-16635786D01*
X17286786Y-16592929D01*
X17301071Y-16521500D01*
X17301071Y-16464357D01*
X17286786Y-16392929D01*
X17272500Y-16350071D01*
X17258214Y-16321500D01*
X17229643Y-16278643D01*
X17215357Y-16264357D01*
X10112500Y-16822500D02*
X10112500Y-16912500D01*
X10067500Y-16867500D02*
X10157500Y-16867500D01*
X10501071Y-16703214D02*
X10529643Y-16703214D01*
X10558214Y-16717500D01*
X10572500Y-16731786D01*
X10586786Y-16760357D01*
X10601071Y-16817500D01*
X10601071Y-16888929D01*
X10586786Y-16946072D01*
X10572500Y-16974643D01*
X10558214Y-16988929D01*
X10529643Y-17003214D01*
X10501071Y-17003214D01*
X10472500Y-16988929D01*
X10458214Y-16974643D01*
X10443928Y-16946072D01*
X10429643Y-16888929D01*
X10429643Y-16817500D01*
X10443928Y-16760357D01*
X10458214Y-16731786D01*
X10472500Y-16717500D01*
X10501071Y-16703214D01*
X10729643Y-16974643D02*
X10743928Y-16988929D01*
X10729643Y-17003214D01*
X10715357Y-16988929D01*
X10729643Y-16974643D01*
X10729643Y-17003214D01*
X10886786Y-17003214D02*
X10943928Y-17003214D01*
X10972500Y-16988929D01*
X10986786Y-16974643D01*
X11015357Y-16931786D01*
X11029643Y-16874643D01*
X11029643Y-16760357D01*
X11015357Y-16731786D01*
X11001071Y-16717500D01*
X10972500Y-16703214D01*
X10915357Y-16703214D01*
X10886786Y-16717500D01*
X10872500Y-16731786D01*
X10858214Y-16760357D01*
X10858214Y-16831786D01*
X10872500Y-16860357D01*
X10886786Y-16874643D01*
X10915357Y-16888929D01*
X10972500Y-16888929D01*
X11001071Y-16874643D01*
X11015357Y-16860357D01*
X11029643Y-16831786D01*
X11215357Y-16703214D02*
X11243928Y-16703214D01*
X11272500Y-16717500D01*
X11286786Y-16731786D01*
X11301071Y-16760357D01*
X11315357Y-16817500D01*
X11315357Y-16888929D01*
X11301071Y-16946072D01*
X11286786Y-16974643D01*
X11272500Y-16988929D01*
X11243928Y-17003214D01*
X11215357Y-17003214D01*
X11186786Y-16988929D01*
X11172500Y-16974643D01*
X11158214Y-16946072D01*
X11143928Y-16888929D01*
X11143928Y-16817500D01*
X11158214Y-16760357D01*
X11172500Y-16731786D01*
X11186786Y-16717500D01*
X11215357Y-16703214D01*
X11443928Y-17003214D02*
X11443928Y-16803214D01*
X11443928Y-16831786D02*
X11458214Y-16817500D01*
X11486786Y-16803214D01*
X11529643Y-16803214D01*
X11558214Y-16817500D01*
X11572500Y-16846072D01*
X11572500Y-17003214D01*
X11572500Y-16846072D02*
X11586786Y-16817500D01*
X11615357Y-16803214D01*
X11658214Y-16803214D01*
X11686786Y-16817500D01*
X11701071Y-16846072D01*
X11701071Y-17003214D01*
X11843928Y-17003214D02*
X11843928Y-16803214D01*
X11843928Y-16831786D02*
X11858214Y-16817500D01*
X11886786Y-16803214D01*
X11929643Y-16803214D01*
X11958214Y-16817500D01*
X11972500Y-16846072D01*
X11972500Y-17003214D01*
X11972500Y-16846072D02*
X11986786Y-16817500D01*
X12015357Y-16803214D01*
X12058214Y-16803214D01*
X12086786Y-16817500D01*
X12101071Y-16846072D01*
X12101071Y-17003214D01*
X12686786Y-16688929D02*
X12429643Y-17074643D01*
X13072500Y-16703214D02*
X13101071Y-16703214D01*
X13129643Y-16717500D01*
X13143928Y-16731786D01*
X13158214Y-16760357D01*
X13172500Y-16817500D01*
X13172500Y-16888929D01*
X13158214Y-16946072D01*
X13143928Y-16974643D01*
X13129643Y-16988929D01*
X13101071Y-17003214D01*
X13072500Y-17003214D01*
X13043928Y-16988929D01*
X13029643Y-16974643D01*
X13015357Y-16946072D01*
X13001071Y-16888929D01*
X13001071Y-16817500D01*
X13015357Y-16760357D01*
X13029643Y-16731786D01*
X13043928Y-16717500D01*
X13072500Y-16703214D01*
X13301071Y-16974643D02*
X13315357Y-16988929D01*
X13301071Y-17003214D01*
X13286786Y-16988929D01*
X13301071Y-16974643D01*
X13301071Y-17003214D01*
X13501071Y-16703214D02*
X13529643Y-16703214D01*
X13558214Y-16717500D01*
X13572500Y-16731786D01*
X13586786Y-16760357D01*
X13601071Y-16817500D01*
X13601071Y-16888929D01*
X13586786Y-16946072D01*
X13572500Y-16974643D01*
X13558214Y-16988929D01*
X13529643Y-17003214D01*
X13501071Y-17003214D01*
X13472500Y-16988929D01*
X13458214Y-16974643D01*
X13443928Y-16946072D01*
X13429643Y-16888929D01*
X13429643Y-16817500D01*
X13443928Y-16760357D01*
X13458214Y-16731786D01*
X13472500Y-16717500D01*
X13501071Y-16703214D01*
X13701071Y-16703214D02*
X13886786Y-16703214D01*
X13786786Y-16817500D01*
X13829643Y-16817500D01*
X13858214Y-16831786D01*
X13872500Y-16846072D01*
X13886786Y-16874643D01*
X13886786Y-16946072D01*
X13872500Y-16974643D01*
X13858214Y-16988929D01*
X13829643Y-17003214D01*
X13743928Y-17003214D01*
X13715357Y-16988929D01*
X13701071Y-16974643D01*
X14158214Y-16703214D02*
X14015357Y-16703214D01*
X14001071Y-16846072D01*
X14015357Y-16831786D01*
X14043928Y-16817500D01*
X14115357Y-16817500D01*
X14143928Y-16831786D01*
X14158214Y-16846072D01*
X14172500Y-16874643D01*
X14172500Y-16946072D01*
X14158214Y-16974643D01*
X14143928Y-16988929D01*
X14115357Y-17003214D01*
X14043928Y-17003214D01*
X14015357Y-16988929D01*
X14001071Y-16974643D01*
X14286786Y-16703214D02*
X14286786Y-16760357D01*
X14401071Y-16703214D02*
X14401071Y-16760357D01*
X14843928Y-17117500D02*
X14829643Y-17103214D01*
X14801071Y-17060357D01*
X14786786Y-17031786D01*
X14772500Y-16988929D01*
X14758214Y-16917500D01*
X14758214Y-16860357D01*
X14772500Y-16788929D01*
X14786786Y-16746071D01*
X14801071Y-16717500D01*
X14829643Y-16674643D01*
X14843928Y-16660357D01*
X15086786Y-16803214D02*
X15086786Y-17003214D01*
X15015357Y-16688929D02*
X14943928Y-16903214D01*
X15129643Y-16903214D01*
X15472500Y-17003214D02*
X15472500Y-16703214D01*
X15601071Y-17003214D02*
X15601071Y-16846072D01*
X15586786Y-16817500D01*
X15558214Y-16803214D01*
X15515357Y-16803214D01*
X15486786Y-16817500D01*
X15472500Y-16831786D01*
X15786786Y-17003214D02*
X15758214Y-16988929D01*
X15743928Y-16974643D01*
X15729643Y-16946072D01*
X15729643Y-16860357D01*
X15743928Y-16831786D01*
X15758214Y-16817500D01*
X15786786Y-16803214D01*
X15829643Y-16803214D01*
X15858214Y-16817500D01*
X15872500Y-16831786D01*
X15886786Y-16860357D01*
X15886786Y-16946072D01*
X15872500Y-16974643D01*
X15858214Y-16988929D01*
X15829643Y-17003214D01*
X15786786Y-17003214D01*
X16058214Y-17003214D02*
X16029643Y-16988929D01*
X16015357Y-16960357D01*
X16015357Y-16703214D01*
X16286786Y-16988929D02*
X16258214Y-17003214D01*
X16201071Y-17003214D01*
X16172500Y-16988929D01*
X16158214Y-16960357D01*
X16158214Y-16846072D01*
X16172500Y-16817500D01*
X16201071Y-16803214D01*
X16258214Y-16803214D01*
X16286786Y-16817500D01*
X16301071Y-16846072D01*
X16301071Y-16874643D01*
X16158214Y-16903214D01*
X16415357Y-16988929D02*
X16443928Y-17003214D01*
X16501071Y-17003214D01*
X16529643Y-16988929D01*
X16543928Y-16960357D01*
X16543928Y-16946072D01*
X16529643Y-16917500D01*
X16501071Y-16903214D01*
X16458214Y-16903214D01*
X16429643Y-16888929D01*
X16415357Y-16860357D01*
X16415357Y-16846072D01*
X16429643Y-16817500D01*
X16458214Y-16803214D01*
X16501071Y-16803214D01*
X16529643Y-16817500D01*
X16643928Y-17117500D02*
X16658214Y-17103214D01*
X16686786Y-17060357D01*
X16701071Y-17031786D01*
X16715357Y-16988929D01*
X16729643Y-16917500D01*
X16729643Y-16860357D01*
X16715357Y-16788929D01*
X16701071Y-16746071D01*
X16686786Y-16717500D01*
X16658214Y-16674643D01*
X16643928Y-16660357D01*
X10144027Y-17296027D02*
X10144027Y-17230973D01*
X10078973Y-17230973D01*
X10078973Y-17296027D01*
X10144027Y-17296027D01*
X10501071Y-17099214D02*
X10529643Y-17099214D01*
X10558214Y-17113500D01*
X10572500Y-17127786D01*
X10586786Y-17156357D01*
X10601071Y-17213500D01*
X10601071Y-17284929D01*
X10586786Y-17342072D01*
X10572500Y-17370643D01*
X10558214Y-17384929D01*
X10529643Y-17399214D01*
X10501071Y-17399214D01*
X10472500Y-17384929D01*
X10458214Y-17370643D01*
X10443928Y-17342072D01*
X10429643Y-17284929D01*
X10429643Y-17213500D01*
X10443928Y-17156357D01*
X10458214Y-17127786D01*
X10472500Y-17113500D01*
X10501071Y-17099214D01*
X10729643Y-17370643D02*
X10743928Y-17384929D01*
X10729643Y-17399214D01*
X10715357Y-17384929D01*
X10729643Y-17370643D01*
X10729643Y-17399214D01*
X10886786Y-17399214D02*
X10943928Y-17399214D01*
X10972500Y-17384929D01*
X10986786Y-17370643D01*
X11015357Y-17327786D01*
X11029643Y-17270643D01*
X11029643Y-17156357D01*
X11015357Y-17127786D01*
X11001071Y-17113500D01*
X10972500Y-17099214D01*
X10915357Y-17099214D01*
X10886786Y-17113500D01*
X10872500Y-17127786D01*
X10858214Y-17156357D01*
X10858214Y-17227786D01*
X10872500Y-17256357D01*
X10886786Y-17270643D01*
X10915357Y-17284929D01*
X10972500Y-17284929D01*
X11001071Y-17270643D01*
X11015357Y-17256357D01*
X11029643Y-17227786D01*
X11143928Y-17127786D02*
X11158214Y-17113500D01*
X11186786Y-17099214D01*
X11258214Y-17099214D01*
X11286786Y-17113500D01*
X11301071Y-17127786D01*
X11315357Y-17156357D01*
X11315357Y-17184929D01*
X11301071Y-17227786D01*
X11129643Y-17399214D01*
X11315357Y-17399214D01*
X11443928Y-17399214D02*
X11443928Y-17199214D01*
X11443928Y-17227786D02*
X11458214Y-17213500D01*
X11486786Y-17199214D01*
X11529643Y-17199214D01*
X11558214Y-17213500D01*
X11572500Y-17242072D01*
X11572500Y-17399214D01*
X11572500Y-17242072D02*
X11586786Y-17213500D01*
X11615357Y-17199214D01*
X11658214Y-17199214D01*
X11686786Y-17213500D01*
X11701071Y-17242072D01*
X11701071Y-17399214D01*
X11843928Y-17399214D02*
X11843928Y-17199214D01*
X11843928Y-17227786D02*
X11858214Y-17213500D01*
X11886786Y-17199214D01*
X11929643Y-17199214D01*
X11958214Y-17213500D01*
X11972500Y-17242072D01*
X11972500Y-17399214D01*
X11972500Y-17242072D02*
X11986786Y-17213500D01*
X12015357Y-17199214D01*
X12058214Y-17199214D01*
X12086786Y-17213500D01*
X12101071Y-17242072D01*
X12101071Y-17399214D01*
X12686786Y-17084929D02*
X12429643Y-17470643D01*
X13072500Y-17099214D02*
X13101071Y-17099214D01*
X13129643Y-17113500D01*
X13143928Y-17127786D01*
X13158214Y-17156357D01*
X13172500Y-17213500D01*
X13172500Y-17284929D01*
X13158214Y-17342072D01*
X13143928Y-17370643D01*
X13129643Y-17384929D01*
X13101071Y-17399214D01*
X13072500Y-17399214D01*
X13043928Y-17384929D01*
X13029643Y-17370643D01*
X13015357Y-17342072D01*
X13001071Y-17284929D01*
X13001071Y-17213500D01*
X13015357Y-17156357D01*
X13029643Y-17127786D01*
X13043928Y-17113500D01*
X13072500Y-17099214D01*
X13301071Y-17370643D02*
X13315357Y-17384929D01*
X13301071Y-17399214D01*
X13286786Y-17384929D01*
X13301071Y-17370643D01*
X13301071Y-17399214D01*
X13501071Y-17099214D02*
X13529643Y-17099214D01*
X13558214Y-17113500D01*
X13572500Y-17127786D01*
X13586786Y-17156357D01*
X13601071Y-17213500D01*
X13601071Y-17284929D01*
X13586786Y-17342072D01*
X13572500Y-17370643D01*
X13558214Y-17384929D01*
X13529643Y-17399214D01*
X13501071Y-17399214D01*
X13472500Y-17384929D01*
X13458214Y-17370643D01*
X13443928Y-17342072D01*
X13429643Y-17284929D01*
X13429643Y-17213500D01*
X13443928Y-17156357D01*
X13458214Y-17127786D01*
X13472500Y-17113500D01*
X13501071Y-17099214D01*
X13701071Y-17099214D02*
X13886786Y-17099214D01*
X13786786Y-17213500D01*
X13829643Y-17213500D01*
X13858214Y-17227786D01*
X13872500Y-17242072D01*
X13886786Y-17270643D01*
X13886786Y-17342072D01*
X13872500Y-17370643D01*
X13858214Y-17384929D01*
X13829643Y-17399214D01*
X13743928Y-17399214D01*
X13715357Y-17384929D01*
X13701071Y-17370643D01*
X14143928Y-17099214D02*
X14086786Y-17099214D01*
X14058214Y-17113500D01*
X14043928Y-17127786D01*
X14015357Y-17170643D01*
X14001071Y-17227786D01*
X14001071Y-17342072D01*
X14015357Y-17370643D01*
X14029643Y-17384929D01*
X14058214Y-17399214D01*
X14115357Y-17399214D01*
X14143928Y-17384929D01*
X14158214Y-17370643D01*
X14172500Y-17342072D01*
X14172500Y-17270643D01*
X14158214Y-17242072D01*
X14143928Y-17227786D01*
X14115357Y-17213500D01*
X14058214Y-17213500D01*
X14029643Y-17227786D01*
X14015357Y-17242072D01*
X14001071Y-17270643D01*
X14286786Y-17099214D02*
X14286786Y-17156357D01*
X14401071Y-17099214D02*
X14401071Y-17156357D01*
X14843928Y-17513500D02*
X14829643Y-17499214D01*
X14801071Y-17456357D01*
X14786786Y-17427786D01*
X14772500Y-17384929D01*
X14758214Y-17313500D01*
X14758214Y-17256357D01*
X14772500Y-17184929D01*
X14786786Y-17142072D01*
X14801071Y-17113500D01*
X14829643Y-17070643D01*
X14843928Y-17056357D01*
X15086786Y-17199214D02*
X15086786Y-17399214D01*
X15015357Y-17084929D02*
X14943928Y-17299214D01*
X15129643Y-17299214D01*
X15472500Y-17399214D02*
X15472500Y-17099214D01*
X15601071Y-17399214D02*
X15601071Y-17242072D01*
X15586786Y-17213500D01*
X15558214Y-17199214D01*
X15515357Y-17199214D01*
X15486786Y-17213500D01*
X15472500Y-17227786D01*
X15786786Y-17399214D02*
X15758214Y-17384929D01*
X15743928Y-17370643D01*
X15729643Y-17342072D01*
X15729643Y-17256357D01*
X15743928Y-17227786D01*
X15758214Y-17213500D01*
X15786786Y-17199214D01*
X15829643Y-17199214D01*
X15858214Y-17213500D01*
X15872500Y-17227786D01*
X15886786Y-17256357D01*
X15886786Y-17342072D01*
X15872500Y-17370643D01*
X15858214Y-17384929D01*
X15829643Y-17399214D01*
X15786786Y-17399214D01*
X16058214Y-17399214D02*
X16029643Y-17384929D01*
X16015357Y-17356357D01*
X16015357Y-17099214D01*
X16286786Y-17384929D02*
X16258214Y-17399214D01*
X16201071Y-17399214D01*
X16172500Y-17384929D01*
X16158214Y-17356357D01*
X16158214Y-17242072D01*
X16172500Y-17213500D01*
X16201071Y-17199214D01*
X16258214Y-17199214D01*
X16286786Y-17213500D01*
X16301071Y-17242072D01*
X16301071Y-17270643D01*
X16158214Y-17299214D01*
X16415357Y-17384929D02*
X16443928Y-17399214D01*
X16501071Y-17399214D01*
X16529643Y-17384929D01*
X16543928Y-17356357D01*
X16543928Y-17342072D01*
X16529643Y-17313500D01*
X16501071Y-17299214D01*
X16458214Y-17299214D01*
X16429643Y-17284929D01*
X16415357Y-17256357D01*
X16415357Y-17242072D01*
X16429643Y-17213500D01*
X16458214Y-17199214D01*
X16501071Y-17199214D01*
X16529643Y-17213500D01*
X16643928Y-17513500D02*
X16658214Y-17499214D01*
X16686786Y-17456357D01*
X16701071Y-17427786D01*
X16715357Y-17384929D01*
X16729643Y-17313500D01*
X16729643Y-17256357D01*
X16715357Y-17184929D01*
X16701071Y-17142072D01*
X16686786Y-17113500D01*
X16658214Y-17070643D01*
X16643928Y-17056357D01*
X10107500Y-17709500D02*
X10157500Y-17659500D01*
X10107500Y-17609500D01*
X10057500Y-17659500D01*
X10107500Y-17709500D01*
X10601071Y-17795214D02*
X10429643Y-17795214D01*
X10515357Y-17795214D02*
X10515357Y-17495214D01*
X10486786Y-17538072D01*
X10458214Y-17566643D01*
X10429643Y-17580929D01*
X10729643Y-17766643D02*
X10743928Y-17780929D01*
X10729643Y-17795214D01*
X10715357Y-17780929D01*
X10729643Y-17766643D01*
X10729643Y-17795214D01*
X10929643Y-17495214D02*
X10958214Y-17495214D01*
X10986786Y-17509500D01*
X11001071Y-17523786D01*
X11015357Y-17552357D01*
X11029643Y-17609500D01*
X11029643Y-17680929D01*
X11015357Y-17738072D01*
X11001071Y-17766643D01*
X10986786Y-17780929D01*
X10958214Y-17795214D01*
X10929643Y-17795214D01*
X10901071Y-17780929D01*
X10886786Y-17766643D01*
X10872500Y-17738072D01*
X10858214Y-17680929D01*
X10858214Y-17609500D01*
X10872500Y-17552357D01*
X10886786Y-17523786D01*
X10901071Y-17509500D01*
X10929643Y-17495214D01*
X11215357Y-17495214D02*
X11243928Y-17495214D01*
X11272500Y-17509500D01*
X11286786Y-17523786D01*
X11301071Y-17552357D01*
X11315357Y-17609500D01*
X11315357Y-17680929D01*
X11301071Y-17738072D01*
X11286786Y-17766643D01*
X11272500Y-17780929D01*
X11243928Y-17795214D01*
X11215357Y-17795214D01*
X11186786Y-17780929D01*
X11172500Y-17766643D01*
X11158214Y-17738072D01*
X11143928Y-17680929D01*
X11143928Y-17609500D01*
X11158214Y-17552357D01*
X11172500Y-17523786D01*
X11186786Y-17509500D01*
X11215357Y-17495214D01*
X11443928Y-17795214D02*
X11443928Y-17595214D01*
X11443928Y-17623786D02*
X11458214Y-17609500D01*
X11486786Y-17595214D01*
X11529643Y-17595214D01*
X11558214Y-17609500D01*
X11572500Y-17638072D01*
X11572500Y-17795214D01*
X11572500Y-17638072D02*
X11586786Y-17609500D01*
X11615357Y-17595214D01*
X11658214Y-17595214D01*
X11686786Y-17609500D01*
X11701071Y-17638072D01*
X11701071Y-17795214D01*
X11843928Y-17795214D02*
X11843928Y-17595214D01*
X11843928Y-17623786D02*
X11858214Y-17609500D01*
X11886786Y-17595214D01*
X11929643Y-17595214D01*
X11958214Y-17609500D01*
X11972500Y-17638072D01*
X11972500Y-17795214D01*
X11972500Y-17638072D02*
X11986786Y-17609500D01*
X12015357Y-17595214D01*
X12058214Y-17595214D01*
X12086786Y-17609500D01*
X12101071Y-17638072D01*
X12101071Y-17795214D01*
X12686786Y-17480929D02*
X12429643Y-17866643D01*
X13072500Y-17495214D02*
X13101071Y-17495214D01*
X13129643Y-17509500D01*
X13143928Y-17523786D01*
X13158214Y-17552357D01*
X13172500Y-17609500D01*
X13172500Y-17680929D01*
X13158214Y-17738072D01*
X13143928Y-17766643D01*
X13129643Y-17780929D01*
X13101071Y-17795214D01*
X13072500Y-17795214D01*
X13043928Y-17780929D01*
X13029643Y-17766643D01*
X13015357Y-17738072D01*
X13001071Y-17680929D01*
X13001071Y-17609500D01*
X13015357Y-17552357D01*
X13029643Y-17523786D01*
X13043928Y-17509500D01*
X13072500Y-17495214D01*
X13301071Y-17766643D02*
X13315357Y-17780929D01*
X13301071Y-17795214D01*
X13286786Y-17780929D01*
X13301071Y-17766643D01*
X13301071Y-17795214D01*
X13501071Y-17495214D02*
X13529643Y-17495214D01*
X13558214Y-17509500D01*
X13572500Y-17523786D01*
X13586786Y-17552357D01*
X13601071Y-17609500D01*
X13601071Y-17680929D01*
X13586786Y-17738072D01*
X13572500Y-17766643D01*
X13558214Y-17780929D01*
X13529643Y-17795214D01*
X13501071Y-17795214D01*
X13472500Y-17780929D01*
X13458214Y-17766643D01*
X13443928Y-17738072D01*
X13429643Y-17680929D01*
X13429643Y-17609500D01*
X13443928Y-17552357D01*
X13458214Y-17523786D01*
X13472500Y-17509500D01*
X13501071Y-17495214D01*
X13701071Y-17495214D02*
X13886786Y-17495214D01*
X13786786Y-17609500D01*
X13829643Y-17609500D01*
X13858214Y-17623786D01*
X13872500Y-17638072D01*
X13886786Y-17666643D01*
X13886786Y-17738072D01*
X13872500Y-17766643D01*
X13858214Y-17780929D01*
X13829643Y-17795214D01*
X13743928Y-17795214D01*
X13715357Y-17780929D01*
X13701071Y-17766643D01*
X14029643Y-17795214D02*
X14086786Y-17795214D01*
X14115357Y-17780929D01*
X14129643Y-17766643D01*
X14158214Y-17723786D01*
X14172500Y-17666643D01*
X14172500Y-17552357D01*
X14158214Y-17523786D01*
X14143928Y-17509500D01*
X14115357Y-17495214D01*
X14058214Y-17495214D01*
X14029643Y-17509500D01*
X14015357Y-17523786D01*
X14001071Y-17552357D01*
X14001071Y-17623786D01*
X14015357Y-17652357D01*
X14029643Y-17666643D01*
X14058214Y-17680929D01*
X14115357Y-17680929D01*
X14143928Y-17666643D01*
X14158214Y-17652357D01*
X14172500Y-17623786D01*
X14286786Y-17495214D02*
X14286786Y-17552357D01*
X14401071Y-17495214D02*
X14401071Y-17552357D01*
X14843928Y-17909500D02*
X14829643Y-17895214D01*
X14801071Y-17852357D01*
X14786786Y-17823786D01*
X14772500Y-17780929D01*
X14758214Y-17709500D01*
X14758214Y-17652357D01*
X14772500Y-17580929D01*
X14786786Y-17538072D01*
X14801071Y-17509500D01*
X14829643Y-17466643D01*
X14843928Y-17452357D01*
X15086786Y-17595214D02*
X15086786Y-17795214D01*
X15015357Y-17480929D02*
X14943928Y-17695214D01*
X15129643Y-17695214D01*
X15229643Y-17523786D02*
X15243928Y-17509500D01*
X15272500Y-17495214D01*
X15343928Y-17495214D01*
X15372500Y-17509500D01*
X15386786Y-17523786D01*
X15401071Y-17552357D01*
X15401071Y-17580929D01*
X15386786Y-17623786D01*
X15215357Y-17795214D01*
X15401071Y-17795214D01*
X15758214Y-17795214D02*
X15758214Y-17495214D01*
X15886786Y-17795214D02*
X15886786Y-17638072D01*
X15872500Y-17609500D01*
X15843928Y-17595214D01*
X15801071Y-17595214D01*
X15772500Y-17609500D01*
X15758214Y-17623786D01*
X16072500Y-17795214D02*
X16043928Y-17780929D01*
X16029643Y-17766643D01*
X16015357Y-17738072D01*
X16015357Y-17652357D01*
X16029643Y-17623786D01*
X16043928Y-17609500D01*
X16072500Y-17595214D01*
X16115357Y-17595214D01*
X16143928Y-17609500D01*
X16158214Y-17623786D01*
X16172500Y-17652357D01*
X16172500Y-17738072D01*
X16158214Y-17766643D01*
X16143928Y-17780929D01*
X16115357Y-17795214D01*
X16072500Y-17795214D01*
X16343928Y-17795214D02*
X16315357Y-17780929D01*
X16301071Y-17752357D01*
X16301071Y-17495214D01*
X16572500Y-17780929D02*
X16543928Y-17795214D01*
X16486786Y-17795214D01*
X16458214Y-17780929D01*
X16443928Y-17752357D01*
X16443928Y-17638072D01*
X16458214Y-17609500D01*
X16486786Y-17595214D01*
X16543928Y-17595214D01*
X16572500Y-17609500D01*
X16586786Y-17638072D01*
X16586786Y-17666643D01*
X16443928Y-17695214D01*
X16701071Y-17780929D02*
X16729643Y-17795214D01*
X16786786Y-17795214D01*
X16815357Y-17780929D01*
X16829643Y-17752357D01*
X16829643Y-17738072D01*
X16815357Y-17709500D01*
X16786786Y-17695214D01*
X16743928Y-17695214D01*
X16715357Y-17680929D01*
X16701071Y-17652357D01*
X16701071Y-17638072D01*
X16715357Y-17609500D01*
X16743928Y-17595214D01*
X16786786Y-17595214D01*
X16815357Y-17609500D01*
X16929643Y-17909500D02*
X16943928Y-17895214D01*
X16972500Y-17852357D01*
X16986786Y-17823786D01*
X17001071Y-17780929D01*
X17015357Y-17709500D01*
X17015357Y-17652357D01*
X17001071Y-17580929D01*
X16986786Y-17538072D01*
X16972500Y-17509500D01*
X16943928Y-17466643D01*
X16929643Y-17452357D01*
X10057424Y-18005462D02*
X10157500Y-18105538D01*
X10157500Y-18005462D02*
X10057424Y-18105538D01*
X10157500Y-18055500D02*
G75*
G03*
X10157500Y-18055500I-50038J0D01*
G01*
X10601071Y-18191214D02*
X10429643Y-18191214D01*
X10515357Y-18191214D02*
X10515357Y-17891214D01*
X10486786Y-17934072D01*
X10458214Y-17962643D01*
X10429643Y-17976929D01*
X10729643Y-18162643D02*
X10743928Y-18176929D01*
X10729643Y-18191214D01*
X10715357Y-18176929D01*
X10729643Y-18162643D01*
X10729643Y-18191214D01*
X10929643Y-17891214D02*
X10958214Y-17891214D01*
X10986786Y-17905500D01*
X11001071Y-17919786D01*
X11015357Y-17948357D01*
X11029643Y-18005500D01*
X11029643Y-18076929D01*
X11015357Y-18134072D01*
X11001071Y-18162643D01*
X10986786Y-18176929D01*
X10958214Y-18191214D01*
X10929643Y-18191214D01*
X10901071Y-18176929D01*
X10886786Y-18162643D01*
X10872500Y-18134072D01*
X10858214Y-18076929D01*
X10858214Y-18005500D01*
X10872500Y-17948357D01*
X10886786Y-17919786D01*
X10901071Y-17905500D01*
X10929643Y-17891214D01*
X11215357Y-17891214D02*
X11243928Y-17891214D01*
X11272500Y-17905500D01*
X11286786Y-17919786D01*
X11301071Y-17948357D01*
X11315357Y-18005500D01*
X11315357Y-18076929D01*
X11301071Y-18134072D01*
X11286786Y-18162643D01*
X11272500Y-18176929D01*
X11243928Y-18191214D01*
X11215357Y-18191214D01*
X11186786Y-18176929D01*
X11172500Y-18162643D01*
X11158214Y-18134072D01*
X11143928Y-18076929D01*
X11143928Y-18005500D01*
X11158214Y-17948357D01*
X11172500Y-17919786D01*
X11186786Y-17905500D01*
X11215357Y-17891214D01*
X11443928Y-18191214D02*
X11443928Y-17991214D01*
X11443928Y-18019786D02*
X11458214Y-18005500D01*
X11486786Y-17991214D01*
X11529643Y-17991214D01*
X11558214Y-18005500D01*
X11572500Y-18034072D01*
X11572500Y-18191214D01*
X11572500Y-18034072D02*
X11586786Y-18005500D01*
X11615357Y-17991214D01*
X11658214Y-17991214D01*
X11686786Y-18005500D01*
X11701071Y-18034072D01*
X11701071Y-18191214D01*
X11843928Y-18191214D02*
X11843928Y-17991214D01*
X11843928Y-18019786D02*
X11858214Y-18005500D01*
X11886786Y-17991214D01*
X11929643Y-17991214D01*
X11958214Y-18005500D01*
X11972500Y-18034072D01*
X11972500Y-18191214D01*
X11972500Y-18034072D02*
X11986786Y-18005500D01*
X12015357Y-17991214D01*
X12058214Y-17991214D01*
X12086786Y-18005500D01*
X12101071Y-18034072D01*
X12101071Y-18191214D01*
X12686786Y-17876929D02*
X12429643Y-18262643D01*
X13072500Y-17891214D02*
X13101071Y-17891214D01*
X13129643Y-17905500D01*
X13143928Y-17919786D01*
X13158214Y-17948357D01*
X13172500Y-18005500D01*
X13172500Y-18076929D01*
X13158214Y-18134072D01*
X13143928Y-18162643D01*
X13129643Y-18176929D01*
X13101071Y-18191214D01*
X13072500Y-18191214D01*
X13043928Y-18176929D01*
X13029643Y-18162643D01*
X13015357Y-18134072D01*
X13001071Y-18076929D01*
X13001071Y-18005500D01*
X13015357Y-17948357D01*
X13029643Y-17919786D01*
X13043928Y-17905500D01*
X13072500Y-17891214D01*
X13301071Y-18162643D02*
X13315357Y-18176929D01*
X13301071Y-18191214D01*
X13286786Y-18176929D01*
X13301071Y-18162643D01*
X13301071Y-18191214D01*
X13501071Y-17891214D02*
X13529643Y-17891214D01*
X13558214Y-17905500D01*
X13572500Y-17919786D01*
X13586786Y-17948357D01*
X13601071Y-18005500D01*
X13601071Y-18076929D01*
X13586786Y-18134072D01*
X13572500Y-18162643D01*
X13558214Y-18176929D01*
X13529643Y-18191214D01*
X13501071Y-18191214D01*
X13472500Y-18176929D01*
X13458214Y-18162643D01*
X13443928Y-18134072D01*
X13429643Y-18076929D01*
X13429643Y-18005500D01*
X13443928Y-17948357D01*
X13458214Y-17919786D01*
X13472500Y-17905500D01*
X13501071Y-17891214D01*
X13701071Y-17891214D02*
X13886786Y-17891214D01*
X13786786Y-18005500D01*
X13829643Y-18005500D01*
X13858214Y-18019786D01*
X13872500Y-18034072D01*
X13886786Y-18062643D01*
X13886786Y-18134072D01*
X13872500Y-18162643D01*
X13858214Y-18176929D01*
X13829643Y-18191214D01*
X13743928Y-18191214D01*
X13715357Y-18176929D01*
X13701071Y-18162643D01*
X14029643Y-18191214D02*
X14086786Y-18191214D01*
X14115357Y-18176929D01*
X14129643Y-18162643D01*
X14158214Y-18119786D01*
X14172500Y-18062643D01*
X14172500Y-17948357D01*
X14158214Y-17919786D01*
X14143928Y-17905500D01*
X14115357Y-17891214D01*
X14058214Y-17891214D01*
X14029643Y-17905500D01*
X14015357Y-17919786D01*
X14001071Y-17948357D01*
X14001071Y-18019786D01*
X14015357Y-18048357D01*
X14029643Y-18062643D01*
X14058214Y-18076929D01*
X14115357Y-18076929D01*
X14143928Y-18062643D01*
X14158214Y-18048357D01*
X14172500Y-18019786D01*
X14286786Y-17891214D02*
X14286786Y-17948357D01*
X14401071Y-17891214D02*
X14401071Y-17948357D01*
X14843928Y-18305500D02*
X14829643Y-18291214D01*
X14801071Y-18248357D01*
X14786786Y-18219786D01*
X14772500Y-18176929D01*
X14758214Y-18105500D01*
X14758214Y-18048357D01*
X14772500Y-17976929D01*
X14786786Y-17934072D01*
X14801071Y-17905500D01*
X14829643Y-17862643D01*
X14843928Y-17848357D01*
X15086786Y-17991214D02*
X15086786Y-18191214D01*
X15015357Y-17876929D02*
X14943928Y-18091214D01*
X15129643Y-18091214D01*
X15472500Y-18191214D02*
X15472500Y-17891214D01*
X15601071Y-18191214D02*
X15601071Y-18034072D01*
X15586786Y-18005500D01*
X15558214Y-17991214D01*
X15515357Y-17991214D01*
X15486786Y-18005500D01*
X15472500Y-18019786D01*
X15786786Y-18191214D02*
X15758214Y-18176929D01*
X15743928Y-18162643D01*
X15729643Y-18134072D01*
X15729643Y-18048357D01*
X15743928Y-18019786D01*
X15758214Y-18005500D01*
X15786786Y-17991214D01*
X15829643Y-17991214D01*
X15858214Y-18005500D01*
X15872500Y-18019786D01*
X15886786Y-18048357D01*
X15886786Y-18134072D01*
X15872500Y-18162643D01*
X15858214Y-18176929D01*
X15829643Y-18191214D01*
X15786786Y-18191214D01*
X16058214Y-18191214D02*
X16029643Y-18176929D01*
X16015357Y-18148357D01*
X16015357Y-17891214D01*
X16286786Y-18176929D02*
X16258214Y-18191214D01*
X16201071Y-18191214D01*
X16172500Y-18176929D01*
X16158214Y-18148357D01*
X16158214Y-18034072D01*
X16172500Y-18005500D01*
X16201071Y-17991214D01*
X16258214Y-17991214D01*
X16286786Y-18005500D01*
X16301071Y-18034072D01*
X16301071Y-18062643D01*
X16158214Y-18091214D01*
X16415357Y-18176929D02*
X16443928Y-18191214D01*
X16501071Y-18191214D01*
X16529643Y-18176929D01*
X16543928Y-18148357D01*
X16543928Y-18134072D01*
X16529643Y-18105500D01*
X16501071Y-18091214D01*
X16458214Y-18091214D01*
X16429643Y-18076929D01*
X16415357Y-18048357D01*
X16415357Y-18034072D01*
X16429643Y-18005500D01*
X16458214Y-17991214D01*
X16501071Y-17991214D01*
X16529643Y-18005500D01*
X16643928Y-18305500D02*
X16658214Y-18291214D01*
X16686786Y-18248357D01*
X16701071Y-18219786D01*
X16715357Y-18176929D01*
X16729643Y-18105500D01*
X16729643Y-18048357D01*
X16715357Y-17976929D01*
X16701071Y-17934072D01*
X16686786Y-17905500D01*
X16658214Y-17862643D01*
X16643928Y-17848357D01*
X10047500Y-18396500D02*
X10157500Y-18506500D01*
X10157500Y-18396500D02*
X10047500Y-18506500D01*
X10102500Y-18396500D02*
X10102500Y-18506500D01*
X10047500Y-18451500D02*
X10157500Y-18451500D01*
X10601071Y-18587214D02*
X10429643Y-18587214D01*
X10515357Y-18587214D02*
X10515357Y-18287214D01*
X10486786Y-18330072D01*
X10458214Y-18358643D01*
X10429643Y-18372929D01*
X10729643Y-18558643D02*
X10743928Y-18572929D01*
X10729643Y-18587214D01*
X10715357Y-18572929D01*
X10729643Y-18558643D01*
X10729643Y-18587214D01*
X11029643Y-18587214D02*
X10858214Y-18587214D01*
X10943928Y-18587214D02*
X10943928Y-18287214D01*
X10915357Y-18330072D01*
X10886786Y-18358643D01*
X10858214Y-18372929D01*
X11215357Y-18287214D02*
X11243928Y-18287214D01*
X11272500Y-18301500D01*
X11286786Y-18315786D01*
X11301071Y-18344357D01*
X11315357Y-18401500D01*
X11315357Y-18472929D01*
X11301071Y-18530072D01*
X11286786Y-18558643D01*
X11272500Y-18572929D01*
X11243928Y-18587214D01*
X11215357Y-18587214D01*
X11186786Y-18572929D01*
X11172500Y-18558643D01*
X11158214Y-18530072D01*
X11143928Y-18472929D01*
X11143928Y-18401500D01*
X11158214Y-18344357D01*
X11172500Y-18315786D01*
X11186786Y-18301500D01*
X11215357Y-18287214D01*
X11443928Y-18587214D02*
X11443928Y-18387214D01*
X11443928Y-18415786D02*
X11458214Y-18401500D01*
X11486786Y-18387214D01*
X11529643Y-18387214D01*
X11558214Y-18401500D01*
X11572500Y-18430072D01*
X11572500Y-18587214D01*
X11572500Y-18430072D02*
X11586786Y-18401500D01*
X11615357Y-18387214D01*
X11658214Y-18387214D01*
X11686786Y-18401500D01*
X11701071Y-18430072D01*
X11701071Y-18587214D01*
X11843928Y-18587214D02*
X11843928Y-18387214D01*
X11843928Y-18415786D02*
X11858214Y-18401500D01*
X11886786Y-18387214D01*
X11929643Y-18387214D01*
X11958214Y-18401500D01*
X11972500Y-18430072D01*
X11972500Y-18587214D01*
X11972500Y-18430072D02*
X11986786Y-18401500D01*
X12015357Y-18387214D01*
X12058214Y-18387214D01*
X12086786Y-18401500D01*
X12101071Y-18430072D01*
X12101071Y-18587214D01*
X12686786Y-18272929D02*
X12429643Y-18658643D01*
X13072500Y-18287214D02*
X13101071Y-18287214D01*
X13129643Y-18301500D01*
X13143928Y-18315786D01*
X13158214Y-18344357D01*
X13172500Y-18401500D01*
X13172500Y-18472929D01*
X13158214Y-18530072D01*
X13143928Y-18558643D01*
X13129643Y-18572929D01*
X13101071Y-18587214D01*
X13072500Y-18587214D01*
X13043928Y-18572929D01*
X13029643Y-18558643D01*
X13015357Y-18530072D01*
X13001071Y-18472929D01*
X13001071Y-18401500D01*
X13015357Y-18344357D01*
X13029643Y-18315786D01*
X13043928Y-18301500D01*
X13072500Y-18287214D01*
X13301071Y-18558643D02*
X13315357Y-18572929D01*
X13301071Y-18587214D01*
X13286786Y-18572929D01*
X13301071Y-18558643D01*
X13301071Y-18587214D01*
X13501071Y-18287214D02*
X13529643Y-18287214D01*
X13558214Y-18301500D01*
X13572500Y-18315786D01*
X13586786Y-18344357D01*
X13601071Y-18401500D01*
X13601071Y-18472929D01*
X13586786Y-18530072D01*
X13572500Y-18558643D01*
X13558214Y-18572929D01*
X13529643Y-18587214D01*
X13501071Y-18587214D01*
X13472500Y-18572929D01*
X13458214Y-18558643D01*
X13443928Y-18530072D01*
X13429643Y-18472929D01*
X13429643Y-18401500D01*
X13443928Y-18344357D01*
X13458214Y-18315786D01*
X13472500Y-18301500D01*
X13501071Y-18287214D01*
X13858214Y-18387214D02*
X13858214Y-18587214D01*
X13786786Y-18272929D02*
X13715357Y-18487214D01*
X13901071Y-18487214D01*
X13986786Y-18287214D02*
X14172500Y-18287214D01*
X14072500Y-18401500D01*
X14115357Y-18401500D01*
X14143928Y-18415786D01*
X14158214Y-18430072D01*
X14172500Y-18458643D01*
X14172500Y-18530072D01*
X14158214Y-18558643D01*
X14143928Y-18572929D01*
X14115357Y-18587214D01*
X14029643Y-18587214D01*
X14001071Y-18572929D01*
X13986786Y-18558643D01*
X14286786Y-18287214D02*
X14286786Y-18344357D01*
X14401071Y-18287214D02*
X14401071Y-18344357D01*
X14843928Y-18701500D02*
X14829643Y-18687214D01*
X14801071Y-18644357D01*
X14786786Y-18615786D01*
X14772500Y-18572929D01*
X14758214Y-18501500D01*
X14758214Y-18444357D01*
X14772500Y-18372929D01*
X14786786Y-18330072D01*
X14801071Y-18301500D01*
X14829643Y-18258643D01*
X14843928Y-18244357D01*
X14929643Y-18287214D02*
X15129643Y-18287214D01*
X15001071Y-18587214D01*
X15472500Y-18587214D02*
X15472500Y-18287214D01*
X15601071Y-18587214D02*
X15601071Y-18430072D01*
X15586786Y-18401500D01*
X15558214Y-18387214D01*
X15515357Y-18387214D01*
X15486786Y-18401500D01*
X15472500Y-18415786D01*
X15786786Y-18587214D02*
X15758214Y-18572929D01*
X15743928Y-18558643D01*
X15729643Y-18530072D01*
X15729643Y-18444357D01*
X15743928Y-18415786D01*
X15758214Y-18401500D01*
X15786786Y-18387214D01*
X15829643Y-18387214D01*
X15858214Y-18401500D01*
X15872500Y-18415786D01*
X15886786Y-18444357D01*
X15886786Y-18530072D01*
X15872500Y-18558643D01*
X15858214Y-18572929D01*
X15829643Y-18587214D01*
X15786786Y-18587214D01*
X16058214Y-18587214D02*
X16029643Y-18572929D01*
X16015357Y-18544357D01*
X16015357Y-18287214D01*
X16286786Y-18572929D02*
X16258214Y-18587214D01*
X16201071Y-18587214D01*
X16172500Y-18572929D01*
X16158214Y-18544357D01*
X16158214Y-18430072D01*
X16172500Y-18401500D01*
X16201071Y-18387214D01*
X16258214Y-18387214D01*
X16286786Y-18401500D01*
X16301071Y-18430072D01*
X16301071Y-18458643D01*
X16158214Y-18487214D01*
X16415357Y-18572929D02*
X16443928Y-18587214D01*
X16501071Y-18587214D01*
X16529643Y-18572929D01*
X16543928Y-18544357D01*
X16543928Y-18530072D01*
X16529643Y-18501500D01*
X16501071Y-18487214D01*
X16458214Y-18487214D01*
X16429643Y-18472929D01*
X16415357Y-18444357D01*
X16415357Y-18430072D01*
X16429643Y-18401500D01*
X16458214Y-18387214D01*
X16501071Y-18387214D01*
X16529643Y-18401500D01*
X16643928Y-18701500D02*
X16658214Y-18687214D01*
X16686786Y-18644357D01*
X16701071Y-18615786D01*
X16715357Y-18572929D01*
X16729643Y-18501500D01*
X16729643Y-18444357D01*
X16715357Y-18372929D01*
X16701071Y-18330072D01*
X16686786Y-18301500D01*
X16658214Y-18258643D01*
X16643928Y-18244357D01*
X9924500Y-18731000D02*
X10157500Y-18964000D01*
X10157500Y-18731000D02*
X9924500Y-18964000D01*
X10123379Y-18929879D02*
X10123379Y-18765121D01*
X9958621Y-18765121D01*
X9958621Y-18929879D01*
X10123379Y-18929879D01*
X10429643Y-18711786D02*
X10443928Y-18697500D01*
X10472500Y-18683214D01*
X10543928Y-18683214D01*
X10572500Y-18697500D01*
X10586786Y-18711786D01*
X10601071Y-18740357D01*
X10601071Y-18768929D01*
X10586786Y-18811786D01*
X10415357Y-18983214D01*
X10601071Y-18983214D01*
X10729643Y-18954643D02*
X10743928Y-18968929D01*
X10729643Y-18983214D01*
X10715357Y-18968929D01*
X10729643Y-18954643D01*
X10729643Y-18983214D01*
X10843928Y-18683214D02*
X11029643Y-18683214D01*
X10929643Y-18797500D01*
X10972500Y-18797500D01*
X11001071Y-18811786D01*
X11015357Y-18826072D01*
X11029643Y-18854643D01*
X11029643Y-18926072D01*
X11015357Y-18954643D01*
X11001071Y-18968929D01*
X10972500Y-18983214D01*
X10886786Y-18983214D01*
X10858214Y-18968929D01*
X10843928Y-18954643D01*
X11129643Y-18683214D02*
X11315357Y-18683214D01*
X11215357Y-18797500D01*
X11258214Y-18797500D01*
X11286786Y-18811786D01*
X11301071Y-18826072D01*
X11315357Y-18854643D01*
X11315357Y-18926072D01*
X11301071Y-18954643D01*
X11286786Y-18968929D01*
X11258214Y-18983214D01*
X11172500Y-18983214D01*
X11143928Y-18968929D01*
X11129643Y-18954643D01*
X11443928Y-18983214D02*
X11443928Y-18783214D01*
X11443928Y-18811786D02*
X11458214Y-18797500D01*
X11486786Y-18783214D01*
X11529643Y-18783214D01*
X11558214Y-18797500D01*
X11572500Y-18826072D01*
X11572500Y-18983214D01*
X11572500Y-18826072D02*
X11586786Y-18797500D01*
X11615357Y-18783214D01*
X11658214Y-18783214D01*
X11686786Y-18797500D01*
X11701071Y-18826072D01*
X11701071Y-18983214D01*
X11843928Y-18983214D02*
X11843928Y-18783214D01*
X11843928Y-18811786D02*
X11858214Y-18797500D01*
X11886786Y-18783214D01*
X11929643Y-18783214D01*
X11958214Y-18797500D01*
X11972500Y-18826072D01*
X11972500Y-18983214D01*
X11972500Y-18826072D02*
X11986786Y-18797500D01*
X12015357Y-18783214D01*
X12058214Y-18783214D01*
X12086786Y-18797500D01*
X12101071Y-18826072D01*
X12101071Y-18983214D01*
X12686786Y-18668929D02*
X12429643Y-19054643D01*
X13072500Y-18683214D02*
X13101071Y-18683214D01*
X13129643Y-18697500D01*
X13143928Y-18711786D01*
X13158214Y-18740357D01*
X13172500Y-18797500D01*
X13172500Y-18868929D01*
X13158214Y-18926072D01*
X13143928Y-18954643D01*
X13129643Y-18968929D01*
X13101071Y-18983214D01*
X13072500Y-18983214D01*
X13043928Y-18968929D01*
X13029643Y-18954643D01*
X13015357Y-18926072D01*
X13001071Y-18868929D01*
X13001071Y-18797500D01*
X13015357Y-18740357D01*
X13029643Y-18711786D01*
X13043928Y-18697500D01*
X13072500Y-18683214D01*
X13301071Y-18954643D02*
X13315357Y-18968929D01*
X13301071Y-18983214D01*
X13286786Y-18968929D01*
X13301071Y-18954643D01*
X13301071Y-18983214D01*
X13501071Y-18683214D02*
X13529643Y-18683214D01*
X13558214Y-18697500D01*
X13572500Y-18711786D01*
X13586786Y-18740357D01*
X13601071Y-18797500D01*
X13601071Y-18868929D01*
X13586786Y-18926072D01*
X13572500Y-18954643D01*
X13558214Y-18968929D01*
X13529643Y-18983214D01*
X13501071Y-18983214D01*
X13472500Y-18968929D01*
X13458214Y-18954643D01*
X13443928Y-18926072D01*
X13429643Y-18868929D01*
X13429643Y-18797500D01*
X13443928Y-18740357D01*
X13458214Y-18711786D01*
X13472500Y-18697500D01*
X13501071Y-18683214D01*
X13743928Y-18983214D02*
X13801071Y-18983214D01*
X13829643Y-18968929D01*
X13843928Y-18954643D01*
X13872500Y-18911786D01*
X13886786Y-18854643D01*
X13886786Y-18740357D01*
X13872500Y-18711786D01*
X13858214Y-18697500D01*
X13829643Y-18683214D01*
X13772500Y-18683214D01*
X13743928Y-18697500D01*
X13729643Y-18711786D01*
X13715357Y-18740357D01*
X13715357Y-18811786D01*
X13729643Y-18840357D01*
X13743928Y-18854643D01*
X13772500Y-18868929D01*
X13829643Y-18868929D01*
X13858214Y-18854643D01*
X13872500Y-18840357D01*
X13886786Y-18811786D01*
X14001071Y-18711786D02*
X14015357Y-18697500D01*
X14043928Y-18683214D01*
X14115357Y-18683214D01*
X14143928Y-18697500D01*
X14158214Y-18711786D01*
X14172500Y-18740357D01*
X14172500Y-18768929D01*
X14158214Y-18811786D01*
X13986786Y-18983214D01*
X14172500Y-18983214D01*
X14286786Y-18683214D02*
X14286786Y-18740357D01*
X14401071Y-18683214D02*
X14401071Y-18740357D01*
X14843928Y-19097500D02*
X14829643Y-19083214D01*
X14801071Y-19040357D01*
X14786786Y-19011786D01*
X14772500Y-18968929D01*
X14758214Y-18897500D01*
X14758214Y-18840357D01*
X14772500Y-18768929D01*
X14786786Y-18726072D01*
X14801071Y-18697500D01*
X14829643Y-18654643D01*
X14843928Y-18640357D01*
X14943928Y-18711786D02*
X14958214Y-18697500D01*
X14986786Y-18683214D01*
X15058214Y-18683214D01*
X15086786Y-18697500D01*
X15101071Y-18711786D01*
X15115357Y-18740357D01*
X15115357Y-18768929D01*
X15101071Y-18811786D01*
X14929643Y-18983214D01*
X15115357Y-18983214D01*
X15472500Y-18983214D02*
X15472500Y-18683214D01*
X15601071Y-18983214D02*
X15601071Y-18826072D01*
X15586786Y-18797500D01*
X15558214Y-18783214D01*
X15515357Y-18783214D01*
X15486786Y-18797500D01*
X15472500Y-18811786D01*
X15786786Y-18983214D02*
X15758214Y-18968929D01*
X15743928Y-18954643D01*
X15729643Y-18926072D01*
X15729643Y-18840357D01*
X15743928Y-18811786D01*
X15758214Y-18797500D01*
X15786786Y-18783214D01*
X15829643Y-18783214D01*
X15858214Y-18797500D01*
X15872500Y-18811786D01*
X15886786Y-18840357D01*
X15886786Y-18926072D01*
X15872500Y-18954643D01*
X15858214Y-18968929D01*
X15829643Y-18983214D01*
X15786786Y-18983214D01*
X16058214Y-18983214D02*
X16029643Y-18968929D01*
X16015357Y-18940357D01*
X16015357Y-18683214D01*
X16286786Y-18968929D02*
X16258214Y-18983214D01*
X16201071Y-18983214D01*
X16172500Y-18968929D01*
X16158214Y-18940357D01*
X16158214Y-18826072D01*
X16172500Y-18797500D01*
X16201071Y-18783214D01*
X16258214Y-18783214D01*
X16286786Y-18797500D01*
X16301071Y-18826072D01*
X16301071Y-18854643D01*
X16158214Y-18883214D01*
X16415357Y-18968929D02*
X16443928Y-18983214D01*
X16501071Y-18983214D01*
X16529643Y-18968929D01*
X16543928Y-18940357D01*
X16543928Y-18926072D01*
X16529643Y-18897500D01*
X16501071Y-18883214D01*
X16458214Y-18883214D01*
X16429643Y-18868929D01*
X16415357Y-18840357D01*
X16415357Y-18826072D01*
X16429643Y-18797500D01*
X16458214Y-18783214D01*
X16501071Y-18783214D01*
X16529643Y-18797500D01*
X16643928Y-19097500D02*
X16658214Y-19083214D01*
X16686786Y-19040357D01*
X16701071Y-19011786D01*
X16715357Y-18968929D01*
X16729643Y-18897500D01*
X16729643Y-18840357D01*
X16715357Y-18768929D01*
X16701071Y-18726072D01*
X16686786Y-18697500D01*
X16658214Y-18654643D01*
X16643928Y-18640357D01*
M02*
