<?xml version="1.0" standalone="no"?>
 <!DOCTYPE svg PUBLIC "-//W3C//DTD SVG 1.1//EN" 
 "http://www.w3.org/Graphics/SVG/1.1/DTD/svg11.dtd"> 
<svg
  xmlns:svg="http://www.w3.org/2000/svg"
  xmlns="http://www.w3.org/2000/svg"
  xmlns:xlink="http://www.w3.org/1999/xlink"
  version="1.1"
  width="8.884920cm" height="7.028180cm" viewBox="0 0 34980 27670">
<title>SVG Picture created as PCB-F_SilkS.svg date 2020/06/27 19:56:36 </title>
  <desc>Picture generated by PCBNEW </desc>
<g style="fill:#000000; fill-opacity:1;stroke:#000000; stroke-opacity:1;
stroke-linecap:round; stroke-linejoin:round;"
 transform="translate(0 0) scale(1 1)">
</g>
<g style="fill:#000000; fill-opacity:0.0; 
stroke:#000000; stroke-width:-0.000393701; stroke-opacity:1; 
stroke-linecap:round; stroke-linejoin:round;">
</g>
<g style="fill:#008484; fill-opacity:0.0; 
stroke:#008484; stroke-width:-0.000393701; stroke-opacity:1; 
stroke-linecap:round; stroke-linejoin:round;">
</g>
<g style="fill:#008484; fill-opacity:0.0; 
stroke:#008484; stroke-width:47.2441; stroke-opacity:1; 
stroke-linecap:round; stroke-linejoin:round;">
<path d="M27153 3652
L26563 3652
" />
<path d="M25578 4144
L25578 5916
" />
<path d="M26563 6408
L27153 6408
" />
<path d="M28137 5916
L28137 4144
" />
<path d="M24115 3652
L23525 3652
" />
<path d="M22540 4144
L22540 5916
" />
<path d="M23525 6408
L24115 6408
" />
<path d="M25099 5916
L25099 4144
" />
<path d="M21077 3652
L20487 3652
" />
<path d="M19502 4144
L19502 5916
" />
<path d="M20487 6408
L21077 6408
" />
<path d="M22061 5916
L22061 4144
" />
<path d="M18039 3652
L17449 3652
" />
<path d="M16464 4144
L16464 5916
" />
<path d="M17449 6408
L18039 6408
" />
<path d="M19023 5916
L19023 4144
" />
<path d="M15001 3652
L14410 3652
" />
<path d="M13426 4144
L13426 5916
" />
<path d="M14410 6408
L15001 6408
" />
<path d="M15985 5916
L15985 4144
" />
<path d="M11963 3652
L11372 3652
" />
<path d="M10388 4144
L10388 5916
" />
<path d="M11372 6408
L11963 6408
" />
<path d="M12947 5916
L12947 4144
" />
<path d="M8925 3652
L8334 3652
" />
<path d="M7350 4144
L7350 5916
" />
<path d="M8334 6408
L8925 6408
" />
<path d="M9909 5916
L9909 4144
" />
<path d="M13736 23427
L13736 23918
" />
<path d="M15720.7 23197.3 A982.903 982.903 0.0 0 0 14054.3 22610" />
<path d="M15916.3 23208.4 A1176.38 1176.38 0.0 0 0 13805.3 22601.4" />
<path d="M13736.4 23918.2 A1177.17 1177.17 0.0 0 0 15685.8 24016.7" />
<path d="M13856.6 23735.2 A984.252 984.252 0.0 0 0 15515.6 23921.5" />
<path d="M25736 23427
L25736 23918
" />
<path d="M27720.7 23197.3 A982.903 982.903 0.0 0 0 26054.3 22610" />
<path d="M27916.3 23208.4 A1176.38 1176.38 0.0 0 0 25805.3 22601.4" />
<path d="M25736.4 23918.2 A1177.17 1177.17 0.0 0 0 27685.8 24016.7" />
<path d="M25856.6 23735.2 A984.252 984.252 0.0 0 0 27515.6 23921.5" />
<path d="M22736 23427
L22736 23918
" />
<path d="M24720.7 23197.3 A982.903 982.903 0.0 0 0 23054.3 22610" />
<path d="M24916.3 23208.4 A1176.38 1176.38 0.0 0 0 22805.3 22601.4" />
<path d="M22736.4 23918.2 A1177.17 1177.17 0.0 0 0 24685.8 24016.7" />
<path d="M22856.6 23735.2 A984.252 984.252 0.0 0 0 24515.6 23921.5" />
<path d="M19736 23427
L19736 23918
" />
<path d="M21720.7 23197.3 A982.903 982.903 0.0 0 0 20054.3 22610" />
<path d="M21916.3 23208.4 A1176.38 1176.38 0.0 0 0 19805.3 22601.4" />
<path d="M19736.4 23918.2 A1177.17 1177.17 0.0 0 0 21685.8 24016.7" />
<path d="M19856.6 23735.2 A984.252 984.252 0.0 0 0 21515.6 23921.5" />
<path d="M16736 23427
L16736 23918
" />
<path d="M18720.7 23197.3 A982.903 982.903 0.0 0 0 17054.3 22610" />
<path d="M18916.3 23208.4 A1176.38 1176.38 0.0 0 0 16805.3 22601.4" />
<path d="M16736.4 23918.2 A1177.17 1177.17 0.0 0 0 18685.8 24016.7" />
<path d="M16856.6 23735.2 A984.252 984.252 0.0 0 0 18515.6 23921.5" />
<path d="M10736 23427
L10736 23918
" />
<path d="M12720.7 23197.3 A982.903 982.903 0.0 0 0 11054.3 22610" />
<path d="M12916.3 23208.4 A1176.38 1176.38 0.0 0 0 10805.3 22601.4" />
<path d="M10736.4 23918.2 A1177.17 1177.17 0.0 0 0 12685.8 24016.7" />
<path d="M10856.6 23735.2 A984.252 984.252 0.0 0 0 12515.6 23921.5" />
<path d="M7736 23427
L7736 23918
" />
<path d="M9720.7 23197.3 A982.903 982.903 0.0 0 0 8054.28 22610" />
<path d="M9916.26 23208.4 A1176.38 1176.38 0.0 0 0 7805.31 22601.4" />
<path d="M7736.41 23918.2 A1177.17 1177.17 0.0 0 0 9685.75 24016.7" />
<path d="M7856.61 23735.2 A984.252 984.252 0.0 0 0 9515.58 23921.5" />
<path d="M25736 20427
L25736 20918
" />
<path d="M27720.7 20197.3 A982.903 982.903 0.0 0 0 26054.3 19610" />
<path d="M27916.3 20208.4 A1176.38 1176.38 0.0 0 0 25805.3 19601.4" />
<path d="M25736.4 20918.2 A1177.17 1177.17 0.0 0 0 27685.8 21016.7" />
<path d="M25856.6 20735.2 A984.252 984.252 0.0 0 0 27515.6 20921.5" />
<path d="M22736 20427
L22736 20918
" />
<path d="M24720.7 20197.3 A982.903 982.903 0.0 0 0 23054.3 19610" />
<path d="M24916.3 20208.4 A1176.38 1176.38 0.0 0 0 22805.3 19601.4" />
<path d="M22736.4 20918.2 A1177.17 1177.17 0.0 0 0 24685.8 21016.7" />
<path d="M22856.6 20735.2 A984.252 984.252 0.0 0 0 24515.6 20921.5" />
<path d="M19736 20427
L19736 20918
" />
<path d="M21720.7 20197.3 A982.903 982.903 0.0 0 0 20054.3 19610" />
<path d="M21916.3 20208.4 A1176.38 1176.38 0.0 0 0 19805.3 19601.4" />
<path d="M19736.4 20918.2 A1177.17 1177.17 0.0 0 0 21685.8 21016.7" />
<path d="M19856.6 20735.2 A984.252 984.252 0.0 0 0 21515.6 20921.5" />
<path d="M16736 20427
L16736 20918
" />
<path d="M18720.7 20197.3 A982.903 982.903 0.0 0 0 17054.3 19610" />
<path d="M18916.3 20208.4 A1176.38 1176.38 0.0 0 0 16805.3 19601.4" />
<path d="M16736.4 20918.2 A1177.17 1177.17 0.0 0 0 18685.8 21016.7" />
<path d="M16856.6 20735.2 A984.252 984.252 0.0 0 0 18515.6 20921.5" />
<path d="M13736 20427
L13736 20918
" />
<path d="M15720.7 20197.3 A982.903 982.903 0.0 0 0 14054.3 19610" />
<path d="M15916.3 20208.4 A1176.38 1176.38 0.0 0 0 13805.3 19601.4" />
<path d="M13736.4 20918.2 A1177.17 1177.17 0.0 0 0 15685.8 21016.7" />
<path d="M13856.6 20735.2 A984.252 984.252 0.0 0 0 15515.6 20921.5" />
<path d="M10736 20427
L10736 20918
" />
<path d="M12720.7 20197.3 A982.903 982.903 0.0 0 0 11054.3 19610" />
<path d="M12916.3 20208.4 A1176.38 1176.38 0.0 0 0 10805.3 19601.4" />
<path d="M10736.4 20918.2 A1177.17 1177.17 0.0 0 0 12685.8 21016.7" />
<path d="M10856.6 20735.2 A984.252 984.252 0.0 0 0 12515.6 20921.5" />
<path d="M7736 20427
L7736 20918
" />
<path d="M9720.7 20197.3 A982.903 982.903 0.0 0 0 8054.28 19610" />
<path d="M9916.26 20208.4 A1176.38 1176.38 0.0 0 0 7805.31 19601.4" />
<path d="M7736.41 20918.2 A1177.17 1177.17 0.0 0 0 9685.75 21016.7" />
<path d="M7856.61 20735.2 A984.252 984.252 0.0 0 0 9515.58 20921.5" />
<path d="M25736 17427
L25736 17918
" />
<path d="M27720.7 17197.3 A982.903 982.903 0.0 0 0 26054.3 16610" />
<path d="M27916.3 17208.4 A1176.38 1176.38 0.0 0 0 25805.3 16601.4" />
<path d="M25736.4 17918.2 A1177.17 1177.17 0.0 0 0 27685.8 18016.7" />
<path d="M25856.6 17735.2 A984.252 984.252 0.0 0 0 27515.6 17921.5" />
<path d="M22736 17427
L22736 17918
" />
<path d="M24720.7 17197.3 A982.903 982.903 0.0 0 0 23054.3 16610" />
<path d="M24916.3 17208.4 A1176.38 1176.38 0.0 0 0 22805.3 16601.4" />
<path d="M22736.4 17918.2 A1177.17 1177.17 0.0 0 0 24685.8 18016.7" />
<path d="M22856.6 17735.2 A984.252 984.252 0.0 0 0 24515.6 17921.5" />
<path d="M19736 17427
L19736 17918
" />
<path d="M21720.7 17197.3 A982.903 982.903 0.0 0 0 20054.3 16610" />
<path d="M21916.3 17208.4 A1176.38 1176.38 0.0 0 0 19805.3 16601.4" />
<path d="M19736.4 17918.2 A1177.17 1177.17 0.0 0 0 21685.8 18016.7" />
<path d="M19856.6 17735.2 A984.252 984.252 0.0 0 0 21515.6 17921.5" />
<path d="M16736 17427
L16736 17918
" />
<path d="M18720.7 17197.3 A982.903 982.903 0.0 0 0 17054.3 16610" />
<path d="M18916.3 17208.4 A1176.38 1176.38 0.0 0 0 16805.3 16601.4" />
<path d="M16736.4 17918.2 A1177.17 1177.17 0.0 0 0 18685.8 18016.7" />
<path d="M16856.6 17735.2 A984.252 984.252 0.0 0 0 18515.6 17921.5" />
<path d="M13736 17427
L13736 17918
" />
<path d="M15720.7 17197.3 A982.903 982.903 0.0 0 0 14054.3 16610" />
<path d="M15916.3 17208.4 A1176.38 1176.38 0.0 0 0 13805.3 16601.4" />
<path d="M13736.4 17918.2 A1177.17 1177.17 0.0 0 0 15685.8 18016.7" />
<path d="M13856.6 17735.2 A984.252 984.252 0.0 0 0 15515.6 17921.5" />
<path d="M10736 17427
L10736 17918
" />
<path d="M12720.7 17197.3 A982.903 982.903 0.0 0 0 11054.3 16610" />
<path d="M12916.3 17208.4 A1176.38 1176.38 0.0 0 0 10805.3 16601.4" />
<path d="M10736.4 17918.2 A1177.17 1177.17 0.0 0 0 12685.8 18016.7" />
<path d="M10856.6 17735.2 A984.252 984.252 0.0 0 0 12515.6 17921.5" />
<path d="M7736 17427
L7736 17918
" />
<path d="M9720.7 17197.3 A982.903 982.903 0.0 0 0 8054.28 16610" />
<path d="M9916.26 17208.4 A1176.38 1176.38 0.0 0 0 7805.31 16601.4" />
<path d="M7736.41 17918.2 A1177.17 1177.17 0.0 0 0 9685.75 18016.7" />
<path d="M7856.61 17735.2 A984.252 984.252 0.0 0 0 9515.58 17921.5" />
<path d="M25736 14427
L25736 14918
" />
<path d="M27720.7 14197.3 A982.903 982.903 0.0 0 0 26054.3 13610" />
<path d="M27916.3 14208.4 A1176.38 1176.38 0.0 0 0 25805.3 13601.4" />
<path d="M25736.4 14918.2 A1177.17 1177.17 0.0 0 0 27685.8 15016.7" />
<path d="M25856.6 14735.2 A984.252 984.252 0.0 0 0 27515.6 14921.5" />
<path d="M22736 14427
L22736 14918
" />
<path d="M24720.7 14197.3 A982.903 982.903 0.0 0 0 23054.3 13610" />
<path d="M24916.3 14208.4 A1176.38 1176.38 0.0 0 0 22805.3 13601.4" />
<path d="M22736.4 14918.2 A1177.17 1177.17 0.0 0 0 24685.8 15016.7" />
<path d="M22856.6 14735.2 A984.252 984.252 0.0 0 0 24515.6 14921.5" />
<path d="M19736 14427
L19736 14918
" />
<path d="M21720.7 14197.3 A982.903 982.903 0.0 0 0 20054.3 13610" />
<path d="M21916.3 14208.4 A1176.38 1176.38 0.0 0 0 19805.3 13601.4" />
<path d="M19736.4 14918.2 A1177.17 1177.17 0.0 0 0 21685.8 15016.7" />
<path d="M19856.6 14735.2 A984.252 984.252 0.0 0 0 21515.6 14921.5" />
<path d="M16736 14427
L16736 14918
" />
<path d="M18720.7 14197.3 A982.903 982.903 0.0 0 0 17054.3 13610" />
<path d="M18916.3 14208.4 A1176.38 1176.38 0.0 0 0 16805.3 13601.4" />
<path d="M16736.4 14918.2 A1177.17 1177.17 0.0 0 0 18685.8 15016.7" />
<path d="M16856.6 14735.2 A984.252 984.252 0.0 0 0 18515.6 14921.5" />
<path d="M13736 14427
L13736 14918
" />
<path d="M15720.7 14197.3 A982.903 982.903 0.0 0 0 14054.3 13610" />
<path d="M15916.3 14208.4 A1176.38 1176.38 0.0 0 0 13805.3 13601.4" />
<path d="M13736.4 14918.2 A1177.17 1177.17 0.0 0 0 15685.8 15016.7" />
<path d="M13856.6 14735.2 A984.252 984.252 0.0 0 0 15515.6 14921.5" />
<path d="M10736 14427
L10736 14918
" />
<path d="M12720.7 14197.3 A982.903 982.903 0.0 0 0 11054.3 13610" />
<path d="M12916.3 14208.4 A1176.38 1176.38 0.0 0 0 10805.3 13601.4" />
<path d="M10736.4 14918.2 A1177.17 1177.17 0.0 0 0 12685.8 15016.7" />
<path d="M10856.6 14735.2 A984.252 984.252 0.0 0 0 12515.6 14921.5" />
<path d="M7736 14427
L7736 14918
" />
<path d="M9720.7 14197.3 A982.903 982.903 0.0 0 0 8054.28 13610" />
<path d="M9916.26 14208.4 A1176.38 1176.38 0.0 0 0 7805.31 13601.4" />
<path d="M7736.41 14918.2 A1177.17 1177.17 0.0 0 0 9685.75 15016.7" />
<path d="M7856.61 14735.2 A984.252 984.252 0.0 0 0 9515.58 14921.5" />
<path d="M25736 11427
L25736 11918
" />
<path d="M27720.7 11197.3 A982.903 982.903 0.0 0 0 26054.3 10610" />
<path d="M27916.3 11208.4 A1176.38 1176.38 0.0 0 0 25805.3 10601.4" />
<path d="M25736.4 11918.2 A1177.17 1177.17 0.0 0 0 27685.8 12016.7" />
<path d="M25856.6 11735.2 A984.252 984.252 0.0 0 0 27515.6 11921.5" />
<path d="M22736 11427
L22736 11918
" />
<path d="M24720.7 11197.3 A982.903 982.903 0.0 0 0 23054.3 10610" />
<path d="M24916.3 11208.4 A1176.38 1176.38 0.0 0 0 22805.3 10601.4" />
<path d="M22736.4 11918.2 A1177.17 1177.17 0.0 0 0 24685.8 12016.7" />
<path d="M22856.6 11735.2 A984.252 984.252 0.0 0 0 24515.6 11921.5" />
<path d="M19736 11427
L19736 11918
" />
<path d="M21720.7 11197.3 A982.903 982.903 0.0 0 0 20054.3 10610" />
<path d="M21916.3 11208.4 A1176.38 1176.38 0.0 0 0 19805.3 10601.4" />
<path d="M19736.4 11918.2 A1177.17 1177.17 0.0 0 0 21685.8 12016.7" />
<path d="M19856.6 11735.2 A984.252 984.252 0.0 0 0 21515.6 11921.5" />
<path d="M16736 11427
L16736 11918
" />
<path d="M18720.7 11197.3 A982.903 982.903 0.0 0 0 17054.3 10610" />
<path d="M18916.3 11208.4 A1176.38 1176.38 0.0 0 0 16805.3 10601.4" />
<path d="M16736.4 11918.2 A1177.17 1177.17 0.0 0 0 18685.8 12016.7" />
<path d="M16856.6 11735.2 A984.252 984.252 0.0 0 0 18515.6 11921.5" />
<path d="M13736 11427
L13736 11918
" />
<path d="M15720.7 11197.3 A982.903 982.903 0.0 0 0 14054.3 10610" />
<path d="M15916.3 11208.4 A1176.38 1176.38 0.0 0 0 13805.3 10601.4" />
<path d="M13736.4 11918.2 A1177.17 1177.17 0.0 0 0 15685.8 12016.7" />
<path d="M13856.6 11735.2 A984.252 984.252 0.0 0 0 15515.6 11921.5" />
<path d="M10736 11427
L10736 11918
" />
<path d="M12720.7 11197.3 A982.903 982.903 0.0 0 0 11054.3 10610" />
<path d="M12916.3 11208.4 A1176.38 1176.38 0.0 0 0 10805.3 10601.4" />
<path d="M10736.4 11918.2 A1177.17 1177.17 0.0 0 0 12685.8 12016.7" />
<path d="M10856.6 11735.2 A984.252 984.252 0.0 0 0 12515.6 11921.5" />
<path d="M7736 11427
L7736 11918
" />
<path d="M9720.7 11197.3 A982.903 982.903 0.0 0 0 8054.28 10610" />
<path d="M9916.26 11208.4 A1176.38 1176.38 0.0 0 0 7805.31 10601.4" />
<path d="M7736.41 11918.2 A1177.17 1177.17 0.0 0 0 9685.75 12016.7" />
<path d="M7856.61 11735.2 A984.252 984.252 0.0 0 0 9515.58 11921.5" />
<path d="M25736 8427
L25736 8918
" />
<path d="M27720.7 8197.28 A982.903 982.903 0.0 0 0 26054.3 7610.04" />
<path d="M27916.3 8208.38 A1176.38 1176.38 0.0 0 0 25805.3 7601.38" />
<path d="M25736.4 8918.24 A1177.17 1177.17 0.0 0 0 27685.8 9016.69" />
<path d="M25856.6 8735.24 A984.252 984.252 0.0 0 0 27515.6 8921.48" />
<path d="M22736 8427
L22736 8918
" />
<path d="M24720.7 8197.28 A982.903 982.903 0.0 0 0 23054.3 7610.04" />
<path d="M24916.3 8208.38 A1176.38 1176.38 0.0 0 0 22805.3 7601.38" />
<path d="M22736.4 8918.24 A1177.17 1177.17 0.0 0 0 24685.8 9016.69" />
<path d="M22856.6 8735.24 A984.252 984.252 0.0 0 0 24515.6 8921.48" />
<path d="M19736 8427
L19736 8918
" />
<path d="M21720.7 8197.28 A982.903 982.903 0.0 0 0 20054.3 7610.04" />
<path d="M21916.3 8208.38 A1176.38 1176.38 0.0 0 0 19805.3 7601.38" />
<path d="M19736.4 8918.24 A1177.17 1177.17 0.0 0 0 21685.8 9016.69" />
<path d="M19856.6 8735.24 A984.252 984.252 0.0 0 0 21515.6 8921.48" />
<path d="M16736 8427
L16736 8918
" />
<path d="M18720.7 8197.28 A982.903 982.903 0.0 0 0 17054.3 7610.04" />
<path d="M18916.3 8208.38 A1176.38 1176.38 0.0 0 0 16805.3 7601.38" />
<path d="M16736.4 8918.24 A1177.17 1177.17 0.0 0 0 18685.8 9016.69" />
<path d="M16856.6 8735.24 A984.252 984.252 0.0 0 0 18515.6 8921.48" />
<path d="M13736 8427
L13736 8918
" />
<path d="M15720.7 8197.28 A982.903 982.903 0.0 0 0 14054.3 7610.04" />
<path d="M15916.3 8208.38 A1176.38 1176.38 0.0 0 0 13805.3 7601.38" />
<path d="M13736.4 8918.24 A1177.17 1177.17 0.0 0 0 15685.8 9016.69" />
<path d="M13856.6 8735.24 A984.252 984.252 0.0 0 0 15515.6 8921.48" />
<path d="M10736 8427
L10736 8918
" />
<path d="M12720.7 8197.28 A982.903 982.903 0.0 0 0 11054.3 7610.04" />
<path d="M12916.3 8208.38 A1176.38 1176.38 0.0 0 0 10805.3 7601.38" />
<path d="M10736.4 8918.24 A1177.17 1177.17 0.0 0 0 12685.8 9016.69" />
<path d="M10856.6 8735.24 A984.252 984.252 0.0 0 0 12515.6 8921.48" />
<path d="M7736 8427
L7736 8918
" />
<path d="M9720.7 8197.28 A982.903 982.903 0.0 0 0 8054.28 7610.04" />
<path d="M9916.26 8208.38 A1176.38 1176.38 0.0 0 0 7805.31 7601.38" />
<path d="M7736.41 8918.24 A1177.17 1177.17 0.0 0 0 9685.75 9016.69" />
<path d="M7856.61 8735.24 A984.252 984.252 0.0 0 0 9515.58 8921.48" />
</g>
<g style="fill:#008484; fill-opacity:0.0; 
stroke:#008484; stroke-width:59.0551; stroke-opacity:1; 
stroke-linecap:round; stroke-linejoin:round;">
<text x="26858.5" y="5227.36"
textLength="1276.62" font-size="524.934" lengthAdjust="spacingAndGlyphs"
text-anchor="middle" opacity="0">SW7</text>
<path d="M26333 5189
L26389 5208
L26483 5208
L26520 5189
L26539 5171
L26558 5133
L26558 5096
L26539 5058
L26520 5039
L26483 5021
L26408 5002
L26371 4983
L26352 4964
L26333 4927
L26333 4889
L26352 4852
L26371 4833
L26408 4814
L26502 4814
L26558 4833
" />
<path d="M26689 4814
L26783 5208
L26858 4927
L26933 5208
L27027 4814
" />
<path d="M27139 4814
L27402 4814
L27233 5208
" />
<text x="23820.4" y="5227.36"
textLength="1276.62" font-size="524.934" lengthAdjust="spacingAndGlyphs"
text-anchor="middle" opacity="0">SW6</text>
<path d="M23295 5189
L23351 5208
L23445 5208
L23482 5189
L23501 5171
L23520 5133
L23520 5096
L23501 5058
L23482 5039
L23445 5021
L23370 5002
L23332 4983
L23314 4964
L23295 4927
L23295 4889
L23314 4852
L23332 4833
L23370 4814
L23464 4814
L23520 4833
" />
<path d="M23651 4814
L23745 5208
L23820 4927
L23895 5208
L23989 4814
" />
<path d="M24307 4814
L24232 4814
L24195 4833
L24176 4852
L24139 4908
L24120 4983
L24120 5133
L24139 5171
L24157 5189
L24195 5208
L24270 5208
L24307 5189
L24326 5171
L24345 5133
L24345 5039
L24326 5002
L24307 4983
L24270 4964
L24195 4964
L24157 4983
L24139 5002
L24120 5039
" />
<text x="20782.3" y="5256.89"
textLength="1276.62" font-size="524.934" lengthAdjust="spacingAndGlyphs"
text-anchor="middle" opacity="0">SW5</text>
<path d="M20257 5219
L20313 5238
L20407 5238
L20444 5219
L20463 5200
L20482 5163
L20482 5125
L20463 5088
L20444 5069
L20407 5050
L20332 5031
L20294 5013
L20276 4994
L20257 4956
L20257 4919
L20276 4881
L20294 4863
L20332 4844
L20426 4844
L20482 4863
" />
<path d="M20613 4844
L20707 5238
L20782 4956
L20857 5238
L20951 4844
" />
<path d="M21288 4844
L21101 4844
L21082 5031
L21101 5013
L21138 4994
L21232 4994
L21269 5013
L21288 5031
L21307 5069
L21307 5163
L21288 5200
L21269 5219
L21232 5238
L21138 5238
L21101 5219
L21082 5200
" />
<text x="17744.3" y="5256.89"
textLength="1276.62" font-size="524.934" lengthAdjust="spacingAndGlyphs"
text-anchor="middle" opacity="0">SW4</text>
<path d="M17219 5219
L17275 5238
L17369 5238
L17406 5219
L17425 5200
L17444 5163
L17444 5125
L17425 5088
L17406 5069
L17369 5050
L17294 5031
L17256 5013
L17238 4994
L17219 4956
L17219 4919
L17238 4881
L17256 4863
L17294 4844
L17388 4844
L17444 4863
" />
<path d="M17575 4844
L17669 5238
L17744 4956
L17819 5238
L17913 4844
" />
<path d="M18231 4975
L18231 5238
" />
<path d="M18137 4825
L18044 5106
L18287 5106
" />
<text x="14706.2" y="5227.36"
textLength="1276.62" font-size="524.934" lengthAdjust="spacingAndGlyphs"
text-anchor="middle" opacity="0">SW3</text>
<path d="M14181 5189
L14237 5208
L14331 5208
L14368 5189
L14387 5171
L14406 5133
L14406 5096
L14387 5058
L14368 5039
L14331 5021
L14256 5002
L14218 4983
L14200 4964
L14181 4927
L14181 4889
L14200 4852
L14218 4833
L14256 4814
L14350 4814
L14406 4833
" />
<path d="M14537 4814
L14631 5208
L14706 4927
L14781 5208
L14874 4814
" />
<path d="M14987 4814
L15231 4814
L15099 4964
L15156 4964
L15193 4983
L15212 5002
L15231 5039
L15231 5133
L15212 5171
L15193 5189
L15156 5208
L15043 5208
L15006 5189
L14987 5171
" />
<text x="11668.2" y="5227.36"
textLength="1276.62" font-size="524.934" lengthAdjust="spacingAndGlyphs"
text-anchor="middle" opacity="0">SW2</text>
<path d="M11143 5189
L11199 5208
L11293 5208
L11330 5189
L11349 5171
L11368 5133
L11368 5096
L11349 5058
L11330 5039
L11293 5021
L11218 5002
L11180 4983
L11161 4964
L11143 4927
L11143 4889
L11161 4852
L11180 4833
L11218 4814
L11311 4814
L11368 4833
" />
<path d="M11499 4814
L11593 5208
L11668 4927
L11743 5208
L11836 4814
" />
<path d="M11968 4852
L11986 4833
L12024 4814
L12118 4814
L12155 4833
L12174 4852
L12193 4889
L12193 4927
L12174 4983
L11949 5208
L12193 5208
" />
<text x="8630.11" y="5227.36"
textLength="1276.62" font-size="524.934" lengthAdjust="spacingAndGlyphs"
text-anchor="middle" opacity="0">SW1</text>
<path d="M8105 5189
L8161 5208
L8255 5208
L8292 5189
L8311 5171
L8330 5133
L8330 5096
L8311 5058
L8292 5039
L8255 5021
L8180 5002
L8142 4983
L8123 4964
L8105 4927
L8105 4889
L8123 4852
L8142 4833
L8180 4814
L8273 4814
L8330 4833
" />
<path d="M8461 4814
L8555 5208
L8630 4927
L8705 5208
L8798 4814
" />
<path d="M9155 5208
L8930 5208
" />
<path d="M9042 5208
L9042 4814
L9005 4871
L8967 4908
L8930 4927
" />
<text x="15494.3" y="22447.8"
textLength="1220.38" font-size="524.934" lengthAdjust="spacingAndGlyphs"
text-anchor="start" opacity="0">D18</text>
<path d="M15626 22429
L15626 22035
L15720 22035
L15776 22054
L15813 22091
L15832 22129
L15851 22204
L15851 22260
L15832 22335
L15813 22372
L15776 22410
L15720 22429
L15626 22429
" />
<path d="M16226 22429
L16001 22429
" />
<path d="M16113 22429
L16113 22035
L16076 22091
L16038 22129
L16001 22147
" />
<path d="M16451 22204
L16413 22185
L16395 22166
L16376 22129
L16376 22110
L16395 22072
L16413 22054
L16451 22035
L16526 22035
L16563 22054
L16582 22072
L16601 22110
L16601 22129
L16582 22166
L16563 22185
L16526 22204
L16451 22204
L16413 22222
L16395 22241
L16376 22279
L16376 22354
L16395 22391
L16413 22410
L16451 22429
L16526 22429
L16563 22410
L16582 22391
L16601 22354
L16601 22279
L16582 22241
L16563 22222
L16526 22204
" />
<text x="27494.3" y="22447.8"
textLength="1220.38" font-size="524.934" lengthAdjust="spacingAndGlyphs"
text-anchor="start" opacity="0">D42</text>
<path d="M27626 22429
L27626 22035
L27720 22035
L27776 22054
L27813 22091
L27832 22129
L27851 22204
L27851 22260
L27832 22335
L27813 22372
L27776 22410
L27720 22429
L27626 22429
" />
<path d="M28188 22166
L28188 22429
" />
<path d="M28095 22016
L28001 22297
L28245 22297
" />
<path d="M28376 22072
L28395 22054
L28432 22035
L28526 22035
L28563 22054
L28582 22072
L28601 22110
L28601 22147
L28582 22204
L28357 22429
L28601 22429
" />
<text x="24494.3" y="22447.8"
textLength="1220.38" font-size="524.934" lengthAdjust="spacingAndGlyphs"
text-anchor="start" opacity="0">D36</text>
<path d="M24626 22429
L24626 22035
L24720 22035
L24776 22054
L24813 22091
L24832 22129
L24851 22204
L24851 22260
L24832 22335
L24813 22372
L24776 22410
L24720 22429
L24626 22429
" />
<path d="M24982 22035
L25226 22035
L25095 22185
L25151 22185
L25188 22204
L25207 22222
L25226 22260
L25226 22354
L25207 22391
L25188 22410
L25151 22429
L25038 22429
L25001 22410
L24982 22391
" />
<path d="M25563 22035
L25488 22035
L25451 22054
L25432 22072
L25395 22129
L25376 22204
L25376 22354
L25395 22391
L25413 22410
L25451 22429
L25526 22429
L25563 22410
L25582 22391
L25601 22354
L25601 22260
L25582 22222
L25563 22204
L25526 22185
L25451 22185
L25413 22204
L25395 22222
L25376 22260
" />
<text x="21494.3" y="22447.8"
textLength="1220.38" font-size="524.934" lengthAdjust="spacingAndGlyphs"
text-anchor="start" opacity="0">D30</text>
<path d="M21626 22429
L21626 22035
L21720 22035
L21776 22054
L21813 22091
L21832 22129
L21851 22204
L21851 22260
L21832 22335
L21813 22372
L21776 22410
L21720 22429
L21626 22429
" />
<path d="M21982 22035
L22226 22035
L22095 22185
L22151 22185
L22188 22204
L22207 22222
L22226 22260
L22226 22354
L22207 22391
L22188 22410
L22151 22429
L22038 22429
L22001 22410
L21982 22391
" />
<path d="M22470 22035
L22507 22035
L22545 22054
L22563 22072
L22582 22110
L22601 22185
L22601 22279
L22582 22354
L22563 22391
L22545 22410
L22507 22429
L22470 22429
L22432 22410
L22413 22391
L22395 22354
L22376 22279
L22376 22185
L22395 22110
L22413 22072
L22432 22054
L22470 22035
" />
<text x="18494.3" y="22447.8"
textLength="1220.38" font-size="524.934" lengthAdjust="spacingAndGlyphs"
text-anchor="start" opacity="0">D24</text>
<path d="M18626 22429
L18626 22035
L18720 22035
L18776 22054
L18813 22091
L18832 22129
L18851 22204
L18851 22260
L18832 22335
L18813 22372
L18776 22410
L18720 22429
L18626 22429
" />
<path d="M19001 22072
L19020 22054
L19057 22035
L19151 22035
L19188 22054
L19207 22072
L19226 22110
L19226 22147
L19207 22204
L18982 22429
L19226 22429
" />
<path d="M19563 22166
L19563 22429
" />
<path d="M19470 22016
L19376 22297
L19620 22297
" />
<text x="12494.3" y="22447.8"
textLength="1220.38" font-size="524.934" lengthAdjust="spacingAndGlyphs"
text-anchor="start" opacity="0">D12</text>
<path d="M12626 22429
L12626 22035
L12720 22035
L12776 22054
L12813 22091
L12832 22129
L12851 22204
L12851 22260
L12832 22335
L12813 22372
L12776 22410
L12720 22429
L12626 22429
" />
<path d="M13226 22429
L13001 22429
" />
<path d="M13113 22429
L13113 22035
L13076 22091
L13038 22129
L13001 22147
" />
<path d="M13376 22072
L13395 22054
L13432 22035
L13526 22035
L13563 22054
L13582 22072
L13601 22110
L13601 22147
L13582 22204
L13357 22429
L13601 22429
" />
<text x="9494.28" y="22447.8"
textLength="845.426" font-size="524.934" lengthAdjust="spacingAndGlyphs"
text-anchor="start" opacity="0">D6</text>
<path d="M9626 22429
L9626 22035
L9720 22035
L9776 22054
L9813 22091
L9832 22129
L9851 22204
L9851 22260
L9832 22335
L9813 22372
L9776 22410
L9720 22429
L9626 22429
" />
<path d="M10188 22035
L10113 22035
L10076 22054
L10057 22072
L10020 22129
L10001 22204
L10001 22354
L10020 22391
L10038 22410
L10076 22429
L10151 22429
L10188 22410
L10207 22391
L10226 22354
L10226 22260
L10207 22222
L10188 22204
L10151 22185
L10076 22185
L10038 22204
L10020 22222
L10001 22260
" />
<text x="27494.3" y="19447.8"
textLength="1220.38" font-size="524.934" lengthAdjust="spacingAndGlyphs"
text-anchor="start" opacity="0">D41</text>
<path d="M27626 19429
L27626 19035
L27720 19035
L27776 19054
L27813 19091
L27832 19129
L27851 19204
L27851 19260
L27832 19335
L27813 19372
L27776 19410
L27720 19429
L27626 19429
" />
<path d="M28188 19166
L28188 19429
" />
<path d="M28095 19016
L28001 19297
L28245 19297
" />
<path d="M28601 19429
L28376 19429
" />
<path d="M28488 19429
L28488 19035
L28451 19091
L28413 19129
L28376 19147
" />
<text x="24494.3" y="19447.8"
textLength="1220.38" font-size="524.934" lengthAdjust="spacingAndGlyphs"
text-anchor="start" opacity="0">D35</text>
<path d="M24626 19429
L24626 19035
L24720 19035
L24776 19054
L24813 19091
L24832 19129
L24851 19204
L24851 19260
L24832 19335
L24813 19372
L24776 19410
L24720 19429
L24626 19429
" />
<path d="M24982 19035
L25226 19035
L25095 19185
L25151 19185
L25188 19204
L25207 19222
L25226 19260
L25226 19354
L25207 19391
L25188 19410
L25151 19429
L25038 19429
L25001 19410
L24982 19391
" />
<path d="M25582 19035
L25395 19035
L25376 19222
L25395 19204
L25432 19185
L25526 19185
L25563 19204
L25582 19222
L25601 19260
L25601 19354
L25582 19391
L25563 19410
L25526 19429
L25432 19429
L25395 19410
L25376 19391
" />
<text x="21494.3" y="19447.8"
textLength="1220.38" font-size="524.934" lengthAdjust="spacingAndGlyphs"
text-anchor="start" opacity="0">D29</text>
<path d="M21626 19429
L21626 19035
L21720 19035
L21776 19054
L21813 19091
L21832 19129
L21851 19204
L21851 19260
L21832 19335
L21813 19372
L21776 19410
L21720 19429
L21626 19429
" />
<path d="M22001 19072
L22020 19054
L22057 19035
L22151 19035
L22188 19054
L22207 19072
L22226 19110
L22226 19147
L22207 19204
L21982 19429
L22226 19429
" />
<path d="M22413 19429
L22488 19429
L22526 19410
L22545 19391
L22582 19335
L22601 19260
L22601 19110
L22582 19072
L22563 19054
L22526 19035
L22451 19035
L22413 19054
L22395 19072
L22376 19110
L22376 19204
L22395 19241
L22413 19260
L22451 19279
L22526 19279
L22563 19260
L22582 19241
L22601 19204
" />
<text x="18494.3" y="19447.8"
textLength="1220.38" font-size="524.934" lengthAdjust="spacingAndGlyphs"
text-anchor="start" opacity="0">D23</text>
<path d="M18626 19429
L18626 19035
L18720 19035
L18776 19054
L18813 19091
L18832 19129
L18851 19204
L18851 19260
L18832 19335
L18813 19372
L18776 19410
L18720 19429
L18626 19429
" />
<path d="M19001 19072
L19020 19054
L19057 19035
L19151 19035
L19188 19054
L19207 19072
L19226 19110
L19226 19147
L19207 19204
L18982 19429
L19226 19429
" />
<path d="M19357 19035
L19601 19035
L19470 19185
L19526 19185
L19563 19204
L19582 19222
L19601 19260
L19601 19354
L19582 19391
L19563 19410
L19526 19429
L19413 19429
L19376 19410
L19357 19391
" />
<text x="15494.3" y="19447.8"
textLength="1220.38" font-size="524.934" lengthAdjust="spacingAndGlyphs"
text-anchor="start" opacity="0">D17</text>
<path d="M15626 19429
L15626 19035
L15720 19035
L15776 19054
L15813 19091
L15832 19129
L15851 19204
L15851 19260
L15832 19335
L15813 19372
L15776 19410
L15720 19429
L15626 19429
" />
<path d="M16226 19429
L16001 19429
" />
<path d="M16113 19429
L16113 19035
L16076 19091
L16038 19129
L16001 19147
" />
<path d="M16357 19035
L16620 19035
L16451 19429
" />
<text x="12494.3" y="19447.8"
textLength="1220.38" font-size="524.934" lengthAdjust="spacingAndGlyphs"
text-anchor="start" opacity="0">D11</text>
<path d="M12626 19429
L12626 19035
L12720 19035
L12776 19054
L12813 19091
L12832 19129
L12851 19204
L12851 19260
L12832 19335
L12813 19372
L12776 19410
L12720 19429
L12626 19429
" />
<path d="M13226 19429
L13001 19429
" />
<path d="M13113 19429
L13113 19035
L13076 19091
L13038 19129
L13001 19147
" />
<path d="M13601 19429
L13376 19429
" />
<path d="M13488 19429
L13488 19035
L13451 19091
L13413 19129
L13376 19147
" />
<text x="9494.28" y="19447.8"
textLength="845.426" font-size="524.934" lengthAdjust="spacingAndGlyphs"
text-anchor="start" opacity="0">D5</text>
<path d="M9626 19429
L9626 19035
L9720 19035
L9776 19054
L9813 19091
L9832 19129
L9851 19204
L9851 19260
L9832 19335
L9813 19372
L9776 19410
L9720 19429
L9626 19429
" />
<path d="M10207 19035
L10020 19035
L10001 19222
L10020 19204
L10057 19185
L10151 19185
L10188 19204
L10207 19222
L10226 19260
L10226 19354
L10207 19391
L10188 19410
L10151 19429
L10057 19429
L10020 19410
L10001 19391
" />
<text x="27494.3" y="16447.8"
textLength="1220.38" font-size="524.934" lengthAdjust="spacingAndGlyphs"
text-anchor="start" opacity="0">D40</text>
<path d="M27626 16429
L27626 16035
L27720 16035
L27776 16054
L27813 16091
L27832 16129
L27851 16204
L27851 16260
L27832 16335
L27813 16372
L27776 16410
L27720 16429
L27626 16429
" />
<path d="M28188 16166
L28188 16429
" />
<path d="M28095 16016
L28001 16297
L28245 16297
" />
<path d="M28470 16035
L28507 16035
L28545 16054
L28563 16072
L28582 16110
L28601 16185
L28601 16279
L28582 16354
L28563 16391
L28545 16410
L28507 16429
L28470 16429
L28432 16410
L28413 16391
L28395 16354
L28376 16279
L28376 16185
L28395 16110
L28413 16072
L28432 16054
L28470 16035
" />
<text x="24494.3" y="16447.8"
textLength="1220.38" font-size="524.934" lengthAdjust="spacingAndGlyphs"
text-anchor="start" opacity="0">D34</text>
<path d="M24626 16429
L24626 16035
L24720 16035
L24776 16054
L24813 16091
L24832 16129
L24851 16204
L24851 16260
L24832 16335
L24813 16372
L24776 16410
L24720 16429
L24626 16429
" />
<path d="M24982 16035
L25226 16035
L25095 16185
L25151 16185
L25188 16204
L25207 16222
L25226 16260
L25226 16354
L25207 16391
L25188 16410
L25151 16429
L25038 16429
L25001 16410
L24982 16391
" />
<path d="M25563 16166
L25563 16429
" />
<path d="M25470 16016
L25376 16297
L25620 16297
" />
<text x="21494.3" y="16447.8"
textLength="1220.38" font-size="524.934" lengthAdjust="spacingAndGlyphs"
text-anchor="start" opacity="0">D28</text>
<path d="M21626 16429
L21626 16035
L21720 16035
L21776 16054
L21813 16091
L21832 16129
L21851 16204
L21851 16260
L21832 16335
L21813 16372
L21776 16410
L21720 16429
L21626 16429
" />
<path d="M22001 16072
L22020 16054
L22057 16035
L22151 16035
L22188 16054
L22207 16072
L22226 16110
L22226 16147
L22207 16204
L21982 16429
L22226 16429
" />
<path d="M22451 16204
L22413 16185
L22395 16166
L22376 16129
L22376 16110
L22395 16072
L22413 16054
L22451 16035
L22526 16035
L22563 16054
L22582 16072
L22601 16110
L22601 16129
L22582 16166
L22563 16185
L22526 16204
L22451 16204
L22413 16222
L22395 16241
L22376 16279
L22376 16354
L22395 16391
L22413 16410
L22451 16429
L22526 16429
L22563 16410
L22582 16391
L22601 16354
L22601 16279
L22582 16241
L22563 16222
L22526 16204
" />
<text x="18494.3" y="16447.8"
textLength="1220.38" font-size="524.934" lengthAdjust="spacingAndGlyphs"
text-anchor="start" opacity="0">D22</text>
<path d="M18626 16429
L18626 16035
L18720 16035
L18776 16054
L18813 16091
L18832 16129
L18851 16204
L18851 16260
L18832 16335
L18813 16372
L18776 16410
L18720 16429
L18626 16429
" />
<path d="M19001 16072
L19020 16054
L19057 16035
L19151 16035
L19188 16054
L19207 16072
L19226 16110
L19226 16147
L19207 16204
L18982 16429
L19226 16429
" />
<path d="M19376 16072
L19395 16054
L19432 16035
L19526 16035
L19563 16054
L19582 16072
L19601 16110
L19601 16147
L19582 16204
L19357 16429
L19601 16429
" />
<text x="15494.3" y="16447.8"
textLength="1220.38" font-size="524.934" lengthAdjust="spacingAndGlyphs"
text-anchor="start" opacity="0">D16</text>
<path d="M15626 16429
L15626 16035
L15720 16035
L15776 16054
L15813 16091
L15832 16129
L15851 16204
L15851 16260
L15832 16335
L15813 16372
L15776 16410
L15720 16429
L15626 16429
" />
<path d="M16226 16429
L16001 16429
" />
<path d="M16113 16429
L16113 16035
L16076 16091
L16038 16129
L16001 16147
" />
<path d="M16563 16035
L16488 16035
L16451 16054
L16432 16072
L16395 16129
L16376 16204
L16376 16354
L16395 16391
L16413 16410
L16451 16429
L16526 16429
L16563 16410
L16582 16391
L16601 16354
L16601 16260
L16582 16222
L16563 16204
L16526 16185
L16451 16185
L16413 16204
L16395 16222
L16376 16260
" />
<text x="12494.3" y="16447.8"
textLength="1220.38" font-size="524.934" lengthAdjust="spacingAndGlyphs"
text-anchor="start" opacity="0">D10</text>
<path d="M12626 16429
L12626 16035
L12720 16035
L12776 16054
L12813 16091
L12832 16129
L12851 16204
L12851 16260
L12832 16335
L12813 16372
L12776 16410
L12720 16429
L12626 16429
" />
<path d="M13226 16429
L13001 16429
" />
<path d="M13113 16429
L13113 16035
L13076 16091
L13038 16129
L13001 16147
" />
<path d="M13470 16035
L13507 16035
L13545 16054
L13563 16072
L13582 16110
L13601 16185
L13601 16279
L13582 16354
L13563 16391
L13545 16410
L13507 16429
L13470 16429
L13432 16410
L13413 16391
L13395 16354
L13376 16279
L13376 16185
L13395 16110
L13413 16072
L13432 16054
L13470 16035
" />
<text x="9494.28" y="16447.8"
textLength="845.426" font-size="524.934" lengthAdjust="spacingAndGlyphs"
text-anchor="start" opacity="0">D4</text>
<path d="M9626 16429
L9626 16035
L9720 16035
L9776 16054
L9813 16091
L9832 16129
L9851 16204
L9851 16260
L9832 16335
L9813 16372
L9776 16410
L9720 16429
L9626 16429
" />
<path d="M10188 16166
L10188 16429
" />
<path d="M10095 16016
L10001 16297
L10245 16297
" />
<text x="27494.3" y="13447.8"
textLength="1220.38" font-size="524.934" lengthAdjust="spacingAndGlyphs"
text-anchor="start" opacity="0">D39</text>
<path d="M27626 13429
L27626 13035
L27720 13035
L27776 13054
L27813 13091
L27832 13129
L27851 13204
L27851 13260
L27832 13335
L27813 13372
L27776 13410
L27720 13429
L27626 13429
" />
<path d="M27982 13035
L28226 13035
L28095 13185
L28151 13185
L28188 13204
L28207 13222
L28226 13260
L28226 13354
L28207 13391
L28188 13410
L28151 13429
L28038 13429
L28001 13410
L27982 13391
" />
<path d="M28413 13429
L28488 13429
L28526 13410
L28545 13391
L28582 13335
L28601 13260
L28601 13110
L28582 13072
L28563 13054
L28526 13035
L28451 13035
L28413 13054
L28395 13072
L28376 13110
L28376 13204
L28395 13241
L28413 13260
L28451 13279
L28526 13279
L28563 13260
L28582 13241
L28601 13204
" />
<text x="24494.3" y="13447.8"
textLength="1220.38" font-size="524.934" lengthAdjust="spacingAndGlyphs"
text-anchor="start" opacity="0">D33</text>
<path d="M24626 13429
L24626 13035
L24720 13035
L24776 13054
L24813 13091
L24832 13129
L24851 13204
L24851 13260
L24832 13335
L24813 13372
L24776 13410
L24720 13429
L24626 13429
" />
<path d="M24982 13035
L25226 13035
L25095 13185
L25151 13185
L25188 13204
L25207 13222
L25226 13260
L25226 13354
L25207 13391
L25188 13410
L25151 13429
L25038 13429
L25001 13410
L24982 13391
" />
<path d="M25357 13035
L25601 13035
L25470 13185
L25526 13185
L25563 13204
L25582 13222
L25601 13260
L25601 13354
L25582 13391
L25563 13410
L25526 13429
L25413 13429
L25376 13410
L25357 13391
" />
<text x="21494.3" y="13447.8"
textLength="1220.38" font-size="524.934" lengthAdjust="spacingAndGlyphs"
text-anchor="start" opacity="0">D27</text>
<path d="M21626 13429
L21626 13035
L21720 13035
L21776 13054
L21813 13091
L21832 13129
L21851 13204
L21851 13260
L21832 13335
L21813 13372
L21776 13410
L21720 13429
L21626 13429
" />
<path d="M22001 13072
L22020 13054
L22057 13035
L22151 13035
L22188 13054
L22207 13072
L22226 13110
L22226 13147
L22207 13204
L21982 13429
L22226 13429
" />
<path d="M22357 13035
L22620 13035
L22451 13429
" />
<text x="18494.3" y="13447.8"
textLength="1220.38" font-size="524.934" lengthAdjust="spacingAndGlyphs"
text-anchor="start" opacity="0">D21</text>
<path d="M18626 13429
L18626 13035
L18720 13035
L18776 13054
L18813 13091
L18832 13129
L18851 13204
L18851 13260
L18832 13335
L18813 13372
L18776 13410
L18720 13429
L18626 13429
" />
<path d="M19001 13072
L19020 13054
L19057 13035
L19151 13035
L19188 13054
L19207 13072
L19226 13110
L19226 13147
L19207 13204
L18982 13429
L19226 13429
" />
<path d="M19601 13429
L19376 13429
" />
<path d="M19488 13429
L19488 13035
L19451 13091
L19413 13129
L19376 13147
" />
<text x="15494.3" y="13447.8"
textLength="1220.38" font-size="524.934" lengthAdjust="spacingAndGlyphs"
text-anchor="start" opacity="0">D15</text>
<path d="M15626 13429
L15626 13035
L15720 13035
L15776 13054
L15813 13091
L15832 13129
L15851 13204
L15851 13260
L15832 13335
L15813 13372
L15776 13410
L15720 13429
L15626 13429
" />
<path d="M16226 13429
L16001 13429
" />
<path d="M16113 13429
L16113 13035
L16076 13091
L16038 13129
L16001 13147
" />
<path d="M16582 13035
L16395 13035
L16376 13222
L16395 13204
L16432 13185
L16526 13185
L16563 13204
L16582 13222
L16601 13260
L16601 13354
L16582 13391
L16563 13410
L16526 13429
L16432 13429
L16395 13410
L16376 13391
" />
<text x="12494.3" y="13447.8"
textLength="845.426" font-size="524.934" lengthAdjust="spacingAndGlyphs"
text-anchor="start" opacity="0">D9</text>
<path d="M12626 13429
L12626 13035
L12720 13035
L12776 13054
L12813 13091
L12832 13129
L12851 13204
L12851 13260
L12832 13335
L12813 13372
L12776 13410
L12720 13429
L12626 13429
" />
<path d="M13038 13429
L13113 13429
L13151 13410
L13170 13391
L13207 13335
L13226 13260
L13226 13110
L13207 13072
L13188 13054
L13151 13035
L13076 13035
L13038 13054
L13020 13072
L13001 13110
L13001 13204
L13020 13241
L13038 13260
L13076 13279
L13151 13279
L13188 13260
L13207 13241
L13226 13204
" />
<text x="9494.28" y="13447.8"
textLength="845.426" font-size="524.934" lengthAdjust="spacingAndGlyphs"
text-anchor="start" opacity="0">D3</text>
<path d="M9626 13429
L9626 13035
L9720 13035
L9776 13054
L9813 13091
L9832 13129
L9851 13204
L9851 13260
L9832 13335
L9813 13372
L9776 13410
L9720 13429
L9626 13429
" />
<path d="M9982 13035
L10226 13035
L10095 13185
L10151 13185
L10188 13204
L10207 13222
L10226 13260
L10226 13354
L10207 13391
L10188 13410
L10151 13429
L10038 13429
L10001 13410
L9982 13391
" />
<text x="27494.3" y="10447.8"
textLength="1220.38" font-size="524.934" lengthAdjust="spacingAndGlyphs"
text-anchor="start" opacity="0">D38</text>
<path d="M27626 10429
L27626 10035
L27720 10035
L27776 10054
L27813 10091
L27832 10129
L27851 10204
L27851 10260
L27832 10335
L27813 10372
L27776 10410
L27720 10429
L27626 10429
" />
<path d="M27982 10035
L28226 10035
L28095 10185
L28151 10185
L28188 10204
L28207 10222
L28226 10260
L28226 10354
L28207 10391
L28188 10410
L28151 10429
L28038 10429
L28001 10410
L27982 10391
" />
<path d="M28451 10204
L28413 10185
L28395 10166
L28376 10129
L28376 10110
L28395 10072
L28413 10054
L28451 10035
L28526 10035
L28563 10054
L28582 10072
L28601 10110
L28601 10129
L28582 10166
L28563 10185
L28526 10204
L28451 10204
L28413 10222
L28395 10241
L28376 10279
L28376 10354
L28395 10391
L28413 10410
L28451 10429
L28526 10429
L28563 10410
L28582 10391
L28601 10354
L28601 10279
L28582 10241
L28563 10222
L28526 10204
" />
<text x="24494.3" y="10447.8"
textLength="1220.38" font-size="524.934" lengthAdjust="spacingAndGlyphs"
text-anchor="start" opacity="0">D32</text>
<path d="M24626 10429
L24626 10035
L24720 10035
L24776 10054
L24813 10091
L24832 10129
L24851 10204
L24851 10260
L24832 10335
L24813 10372
L24776 10410
L24720 10429
L24626 10429
" />
<path d="M24982 10035
L25226 10035
L25095 10185
L25151 10185
L25188 10204
L25207 10222
L25226 10260
L25226 10354
L25207 10391
L25188 10410
L25151 10429
L25038 10429
L25001 10410
L24982 10391
" />
<path d="M25376 10072
L25395 10054
L25432 10035
L25526 10035
L25563 10054
L25582 10072
L25601 10110
L25601 10147
L25582 10204
L25357 10429
L25601 10429
" />
<text x="21494.3" y="10447.8"
textLength="1220.38" font-size="524.934" lengthAdjust="spacingAndGlyphs"
text-anchor="start" opacity="0">D26</text>
<path d="M21626 10429
L21626 10035
L21720 10035
L21776 10054
L21813 10091
L21832 10129
L21851 10204
L21851 10260
L21832 10335
L21813 10372
L21776 10410
L21720 10429
L21626 10429
" />
<path d="M22001 10072
L22020 10054
L22057 10035
L22151 10035
L22188 10054
L22207 10072
L22226 10110
L22226 10147
L22207 10204
L21982 10429
L22226 10429
" />
<path d="M22563 10035
L22488 10035
L22451 10054
L22432 10072
L22395 10129
L22376 10204
L22376 10354
L22395 10391
L22413 10410
L22451 10429
L22526 10429
L22563 10410
L22582 10391
L22601 10354
L22601 10260
L22582 10222
L22563 10204
L22526 10185
L22451 10185
L22413 10204
L22395 10222
L22376 10260
" />
<text x="18494.3" y="10447.8"
textLength="1220.38" font-size="524.934" lengthAdjust="spacingAndGlyphs"
text-anchor="start" opacity="0">D20</text>
<path d="M18626 10429
L18626 10035
L18720 10035
L18776 10054
L18813 10091
L18832 10129
L18851 10204
L18851 10260
L18832 10335
L18813 10372
L18776 10410
L18720 10429
L18626 10429
" />
<path d="M19001 10072
L19020 10054
L19057 10035
L19151 10035
L19188 10054
L19207 10072
L19226 10110
L19226 10147
L19207 10204
L18982 10429
L19226 10429
" />
<path d="M19470 10035
L19507 10035
L19545 10054
L19563 10072
L19582 10110
L19601 10185
L19601 10279
L19582 10354
L19563 10391
L19545 10410
L19507 10429
L19470 10429
L19432 10410
L19413 10391
L19395 10354
L19376 10279
L19376 10185
L19395 10110
L19413 10072
L19432 10054
L19470 10035
" />
<text x="15494.3" y="10447.8"
textLength="1220.38" font-size="524.934" lengthAdjust="spacingAndGlyphs"
text-anchor="start" opacity="0">D14</text>
<path d="M15626 10429
L15626 10035
L15720 10035
L15776 10054
L15813 10091
L15832 10129
L15851 10204
L15851 10260
L15832 10335
L15813 10372
L15776 10410
L15720 10429
L15626 10429
" />
<path d="M16226 10429
L16001 10429
" />
<path d="M16113 10429
L16113 10035
L16076 10091
L16038 10129
L16001 10147
" />
<path d="M16563 10166
L16563 10429
" />
<path d="M16470 10016
L16376 10297
L16620 10297
" />
<text x="12494.3" y="10447.8"
textLength="845.426" font-size="524.934" lengthAdjust="spacingAndGlyphs"
text-anchor="start" opacity="0">D8</text>
<path d="M12626 10429
L12626 10035
L12720 10035
L12776 10054
L12813 10091
L12832 10129
L12851 10204
L12851 10260
L12832 10335
L12813 10372
L12776 10410
L12720 10429
L12626 10429
" />
<path d="M13076 10204
L13038 10185
L13020 10166
L13001 10129
L13001 10110
L13020 10072
L13038 10054
L13076 10035
L13151 10035
L13188 10054
L13207 10072
L13226 10110
L13226 10129
L13207 10166
L13188 10185
L13151 10204
L13076 10204
L13038 10222
L13020 10241
L13001 10279
L13001 10354
L13020 10391
L13038 10410
L13076 10429
L13151 10429
L13188 10410
L13207 10391
L13226 10354
L13226 10279
L13207 10241
L13188 10222
L13151 10204
" />
<text x="9494.28" y="10447.8"
textLength="845.426" font-size="524.934" lengthAdjust="spacingAndGlyphs"
text-anchor="start" opacity="0">D2</text>
<path d="M9626 10429
L9626 10035
L9720 10035
L9776 10054
L9813 10091
L9832 10129
L9851 10204
L9851 10260
L9832 10335
L9813 10372
L9776 10410
L9720 10429
L9626 10429
" />
<path d="M10001 10072
L10020 10054
L10057 10035
L10151 10035
L10188 10054
L10207 10072
L10226 10110
L10226 10147
L10207 10204
L9982 10429
L10226 10429
" />
<text x="27494.3" y="7447.83"
textLength="1220.38" font-size="524.934" lengthAdjust="spacingAndGlyphs"
text-anchor="start" opacity="0">D37</text>
<path d="M27626 7429
L27626 7035
L27720 7035
L27776 7054
L27813 7091
L27832 7129
L27851 7204
L27851 7260
L27832 7335
L27813 7372
L27776 7410
L27720 7429
L27626 7429
" />
<path d="M27982 7035
L28226 7035
L28095 7185
L28151 7185
L28188 7204
L28207 7222
L28226 7260
L28226 7354
L28207 7391
L28188 7410
L28151 7429
L28038 7429
L28001 7410
L27982 7391
" />
<path d="M28357 7035
L28620 7035
L28451 7429
" />
<text x="24494.3" y="7447.83"
textLength="1220.38" font-size="524.934" lengthAdjust="spacingAndGlyphs"
text-anchor="start" opacity="0">D31</text>
<path d="M24626 7429
L24626 7035
L24720 7035
L24776 7054
L24813 7091
L24832 7129
L24851 7204
L24851 7260
L24832 7335
L24813 7372
L24776 7410
L24720 7429
L24626 7429
" />
<path d="M24982 7035
L25226 7035
L25095 7185
L25151 7185
L25188 7204
L25207 7222
L25226 7260
L25226 7354
L25207 7391
L25188 7410
L25151 7429
L25038 7429
L25001 7410
L24982 7391
" />
<path d="M25601 7429
L25376 7429
" />
<path d="M25488 7429
L25488 7035
L25451 7091
L25413 7129
L25376 7147
" />
<text x="21494.3" y="7447.83"
textLength="1220.38" font-size="524.934" lengthAdjust="spacingAndGlyphs"
text-anchor="start" opacity="0">D25</text>
<path d="M21626 7429
L21626 7035
L21720 7035
L21776 7054
L21813 7091
L21832 7129
L21851 7204
L21851 7260
L21832 7335
L21813 7372
L21776 7410
L21720 7429
L21626 7429
" />
<path d="M22001 7072
L22020 7054
L22057 7035
L22151 7035
L22188 7054
L22207 7072
L22226 7110
L22226 7147
L22207 7204
L21982 7429
L22226 7429
" />
<path d="M22582 7035
L22395 7035
L22376 7222
L22395 7204
L22432 7185
L22526 7185
L22563 7204
L22582 7222
L22601 7260
L22601 7354
L22582 7391
L22563 7410
L22526 7429
L22432 7429
L22395 7410
L22376 7391
" />
<text x="18494.3" y="7447.83"
textLength="1220.38" font-size="524.934" lengthAdjust="spacingAndGlyphs"
text-anchor="start" opacity="0">D19</text>
<path d="M18626 7429
L18626 7035
L18720 7035
L18776 7054
L18813 7091
L18832 7129
L18851 7204
L18851 7260
L18832 7335
L18813 7372
L18776 7410
L18720 7429
L18626 7429
" />
<path d="M19226 7429
L19001 7429
" />
<path d="M19113 7429
L19113 7035
L19076 7091
L19038 7129
L19001 7147
" />
<path d="M19413 7429
L19488 7429
L19526 7410
L19545 7391
L19582 7335
L19601 7260
L19601 7110
L19582 7072
L19563 7054
L19526 7035
L19451 7035
L19413 7054
L19395 7072
L19376 7110
L19376 7204
L19395 7241
L19413 7260
L19451 7279
L19526 7279
L19563 7260
L19582 7241
L19601 7204
" />
<text x="15494.3" y="7447.83"
textLength="1220.38" font-size="524.934" lengthAdjust="spacingAndGlyphs"
text-anchor="start" opacity="0">D13</text>
<path d="M15626 7429
L15626 7035
L15720 7035
L15776 7054
L15813 7091
L15832 7129
L15851 7204
L15851 7260
L15832 7335
L15813 7372
L15776 7410
L15720 7429
L15626 7429
" />
<path d="M16226 7429
L16001 7429
" />
<path d="M16113 7429
L16113 7035
L16076 7091
L16038 7129
L16001 7147
" />
<path d="M16357 7035
L16601 7035
L16470 7185
L16526 7185
L16563 7204
L16582 7222
L16601 7260
L16601 7354
L16582 7391
L16563 7410
L16526 7429
L16413 7429
L16376 7410
L16357 7391
" />
<text x="12494.3" y="7447.83"
textLength="845.426" font-size="524.934" lengthAdjust="spacingAndGlyphs"
text-anchor="start" opacity="0">D7</text>
<path d="M12626 7429
L12626 7035
L12720 7035
L12776 7054
L12813 7091
L12832 7129
L12851 7204
L12851 7260
L12832 7335
L12813 7372
L12776 7410
L12720 7429
L12626 7429
" />
<path d="M12982 7035
L13245 7035
L13076 7429
" />
<text x="9494.28" y="7447.83"
textLength="845.426" font-size="524.934" lengthAdjust="spacingAndGlyphs"
text-anchor="start" opacity="0">D1</text>
<path d="M9626 7429
L9626 7035
L9720 7035
L9776 7054
L9813 7091
L9832 7129
L9851 7204
L9851 7260
L9832 7335
L9813 7372
L9776 7410
L9720 7429
L9626 7429
" />
<path d="M10226 7429
L10001 7429
" />
<path d="M10113 7429
L10113 7035
L10076 7091
L10038 7129
L10001 7147
" />
<g >
</g>
</g>
<g style="fill:#000000; fill-opacity:0.0; 
stroke:#000000; stroke-width:59.0551; stroke-opacity:1; 
stroke-linecap:round; stroke-linejoin:round;">
</g>
<g style="fill:#C2C200; fill-opacity:0.0; 
stroke:#C2C200; stroke-width:59.0551; stroke-opacity:1; 
stroke-linecap:round; stroke-linejoin:round;">
</g>
<g style="fill:#C2C200; fill-opacity:0.0; 
stroke:#C2C200; stroke-width:39.3701; stroke-opacity:1; 
stroke-linecap:round; stroke-linejoin:round;">
<path d="M4744 24810
L30744 24810
" />
<path d="M30744 24810
L30744 2810
" />
<path d="M30744 2810
L4744 2810
" />
<path d="M4744 2810
L4744 24810
" />
<g >
</g>
<g >
</g>
<g >
</g>
<g >
</g>
<g >
</g>
<g >
</g>
<g >
</g>
<g >
</g>
<g >
</g>
<g >
</g>
<g >
</g>
<g >
</g>
<g >
</g>
<g >
</g>
<g >
</g>
<g >
</g>
<g >
</g>
<g >
</g>
<g >
</g>
<g >
</g>
<g >
</g>
<g >
</g>
<g >
</g>
<g >
</g>
<g >
</g>
<g >
</g>
<g >
</g>
<g >
</g>
<g >
</g>
<g >
</g>
<g >
</g>
<g >
</g>
<g >
</g>
<g >
</g>
<g >
</g>
<g >
</g>
<g >
</g>
<g >
</g>
<g >
</g>
<g >
</g>
<g >
</g>
<g >
</g>
<g >
</g>
<g >
</g>
<g >
</g>
<g >
</g>
<g >
</g>
<g >
</g>
<g >
</g>
<g >
</g>
<g >
</g>
<g >
</g>
<g >
</g>
</g> 
</svg>
