G04 #@! TF.GenerationSoftware,KiCad,Pcbnew,(5.99.0-126-g64b5e8bee)*
G04 #@! TF.CreationDate,2019-09-15T22:15:17-04:00*
G04 #@! TF.ProjectId,PCB,5043422e-6b69-4636-9164-5f7063625858,rev?*
G04 #@! TF.SameCoordinates,Original*
G04 #@! TF.FileFunction,Legend,Top*
G04 #@! TF.FilePolarity,Positive*
%FSLAX46Y46*%
G04 Gerber Fmt 4.6, Leading zero omitted, Abs format (unit mm)*
G04 Created by KiCad (PCBNEW (5.99.0-126-g64b5e8bee)) date 2019-09-15 22:15:17*
%MOMM*%
%LPD*%
G04 APERTURE LIST*
%ADD10C,0.450000*%
%ADD11C,0.120000*%
%ADD12C,0.150000*%
%ADD13C,0.100000*%
G04 APERTURE END LIST*
D10*
X216180000Y-64571428D02*
X216037142Y-64714285D01*
X215608571Y-64857142D01*
X215322857Y-64857142D01*
X214894285Y-64714285D01*
X214608571Y-64428571D01*
X214465714Y-64142857D01*
X214322857Y-63571428D01*
X214322857Y-63142857D01*
X214465714Y-62571428D01*
X214608571Y-62285714D01*
X214894285Y-62000000D01*
X215322857Y-61857142D01*
X215608571Y-61857142D01*
X216037142Y-62000000D01*
X216180000Y-62142857D01*
X217894285Y-64857142D02*
X217608571Y-64714285D01*
X217465714Y-64571428D01*
X217322857Y-64285714D01*
X217322857Y-63428571D01*
X217465714Y-63142857D01*
X217608571Y-63000000D01*
X217894285Y-62857142D01*
X218322857Y-62857142D01*
X218608571Y-63000000D01*
X218751428Y-63142857D01*
X218894285Y-63428571D01*
X218894285Y-64285714D01*
X218751428Y-64571428D01*
X218608571Y-64714285D01*
X218322857Y-64857142D01*
X217894285Y-64857142D01*
X220180000Y-62857142D02*
X220180000Y-64857142D01*
X220180000Y-63142857D02*
X220322857Y-63000000D01*
X220608571Y-62857142D01*
X221037142Y-62857142D01*
X221322857Y-63000000D01*
X221465714Y-63285714D01*
X221465714Y-64857142D01*
X222894285Y-62857142D02*
X222894285Y-64857142D01*
X222894285Y-63142857D02*
X223037142Y-63000000D01*
X223322857Y-62857142D01*
X223751428Y-62857142D01*
X224037142Y-63000000D01*
X224180000Y-63285714D01*
X224180000Y-64857142D01*
X226751428Y-64714285D02*
X226465714Y-64857142D01*
X225894285Y-64857142D01*
X225608571Y-64714285D01*
X225465714Y-64428571D01*
X225465714Y-63285714D01*
X225608571Y-63000000D01*
X225894285Y-62857142D01*
X226465714Y-62857142D01*
X226751428Y-63000000D01*
X226894285Y-63285714D01*
X226894285Y-63571428D01*
X225465714Y-63857142D01*
X229465714Y-64714285D02*
X229180000Y-64857142D01*
X228608571Y-64857142D01*
X228322857Y-64714285D01*
X228180000Y-64571428D01*
X228037142Y-64285714D01*
X228037142Y-63428571D01*
X228180000Y-63142857D01*
X228322857Y-63000000D01*
X228608571Y-62857142D01*
X229180000Y-62857142D01*
X229465714Y-63000000D01*
X230322857Y-62857142D02*
X231465714Y-62857142D01*
X230751428Y-61857142D02*
X230751428Y-64428571D01*
X230894285Y-64714285D01*
X231180000Y-64857142D01*
X231465714Y-64857142D01*
X232465714Y-63714285D02*
X234751428Y-63714285D01*
X237465714Y-62857142D02*
X237465714Y-64857142D01*
X236751428Y-61714285D02*
X236037142Y-63857142D01*
X237894285Y-63857142D01*
X242322857Y-63285714D02*
X242751428Y-63428571D01*
X242894285Y-63571428D01*
X243037142Y-63857142D01*
X243037142Y-64285714D01*
X242894285Y-64571428D01*
X242751428Y-64714285D01*
X242465714Y-64857142D01*
X241322857Y-64857142D01*
X241322857Y-61857142D01*
X242322857Y-61857142D01*
X242608571Y-62000000D01*
X242751428Y-62142857D01*
X242894285Y-62428571D01*
X242894285Y-62714285D01*
X242751428Y-63000000D01*
X242608571Y-63142857D01*
X242322857Y-63285714D01*
X241322857Y-63285714D01*
X244751428Y-64857142D02*
X244465714Y-64714285D01*
X244322857Y-64571428D01*
X244180000Y-64285714D01*
X244180000Y-63428571D01*
X244322857Y-63142857D01*
X244465714Y-63000000D01*
X244751428Y-62857142D01*
X245180000Y-62857142D01*
X245465714Y-63000000D01*
X245608571Y-63142857D01*
X245751428Y-63428571D01*
X245751428Y-64285714D01*
X245608571Y-64571428D01*
X245465714Y-64714285D01*
X245180000Y-64857142D01*
X244751428Y-64857142D01*
X248322857Y-64857142D02*
X248322857Y-63285714D01*
X248180000Y-63000000D01*
X247894285Y-62857142D01*
X247322857Y-62857142D01*
X247037142Y-63000000D01*
X248322857Y-64714285D02*
X248037142Y-64857142D01*
X247322857Y-64857142D01*
X247037142Y-64714285D01*
X246894285Y-64428571D01*
X246894285Y-64142857D01*
X247037142Y-63857142D01*
X247322857Y-63714285D01*
X248037142Y-63714285D01*
X248322857Y-63571428D01*
X249751428Y-64857142D02*
X249751428Y-62857142D01*
X249751428Y-63428571D02*
X249894285Y-63142857D01*
X250037142Y-63000000D01*
X250322857Y-62857142D01*
X250608571Y-62857142D01*
X252894285Y-64857142D02*
X252894285Y-61857142D01*
X252894285Y-64714285D02*
X252608571Y-64857142D01*
X252037142Y-64857142D01*
X251751428Y-64714285D01*
X251608571Y-64571428D01*
X251465714Y-64285714D01*
X251465714Y-63428571D01*
X251608571Y-63142857D01*
X251751428Y-63000000D01*
X252037142Y-62857142D01*
X252608571Y-62857142D01*
X252894285Y-63000000D01*
D11*
X231454000Y-47558000D02*
X231454000Y-44898000D01*
X221234000Y-47558000D02*
X231454000Y-47558000D01*
X221234000Y-44898000D02*
X231454000Y-44898000D01*
X221234000Y-47558000D02*
X221234000Y-44898000D01*
X219964000Y-47558000D02*
X218634000Y-47558000D01*
X218634000Y-47558000D02*
X218634000Y-46228000D01*
X223834000Y-47946000D02*
X223834000Y-49276000D01*
X222504000Y-47946000D02*
X223834000Y-47946000D01*
X221234000Y-47946000D02*
X221234000Y-50606000D01*
X221234000Y-50606000D02*
X218634000Y-50606000D01*
X221234000Y-47946000D02*
X218634000Y-47946000D01*
X218634000Y-47946000D02*
X218634000Y-50606000D01*
X235300000Y-50008000D02*
X235300000Y-48668000D01*
X236250000Y-50008000D02*
X235300000Y-50008000D01*
X236250000Y-50958000D02*
X236250000Y-50008000D01*
X236250000Y-60228000D02*
X235300000Y-60228000D01*
X236250000Y-59278000D02*
X236250000Y-60228000D01*
X226030000Y-50008000D02*
X226980000Y-50008000D01*
X226030000Y-50958000D02*
X226030000Y-50008000D01*
X226030000Y-60228000D02*
X226980000Y-60228000D01*
X226030000Y-59278000D02*
X226030000Y-60228000D01*
X209382000Y-49332000D02*
X209382000Y-49452000D01*
X209382000Y-47182000D02*
X209382000Y-48322000D01*
X209382000Y-46052000D02*
X209382000Y-46172000D01*
X213782000Y-46052000D02*
X209382000Y-46052000D01*
X213782000Y-46172000D02*
X213782000Y-46052000D01*
X213782000Y-48322000D02*
X213782000Y-47182000D01*
X213782000Y-49452000D02*
X213782000Y-49332000D01*
X209382000Y-49452000D02*
X213782000Y-49452000D01*
X252794000Y-51455000D02*
X253259000Y-51455000D01*
X250169000Y-51455000D02*
X250634000Y-51455000D01*
X252794429Y-46640521D02*
G75*
G02X252794000Y-51149684I-1080429J-2254479D01*
G01*
X250633571Y-46640521D02*
G75*
G03X250634000Y-51149684I1080429J-2254479D01*
G01*
X252794827Y-46107185D02*
G75*
G02X253258830Y-51455000I-1080827J-2787815D01*
G01*
X250633173Y-46107185D02*
G75*
G03X250169170Y-51455000I1080827J-2787815D01*
G01*
X211843252Y-51764000D02*
X211320748Y-51764000D01*
X211843252Y-50344000D02*
X211320748Y-50344000D01*
X243078000Y-60473000D02*
X245463000Y-60473000D01*
X245463000Y-60473000D02*
X245463000Y-60218000D01*
X243078000Y-60473000D02*
X240693000Y-60473000D01*
X240693000Y-60473000D02*
X240693000Y-60218000D01*
X243078000Y-49953000D02*
X245463000Y-49953000D01*
X245463000Y-49953000D02*
X245463000Y-50208000D01*
X243078000Y-49953000D02*
X240693000Y-49953000D01*
X240693000Y-49953000D02*
X240693000Y-50208000D01*
X240693000Y-50208000D02*
X239028000Y-50208000D01*
X213849000Y-53304000D02*
X213849000Y-59314000D01*
X207029000Y-55554000D02*
X207029000Y-59314000D01*
X213849000Y-59314000D02*
X212589000Y-59314000D01*
X207029000Y-59314000D02*
X208289000Y-59314000D01*
X248500000Y-54975000D02*
X248500000Y-59475000D01*
X252500000Y-53725000D02*
X251000000Y-53725000D01*
X255000000Y-59475000D02*
X255000000Y-54975000D01*
X251000000Y-60725000D02*
X252500000Y-60725000D01*
X256755000Y-54975000D02*
X256755000Y-59475000D01*
X260755000Y-53725000D02*
X259255000Y-53725000D01*
X263255000Y-59475000D02*
X263255000Y-54975000D01*
X259255000Y-60725000D02*
X260755000Y-60725000D01*
X259150000Y-72025000D02*
X259150000Y-67525000D01*
X255150000Y-73275000D02*
X256650000Y-73275000D01*
X252650000Y-67525000D02*
X252650000Y-72025000D01*
X256650000Y-66275000D02*
X255150000Y-66275000D01*
X251530000Y-72025000D02*
X251530000Y-67525000D01*
X247530000Y-73275000D02*
X249030000Y-73275000D01*
X245030000Y-67525000D02*
X245030000Y-72025000D01*
X249030000Y-66275000D02*
X247530000Y-66275000D01*
X243910000Y-72025000D02*
X243910000Y-67525000D01*
X239910000Y-73275000D02*
X241410000Y-73275000D01*
X237410000Y-67525000D02*
X237410000Y-72025000D01*
X241410000Y-66275000D02*
X239910000Y-66275000D01*
X236290000Y-72025000D02*
X236290000Y-67525000D01*
X232290000Y-73275000D02*
X233790000Y-73275000D01*
X229790000Y-67525000D02*
X229790000Y-72025000D01*
X233790000Y-66275000D02*
X232290000Y-66275000D01*
X228670000Y-72025000D02*
X228670000Y-67525000D01*
X224670000Y-73275000D02*
X226170000Y-73275000D01*
X222170000Y-67525000D02*
X222170000Y-72025000D01*
X226170000Y-66275000D02*
X224670000Y-66275000D01*
X221050000Y-72025000D02*
X221050000Y-67525000D01*
X217050000Y-73275000D02*
X218550000Y-73275000D01*
X214550000Y-67525000D02*
X214550000Y-72025000D01*
X218550000Y-66275000D02*
X217050000Y-66275000D01*
X213430000Y-72025000D02*
X213430000Y-67525000D01*
X209430000Y-73275000D02*
X210930000Y-73275000D01*
X206930000Y-67525000D02*
X206930000Y-72025000D01*
X210930000Y-66275000D02*
X209430000Y-66275000D01*
X243959748Y-45772000D02*
X244482252Y-45772000D01*
X243959748Y-47192000D02*
X244482252Y-47192000D01*
X239006748Y-46788000D02*
X239529252Y-46788000D01*
X239006748Y-48208000D02*
X239529252Y-48208000D01*
X243959748Y-47804000D02*
X244482252Y-47804000D01*
X243959748Y-49224000D02*
X244482252Y-49224000D01*
X257735000Y-77208748D02*
X257735000Y-77731252D01*
X259155000Y-77208748D02*
X259155000Y-77731252D01*
X255195000Y-77208748D02*
X255195000Y-77731252D01*
X256615000Y-77208748D02*
X256615000Y-77731252D01*
X252655000Y-77208748D02*
X252655000Y-77731252D01*
X254075000Y-77208748D02*
X254075000Y-77731252D01*
X250115000Y-77208748D02*
X250115000Y-77731252D01*
X251535000Y-77208748D02*
X251535000Y-77731252D01*
X247575000Y-77208748D02*
X247575000Y-77731252D01*
X248995000Y-77208748D02*
X248995000Y-77731252D01*
X245035000Y-77208748D02*
X245035000Y-77731252D01*
X246455000Y-77208748D02*
X246455000Y-77731252D01*
X242495000Y-77208748D02*
X242495000Y-77731252D01*
X243915000Y-77208748D02*
X243915000Y-77731252D01*
X239955000Y-77208748D02*
X239955000Y-77731252D01*
X241375000Y-77208748D02*
X241375000Y-77731252D01*
X237415000Y-77208748D02*
X237415000Y-77731252D01*
X238835000Y-77208748D02*
X238835000Y-77731252D01*
X234875000Y-77208748D02*
X234875000Y-77731252D01*
X236295000Y-77208748D02*
X236295000Y-77731252D01*
X232335000Y-77208748D02*
X232335000Y-77731252D01*
X233755000Y-77208748D02*
X233755000Y-77731252D01*
X229795000Y-77208748D02*
X229795000Y-77731252D01*
X231215000Y-77208748D02*
X231215000Y-77731252D01*
X227255000Y-77208748D02*
X227255000Y-77731252D01*
X228675000Y-77208748D02*
X228675000Y-77731252D01*
X224715000Y-77208748D02*
X224715000Y-77731252D01*
X226135000Y-77208748D02*
X226135000Y-77731252D01*
X222175000Y-77208748D02*
X222175000Y-77731252D01*
X223595000Y-77208748D02*
X223595000Y-77731252D01*
X219635000Y-77208748D02*
X219635000Y-77731252D01*
X221055000Y-77208748D02*
X221055000Y-77731252D01*
X217095000Y-77208748D02*
X217095000Y-77731252D01*
X218515000Y-77208748D02*
X218515000Y-77731252D01*
X214555000Y-77208748D02*
X214555000Y-77731252D01*
X215975000Y-77208748D02*
X215975000Y-77731252D01*
X212015000Y-77208748D02*
X212015000Y-77731252D01*
X213435000Y-77208748D02*
X213435000Y-77731252D01*
X209475000Y-77208748D02*
X209475000Y-77731252D01*
X210895000Y-77208748D02*
X210895000Y-77731252D01*
X206935000Y-77208748D02*
X206935000Y-77731252D01*
X208355000Y-77208748D02*
X208355000Y-77731252D01*
X205037000Y-60960000D02*
X205037000Y-60580000D01*
X200987000Y-60960000D02*
X200727000Y-60960000D01*
X205037000Y-60960000D02*
X203267000Y-60960000D01*
X205037000Y-53340000D02*
X205037000Y-53720000D01*
X203267000Y-53340000D02*
X205037000Y-53340000D01*
X200727000Y-53340000D02*
X200987000Y-53340000D01*
X253345000Y-123000000D02*
X253345000Y-123465000D01*
X253345000Y-120375000D02*
X253345000Y-120840000D01*
X258159479Y-123000429D02*
G75*
G02X253650316Y-123000000I-2254479J1080429D01*
G01*
X258159479Y-120839571D02*
G75*
G03X253650316Y-120840000I-2254479J-1080429D01*
G01*
X258692815Y-123000827D02*
G75*
G02X253345000Y-123464830I-2787815J1080827D01*
G01*
X258692815Y-120839173D02*
G75*
G03X253345000Y-120375170I-2787815J-1080827D01*
G01*
X245725000Y-123000000D02*
X245725000Y-123465000D01*
X245725000Y-120375000D02*
X245725000Y-120840000D01*
X250539479Y-123000429D02*
G75*
G02X246030316Y-123000000I-2254479J1080429D01*
G01*
X250539479Y-120839571D02*
G75*
G03X246030316Y-120840000I-2254479J-1080429D01*
G01*
X251072815Y-123000827D02*
G75*
G02X245725000Y-123464830I-2787815J1080827D01*
G01*
X251072815Y-120839173D02*
G75*
G03X245725000Y-120375170I-2787815J-1080827D01*
G01*
X238105000Y-123000000D02*
X238105000Y-123465000D01*
X238105000Y-120375000D02*
X238105000Y-120840000D01*
X242919479Y-123000429D02*
G75*
G02X238410316Y-123000000I-2254479J1080429D01*
G01*
X242919479Y-120839571D02*
G75*
G03X238410316Y-120840000I-2254479J-1080429D01*
G01*
X243452815Y-123000827D02*
G75*
G02X238105000Y-123464830I-2787815J1080827D01*
G01*
X243452815Y-120839173D02*
G75*
G03X238105000Y-120375170I-2787815J-1080827D01*
G01*
X230485000Y-123000000D02*
X230485000Y-123465000D01*
X230485000Y-120375000D02*
X230485000Y-120840000D01*
X235299479Y-123000429D02*
G75*
G02X230790316Y-123000000I-2254479J1080429D01*
G01*
X235299479Y-120839571D02*
G75*
G03X230790316Y-120840000I-2254479J-1080429D01*
G01*
X235832815Y-123000827D02*
G75*
G02X230485000Y-123464830I-2787815J1080827D01*
G01*
X235832815Y-120839173D02*
G75*
G03X230485000Y-120375170I-2787815J-1080827D01*
G01*
X222865000Y-123000000D02*
X222865000Y-123465000D01*
X222865000Y-120375000D02*
X222865000Y-120840000D01*
X227679479Y-123000429D02*
G75*
G02X223170316Y-123000000I-2254479J1080429D01*
G01*
X227679479Y-120839571D02*
G75*
G03X223170316Y-120840000I-2254479J-1080429D01*
G01*
X228212815Y-123000827D02*
G75*
G02X222865000Y-123464830I-2787815J1080827D01*
G01*
X228212815Y-120839173D02*
G75*
G03X222865000Y-120375170I-2787815J-1080827D01*
G01*
X215245000Y-123000000D02*
X215245000Y-123465000D01*
X215245000Y-120375000D02*
X215245000Y-120840000D01*
X220059479Y-123000429D02*
G75*
G02X215550316Y-123000000I-2254479J1080429D01*
G01*
X220059479Y-120839571D02*
G75*
G03X215550316Y-120840000I-2254479J-1080429D01*
G01*
X220592815Y-123000827D02*
G75*
G02X215245000Y-123464830I-2787815J1080827D01*
G01*
X220592815Y-120839173D02*
G75*
G03X215245000Y-120375170I-2787815J-1080827D01*
G01*
X207625000Y-123000000D02*
X207625000Y-123465000D01*
X207625000Y-120375000D02*
X207625000Y-120840000D01*
X212439479Y-123000429D02*
G75*
G02X207930316Y-123000000I-2254479J1080429D01*
G01*
X212439479Y-120839571D02*
G75*
G03X207930316Y-120840000I-2254479J-1080429D01*
G01*
X212972815Y-123000827D02*
G75*
G02X207625000Y-123464830I-2787815J1080827D01*
G01*
X212972815Y-120839173D02*
G75*
G03X207625000Y-120375170I-2787815J-1080827D01*
G01*
X253345000Y-115380000D02*
X253345000Y-115845000D01*
X253345000Y-112755000D02*
X253345000Y-113220000D01*
X258159479Y-115380429D02*
G75*
G02X253650316Y-115380000I-2254479J1080429D01*
G01*
X258159479Y-113219571D02*
G75*
G03X253650316Y-113220000I-2254479J-1080429D01*
G01*
X258692815Y-115380827D02*
G75*
G02X253345000Y-115844830I-2787815J1080827D01*
G01*
X258692815Y-113219173D02*
G75*
G03X253345000Y-112755170I-2787815J-1080827D01*
G01*
X245725000Y-115380000D02*
X245725000Y-115845000D01*
X245725000Y-112755000D02*
X245725000Y-113220000D01*
X250539479Y-115380429D02*
G75*
G02X246030316Y-115380000I-2254479J1080429D01*
G01*
X250539479Y-113219571D02*
G75*
G03X246030316Y-113220000I-2254479J-1080429D01*
G01*
X251072815Y-115380827D02*
G75*
G02X245725000Y-115844830I-2787815J1080827D01*
G01*
X251072815Y-113219173D02*
G75*
G03X245725000Y-112755170I-2787815J-1080827D01*
G01*
X238105000Y-115380000D02*
X238105000Y-115845000D01*
X238105000Y-112755000D02*
X238105000Y-113220000D01*
X242919479Y-115380429D02*
G75*
G02X238410316Y-115380000I-2254479J1080429D01*
G01*
X242919479Y-113219571D02*
G75*
G03X238410316Y-113220000I-2254479J-1080429D01*
G01*
X243452815Y-115380827D02*
G75*
G02X238105000Y-115844830I-2787815J1080827D01*
G01*
X243452815Y-113219173D02*
G75*
G03X238105000Y-112755170I-2787815J-1080827D01*
G01*
X230485000Y-115380000D02*
X230485000Y-115845000D01*
X230485000Y-112755000D02*
X230485000Y-113220000D01*
X235299479Y-115380429D02*
G75*
G02X230790316Y-115380000I-2254479J1080429D01*
G01*
X235299479Y-113219571D02*
G75*
G03X230790316Y-113220000I-2254479J-1080429D01*
G01*
X235832815Y-115380827D02*
G75*
G02X230485000Y-115844830I-2787815J1080827D01*
G01*
X235832815Y-113219173D02*
G75*
G03X230485000Y-112755170I-2787815J-1080827D01*
G01*
X222865000Y-115380000D02*
X222865000Y-115845000D01*
X222865000Y-112755000D02*
X222865000Y-113220000D01*
X227679479Y-115380429D02*
G75*
G02X223170316Y-115380000I-2254479J1080429D01*
G01*
X227679479Y-113219571D02*
G75*
G03X223170316Y-113220000I-2254479J-1080429D01*
G01*
X228212815Y-115380827D02*
G75*
G02X222865000Y-115844830I-2787815J1080827D01*
G01*
X228212815Y-113219173D02*
G75*
G03X222865000Y-112755170I-2787815J-1080827D01*
G01*
X215245000Y-115380000D02*
X215245000Y-115845000D01*
X215245000Y-112755000D02*
X215245000Y-113220000D01*
X220059479Y-115380429D02*
G75*
G02X215550316Y-115380000I-2254479J1080429D01*
G01*
X220059479Y-113219571D02*
G75*
G03X215550316Y-113220000I-2254479J-1080429D01*
G01*
X220592815Y-115380827D02*
G75*
G02X215245000Y-115844830I-2787815J1080827D01*
G01*
X220592815Y-113219173D02*
G75*
G03X215245000Y-112755170I-2787815J-1080827D01*
G01*
X207625000Y-115380000D02*
X207625000Y-115845000D01*
X207625000Y-112755000D02*
X207625000Y-113220000D01*
X212439479Y-115380429D02*
G75*
G02X207930316Y-115380000I-2254479J1080429D01*
G01*
X212439479Y-113219571D02*
G75*
G03X207930316Y-113220000I-2254479J-1080429D01*
G01*
X212972815Y-115380827D02*
G75*
G02X207625000Y-115844830I-2787815J1080827D01*
G01*
X212972815Y-113219173D02*
G75*
G03X207625000Y-112755170I-2787815J-1080827D01*
G01*
X253345000Y-107760000D02*
X253345000Y-108225000D01*
X253345000Y-105135000D02*
X253345000Y-105600000D01*
X258159479Y-107760429D02*
G75*
G02X253650316Y-107760000I-2254479J1080429D01*
G01*
X258159479Y-105599571D02*
G75*
G03X253650316Y-105600000I-2254479J-1080429D01*
G01*
X258692815Y-107760827D02*
G75*
G02X253345000Y-108224830I-2787815J1080827D01*
G01*
X258692815Y-105599173D02*
G75*
G03X253345000Y-105135170I-2787815J-1080827D01*
G01*
X245725000Y-107760000D02*
X245725000Y-108225000D01*
X245725000Y-105135000D02*
X245725000Y-105600000D01*
X250539479Y-107760429D02*
G75*
G02X246030316Y-107760000I-2254479J1080429D01*
G01*
X250539479Y-105599571D02*
G75*
G03X246030316Y-105600000I-2254479J-1080429D01*
G01*
X251072815Y-107760827D02*
G75*
G02X245725000Y-108224830I-2787815J1080827D01*
G01*
X251072815Y-105599173D02*
G75*
G03X245725000Y-105135170I-2787815J-1080827D01*
G01*
X238105000Y-107760000D02*
X238105000Y-108225000D01*
X238105000Y-105135000D02*
X238105000Y-105600000D01*
X242919479Y-107760429D02*
G75*
G02X238410316Y-107760000I-2254479J1080429D01*
G01*
X242919479Y-105599571D02*
G75*
G03X238410316Y-105600000I-2254479J-1080429D01*
G01*
X243452815Y-107760827D02*
G75*
G02X238105000Y-108224830I-2787815J1080827D01*
G01*
X243452815Y-105599173D02*
G75*
G03X238105000Y-105135170I-2787815J-1080827D01*
G01*
X230485000Y-107760000D02*
X230485000Y-108225000D01*
X230485000Y-105135000D02*
X230485000Y-105600000D01*
X235299479Y-107760429D02*
G75*
G02X230790316Y-107760000I-2254479J1080429D01*
G01*
X235299479Y-105599571D02*
G75*
G03X230790316Y-105600000I-2254479J-1080429D01*
G01*
X235832815Y-107760827D02*
G75*
G02X230485000Y-108224830I-2787815J1080827D01*
G01*
X235832815Y-105599173D02*
G75*
G03X230485000Y-105135170I-2787815J-1080827D01*
G01*
X222865000Y-107760000D02*
X222865000Y-108225000D01*
X222865000Y-105135000D02*
X222865000Y-105600000D01*
X227679479Y-107760429D02*
G75*
G02X223170316Y-107760000I-2254479J1080429D01*
G01*
X227679479Y-105599571D02*
G75*
G03X223170316Y-105600000I-2254479J-1080429D01*
G01*
X228212815Y-107760827D02*
G75*
G02X222865000Y-108224830I-2787815J1080827D01*
G01*
X228212815Y-105599173D02*
G75*
G03X222865000Y-105135170I-2787815J-1080827D01*
G01*
X215245000Y-107760000D02*
X215245000Y-108225000D01*
X215245000Y-105135000D02*
X215245000Y-105600000D01*
X220059479Y-107760429D02*
G75*
G02X215550316Y-107760000I-2254479J1080429D01*
G01*
X220059479Y-105599571D02*
G75*
G03X215550316Y-105600000I-2254479J-1080429D01*
G01*
X220592815Y-107760827D02*
G75*
G02X215245000Y-108224830I-2787815J1080827D01*
G01*
X220592815Y-105599173D02*
G75*
G03X215245000Y-105135170I-2787815J-1080827D01*
G01*
X207625000Y-107760000D02*
X207625000Y-108225000D01*
X207625000Y-105135000D02*
X207625000Y-105600000D01*
X212439479Y-107760429D02*
G75*
G02X207930316Y-107760000I-2254479J1080429D01*
G01*
X212439479Y-105599571D02*
G75*
G03X207930316Y-105600000I-2254479J-1080429D01*
G01*
X212972815Y-107760827D02*
G75*
G02X207625000Y-108224830I-2787815J1080827D01*
G01*
X212972815Y-105599173D02*
G75*
G03X207625000Y-105135170I-2787815J-1080827D01*
G01*
X253345000Y-100140000D02*
X253345000Y-100605000D01*
X253345000Y-97515000D02*
X253345000Y-97980000D01*
X258159479Y-100140429D02*
G75*
G02X253650316Y-100140000I-2254479J1080429D01*
G01*
X258159479Y-97979571D02*
G75*
G03X253650316Y-97980000I-2254479J-1080429D01*
G01*
X258692815Y-100140827D02*
G75*
G02X253345000Y-100604830I-2787815J1080827D01*
G01*
X258692815Y-97979173D02*
G75*
G03X253345000Y-97515170I-2787815J-1080827D01*
G01*
X245725000Y-100140000D02*
X245725000Y-100605000D01*
X245725000Y-97515000D02*
X245725000Y-97980000D01*
X250539479Y-100140429D02*
G75*
G02X246030316Y-100140000I-2254479J1080429D01*
G01*
X250539479Y-97979571D02*
G75*
G03X246030316Y-97980000I-2254479J-1080429D01*
G01*
X251072815Y-100140827D02*
G75*
G02X245725000Y-100604830I-2787815J1080827D01*
G01*
X251072815Y-97979173D02*
G75*
G03X245725000Y-97515170I-2787815J-1080827D01*
G01*
X238105000Y-100140000D02*
X238105000Y-100605000D01*
X238105000Y-97515000D02*
X238105000Y-97980000D01*
X242919479Y-100140429D02*
G75*
G02X238410316Y-100140000I-2254479J1080429D01*
G01*
X242919479Y-97979571D02*
G75*
G03X238410316Y-97980000I-2254479J-1080429D01*
G01*
X243452815Y-100140827D02*
G75*
G02X238105000Y-100604830I-2787815J1080827D01*
G01*
X243452815Y-97979173D02*
G75*
G03X238105000Y-97515170I-2787815J-1080827D01*
G01*
X230485000Y-100140000D02*
X230485000Y-100605000D01*
X230485000Y-97515000D02*
X230485000Y-97980000D01*
X235299479Y-100140429D02*
G75*
G02X230790316Y-100140000I-2254479J1080429D01*
G01*
X235299479Y-97979571D02*
G75*
G03X230790316Y-97980000I-2254479J-1080429D01*
G01*
X235832815Y-100140827D02*
G75*
G02X230485000Y-100604830I-2787815J1080827D01*
G01*
X235832815Y-97979173D02*
G75*
G03X230485000Y-97515170I-2787815J-1080827D01*
G01*
X222865000Y-100140000D02*
X222865000Y-100605000D01*
X222865000Y-97515000D02*
X222865000Y-97980000D01*
X227679479Y-100140429D02*
G75*
G02X223170316Y-100140000I-2254479J1080429D01*
G01*
X227679479Y-97979571D02*
G75*
G03X223170316Y-97980000I-2254479J-1080429D01*
G01*
X228212815Y-100140827D02*
G75*
G02X222865000Y-100604830I-2787815J1080827D01*
G01*
X228212815Y-97979173D02*
G75*
G03X222865000Y-97515170I-2787815J-1080827D01*
G01*
X215245000Y-100140000D02*
X215245000Y-100605000D01*
X215245000Y-97515000D02*
X215245000Y-97980000D01*
X220059479Y-100140429D02*
G75*
G02X215550316Y-100140000I-2254479J1080429D01*
G01*
X220059479Y-97979571D02*
G75*
G03X215550316Y-97980000I-2254479J-1080429D01*
G01*
X220592815Y-100140827D02*
G75*
G02X215245000Y-100604830I-2787815J1080827D01*
G01*
X220592815Y-97979173D02*
G75*
G03X215245000Y-97515170I-2787815J-1080827D01*
G01*
X207625000Y-100140000D02*
X207625000Y-100605000D01*
X207625000Y-97515000D02*
X207625000Y-97980000D01*
X212439479Y-100140429D02*
G75*
G02X207930316Y-100140000I-2254479J1080429D01*
G01*
X212439479Y-97979571D02*
G75*
G03X207930316Y-97980000I-2254479J-1080429D01*
G01*
X212972815Y-100140827D02*
G75*
G02X207625000Y-100604830I-2787815J1080827D01*
G01*
X212972815Y-97979173D02*
G75*
G03X207625000Y-97515170I-2787815J-1080827D01*
G01*
X253345000Y-92520000D02*
X253345000Y-92985000D01*
X253345000Y-89895000D02*
X253345000Y-90360000D01*
X258159479Y-92520429D02*
G75*
G02X253650316Y-92520000I-2254479J1080429D01*
G01*
X258159479Y-90359571D02*
G75*
G03X253650316Y-90360000I-2254479J-1080429D01*
G01*
X258692815Y-92520827D02*
G75*
G02X253345000Y-92984830I-2787815J1080827D01*
G01*
X258692815Y-90359173D02*
G75*
G03X253345000Y-89895170I-2787815J-1080827D01*
G01*
X245725000Y-92520000D02*
X245725000Y-92985000D01*
X245725000Y-89895000D02*
X245725000Y-90360000D01*
X250539479Y-92520429D02*
G75*
G02X246030316Y-92520000I-2254479J1080429D01*
G01*
X250539479Y-90359571D02*
G75*
G03X246030316Y-90360000I-2254479J-1080429D01*
G01*
X251072815Y-92520827D02*
G75*
G02X245725000Y-92984830I-2787815J1080827D01*
G01*
X251072815Y-90359173D02*
G75*
G03X245725000Y-89895170I-2787815J-1080827D01*
G01*
X238105000Y-92520000D02*
X238105000Y-92985000D01*
X238105000Y-89895000D02*
X238105000Y-90360000D01*
X242919479Y-92520429D02*
G75*
G02X238410316Y-92520000I-2254479J1080429D01*
G01*
X242919479Y-90359571D02*
G75*
G03X238410316Y-90360000I-2254479J-1080429D01*
G01*
X243452815Y-92520827D02*
G75*
G02X238105000Y-92984830I-2787815J1080827D01*
G01*
X243452815Y-90359173D02*
G75*
G03X238105000Y-89895170I-2787815J-1080827D01*
G01*
X230485000Y-92520000D02*
X230485000Y-92985000D01*
X230485000Y-89895000D02*
X230485000Y-90360000D01*
X235299479Y-92520429D02*
G75*
G02X230790316Y-92520000I-2254479J1080429D01*
G01*
X235299479Y-90359571D02*
G75*
G03X230790316Y-90360000I-2254479J-1080429D01*
G01*
X235832815Y-92520827D02*
G75*
G02X230485000Y-92984830I-2787815J1080827D01*
G01*
X235832815Y-90359173D02*
G75*
G03X230485000Y-89895170I-2787815J-1080827D01*
G01*
X222865000Y-92520000D02*
X222865000Y-92985000D01*
X222865000Y-89895000D02*
X222865000Y-90360000D01*
X227679479Y-92520429D02*
G75*
G02X223170316Y-92520000I-2254479J1080429D01*
G01*
X227679479Y-90359571D02*
G75*
G03X223170316Y-90360000I-2254479J-1080429D01*
G01*
X228212815Y-92520827D02*
G75*
G02X222865000Y-92984830I-2787815J1080827D01*
G01*
X228212815Y-90359173D02*
G75*
G03X222865000Y-89895170I-2787815J-1080827D01*
G01*
X215245000Y-92520000D02*
X215245000Y-92985000D01*
X215245000Y-89895000D02*
X215245000Y-90360000D01*
X220059479Y-92520429D02*
G75*
G02X215550316Y-92520000I-2254479J1080429D01*
G01*
X220059479Y-90359571D02*
G75*
G03X215550316Y-90360000I-2254479J-1080429D01*
G01*
X220592815Y-92520827D02*
G75*
G02X215245000Y-92984830I-2787815J1080827D01*
G01*
X220592815Y-90359173D02*
G75*
G03X215245000Y-89895170I-2787815J-1080827D01*
G01*
X207625000Y-92520000D02*
X207625000Y-92985000D01*
X207625000Y-89895000D02*
X207625000Y-90360000D01*
X212439479Y-92520429D02*
G75*
G02X207930316Y-92520000I-2254479J1080429D01*
G01*
X212439479Y-90359571D02*
G75*
G03X207930316Y-90360000I-2254479J-1080429D01*
G01*
X212972815Y-92520827D02*
G75*
G02X207625000Y-92984830I-2787815J1080827D01*
G01*
X212972815Y-90359173D02*
G75*
G03X207625000Y-89895170I-2787815J-1080827D01*
G01*
X253345000Y-84900000D02*
X253345000Y-85365000D01*
X253345000Y-82275000D02*
X253345000Y-82740000D01*
X258159479Y-84900429D02*
G75*
G02X253650316Y-84900000I-2254479J1080429D01*
G01*
X258159479Y-82739571D02*
G75*
G03X253650316Y-82740000I-2254479J-1080429D01*
G01*
X258692815Y-84900827D02*
G75*
G02X253345000Y-85364830I-2787815J1080827D01*
G01*
X258692815Y-82739173D02*
G75*
G03X253345000Y-82275170I-2787815J-1080827D01*
G01*
X245725000Y-84900000D02*
X245725000Y-85365000D01*
X245725000Y-82275000D02*
X245725000Y-82740000D01*
X250539479Y-84900429D02*
G75*
G02X246030316Y-84900000I-2254479J1080429D01*
G01*
X250539479Y-82739571D02*
G75*
G03X246030316Y-82740000I-2254479J-1080429D01*
G01*
X251072815Y-84900827D02*
G75*
G02X245725000Y-85364830I-2787815J1080827D01*
G01*
X251072815Y-82739173D02*
G75*
G03X245725000Y-82275170I-2787815J-1080827D01*
G01*
X238105000Y-84900000D02*
X238105000Y-85365000D01*
X238105000Y-82275000D02*
X238105000Y-82740000D01*
X242919479Y-84900429D02*
G75*
G02X238410316Y-84900000I-2254479J1080429D01*
G01*
X242919479Y-82739571D02*
G75*
G03X238410316Y-82740000I-2254479J-1080429D01*
G01*
X243452815Y-84900827D02*
G75*
G02X238105000Y-85364830I-2787815J1080827D01*
G01*
X243452815Y-82739173D02*
G75*
G03X238105000Y-82275170I-2787815J-1080827D01*
G01*
X230485000Y-84900000D02*
X230485000Y-85365000D01*
X230485000Y-82275000D02*
X230485000Y-82740000D01*
X235299479Y-84900429D02*
G75*
G02X230790316Y-84900000I-2254479J1080429D01*
G01*
X235299479Y-82739571D02*
G75*
G03X230790316Y-82740000I-2254479J-1080429D01*
G01*
X235832815Y-84900827D02*
G75*
G02X230485000Y-85364830I-2787815J1080827D01*
G01*
X235832815Y-82739173D02*
G75*
G03X230485000Y-82275170I-2787815J-1080827D01*
G01*
X222865000Y-84900000D02*
X222865000Y-85365000D01*
X222865000Y-82275000D02*
X222865000Y-82740000D01*
X227679479Y-84900429D02*
G75*
G02X223170316Y-84900000I-2254479J1080429D01*
G01*
X227679479Y-82739571D02*
G75*
G03X223170316Y-82740000I-2254479J-1080429D01*
G01*
X228212815Y-84900827D02*
G75*
G02X222865000Y-85364830I-2787815J1080827D01*
G01*
X228212815Y-82739173D02*
G75*
G03X222865000Y-82275170I-2787815J-1080827D01*
G01*
X215245000Y-84900000D02*
X215245000Y-85365000D01*
X215245000Y-82275000D02*
X215245000Y-82740000D01*
X220059479Y-84900429D02*
G75*
G02X215550316Y-84900000I-2254479J1080429D01*
G01*
X220059479Y-82739571D02*
G75*
G03X215550316Y-82740000I-2254479J-1080429D01*
G01*
X220592815Y-84900827D02*
G75*
G02X215245000Y-85364830I-2787815J1080827D01*
G01*
X220592815Y-82739173D02*
G75*
G03X215245000Y-82275170I-2787815J-1080827D01*
G01*
X207625000Y-84900000D02*
X207625000Y-85365000D01*
X207625000Y-82275000D02*
X207625000Y-82740000D01*
X212439479Y-84900429D02*
G75*
G02X207930316Y-84900000I-2254479J1080429D01*
G01*
X212439479Y-82739571D02*
G75*
G03X207930316Y-82740000I-2254479J-1080429D01*
G01*
X212972815Y-84900827D02*
G75*
G02X207625000Y-85364830I-2787815J1080827D01*
G01*
X212972815Y-82739173D02*
G75*
G03X207625000Y-82275170I-2787815J-1080827D01*
G01*
X206890252Y-62663000D02*
X206367748Y-62663000D01*
X206890252Y-64083000D02*
X206367748Y-64083000D01*
D12*
X217086380Y-46561333D02*
X217800666Y-46561333D01*
X217943523Y-46608952D01*
X218038761Y-46704190D01*
X218086380Y-46847047D01*
X218086380Y-46942285D01*
X218086380Y-45561333D02*
X218086380Y-46132761D01*
X218086380Y-45847047D02*
X217086380Y-45847047D01*
X217229238Y-45942285D01*
X217324476Y-46037523D01*
X217372095Y-46132761D01*
X224286380Y-49609333D02*
X225000666Y-49609333D01*
X225143523Y-49656952D01*
X225238761Y-49752190D01*
X225286380Y-49895047D01*
X225286380Y-49990285D01*
X224286380Y-49228380D02*
X224286380Y-48609333D01*
X224667333Y-48942666D01*
X224667333Y-48799809D01*
X224714952Y-48704571D01*
X224762571Y-48656952D01*
X224857809Y-48609333D01*
X225095904Y-48609333D01*
X225191142Y-48656952D01*
X225238761Y-48704571D01*
X225286380Y-48799809D01*
X225286380Y-49085523D01*
X225238761Y-49180761D01*
X225191142Y-49228380D01*
X230378095Y-54570380D02*
X230378095Y-55379904D01*
X230425714Y-55475142D01*
X230473333Y-55522761D01*
X230568571Y-55570380D01*
X230759047Y-55570380D01*
X230854285Y-55522761D01*
X230901904Y-55475142D01*
X230949523Y-55379904D01*
X230949523Y-54570380D01*
X231330476Y-54570380D02*
X231949523Y-54570380D01*
X231616190Y-54951333D01*
X231759047Y-54951333D01*
X231854285Y-54998952D01*
X231901904Y-55046571D01*
X231949523Y-55141809D01*
X231949523Y-55379904D01*
X231901904Y-55475142D01*
X231854285Y-55522761D01*
X231759047Y-55570380D01*
X231473333Y-55570380D01*
X231378095Y-55522761D01*
X231330476Y-55475142D01*
X210375666Y-48156761D02*
X210518523Y-48204380D01*
X210756619Y-48204380D01*
X210851857Y-48156761D01*
X210899476Y-48109142D01*
X210947095Y-48013904D01*
X210947095Y-47918666D01*
X210899476Y-47823428D01*
X210851857Y-47775809D01*
X210756619Y-47728190D01*
X210566142Y-47680571D01*
X210470904Y-47632952D01*
X210423285Y-47585333D01*
X210375666Y-47490095D01*
X210375666Y-47394857D01*
X210423285Y-47299619D01*
X210470904Y-47252000D01*
X210566142Y-47204380D01*
X210804238Y-47204380D01*
X210947095Y-47252000D01*
X211280428Y-47204380D02*
X211518523Y-48204380D01*
X211709000Y-47490095D01*
X211899476Y-48204380D01*
X212137571Y-47204380D01*
X213042333Y-48204380D02*
X212470904Y-48204380D01*
X212756619Y-48204380D02*
X212756619Y-47204380D01*
X212661380Y-47347238D01*
X212566142Y-47442476D01*
X212470904Y-47490095D01*
X254182714Y-51887380D02*
X254182714Y-50887380D01*
X254420809Y-50887380D01*
X254563666Y-50935000D01*
X254658904Y-51030238D01*
X254706523Y-51125476D01*
X254754142Y-51315952D01*
X254754142Y-51458809D01*
X254706523Y-51649285D01*
X254658904Y-51744523D01*
X254563666Y-51839761D01*
X254420809Y-51887380D01*
X254182714Y-51887380D01*
X255611285Y-51220714D02*
X255611285Y-51887380D01*
X255373190Y-50839761D02*
X255135095Y-51554047D01*
X255754142Y-51554047D01*
X256039857Y-50887380D02*
X256658904Y-50887380D01*
X256325571Y-51268333D01*
X256468428Y-51268333D01*
X256563666Y-51315952D01*
X256611285Y-51363571D01*
X256658904Y-51458809D01*
X256658904Y-51696904D01*
X256611285Y-51792142D01*
X256563666Y-51839761D01*
X256468428Y-51887380D01*
X256182714Y-51887380D01*
X256087476Y-51839761D01*
X256039857Y-51792142D01*
D13*
X213997000Y-51393285D02*
X213747000Y-51036142D01*
X213568428Y-51393285D02*
X213568428Y-50643285D01*
X213854142Y-50643285D01*
X213925571Y-50679000D01*
X213961285Y-50714714D01*
X213997000Y-50786142D01*
X213997000Y-50893285D01*
X213961285Y-50964714D01*
X213925571Y-51000428D01*
X213854142Y-51036142D01*
X213568428Y-51036142D01*
X214711285Y-51393285D02*
X214282714Y-51393285D01*
X214497000Y-51393285D02*
X214497000Y-50643285D01*
X214425571Y-50750428D01*
X214354142Y-50821857D01*
X214282714Y-50857571D01*
D12*
X243586095Y-50379380D02*
X243586095Y-51188904D01*
X243633714Y-51284142D01*
X243681333Y-51331761D01*
X243776571Y-51379380D01*
X243967047Y-51379380D01*
X244062285Y-51331761D01*
X244109904Y-51284142D01*
X244157523Y-51188904D01*
X244157523Y-50379380D01*
X244586095Y-50474619D02*
X244633714Y-50427000D01*
X244728952Y-50379380D01*
X244967047Y-50379380D01*
X245062285Y-50427000D01*
X245109904Y-50474619D01*
X245157523Y-50569857D01*
X245157523Y-50665095D01*
X245109904Y-50807952D01*
X244538476Y-51379380D01*
X245157523Y-51379380D01*
X207391095Y-57872380D02*
X207391095Y-58681904D01*
X207438714Y-58777142D01*
X207486333Y-58824761D01*
X207581571Y-58872380D01*
X207772047Y-58872380D01*
X207867285Y-58824761D01*
X207914904Y-58777142D01*
X207962523Y-58681904D01*
X207962523Y-57872380D01*
X208962523Y-58872380D02*
X208391095Y-58872380D01*
X208676809Y-58872380D02*
X208676809Y-57872380D01*
X208581571Y-58015238D01*
X208486333Y-58110476D01*
X208391095Y-58158095D01*
X250031476Y-57808761D02*
X250174333Y-57856380D01*
X250412428Y-57856380D01*
X250507666Y-57808761D01*
X250555285Y-57761142D01*
X250602904Y-57665904D01*
X250602904Y-57570666D01*
X250555285Y-57475428D01*
X250507666Y-57427809D01*
X250412428Y-57380190D01*
X250221952Y-57332571D01*
X250126714Y-57284952D01*
X250079095Y-57237333D01*
X250031476Y-57142095D01*
X250031476Y-57046857D01*
X250079095Y-56951619D01*
X250126714Y-56904000D01*
X250221952Y-56856380D01*
X250460047Y-56856380D01*
X250602904Y-56904000D01*
X250936238Y-56856380D02*
X251174333Y-57856380D01*
X251364809Y-57142095D01*
X251555285Y-57856380D01*
X251793380Y-56856380D01*
X252698142Y-57856380D02*
X252126714Y-57856380D01*
X252412428Y-57856380D02*
X252412428Y-56856380D01*
X252317190Y-56999238D01*
X252221952Y-57094476D01*
X252126714Y-57142095D01*
X253317190Y-56856380D02*
X253412428Y-56856380D01*
X253507666Y-56904000D01*
X253555285Y-56951619D01*
X253602904Y-57046857D01*
X253650523Y-57237333D01*
X253650523Y-57475428D01*
X253602904Y-57665904D01*
X253555285Y-57761142D01*
X253507666Y-57808761D01*
X253412428Y-57856380D01*
X253317190Y-57856380D01*
X253221952Y-57808761D01*
X253174333Y-57761142D01*
X253126714Y-57665904D01*
X253079095Y-57475428D01*
X253079095Y-57237333D01*
X253126714Y-57046857D01*
X253174333Y-56951619D01*
X253221952Y-56904000D01*
X253317190Y-56856380D01*
X258635666Y-57808761D02*
X258778523Y-57856380D01*
X259016619Y-57856380D01*
X259111857Y-57808761D01*
X259159476Y-57761142D01*
X259207095Y-57665904D01*
X259207095Y-57570666D01*
X259159476Y-57475428D01*
X259111857Y-57427809D01*
X259016619Y-57380190D01*
X258826142Y-57332571D01*
X258730904Y-57284952D01*
X258683285Y-57237333D01*
X258635666Y-57142095D01*
X258635666Y-57046857D01*
X258683285Y-56951619D01*
X258730904Y-56904000D01*
X258826142Y-56856380D01*
X259064238Y-56856380D01*
X259207095Y-56904000D01*
X259540428Y-56856380D02*
X259778523Y-57856380D01*
X259969000Y-57142095D01*
X260159476Y-57856380D01*
X260397571Y-56856380D01*
X260826142Y-57856380D02*
X261016619Y-57856380D01*
X261111857Y-57808761D01*
X261159476Y-57761142D01*
X261254714Y-57618285D01*
X261302333Y-57427809D01*
X261302333Y-57046857D01*
X261254714Y-56951619D01*
X261207095Y-56904000D01*
X261111857Y-56856380D01*
X260921380Y-56856380D01*
X260826142Y-56904000D01*
X260778523Y-56951619D01*
X260730904Y-57046857D01*
X260730904Y-57284952D01*
X260778523Y-57380190D01*
X260826142Y-57427809D01*
X260921380Y-57475428D01*
X261111857Y-57475428D01*
X261207095Y-57427809D01*
X261254714Y-57380190D01*
X261302333Y-57284952D01*
X254571666Y-70179761D02*
X254714523Y-70227380D01*
X254952619Y-70227380D01*
X255047857Y-70179761D01*
X255095476Y-70132142D01*
X255143095Y-70036904D01*
X255143095Y-69941666D01*
X255095476Y-69846428D01*
X255047857Y-69798809D01*
X254952619Y-69751190D01*
X254762142Y-69703571D01*
X254666904Y-69655952D01*
X254619285Y-69608333D01*
X254571666Y-69513095D01*
X254571666Y-69417857D01*
X254619285Y-69322619D01*
X254666904Y-69275000D01*
X254762142Y-69227380D01*
X255000238Y-69227380D01*
X255143095Y-69275000D01*
X255476428Y-69227380D02*
X255714523Y-70227380D01*
X255905000Y-69513095D01*
X256095476Y-70227380D01*
X256333571Y-69227380D01*
X256857380Y-69655952D02*
X256762142Y-69608333D01*
X256714523Y-69560714D01*
X256666904Y-69465476D01*
X256666904Y-69417857D01*
X256714523Y-69322619D01*
X256762142Y-69275000D01*
X256857380Y-69227380D01*
X257047857Y-69227380D01*
X257143095Y-69275000D01*
X257190714Y-69322619D01*
X257238333Y-69417857D01*
X257238333Y-69465476D01*
X257190714Y-69560714D01*
X257143095Y-69608333D01*
X257047857Y-69655952D01*
X256857380Y-69655952D01*
X256762142Y-69703571D01*
X256714523Y-69751190D01*
X256666904Y-69846428D01*
X256666904Y-70036904D01*
X256714523Y-70132142D01*
X256762142Y-70179761D01*
X256857380Y-70227380D01*
X257047857Y-70227380D01*
X257143095Y-70179761D01*
X257190714Y-70132142D01*
X257238333Y-70036904D01*
X257238333Y-69846428D01*
X257190714Y-69751190D01*
X257143095Y-69703571D01*
X257047857Y-69655952D01*
X246951666Y-70179761D02*
X247094523Y-70227380D01*
X247332619Y-70227380D01*
X247427857Y-70179761D01*
X247475476Y-70132142D01*
X247523095Y-70036904D01*
X247523095Y-69941666D01*
X247475476Y-69846428D01*
X247427857Y-69798809D01*
X247332619Y-69751190D01*
X247142142Y-69703571D01*
X247046904Y-69655952D01*
X246999285Y-69608333D01*
X246951666Y-69513095D01*
X246951666Y-69417857D01*
X246999285Y-69322619D01*
X247046904Y-69275000D01*
X247142142Y-69227380D01*
X247380238Y-69227380D01*
X247523095Y-69275000D01*
X247856428Y-69227380D02*
X248094523Y-70227380D01*
X248285000Y-69513095D01*
X248475476Y-70227380D01*
X248713571Y-69227380D01*
X248999285Y-69227380D02*
X249665952Y-69227380D01*
X249237380Y-70227380D01*
X239331666Y-70179761D02*
X239474523Y-70227380D01*
X239712619Y-70227380D01*
X239807857Y-70179761D01*
X239855476Y-70132142D01*
X239903095Y-70036904D01*
X239903095Y-69941666D01*
X239855476Y-69846428D01*
X239807857Y-69798809D01*
X239712619Y-69751190D01*
X239522142Y-69703571D01*
X239426904Y-69655952D01*
X239379285Y-69608333D01*
X239331666Y-69513095D01*
X239331666Y-69417857D01*
X239379285Y-69322619D01*
X239426904Y-69275000D01*
X239522142Y-69227380D01*
X239760238Y-69227380D01*
X239903095Y-69275000D01*
X240236428Y-69227380D02*
X240474523Y-70227380D01*
X240665000Y-69513095D01*
X240855476Y-70227380D01*
X241093571Y-69227380D01*
X241903095Y-69227380D02*
X241712619Y-69227380D01*
X241617380Y-69275000D01*
X241569761Y-69322619D01*
X241474523Y-69465476D01*
X241426904Y-69655952D01*
X241426904Y-70036904D01*
X241474523Y-70132142D01*
X241522142Y-70179761D01*
X241617380Y-70227380D01*
X241807857Y-70227380D01*
X241903095Y-70179761D01*
X241950714Y-70132142D01*
X241998333Y-70036904D01*
X241998333Y-69798809D01*
X241950714Y-69703571D01*
X241903095Y-69655952D01*
X241807857Y-69608333D01*
X241617380Y-69608333D01*
X241522142Y-69655952D01*
X241474523Y-69703571D01*
X241426904Y-69798809D01*
X231711666Y-70179761D02*
X231854523Y-70227380D01*
X232092619Y-70227380D01*
X232187857Y-70179761D01*
X232235476Y-70132142D01*
X232283095Y-70036904D01*
X232283095Y-69941666D01*
X232235476Y-69846428D01*
X232187857Y-69798809D01*
X232092619Y-69751190D01*
X231902142Y-69703571D01*
X231806904Y-69655952D01*
X231759285Y-69608333D01*
X231711666Y-69513095D01*
X231711666Y-69417857D01*
X231759285Y-69322619D01*
X231806904Y-69275000D01*
X231902142Y-69227380D01*
X232140238Y-69227380D01*
X232283095Y-69275000D01*
X232616428Y-69227380D02*
X232854523Y-70227380D01*
X233045000Y-69513095D01*
X233235476Y-70227380D01*
X233473571Y-69227380D01*
X234330714Y-69227380D02*
X233854523Y-69227380D01*
X233806904Y-69703571D01*
X233854523Y-69655952D01*
X233949761Y-69608333D01*
X234187857Y-69608333D01*
X234283095Y-69655952D01*
X234330714Y-69703571D01*
X234378333Y-69798809D01*
X234378333Y-70036904D01*
X234330714Y-70132142D01*
X234283095Y-70179761D01*
X234187857Y-70227380D01*
X233949761Y-70227380D01*
X233854523Y-70179761D01*
X233806904Y-70132142D01*
X224091666Y-70179761D02*
X224234523Y-70227380D01*
X224472619Y-70227380D01*
X224567857Y-70179761D01*
X224615476Y-70132142D01*
X224663095Y-70036904D01*
X224663095Y-69941666D01*
X224615476Y-69846428D01*
X224567857Y-69798809D01*
X224472619Y-69751190D01*
X224282142Y-69703571D01*
X224186904Y-69655952D01*
X224139285Y-69608333D01*
X224091666Y-69513095D01*
X224091666Y-69417857D01*
X224139285Y-69322619D01*
X224186904Y-69275000D01*
X224282142Y-69227380D01*
X224520238Y-69227380D01*
X224663095Y-69275000D01*
X224996428Y-69227380D02*
X225234523Y-70227380D01*
X225425000Y-69513095D01*
X225615476Y-70227380D01*
X225853571Y-69227380D01*
X226663095Y-69560714D02*
X226663095Y-70227380D01*
X226425000Y-69179761D02*
X226186904Y-69894047D01*
X226805952Y-69894047D01*
X216471666Y-70179761D02*
X216614523Y-70227380D01*
X216852619Y-70227380D01*
X216947857Y-70179761D01*
X216995476Y-70132142D01*
X217043095Y-70036904D01*
X217043095Y-69941666D01*
X216995476Y-69846428D01*
X216947857Y-69798809D01*
X216852619Y-69751190D01*
X216662142Y-69703571D01*
X216566904Y-69655952D01*
X216519285Y-69608333D01*
X216471666Y-69513095D01*
X216471666Y-69417857D01*
X216519285Y-69322619D01*
X216566904Y-69275000D01*
X216662142Y-69227380D01*
X216900238Y-69227380D01*
X217043095Y-69275000D01*
X217376428Y-69227380D02*
X217614523Y-70227380D01*
X217805000Y-69513095D01*
X217995476Y-70227380D01*
X218233571Y-69227380D01*
X218519285Y-69227380D02*
X219138333Y-69227380D01*
X218805000Y-69608333D01*
X218947857Y-69608333D01*
X219043095Y-69655952D01*
X219090714Y-69703571D01*
X219138333Y-69798809D01*
X219138333Y-70036904D01*
X219090714Y-70132142D01*
X219043095Y-70179761D01*
X218947857Y-70227380D01*
X218662142Y-70227380D01*
X218566904Y-70179761D01*
X218519285Y-70132142D01*
X208851666Y-70179761D02*
X208994523Y-70227380D01*
X209232619Y-70227380D01*
X209327857Y-70179761D01*
X209375476Y-70132142D01*
X209423095Y-70036904D01*
X209423095Y-69941666D01*
X209375476Y-69846428D01*
X209327857Y-69798809D01*
X209232619Y-69751190D01*
X209042142Y-69703571D01*
X208946904Y-69655952D01*
X208899285Y-69608333D01*
X208851666Y-69513095D01*
X208851666Y-69417857D01*
X208899285Y-69322619D01*
X208946904Y-69275000D01*
X209042142Y-69227380D01*
X209280238Y-69227380D01*
X209423095Y-69275000D01*
X209756428Y-69227380D02*
X209994523Y-70227380D01*
X210185000Y-69513095D01*
X210375476Y-70227380D01*
X210613571Y-69227380D01*
X210946904Y-69322619D02*
X210994523Y-69275000D01*
X211089761Y-69227380D01*
X211327857Y-69227380D01*
X211423095Y-69275000D01*
X211470714Y-69322619D01*
X211518333Y-69417857D01*
X211518333Y-69513095D01*
X211470714Y-69655952D01*
X210899285Y-70227380D01*
X211518333Y-70227380D01*
D13*
X246659857Y-46821285D02*
X246409857Y-46464142D01*
X246231285Y-46821285D02*
X246231285Y-46071285D01*
X246517000Y-46071285D01*
X246588428Y-46107000D01*
X246624142Y-46142714D01*
X246659857Y-46214142D01*
X246659857Y-46321285D01*
X246624142Y-46392714D01*
X246588428Y-46428428D01*
X246517000Y-46464142D01*
X246231285Y-46464142D01*
X246945571Y-46142714D02*
X246981285Y-46107000D01*
X247052714Y-46071285D01*
X247231285Y-46071285D01*
X247302714Y-46107000D01*
X247338428Y-46142714D01*
X247374142Y-46214142D01*
X247374142Y-46285571D01*
X247338428Y-46392714D01*
X246909857Y-46821285D01*
X247374142Y-46821285D01*
X248052714Y-46071285D02*
X247695571Y-46071285D01*
X247659857Y-46428428D01*
X247695571Y-46392714D01*
X247767000Y-46357000D01*
X247945571Y-46357000D01*
X248017000Y-46392714D01*
X248052714Y-46428428D01*
X248088428Y-46499857D01*
X248088428Y-46678428D01*
X248052714Y-46749857D01*
X248017000Y-46785571D01*
X247945571Y-46821285D01*
X247767000Y-46821285D01*
X247695571Y-46785571D01*
X247659857Y-46749857D01*
X238785857Y-49234285D02*
X238535857Y-48877142D01*
X238357285Y-49234285D02*
X238357285Y-48484285D01*
X238643000Y-48484285D01*
X238714428Y-48520000D01*
X238750142Y-48555714D01*
X238785857Y-48627142D01*
X238785857Y-48734285D01*
X238750142Y-48805714D01*
X238714428Y-48841428D01*
X238643000Y-48877142D01*
X238357285Y-48877142D01*
X239071571Y-48555714D02*
X239107285Y-48520000D01*
X239178714Y-48484285D01*
X239357285Y-48484285D01*
X239428714Y-48520000D01*
X239464428Y-48555714D01*
X239500142Y-48627142D01*
X239500142Y-48698571D01*
X239464428Y-48805714D01*
X239035857Y-49234285D01*
X239500142Y-49234285D01*
X240143000Y-48734285D02*
X240143000Y-49234285D01*
X239964428Y-48448571D02*
X239785857Y-48984285D01*
X240250142Y-48984285D01*
X246659857Y-48853285D02*
X246409857Y-48496142D01*
X246231285Y-48853285D02*
X246231285Y-48103285D01*
X246517000Y-48103285D01*
X246588428Y-48139000D01*
X246624142Y-48174714D01*
X246659857Y-48246142D01*
X246659857Y-48353285D01*
X246624142Y-48424714D01*
X246588428Y-48460428D01*
X246517000Y-48496142D01*
X246231285Y-48496142D01*
X246945571Y-48174714D02*
X246981285Y-48139000D01*
X247052714Y-48103285D01*
X247231285Y-48103285D01*
X247302714Y-48139000D01*
X247338428Y-48174714D01*
X247374142Y-48246142D01*
X247374142Y-48317571D01*
X247338428Y-48424714D01*
X246909857Y-48853285D01*
X247374142Y-48853285D01*
X247624142Y-48103285D02*
X248088428Y-48103285D01*
X247838428Y-48389000D01*
X247945571Y-48389000D01*
X248017000Y-48424714D01*
X248052714Y-48460428D01*
X248088428Y-48531857D01*
X248088428Y-48710428D01*
X248052714Y-48781857D01*
X248017000Y-48817571D01*
X247945571Y-48853285D01*
X247731285Y-48853285D01*
X247659857Y-48817571D01*
X247624142Y-48781857D01*
X257962857Y-80349285D02*
X257712857Y-79992142D01*
X257534285Y-80349285D02*
X257534285Y-79599285D01*
X257820000Y-79599285D01*
X257891428Y-79635000D01*
X257927142Y-79670714D01*
X257962857Y-79742142D01*
X257962857Y-79849285D01*
X257927142Y-79920714D01*
X257891428Y-79956428D01*
X257820000Y-79992142D01*
X257534285Y-79992142D01*
X258248571Y-79670714D02*
X258284285Y-79635000D01*
X258355714Y-79599285D01*
X258534285Y-79599285D01*
X258605714Y-79635000D01*
X258641428Y-79670714D01*
X258677142Y-79742142D01*
X258677142Y-79813571D01*
X258641428Y-79920714D01*
X258212857Y-80349285D01*
X258677142Y-80349285D01*
X258962857Y-79670714D02*
X258998571Y-79635000D01*
X259070000Y-79599285D01*
X259248571Y-79599285D01*
X259320000Y-79635000D01*
X259355714Y-79670714D01*
X259391428Y-79742142D01*
X259391428Y-79813571D01*
X259355714Y-79920714D01*
X258927142Y-80349285D01*
X259391428Y-80349285D01*
X255422857Y-80349285D02*
X255172857Y-79992142D01*
X254994285Y-80349285D02*
X254994285Y-79599285D01*
X255280000Y-79599285D01*
X255351428Y-79635000D01*
X255387142Y-79670714D01*
X255422857Y-79742142D01*
X255422857Y-79849285D01*
X255387142Y-79920714D01*
X255351428Y-79956428D01*
X255280000Y-79992142D01*
X254994285Y-79992142D01*
X255708571Y-79670714D02*
X255744285Y-79635000D01*
X255815714Y-79599285D01*
X255994285Y-79599285D01*
X256065714Y-79635000D01*
X256101428Y-79670714D01*
X256137142Y-79742142D01*
X256137142Y-79813571D01*
X256101428Y-79920714D01*
X255672857Y-80349285D01*
X256137142Y-80349285D01*
X256851428Y-80349285D02*
X256422857Y-80349285D01*
X256637142Y-80349285D02*
X256637142Y-79599285D01*
X256565714Y-79706428D01*
X256494285Y-79777857D01*
X256422857Y-79813571D01*
X252882857Y-80349285D02*
X252632857Y-79992142D01*
X252454285Y-80349285D02*
X252454285Y-79599285D01*
X252740000Y-79599285D01*
X252811428Y-79635000D01*
X252847142Y-79670714D01*
X252882857Y-79742142D01*
X252882857Y-79849285D01*
X252847142Y-79920714D01*
X252811428Y-79956428D01*
X252740000Y-79992142D01*
X252454285Y-79992142D01*
X253168571Y-79670714D02*
X253204285Y-79635000D01*
X253275714Y-79599285D01*
X253454285Y-79599285D01*
X253525714Y-79635000D01*
X253561428Y-79670714D01*
X253597142Y-79742142D01*
X253597142Y-79813571D01*
X253561428Y-79920714D01*
X253132857Y-80349285D01*
X253597142Y-80349285D01*
X254061428Y-79599285D02*
X254132857Y-79599285D01*
X254204285Y-79635000D01*
X254240000Y-79670714D01*
X254275714Y-79742142D01*
X254311428Y-79885000D01*
X254311428Y-80063571D01*
X254275714Y-80206428D01*
X254240000Y-80277857D01*
X254204285Y-80313571D01*
X254132857Y-80349285D01*
X254061428Y-80349285D01*
X253990000Y-80313571D01*
X253954285Y-80277857D01*
X253918571Y-80206428D01*
X253882857Y-80063571D01*
X253882857Y-79885000D01*
X253918571Y-79742142D01*
X253954285Y-79670714D01*
X253990000Y-79635000D01*
X254061428Y-79599285D01*
X250342857Y-80349285D02*
X250092857Y-79992142D01*
X249914285Y-80349285D02*
X249914285Y-79599285D01*
X250200000Y-79599285D01*
X250271428Y-79635000D01*
X250307142Y-79670714D01*
X250342857Y-79742142D01*
X250342857Y-79849285D01*
X250307142Y-79920714D01*
X250271428Y-79956428D01*
X250200000Y-79992142D01*
X249914285Y-79992142D01*
X251057142Y-80349285D02*
X250628571Y-80349285D01*
X250842857Y-80349285D02*
X250842857Y-79599285D01*
X250771428Y-79706428D01*
X250700000Y-79777857D01*
X250628571Y-79813571D01*
X251414285Y-80349285D02*
X251557142Y-80349285D01*
X251628571Y-80313571D01*
X251664285Y-80277857D01*
X251735714Y-80170714D01*
X251771428Y-80027857D01*
X251771428Y-79742142D01*
X251735714Y-79670714D01*
X251700000Y-79635000D01*
X251628571Y-79599285D01*
X251485714Y-79599285D01*
X251414285Y-79635000D01*
X251378571Y-79670714D01*
X251342857Y-79742142D01*
X251342857Y-79920714D01*
X251378571Y-79992142D01*
X251414285Y-80027857D01*
X251485714Y-80063571D01*
X251628571Y-80063571D01*
X251700000Y-80027857D01*
X251735714Y-79992142D01*
X251771428Y-79920714D01*
X247802857Y-80349285D02*
X247552857Y-79992142D01*
X247374285Y-80349285D02*
X247374285Y-79599285D01*
X247660000Y-79599285D01*
X247731428Y-79635000D01*
X247767142Y-79670714D01*
X247802857Y-79742142D01*
X247802857Y-79849285D01*
X247767142Y-79920714D01*
X247731428Y-79956428D01*
X247660000Y-79992142D01*
X247374285Y-79992142D01*
X248517142Y-80349285D02*
X248088571Y-80349285D01*
X248302857Y-80349285D02*
X248302857Y-79599285D01*
X248231428Y-79706428D01*
X248160000Y-79777857D01*
X248088571Y-79813571D01*
X248945714Y-79920714D02*
X248874285Y-79885000D01*
X248838571Y-79849285D01*
X248802857Y-79777857D01*
X248802857Y-79742142D01*
X248838571Y-79670714D01*
X248874285Y-79635000D01*
X248945714Y-79599285D01*
X249088571Y-79599285D01*
X249160000Y-79635000D01*
X249195714Y-79670714D01*
X249231428Y-79742142D01*
X249231428Y-79777857D01*
X249195714Y-79849285D01*
X249160000Y-79885000D01*
X249088571Y-79920714D01*
X248945714Y-79920714D01*
X248874285Y-79956428D01*
X248838571Y-79992142D01*
X248802857Y-80063571D01*
X248802857Y-80206428D01*
X248838571Y-80277857D01*
X248874285Y-80313571D01*
X248945714Y-80349285D01*
X249088571Y-80349285D01*
X249160000Y-80313571D01*
X249195714Y-80277857D01*
X249231428Y-80206428D01*
X249231428Y-80063571D01*
X249195714Y-79992142D01*
X249160000Y-79956428D01*
X249088571Y-79920714D01*
X245262857Y-80349285D02*
X245012857Y-79992142D01*
X244834285Y-80349285D02*
X244834285Y-79599285D01*
X245120000Y-79599285D01*
X245191428Y-79635000D01*
X245227142Y-79670714D01*
X245262857Y-79742142D01*
X245262857Y-79849285D01*
X245227142Y-79920714D01*
X245191428Y-79956428D01*
X245120000Y-79992142D01*
X244834285Y-79992142D01*
X245977142Y-80349285D02*
X245548571Y-80349285D01*
X245762857Y-80349285D02*
X245762857Y-79599285D01*
X245691428Y-79706428D01*
X245620000Y-79777857D01*
X245548571Y-79813571D01*
X246227142Y-79599285D02*
X246727142Y-79599285D01*
X246405714Y-80349285D01*
X242722857Y-80349285D02*
X242472857Y-79992142D01*
X242294285Y-80349285D02*
X242294285Y-79599285D01*
X242580000Y-79599285D01*
X242651428Y-79635000D01*
X242687142Y-79670714D01*
X242722857Y-79742142D01*
X242722857Y-79849285D01*
X242687142Y-79920714D01*
X242651428Y-79956428D01*
X242580000Y-79992142D01*
X242294285Y-79992142D01*
X243437142Y-80349285D02*
X243008571Y-80349285D01*
X243222857Y-80349285D02*
X243222857Y-79599285D01*
X243151428Y-79706428D01*
X243080000Y-79777857D01*
X243008571Y-79813571D01*
X244080000Y-79599285D02*
X243937142Y-79599285D01*
X243865714Y-79635000D01*
X243830000Y-79670714D01*
X243758571Y-79777857D01*
X243722857Y-79920714D01*
X243722857Y-80206428D01*
X243758571Y-80277857D01*
X243794285Y-80313571D01*
X243865714Y-80349285D01*
X244008571Y-80349285D01*
X244080000Y-80313571D01*
X244115714Y-80277857D01*
X244151428Y-80206428D01*
X244151428Y-80027857D01*
X244115714Y-79956428D01*
X244080000Y-79920714D01*
X244008571Y-79885000D01*
X243865714Y-79885000D01*
X243794285Y-79920714D01*
X243758571Y-79956428D01*
X243722857Y-80027857D01*
X240182857Y-80349285D02*
X239932857Y-79992142D01*
X239754285Y-80349285D02*
X239754285Y-79599285D01*
X240040000Y-79599285D01*
X240111428Y-79635000D01*
X240147142Y-79670714D01*
X240182857Y-79742142D01*
X240182857Y-79849285D01*
X240147142Y-79920714D01*
X240111428Y-79956428D01*
X240040000Y-79992142D01*
X239754285Y-79992142D01*
X240897142Y-80349285D02*
X240468571Y-80349285D01*
X240682857Y-80349285D02*
X240682857Y-79599285D01*
X240611428Y-79706428D01*
X240540000Y-79777857D01*
X240468571Y-79813571D01*
X241575714Y-79599285D02*
X241218571Y-79599285D01*
X241182857Y-79956428D01*
X241218571Y-79920714D01*
X241290000Y-79885000D01*
X241468571Y-79885000D01*
X241540000Y-79920714D01*
X241575714Y-79956428D01*
X241611428Y-80027857D01*
X241611428Y-80206428D01*
X241575714Y-80277857D01*
X241540000Y-80313571D01*
X241468571Y-80349285D01*
X241290000Y-80349285D01*
X241218571Y-80313571D01*
X241182857Y-80277857D01*
X237642857Y-80349285D02*
X237392857Y-79992142D01*
X237214285Y-80349285D02*
X237214285Y-79599285D01*
X237500000Y-79599285D01*
X237571428Y-79635000D01*
X237607142Y-79670714D01*
X237642857Y-79742142D01*
X237642857Y-79849285D01*
X237607142Y-79920714D01*
X237571428Y-79956428D01*
X237500000Y-79992142D01*
X237214285Y-79992142D01*
X238357142Y-80349285D02*
X237928571Y-80349285D01*
X238142857Y-80349285D02*
X238142857Y-79599285D01*
X238071428Y-79706428D01*
X238000000Y-79777857D01*
X237928571Y-79813571D01*
X239000000Y-79849285D02*
X239000000Y-80349285D01*
X238821428Y-79563571D02*
X238642857Y-80099285D01*
X239107142Y-80099285D01*
X235102857Y-80349285D02*
X234852857Y-79992142D01*
X234674285Y-80349285D02*
X234674285Y-79599285D01*
X234960000Y-79599285D01*
X235031428Y-79635000D01*
X235067142Y-79670714D01*
X235102857Y-79742142D01*
X235102857Y-79849285D01*
X235067142Y-79920714D01*
X235031428Y-79956428D01*
X234960000Y-79992142D01*
X234674285Y-79992142D01*
X235817142Y-80349285D02*
X235388571Y-80349285D01*
X235602857Y-80349285D02*
X235602857Y-79599285D01*
X235531428Y-79706428D01*
X235460000Y-79777857D01*
X235388571Y-79813571D01*
X236067142Y-79599285D02*
X236531428Y-79599285D01*
X236281428Y-79885000D01*
X236388571Y-79885000D01*
X236460000Y-79920714D01*
X236495714Y-79956428D01*
X236531428Y-80027857D01*
X236531428Y-80206428D01*
X236495714Y-80277857D01*
X236460000Y-80313571D01*
X236388571Y-80349285D01*
X236174285Y-80349285D01*
X236102857Y-80313571D01*
X236067142Y-80277857D01*
X232562857Y-80349285D02*
X232312857Y-79992142D01*
X232134285Y-80349285D02*
X232134285Y-79599285D01*
X232420000Y-79599285D01*
X232491428Y-79635000D01*
X232527142Y-79670714D01*
X232562857Y-79742142D01*
X232562857Y-79849285D01*
X232527142Y-79920714D01*
X232491428Y-79956428D01*
X232420000Y-79992142D01*
X232134285Y-79992142D01*
X233277142Y-80349285D02*
X232848571Y-80349285D01*
X233062857Y-80349285D02*
X233062857Y-79599285D01*
X232991428Y-79706428D01*
X232920000Y-79777857D01*
X232848571Y-79813571D01*
X233562857Y-79670714D02*
X233598571Y-79635000D01*
X233670000Y-79599285D01*
X233848571Y-79599285D01*
X233920000Y-79635000D01*
X233955714Y-79670714D01*
X233991428Y-79742142D01*
X233991428Y-79813571D01*
X233955714Y-79920714D01*
X233527142Y-80349285D01*
X233991428Y-80349285D01*
X230022857Y-80349285D02*
X229772857Y-79992142D01*
X229594285Y-80349285D02*
X229594285Y-79599285D01*
X229880000Y-79599285D01*
X229951428Y-79635000D01*
X229987142Y-79670714D01*
X230022857Y-79742142D01*
X230022857Y-79849285D01*
X229987142Y-79920714D01*
X229951428Y-79956428D01*
X229880000Y-79992142D01*
X229594285Y-79992142D01*
X230737142Y-80349285D02*
X230308571Y-80349285D01*
X230522857Y-80349285D02*
X230522857Y-79599285D01*
X230451428Y-79706428D01*
X230380000Y-79777857D01*
X230308571Y-79813571D01*
X231451428Y-80349285D02*
X231022857Y-80349285D01*
X231237142Y-80349285D02*
X231237142Y-79599285D01*
X231165714Y-79706428D01*
X231094285Y-79777857D01*
X231022857Y-79813571D01*
X227482857Y-80349285D02*
X227232857Y-79992142D01*
X227054285Y-80349285D02*
X227054285Y-79599285D01*
X227340000Y-79599285D01*
X227411428Y-79635000D01*
X227447142Y-79670714D01*
X227482857Y-79742142D01*
X227482857Y-79849285D01*
X227447142Y-79920714D01*
X227411428Y-79956428D01*
X227340000Y-79992142D01*
X227054285Y-79992142D01*
X228197142Y-80349285D02*
X227768571Y-80349285D01*
X227982857Y-80349285D02*
X227982857Y-79599285D01*
X227911428Y-79706428D01*
X227840000Y-79777857D01*
X227768571Y-79813571D01*
X228661428Y-79599285D02*
X228732857Y-79599285D01*
X228804285Y-79635000D01*
X228840000Y-79670714D01*
X228875714Y-79742142D01*
X228911428Y-79885000D01*
X228911428Y-80063571D01*
X228875714Y-80206428D01*
X228840000Y-80277857D01*
X228804285Y-80313571D01*
X228732857Y-80349285D01*
X228661428Y-80349285D01*
X228590000Y-80313571D01*
X228554285Y-80277857D01*
X228518571Y-80206428D01*
X228482857Y-80063571D01*
X228482857Y-79885000D01*
X228518571Y-79742142D01*
X228554285Y-79670714D01*
X228590000Y-79635000D01*
X228661428Y-79599285D01*
X225300000Y-80349285D02*
X225050000Y-79992142D01*
X224871428Y-80349285D02*
X224871428Y-79599285D01*
X225157142Y-79599285D01*
X225228571Y-79635000D01*
X225264285Y-79670714D01*
X225300000Y-79742142D01*
X225300000Y-79849285D01*
X225264285Y-79920714D01*
X225228571Y-79956428D01*
X225157142Y-79992142D01*
X224871428Y-79992142D01*
X225657142Y-80349285D02*
X225800000Y-80349285D01*
X225871428Y-80313571D01*
X225907142Y-80277857D01*
X225978571Y-80170714D01*
X226014285Y-80027857D01*
X226014285Y-79742142D01*
X225978571Y-79670714D01*
X225942857Y-79635000D01*
X225871428Y-79599285D01*
X225728571Y-79599285D01*
X225657142Y-79635000D01*
X225621428Y-79670714D01*
X225585714Y-79742142D01*
X225585714Y-79920714D01*
X225621428Y-79992142D01*
X225657142Y-80027857D01*
X225728571Y-80063571D01*
X225871428Y-80063571D01*
X225942857Y-80027857D01*
X225978571Y-79992142D01*
X226014285Y-79920714D01*
X222760000Y-80349285D02*
X222510000Y-79992142D01*
X222331428Y-80349285D02*
X222331428Y-79599285D01*
X222617142Y-79599285D01*
X222688571Y-79635000D01*
X222724285Y-79670714D01*
X222760000Y-79742142D01*
X222760000Y-79849285D01*
X222724285Y-79920714D01*
X222688571Y-79956428D01*
X222617142Y-79992142D01*
X222331428Y-79992142D01*
X223188571Y-79920714D02*
X223117142Y-79885000D01*
X223081428Y-79849285D01*
X223045714Y-79777857D01*
X223045714Y-79742142D01*
X223081428Y-79670714D01*
X223117142Y-79635000D01*
X223188571Y-79599285D01*
X223331428Y-79599285D01*
X223402857Y-79635000D01*
X223438571Y-79670714D01*
X223474285Y-79742142D01*
X223474285Y-79777857D01*
X223438571Y-79849285D01*
X223402857Y-79885000D01*
X223331428Y-79920714D01*
X223188571Y-79920714D01*
X223117142Y-79956428D01*
X223081428Y-79992142D01*
X223045714Y-80063571D01*
X223045714Y-80206428D01*
X223081428Y-80277857D01*
X223117142Y-80313571D01*
X223188571Y-80349285D01*
X223331428Y-80349285D01*
X223402857Y-80313571D01*
X223438571Y-80277857D01*
X223474285Y-80206428D01*
X223474285Y-80063571D01*
X223438571Y-79992142D01*
X223402857Y-79956428D01*
X223331428Y-79920714D01*
X220220000Y-80349285D02*
X219970000Y-79992142D01*
X219791428Y-80349285D02*
X219791428Y-79599285D01*
X220077142Y-79599285D01*
X220148571Y-79635000D01*
X220184285Y-79670714D01*
X220220000Y-79742142D01*
X220220000Y-79849285D01*
X220184285Y-79920714D01*
X220148571Y-79956428D01*
X220077142Y-79992142D01*
X219791428Y-79992142D01*
X220470000Y-79599285D02*
X220970000Y-79599285D01*
X220648571Y-80349285D01*
X217680000Y-80349285D02*
X217430000Y-79992142D01*
X217251428Y-80349285D02*
X217251428Y-79599285D01*
X217537142Y-79599285D01*
X217608571Y-79635000D01*
X217644285Y-79670714D01*
X217680000Y-79742142D01*
X217680000Y-79849285D01*
X217644285Y-79920714D01*
X217608571Y-79956428D01*
X217537142Y-79992142D01*
X217251428Y-79992142D01*
X218322857Y-79599285D02*
X218180000Y-79599285D01*
X218108571Y-79635000D01*
X218072857Y-79670714D01*
X218001428Y-79777857D01*
X217965714Y-79920714D01*
X217965714Y-80206428D01*
X218001428Y-80277857D01*
X218037142Y-80313571D01*
X218108571Y-80349285D01*
X218251428Y-80349285D01*
X218322857Y-80313571D01*
X218358571Y-80277857D01*
X218394285Y-80206428D01*
X218394285Y-80027857D01*
X218358571Y-79956428D01*
X218322857Y-79920714D01*
X218251428Y-79885000D01*
X218108571Y-79885000D01*
X218037142Y-79920714D01*
X218001428Y-79956428D01*
X217965714Y-80027857D01*
X215140000Y-80349285D02*
X214890000Y-79992142D01*
X214711428Y-80349285D02*
X214711428Y-79599285D01*
X214997142Y-79599285D01*
X215068571Y-79635000D01*
X215104285Y-79670714D01*
X215140000Y-79742142D01*
X215140000Y-79849285D01*
X215104285Y-79920714D01*
X215068571Y-79956428D01*
X214997142Y-79992142D01*
X214711428Y-79992142D01*
X215818571Y-79599285D02*
X215461428Y-79599285D01*
X215425714Y-79956428D01*
X215461428Y-79920714D01*
X215532857Y-79885000D01*
X215711428Y-79885000D01*
X215782857Y-79920714D01*
X215818571Y-79956428D01*
X215854285Y-80027857D01*
X215854285Y-80206428D01*
X215818571Y-80277857D01*
X215782857Y-80313571D01*
X215711428Y-80349285D01*
X215532857Y-80349285D01*
X215461428Y-80313571D01*
X215425714Y-80277857D01*
X212727000Y-80349285D02*
X212477000Y-79992142D01*
X212298428Y-80349285D02*
X212298428Y-79599285D01*
X212584142Y-79599285D01*
X212655571Y-79635000D01*
X212691285Y-79670714D01*
X212727000Y-79742142D01*
X212727000Y-79849285D01*
X212691285Y-79920714D01*
X212655571Y-79956428D01*
X212584142Y-79992142D01*
X212298428Y-79992142D01*
X213369857Y-79849285D02*
X213369857Y-80349285D01*
X213191285Y-79563571D02*
X213012714Y-80099285D01*
X213477000Y-80099285D01*
X210060000Y-80349285D02*
X209810000Y-79992142D01*
X209631428Y-80349285D02*
X209631428Y-79599285D01*
X209917142Y-79599285D01*
X209988571Y-79635000D01*
X210024285Y-79670714D01*
X210060000Y-79742142D01*
X210060000Y-79849285D01*
X210024285Y-79920714D01*
X209988571Y-79956428D01*
X209917142Y-79992142D01*
X209631428Y-79992142D01*
X210310000Y-79599285D02*
X210774285Y-79599285D01*
X210524285Y-79885000D01*
X210631428Y-79885000D01*
X210702857Y-79920714D01*
X210738571Y-79956428D01*
X210774285Y-80027857D01*
X210774285Y-80206428D01*
X210738571Y-80277857D01*
X210702857Y-80313571D01*
X210631428Y-80349285D01*
X210417142Y-80349285D01*
X210345714Y-80313571D01*
X210310000Y-80277857D01*
X207520000Y-80349285D02*
X207270000Y-79992142D01*
X207091428Y-80349285D02*
X207091428Y-79599285D01*
X207377142Y-79599285D01*
X207448571Y-79635000D01*
X207484285Y-79670714D01*
X207520000Y-79742142D01*
X207520000Y-79849285D01*
X207484285Y-79920714D01*
X207448571Y-79956428D01*
X207377142Y-79992142D01*
X207091428Y-79992142D01*
X207805714Y-79670714D02*
X207841428Y-79635000D01*
X207912857Y-79599285D01*
X208091428Y-79599285D01*
X208162857Y-79635000D01*
X208198571Y-79670714D01*
X208234285Y-79742142D01*
X208234285Y-79813571D01*
X208198571Y-79920714D01*
X207770000Y-80349285D01*
X208234285Y-80349285D01*
D12*
X205406666Y-60666380D02*
X205406666Y-61380666D01*
X205359047Y-61523523D01*
X205263809Y-61618761D01*
X205120952Y-61666380D01*
X205025714Y-61666380D01*
X205835238Y-60761619D02*
X205882857Y-60714000D01*
X205978095Y-60666380D01*
X206216190Y-60666380D01*
X206311428Y-60714000D01*
X206359047Y-60761619D01*
X206406666Y-60856857D01*
X206406666Y-60952095D01*
X206359047Y-61094952D01*
X205787619Y-61666380D01*
X206406666Y-61666380D01*
X254690714Y-120721380D02*
X254690714Y-119721380D01*
X254928809Y-119721380D01*
X255071666Y-119769000D01*
X255166904Y-119864238D01*
X255214523Y-119959476D01*
X255262142Y-120149952D01*
X255262142Y-120292809D01*
X255214523Y-120483285D01*
X255166904Y-120578523D01*
X255071666Y-120673761D01*
X254928809Y-120721380D01*
X254690714Y-120721380D01*
X256119285Y-120054714D02*
X256119285Y-120721380D01*
X255881190Y-119673761D02*
X255643095Y-120388047D01*
X256262142Y-120388047D01*
X256595476Y-119816619D02*
X256643095Y-119769000D01*
X256738333Y-119721380D01*
X256976428Y-119721380D01*
X257071666Y-119769000D01*
X257119285Y-119816619D01*
X257166904Y-119911857D01*
X257166904Y-120007095D01*
X257119285Y-120149952D01*
X256547857Y-120721380D01*
X257166904Y-120721380D01*
X247070714Y-120721380D02*
X247070714Y-119721380D01*
X247308809Y-119721380D01*
X247451666Y-119769000D01*
X247546904Y-119864238D01*
X247594523Y-119959476D01*
X247642142Y-120149952D01*
X247642142Y-120292809D01*
X247594523Y-120483285D01*
X247546904Y-120578523D01*
X247451666Y-120673761D01*
X247308809Y-120721380D01*
X247070714Y-120721380D01*
X248499285Y-120054714D02*
X248499285Y-120721380D01*
X248261190Y-119673761D02*
X248023095Y-120388047D01*
X248642142Y-120388047D01*
X249546904Y-120721380D02*
X248975476Y-120721380D01*
X249261190Y-120721380D02*
X249261190Y-119721380D01*
X249165952Y-119864238D01*
X249070714Y-119959476D01*
X248975476Y-120007095D01*
X239450714Y-120721380D02*
X239450714Y-119721380D01*
X239688809Y-119721380D01*
X239831666Y-119769000D01*
X239926904Y-119864238D01*
X239974523Y-119959476D01*
X240022142Y-120149952D01*
X240022142Y-120292809D01*
X239974523Y-120483285D01*
X239926904Y-120578523D01*
X239831666Y-120673761D01*
X239688809Y-120721380D01*
X239450714Y-120721380D01*
X240879285Y-120054714D02*
X240879285Y-120721380D01*
X240641190Y-119673761D02*
X240403095Y-120388047D01*
X241022142Y-120388047D01*
X241593571Y-119721380D02*
X241688809Y-119721380D01*
X241784047Y-119769000D01*
X241831666Y-119816619D01*
X241879285Y-119911857D01*
X241926904Y-120102333D01*
X241926904Y-120340428D01*
X241879285Y-120530904D01*
X241831666Y-120626142D01*
X241784047Y-120673761D01*
X241688809Y-120721380D01*
X241593571Y-120721380D01*
X241498333Y-120673761D01*
X241450714Y-120626142D01*
X241403095Y-120530904D01*
X241355476Y-120340428D01*
X241355476Y-120102333D01*
X241403095Y-119911857D01*
X241450714Y-119816619D01*
X241498333Y-119769000D01*
X241593571Y-119721380D01*
X231830714Y-120721380D02*
X231830714Y-119721380D01*
X232068809Y-119721380D01*
X232211666Y-119769000D01*
X232306904Y-119864238D01*
X232354523Y-119959476D01*
X232402142Y-120149952D01*
X232402142Y-120292809D01*
X232354523Y-120483285D01*
X232306904Y-120578523D01*
X232211666Y-120673761D01*
X232068809Y-120721380D01*
X231830714Y-120721380D01*
X232735476Y-119721380D02*
X233354523Y-119721380D01*
X233021190Y-120102333D01*
X233164047Y-120102333D01*
X233259285Y-120149952D01*
X233306904Y-120197571D01*
X233354523Y-120292809D01*
X233354523Y-120530904D01*
X233306904Y-120626142D01*
X233259285Y-120673761D01*
X233164047Y-120721380D01*
X232878333Y-120721380D01*
X232783095Y-120673761D01*
X232735476Y-120626142D01*
X233830714Y-120721380D02*
X234021190Y-120721380D01*
X234116428Y-120673761D01*
X234164047Y-120626142D01*
X234259285Y-120483285D01*
X234306904Y-120292809D01*
X234306904Y-119911857D01*
X234259285Y-119816619D01*
X234211666Y-119769000D01*
X234116428Y-119721380D01*
X233925952Y-119721380D01*
X233830714Y-119769000D01*
X233783095Y-119816619D01*
X233735476Y-119911857D01*
X233735476Y-120149952D01*
X233783095Y-120245190D01*
X233830714Y-120292809D01*
X233925952Y-120340428D01*
X234116428Y-120340428D01*
X234211666Y-120292809D01*
X234259285Y-120245190D01*
X234306904Y-120149952D01*
X224210714Y-120721380D02*
X224210714Y-119721380D01*
X224448809Y-119721380D01*
X224591666Y-119769000D01*
X224686904Y-119864238D01*
X224734523Y-119959476D01*
X224782142Y-120149952D01*
X224782142Y-120292809D01*
X224734523Y-120483285D01*
X224686904Y-120578523D01*
X224591666Y-120673761D01*
X224448809Y-120721380D01*
X224210714Y-120721380D01*
X225115476Y-119721380D02*
X225734523Y-119721380D01*
X225401190Y-120102333D01*
X225544047Y-120102333D01*
X225639285Y-120149952D01*
X225686904Y-120197571D01*
X225734523Y-120292809D01*
X225734523Y-120530904D01*
X225686904Y-120626142D01*
X225639285Y-120673761D01*
X225544047Y-120721380D01*
X225258333Y-120721380D01*
X225163095Y-120673761D01*
X225115476Y-120626142D01*
X226305952Y-120149952D02*
X226210714Y-120102333D01*
X226163095Y-120054714D01*
X226115476Y-119959476D01*
X226115476Y-119911857D01*
X226163095Y-119816619D01*
X226210714Y-119769000D01*
X226305952Y-119721380D01*
X226496428Y-119721380D01*
X226591666Y-119769000D01*
X226639285Y-119816619D01*
X226686904Y-119911857D01*
X226686904Y-119959476D01*
X226639285Y-120054714D01*
X226591666Y-120102333D01*
X226496428Y-120149952D01*
X226305952Y-120149952D01*
X226210714Y-120197571D01*
X226163095Y-120245190D01*
X226115476Y-120340428D01*
X226115476Y-120530904D01*
X226163095Y-120626142D01*
X226210714Y-120673761D01*
X226305952Y-120721380D01*
X226496428Y-120721380D01*
X226591666Y-120673761D01*
X226639285Y-120626142D01*
X226686904Y-120530904D01*
X226686904Y-120340428D01*
X226639285Y-120245190D01*
X226591666Y-120197571D01*
X226496428Y-120149952D01*
X216590714Y-120721380D02*
X216590714Y-119721380D01*
X216828809Y-119721380D01*
X216971666Y-119769000D01*
X217066904Y-119864238D01*
X217114523Y-119959476D01*
X217162142Y-120149952D01*
X217162142Y-120292809D01*
X217114523Y-120483285D01*
X217066904Y-120578523D01*
X216971666Y-120673761D01*
X216828809Y-120721380D01*
X216590714Y-120721380D01*
X217495476Y-119721380D02*
X218114523Y-119721380D01*
X217781190Y-120102333D01*
X217924047Y-120102333D01*
X218019285Y-120149952D01*
X218066904Y-120197571D01*
X218114523Y-120292809D01*
X218114523Y-120530904D01*
X218066904Y-120626142D01*
X218019285Y-120673761D01*
X217924047Y-120721380D01*
X217638333Y-120721380D01*
X217543095Y-120673761D01*
X217495476Y-120626142D01*
X218447857Y-119721380D02*
X219114523Y-119721380D01*
X218685952Y-120721380D01*
X208970714Y-120721380D02*
X208970714Y-119721380D01*
X209208809Y-119721380D01*
X209351666Y-119769000D01*
X209446904Y-119864238D01*
X209494523Y-119959476D01*
X209542142Y-120149952D01*
X209542142Y-120292809D01*
X209494523Y-120483285D01*
X209446904Y-120578523D01*
X209351666Y-120673761D01*
X209208809Y-120721380D01*
X208970714Y-120721380D01*
X209875476Y-119721380D02*
X210494523Y-119721380D01*
X210161190Y-120102333D01*
X210304047Y-120102333D01*
X210399285Y-120149952D01*
X210446904Y-120197571D01*
X210494523Y-120292809D01*
X210494523Y-120530904D01*
X210446904Y-120626142D01*
X210399285Y-120673761D01*
X210304047Y-120721380D01*
X210018333Y-120721380D01*
X209923095Y-120673761D01*
X209875476Y-120626142D01*
X211351666Y-119721380D02*
X211161190Y-119721380D01*
X211065952Y-119769000D01*
X211018333Y-119816619D01*
X210923095Y-119959476D01*
X210875476Y-120149952D01*
X210875476Y-120530904D01*
X210923095Y-120626142D01*
X210970714Y-120673761D01*
X211065952Y-120721380D01*
X211256428Y-120721380D01*
X211351666Y-120673761D01*
X211399285Y-120626142D01*
X211446904Y-120530904D01*
X211446904Y-120292809D01*
X211399285Y-120197571D01*
X211351666Y-120149952D01*
X211256428Y-120102333D01*
X211065952Y-120102333D01*
X210970714Y-120149952D01*
X210923095Y-120197571D01*
X210875476Y-120292809D01*
X254690714Y-113101380D02*
X254690714Y-112101380D01*
X254928809Y-112101380D01*
X255071666Y-112149000D01*
X255166904Y-112244238D01*
X255214523Y-112339476D01*
X255262142Y-112529952D01*
X255262142Y-112672809D01*
X255214523Y-112863285D01*
X255166904Y-112958523D01*
X255071666Y-113053761D01*
X254928809Y-113101380D01*
X254690714Y-113101380D01*
X255595476Y-112101380D02*
X256214523Y-112101380D01*
X255881190Y-112482333D01*
X256024047Y-112482333D01*
X256119285Y-112529952D01*
X256166904Y-112577571D01*
X256214523Y-112672809D01*
X256214523Y-112910904D01*
X256166904Y-113006142D01*
X256119285Y-113053761D01*
X256024047Y-113101380D01*
X255738333Y-113101380D01*
X255643095Y-113053761D01*
X255595476Y-113006142D01*
X257119285Y-112101380D02*
X256643095Y-112101380D01*
X256595476Y-112577571D01*
X256643095Y-112529952D01*
X256738333Y-112482333D01*
X256976428Y-112482333D01*
X257071666Y-112529952D01*
X257119285Y-112577571D01*
X257166904Y-112672809D01*
X257166904Y-112910904D01*
X257119285Y-113006142D01*
X257071666Y-113053761D01*
X256976428Y-113101380D01*
X256738333Y-113101380D01*
X256643095Y-113053761D01*
X256595476Y-113006142D01*
X247070714Y-113101380D02*
X247070714Y-112101380D01*
X247308809Y-112101380D01*
X247451666Y-112149000D01*
X247546904Y-112244238D01*
X247594523Y-112339476D01*
X247642142Y-112529952D01*
X247642142Y-112672809D01*
X247594523Y-112863285D01*
X247546904Y-112958523D01*
X247451666Y-113053761D01*
X247308809Y-113101380D01*
X247070714Y-113101380D01*
X247975476Y-112101380D02*
X248594523Y-112101380D01*
X248261190Y-112482333D01*
X248404047Y-112482333D01*
X248499285Y-112529952D01*
X248546904Y-112577571D01*
X248594523Y-112672809D01*
X248594523Y-112910904D01*
X248546904Y-113006142D01*
X248499285Y-113053761D01*
X248404047Y-113101380D01*
X248118333Y-113101380D01*
X248023095Y-113053761D01*
X247975476Y-113006142D01*
X249451666Y-112434714D02*
X249451666Y-113101380D01*
X249213571Y-112053761D02*
X248975476Y-112768047D01*
X249594523Y-112768047D01*
X239450714Y-113101380D02*
X239450714Y-112101380D01*
X239688809Y-112101380D01*
X239831666Y-112149000D01*
X239926904Y-112244238D01*
X239974523Y-112339476D01*
X240022142Y-112529952D01*
X240022142Y-112672809D01*
X239974523Y-112863285D01*
X239926904Y-112958523D01*
X239831666Y-113053761D01*
X239688809Y-113101380D01*
X239450714Y-113101380D01*
X240355476Y-112101380D02*
X240974523Y-112101380D01*
X240641190Y-112482333D01*
X240784047Y-112482333D01*
X240879285Y-112529952D01*
X240926904Y-112577571D01*
X240974523Y-112672809D01*
X240974523Y-112910904D01*
X240926904Y-113006142D01*
X240879285Y-113053761D01*
X240784047Y-113101380D01*
X240498333Y-113101380D01*
X240403095Y-113053761D01*
X240355476Y-113006142D01*
X241307857Y-112101380D02*
X241926904Y-112101380D01*
X241593571Y-112482333D01*
X241736428Y-112482333D01*
X241831666Y-112529952D01*
X241879285Y-112577571D01*
X241926904Y-112672809D01*
X241926904Y-112910904D01*
X241879285Y-113006142D01*
X241831666Y-113053761D01*
X241736428Y-113101380D01*
X241450714Y-113101380D01*
X241355476Y-113053761D01*
X241307857Y-113006142D01*
X231830714Y-113101380D02*
X231830714Y-112101380D01*
X232068809Y-112101380D01*
X232211666Y-112149000D01*
X232306904Y-112244238D01*
X232354523Y-112339476D01*
X232402142Y-112529952D01*
X232402142Y-112672809D01*
X232354523Y-112863285D01*
X232306904Y-112958523D01*
X232211666Y-113053761D01*
X232068809Y-113101380D01*
X231830714Y-113101380D01*
X232735476Y-112101380D02*
X233354523Y-112101380D01*
X233021190Y-112482333D01*
X233164047Y-112482333D01*
X233259285Y-112529952D01*
X233306904Y-112577571D01*
X233354523Y-112672809D01*
X233354523Y-112910904D01*
X233306904Y-113006142D01*
X233259285Y-113053761D01*
X233164047Y-113101380D01*
X232878333Y-113101380D01*
X232783095Y-113053761D01*
X232735476Y-113006142D01*
X233735476Y-112196619D02*
X233783095Y-112149000D01*
X233878333Y-112101380D01*
X234116428Y-112101380D01*
X234211666Y-112149000D01*
X234259285Y-112196619D01*
X234306904Y-112291857D01*
X234306904Y-112387095D01*
X234259285Y-112529952D01*
X233687857Y-113101380D01*
X234306904Y-113101380D01*
X224210714Y-113101380D02*
X224210714Y-112101380D01*
X224448809Y-112101380D01*
X224591666Y-112149000D01*
X224686904Y-112244238D01*
X224734523Y-112339476D01*
X224782142Y-112529952D01*
X224782142Y-112672809D01*
X224734523Y-112863285D01*
X224686904Y-112958523D01*
X224591666Y-113053761D01*
X224448809Y-113101380D01*
X224210714Y-113101380D01*
X225115476Y-112101380D02*
X225734523Y-112101380D01*
X225401190Y-112482333D01*
X225544047Y-112482333D01*
X225639285Y-112529952D01*
X225686904Y-112577571D01*
X225734523Y-112672809D01*
X225734523Y-112910904D01*
X225686904Y-113006142D01*
X225639285Y-113053761D01*
X225544047Y-113101380D01*
X225258333Y-113101380D01*
X225163095Y-113053761D01*
X225115476Y-113006142D01*
X226686904Y-113101380D02*
X226115476Y-113101380D01*
X226401190Y-113101380D02*
X226401190Y-112101380D01*
X226305952Y-112244238D01*
X226210714Y-112339476D01*
X226115476Y-112387095D01*
X216590714Y-113101380D02*
X216590714Y-112101380D01*
X216828809Y-112101380D01*
X216971666Y-112149000D01*
X217066904Y-112244238D01*
X217114523Y-112339476D01*
X217162142Y-112529952D01*
X217162142Y-112672809D01*
X217114523Y-112863285D01*
X217066904Y-112958523D01*
X216971666Y-113053761D01*
X216828809Y-113101380D01*
X216590714Y-113101380D01*
X217495476Y-112101380D02*
X218114523Y-112101380D01*
X217781190Y-112482333D01*
X217924047Y-112482333D01*
X218019285Y-112529952D01*
X218066904Y-112577571D01*
X218114523Y-112672809D01*
X218114523Y-112910904D01*
X218066904Y-113006142D01*
X218019285Y-113053761D01*
X217924047Y-113101380D01*
X217638333Y-113101380D01*
X217543095Y-113053761D01*
X217495476Y-113006142D01*
X218733571Y-112101380D02*
X218828809Y-112101380D01*
X218924047Y-112149000D01*
X218971666Y-112196619D01*
X219019285Y-112291857D01*
X219066904Y-112482333D01*
X219066904Y-112720428D01*
X219019285Y-112910904D01*
X218971666Y-113006142D01*
X218924047Y-113053761D01*
X218828809Y-113101380D01*
X218733571Y-113101380D01*
X218638333Y-113053761D01*
X218590714Y-113006142D01*
X218543095Y-112910904D01*
X218495476Y-112720428D01*
X218495476Y-112482333D01*
X218543095Y-112291857D01*
X218590714Y-112196619D01*
X218638333Y-112149000D01*
X218733571Y-112101380D01*
X208970714Y-113101380D02*
X208970714Y-112101380D01*
X209208809Y-112101380D01*
X209351666Y-112149000D01*
X209446904Y-112244238D01*
X209494523Y-112339476D01*
X209542142Y-112529952D01*
X209542142Y-112672809D01*
X209494523Y-112863285D01*
X209446904Y-112958523D01*
X209351666Y-113053761D01*
X209208809Y-113101380D01*
X208970714Y-113101380D01*
X209923095Y-112196619D02*
X209970714Y-112149000D01*
X210065952Y-112101380D01*
X210304047Y-112101380D01*
X210399285Y-112149000D01*
X210446904Y-112196619D01*
X210494523Y-112291857D01*
X210494523Y-112387095D01*
X210446904Y-112529952D01*
X209875476Y-113101380D01*
X210494523Y-113101380D01*
X210970714Y-113101380D02*
X211161190Y-113101380D01*
X211256428Y-113053761D01*
X211304047Y-113006142D01*
X211399285Y-112863285D01*
X211446904Y-112672809D01*
X211446904Y-112291857D01*
X211399285Y-112196619D01*
X211351666Y-112149000D01*
X211256428Y-112101380D01*
X211065952Y-112101380D01*
X210970714Y-112149000D01*
X210923095Y-112196619D01*
X210875476Y-112291857D01*
X210875476Y-112529952D01*
X210923095Y-112625190D01*
X210970714Y-112672809D01*
X211065952Y-112720428D01*
X211256428Y-112720428D01*
X211351666Y-112672809D01*
X211399285Y-112625190D01*
X211446904Y-112529952D01*
X254690714Y-105481380D02*
X254690714Y-104481380D01*
X254928809Y-104481380D01*
X255071666Y-104529000D01*
X255166904Y-104624238D01*
X255214523Y-104719476D01*
X255262142Y-104909952D01*
X255262142Y-105052809D01*
X255214523Y-105243285D01*
X255166904Y-105338523D01*
X255071666Y-105433761D01*
X254928809Y-105481380D01*
X254690714Y-105481380D01*
X255643095Y-104576619D02*
X255690714Y-104529000D01*
X255785952Y-104481380D01*
X256024047Y-104481380D01*
X256119285Y-104529000D01*
X256166904Y-104576619D01*
X256214523Y-104671857D01*
X256214523Y-104767095D01*
X256166904Y-104909952D01*
X255595476Y-105481380D01*
X256214523Y-105481380D01*
X256785952Y-104909952D02*
X256690714Y-104862333D01*
X256643095Y-104814714D01*
X256595476Y-104719476D01*
X256595476Y-104671857D01*
X256643095Y-104576619D01*
X256690714Y-104529000D01*
X256785952Y-104481380D01*
X256976428Y-104481380D01*
X257071666Y-104529000D01*
X257119285Y-104576619D01*
X257166904Y-104671857D01*
X257166904Y-104719476D01*
X257119285Y-104814714D01*
X257071666Y-104862333D01*
X256976428Y-104909952D01*
X256785952Y-104909952D01*
X256690714Y-104957571D01*
X256643095Y-105005190D01*
X256595476Y-105100428D01*
X256595476Y-105290904D01*
X256643095Y-105386142D01*
X256690714Y-105433761D01*
X256785952Y-105481380D01*
X256976428Y-105481380D01*
X257071666Y-105433761D01*
X257119285Y-105386142D01*
X257166904Y-105290904D01*
X257166904Y-105100428D01*
X257119285Y-105005190D01*
X257071666Y-104957571D01*
X256976428Y-104909952D01*
X247070714Y-105481380D02*
X247070714Y-104481380D01*
X247308809Y-104481380D01*
X247451666Y-104529000D01*
X247546904Y-104624238D01*
X247594523Y-104719476D01*
X247642142Y-104909952D01*
X247642142Y-105052809D01*
X247594523Y-105243285D01*
X247546904Y-105338523D01*
X247451666Y-105433761D01*
X247308809Y-105481380D01*
X247070714Y-105481380D01*
X248023095Y-104576619D02*
X248070714Y-104529000D01*
X248165952Y-104481380D01*
X248404047Y-104481380D01*
X248499285Y-104529000D01*
X248546904Y-104576619D01*
X248594523Y-104671857D01*
X248594523Y-104767095D01*
X248546904Y-104909952D01*
X247975476Y-105481380D01*
X248594523Y-105481380D01*
X248927857Y-104481380D02*
X249594523Y-104481380D01*
X249165952Y-105481380D01*
X239450714Y-105481380D02*
X239450714Y-104481380D01*
X239688809Y-104481380D01*
X239831666Y-104529000D01*
X239926904Y-104624238D01*
X239974523Y-104719476D01*
X240022142Y-104909952D01*
X240022142Y-105052809D01*
X239974523Y-105243285D01*
X239926904Y-105338523D01*
X239831666Y-105433761D01*
X239688809Y-105481380D01*
X239450714Y-105481380D01*
X240403095Y-104576619D02*
X240450714Y-104529000D01*
X240545952Y-104481380D01*
X240784047Y-104481380D01*
X240879285Y-104529000D01*
X240926904Y-104576619D01*
X240974523Y-104671857D01*
X240974523Y-104767095D01*
X240926904Y-104909952D01*
X240355476Y-105481380D01*
X240974523Y-105481380D01*
X241831666Y-104481380D02*
X241641190Y-104481380D01*
X241545952Y-104529000D01*
X241498333Y-104576619D01*
X241403095Y-104719476D01*
X241355476Y-104909952D01*
X241355476Y-105290904D01*
X241403095Y-105386142D01*
X241450714Y-105433761D01*
X241545952Y-105481380D01*
X241736428Y-105481380D01*
X241831666Y-105433761D01*
X241879285Y-105386142D01*
X241926904Y-105290904D01*
X241926904Y-105052809D01*
X241879285Y-104957571D01*
X241831666Y-104909952D01*
X241736428Y-104862333D01*
X241545952Y-104862333D01*
X241450714Y-104909952D01*
X241403095Y-104957571D01*
X241355476Y-105052809D01*
X231830714Y-105481380D02*
X231830714Y-104481380D01*
X232068809Y-104481380D01*
X232211666Y-104529000D01*
X232306904Y-104624238D01*
X232354523Y-104719476D01*
X232402142Y-104909952D01*
X232402142Y-105052809D01*
X232354523Y-105243285D01*
X232306904Y-105338523D01*
X232211666Y-105433761D01*
X232068809Y-105481380D01*
X231830714Y-105481380D01*
X232783095Y-104576619D02*
X232830714Y-104529000D01*
X232925952Y-104481380D01*
X233164047Y-104481380D01*
X233259285Y-104529000D01*
X233306904Y-104576619D01*
X233354523Y-104671857D01*
X233354523Y-104767095D01*
X233306904Y-104909952D01*
X232735476Y-105481380D01*
X233354523Y-105481380D01*
X234259285Y-104481380D02*
X233783095Y-104481380D01*
X233735476Y-104957571D01*
X233783095Y-104909952D01*
X233878333Y-104862333D01*
X234116428Y-104862333D01*
X234211666Y-104909952D01*
X234259285Y-104957571D01*
X234306904Y-105052809D01*
X234306904Y-105290904D01*
X234259285Y-105386142D01*
X234211666Y-105433761D01*
X234116428Y-105481380D01*
X233878333Y-105481380D01*
X233783095Y-105433761D01*
X233735476Y-105386142D01*
X224210714Y-105481380D02*
X224210714Y-104481380D01*
X224448809Y-104481380D01*
X224591666Y-104529000D01*
X224686904Y-104624238D01*
X224734523Y-104719476D01*
X224782142Y-104909952D01*
X224782142Y-105052809D01*
X224734523Y-105243285D01*
X224686904Y-105338523D01*
X224591666Y-105433761D01*
X224448809Y-105481380D01*
X224210714Y-105481380D01*
X225163095Y-104576619D02*
X225210714Y-104529000D01*
X225305952Y-104481380D01*
X225544047Y-104481380D01*
X225639285Y-104529000D01*
X225686904Y-104576619D01*
X225734523Y-104671857D01*
X225734523Y-104767095D01*
X225686904Y-104909952D01*
X225115476Y-105481380D01*
X225734523Y-105481380D01*
X226591666Y-104814714D02*
X226591666Y-105481380D01*
X226353571Y-104433761D02*
X226115476Y-105148047D01*
X226734523Y-105148047D01*
X216590714Y-105481380D02*
X216590714Y-104481380D01*
X216828809Y-104481380D01*
X216971666Y-104529000D01*
X217066904Y-104624238D01*
X217114523Y-104719476D01*
X217162142Y-104909952D01*
X217162142Y-105052809D01*
X217114523Y-105243285D01*
X217066904Y-105338523D01*
X216971666Y-105433761D01*
X216828809Y-105481380D01*
X216590714Y-105481380D01*
X217543095Y-104576619D02*
X217590714Y-104529000D01*
X217685952Y-104481380D01*
X217924047Y-104481380D01*
X218019285Y-104529000D01*
X218066904Y-104576619D01*
X218114523Y-104671857D01*
X218114523Y-104767095D01*
X218066904Y-104909952D01*
X217495476Y-105481380D01*
X218114523Y-105481380D01*
X218447857Y-104481380D02*
X219066904Y-104481380D01*
X218733571Y-104862333D01*
X218876428Y-104862333D01*
X218971666Y-104909952D01*
X219019285Y-104957571D01*
X219066904Y-105052809D01*
X219066904Y-105290904D01*
X219019285Y-105386142D01*
X218971666Y-105433761D01*
X218876428Y-105481380D01*
X218590714Y-105481380D01*
X218495476Y-105433761D01*
X218447857Y-105386142D01*
X208970714Y-105481380D02*
X208970714Y-104481380D01*
X209208809Y-104481380D01*
X209351666Y-104529000D01*
X209446904Y-104624238D01*
X209494523Y-104719476D01*
X209542142Y-104909952D01*
X209542142Y-105052809D01*
X209494523Y-105243285D01*
X209446904Y-105338523D01*
X209351666Y-105433761D01*
X209208809Y-105481380D01*
X208970714Y-105481380D01*
X209923095Y-104576619D02*
X209970714Y-104529000D01*
X210065952Y-104481380D01*
X210304047Y-104481380D01*
X210399285Y-104529000D01*
X210446904Y-104576619D01*
X210494523Y-104671857D01*
X210494523Y-104767095D01*
X210446904Y-104909952D01*
X209875476Y-105481380D01*
X210494523Y-105481380D01*
X210875476Y-104576619D02*
X210923095Y-104529000D01*
X211018333Y-104481380D01*
X211256428Y-104481380D01*
X211351666Y-104529000D01*
X211399285Y-104576619D01*
X211446904Y-104671857D01*
X211446904Y-104767095D01*
X211399285Y-104909952D01*
X210827857Y-105481380D01*
X211446904Y-105481380D01*
X254690714Y-97861380D02*
X254690714Y-96861380D01*
X254928809Y-96861380D01*
X255071666Y-96909000D01*
X255166904Y-97004238D01*
X255214523Y-97099476D01*
X255262142Y-97289952D01*
X255262142Y-97432809D01*
X255214523Y-97623285D01*
X255166904Y-97718523D01*
X255071666Y-97813761D01*
X254928809Y-97861380D01*
X254690714Y-97861380D01*
X255643095Y-96956619D02*
X255690714Y-96909000D01*
X255785952Y-96861380D01*
X256024047Y-96861380D01*
X256119285Y-96909000D01*
X256166904Y-96956619D01*
X256214523Y-97051857D01*
X256214523Y-97147095D01*
X256166904Y-97289952D01*
X255595476Y-97861380D01*
X256214523Y-97861380D01*
X257166904Y-97861380D02*
X256595476Y-97861380D01*
X256881190Y-97861380D02*
X256881190Y-96861380D01*
X256785952Y-97004238D01*
X256690714Y-97099476D01*
X256595476Y-97147095D01*
X247070714Y-97861380D02*
X247070714Y-96861380D01*
X247308809Y-96861380D01*
X247451666Y-96909000D01*
X247546904Y-97004238D01*
X247594523Y-97099476D01*
X247642142Y-97289952D01*
X247642142Y-97432809D01*
X247594523Y-97623285D01*
X247546904Y-97718523D01*
X247451666Y-97813761D01*
X247308809Y-97861380D01*
X247070714Y-97861380D01*
X248023095Y-96956619D02*
X248070714Y-96909000D01*
X248165952Y-96861380D01*
X248404047Y-96861380D01*
X248499285Y-96909000D01*
X248546904Y-96956619D01*
X248594523Y-97051857D01*
X248594523Y-97147095D01*
X248546904Y-97289952D01*
X247975476Y-97861380D01*
X248594523Y-97861380D01*
X249213571Y-96861380D02*
X249308809Y-96861380D01*
X249404047Y-96909000D01*
X249451666Y-96956619D01*
X249499285Y-97051857D01*
X249546904Y-97242333D01*
X249546904Y-97480428D01*
X249499285Y-97670904D01*
X249451666Y-97766142D01*
X249404047Y-97813761D01*
X249308809Y-97861380D01*
X249213571Y-97861380D01*
X249118333Y-97813761D01*
X249070714Y-97766142D01*
X249023095Y-97670904D01*
X248975476Y-97480428D01*
X248975476Y-97242333D01*
X249023095Y-97051857D01*
X249070714Y-96956619D01*
X249118333Y-96909000D01*
X249213571Y-96861380D01*
X239450714Y-97861380D02*
X239450714Y-96861380D01*
X239688809Y-96861380D01*
X239831666Y-96909000D01*
X239926904Y-97004238D01*
X239974523Y-97099476D01*
X240022142Y-97289952D01*
X240022142Y-97432809D01*
X239974523Y-97623285D01*
X239926904Y-97718523D01*
X239831666Y-97813761D01*
X239688809Y-97861380D01*
X239450714Y-97861380D01*
X240974523Y-97861380D02*
X240403095Y-97861380D01*
X240688809Y-97861380D02*
X240688809Y-96861380D01*
X240593571Y-97004238D01*
X240498333Y-97099476D01*
X240403095Y-97147095D01*
X241450714Y-97861380D02*
X241641190Y-97861380D01*
X241736428Y-97813761D01*
X241784047Y-97766142D01*
X241879285Y-97623285D01*
X241926904Y-97432809D01*
X241926904Y-97051857D01*
X241879285Y-96956619D01*
X241831666Y-96909000D01*
X241736428Y-96861380D01*
X241545952Y-96861380D01*
X241450714Y-96909000D01*
X241403095Y-96956619D01*
X241355476Y-97051857D01*
X241355476Y-97289952D01*
X241403095Y-97385190D01*
X241450714Y-97432809D01*
X241545952Y-97480428D01*
X241736428Y-97480428D01*
X241831666Y-97432809D01*
X241879285Y-97385190D01*
X241926904Y-97289952D01*
X231830714Y-97861380D02*
X231830714Y-96861380D01*
X232068809Y-96861380D01*
X232211666Y-96909000D01*
X232306904Y-97004238D01*
X232354523Y-97099476D01*
X232402142Y-97289952D01*
X232402142Y-97432809D01*
X232354523Y-97623285D01*
X232306904Y-97718523D01*
X232211666Y-97813761D01*
X232068809Y-97861380D01*
X231830714Y-97861380D01*
X233354523Y-97861380D02*
X232783095Y-97861380D01*
X233068809Y-97861380D02*
X233068809Y-96861380D01*
X232973571Y-97004238D01*
X232878333Y-97099476D01*
X232783095Y-97147095D01*
X233925952Y-97289952D02*
X233830714Y-97242333D01*
X233783095Y-97194714D01*
X233735476Y-97099476D01*
X233735476Y-97051857D01*
X233783095Y-96956619D01*
X233830714Y-96909000D01*
X233925952Y-96861380D01*
X234116428Y-96861380D01*
X234211666Y-96909000D01*
X234259285Y-96956619D01*
X234306904Y-97051857D01*
X234306904Y-97099476D01*
X234259285Y-97194714D01*
X234211666Y-97242333D01*
X234116428Y-97289952D01*
X233925952Y-97289952D01*
X233830714Y-97337571D01*
X233783095Y-97385190D01*
X233735476Y-97480428D01*
X233735476Y-97670904D01*
X233783095Y-97766142D01*
X233830714Y-97813761D01*
X233925952Y-97861380D01*
X234116428Y-97861380D01*
X234211666Y-97813761D01*
X234259285Y-97766142D01*
X234306904Y-97670904D01*
X234306904Y-97480428D01*
X234259285Y-97385190D01*
X234211666Y-97337571D01*
X234116428Y-97289952D01*
X224210714Y-97861380D02*
X224210714Y-96861380D01*
X224448809Y-96861380D01*
X224591666Y-96909000D01*
X224686904Y-97004238D01*
X224734523Y-97099476D01*
X224782142Y-97289952D01*
X224782142Y-97432809D01*
X224734523Y-97623285D01*
X224686904Y-97718523D01*
X224591666Y-97813761D01*
X224448809Y-97861380D01*
X224210714Y-97861380D01*
X225734523Y-97861380D02*
X225163095Y-97861380D01*
X225448809Y-97861380D02*
X225448809Y-96861380D01*
X225353571Y-97004238D01*
X225258333Y-97099476D01*
X225163095Y-97147095D01*
X226067857Y-96861380D02*
X226734523Y-96861380D01*
X226305952Y-97861380D01*
X216590714Y-97861380D02*
X216590714Y-96861380D01*
X216828809Y-96861380D01*
X216971666Y-96909000D01*
X217066904Y-97004238D01*
X217114523Y-97099476D01*
X217162142Y-97289952D01*
X217162142Y-97432809D01*
X217114523Y-97623285D01*
X217066904Y-97718523D01*
X216971666Y-97813761D01*
X216828809Y-97861380D01*
X216590714Y-97861380D01*
X218114523Y-97861380D02*
X217543095Y-97861380D01*
X217828809Y-97861380D02*
X217828809Y-96861380D01*
X217733571Y-97004238D01*
X217638333Y-97099476D01*
X217543095Y-97147095D01*
X218971666Y-96861380D02*
X218781190Y-96861380D01*
X218685952Y-96909000D01*
X218638333Y-96956619D01*
X218543095Y-97099476D01*
X218495476Y-97289952D01*
X218495476Y-97670904D01*
X218543095Y-97766142D01*
X218590714Y-97813761D01*
X218685952Y-97861380D01*
X218876428Y-97861380D01*
X218971666Y-97813761D01*
X219019285Y-97766142D01*
X219066904Y-97670904D01*
X219066904Y-97432809D01*
X219019285Y-97337571D01*
X218971666Y-97289952D01*
X218876428Y-97242333D01*
X218685952Y-97242333D01*
X218590714Y-97289952D01*
X218543095Y-97337571D01*
X218495476Y-97432809D01*
X208970714Y-97861380D02*
X208970714Y-96861380D01*
X209208809Y-96861380D01*
X209351666Y-96909000D01*
X209446904Y-97004238D01*
X209494523Y-97099476D01*
X209542142Y-97289952D01*
X209542142Y-97432809D01*
X209494523Y-97623285D01*
X209446904Y-97718523D01*
X209351666Y-97813761D01*
X209208809Y-97861380D01*
X208970714Y-97861380D01*
X210494523Y-97861380D02*
X209923095Y-97861380D01*
X210208809Y-97861380D02*
X210208809Y-96861380D01*
X210113571Y-97004238D01*
X210018333Y-97099476D01*
X209923095Y-97147095D01*
X211399285Y-96861380D02*
X210923095Y-96861380D01*
X210875476Y-97337571D01*
X210923095Y-97289952D01*
X211018333Y-97242333D01*
X211256428Y-97242333D01*
X211351666Y-97289952D01*
X211399285Y-97337571D01*
X211446904Y-97432809D01*
X211446904Y-97670904D01*
X211399285Y-97766142D01*
X211351666Y-97813761D01*
X211256428Y-97861380D01*
X211018333Y-97861380D01*
X210923095Y-97813761D01*
X210875476Y-97766142D01*
X254690714Y-90241380D02*
X254690714Y-89241380D01*
X254928809Y-89241380D01*
X255071666Y-89289000D01*
X255166904Y-89384238D01*
X255214523Y-89479476D01*
X255262142Y-89669952D01*
X255262142Y-89812809D01*
X255214523Y-90003285D01*
X255166904Y-90098523D01*
X255071666Y-90193761D01*
X254928809Y-90241380D01*
X254690714Y-90241380D01*
X256214523Y-90241380D02*
X255643095Y-90241380D01*
X255928809Y-90241380D02*
X255928809Y-89241380D01*
X255833571Y-89384238D01*
X255738333Y-89479476D01*
X255643095Y-89527095D01*
X257071666Y-89574714D02*
X257071666Y-90241380D01*
X256833571Y-89193761D02*
X256595476Y-89908047D01*
X257214523Y-89908047D01*
X247070714Y-90241380D02*
X247070714Y-89241380D01*
X247308809Y-89241380D01*
X247451666Y-89289000D01*
X247546904Y-89384238D01*
X247594523Y-89479476D01*
X247642142Y-89669952D01*
X247642142Y-89812809D01*
X247594523Y-90003285D01*
X247546904Y-90098523D01*
X247451666Y-90193761D01*
X247308809Y-90241380D01*
X247070714Y-90241380D01*
X248594523Y-90241380D02*
X248023095Y-90241380D01*
X248308809Y-90241380D02*
X248308809Y-89241380D01*
X248213571Y-89384238D01*
X248118333Y-89479476D01*
X248023095Y-89527095D01*
X248927857Y-89241380D02*
X249546904Y-89241380D01*
X249213571Y-89622333D01*
X249356428Y-89622333D01*
X249451666Y-89669952D01*
X249499285Y-89717571D01*
X249546904Y-89812809D01*
X249546904Y-90050904D01*
X249499285Y-90146142D01*
X249451666Y-90193761D01*
X249356428Y-90241380D01*
X249070714Y-90241380D01*
X248975476Y-90193761D01*
X248927857Y-90146142D01*
X239450714Y-90241380D02*
X239450714Y-89241380D01*
X239688809Y-89241380D01*
X239831666Y-89289000D01*
X239926904Y-89384238D01*
X239974523Y-89479476D01*
X240022142Y-89669952D01*
X240022142Y-89812809D01*
X239974523Y-90003285D01*
X239926904Y-90098523D01*
X239831666Y-90193761D01*
X239688809Y-90241380D01*
X239450714Y-90241380D01*
X240974523Y-90241380D02*
X240403095Y-90241380D01*
X240688809Y-90241380D02*
X240688809Y-89241380D01*
X240593571Y-89384238D01*
X240498333Y-89479476D01*
X240403095Y-89527095D01*
X241355476Y-89336619D02*
X241403095Y-89289000D01*
X241498333Y-89241380D01*
X241736428Y-89241380D01*
X241831666Y-89289000D01*
X241879285Y-89336619D01*
X241926904Y-89431857D01*
X241926904Y-89527095D01*
X241879285Y-89669952D01*
X241307857Y-90241380D01*
X241926904Y-90241380D01*
X231830714Y-90241380D02*
X231830714Y-89241380D01*
X232068809Y-89241380D01*
X232211666Y-89289000D01*
X232306904Y-89384238D01*
X232354523Y-89479476D01*
X232402142Y-89669952D01*
X232402142Y-89812809D01*
X232354523Y-90003285D01*
X232306904Y-90098523D01*
X232211666Y-90193761D01*
X232068809Y-90241380D01*
X231830714Y-90241380D01*
X233354523Y-90241380D02*
X232783095Y-90241380D01*
X233068809Y-90241380D02*
X233068809Y-89241380D01*
X232973571Y-89384238D01*
X232878333Y-89479476D01*
X232783095Y-89527095D01*
X234306904Y-90241380D02*
X233735476Y-90241380D01*
X234021190Y-90241380D02*
X234021190Y-89241380D01*
X233925952Y-89384238D01*
X233830714Y-89479476D01*
X233735476Y-89527095D01*
X224210714Y-90241380D02*
X224210714Y-89241380D01*
X224448809Y-89241380D01*
X224591666Y-89289000D01*
X224686904Y-89384238D01*
X224734523Y-89479476D01*
X224782142Y-89669952D01*
X224782142Y-89812809D01*
X224734523Y-90003285D01*
X224686904Y-90098523D01*
X224591666Y-90193761D01*
X224448809Y-90241380D01*
X224210714Y-90241380D01*
X225734523Y-90241380D02*
X225163095Y-90241380D01*
X225448809Y-90241380D02*
X225448809Y-89241380D01*
X225353571Y-89384238D01*
X225258333Y-89479476D01*
X225163095Y-89527095D01*
X226353571Y-89241380D02*
X226448809Y-89241380D01*
X226544047Y-89289000D01*
X226591666Y-89336619D01*
X226639285Y-89431857D01*
X226686904Y-89622333D01*
X226686904Y-89860428D01*
X226639285Y-90050904D01*
X226591666Y-90146142D01*
X226544047Y-90193761D01*
X226448809Y-90241380D01*
X226353571Y-90241380D01*
X226258333Y-90193761D01*
X226210714Y-90146142D01*
X226163095Y-90050904D01*
X226115476Y-89860428D01*
X226115476Y-89622333D01*
X226163095Y-89431857D01*
X226210714Y-89336619D01*
X226258333Y-89289000D01*
X226353571Y-89241380D01*
X217066904Y-90241380D02*
X217066904Y-89241380D01*
X217305000Y-89241380D01*
X217447857Y-89289000D01*
X217543095Y-89384238D01*
X217590714Y-89479476D01*
X217638333Y-89669952D01*
X217638333Y-89812809D01*
X217590714Y-90003285D01*
X217543095Y-90098523D01*
X217447857Y-90193761D01*
X217305000Y-90241380D01*
X217066904Y-90241380D01*
X218114523Y-90241380D02*
X218305000Y-90241380D01*
X218400238Y-90193761D01*
X218447857Y-90146142D01*
X218543095Y-90003285D01*
X218590714Y-89812809D01*
X218590714Y-89431857D01*
X218543095Y-89336619D01*
X218495476Y-89289000D01*
X218400238Y-89241380D01*
X218209761Y-89241380D01*
X218114523Y-89289000D01*
X218066904Y-89336619D01*
X218019285Y-89431857D01*
X218019285Y-89669952D01*
X218066904Y-89765190D01*
X218114523Y-89812809D01*
X218209761Y-89860428D01*
X218400238Y-89860428D01*
X218495476Y-89812809D01*
X218543095Y-89765190D01*
X218590714Y-89669952D01*
X209446904Y-90241380D02*
X209446904Y-89241380D01*
X209685000Y-89241380D01*
X209827857Y-89289000D01*
X209923095Y-89384238D01*
X209970714Y-89479476D01*
X210018333Y-89669952D01*
X210018333Y-89812809D01*
X209970714Y-90003285D01*
X209923095Y-90098523D01*
X209827857Y-90193761D01*
X209685000Y-90241380D01*
X209446904Y-90241380D01*
X210589761Y-89669952D02*
X210494523Y-89622333D01*
X210446904Y-89574714D01*
X210399285Y-89479476D01*
X210399285Y-89431857D01*
X210446904Y-89336619D01*
X210494523Y-89289000D01*
X210589761Y-89241380D01*
X210780238Y-89241380D01*
X210875476Y-89289000D01*
X210923095Y-89336619D01*
X210970714Y-89431857D01*
X210970714Y-89479476D01*
X210923095Y-89574714D01*
X210875476Y-89622333D01*
X210780238Y-89669952D01*
X210589761Y-89669952D01*
X210494523Y-89717571D01*
X210446904Y-89765190D01*
X210399285Y-89860428D01*
X210399285Y-90050904D01*
X210446904Y-90146142D01*
X210494523Y-90193761D01*
X210589761Y-90241380D01*
X210780238Y-90241380D01*
X210875476Y-90193761D01*
X210923095Y-90146142D01*
X210970714Y-90050904D01*
X210970714Y-89860428D01*
X210923095Y-89765190D01*
X210875476Y-89717571D01*
X210780238Y-89669952D01*
X255166904Y-82621380D02*
X255166904Y-81621380D01*
X255405000Y-81621380D01*
X255547857Y-81669000D01*
X255643095Y-81764238D01*
X255690714Y-81859476D01*
X255738333Y-82049952D01*
X255738333Y-82192809D01*
X255690714Y-82383285D01*
X255643095Y-82478523D01*
X255547857Y-82573761D01*
X255405000Y-82621380D01*
X255166904Y-82621380D01*
X256071666Y-81621380D02*
X256738333Y-81621380D01*
X256309761Y-82621380D01*
X247546904Y-82621380D02*
X247546904Y-81621380D01*
X247785000Y-81621380D01*
X247927857Y-81669000D01*
X248023095Y-81764238D01*
X248070714Y-81859476D01*
X248118333Y-82049952D01*
X248118333Y-82192809D01*
X248070714Y-82383285D01*
X248023095Y-82478523D01*
X247927857Y-82573761D01*
X247785000Y-82621380D01*
X247546904Y-82621380D01*
X248975476Y-81621380D02*
X248785000Y-81621380D01*
X248689761Y-81669000D01*
X248642142Y-81716619D01*
X248546904Y-81859476D01*
X248499285Y-82049952D01*
X248499285Y-82430904D01*
X248546904Y-82526142D01*
X248594523Y-82573761D01*
X248689761Y-82621380D01*
X248880238Y-82621380D01*
X248975476Y-82573761D01*
X249023095Y-82526142D01*
X249070714Y-82430904D01*
X249070714Y-82192809D01*
X249023095Y-82097571D01*
X248975476Y-82049952D01*
X248880238Y-82002333D01*
X248689761Y-82002333D01*
X248594523Y-82049952D01*
X248546904Y-82097571D01*
X248499285Y-82192809D01*
X239921904Y-82621380D02*
X239921904Y-81621380D01*
X240160000Y-81621380D01*
X240302857Y-81669000D01*
X240398095Y-81764238D01*
X240445714Y-81859476D01*
X240493333Y-82049952D01*
X240493333Y-82192809D01*
X240445714Y-82383285D01*
X240398095Y-82478523D01*
X240302857Y-82573761D01*
X240160000Y-82621380D01*
X239921904Y-82621380D01*
X241398095Y-81621380D02*
X240921904Y-81621380D01*
X240874285Y-82097571D01*
X240921904Y-82049952D01*
X241017142Y-82002333D01*
X241255238Y-82002333D01*
X241350476Y-82049952D01*
X241398095Y-82097571D01*
X241445714Y-82192809D01*
X241445714Y-82430904D01*
X241398095Y-82526142D01*
X241350476Y-82573761D01*
X241255238Y-82621380D01*
X241017142Y-82621380D01*
X240921904Y-82573761D01*
X240874285Y-82526142D01*
X232306904Y-82621380D02*
X232306904Y-81621380D01*
X232545000Y-81621380D01*
X232687857Y-81669000D01*
X232783095Y-81764238D01*
X232830714Y-81859476D01*
X232878333Y-82049952D01*
X232878333Y-82192809D01*
X232830714Y-82383285D01*
X232783095Y-82478523D01*
X232687857Y-82573761D01*
X232545000Y-82621380D01*
X232306904Y-82621380D01*
X233735476Y-81954714D02*
X233735476Y-82621380D01*
X233497380Y-81573761D02*
X233259285Y-82288047D01*
X233878333Y-82288047D01*
X224686904Y-82621380D02*
X224686904Y-81621380D01*
X224925000Y-81621380D01*
X225067857Y-81669000D01*
X225163095Y-81764238D01*
X225210714Y-81859476D01*
X225258333Y-82049952D01*
X225258333Y-82192809D01*
X225210714Y-82383285D01*
X225163095Y-82478523D01*
X225067857Y-82573761D01*
X224925000Y-82621380D01*
X224686904Y-82621380D01*
X225591666Y-81621380D02*
X226210714Y-81621380D01*
X225877380Y-82002333D01*
X226020238Y-82002333D01*
X226115476Y-82049952D01*
X226163095Y-82097571D01*
X226210714Y-82192809D01*
X226210714Y-82430904D01*
X226163095Y-82526142D01*
X226115476Y-82573761D01*
X226020238Y-82621380D01*
X225734523Y-82621380D01*
X225639285Y-82573761D01*
X225591666Y-82526142D01*
X217066904Y-82621380D02*
X217066904Y-81621380D01*
X217305000Y-81621380D01*
X217447857Y-81669000D01*
X217543095Y-81764238D01*
X217590714Y-81859476D01*
X217638333Y-82049952D01*
X217638333Y-82192809D01*
X217590714Y-82383285D01*
X217543095Y-82478523D01*
X217447857Y-82573761D01*
X217305000Y-82621380D01*
X217066904Y-82621380D01*
X218019285Y-81716619D02*
X218066904Y-81669000D01*
X218162142Y-81621380D01*
X218400238Y-81621380D01*
X218495476Y-81669000D01*
X218543095Y-81716619D01*
X218590714Y-81811857D01*
X218590714Y-81907095D01*
X218543095Y-82049952D01*
X217971666Y-82621380D01*
X218590714Y-82621380D01*
X209446904Y-82621380D02*
X209446904Y-81621380D01*
X209685000Y-81621380D01*
X209827857Y-81669000D01*
X209923095Y-81764238D01*
X209970714Y-81859476D01*
X210018333Y-82049952D01*
X210018333Y-82192809D01*
X209970714Y-82383285D01*
X209923095Y-82478523D01*
X209827857Y-82573761D01*
X209685000Y-82621380D01*
X209446904Y-82621380D01*
X210970714Y-82621380D02*
X210399285Y-82621380D01*
X210685000Y-82621380D02*
X210685000Y-81621380D01*
X210589761Y-81764238D01*
X210494523Y-81859476D01*
X210399285Y-81907095D01*
X209383333Y-63730142D02*
X209335714Y-63777761D01*
X209192857Y-63825380D01*
X209097619Y-63825380D01*
X208954761Y-63777761D01*
X208859523Y-63682523D01*
X208811904Y-63587285D01*
X208764285Y-63396809D01*
X208764285Y-63253952D01*
X208811904Y-63063476D01*
X208859523Y-62968238D01*
X208954761Y-62873000D01*
X209097619Y-62825380D01*
X209192857Y-62825380D01*
X209335714Y-62873000D01*
X209383333Y-62920619D01*
X210335714Y-63825380D02*
X209764285Y-63825380D01*
X210050000Y-63825380D02*
X210050000Y-62825380D01*
X209954761Y-62968238D01*
X209859523Y-63063476D01*
X209764285Y-63111095D01*
M02*
