M48
; DRILL file {KiCad (5.99.0-126-g64b5e8bee)} date 9/15/2019 10:15:29 PM
; FORMAT={-:-/ absolute / metric / decimal}
; #@! TF.CreationDate,2019-09-15T22:15:29-04:00
; #@! TF.GenerationSoftware,Kicad,Pcbnew,(5.99.0-126-g64b5e8bee)
; #@! TF.FileFunction,Plated,1,2,PTH
FMAT,2
METRIC
T1C0.400
T2C0.900
T3C1.000
T4C1.100
%
G90
G05
T1
X208.28Y-51.562
X212.344Y-57.404
X214.122Y-61.214
X214.694Y-51.816
X214.757Y-50.292
X214.965Y-55.245
X215.773Y-47.625
X218.694Y-52.07
X221.615Y-55.068
X225.615Y-50.143
X227.203Y-55.372
X227.711Y-51.627
X228.219Y-53.467
X228.981Y-58.547
X229.87Y-51.668
X229.997Y-56.134
X229.997Y-57.912
X230.251Y-62.738
X231.14Y-51.562
X232.029Y-57.785
X232.283Y-56.261
X232.664Y-54.991
X232.918Y-59.055
X233.585Y-52.673
X233.617Y-51.562
X234.442Y-54.61
X235.077Y-52.578
X235.204Y-55.372
X235.966Y-61.341
X235.966Y-102.235
X236.347Y-86.106
X236.347Y-94.615
X236.474Y-59.944
X237.109Y-61.325
X237.109Y-84.201
X237.551Y-59.893
X238.252Y-59.055
X238.252Y-61.325
X238.299Y-58.056
X242.316Y-50.8
X242.316Y-52.07
X242.316Y-53.467
X242.316Y-54.737
X242.316Y-56.007
X242.316Y-61.325
X243.205Y-57.15
X243.27Y-109.855
X243.586Y-117.475
X243.967Y-86.106
X244.729Y-84.201
X245.872Y-61.022
X247.269Y-61.022
X251.206Y-125.105
X252.095Y-86.106
T2
X208.28Y-106.68
X209.55Y-106.68
X210.82Y-106.68
X212.09Y-106.68
X231.14Y-106.68
X232.41Y-106.68
X233.68Y-106.68
X234.95Y-106.68
X208.28Y-121.92
X209.55Y-121.92
X210.82Y-121.92
X212.09Y-121.92
X208.28Y-99.06
X209.55Y-99.06
X210.82Y-99.06
X212.09Y-99.06
X246.38Y-91.44
X247.65Y-91.44
X248.92Y-91.44
X250.19Y-91.44
X223.52Y-106.68
X224.79Y-106.68
X226.06Y-106.68
X227.33Y-106.68
X231.14Y-121.92
X232.41Y-121.92
X233.68Y-121.92
X234.95Y-121.92
X254.0Y-121.92
X255.27Y-121.92
X256.54Y-121.92
X257.81Y-121.92
X231.14Y-83.82
X232.41Y-83.82
X233.68Y-83.82
X234.95Y-83.82
X215.9Y-114.3
X217.17Y-114.3
X218.44Y-114.3
X219.71Y-114.3
X238.76Y-83.82
X240.03Y-83.82
X241.3Y-83.82
X242.57Y-83.82
X238.76Y-114.3
X240.03Y-114.3
X241.3Y-114.3
X242.57Y-114.3
X231.14Y-91.44
X232.41Y-91.44
X233.68Y-91.44
X234.95Y-91.44
X254.0Y-99.06
X255.27Y-99.06
X256.54Y-99.06
X257.81Y-99.06
X215.9Y-121.92
X217.17Y-121.92
X218.44Y-121.92
X219.71Y-121.92
X246.38Y-83.82
X247.65Y-83.82
X248.92Y-83.82
X250.19Y-83.82
X254.0Y-114.3
X255.27Y-114.3
X256.54Y-114.3
X257.81Y-114.3
X208.28Y-114.3
X209.55Y-114.3
X210.82Y-114.3
X212.09Y-114.3
X238.76Y-91.44
X240.03Y-91.44
X241.3Y-91.44
X242.57Y-91.44
X215.9Y-91.44
X217.17Y-91.44
X218.44Y-91.44
X219.71Y-91.44
X238.76Y-121.92
X240.03Y-121.92
X241.3Y-121.92
X242.57Y-121.92
X246.38Y-114.3
X247.65Y-114.3
X248.92Y-114.3
X250.19Y-114.3
X231.14Y-99.06
X232.41Y-99.06
X233.68Y-99.06
X234.95Y-99.06
X254.0Y-106.68
X255.27Y-106.68
X256.54Y-106.68
X257.81Y-106.68
X223.52Y-91.44
X224.79Y-91.44
X226.06Y-91.44
X227.33Y-91.44
X215.9Y-83.82
X217.17Y-83.82
X218.44Y-83.82
X219.71Y-83.82
X246.38Y-99.06
X247.65Y-99.06
X248.92Y-99.06
X250.19Y-99.06
X223.52Y-114.3
X224.79Y-114.3
X226.06Y-114.3
X227.33Y-114.3
X215.9Y-106.68
X217.17Y-106.68
X218.44Y-106.68
X219.71Y-106.68
X223.52Y-99.06
X224.79Y-99.06
X226.06Y-99.06
X227.33Y-99.06
X223.52Y-121.92
X224.79Y-121.92
X226.06Y-121.92
X227.33Y-121.92
X208.28Y-91.44
X209.55Y-91.44
X210.82Y-91.44
X212.09Y-91.44
X251.714Y-46.99
X251.714Y-48.26
X251.714Y-49.53
X251.714Y-50.8
X208.28Y-83.82
X209.55Y-83.82
X210.82Y-83.82
X212.09Y-83.82
X246.38Y-106.68
X247.65Y-106.68
X248.92Y-106.68
X250.19Y-106.68
X246.38Y-121.92
X247.65Y-121.92
X248.92Y-121.92
X250.19Y-121.92
X223.52Y-83.82
X224.79Y-83.82
X226.06Y-83.82
X227.33Y-83.82
X215.9Y-99.06
X217.17Y-99.06
X218.44Y-99.06
X219.71Y-99.06
X238.76Y-106.68
X240.03Y-106.68
X241.3Y-106.68
X242.57Y-106.68
X254.0Y-83.82
X255.27Y-83.82
X256.54Y-83.82
X257.81Y-83.82
X238.76Y-99.06
X240.03Y-99.06
X241.3Y-99.06
X242.57Y-99.06
X231.14Y-114.3
X232.41Y-114.3
X233.68Y-114.3
X234.95Y-114.3
X254.0Y-91.44
X255.27Y-91.44
X256.54Y-91.44
X257.81Y-91.44
T3
X219.964Y-49.276
X222.504Y-49.276
X219.964Y-46.228
X222.504Y-46.228
X225.044Y-46.228
X227.584Y-46.228
X230.124Y-46.228
T4
X207.93Y-66.525
X207.93Y-73.025
X212.43Y-66.525
X212.43Y-73.025
X230.79Y-66.525
X230.79Y-73.025
X235.29Y-66.525
X235.29Y-73.025
X246.03Y-66.525
X246.03Y-73.025
X250.53Y-66.525
X250.53Y-73.025
X257.755Y-53.975
X257.755Y-60.475
X262.255Y-53.975
X262.255Y-60.475
X253.65Y-66.525
X253.65Y-73.025
X258.15Y-66.525
X258.15Y-73.025
X223.17Y-66.525
X223.17Y-73.025
X227.67Y-66.525
X227.67Y-73.025
X238.41Y-66.525
X238.41Y-73.025
X242.91Y-66.525
X242.91Y-73.025
X215.55Y-66.525
X215.55Y-73.025
X220.05Y-66.525
X220.05Y-73.025
X249.5Y-53.975
X249.5Y-60.475
X254.0Y-53.975
X254.0Y-60.475
T0
M30
