<?xml version="1.0" encoding="utf-8"?>
<!-- Generator: Adobe Illustrator 24.0.2, SVG Export Plug-In . SVG Version: 6.00 Build 0)  -->
<svg version="1.1"
	 id="svg4587" inkscape:version="0.92.4 (5da689c313, 2019-01-14)" sodipodi:docname="PCB-brd2.svg" xmlns:cc="http://creativecommons.org/ns#" xmlns:dc="http://purl.org/dc/elements/1.1/" xmlns:inkscape="http://www.inkscape.org/namespaces/inkscape" xmlns:rdf="http://www.w3.org/1999/02/22-rdf-syntax-ns#" xmlns:sodipodi="http://sodipodi.sourceforge.net/DTD/sodipodi-0.dtd" xmlns:svg="http://www.w3.org/2000/svg"
	 xmlns="http://www.w3.org/2000/svg" xmlns:xlink="http://www.w3.org/1999/xlink" x="0px" y="0px" viewBox="0 0 864 432"
	 style="enable-background:new 0 0 864 432;" xml:space="preserve">
<style type="text/css">
	.st0{fill:none;stroke:#000000;stroke-width:1.000000e-03;stroke-linecap:round;stroke-linejoin:round;stroke-miterlimit:10;}
	.st1{fill:none;stroke:#000000;stroke-width:1.000000e-03;stroke-miterlimit:10;}
</style>
<sodipodi:namedview  bordercolor="#666666" borderopacity="1" gridtolerance="10" guidetolerance="10" id="namedview4589" inkscape:current-layer="layer2" inkscape:cx="115.02578" inkscape:cy="241.60992" inkscape:pageopacity="0" inkscape:pageshadow="2" inkscape:snap-bbox="true" inkscape:snap-center="true" inkscape:snap-intersection-paths="true" inkscape:snap-midpoints="true" inkscape:snap-object-midpoints="true" inkscape:snap-smooth-nodes="true" inkscape:window-height="1012" inkscape:window-maximized="1" inkscape:window-width="1920" inkscape:window-x="-8" inkscape:window-y="-8" inkscape:zoom="2.8284271" objecttolerance="10" pagecolor="#ffffff" showgrid="false" units="mm">
	</sodipodi:namedview>
<title  id="title2705">SVG Picture created as PCB-brd.svg date 2020/02/12 13:19:33</title>
<desc  id="desc2707">Picture generated by PCBNEW</desc>
<g id="g2709" transform="translate(-3777.85,5440.981)">
</g>
<g id="g2711" transform="translate(-3777.85,5440.981)">
</g>
<g id="g2713" transform="translate(-3777.85,5440.981)">
</g>
<g id="g4341" transform="translate(-3777.85,5440.981)">
</g>
<g id="g4343" transform="translate(-3777.85,5440.981)">
</g>
<g id="layer2" inkscape:groupmode="layer" inkscape:label="Cut1">
	<g id="g4585" transform="translate(-1173.6834,2836.8144)">
		<path id="path4351" inkscape:connector-curvature="0" class="st0" d="M1395.7-2802.5h-4.3"/>
		<path id="path4353" inkscape:connector-curvature="0" class="st0" d="M1191.3-2802.5h4.3"/>
		<path id="path4355" inkscape:connector-curvature="0" class="st0" d="M1201.3-2796.8c0-3.2-2.6-5.8-5.8-5.8l0,0"/>
		<path id="path4357" inkscape:connector-curvature="0" class="st0" d="M1391.4-2802.5c-3.2,0-5.8,2.6-5.8,5.8l0,0"/>
		<path id="path4359" inkscape:connector-curvature="0" class="st0" d="M1391.4-2616.8h4.3"/>
		<path id="path4361" inkscape:connector-curvature="0" class="st0" d="M1385.7-2622.5c0,3.2,2.6,5.8,5.8,5.8l0,0"/>
		<path id="path4363" inkscape:connector-curvature="0" class="st0" d="M1195.6-2616.8h-4.3"/>
		<path id="path4365" inkscape:connector-curvature="0" class="st0" d="M1195.6-2616.8c3.2,0,5.8-2.6,5.8-5.8l0,0"/>
		<path id="path4367" inkscape:connector-curvature="0" class="st0" d="M1395.8-2596.6c5.6,0,10.1-4.5,10.1-10.1
			c0-5.6-4.5-10.1-10.1-10.1"/>
		<path id="path4369" inkscape:connector-curvature="0" class="st0" d="M1395.8-2802.5c5.6,0,10.1-4.5,10.1-10.1
			c0-5.6-4.5-10.1-10.1-10.1"/>
		<path id="path4371" inkscape:connector-curvature="0" class="st0" d="M1191.3-2822.7c-5.6,0-10.1,4.5-10.1,10.1
			c0,5.6,4.5,10.1,10.1,10.1"/>
		<path id="path4373" inkscape:connector-curvature="0" class="st0" d="M1191.3-2616.8c-5.6,0-10.1,4.5-10.1,10.1
			c0,5.6,4.5,10.1,10.1,10.1"/>
		<path id="path4375" inkscape:connector-curvature="0" class="st0" d="M1191.3-2822.7h204.5"/>
		<path id="path4377" inkscape:connector-curvature="0" class="st0" d="M1201.3-2622.5v-174.2"/>
		<path id="path4379" inkscape:connector-curvature="0" class="st0" d="M1395.7-2596.6h-204.5"/>
		<path id="path4381" inkscape:connector-curvature="0" class="st0" d="M1385.7-2796.8v174.2"/>
		<g id="g4383">
		</g>
		<g id="g4385">
		</g>
		<g id="g4387">
		</g>
		<g id="g4389">
		</g>
		<g id="g4391">
		</g>
		<g id="g4393">
		</g>
		<g id="g4395">
		</g>
		<g id="g4397">
		</g>
		<g id="g4399">
		</g>
		<g id="g4401">
		</g>
		<g id="g4403">
		</g>
		<g id="g4405">
		</g>
		<g id="g4407">
		</g>
		<g id="g4409">
		</g>
		<g id="g4411">
		</g>
		<g id="g4413">
		</g>
		<g id="g4415">
		</g>
		<g id="g4417">
		</g>
		<g id="g4419">
		</g>
		<g id="g4421">
		</g>
		<g id="g4423">
		</g>
		<g id="g4425">
		</g>
		<g id="g4427">
		</g>
		<g id="g4429">
		</g>
		<g id="g4431">
		</g>
		<g id="g4433">
		</g>
		<g id="g4435">
		</g>
		<g id="g4437">
		</g>
		<g id="g4439">
		</g>
		<g id="g4441">
		</g>
		<g id="g4443">
		</g>
		<g id="g4445">
		</g>
		<g id="g4447">
		</g>
		<g id="g4449">
		</g>
		<g id="g4451">
		</g>
		<g id="g4453">
		</g>
		<g id="g4455">
		</g>
		<g id="g4457">
		</g>
		<g id="g4459">
		</g>
		<g id="g4461">
		</g>
		<g id="g4463">
		</g>
		<g id="g4465">
		</g>
		<g id="g4467">
		</g>
		<g id="g4469">
		</g>
		<g id="g4471">
		</g>
		<g id="g4473">
		</g>
		<g id="g4475">
		</g>
		<g id="g4477">
		</g>
		<g id="g4479">
		</g>
		<g id="g4481">
		</g>
		<g id="g4483">
		</g>
		<g id="g4485">
		</g>
		<g id="g4487">
		</g>
		<g id="g4489">
		</g>
		<g id="g4491">
		</g>
		<g id="g4493">
		</g>
		<g id="g4495">
		</g>
		<g id="g4497">
		</g>
		<g id="g4499">
		</g>
		<g id="g4501">
		</g>
		<g id="g4503">
		</g>
		<g id="g4505">
		</g>
		<g id="g4507">
		</g>
		<g id="g4509">
		</g>
		<g id="g4511">
		</g>
		<g id="g4513">
		</g>
		<g id="g4515">
		</g>
		<g id="g4517">
		</g>
		<g id="g4519">
		</g>
		<g id="g4521">
		</g>
		<g id="g4523">
		</g>
		<g id="g4525">
		</g>
		<g id="g4527">
		</g>
		<g id="g4529">
		</g>
		<g id="g4531">
		</g>
		<g id="g4533">
		</g>
		<g id="g4535">
		</g>
		<g id="g4537">
		</g>
		<g id="g4539">
		</g>
		<g id="g4541">
		</g>
		<g id="g4543">
		</g>
		<g id="g4545">
		</g>
		<g id="g4547">
		</g>
		<g id="g4549">
		</g>
		<g id="g4551">
		</g>
		<g id="g4553">
		</g>
		<g id="g4555">
		</g>
		<g id="g4557">
		</g>
		<g id="g4559">
		</g>
		<g id="g4561">
		</g>
		<g id="g4563">
		</g>
		<g id="g4565">
		</g>
		<g id="g4567">
		</g>
		<g id="g4569">
		</g>
		<g id="g4571">
		</g>
		<g id="g4573">
		</g>
		<g id="g4575">
		</g>
		<g id="g4577">
		</g>
		<g id="g4579">
		</g>
		<g id="g4581">
		</g>
		<g id="g4583">
		</g>
	</g>
	<circle id="path4718" class="st1" cx="44.1" cy="228.7" r="7.2"/>
	<circle id="path4718-5" class="st1" cx="69.3" cy="228.7" r="7.2"/>
	<circle id="path4718-5-6" class="st1" cx="94.5" cy="228.7" r="7.2"/>
	<circle id="path4718-5-6-7" class="st1" cx="119.7" cy="228.7" r="7.2"/>
	<circle id="path4718-5-6-7-9" class="st1" cx="144.9" cy="228.7" r="7.2"/>
	<circle id="path4718-5-6-7-9-9" class="st1" cx="170.1" cy="228.7" r="7.2"/>
	<circle id="path4718-5-6-7-9-9-5" class="st1" cx="195.2" cy="228.8" r="7.2"/>
	<circle id="path4718-2" class="st1" cx="44.1" cy="207.1" r="7.2"/>
	<circle id="path4718-5-9" class="st1" cx="69.3" cy="207.1" r="7.2"/>
	<circle id="path4718-5-6-0" class="st1" cx="94.5" cy="207.1" r="7.2"/>
	<circle id="path4718-5-6-7-91" class="st1" cx="119.7" cy="207.1" r="7.2"/>
	<circle id="path4718-5-6-7-9-91" class="st1" cx="144.9" cy="207.1" r="7.2"/>
	<circle id="path4718-5-6-7-9-9-9" class="st1" cx="170.1" cy="207.1" r="7.2"/>
	<circle id="path4718-5-6-7-9-9-5-8" class="st1" cx="195.2" cy="207.2" r="7.2"/>
	<circle id="path4718-2-3" class="st1" cx="44.1" cy="185.5" r="7.2"/>
	<circle id="path4718-5-9-4" class="st1" cx="69.3" cy="185.5" r="7.2"/>
	<circle id="path4718-5-6-0-7" class="st1" cx="94.5" cy="185.5" r="7.2"/>
	<circle id="path4718-5-6-7-91-6" class="st1" cx="119.7" cy="185.5" r="7.2"/>
	<circle id="path4718-5-6-7-9-91-5" class="st1" cx="144.9" cy="185.5" r="7.2"/>
	<circle id="path4718-5-6-7-9-9-9-3" class="st1" cx="170.1" cy="185.5" r="7.2"/>
	<circle id="path4718-5-6-7-9-9-5-8-6" class="st1" cx="195.2" cy="185.6" r="7.2"/>
	<circle id="path4718-2-3-9" class="st1" cx="44.1" cy="163.9" r="7.2"/>
	<circle id="path4718-5-9-4-0" class="st1" cx="69.3" cy="163.9" r="7.2"/>
	<circle id="path4718-5-6-0-7-8" class="st1" cx="94.5" cy="163.9" r="7.2"/>
	<circle id="path4718-5-6-7-91-6-7" class="st1" cx="119.7" cy="163.9" r="7.2"/>
	<circle id="path4718-5-6-7-9-91-5-6" class="st1" cx="144.9" cy="163.9" r="7.2"/>
	<circle id="path4718-5-6-7-9-9-9-3-0" class="st1" cx="170.1" cy="163.9" r="7.2"/>
	<circle id="path4718-5-6-7-9-9-5-8-6-6" class="st1" cx="195.2" cy="164" r="7.2"/>
	<circle id="path4718-2-3-9-2" class="st1" cx="44.1" cy="142.3" r="7.2"/>
	<circle id="path4718-5-9-4-0-5" class="st1" cx="69.3" cy="142.3" r="7.2"/>
	<circle id="path4718-5-6-0-7-8-0" class="st1" cx="94.5" cy="142.3" r="7.2"/>
	<circle id="path4718-5-6-7-91-6-7-7" class="st1" cx="119.7" cy="142.3" r="7.2"/>
	<circle id="path4718-5-6-7-9-91-5-6-0" class="st1" cx="144.9" cy="142.3" r="7.2"/>
	<circle id="path4718-5-6-7-9-9-9-3-0-6" class="st1" cx="170.1" cy="142.3" r="7.2"/>
	<circle id="path4718-5-6-7-9-9-5-8-6-6-4" class="st1" cx="195.2" cy="142.4" r="7.2"/>
	<circle id="path4718-2-3-9-2-2" class="st1" cx="44.1" cy="120.7" r="7.2"/>
	<circle id="path4718-5-9-4-0-5-1" class="st1" cx="69.3" cy="120.7" r="7.2"/>
	<circle id="path4718-5-6-0-7-8-0-5" class="st1" cx="94.5" cy="120.7" r="7.2"/>
	<circle id="path4718-5-6-7-91-6-7-7-4" class="st1" cx="119.7" cy="120.7" r="7.2"/>
	<circle id="path4718-5-6-7-9-91-5-6-0-0" class="st1" cx="144.9" cy="120.7" r="7.2"/>
	<circle id="path4718-5-6-7-9-9-9-3-0-6-6" class="st1" cx="170.1" cy="120.7" r="7.2"/>
	<circle id="path4718-5-6-7-9-9-5-8-6-6-4-7" class="st1" cx="195.2" cy="120.8" r="7.2"/>
	<circle id="path4718-2-3-9-2-2-4" class="st1" cx="192.4" cy="52.3" r="7.2"/>
	<rect id="rect8711" x="87.2" y="15" class="st1" width="36.3" height="7.5"/>
	<rect id="rect8713" x="32" y="16.5" class="st1" width="19.8" height="18.4"/>
	<rect id="rect8713-0" x="187.8" y="16.5" class="st1" width="19.8" height="18.4"/>
	<rect id="rect8730" x="34.8" y="73" class="st1" width="169.6" height="19.8"/>
	<rect id="rect8732" x="47.6" y="46" class="st1" width="26.1" height="11.9"/>
	<rect id="rect8734" x="62.4" y="15.4" class="st1" width="14.7" height="7.5"/>
	<rect id="rect8736" x="161.8" y="15.4" class="st1" width="14.7" height="7.5"/>
	<circle id="path4718-8" class="st1" cx="17.6" cy="230.1" r="4.6"/>
	<circle id="path4718-8-3" class="st1" cx="222.1" cy="230.1" r="4.6"/>
	<circle id="path4718-8-0" class="st1" cx="17.6" cy="24.2" r="4.6"/>
	<circle id="path4718-8-3-2" class="st1" cx="222.1" cy="24.2" r="4.6"/>
</g>
<sodipodi:namedview  bordercolor="#666666" borderopacity="1" gridtolerance="10" guidetolerance="10" id="namedview4589" inkscape:current-layer="layer2" inkscape:cx="115.02578" inkscape:cy="241.60992" inkscape:pageopacity="0" inkscape:pageshadow="2" inkscape:snap-bbox="true" inkscape:snap-center="true" inkscape:snap-intersection-paths="true" inkscape:snap-midpoints="true" inkscape:snap-object-midpoints="true" inkscape:snap-smooth-nodes="true" inkscape:window-height="1012" inkscape:window-maximized="1" inkscape:window-width="1920" inkscape:window-x="-8" inkscape:window-y="-8" inkscape:zoom="2.8284271" objecttolerance="10" pagecolor="#ffffff" showgrid="false" units="mm">
	</sodipodi:namedview>
<title  id="title2705">SVG Picture created as PCB-brd.svg date 2020/02/12 13:19:33</title>
<desc  id="desc2707">Picture generated by PCBNEW</desc>
<g id="g2709_1_" transform="translate(-3777.85,5440.981)">
</g>
<g id="g2711_1_" transform="translate(-3777.85,5440.981)">
</g>
<g id="g2713_1_" transform="translate(-3777.85,5440.981)">
</g>
<g id="g4341_1_" transform="translate(-3777.85,5440.981)">
</g>
<g id="g4343_1_" transform="translate(-3777.85,5440.981)">
</g>
<g id="layer2_1_" inkscape:groupmode="layer" inkscape:label="Cut1">
	<g id="g4585_1_" transform="translate(-1173.6834,2836.8144)">
		<path id="path4351_1_" inkscape:connector-curvature="0" class="st0" d="M1627.1-2802.5h-4.3"/>
		<path id="path4353_1_" inkscape:connector-curvature="0" class="st0" d="M1422.6-2802.5h4.3"/>
		<path id="path4355_1_" inkscape:connector-curvature="0" class="st0" d="M1432.7-2796.8c0-3.2-2.6-5.8-5.8-5.8l0,0"/>
		<path id="path4357_1_" inkscape:connector-curvature="0" class="st0" d="M1622.8-2802.5c-3.2,0-5.8,2.6-5.8,5.8l0,0"/>
		<path id="path4359_1_" inkscape:connector-curvature="0" class="st0" d="M1622.8-2616.8h4.3"/>
		<path id="path4361_1_" inkscape:connector-curvature="0" class="st0" d="M1617-2622.5c0,3.2,2.6,5.8,5.8,5.8l0,0"/>
		<path id="path4363_1_" inkscape:connector-curvature="0" class="st0" d="M1426.9-2616.8h-4.3"/>
		<path id="path4365_1_" inkscape:connector-curvature="0" class="st0" d="M1426.9-2616.8c3.2,0,5.8-2.6,5.8-5.8l0,0"/>
		<path id="path4367_1_" inkscape:connector-curvature="0" class="st0" d="M1627.1-2596.6c5.6,0,10.1-4.5,10.1-10.1
			c0-5.6-4.5-10.1-10.1-10.1"/>
		<path id="path4369_1_" inkscape:connector-curvature="0" class="st0" d="M1627.1-2802.5c5.6,0,10.1-4.5,10.1-10.1
			c0-5.6-4.5-10.1-10.1-10.1"/>
		<path id="path4371_1_" inkscape:connector-curvature="0" class="st0" d="M1422.6-2822.7c-5.6,0-10.1,4.5-10.1,10.1
			c0,5.6,4.5,10.1,10.1,10.1"/>
		<path id="path4373_1_" inkscape:connector-curvature="0" class="st0" d="M1422.6-2616.8c-5.6,0-10.1,4.5-10.1,10.1
			c0,5.6,4.5,10.1,10.1,10.1"/>
		<path id="path4375_1_" inkscape:connector-curvature="0" class="st0" d="M1422.6-2822.7h204.5"/>
		<path id="path4377_1_" inkscape:connector-curvature="0" class="st0" d="M1432.7-2622.5v-174.2"/>
		<path id="path4379_1_" inkscape:connector-curvature="0" class="st0" d="M1627.1-2596.6h-204.5"/>
		<path id="path4381_1_" inkscape:connector-curvature="0" class="st0" d="M1617-2796.8v174.2"/>
		<g id="g4383_1_">
		</g>
		<g id="g4385_1_">
		</g>
		<g id="g4387_1_">
		</g>
		<g id="g4389_1_">
		</g>
		<g id="g4391_1_">
		</g>
		<g id="g4393_1_">
		</g>
		<g id="g4395_1_">
		</g>
		<g id="g4397_1_">
		</g>
		<g id="g4399_1_">
		</g>
		<g id="g4401_1_">
		</g>
		<g id="g4403_1_">
		</g>
		<g id="g4405_1_">
		</g>
		<g id="g4407_1_">
		</g>
		<g id="g4409_1_">
		</g>
		<g id="g4411_1_">
		</g>
		<g id="g4413_1_">
		</g>
		<g id="g4415_1_">
		</g>
		<g id="g4417_1_">
		</g>
		<g id="g4419_1_">
		</g>
		<g id="g4421_1_">
		</g>
		<g id="g4423_1_">
		</g>
		<g id="g4425_1_">
		</g>
		<g id="g4427_1_">
		</g>
		<g id="g4429_1_">
		</g>
		<g id="g4431_1_">
		</g>
		<g id="g4433_1_">
		</g>
		<g id="g4435_1_">
		</g>
		<g id="g4437_1_">
		</g>
		<g id="g4439_1_">
		</g>
		<g id="g4441_1_">
		</g>
		<g id="g4443_1_">
		</g>
		<g id="g4445_1_">
		</g>
		<g id="g4447_1_">
		</g>
		<g id="g4449_1_">
		</g>
		<g id="g4451_1_">
		</g>
		<g id="g4453_1_">
		</g>
		<g id="g4455_1_">
		</g>
		<g id="g4457_1_">
		</g>
		<g id="g4459_1_">
		</g>
		<g id="g4461_1_">
		</g>
		<g id="g4463_1_">
		</g>
		<g id="g4465_1_">
		</g>
		<g id="g4467_1_">
		</g>
		<g id="g4469_1_">
		</g>
		<g id="g4471_1_">
		</g>
		<g id="g4473_1_">
		</g>
		<g id="g4475_1_">
		</g>
		<g id="g4477_1_">
		</g>
		<g id="g4479_1_">
		</g>
		<g id="g4481_1_">
		</g>
		<g id="g4483_1_">
		</g>
		<g id="g4485_1_">
		</g>
		<g id="g4487_1_">
		</g>
		<g id="g4489_1_">
		</g>
		<g id="g4491_1_">
		</g>
		<g id="g4493_1_">
		</g>
		<g id="g4495_1_">
		</g>
		<g id="g4497_1_">
		</g>
		<g id="g4499_1_">
		</g>
		<g id="g4501_1_">
		</g>
		<g id="g4503_1_">
		</g>
		<g id="g4505_1_">
		</g>
		<g id="g4507_1_">
		</g>
		<g id="g4509_1_">
		</g>
		<g id="g4511_1_">
		</g>
		<g id="g4513_1_">
		</g>
		<g id="g4515_1_">
		</g>
		<g id="g4517_1_">
		</g>
		<g id="g4519_1_">
		</g>
		<g id="g4521_1_">
		</g>
		<g id="g4523_1_">
		</g>
		<g id="g4525_1_">
		</g>
		<g id="g4527_1_">
		</g>
		<g id="g4529_1_">
		</g>
		<g id="g4531_1_">
		</g>
		<g id="g4533_1_">
		</g>
		<g id="g4535_1_">
		</g>
		<g id="g4537_1_">
		</g>
		<g id="g4539_1_">
		</g>
		<g id="g4541_1_">
		</g>
		<g id="g4543_1_">
		</g>
		<g id="g4545_1_">
		</g>
		<g id="g4547_1_">
		</g>
		<g id="g4549_1_">
		</g>
		<g id="g4551_1_">
		</g>
		<g id="g4553_1_">
		</g>
		<g id="g4555_1_">
		</g>
		<g id="g4557_1_">
		</g>
		<g id="g4559_1_">
		</g>
		<g id="g4561_1_">
		</g>
		<g id="g4563_1_">
		</g>
		<g id="g4565_1_">
		</g>
		<g id="g4567_1_">
		</g>
		<g id="g4569_1_">
		</g>
		<g id="g4571_1_">
		</g>
		<g id="g4573_1_">
		</g>
		<g id="g4575_1_">
		</g>
		<g id="g4577_1_">
		</g>
		<g id="g4579_1_">
		</g>
		<g id="g4581_1_">
		</g>
		<g id="g4583_1_">
		</g>
	</g>
	<circle id="path4718-8_1_" class="st1" cx="248.9" cy="230.1" r="4.6"/>
	<circle id="path4718-8-3_1_" class="st1" cx="453.4" cy="230.1" r="4.6"/>
	<circle id="path4718-8-0_1_" class="st1" cx="248.9" cy="24.2" r="4.6"/>
	<circle id="path4718-8-3-2_1_" class="st1" cx="453.4" cy="24.2" r="4.6"/>
</g>
</svg>
