G04 #@! TF.GenerationSoftware,KiCad,Pcbnew,(5.1.5)-3*
G04 #@! TF.CreationDate,2020-04-21T16:30:52-04:00*
G04 #@! TF.ProjectId,PCB,5043422e-6b69-4636-9164-5f7063625858,rev?*
G04 #@! TF.SameCoordinates,Original*
G04 #@! TF.FileFunction,Legend,Bot*
G04 #@! TF.FilePolarity,Positive*
%FSLAX46Y46*%
G04 Gerber Fmt 4.6, Leading zero omitted, Abs format (unit mm)*
G04 Created by KiCad (PCBNEW (5.1.5)-3) date 2020-04-21 16:30:52*
%MOMM*%
%LPD*%
G04 APERTURE LIST*
%ADD10C,0.150000*%
%ADD11C,0.190500*%
%ADD12C,0.010000*%
G04 APERTURE END LIST*
D10*
X132532380Y-105490666D02*
X131532380Y-105490666D01*
X131532380Y-105728761D01*
X131580000Y-105871619D01*
X131675238Y-105966857D01*
X131770476Y-106014476D01*
X131960952Y-106062095D01*
X132103809Y-106062095D01*
X132294285Y-106014476D01*
X132389523Y-105966857D01*
X132484761Y-105871619D01*
X132532380Y-105728761D01*
X132532380Y-105490666D01*
X132484761Y-106871619D02*
X132532380Y-106776380D01*
X132532380Y-106585904D01*
X132484761Y-106490666D01*
X132389523Y-106443047D01*
X132008571Y-106443047D01*
X131913333Y-106490666D01*
X131865714Y-106585904D01*
X131865714Y-106776380D01*
X131913333Y-106871619D01*
X132008571Y-106919238D01*
X132103809Y-106919238D01*
X132199047Y-106443047D01*
X132484761Y-107300190D02*
X132532380Y-107395428D01*
X132532380Y-107585904D01*
X132484761Y-107681142D01*
X132389523Y-107728761D01*
X132341904Y-107728761D01*
X132246666Y-107681142D01*
X132199047Y-107585904D01*
X132199047Y-107443047D01*
X132151428Y-107347809D01*
X132056190Y-107300190D01*
X132008571Y-107300190D01*
X131913333Y-107347809D01*
X131865714Y-107443047D01*
X131865714Y-107585904D01*
X131913333Y-107681142D01*
X132532380Y-108157333D02*
X131865714Y-108157333D01*
X131532380Y-108157333D02*
X131580000Y-108109714D01*
X131627619Y-108157333D01*
X131580000Y-108204952D01*
X131532380Y-108157333D01*
X131627619Y-108157333D01*
X131865714Y-109062095D02*
X132675238Y-109062095D01*
X132770476Y-109014476D01*
X132818095Y-108966857D01*
X132865714Y-108871619D01*
X132865714Y-108728761D01*
X132818095Y-108633523D01*
X132484761Y-109062095D02*
X132532380Y-108966857D01*
X132532380Y-108776380D01*
X132484761Y-108681142D01*
X132437142Y-108633523D01*
X132341904Y-108585904D01*
X132056190Y-108585904D01*
X131960952Y-108633523D01*
X131913333Y-108681142D01*
X131865714Y-108776380D01*
X131865714Y-108966857D01*
X131913333Y-109062095D01*
X131865714Y-109538285D02*
X132532380Y-109538285D01*
X131960952Y-109538285D02*
X131913333Y-109585904D01*
X131865714Y-109681142D01*
X131865714Y-109824000D01*
X131913333Y-109919238D01*
X132008571Y-109966857D01*
X132532380Y-109966857D01*
X132484761Y-110824000D02*
X132532380Y-110728761D01*
X132532380Y-110538285D01*
X132484761Y-110443047D01*
X132389523Y-110395428D01*
X132008571Y-110395428D01*
X131913333Y-110443047D01*
X131865714Y-110538285D01*
X131865714Y-110728761D01*
X131913333Y-110824000D01*
X132008571Y-110871619D01*
X132103809Y-110871619D01*
X132199047Y-110395428D01*
X132532380Y-111728761D02*
X131532380Y-111728761D01*
X132484761Y-111728761D02*
X132532380Y-111633523D01*
X132532380Y-111443047D01*
X132484761Y-111347809D01*
X132437142Y-111300190D01*
X132341904Y-111252571D01*
X132056190Y-111252571D01*
X131960952Y-111300190D01*
X131913333Y-111347809D01*
X131865714Y-111443047D01*
X131865714Y-111633523D01*
X131913333Y-111728761D01*
X132532380Y-112966857D02*
X131532380Y-112966857D01*
X131913333Y-112966857D02*
X131865714Y-113062095D01*
X131865714Y-113252571D01*
X131913333Y-113347809D01*
X131960952Y-113395428D01*
X132056190Y-113443047D01*
X132341904Y-113443047D01*
X132437142Y-113395428D01*
X132484761Y-113347809D01*
X132532380Y-113252571D01*
X132532380Y-113062095D01*
X132484761Y-112966857D01*
X131865714Y-113776380D02*
X132532380Y-114014476D01*
X131865714Y-114252571D02*
X132532380Y-114014476D01*
X132770476Y-113919238D01*
X132818095Y-113871619D01*
X132865714Y-113776380D01*
X131532380Y-115681142D02*
X132246666Y-115681142D01*
X132389523Y-115633523D01*
X132484761Y-115538285D01*
X132532380Y-115395428D01*
X132532380Y-115300190D01*
X132532380Y-116585904D02*
X132008571Y-116585904D01*
X131913333Y-116538285D01*
X131865714Y-116443047D01*
X131865714Y-116252571D01*
X131913333Y-116157333D01*
X132484761Y-116585904D02*
X132532380Y-116490666D01*
X132532380Y-116252571D01*
X132484761Y-116157333D01*
X132389523Y-116109714D01*
X132294285Y-116109714D01*
X132199047Y-116157333D01*
X132151428Y-116252571D01*
X132151428Y-116490666D01*
X132103809Y-116585904D01*
X132532380Y-117062095D02*
X131865714Y-117062095D01*
X131960952Y-117062095D02*
X131913333Y-117109714D01*
X131865714Y-117204952D01*
X131865714Y-117347809D01*
X131913333Y-117443047D01*
X132008571Y-117490666D01*
X132532380Y-117490666D01*
X132008571Y-117490666D02*
X131913333Y-117538285D01*
X131865714Y-117633523D01*
X131865714Y-117776380D01*
X131913333Y-117871619D01*
X132008571Y-117919238D01*
X132532380Y-117919238D01*
X132532380Y-118824000D02*
X132008571Y-118824000D01*
X131913333Y-118776380D01*
X131865714Y-118681142D01*
X131865714Y-118490666D01*
X131913333Y-118395428D01*
X132484761Y-118824000D02*
X132532380Y-118728761D01*
X132532380Y-118490666D01*
X132484761Y-118395428D01*
X132389523Y-118347809D01*
X132294285Y-118347809D01*
X132199047Y-118395428D01*
X132151428Y-118490666D01*
X132151428Y-118728761D01*
X132103809Y-118824000D01*
X132532380Y-119443047D02*
X132484761Y-119347809D01*
X132389523Y-119300190D01*
X131532380Y-119300190D01*
X132008571Y-120919238D02*
X132056190Y-121062095D01*
X132103809Y-121109714D01*
X132199047Y-121157333D01*
X132341904Y-121157333D01*
X132437142Y-121109714D01*
X132484761Y-121062095D01*
X132532380Y-120966857D01*
X132532380Y-120585904D01*
X131532380Y-120585904D01*
X131532380Y-120919238D01*
X131580000Y-121014476D01*
X131627619Y-121062095D01*
X131722857Y-121109714D01*
X131818095Y-121109714D01*
X131913333Y-121062095D01*
X131960952Y-121014476D01*
X132008571Y-120919238D01*
X132008571Y-120585904D01*
X132532380Y-121728761D02*
X132484761Y-121633523D01*
X132437142Y-121585904D01*
X132341904Y-121538285D01*
X132056190Y-121538285D01*
X131960952Y-121585904D01*
X131913333Y-121633523D01*
X131865714Y-121728761D01*
X131865714Y-121871619D01*
X131913333Y-121966857D01*
X131960952Y-122014476D01*
X132056190Y-122062095D01*
X132341904Y-122062095D01*
X132437142Y-122014476D01*
X132484761Y-121966857D01*
X132532380Y-121871619D01*
X132532380Y-121728761D01*
X131865714Y-122919238D02*
X132532380Y-122919238D01*
X131865714Y-122490666D02*
X132389523Y-122490666D01*
X132484761Y-122538285D01*
X132532380Y-122633523D01*
X132532380Y-122776380D01*
X132484761Y-122871619D01*
X132437142Y-122919238D01*
X132532380Y-123824000D02*
X132008571Y-123824000D01*
X131913333Y-123776380D01*
X131865714Y-123681142D01*
X131865714Y-123490666D01*
X131913333Y-123395428D01*
X132484761Y-123824000D02*
X132532380Y-123728761D01*
X132532380Y-123490666D01*
X132484761Y-123395428D01*
X132389523Y-123347809D01*
X132294285Y-123347809D01*
X132199047Y-123395428D01*
X132151428Y-123490666D01*
X132151428Y-123728761D01*
X132103809Y-123824000D01*
X131865714Y-124300190D02*
X132722857Y-124300190D01*
X132818095Y-124252571D01*
X132865714Y-124157333D01*
X132865714Y-124109714D01*
X131532380Y-124300190D02*
X131580000Y-124252571D01*
X131627619Y-124300190D01*
X131580000Y-124347809D01*
X131532380Y-124300190D01*
X131627619Y-124300190D01*
X131865714Y-124776380D02*
X132722857Y-124776380D01*
X132818095Y-124728761D01*
X132865714Y-124633523D01*
X132865714Y-124585904D01*
X131532380Y-124776380D02*
X131580000Y-124728761D01*
X131627619Y-124776380D01*
X131580000Y-124824000D01*
X131532380Y-124776380D01*
X131627619Y-124776380D01*
X132532380Y-125681142D02*
X132008571Y-125681142D01*
X131913333Y-125633523D01*
X131865714Y-125538285D01*
X131865714Y-125347809D01*
X131913333Y-125252571D01*
X132484761Y-125681142D02*
X132532380Y-125585904D01*
X132532380Y-125347809D01*
X132484761Y-125252571D01*
X132389523Y-125204952D01*
X132294285Y-125204952D01*
X132199047Y-125252571D01*
X132151428Y-125347809D01*
X132151428Y-125585904D01*
X132103809Y-125681142D01*
X131865714Y-126157333D02*
X132722857Y-126157333D01*
X132818095Y-126109714D01*
X132865714Y-126014476D01*
X132865714Y-125966857D01*
X131532380Y-126157333D02*
X131580000Y-126109714D01*
X131627619Y-126157333D01*
X131580000Y-126204952D01*
X131532380Y-126157333D01*
X131627619Y-126157333D01*
D11*
X130592285Y-103595714D02*
X130664857Y-103523142D01*
X130737428Y-103305428D01*
X130737428Y-103160285D01*
X130664857Y-102942571D01*
X130519714Y-102797428D01*
X130374571Y-102724857D01*
X130084285Y-102652285D01*
X129866571Y-102652285D01*
X129576285Y-102724857D01*
X129431142Y-102797428D01*
X129286000Y-102942571D01*
X129213428Y-103160285D01*
X129213428Y-103305428D01*
X129286000Y-103523142D01*
X129358571Y-103595714D01*
X130737428Y-104466571D02*
X130664857Y-104321428D01*
X130592285Y-104248857D01*
X130447142Y-104176285D01*
X130011714Y-104176285D01*
X129866571Y-104248857D01*
X129794000Y-104321428D01*
X129721428Y-104466571D01*
X129721428Y-104684285D01*
X129794000Y-104829428D01*
X129866571Y-104902000D01*
X130011714Y-104974571D01*
X130447142Y-104974571D01*
X130592285Y-104902000D01*
X130664857Y-104829428D01*
X130737428Y-104684285D01*
X130737428Y-104466571D01*
X129721428Y-105627714D02*
X130737428Y-105627714D01*
X129866571Y-105627714D02*
X129794000Y-105700285D01*
X129721428Y-105845428D01*
X129721428Y-106063142D01*
X129794000Y-106208285D01*
X129939142Y-106280857D01*
X130737428Y-106280857D01*
X129721428Y-107006571D02*
X130737428Y-107006571D01*
X129866571Y-107006571D02*
X129794000Y-107079142D01*
X129721428Y-107224285D01*
X129721428Y-107442000D01*
X129794000Y-107587142D01*
X129939142Y-107659714D01*
X130737428Y-107659714D01*
X130664857Y-108966000D02*
X130737428Y-108820857D01*
X130737428Y-108530571D01*
X130664857Y-108385428D01*
X130519714Y-108312857D01*
X129939142Y-108312857D01*
X129794000Y-108385428D01*
X129721428Y-108530571D01*
X129721428Y-108820857D01*
X129794000Y-108966000D01*
X129939142Y-109038571D01*
X130084285Y-109038571D01*
X130229428Y-108312857D01*
X130664857Y-110344857D02*
X130737428Y-110199714D01*
X130737428Y-109909428D01*
X130664857Y-109764285D01*
X130592285Y-109691714D01*
X130447142Y-109619142D01*
X130011714Y-109619142D01*
X129866571Y-109691714D01*
X129794000Y-109764285D01*
X129721428Y-109909428D01*
X129721428Y-110199714D01*
X129794000Y-110344857D01*
X129721428Y-110780285D02*
X129721428Y-111360857D01*
X129213428Y-110998000D02*
X130519714Y-110998000D01*
X130664857Y-111070571D01*
X130737428Y-111215714D01*
X130737428Y-111360857D01*
X129721428Y-113683142D02*
X130737428Y-113683142D01*
X129140857Y-113320285D02*
X130229428Y-112957428D01*
X130229428Y-113900857D01*
X130664857Y-115570000D02*
X130737428Y-115787714D01*
X130737428Y-116150571D01*
X130664857Y-116295714D01*
X130592285Y-116368285D01*
X130447142Y-116440857D01*
X130302000Y-116440857D01*
X130156857Y-116368285D01*
X130084285Y-116295714D01*
X130011714Y-116150571D01*
X129939142Y-115860285D01*
X129866571Y-115715142D01*
X129794000Y-115642571D01*
X129648857Y-115570000D01*
X129503714Y-115570000D01*
X129358571Y-115642571D01*
X129286000Y-115715142D01*
X129213428Y-115860285D01*
X129213428Y-116223142D01*
X129286000Y-116440857D01*
X130737428Y-117311714D02*
X130664857Y-117166571D01*
X130592285Y-117094000D01*
X130447142Y-117021428D01*
X130011714Y-117021428D01*
X129866571Y-117094000D01*
X129794000Y-117166571D01*
X129721428Y-117311714D01*
X129721428Y-117529428D01*
X129794000Y-117674571D01*
X129866571Y-117747142D01*
X130011714Y-117819714D01*
X130447142Y-117819714D01*
X130592285Y-117747142D01*
X130664857Y-117674571D01*
X130737428Y-117529428D01*
X130737428Y-117311714D01*
X130737428Y-118690571D02*
X130664857Y-118545428D01*
X130519714Y-118472857D01*
X129213428Y-118472857D01*
X130737428Y-119924285D02*
X129213428Y-119924285D01*
X130664857Y-119924285D02*
X130737428Y-119779142D01*
X130737428Y-119488857D01*
X130664857Y-119343714D01*
X130592285Y-119271142D01*
X130447142Y-119198571D01*
X130011714Y-119198571D01*
X129866571Y-119271142D01*
X129794000Y-119343714D01*
X129721428Y-119488857D01*
X129721428Y-119779142D01*
X129794000Y-119924285D01*
X130664857Y-121230571D02*
X130737428Y-121085428D01*
X130737428Y-120795142D01*
X130664857Y-120650000D01*
X130519714Y-120577428D01*
X129939142Y-120577428D01*
X129794000Y-120650000D01*
X129721428Y-120795142D01*
X129721428Y-121085428D01*
X129794000Y-121230571D01*
X129939142Y-121303142D01*
X130084285Y-121303142D01*
X130229428Y-120577428D01*
X130737428Y-121956285D02*
X129721428Y-121956285D01*
X130011714Y-121956285D02*
X129866571Y-122028857D01*
X129794000Y-122101428D01*
X129721428Y-122246571D01*
X129721428Y-122391714D01*
X130737428Y-122899714D02*
X129721428Y-122899714D01*
X129213428Y-122899714D02*
X129286000Y-122827142D01*
X129358571Y-122899714D01*
X129286000Y-122972285D01*
X129213428Y-122899714D01*
X129358571Y-122899714D01*
X129721428Y-123625428D02*
X130737428Y-123625428D01*
X129866571Y-123625428D02*
X129794000Y-123698000D01*
X129721428Y-123843142D01*
X129721428Y-124060857D01*
X129794000Y-124206000D01*
X129939142Y-124278571D01*
X130737428Y-124278571D01*
X129721428Y-125657428D02*
X130955142Y-125657428D01*
X131100285Y-125584857D01*
X131172857Y-125512285D01*
X131245428Y-125367142D01*
X131245428Y-125149428D01*
X131172857Y-125004285D01*
X130664857Y-125657428D02*
X130737428Y-125512285D01*
X130737428Y-125222000D01*
X130664857Y-125076857D01*
X130592285Y-125004285D01*
X130447142Y-124931714D01*
X130011714Y-124931714D01*
X129866571Y-125004285D01*
X129794000Y-125076857D01*
X129721428Y-125222000D01*
X129721428Y-125512285D01*
X129794000Y-125657428D01*
X130737428Y-127544285D02*
X129213428Y-127544285D01*
X130737428Y-128415142D02*
X129866571Y-127762000D01*
X129213428Y-128415142D02*
X130084285Y-127544285D01*
X130737428Y-129068285D02*
X129721428Y-129068285D01*
X129213428Y-129068285D02*
X129286000Y-128995714D01*
X129358571Y-129068285D01*
X129286000Y-129140857D01*
X129213428Y-129068285D01*
X129358571Y-129068285D01*
X129721428Y-129576285D02*
X129721428Y-130156857D01*
X129213428Y-129794000D02*
X130519714Y-129794000D01*
X130664857Y-129866571D01*
X130737428Y-130011714D01*
X130737428Y-130156857D01*
D12*
G36*
X115077465Y-102329172D02*
G01*
X114964883Y-102926363D01*
X114549469Y-103097610D01*
X114134056Y-103268857D01*
X113635698Y-102929978D01*
X113496132Y-102835622D01*
X113369972Y-102751375D01*
X113263105Y-102681083D01*
X113181418Y-102628592D01*
X113130799Y-102597749D01*
X113117014Y-102591098D01*
X113092180Y-102608203D01*
X113039112Y-102655489D01*
X112963760Y-102726917D01*
X112872071Y-102816445D01*
X112769993Y-102918034D01*
X112663474Y-103025643D01*
X112558464Y-103133232D01*
X112460909Y-103234760D01*
X112376758Y-103324186D01*
X112311960Y-103395471D01*
X112272462Y-103442573D01*
X112263020Y-103458337D01*
X112276609Y-103487398D01*
X112314707Y-103551066D01*
X112373306Y-103643112D01*
X112448403Y-103757309D01*
X112535991Y-103887429D01*
X112586746Y-103961646D01*
X112679255Y-104097167D01*
X112761460Y-104219461D01*
X112829370Y-104322440D01*
X112879000Y-104400018D01*
X112906360Y-104446106D01*
X112910471Y-104455792D01*
X112901151Y-104483319D01*
X112875746Y-104547473D01*
X112838089Y-104639235D01*
X112792014Y-104749584D01*
X112741354Y-104869500D01*
X112689941Y-104989964D01*
X112641611Y-105101954D01*
X112600194Y-105196452D01*
X112569526Y-105264437D01*
X112553438Y-105296888D01*
X112552489Y-105298165D01*
X112527228Y-105304362D01*
X112459954Y-105318185D01*
X112357640Y-105338277D01*
X112227259Y-105363279D01*
X112075784Y-105391831D01*
X111987406Y-105408296D01*
X111825548Y-105439114D01*
X111679351Y-105468439D01*
X111556213Y-105494666D01*
X111463531Y-105516191D01*
X111408699Y-105531410D01*
X111397677Y-105536238D01*
X111386881Y-105568919D01*
X111378171Y-105642730D01*
X111371540Y-105749037D01*
X111366982Y-105879212D01*
X111364491Y-106024621D01*
X111364062Y-106176635D01*
X111365689Y-106326622D01*
X111369365Y-106465951D01*
X111375085Y-106585990D01*
X111382842Y-106678110D01*
X111392632Y-106733677D01*
X111398504Y-106745245D01*
X111433601Y-106759110D01*
X111507972Y-106778933D01*
X111611777Y-106802384D01*
X111735181Y-106827136D01*
X111778259Y-106835143D01*
X111985953Y-106873186D01*
X112150016Y-106903824D01*
X112275870Y-106928274D01*
X112368935Y-106947754D01*
X112434633Y-106963481D01*
X112478383Y-106976673D01*
X112505608Y-106988549D01*
X112521728Y-107000325D01*
X112523983Y-107002653D01*
X112546497Y-107040145D01*
X112580842Y-107113110D01*
X112623589Y-107212612D01*
X112671308Y-107329718D01*
X112720570Y-107455493D01*
X112767945Y-107581002D01*
X112810005Y-107697310D01*
X112843320Y-107795484D01*
X112864459Y-107866588D01*
X112869995Y-107901687D01*
X112869534Y-107902917D01*
X112850777Y-107931606D01*
X112808224Y-107994730D01*
X112746347Y-108085718D01*
X112669618Y-108198000D01*
X112582509Y-108325005D01*
X112557701Y-108361098D01*
X112469247Y-108491948D01*
X112391412Y-108611336D01*
X112328434Y-108712407D01*
X112284555Y-108788304D01*
X112264015Y-108832172D01*
X112263020Y-108837562D01*
X112280278Y-108865889D01*
X112327964Y-108922006D01*
X112399950Y-108999882D01*
X112490103Y-109093485D01*
X112592295Y-109196786D01*
X112700394Y-109303751D01*
X112808272Y-109408351D01*
X112909796Y-109504554D01*
X112998838Y-109586329D01*
X113069267Y-109647645D01*
X113114953Y-109682471D01*
X113127591Y-109688157D01*
X113157009Y-109674765D01*
X113217239Y-109638644D01*
X113298470Y-109585881D01*
X113360970Y-109543412D01*
X113474215Y-109465485D01*
X113608326Y-109373729D01*
X113742845Y-109282120D01*
X113815167Y-109233091D01*
X114059962Y-109067515D01*
X114265449Y-109178620D01*
X114359064Y-109227293D01*
X114438670Y-109265126D01*
X114492533Y-109286703D01*
X114506243Y-109289706D01*
X114522730Y-109267538D01*
X114555255Y-109204894D01*
X114601391Y-109107554D01*
X114658710Y-108981294D01*
X114724784Y-108831895D01*
X114797185Y-108665133D01*
X114873484Y-108486787D01*
X114951254Y-108302636D01*
X115028066Y-108118457D01*
X115101494Y-107940030D01*
X115169108Y-107773132D01*
X115228480Y-107623542D01*
X115277184Y-107497038D01*
X115312790Y-107399399D01*
X115332870Y-107336402D01*
X115336100Y-107314766D01*
X115310504Y-107287169D01*
X115254461Y-107242370D01*
X115179689Y-107189679D01*
X115173413Y-107185510D01*
X114980155Y-107030814D01*
X114824326Y-106850336D01*
X114707276Y-106649847D01*
X114630355Y-106435119D01*
X114594914Y-106211922D01*
X114602303Y-105986026D01*
X114653873Y-105763204D01*
X114750974Y-105549224D01*
X114779542Y-105502409D01*
X114928132Y-105313363D01*
X115103673Y-105161557D01*
X115300090Y-105047779D01*
X115511307Y-104972820D01*
X115731247Y-104937467D01*
X115953837Y-104942512D01*
X116172999Y-104988744D01*
X116382658Y-105076951D01*
X116576739Y-105207924D01*
X116636774Y-105261082D01*
X116789565Y-105427484D01*
X116900903Y-105602657D01*
X116977277Y-105799011D01*
X117019813Y-105993462D01*
X117030314Y-106212087D01*
X116995299Y-106431797D01*
X116918327Y-106645165D01*
X116802953Y-106844767D01*
X116652734Y-107023174D01*
X116471227Y-107172962D01*
X116447373Y-107188751D01*
X116371799Y-107240457D01*
X116314349Y-107285257D01*
X116286883Y-107313862D01*
X116286483Y-107314766D01*
X116292380Y-107345709D01*
X116315755Y-107415936D01*
X116354179Y-107519670D01*
X116405223Y-107651135D01*
X116466458Y-107804552D01*
X116535456Y-107974146D01*
X116609786Y-108154138D01*
X116687022Y-108338753D01*
X116764732Y-108522213D01*
X116840489Y-108698741D01*
X116911863Y-108862559D01*
X116976426Y-109007892D01*
X117031748Y-109128962D01*
X117075400Y-109219992D01*
X117104954Y-109275205D01*
X117116856Y-109289706D01*
X117153223Y-109278414D01*
X117221270Y-109248130D01*
X117309263Y-109204265D01*
X117357649Y-109178620D01*
X117563137Y-109067515D01*
X117807932Y-109233091D01*
X117932894Y-109317915D01*
X118069705Y-109411261D01*
X118197911Y-109499153D01*
X118262129Y-109543412D01*
X118352449Y-109604063D01*
X118428929Y-109652126D01*
X118481593Y-109681515D01*
X118498698Y-109687727D01*
X118523595Y-109670968D01*
X118578695Y-109624181D01*
X118658657Y-109552225D01*
X118758139Y-109459957D01*
X118871800Y-109352235D01*
X118943685Y-109283071D01*
X119069449Y-109159502D01*
X119178137Y-109048979D01*
X119265355Y-108956230D01*
X119326711Y-108885982D01*
X119357809Y-108842965D01*
X119360792Y-108834235D01*
X119346947Y-108801029D01*
X119308688Y-108733887D01*
X119250258Y-108639608D01*
X119175903Y-108524990D01*
X119089865Y-108396828D01*
X119065397Y-108361098D01*
X118976245Y-108231234D01*
X118896262Y-108114314D01*
X118829920Y-108016907D01*
X118781689Y-107945584D01*
X118756043Y-107906915D01*
X118753565Y-107902917D01*
X118757271Y-107872100D01*
X118776939Y-107804344D01*
X118809140Y-107708584D01*
X118850445Y-107593754D01*
X118897425Y-107468789D01*
X118946651Y-107342624D01*
X118994692Y-107224193D01*
X119038119Y-107122430D01*
X119073504Y-107046271D01*
X119097416Y-107004649D01*
X119099116Y-107002653D01*
X119113738Y-106990758D01*
X119138435Y-106978995D01*
X119178628Y-106966146D01*
X119239737Y-106950994D01*
X119327183Y-106932321D01*
X119446388Y-106908910D01*
X119602773Y-106879542D01*
X119801757Y-106843000D01*
X119844840Y-106835143D01*
X119972529Y-106810472D01*
X120083847Y-106786338D01*
X120168955Y-106765069D01*
X120218017Y-106748993D01*
X120224595Y-106745245D01*
X120235436Y-106712018D01*
X120244247Y-106637766D01*
X120251024Y-106531121D01*
X120255760Y-106400712D01*
X120258450Y-106255172D01*
X120259087Y-106103131D01*
X120257666Y-105953221D01*
X120254180Y-105814073D01*
X120248624Y-105694317D01*
X120240992Y-105602586D01*
X120231278Y-105547511D01*
X120225422Y-105536238D01*
X120192820Y-105524868D01*
X120118582Y-105506369D01*
X120010104Y-105482347D01*
X119874783Y-105454407D01*
X119720015Y-105424153D01*
X119635692Y-105408296D01*
X119475704Y-105378389D01*
X119333033Y-105351295D01*
X119214652Y-105328376D01*
X119127535Y-105310988D01*
X119078655Y-105300492D01*
X119070610Y-105298165D01*
X119057013Y-105271931D01*
X119028271Y-105208740D01*
X118988215Y-105117622D01*
X118940676Y-105007602D01*
X118889485Y-104887710D01*
X118838474Y-104766972D01*
X118791474Y-104654416D01*
X118752316Y-104559071D01*
X118724831Y-104489962D01*
X118712851Y-104456119D01*
X118712628Y-104454640D01*
X118726209Y-104427942D01*
X118764285Y-104366505D01*
X118822853Y-104276434D01*
X118897912Y-104163835D01*
X118985460Y-104034815D01*
X119036353Y-103960706D01*
X119129091Y-103824822D01*
X119211459Y-103701454D01*
X119279439Y-103596842D01*
X119329012Y-103517228D01*
X119356158Y-103468852D01*
X119360079Y-103458007D01*
X119343225Y-103432765D01*
X119296632Y-103378869D01*
X119226251Y-103302358D01*
X119138035Y-103209268D01*
X119037935Y-103105640D01*
X118931902Y-102997509D01*
X118825889Y-102890915D01*
X118725848Y-102791895D01*
X118637730Y-102706487D01*
X118567487Y-102640730D01*
X118521072Y-102600661D01*
X118505544Y-102591098D01*
X118480261Y-102604545D01*
X118419789Y-102642320D01*
X118330008Y-102700580D01*
X118216797Y-102775479D01*
X118086036Y-102863170D01*
X117987400Y-102929978D01*
X117489043Y-103268857D01*
X117073629Y-103097610D01*
X116658216Y-102926363D01*
X116545634Y-102329172D01*
X116433051Y-101731980D01*
X115190048Y-101731980D01*
X115077465Y-102329172D01*
G37*
X115077465Y-102329172D02*
X114964883Y-102926363D01*
X114549469Y-103097610D01*
X114134056Y-103268857D01*
X113635698Y-102929978D01*
X113496132Y-102835622D01*
X113369972Y-102751375D01*
X113263105Y-102681083D01*
X113181418Y-102628592D01*
X113130799Y-102597749D01*
X113117014Y-102591098D01*
X113092180Y-102608203D01*
X113039112Y-102655489D01*
X112963760Y-102726917D01*
X112872071Y-102816445D01*
X112769993Y-102918034D01*
X112663474Y-103025643D01*
X112558464Y-103133232D01*
X112460909Y-103234760D01*
X112376758Y-103324186D01*
X112311960Y-103395471D01*
X112272462Y-103442573D01*
X112263020Y-103458337D01*
X112276609Y-103487398D01*
X112314707Y-103551066D01*
X112373306Y-103643112D01*
X112448403Y-103757309D01*
X112535991Y-103887429D01*
X112586746Y-103961646D01*
X112679255Y-104097167D01*
X112761460Y-104219461D01*
X112829370Y-104322440D01*
X112879000Y-104400018D01*
X112906360Y-104446106D01*
X112910471Y-104455792D01*
X112901151Y-104483319D01*
X112875746Y-104547473D01*
X112838089Y-104639235D01*
X112792014Y-104749584D01*
X112741354Y-104869500D01*
X112689941Y-104989964D01*
X112641611Y-105101954D01*
X112600194Y-105196452D01*
X112569526Y-105264437D01*
X112553438Y-105296888D01*
X112552489Y-105298165D01*
X112527228Y-105304362D01*
X112459954Y-105318185D01*
X112357640Y-105338277D01*
X112227259Y-105363279D01*
X112075784Y-105391831D01*
X111987406Y-105408296D01*
X111825548Y-105439114D01*
X111679351Y-105468439D01*
X111556213Y-105494666D01*
X111463531Y-105516191D01*
X111408699Y-105531410D01*
X111397677Y-105536238D01*
X111386881Y-105568919D01*
X111378171Y-105642730D01*
X111371540Y-105749037D01*
X111366982Y-105879212D01*
X111364491Y-106024621D01*
X111364062Y-106176635D01*
X111365689Y-106326622D01*
X111369365Y-106465951D01*
X111375085Y-106585990D01*
X111382842Y-106678110D01*
X111392632Y-106733677D01*
X111398504Y-106745245D01*
X111433601Y-106759110D01*
X111507972Y-106778933D01*
X111611777Y-106802384D01*
X111735181Y-106827136D01*
X111778259Y-106835143D01*
X111985953Y-106873186D01*
X112150016Y-106903824D01*
X112275870Y-106928274D01*
X112368935Y-106947754D01*
X112434633Y-106963481D01*
X112478383Y-106976673D01*
X112505608Y-106988549D01*
X112521728Y-107000325D01*
X112523983Y-107002653D01*
X112546497Y-107040145D01*
X112580842Y-107113110D01*
X112623589Y-107212612D01*
X112671308Y-107329718D01*
X112720570Y-107455493D01*
X112767945Y-107581002D01*
X112810005Y-107697310D01*
X112843320Y-107795484D01*
X112864459Y-107866588D01*
X112869995Y-107901687D01*
X112869534Y-107902917D01*
X112850777Y-107931606D01*
X112808224Y-107994730D01*
X112746347Y-108085718D01*
X112669618Y-108198000D01*
X112582509Y-108325005D01*
X112557701Y-108361098D01*
X112469247Y-108491948D01*
X112391412Y-108611336D01*
X112328434Y-108712407D01*
X112284555Y-108788304D01*
X112264015Y-108832172D01*
X112263020Y-108837562D01*
X112280278Y-108865889D01*
X112327964Y-108922006D01*
X112399950Y-108999882D01*
X112490103Y-109093485D01*
X112592295Y-109196786D01*
X112700394Y-109303751D01*
X112808272Y-109408351D01*
X112909796Y-109504554D01*
X112998838Y-109586329D01*
X113069267Y-109647645D01*
X113114953Y-109682471D01*
X113127591Y-109688157D01*
X113157009Y-109674765D01*
X113217239Y-109638644D01*
X113298470Y-109585881D01*
X113360970Y-109543412D01*
X113474215Y-109465485D01*
X113608326Y-109373729D01*
X113742845Y-109282120D01*
X113815167Y-109233091D01*
X114059962Y-109067515D01*
X114265449Y-109178620D01*
X114359064Y-109227293D01*
X114438670Y-109265126D01*
X114492533Y-109286703D01*
X114506243Y-109289706D01*
X114522730Y-109267538D01*
X114555255Y-109204894D01*
X114601391Y-109107554D01*
X114658710Y-108981294D01*
X114724784Y-108831895D01*
X114797185Y-108665133D01*
X114873484Y-108486787D01*
X114951254Y-108302636D01*
X115028066Y-108118457D01*
X115101494Y-107940030D01*
X115169108Y-107773132D01*
X115228480Y-107623542D01*
X115277184Y-107497038D01*
X115312790Y-107399399D01*
X115332870Y-107336402D01*
X115336100Y-107314766D01*
X115310504Y-107287169D01*
X115254461Y-107242370D01*
X115179689Y-107189679D01*
X115173413Y-107185510D01*
X114980155Y-107030814D01*
X114824326Y-106850336D01*
X114707276Y-106649847D01*
X114630355Y-106435119D01*
X114594914Y-106211922D01*
X114602303Y-105986026D01*
X114653873Y-105763204D01*
X114750974Y-105549224D01*
X114779542Y-105502409D01*
X114928132Y-105313363D01*
X115103673Y-105161557D01*
X115300090Y-105047779D01*
X115511307Y-104972820D01*
X115731247Y-104937467D01*
X115953837Y-104942512D01*
X116172999Y-104988744D01*
X116382658Y-105076951D01*
X116576739Y-105207924D01*
X116636774Y-105261082D01*
X116789565Y-105427484D01*
X116900903Y-105602657D01*
X116977277Y-105799011D01*
X117019813Y-105993462D01*
X117030314Y-106212087D01*
X116995299Y-106431797D01*
X116918327Y-106645165D01*
X116802953Y-106844767D01*
X116652734Y-107023174D01*
X116471227Y-107172962D01*
X116447373Y-107188751D01*
X116371799Y-107240457D01*
X116314349Y-107285257D01*
X116286883Y-107313862D01*
X116286483Y-107314766D01*
X116292380Y-107345709D01*
X116315755Y-107415936D01*
X116354179Y-107519670D01*
X116405223Y-107651135D01*
X116466458Y-107804552D01*
X116535456Y-107974146D01*
X116609786Y-108154138D01*
X116687022Y-108338753D01*
X116764732Y-108522213D01*
X116840489Y-108698741D01*
X116911863Y-108862559D01*
X116976426Y-109007892D01*
X117031748Y-109128962D01*
X117075400Y-109219992D01*
X117104954Y-109275205D01*
X117116856Y-109289706D01*
X117153223Y-109278414D01*
X117221270Y-109248130D01*
X117309263Y-109204265D01*
X117357649Y-109178620D01*
X117563137Y-109067515D01*
X117807932Y-109233091D01*
X117932894Y-109317915D01*
X118069705Y-109411261D01*
X118197911Y-109499153D01*
X118262129Y-109543412D01*
X118352449Y-109604063D01*
X118428929Y-109652126D01*
X118481593Y-109681515D01*
X118498698Y-109687727D01*
X118523595Y-109670968D01*
X118578695Y-109624181D01*
X118658657Y-109552225D01*
X118758139Y-109459957D01*
X118871800Y-109352235D01*
X118943685Y-109283071D01*
X119069449Y-109159502D01*
X119178137Y-109048979D01*
X119265355Y-108956230D01*
X119326711Y-108885982D01*
X119357809Y-108842965D01*
X119360792Y-108834235D01*
X119346947Y-108801029D01*
X119308688Y-108733887D01*
X119250258Y-108639608D01*
X119175903Y-108524990D01*
X119089865Y-108396828D01*
X119065397Y-108361098D01*
X118976245Y-108231234D01*
X118896262Y-108114314D01*
X118829920Y-108016907D01*
X118781689Y-107945584D01*
X118756043Y-107906915D01*
X118753565Y-107902917D01*
X118757271Y-107872100D01*
X118776939Y-107804344D01*
X118809140Y-107708584D01*
X118850445Y-107593754D01*
X118897425Y-107468789D01*
X118946651Y-107342624D01*
X118994692Y-107224193D01*
X119038119Y-107122430D01*
X119073504Y-107046271D01*
X119097416Y-107004649D01*
X119099116Y-107002653D01*
X119113738Y-106990758D01*
X119138435Y-106978995D01*
X119178628Y-106966146D01*
X119239737Y-106950994D01*
X119327183Y-106932321D01*
X119446388Y-106908910D01*
X119602773Y-106879542D01*
X119801757Y-106843000D01*
X119844840Y-106835143D01*
X119972529Y-106810472D01*
X120083847Y-106786338D01*
X120168955Y-106765069D01*
X120218017Y-106748993D01*
X120224595Y-106745245D01*
X120235436Y-106712018D01*
X120244247Y-106637766D01*
X120251024Y-106531121D01*
X120255760Y-106400712D01*
X120258450Y-106255172D01*
X120259087Y-106103131D01*
X120257666Y-105953221D01*
X120254180Y-105814073D01*
X120248624Y-105694317D01*
X120240992Y-105602586D01*
X120231278Y-105547511D01*
X120225422Y-105536238D01*
X120192820Y-105524868D01*
X120118582Y-105506369D01*
X120010104Y-105482347D01*
X119874783Y-105454407D01*
X119720015Y-105424153D01*
X119635692Y-105408296D01*
X119475704Y-105378389D01*
X119333033Y-105351295D01*
X119214652Y-105328376D01*
X119127535Y-105310988D01*
X119078655Y-105300492D01*
X119070610Y-105298165D01*
X119057013Y-105271931D01*
X119028271Y-105208740D01*
X118988215Y-105117622D01*
X118940676Y-105007602D01*
X118889485Y-104887710D01*
X118838474Y-104766972D01*
X118791474Y-104654416D01*
X118752316Y-104559071D01*
X118724831Y-104489962D01*
X118712851Y-104456119D01*
X118712628Y-104454640D01*
X118726209Y-104427942D01*
X118764285Y-104366505D01*
X118822853Y-104276434D01*
X118897912Y-104163835D01*
X118985460Y-104034815D01*
X119036353Y-103960706D01*
X119129091Y-103824822D01*
X119211459Y-103701454D01*
X119279439Y-103596842D01*
X119329012Y-103517228D01*
X119356158Y-103468852D01*
X119360079Y-103458007D01*
X119343225Y-103432765D01*
X119296632Y-103378869D01*
X119226251Y-103302358D01*
X119138035Y-103209268D01*
X119037935Y-103105640D01*
X118931902Y-102997509D01*
X118825889Y-102890915D01*
X118725848Y-102791895D01*
X118637730Y-102706487D01*
X118567487Y-102640730D01*
X118521072Y-102600661D01*
X118505544Y-102591098D01*
X118480261Y-102604545D01*
X118419789Y-102642320D01*
X118330008Y-102700580D01*
X118216797Y-102775479D01*
X118086036Y-102863170D01*
X117987400Y-102929978D01*
X117489043Y-103268857D01*
X117073629Y-103097610D01*
X116658216Y-102926363D01*
X116545634Y-102329172D01*
X116433051Y-101731980D01*
X115190048Y-101731980D01*
X115077465Y-102329172D01*
G36*
X112260363Y-110583472D02*
G01*
X112174710Y-110609641D01*
X112119563Y-110642707D01*
X112101599Y-110668855D01*
X112106543Y-110699852D01*
X112138628Y-110748547D01*
X112165757Y-110783035D01*
X112221683Y-110845383D01*
X112263701Y-110871615D01*
X112299520Y-110869903D01*
X112405776Y-110842863D01*
X112483811Y-110844091D01*
X112547180Y-110874735D01*
X112568454Y-110892670D01*
X112636549Y-110955779D01*
X112636549Y-111779922D01*
X112910471Y-111779922D01*
X112910471Y-110584628D01*
X112773510Y-110584628D01*
X112691281Y-110587879D01*
X112648856Y-110599426D01*
X112636555Y-110621952D01*
X112636549Y-110622620D01*
X112630740Y-110646215D01*
X112604469Y-110643138D01*
X112568069Y-110626115D01*
X112492889Y-110594439D01*
X112431842Y-110575381D01*
X112353292Y-110570496D01*
X112260363Y-110583472D01*
G37*
X112260363Y-110583472D02*
X112174710Y-110609641D01*
X112119563Y-110642707D01*
X112101599Y-110668855D01*
X112106543Y-110699852D01*
X112138628Y-110748547D01*
X112165757Y-110783035D01*
X112221683Y-110845383D01*
X112263701Y-110871615D01*
X112299520Y-110869903D01*
X112405776Y-110842863D01*
X112483811Y-110844091D01*
X112547180Y-110874735D01*
X112568454Y-110892670D01*
X112636549Y-110955779D01*
X112636549Y-111779922D01*
X112910471Y-111779922D01*
X112910471Y-110584628D01*
X112773510Y-110584628D01*
X112691281Y-110587879D01*
X112648856Y-110599426D01*
X112636555Y-110621952D01*
X112636549Y-110622620D01*
X112630740Y-110646215D01*
X112604469Y-110643138D01*
X112568069Y-110626115D01*
X112492889Y-110594439D01*
X112431842Y-110575381D01*
X112353292Y-110570496D01*
X112260363Y-110583472D01*
G36*
X117317240Y-110605199D02*
G01*
X117255264Y-110634802D01*
X117195241Y-110677561D01*
X117149514Y-110726775D01*
X117116207Y-110789544D01*
X117093445Y-110872971D01*
X117079353Y-110984159D01*
X117072058Y-111130209D01*
X117069682Y-111318223D01*
X117069645Y-111337912D01*
X117069098Y-111779922D01*
X117343020Y-111779922D01*
X117343020Y-111372435D01*
X117343215Y-111221471D01*
X117344564Y-111112056D01*
X117348212Y-111035933D01*
X117355304Y-110984848D01*
X117366987Y-110950545D01*
X117384406Y-110924768D01*
X117408671Y-110899298D01*
X117493565Y-110844571D01*
X117586239Y-110834416D01*
X117674527Y-110869017D01*
X117705230Y-110894770D01*
X117727771Y-110918982D01*
X117743954Y-110944912D01*
X117754832Y-110980708D01*
X117761458Y-111034519D01*
X117764885Y-111114493D01*
X117766166Y-111228779D01*
X117766353Y-111367907D01*
X117766353Y-111779922D01*
X118040275Y-111779922D01*
X118040275Y-110584628D01*
X117903314Y-110584628D01*
X117821084Y-110587879D01*
X117778660Y-110599426D01*
X117766359Y-110621952D01*
X117766353Y-110622620D01*
X117760646Y-110644681D01*
X117735473Y-110642177D01*
X117685422Y-110617937D01*
X117571906Y-110582271D01*
X117442055Y-110578305D01*
X117317240Y-110605199D01*
G37*
X117317240Y-110605199D02*
X117255264Y-110634802D01*
X117195241Y-110677561D01*
X117149514Y-110726775D01*
X117116207Y-110789544D01*
X117093445Y-110872971D01*
X117079353Y-110984159D01*
X117072058Y-111130209D01*
X117069682Y-111318223D01*
X117069645Y-111337912D01*
X117069098Y-111779922D01*
X117343020Y-111779922D01*
X117343020Y-111372435D01*
X117343215Y-111221471D01*
X117344564Y-111112056D01*
X117348212Y-111035933D01*
X117355304Y-110984848D01*
X117366987Y-110950545D01*
X117384406Y-110924768D01*
X117408671Y-110899298D01*
X117493565Y-110844571D01*
X117586239Y-110834416D01*
X117674527Y-110869017D01*
X117705230Y-110894770D01*
X117727771Y-110918982D01*
X117743954Y-110944912D01*
X117754832Y-110980708D01*
X117761458Y-111034519D01*
X117764885Y-111114493D01*
X117766166Y-111228779D01*
X117766353Y-111367907D01*
X117766353Y-111779922D01*
X118040275Y-111779922D01*
X118040275Y-110584628D01*
X117903314Y-110584628D01*
X117821084Y-110587879D01*
X117778660Y-110599426D01*
X117766359Y-110621952D01*
X117766353Y-110622620D01*
X117760646Y-110644681D01*
X117735473Y-110642177D01*
X117685422Y-110617937D01*
X117571906Y-110582271D01*
X117442055Y-110578305D01*
X117317240Y-110605199D01*
G36*
X110520713Y-110580355D02*
G01*
X110456949Y-110595845D01*
X110334700Y-110652569D01*
X110230166Y-110739202D01*
X110157820Y-110843074D01*
X110147881Y-110866396D01*
X110134246Y-110927484D01*
X110124702Y-111017853D01*
X110121451Y-111109190D01*
X110121451Y-111281882D01*
X110482530Y-111281882D01*
X110631454Y-111282445D01*
X110736368Y-111285864D01*
X110803063Y-111294731D01*
X110837334Y-111311641D01*
X110844972Y-111339189D01*
X110831771Y-111379968D01*
X110808123Y-111427683D01*
X110742157Y-111507314D01*
X110650488Y-111546987D01*
X110538445Y-111545695D01*
X110411528Y-111502514D01*
X110301842Y-111449224D01*
X110210827Y-111521191D01*
X110119812Y-111593157D01*
X110205437Y-111672269D01*
X110319750Y-111747017D01*
X110460334Y-111792084D01*
X110611551Y-111804696D01*
X110757764Y-111782079D01*
X110781353Y-111774405D01*
X110909859Y-111707296D01*
X111005449Y-111607247D01*
X111070139Y-111471271D01*
X111105943Y-111296380D01*
X111106360Y-111292632D01*
X111109566Y-111102032D01*
X111096607Y-111034035D01*
X110843608Y-111034035D01*
X110820373Y-111044491D01*
X110757290Y-111052500D01*
X110664294Y-111057073D01*
X110605362Y-111057765D01*
X110495463Y-111057332D01*
X110426748Y-111054578D01*
X110390595Y-111047321D01*
X110378385Y-111033376D01*
X110381496Y-111010562D01*
X110384106Y-111001735D01*
X110428656Y-110918800D01*
X110498721Y-110851960D01*
X110560554Y-110822589D01*
X110642699Y-110824362D01*
X110725938Y-110860990D01*
X110795762Y-110921634D01*
X110837663Y-110995456D01*
X110843608Y-111034035D01*
X111096607Y-111034035D01*
X111077615Y-110934395D01*
X111014227Y-110793711D01*
X110923122Y-110683974D01*
X110808022Y-110609174D01*
X110672645Y-110573304D01*
X110520713Y-110580355D01*
G37*
X110520713Y-110580355D02*
X110456949Y-110595845D01*
X110334700Y-110652569D01*
X110230166Y-110739202D01*
X110157820Y-110843074D01*
X110147881Y-110866396D01*
X110134246Y-110927484D01*
X110124702Y-111017853D01*
X110121451Y-111109190D01*
X110121451Y-111281882D01*
X110482530Y-111281882D01*
X110631454Y-111282445D01*
X110736368Y-111285864D01*
X110803063Y-111294731D01*
X110837334Y-111311641D01*
X110844972Y-111339189D01*
X110831771Y-111379968D01*
X110808123Y-111427683D01*
X110742157Y-111507314D01*
X110650488Y-111546987D01*
X110538445Y-111545695D01*
X110411528Y-111502514D01*
X110301842Y-111449224D01*
X110210827Y-111521191D01*
X110119812Y-111593157D01*
X110205437Y-111672269D01*
X110319750Y-111747017D01*
X110460334Y-111792084D01*
X110611551Y-111804696D01*
X110757764Y-111782079D01*
X110781353Y-111774405D01*
X110909859Y-111707296D01*
X111005449Y-111607247D01*
X111070139Y-111471271D01*
X111105943Y-111296380D01*
X111106360Y-111292632D01*
X111109566Y-111102032D01*
X111096607Y-111034035D01*
X110843608Y-111034035D01*
X110820373Y-111044491D01*
X110757290Y-111052500D01*
X110664294Y-111057073D01*
X110605362Y-111057765D01*
X110495463Y-111057332D01*
X110426748Y-111054578D01*
X110390595Y-111047321D01*
X110378385Y-111033376D01*
X110381496Y-111010562D01*
X110384106Y-111001735D01*
X110428656Y-110918800D01*
X110498721Y-110851960D01*
X110560554Y-110822589D01*
X110642699Y-110824362D01*
X110725938Y-110860990D01*
X110795762Y-110921634D01*
X110837663Y-110995456D01*
X110843608Y-111034035D01*
X111096607Y-111034035D01*
X111077615Y-110934395D01*
X111014227Y-110793711D01*
X110923122Y-110683974D01*
X110808022Y-110609174D01*
X110672645Y-110573304D01*
X110520713Y-110580355D01*
G36*
X111433024Y-110595056D02*
G01*
X111288744Y-110656348D01*
X111243301Y-110686185D01*
X111185221Y-110732036D01*
X111148762Y-110768089D01*
X111142432Y-110779832D01*
X111160307Y-110805889D01*
X111206050Y-110850105D01*
X111242672Y-110880965D01*
X111342912Y-110961520D01*
X111422065Y-110894918D01*
X111483231Y-110851921D01*
X111542871Y-110837079D01*
X111611128Y-110840704D01*
X111719518Y-110867652D01*
X111794128Y-110923587D01*
X111839470Y-111014014D01*
X111860053Y-111144435D01*
X111860058Y-111144517D01*
X111858278Y-111290290D01*
X111830613Y-111397245D01*
X111775429Y-111470064D01*
X111737808Y-111494723D01*
X111637895Y-111525431D01*
X111531178Y-111525449D01*
X111438331Y-111495655D01*
X111416353Y-111481098D01*
X111361235Y-111443914D01*
X111318141Y-111437820D01*
X111271665Y-111465496D01*
X111220284Y-111515205D01*
X111138954Y-111599116D01*
X111229251Y-111673546D01*
X111368764Y-111757549D01*
X111526088Y-111798947D01*
X111690497Y-111795950D01*
X111798469Y-111768500D01*
X111924669Y-111700620D01*
X112025599Y-111593831D01*
X112071452Y-111518451D01*
X112108590Y-111410297D01*
X112127173Y-111273318D01*
X112127316Y-111124864D01*
X112109135Y-110982281D01*
X112072745Y-110862918D01*
X112067013Y-110850680D01*
X111982135Y-110730655D01*
X111867218Y-110643267D01*
X111731341Y-110590329D01*
X111583583Y-110573654D01*
X111433024Y-110595056D01*
G37*
X111433024Y-110595056D02*
X111288744Y-110656348D01*
X111243301Y-110686185D01*
X111185221Y-110732036D01*
X111148762Y-110768089D01*
X111142432Y-110779832D01*
X111160307Y-110805889D01*
X111206050Y-110850105D01*
X111242672Y-110880965D01*
X111342912Y-110961520D01*
X111422065Y-110894918D01*
X111483231Y-110851921D01*
X111542871Y-110837079D01*
X111611128Y-110840704D01*
X111719518Y-110867652D01*
X111794128Y-110923587D01*
X111839470Y-111014014D01*
X111860053Y-111144435D01*
X111860058Y-111144517D01*
X111858278Y-111290290D01*
X111830613Y-111397245D01*
X111775429Y-111470064D01*
X111737808Y-111494723D01*
X111637895Y-111525431D01*
X111531178Y-111525449D01*
X111438331Y-111495655D01*
X111416353Y-111481098D01*
X111361235Y-111443914D01*
X111318141Y-111437820D01*
X111271665Y-111465496D01*
X111220284Y-111515205D01*
X111138954Y-111599116D01*
X111229251Y-111673546D01*
X111368764Y-111757549D01*
X111526088Y-111798947D01*
X111690497Y-111795950D01*
X111798469Y-111768500D01*
X111924669Y-111700620D01*
X112025599Y-111593831D01*
X112071452Y-111518451D01*
X112108590Y-111410297D01*
X112127173Y-111273318D01*
X112127316Y-111124864D01*
X112109135Y-110982281D01*
X112072745Y-110862918D01*
X112067013Y-110850680D01*
X111982135Y-110730655D01*
X111867218Y-110643267D01*
X111731341Y-110590329D01*
X111583583Y-110573654D01*
X111433024Y-110595056D01*
G36*
X113856746Y-110972245D02*
G01*
X113854392Y-111154879D01*
X113845793Y-111293600D01*
X113828640Y-111394147D01*
X113800626Y-111462254D01*
X113759443Y-111503659D01*
X113702783Y-111524097D01*
X113632628Y-111529318D01*
X113559152Y-111523468D01*
X113503343Y-111502093D01*
X113462891Y-111459458D01*
X113435491Y-111389825D01*
X113418833Y-111287460D01*
X113410611Y-111146624D01*
X113408510Y-110972245D01*
X113408510Y-110584628D01*
X113134589Y-110584628D01*
X113134589Y-111779922D01*
X113271549Y-111779922D01*
X113354116Y-111776576D01*
X113396632Y-111764826D01*
X113408510Y-111742520D01*
X113415664Y-111722654D01*
X113444135Y-111726857D01*
X113501524Y-111754971D01*
X113633055Y-111798342D01*
X113772562Y-111795270D01*
X113906235Y-111748174D01*
X113969892Y-111710971D01*
X114018447Y-111670691D01*
X114053919Y-111620291D01*
X114078326Y-111552729D01*
X114093687Y-111460965D01*
X114102018Y-111337955D01*
X114105338Y-111176659D01*
X114105765Y-111051928D01*
X114105765Y-110584628D01*
X113856746Y-110584628D01*
X113856746Y-110972245D01*
G37*
X113856746Y-110972245D02*
X113854392Y-111154879D01*
X113845793Y-111293600D01*
X113828640Y-111394147D01*
X113800626Y-111462254D01*
X113759443Y-111503659D01*
X113702783Y-111524097D01*
X113632628Y-111529318D01*
X113559152Y-111523468D01*
X113503343Y-111502093D01*
X113462891Y-111459458D01*
X113435491Y-111389825D01*
X113418833Y-111287460D01*
X113410611Y-111146624D01*
X113408510Y-110972245D01*
X113408510Y-110584628D01*
X113134589Y-110584628D01*
X113134589Y-111779922D01*
X113271549Y-111779922D01*
X113354116Y-111776576D01*
X113396632Y-111764826D01*
X113408510Y-111742520D01*
X113415664Y-111722654D01*
X113444135Y-111726857D01*
X113501524Y-111754971D01*
X113633055Y-111798342D01*
X113772562Y-111795270D01*
X113906235Y-111748174D01*
X113969892Y-111710971D01*
X114018447Y-111670691D01*
X114053919Y-111620291D01*
X114078326Y-111552729D01*
X114093687Y-111460965D01*
X114102018Y-111337955D01*
X114105338Y-111176659D01*
X114105765Y-111051928D01*
X114105765Y-110584628D01*
X113856746Y-110584628D01*
X113856746Y-110972245D01*
G36*
X114614453Y-110599364D02*
G01*
X114488498Y-110667959D01*
X114389953Y-110776245D01*
X114343522Y-110864315D01*
X114323588Y-110942101D01*
X114310672Y-111052993D01*
X114305137Y-111180738D01*
X114307346Y-111309084D01*
X114317663Y-111421779D01*
X114329714Y-111481969D01*
X114370366Y-111564311D01*
X114440770Y-111651770D01*
X114525618Y-111728251D01*
X114609603Y-111777655D01*
X114611651Y-111778439D01*
X114715866Y-111800027D01*
X114839373Y-111800562D01*
X114956739Y-111780908D01*
X115002058Y-111765155D01*
X115118780Y-111698966D01*
X115202376Y-111612246D01*
X115257299Y-111497438D01*
X115288005Y-111346982D01*
X115294953Y-111268173D01*
X115294067Y-111169145D01*
X115027138Y-111169145D01*
X115018146Y-111313645D01*
X114992264Y-111423760D01*
X114951132Y-111494116D01*
X114921828Y-111514235D01*
X114846749Y-111528265D01*
X114757506Y-111524111D01*
X114680350Y-111503922D01*
X114660117Y-111492815D01*
X114606735Y-111428123D01*
X114571500Y-111329119D01*
X114556502Y-111208632D01*
X114563828Y-111079494D01*
X114580201Y-111001775D01*
X114627210Y-110911771D01*
X114701418Y-110855509D01*
X114790791Y-110836057D01*
X114883293Y-110856481D01*
X114954347Y-110906437D01*
X114991688Y-110947655D01*
X115013482Y-110988281D01*
X115023870Y-111043264D01*
X115026994Y-111127549D01*
X115027138Y-111169145D01*
X115294067Y-111169145D01*
X115293070Y-111057874D01*
X115258820Y-110885423D01*
X115192198Y-110750814D01*
X115093201Y-110654040D01*
X114961825Y-110595094D01*
X114933615Y-110588259D01*
X114764074Y-110572213D01*
X114614453Y-110599364D01*
G37*
X114614453Y-110599364D02*
X114488498Y-110667959D01*
X114389953Y-110776245D01*
X114343522Y-110864315D01*
X114323588Y-110942101D01*
X114310672Y-111052993D01*
X114305137Y-111180738D01*
X114307346Y-111309084D01*
X114317663Y-111421779D01*
X114329714Y-111481969D01*
X114370366Y-111564311D01*
X114440770Y-111651770D01*
X114525618Y-111728251D01*
X114609603Y-111777655D01*
X114611651Y-111778439D01*
X114715866Y-111800027D01*
X114839373Y-111800562D01*
X114956739Y-111780908D01*
X115002058Y-111765155D01*
X115118780Y-111698966D01*
X115202376Y-111612246D01*
X115257299Y-111497438D01*
X115288005Y-111346982D01*
X115294953Y-111268173D01*
X115294067Y-111169145D01*
X115027138Y-111169145D01*
X115018146Y-111313645D01*
X114992264Y-111423760D01*
X114951132Y-111494116D01*
X114921828Y-111514235D01*
X114846749Y-111528265D01*
X114757506Y-111524111D01*
X114680350Y-111503922D01*
X114660117Y-111492815D01*
X114606735Y-111428123D01*
X114571500Y-111329119D01*
X114556502Y-111208632D01*
X114563828Y-111079494D01*
X114580201Y-111001775D01*
X114627210Y-110911771D01*
X114701418Y-110855509D01*
X114790791Y-110836057D01*
X114883293Y-110856481D01*
X114954347Y-110906437D01*
X114991688Y-110947655D01*
X115013482Y-110988281D01*
X115023870Y-111043264D01*
X115026994Y-111127549D01*
X115027138Y-111169145D01*
X115294067Y-111169145D01*
X115293070Y-111057874D01*
X115258820Y-110885423D01*
X115192198Y-110750814D01*
X115093201Y-110654040D01*
X114961825Y-110595094D01*
X114933615Y-110588259D01*
X114764074Y-110572213D01*
X114614453Y-110599364D01*
G36*
X115796241Y-110580345D02*
G01*
X115701941Y-110598229D01*
X115604110Y-110635633D01*
X115593657Y-110640402D01*
X115519469Y-110679412D01*
X115468090Y-110715664D01*
X115451483Y-110738887D01*
X115467298Y-110776761D01*
X115505712Y-110832644D01*
X115522763Y-110853505D01*
X115593031Y-110935618D01*
X115683621Y-110882168D01*
X115769836Y-110846561D01*
X115869451Y-110827529D01*
X115964981Y-110826326D01*
X116038939Y-110844210D01*
X116056688Y-110855373D01*
X116090488Y-110906553D01*
X116094596Y-110965509D01*
X116069304Y-111011567D01*
X116054344Y-111020499D01*
X116009514Y-111031592D01*
X115930714Y-111044630D01*
X115833574Y-111057088D01*
X115815654Y-111059042D01*
X115659635Y-111086030D01*
X115546477Y-111131873D01*
X115471431Y-111200803D01*
X115429747Y-111297054D01*
X115416762Y-111414617D01*
X115434701Y-111548254D01*
X115492950Y-111653195D01*
X115591745Y-111729630D01*
X115731318Y-111777748D01*
X115886255Y-111796732D01*
X116012602Y-111796504D01*
X116115087Y-111779262D01*
X116185079Y-111755457D01*
X116273517Y-111713978D01*
X116355246Y-111665842D01*
X116384295Y-111644655D01*
X116459000Y-111583676D01*
X116368902Y-111492508D01*
X116278804Y-111401339D01*
X116176368Y-111469128D01*
X116073626Y-111520042D01*
X115963913Y-111546673D01*
X115858449Y-111549483D01*
X115768454Y-111528935D01*
X115705146Y-111485493D01*
X115684704Y-111448838D01*
X115687771Y-111390053D01*
X115738566Y-111345099D01*
X115836952Y-111314057D01*
X115944744Y-111299710D01*
X116110635Y-111272337D01*
X116233876Y-111220693D01*
X116316114Y-111143266D01*
X116358999Y-111038544D01*
X116364940Y-110914387D01*
X116335594Y-110784702D01*
X116268691Y-110686677D01*
X116163629Y-110619866D01*
X116019810Y-110583820D01*
X115913262Y-110576754D01*
X115796241Y-110580345D01*
G37*
X115796241Y-110580345D02*
X115701941Y-110598229D01*
X115604110Y-110635633D01*
X115593657Y-110640402D01*
X115519469Y-110679412D01*
X115468090Y-110715664D01*
X115451483Y-110738887D01*
X115467298Y-110776761D01*
X115505712Y-110832644D01*
X115522763Y-110853505D01*
X115593031Y-110935618D01*
X115683621Y-110882168D01*
X115769836Y-110846561D01*
X115869451Y-110827529D01*
X115964981Y-110826326D01*
X116038939Y-110844210D01*
X116056688Y-110855373D01*
X116090488Y-110906553D01*
X116094596Y-110965509D01*
X116069304Y-111011567D01*
X116054344Y-111020499D01*
X116009514Y-111031592D01*
X115930714Y-111044630D01*
X115833574Y-111057088D01*
X115815654Y-111059042D01*
X115659635Y-111086030D01*
X115546477Y-111131873D01*
X115471431Y-111200803D01*
X115429747Y-111297054D01*
X115416762Y-111414617D01*
X115434701Y-111548254D01*
X115492950Y-111653195D01*
X115591745Y-111729630D01*
X115731318Y-111777748D01*
X115886255Y-111796732D01*
X116012602Y-111796504D01*
X116115087Y-111779262D01*
X116185079Y-111755457D01*
X116273517Y-111713978D01*
X116355246Y-111665842D01*
X116384295Y-111644655D01*
X116459000Y-111583676D01*
X116368902Y-111492508D01*
X116278804Y-111401339D01*
X116176368Y-111469128D01*
X116073626Y-111520042D01*
X115963913Y-111546673D01*
X115858449Y-111549483D01*
X115768454Y-111528935D01*
X115705146Y-111485493D01*
X115684704Y-111448838D01*
X115687771Y-111390053D01*
X115738566Y-111345099D01*
X115836952Y-111314057D01*
X115944744Y-111299710D01*
X116110635Y-111272337D01*
X116233876Y-111220693D01*
X116316114Y-111143266D01*
X116358999Y-111038544D01*
X116364940Y-110914387D01*
X116335594Y-110784702D01*
X116268691Y-110686677D01*
X116163629Y-110619866D01*
X116019810Y-110583820D01*
X115913262Y-110576754D01*
X115796241Y-110580345D01*
G36*
X118510796Y-110612354D02*
G01*
X118485981Y-110624037D01*
X118400094Y-110686951D01*
X118318879Y-110778769D01*
X118258236Y-110879868D01*
X118240988Y-110926349D01*
X118225251Y-111009376D01*
X118215867Y-111109713D01*
X118214728Y-111151147D01*
X118214589Y-111281882D01*
X118967047Y-111281882D01*
X118951007Y-111350363D01*
X118911637Y-111431355D01*
X118842806Y-111501351D01*
X118760919Y-111546441D01*
X118708737Y-111555804D01*
X118637971Y-111544441D01*
X118553540Y-111515943D01*
X118524858Y-111502831D01*
X118418791Y-111449858D01*
X118328272Y-111518901D01*
X118276039Y-111565597D01*
X118248247Y-111604140D01*
X118246840Y-111615452D01*
X118271668Y-111642868D01*
X118326083Y-111684532D01*
X118375472Y-111717037D01*
X118508748Y-111775468D01*
X118658161Y-111801915D01*
X118806249Y-111795039D01*
X118924295Y-111759096D01*
X119045982Y-111682101D01*
X119132460Y-111580728D01*
X119186559Y-111449570D01*
X119211109Y-111283224D01*
X119213286Y-111207108D01*
X119204573Y-111032685D01*
X119203503Y-111027611D01*
X118954173Y-111027611D01*
X118947306Y-111043968D01*
X118919083Y-111052988D01*
X118860873Y-111056854D01*
X118764042Y-111057749D01*
X118726757Y-111057765D01*
X118613317Y-111056413D01*
X118541378Y-111051505D01*
X118502687Y-111041760D01*
X118488995Y-111025899D01*
X118488510Y-111020805D01*
X118504137Y-110980326D01*
X118543247Y-110923621D01*
X118560061Y-110903766D01*
X118622481Y-110847611D01*
X118687547Y-110825532D01*
X118722603Y-110823686D01*
X118817442Y-110846766D01*
X118896973Y-110908759D01*
X118947423Y-110998802D01*
X118948317Y-111001735D01*
X118954173Y-111027611D01*
X119203503Y-111027611D01*
X119175601Y-110895343D01*
X119123410Y-110785461D01*
X119059579Y-110707461D01*
X118941567Y-110622882D01*
X118802842Y-110577686D01*
X118655290Y-110573600D01*
X118510796Y-110612354D01*
G37*
X118510796Y-110612354D02*
X118485981Y-110624037D01*
X118400094Y-110686951D01*
X118318879Y-110778769D01*
X118258236Y-110879868D01*
X118240988Y-110926349D01*
X118225251Y-111009376D01*
X118215867Y-111109713D01*
X118214728Y-111151147D01*
X118214589Y-111281882D01*
X118967047Y-111281882D01*
X118951007Y-111350363D01*
X118911637Y-111431355D01*
X118842806Y-111501351D01*
X118760919Y-111546441D01*
X118708737Y-111555804D01*
X118637971Y-111544441D01*
X118553540Y-111515943D01*
X118524858Y-111502831D01*
X118418791Y-111449858D01*
X118328272Y-111518901D01*
X118276039Y-111565597D01*
X118248247Y-111604140D01*
X118246840Y-111615452D01*
X118271668Y-111642868D01*
X118326083Y-111684532D01*
X118375472Y-111717037D01*
X118508748Y-111775468D01*
X118658161Y-111801915D01*
X118806249Y-111795039D01*
X118924295Y-111759096D01*
X119045982Y-111682101D01*
X119132460Y-111580728D01*
X119186559Y-111449570D01*
X119211109Y-111283224D01*
X119213286Y-111207108D01*
X119204573Y-111032685D01*
X119203503Y-111027611D01*
X118954173Y-111027611D01*
X118947306Y-111043968D01*
X118919083Y-111052988D01*
X118860873Y-111056854D01*
X118764042Y-111057749D01*
X118726757Y-111057765D01*
X118613317Y-111056413D01*
X118541378Y-111051505D01*
X118502687Y-111041760D01*
X118488995Y-111025899D01*
X118488510Y-111020805D01*
X118504137Y-110980326D01*
X118543247Y-110923621D01*
X118560061Y-110903766D01*
X118622481Y-110847611D01*
X118687547Y-110825532D01*
X118722603Y-110823686D01*
X118817442Y-110846766D01*
X118896973Y-110908759D01*
X118947423Y-110998802D01*
X118948317Y-111001735D01*
X118954173Y-111027611D01*
X119203503Y-111027611D01*
X119175601Y-110895343D01*
X119123410Y-110785461D01*
X119059579Y-110707461D01*
X118941567Y-110622882D01*
X118802842Y-110577686D01*
X118655290Y-110573600D01*
X118510796Y-110612354D01*
G36*
X120850753Y-110597568D02*
G01*
X120720478Y-110655163D01*
X120621581Y-110751334D01*
X120553918Y-110886229D01*
X120517345Y-111059996D01*
X120514724Y-111087126D01*
X120512670Y-111278408D01*
X120539301Y-111446073D01*
X120592999Y-111581967D01*
X120621753Y-111625681D01*
X120721909Y-111718198D01*
X120849463Y-111778119D01*
X120992163Y-111802985D01*
X121137760Y-111790339D01*
X121248438Y-111751391D01*
X121343616Y-111685755D01*
X121421406Y-111599699D01*
X121422751Y-111597685D01*
X121454343Y-111544570D01*
X121474873Y-111491160D01*
X121487305Y-111423754D01*
X121494603Y-111328653D01*
X121497818Y-111250666D01*
X121499156Y-111179944D01*
X121250186Y-111179944D01*
X121247753Y-111250348D01*
X121238920Y-111344068D01*
X121223336Y-111404214D01*
X121195234Y-111447006D01*
X121168914Y-111472002D01*
X121075608Y-111524338D01*
X120977980Y-111531333D01*
X120887058Y-111493676D01*
X120841598Y-111451479D01*
X120808838Y-111408956D01*
X120789677Y-111368267D01*
X120781267Y-111315314D01*
X120780763Y-111235997D01*
X120783355Y-111162950D01*
X120788929Y-111058601D01*
X120797766Y-110990920D01*
X120813693Y-110946774D01*
X120840538Y-110913031D01*
X120861811Y-110893746D01*
X120950794Y-110843086D01*
X121046789Y-110840560D01*
X121127281Y-110870567D01*
X121195947Y-110933231D01*
X121236856Y-111036168D01*
X121250186Y-111179944D01*
X121499156Y-111179944D01*
X121500754Y-111095582D01*
X121495740Y-110979600D01*
X121480717Y-110892367D01*
X121453624Y-110823530D01*
X121412400Y-110762737D01*
X121397115Y-110744686D01*
X121301546Y-110654746D01*
X121199039Y-110602211D01*
X121073679Y-110580201D01*
X121012550Y-110578402D01*
X120850753Y-110597568D01*
G37*
X120850753Y-110597568D02*
X120720478Y-110655163D01*
X120621581Y-110751334D01*
X120553918Y-110886229D01*
X120517345Y-111059996D01*
X120514724Y-111087126D01*
X120512670Y-111278408D01*
X120539301Y-111446073D01*
X120592999Y-111581967D01*
X120621753Y-111625681D01*
X120721909Y-111718198D01*
X120849463Y-111778119D01*
X120992163Y-111802985D01*
X121137760Y-111790339D01*
X121248438Y-111751391D01*
X121343616Y-111685755D01*
X121421406Y-111599699D01*
X121422751Y-111597685D01*
X121454343Y-111544570D01*
X121474873Y-111491160D01*
X121487305Y-111423754D01*
X121494603Y-111328653D01*
X121497818Y-111250666D01*
X121499156Y-111179944D01*
X121250186Y-111179944D01*
X121247753Y-111250348D01*
X121238920Y-111344068D01*
X121223336Y-111404214D01*
X121195234Y-111447006D01*
X121168914Y-111472002D01*
X121075608Y-111524338D01*
X120977980Y-111531333D01*
X120887058Y-111493676D01*
X120841598Y-111451479D01*
X120808838Y-111408956D01*
X120789677Y-111368267D01*
X120781267Y-111315314D01*
X120780763Y-111235997D01*
X120783355Y-111162950D01*
X120788929Y-111058601D01*
X120797766Y-110990920D01*
X120813693Y-110946774D01*
X120840538Y-110913031D01*
X120861811Y-110893746D01*
X120950794Y-110843086D01*
X121046789Y-110840560D01*
X121127281Y-110870567D01*
X121195947Y-110933231D01*
X121236856Y-111036168D01*
X121250186Y-111179944D01*
X121499156Y-111179944D01*
X121500754Y-111095582D01*
X121495740Y-110979600D01*
X121480717Y-110892367D01*
X121453624Y-110823530D01*
X121412400Y-110762737D01*
X121397115Y-110744686D01*
X121301546Y-110654746D01*
X121199039Y-110602211D01*
X121073679Y-110580201D01*
X121012550Y-110578402D01*
X120850753Y-110597568D01*
G36*
X111798693Y-112458784D02*
G01*
X111679663Y-112489731D01*
X111579979Y-112553600D01*
X111531712Y-112601313D01*
X111452592Y-112714106D01*
X111407248Y-112844950D01*
X111391670Y-113005792D01*
X111391590Y-113018794D01*
X111391451Y-113149530D01*
X112143909Y-113149530D01*
X112127870Y-113218010D01*
X112098909Y-113280031D01*
X112048222Y-113344654D01*
X112037621Y-113354971D01*
X111946506Y-113410805D01*
X111842600Y-113420275D01*
X111723000Y-113383540D01*
X111702726Y-113373647D01*
X111640544Y-113343574D01*
X111598894Y-113326440D01*
X111591627Y-113324855D01*
X111566260Y-113340242D01*
X111517880Y-113377887D01*
X111493321Y-113398459D01*
X111442430Y-113445714D01*
X111425719Y-113476917D01*
X111437317Y-113505620D01*
X111443517Y-113513468D01*
X111485507Y-113547819D01*
X111554794Y-113589565D01*
X111603118Y-113613935D01*
X111740289Y-113656873D01*
X111892153Y-113670786D01*
X112035976Y-113654300D01*
X112076255Y-113642496D01*
X112200922Y-113575689D01*
X112293329Y-113472892D01*
X112354010Y-113333105D01*
X112383502Y-113155330D01*
X112386740Y-113062373D01*
X112377286Y-112927033D01*
X112138510Y-112927033D01*
X112115416Y-112937038D01*
X112053338Y-112944888D01*
X111963086Y-112949521D01*
X111901942Y-112950314D01*
X111791960Y-112949549D01*
X111722543Y-112945970D01*
X111684462Y-112937649D01*
X111668485Y-112922657D01*
X111665373Y-112900903D01*
X111686722Y-112833892D01*
X111740471Y-112767664D01*
X111811178Y-112716832D01*
X111881911Y-112696038D01*
X111977984Y-112714484D01*
X112061151Y-112767811D01*
X112118814Y-112844677D01*
X112138510Y-112927033D01*
X112377286Y-112927033D01*
X112372972Y-112865291D01*
X112330480Y-112708271D01*
X112258365Y-112590069D01*
X112155727Y-112509440D01*
X112021668Y-112465139D01*
X111949043Y-112456607D01*
X111798693Y-112458784D01*
G37*
X111798693Y-112458784D02*
X111679663Y-112489731D01*
X111579979Y-112553600D01*
X111531712Y-112601313D01*
X111452592Y-112714106D01*
X111407248Y-112844950D01*
X111391670Y-113005792D01*
X111391590Y-113018794D01*
X111391451Y-113149530D01*
X112143909Y-113149530D01*
X112127870Y-113218010D01*
X112098909Y-113280031D01*
X112048222Y-113344654D01*
X112037621Y-113354971D01*
X111946506Y-113410805D01*
X111842600Y-113420275D01*
X111723000Y-113383540D01*
X111702726Y-113373647D01*
X111640544Y-113343574D01*
X111598894Y-113326440D01*
X111591627Y-113324855D01*
X111566260Y-113340242D01*
X111517880Y-113377887D01*
X111493321Y-113398459D01*
X111442430Y-113445714D01*
X111425719Y-113476917D01*
X111437317Y-113505620D01*
X111443517Y-113513468D01*
X111485507Y-113547819D01*
X111554794Y-113589565D01*
X111603118Y-113613935D01*
X111740289Y-113656873D01*
X111892153Y-113670786D01*
X112035976Y-113654300D01*
X112076255Y-113642496D01*
X112200922Y-113575689D01*
X112293329Y-113472892D01*
X112354010Y-113333105D01*
X112383502Y-113155330D01*
X112386740Y-113062373D01*
X112377286Y-112927033D01*
X112138510Y-112927033D01*
X112115416Y-112937038D01*
X112053338Y-112944888D01*
X111963086Y-112949521D01*
X111901942Y-112950314D01*
X111791960Y-112949549D01*
X111722543Y-112945970D01*
X111684462Y-112937649D01*
X111668485Y-112922657D01*
X111665373Y-112900903D01*
X111686722Y-112833892D01*
X111740471Y-112767664D01*
X111811178Y-112716832D01*
X111881911Y-112696038D01*
X111977984Y-112714484D01*
X112061151Y-112767811D01*
X112118814Y-112844677D01*
X112138510Y-112927033D01*
X112377286Y-112927033D01*
X112372972Y-112865291D01*
X112330480Y-112708271D01*
X112258365Y-112590069D01*
X112155727Y-112509440D01*
X112021668Y-112465139D01*
X111949043Y-112456607D01*
X111798693Y-112458784D01*
G36*
X112585554Y-112451883D02*
G01*
X112489823Y-112470755D01*
X112435323Y-112498699D01*
X112377992Y-112545123D01*
X112459559Y-112648111D01*
X112509850Y-112710479D01*
X112543999Y-112740907D01*
X112577937Y-112745555D01*
X112627594Y-112730586D01*
X112650904Y-112722117D01*
X112745937Y-112709622D01*
X112832968Y-112736406D01*
X112896862Y-112796915D01*
X112907241Y-112816208D01*
X112918544Y-112867314D01*
X112927268Y-112961500D01*
X112933003Y-113092089D01*
X112935340Y-113252405D01*
X112935373Y-113275211D01*
X112935373Y-113672471D01*
X113209295Y-113672471D01*
X113209295Y-112452275D01*
X113072334Y-112452275D01*
X112993362Y-112454337D01*
X112952221Y-112463513D01*
X112937008Y-112484290D01*
X112935373Y-112503886D01*
X112935373Y-112555497D01*
X112869760Y-112503886D01*
X112794525Y-112468675D01*
X112693456Y-112451265D01*
X112585554Y-112451883D01*
G37*
X112585554Y-112451883D02*
X112489823Y-112470755D01*
X112435323Y-112498699D01*
X112377992Y-112545123D01*
X112459559Y-112648111D01*
X112509850Y-112710479D01*
X112543999Y-112740907D01*
X112577937Y-112745555D01*
X112627594Y-112730586D01*
X112650904Y-112722117D01*
X112745937Y-112709622D01*
X112832968Y-112736406D01*
X112896862Y-112796915D01*
X112907241Y-112816208D01*
X112918544Y-112867314D01*
X112927268Y-112961500D01*
X112933003Y-113092089D01*
X112935340Y-113252405D01*
X112935373Y-113275211D01*
X112935373Y-113672471D01*
X113209295Y-113672471D01*
X113209295Y-112452275D01*
X113072334Y-112452275D01*
X112993362Y-112454337D01*
X112952221Y-112463513D01*
X112937008Y-112484290D01*
X112935373Y-112503886D01*
X112935373Y-112555497D01*
X112869760Y-112503886D01*
X112794525Y-112468675D01*
X112693456Y-112451265D01*
X112585554Y-112451883D01*
G36*
X113767541Y-112459669D02*
G01*
X113662580Y-112485163D01*
X113632239Y-112498669D01*
X113573427Y-112534046D01*
X113528291Y-112573890D01*
X113494894Y-112625120D01*
X113471299Y-112694654D01*
X113455567Y-112789409D01*
X113445761Y-112916305D01*
X113439943Y-113082258D01*
X113437734Y-113193108D01*
X113429604Y-113672471D01*
X113568469Y-113672471D01*
X113652713Y-113668938D01*
X113696116Y-113656866D01*
X113707334Y-113636594D01*
X113713256Y-113614674D01*
X113739734Y-113618865D01*
X113775814Y-113636441D01*
X113866138Y-113663382D01*
X113982223Y-113670642D01*
X114104320Y-113658767D01*
X114212679Y-113628305D01*
X114222398Y-113624077D01*
X114321432Y-113554505D01*
X114386719Y-113457789D01*
X114416760Y-113344738D01*
X114414465Y-113304122D01*
X114169367Y-113304122D01*
X114147771Y-113358782D01*
X114083741Y-113397952D01*
X113980435Y-113418974D01*
X113925226Y-113421766D01*
X113833218Y-113414620D01*
X113772059Y-113386848D01*
X113757138Y-113373647D01*
X113716713Y-113301829D01*
X113707334Y-113236686D01*
X113707334Y-113149530D01*
X113828731Y-113149530D01*
X113969847Y-113156722D01*
X114068827Y-113179345D01*
X114131367Y-113218964D01*
X114145369Y-113236628D01*
X114169367Y-113304122D01*
X114414465Y-113304122D01*
X114410059Y-113226157D01*
X114365120Y-113112855D01*
X114303804Y-113036285D01*
X114266668Y-113003181D01*
X114230313Y-112981425D01*
X114183010Y-112968161D01*
X114113027Y-112960528D01*
X114008636Y-112955670D01*
X113967230Y-112954273D01*
X113707334Y-112945780D01*
X113707715Y-112867116D01*
X113717781Y-112784428D01*
X113754171Y-112734431D01*
X113827689Y-112702489D01*
X113829661Y-112701920D01*
X113933895Y-112689361D01*
X114035892Y-112705766D01*
X114111695Y-112745657D01*
X114142110Y-112765354D01*
X114174868Y-112762629D01*
X114225279Y-112734091D01*
X114254881Y-112713950D01*
X114312782Y-112670919D01*
X114348648Y-112638662D01*
X114354403Y-112629427D01*
X114330705Y-112581636D01*
X114260687Y-112524562D01*
X114230275Y-112505305D01*
X114142845Y-112472140D01*
X114025017Y-112453350D01*
X113894134Y-112449129D01*
X113767541Y-112459669D01*
G37*
X113767541Y-112459669D02*
X113662580Y-112485163D01*
X113632239Y-112498669D01*
X113573427Y-112534046D01*
X113528291Y-112573890D01*
X113494894Y-112625120D01*
X113471299Y-112694654D01*
X113455567Y-112789409D01*
X113445761Y-112916305D01*
X113439943Y-113082258D01*
X113437734Y-113193108D01*
X113429604Y-113672471D01*
X113568469Y-113672471D01*
X113652713Y-113668938D01*
X113696116Y-113656866D01*
X113707334Y-113636594D01*
X113713256Y-113614674D01*
X113739734Y-113618865D01*
X113775814Y-113636441D01*
X113866138Y-113663382D01*
X113982223Y-113670642D01*
X114104320Y-113658767D01*
X114212679Y-113628305D01*
X114222398Y-113624077D01*
X114321432Y-113554505D01*
X114386719Y-113457789D01*
X114416760Y-113344738D01*
X114414465Y-113304122D01*
X114169367Y-113304122D01*
X114147771Y-113358782D01*
X114083741Y-113397952D01*
X113980435Y-113418974D01*
X113925226Y-113421766D01*
X113833218Y-113414620D01*
X113772059Y-113386848D01*
X113757138Y-113373647D01*
X113716713Y-113301829D01*
X113707334Y-113236686D01*
X113707334Y-113149530D01*
X113828731Y-113149530D01*
X113969847Y-113156722D01*
X114068827Y-113179345D01*
X114131367Y-113218964D01*
X114145369Y-113236628D01*
X114169367Y-113304122D01*
X114414465Y-113304122D01*
X114410059Y-113226157D01*
X114365120Y-113112855D01*
X114303804Y-113036285D01*
X114266668Y-113003181D01*
X114230313Y-112981425D01*
X114183010Y-112968161D01*
X114113027Y-112960528D01*
X114008636Y-112955670D01*
X113967230Y-112954273D01*
X113707334Y-112945780D01*
X113707715Y-112867116D01*
X113717781Y-112784428D01*
X113754171Y-112734431D01*
X113827689Y-112702489D01*
X113829661Y-112701920D01*
X113933895Y-112689361D01*
X114035892Y-112705766D01*
X114111695Y-112745657D01*
X114142110Y-112765354D01*
X114174868Y-112762629D01*
X114225279Y-112734091D01*
X114254881Y-112713950D01*
X114312782Y-112670919D01*
X114348648Y-112638662D01*
X114354403Y-112629427D01*
X114330705Y-112581636D01*
X114260687Y-112524562D01*
X114230275Y-112505305D01*
X114142845Y-112472140D01*
X114025017Y-112453350D01*
X113894134Y-112449129D01*
X113767541Y-112459669D01*
G36*
X115266472Y-112457332D02*
G01*
X115167986Y-112464726D01*
X115039224Y-112850706D01*
X114910463Y-113236686D01*
X114870089Y-113099726D01*
X114845793Y-113015083D01*
X114813833Y-112900697D01*
X114779321Y-112774963D01*
X114761072Y-112707520D01*
X114692429Y-112452275D01*
X114409227Y-112452275D01*
X114493878Y-112719971D01*
X114535565Y-112851638D01*
X114585926Y-113010458D01*
X114638519Y-113176128D01*
X114685470Y-113323843D01*
X114792411Y-113660020D01*
X115023339Y-113675044D01*
X115085950Y-113468316D01*
X115124562Y-113339896D01*
X115166700Y-113198322D01*
X115203528Y-113073285D01*
X115204982Y-113068309D01*
X115232489Y-112983586D01*
X115256758Y-112925778D01*
X115273757Y-112903918D01*
X115277250Y-112906446D01*
X115289510Y-112940336D01*
X115312805Y-113012930D01*
X115344300Y-113115101D01*
X115381158Y-113237720D01*
X115401101Y-113305167D01*
X115509105Y-113672471D01*
X115738321Y-113672471D01*
X115921561Y-113093500D01*
X115973037Y-112931091D01*
X116019930Y-112783602D01*
X116060023Y-112657960D01*
X116091103Y-112561095D01*
X116110955Y-112499934D01*
X116116989Y-112482065D01*
X116112212Y-112463768D01*
X116074703Y-112455755D01*
X115996645Y-112456557D01*
X115984426Y-112457163D01*
X115839674Y-112464726D01*
X115744870Y-112813353D01*
X115710023Y-112940497D01*
X115678883Y-113052265D01*
X115654191Y-113138953D01*
X115638688Y-113190856D01*
X115635824Y-113199318D01*
X115623954Y-113189587D01*
X115600017Y-113139172D01*
X115566761Y-113054935D01*
X115526936Y-112943741D01*
X115493270Y-112843297D01*
X115364959Y-112449939D01*
X115266472Y-112457332D01*
G37*
X115266472Y-112457332D02*
X115167986Y-112464726D01*
X115039224Y-112850706D01*
X114910463Y-113236686D01*
X114870089Y-113099726D01*
X114845793Y-113015083D01*
X114813833Y-112900697D01*
X114779321Y-112774963D01*
X114761072Y-112707520D01*
X114692429Y-112452275D01*
X114409227Y-112452275D01*
X114493878Y-112719971D01*
X114535565Y-112851638D01*
X114585926Y-113010458D01*
X114638519Y-113176128D01*
X114685470Y-113323843D01*
X114792411Y-113660020D01*
X115023339Y-113675044D01*
X115085950Y-113468316D01*
X115124562Y-113339896D01*
X115166700Y-113198322D01*
X115203528Y-113073285D01*
X115204982Y-113068309D01*
X115232489Y-112983586D01*
X115256758Y-112925778D01*
X115273757Y-112903918D01*
X115277250Y-112906446D01*
X115289510Y-112940336D01*
X115312805Y-113012930D01*
X115344300Y-113115101D01*
X115381158Y-113237720D01*
X115401101Y-113305167D01*
X115509105Y-113672471D01*
X115738321Y-113672471D01*
X115921561Y-113093500D01*
X115973037Y-112931091D01*
X116019930Y-112783602D01*
X116060023Y-112657960D01*
X116091103Y-112561095D01*
X116110955Y-112499934D01*
X116116989Y-112482065D01*
X116112212Y-112463768D01*
X116074703Y-112455755D01*
X115996645Y-112456557D01*
X115984426Y-112457163D01*
X115839674Y-112464726D01*
X115744870Y-112813353D01*
X115710023Y-112940497D01*
X115678883Y-113052265D01*
X115654191Y-113138953D01*
X115638688Y-113190856D01*
X115635824Y-113199318D01*
X115623954Y-113189587D01*
X115600017Y-113139172D01*
X115566761Y-113054935D01*
X115526936Y-112943741D01*
X115493270Y-112843297D01*
X115364959Y-112449939D01*
X115266472Y-112457332D01*
G36*
X116222432Y-113672471D02*
G01*
X116359393Y-113672471D01*
X116438889Y-113670140D01*
X116480292Y-113660488D01*
X116495199Y-113639525D01*
X116496353Y-113625351D01*
X116498867Y-113596927D01*
X116514720Y-113591475D01*
X116556379Y-113608998D01*
X116588776Y-113625351D01*
X116713151Y-113664103D01*
X116848354Y-113666346D01*
X116958274Y-113637444D01*
X117060634Y-113567619D01*
X117138660Y-113464555D01*
X117181386Y-113342989D01*
X117182474Y-113336192D01*
X117188822Y-113262032D01*
X117191979Y-113155570D01*
X117191725Y-113075052D01*
X116919711Y-113075052D01*
X116913410Y-113182070D01*
X116899075Y-113270278D01*
X116879669Y-113320090D01*
X116806254Y-113388162D01*
X116719086Y-113412564D01*
X116629196Y-113392831D01*
X116552383Y-113333968D01*
X116523292Y-113294379D01*
X116506283Y-113247138D01*
X116498316Y-113178181D01*
X116496353Y-113074607D01*
X116499866Y-112972039D01*
X116509143Y-112881921D01*
X116522294Y-112821613D01*
X116524486Y-112816208D01*
X116577522Y-112751940D01*
X116654933Y-112716656D01*
X116741546Y-112710959D01*
X116822193Y-112735453D01*
X116881703Y-112790742D01*
X116887876Y-112801743D01*
X116907199Y-112868827D01*
X116917726Y-112965284D01*
X116919711Y-113075052D01*
X117191725Y-113075052D01*
X117191596Y-113034225D01*
X117189806Y-112968918D01*
X117177627Y-112807355D01*
X117152315Y-112686053D01*
X117110207Y-112596379D01*
X117047641Y-112529699D01*
X116986900Y-112490557D01*
X116902036Y-112463040D01*
X116796485Y-112453603D01*
X116688402Y-112461290D01*
X116595942Y-112485146D01*
X116547090Y-112513685D01*
X116496353Y-112559601D01*
X116496353Y-111979137D01*
X116222432Y-111979137D01*
X116222432Y-113672471D01*
G37*
X116222432Y-113672471D02*
X116359393Y-113672471D01*
X116438889Y-113670140D01*
X116480292Y-113660488D01*
X116495199Y-113639525D01*
X116496353Y-113625351D01*
X116498867Y-113596927D01*
X116514720Y-113591475D01*
X116556379Y-113608998D01*
X116588776Y-113625351D01*
X116713151Y-113664103D01*
X116848354Y-113666346D01*
X116958274Y-113637444D01*
X117060634Y-113567619D01*
X117138660Y-113464555D01*
X117181386Y-113342989D01*
X117182474Y-113336192D01*
X117188822Y-113262032D01*
X117191979Y-113155570D01*
X117191725Y-113075052D01*
X116919711Y-113075052D01*
X116913410Y-113182070D01*
X116899075Y-113270278D01*
X116879669Y-113320090D01*
X116806254Y-113388162D01*
X116719086Y-113412564D01*
X116629196Y-113392831D01*
X116552383Y-113333968D01*
X116523292Y-113294379D01*
X116506283Y-113247138D01*
X116498316Y-113178181D01*
X116496353Y-113074607D01*
X116499866Y-112972039D01*
X116509143Y-112881921D01*
X116522294Y-112821613D01*
X116524486Y-112816208D01*
X116577522Y-112751940D01*
X116654933Y-112716656D01*
X116741546Y-112710959D01*
X116822193Y-112735453D01*
X116881703Y-112790742D01*
X116887876Y-112801743D01*
X116907199Y-112868827D01*
X116917726Y-112965284D01*
X116919711Y-113075052D01*
X117191725Y-113075052D01*
X117191596Y-113034225D01*
X117189806Y-112968918D01*
X117177627Y-112807355D01*
X117152315Y-112686053D01*
X117110207Y-112596379D01*
X117047641Y-112529699D01*
X116986900Y-112490557D01*
X116902036Y-112463040D01*
X116796485Y-112453603D01*
X116688402Y-112461290D01*
X116595942Y-112485146D01*
X116547090Y-112513685D01*
X116496353Y-112559601D01*
X116496353Y-111979137D01*
X116222432Y-111979137D01*
X116222432Y-113672471D01*
G36*
X117791236Y-112454921D02*
G01*
X117753970Y-112466091D01*
X117741957Y-112490633D01*
X117741451Y-112501712D01*
X117739296Y-112532572D01*
X117724449Y-112537417D01*
X117684343Y-112516260D01*
X117660520Y-112501806D01*
X117585362Y-112470850D01*
X117495594Y-112455544D01*
X117401471Y-112454367D01*
X117313246Y-112465799D01*
X117241174Y-112488320D01*
X117195508Y-112520409D01*
X117186502Y-112560545D01*
X117191047Y-112571415D01*
X117224179Y-112616534D01*
X117275555Y-112672026D01*
X117284848Y-112680996D01*
X117333818Y-112722245D01*
X117376069Y-112735572D01*
X117435159Y-112726271D01*
X117458831Y-112720090D01*
X117532496Y-112705246D01*
X117584290Y-112711921D01*
X117628031Y-112735465D01*
X117668098Y-112767061D01*
X117697608Y-112806798D01*
X117718116Y-112862252D01*
X117731176Y-112941003D01*
X117738344Y-113050629D01*
X117741176Y-113198706D01*
X117741451Y-113288111D01*
X117741451Y-113672471D01*
X117990471Y-113672471D01*
X117990471Y-112452275D01*
X117865961Y-112452275D01*
X117791236Y-112454921D01*
G37*
X117791236Y-112454921D02*
X117753970Y-112466091D01*
X117741957Y-112490633D01*
X117741451Y-112501712D01*
X117739296Y-112532572D01*
X117724449Y-112537417D01*
X117684343Y-112516260D01*
X117660520Y-112501806D01*
X117585362Y-112470850D01*
X117495594Y-112455544D01*
X117401471Y-112454367D01*
X117313246Y-112465799D01*
X117241174Y-112488320D01*
X117195508Y-112520409D01*
X117186502Y-112560545D01*
X117191047Y-112571415D01*
X117224179Y-112616534D01*
X117275555Y-112672026D01*
X117284848Y-112680996D01*
X117333818Y-112722245D01*
X117376069Y-112735572D01*
X117435159Y-112726271D01*
X117458831Y-112720090D01*
X117532496Y-112705246D01*
X117584290Y-112711921D01*
X117628031Y-112735465D01*
X117668098Y-112767061D01*
X117697608Y-112806798D01*
X117718116Y-112862252D01*
X117731176Y-112941003D01*
X117738344Y-113050629D01*
X117741176Y-113198706D01*
X117741451Y-113288111D01*
X117741451Y-113672471D01*
X117990471Y-113672471D01*
X117990471Y-112452275D01*
X117865961Y-112452275D01*
X117791236Y-112454921D01*
G36*
X118565280Y-112461922D02*
G01*
X118448130Y-112493180D01*
X118358949Y-112549837D01*
X118296016Y-112624045D01*
X118276452Y-112655716D01*
X118262008Y-112688891D01*
X118251911Y-112731329D01*
X118245385Y-112790788D01*
X118241658Y-112875029D01*
X118239954Y-112991810D01*
X118239500Y-113148890D01*
X118239491Y-113190565D01*
X118239491Y-113672471D01*
X118359020Y-113672471D01*
X118435261Y-113667131D01*
X118491634Y-113653604D01*
X118505758Y-113645262D01*
X118544370Y-113630864D01*
X118583808Y-113645262D01*
X118648738Y-113663237D01*
X118743055Y-113670472D01*
X118847593Y-113667333D01*
X118943189Y-113654186D01*
X118999000Y-113637318D01*
X119107002Y-113567986D01*
X119174497Y-113471772D01*
X119204841Y-113343844D01*
X119205123Y-113340559D01*
X119202460Y-113283808D01*
X118961647Y-113283808D01*
X118940595Y-113348358D01*
X118906303Y-113384686D01*
X118837468Y-113412162D01*
X118746610Y-113423129D01*
X118653958Y-113417731D01*
X118579744Y-113396110D01*
X118558951Y-113382239D01*
X118522619Y-113318143D01*
X118513412Y-113245278D01*
X118513412Y-113149530D01*
X118651173Y-113149530D01*
X118782047Y-113159605D01*
X118881259Y-113188148D01*
X118942977Y-113232639D01*
X118961647Y-113283808D01*
X119202460Y-113283808D01*
X119198564Y-113200790D01*
X119152466Y-113090282D01*
X119065800Y-113006712D01*
X119053821Y-112999110D01*
X119002345Y-112974357D01*
X118938632Y-112959368D01*
X118849565Y-112952082D01*
X118743755Y-112950407D01*
X118513412Y-112950314D01*
X118513412Y-112853755D01*
X118523183Y-112778836D01*
X118548116Y-112728644D01*
X118551035Y-112725972D01*
X118606519Y-112704015D01*
X118690273Y-112695505D01*
X118782833Y-112699687D01*
X118864730Y-112715809D01*
X118913327Y-112739990D01*
X118939659Y-112759359D01*
X118967465Y-112763057D01*
X119005839Y-112747188D01*
X119063875Y-112707855D01*
X119150669Y-112641164D01*
X119158635Y-112634916D01*
X119154553Y-112611800D01*
X119120499Y-112573352D01*
X119068740Y-112530627D01*
X119011545Y-112494679D01*
X118993575Y-112486191D01*
X118928028Y-112469252D01*
X118831980Y-112457170D01*
X118724671Y-112452323D01*
X118719653Y-112452313D01*
X118565280Y-112461922D01*
G37*
X118565280Y-112461922D02*
X118448130Y-112493180D01*
X118358949Y-112549837D01*
X118296016Y-112624045D01*
X118276452Y-112655716D01*
X118262008Y-112688891D01*
X118251911Y-112731329D01*
X118245385Y-112790788D01*
X118241658Y-112875029D01*
X118239954Y-112991810D01*
X118239500Y-113148890D01*
X118239491Y-113190565D01*
X118239491Y-113672471D01*
X118359020Y-113672471D01*
X118435261Y-113667131D01*
X118491634Y-113653604D01*
X118505758Y-113645262D01*
X118544370Y-113630864D01*
X118583808Y-113645262D01*
X118648738Y-113663237D01*
X118743055Y-113670472D01*
X118847593Y-113667333D01*
X118943189Y-113654186D01*
X118999000Y-113637318D01*
X119107002Y-113567986D01*
X119174497Y-113471772D01*
X119204841Y-113343844D01*
X119205123Y-113340559D01*
X119202460Y-113283808D01*
X118961647Y-113283808D01*
X118940595Y-113348358D01*
X118906303Y-113384686D01*
X118837468Y-113412162D01*
X118746610Y-113423129D01*
X118653958Y-113417731D01*
X118579744Y-113396110D01*
X118558951Y-113382239D01*
X118522619Y-113318143D01*
X118513412Y-113245278D01*
X118513412Y-113149530D01*
X118651173Y-113149530D01*
X118782047Y-113159605D01*
X118881259Y-113188148D01*
X118942977Y-113232639D01*
X118961647Y-113283808D01*
X119202460Y-113283808D01*
X119198564Y-113200790D01*
X119152466Y-113090282D01*
X119065800Y-113006712D01*
X119053821Y-112999110D01*
X119002345Y-112974357D01*
X118938632Y-112959368D01*
X118849565Y-112952082D01*
X118743755Y-112950407D01*
X118513412Y-112950314D01*
X118513412Y-112853755D01*
X118523183Y-112778836D01*
X118548116Y-112728644D01*
X118551035Y-112725972D01*
X118606519Y-112704015D01*
X118690273Y-112695505D01*
X118782833Y-112699687D01*
X118864730Y-112715809D01*
X118913327Y-112739990D01*
X118939659Y-112759359D01*
X118967465Y-112763057D01*
X119005839Y-112747188D01*
X119063875Y-112707855D01*
X119150669Y-112641164D01*
X119158635Y-112634916D01*
X119154553Y-112611800D01*
X119120499Y-112573352D01*
X119068740Y-112530627D01*
X119011545Y-112494679D01*
X118993575Y-112486191D01*
X118928028Y-112469252D01*
X118831980Y-112457170D01*
X118724671Y-112452323D01*
X118719653Y-112452313D01*
X118565280Y-112461922D01*
G36*
X119604091Y-110605560D02*
G01*
X119551588Y-110631499D01*
X119486842Y-110676700D01*
X119439653Y-110725991D01*
X119407335Y-110787885D01*
X119387203Y-110870896D01*
X119376570Y-110983538D01*
X119372753Y-111134324D01*
X119372530Y-111199149D01*
X119373182Y-111341221D01*
X119375888Y-111442757D01*
X119381776Y-111513015D01*
X119391973Y-111561256D01*
X119407606Y-111596738D01*
X119423872Y-111620943D01*
X119527705Y-111723929D01*
X119649979Y-111785874D01*
X119781886Y-111804506D01*
X119914616Y-111777549D01*
X119956667Y-111758486D01*
X120057334Y-111706015D01*
X120057334Y-112528259D01*
X119983865Y-112490267D01*
X119887059Y-112460872D01*
X119768072Y-112453342D01*
X119649255Y-112467245D01*
X119559527Y-112498476D01*
X119485101Y-112557954D01*
X119421510Y-112643066D01*
X119416729Y-112651805D01*
X119396563Y-112692966D01*
X119381835Y-112734454D01*
X119371697Y-112784713D01*
X119365301Y-112852184D01*
X119361799Y-112945309D01*
X119360342Y-113072531D01*
X119360079Y-113215701D01*
X119360079Y-113672471D01*
X119634000Y-113672471D01*
X119634000Y-112830231D01*
X119710617Y-112765763D01*
X119790207Y-112714194D01*
X119865578Y-112704818D01*
X119941367Y-112728947D01*
X119981759Y-112752574D01*
X120011821Y-112786227D01*
X120033203Y-112837087D01*
X120047550Y-112912334D01*
X120056510Y-113019146D01*
X120061730Y-113164704D01*
X120063569Y-113261588D01*
X120069785Y-113660020D01*
X120200520Y-113667547D01*
X120331255Y-113675073D01*
X120331255Y-111202582D01*
X120057334Y-111202582D01*
X120050350Y-111340423D01*
X120026818Y-111436107D01*
X119982865Y-111495641D01*
X119914618Y-111525029D01*
X119845667Y-111530902D01*
X119767614Y-111524154D01*
X119715811Y-111497594D01*
X119683417Y-111462499D01*
X119657916Y-111424752D01*
X119642735Y-111382700D01*
X119635981Y-111323779D01*
X119635759Y-111235428D01*
X119638032Y-111161448D01*
X119643251Y-111050000D01*
X119651021Y-110976833D01*
X119664105Y-110930422D01*
X119685268Y-110899244D01*
X119705240Y-110881223D01*
X119788686Y-110841925D01*
X119887449Y-110835579D01*
X119944159Y-110849116D01*
X120000308Y-110897233D01*
X120037501Y-110990833D01*
X120055528Y-111129254D01*
X120057334Y-111202582D01*
X120331255Y-111202582D01*
X120331255Y-110584628D01*
X120194295Y-110584628D01*
X120112065Y-110587879D01*
X120069640Y-110599426D01*
X120057339Y-110621952D01*
X120057334Y-110622620D01*
X120051626Y-110644681D01*
X120026453Y-110642176D01*
X119976402Y-110617935D01*
X119859781Y-110580851D01*
X119728571Y-110576953D01*
X119604091Y-110605560D01*
G37*
X119604091Y-110605560D02*
X119551588Y-110631499D01*
X119486842Y-110676700D01*
X119439653Y-110725991D01*
X119407335Y-110787885D01*
X119387203Y-110870896D01*
X119376570Y-110983538D01*
X119372753Y-111134324D01*
X119372530Y-111199149D01*
X119373182Y-111341221D01*
X119375888Y-111442757D01*
X119381776Y-111513015D01*
X119391973Y-111561256D01*
X119407606Y-111596738D01*
X119423872Y-111620943D01*
X119527705Y-111723929D01*
X119649979Y-111785874D01*
X119781886Y-111804506D01*
X119914616Y-111777549D01*
X119956667Y-111758486D01*
X120057334Y-111706015D01*
X120057334Y-112528259D01*
X119983865Y-112490267D01*
X119887059Y-112460872D01*
X119768072Y-112453342D01*
X119649255Y-112467245D01*
X119559527Y-112498476D01*
X119485101Y-112557954D01*
X119421510Y-112643066D01*
X119416729Y-112651805D01*
X119396563Y-112692966D01*
X119381835Y-112734454D01*
X119371697Y-112784713D01*
X119365301Y-112852184D01*
X119361799Y-112945309D01*
X119360342Y-113072531D01*
X119360079Y-113215701D01*
X119360079Y-113672471D01*
X119634000Y-113672471D01*
X119634000Y-112830231D01*
X119710617Y-112765763D01*
X119790207Y-112714194D01*
X119865578Y-112704818D01*
X119941367Y-112728947D01*
X119981759Y-112752574D01*
X120011821Y-112786227D01*
X120033203Y-112837087D01*
X120047550Y-112912334D01*
X120056510Y-113019146D01*
X120061730Y-113164704D01*
X120063569Y-113261588D01*
X120069785Y-113660020D01*
X120200520Y-113667547D01*
X120331255Y-113675073D01*
X120331255Y-111202582D01*
X120057334Y-111202582D01*
X120050350Y-111340423D01*
X120026818Y-111436107D01*
X119982865Y-111495641D01*
X119914618Y-111525029D01*
X119845667Y-111530902D01*
X119767614Y-111524154D01*
X119715811Y-111497594D01*
X119683417Y-111462499D01*
X119657916Y-111424752D01*
X119642735Y-111382700D01*
X119635981Y-111323779D01*
X119635759Y-111235428D01*
X119638032Y-111161448D01*
X119643251Y-111050000D01*
X119651021Y-110976833D01*
X119664105Y-110930422D01*
X119685268Y-110899244D01*
X119705240Y-110881223D01*
X119788686Y-110841925D01*
X119887449Y-110835579D01*
X119944159Y-110849116D01*
X120000308Y-110897233D01*
X120037501Y-110990833D01*
X120055528Y-111129254D01*
X120057334Y-111202582D01*
X120331255Y-111202582D01*
X120331255Y-110584628D01*
X120194295Y-110584628D01*
X120112065Y-110587879D01*
X120069640Y-110599426D01*
X120057339Y-110621952D01*
X120057334Y-110622620D01*
X120051626Y-110644681D01*
X120026453Y-110642176D01*
X119976402Y-110617935D01*
X119859781Y-110580851D01*
X119728571Y-110576953D01*
X119604091Y-110605560D01*
G36*
X160430427Y-88376536D02*
G01*
X161027618Y-88489118D01*
X161198865Y-88904531D01*
X161370112Y-89319945D01*
X161031233Y-89818302D01*
X160936877Y-89957869D01*
X160852630Y-90084029D01*
X160782338Y-90190896D01*
X160729847Y-90272583D01*
X160699004Y-90323202D01*
X160692353Y-90336987D01*
X160709458Y-90361821D01*
X160756744Y-90414889D01*
X160828172Y-90490241D01*
X160917700Y-90581930D01*
X161019289Y-90684008D01*
X161126898Y-90790527D01*
X161234487Y-90895537D01*
X161336015Y-90993092D01*
X161425441Y-91077243D01*
X161496726Y-91142041D01*
X161543828Y-91181538D01*
X161559592Y-91190981D01*
X161588653Y-91177392D01*
X161652321Y-91139294D01*
X161744367Y-91080694D01*
X161858564Y-91005598D01*
X161988684Y-90918009D01*
X162062901Y-90867255D01*
X162198422Y-90774746D01*
X162320716Y-90692541D01*
X162423695Y-90624631D01*
X162501273Y-90575001D01*
X162547361Y-90547641D01*
X162557047Y-90543530D01*
X162584574Y-90552850D01*
X162648728Y-90578255D01*
X162740490Y-90615912D01*
X162850839Y-90661987D01*
X162970755Y-90712647D01*
X163091219Y-90764060D01*
X163203209Y-90812390D01*
X163297707Y-90853807D01*
X163365692Y-90884475D01*
X163398143Y-90900562D01*
X163399420Y-90901512D01*
X163405617Y-90926773D01*
X163419440Y-90994046D01*
X163439532Y-91096361D01*
X163464534Y-91226742D01*
X163493086Y-91378217D01*
X163509551Y-91466594D01*
X163540369Y-91628453D01*
X163569694Y-91774650D01*
X163595921Y-91897788D01*
X163617446Y-91990470D01*
X163632665Y-92045302D01*
X163637493Y-92056324D01*
X163670174Y-92067119D01*
X163743985Y-92075830D01*
X163850292Y-92082461D01*
X163980467Y-92087019D01*
X164125876Y-92089510D01*
X164277890Y-92089939D01*
X164427877Y-92088312D01*
X164567206Y-92084636D01*
X164687245Y-92078916D01*
X164779365Y-92071158D01*
X164834932Y-92061369D01*
X164846500Y-92055497D01*
X164860365Y-92020400D01*
X164880188Y-91946029D01*
X164903639Y-91842224D01*
X164928391Y-91718820D01*
X164936398Y-91675742D01*
X164974441Y-91468048D01*
X165005079Y-91303985D01*
X165029529Y-91178131D01*
X165049009Y-91085066D01*
X165064736Y-91019368D01*
X165077928Y-90975618D01*
X165089804Y-90948393D01*
X165101580Y-90932273D01*
X165103908Y-90930018D01*
X165141400Y-90907504D01*
X165214365Y-90873159D01*
X165313867Y-90830412D01*
X165430973Y-90782693D01*
X165556748Y-90733431D01*
X165682257Y-90686056D01*
X165798565Y-90643996D01*
X165896739Y-90610681D01*
X165967843Y-90589542D01*
X166002942Y-90584006D01*
X166004172Y-90584467D01*
X166032861Y-90603224D01*
X166095985Y-90645777D01*
X166186973Y-90707654D01*
X166299255Y-90784383D01*
X166426260Y-90871492D01*
X166462353Y-90896299D01*
X166593203Y-90984753D01*
X166712591Y-91062589D01*
X166813662Y-91125567D01*
X166889559Y-91169446D01*
X166933427Y-91189986D01*
X166938817Y-91190981D01*
X166967144Y-91173723D01*
X167023261Y-91126036D01*
X167101137Y-91054051D01*
X167194740Y-90963898D01*
X167298041Y-90861706D01*
X167405006Y-90753606D01*
X167509606Y-90645729D01*
X167605809Y-90544205D01*
X167687584Y-90455163D01*
X167748900Y-90384734D01*
X167783726Y-90339048D01*
X167789412Y-90326410D01*
X167776020Y-90296992D01*
X167739899Y-90236762D01*
X167687136Y-90155530D01*
X167644667Y-90093031D01*
X167566740Y-89979786D01*
X167474984Y-89845675D01*
X167383375Y-89711156D01*
X167334346Y-89638834D01*
X167168770Y-89394039D01*
X167279875Y-89188551D01*
X167328548Y-89094937D01*
X167366381Y-89015331D01*
X167387958Y-88961468D01*
X167390961Y-88947758D01*
X167368793Y-88931271D01*
X167306149Y-88898746D01*
X167208809Y-88852609D01*
X167082549Y-88795291D01*
X166933150Y-88729217D01*
X166766388Y-88656816D01*
X166588042Y-88580517D01*
X166403891Y-88502747D01*
X166219712Y-88425935D01*
X166041285Y-88352507D01*
X165874387Y-88284893D01*
X165724797Y-88225521D01*
X165598293Y-88176817D01*
X165500654Y-88141211D01*
X165437657Y-88121131D01*
X165416021Y-88117901D01*
X165388424Y-88143497D01*
X165343625Y-88199539D01*
X165290934Y-88274312D01*
X165286765Y-88280588D01*
X165132069Y-88473846D01*
X164951591Y-88629675D01*
X164751102Y-88746725D01*
X164536374Y-88823646D01*
X164313177Y-88859087D01*
X164087281Y-88851698D01*
X163864459Y-88800128D01*
X163650479Y-88703027D01*
X163603664Y-88674459D01*
X163414618Y-88525869D01*
X163262812Y-88350328D01*
X163149034Y-88153911D01*
X163074075Y-87942694D01*
X163038722Y-87722754D01*
X163043767Y-87500164D01*
X163089999Y-87281002D01*
X163178206Y-87071343D01*
X163309179Y-86877262D01*
X163362337Y-86817227D01*
X163528739Y-86664436D01*
X163703912Y-86553098D01*
X163900266Y-86476724D01*
X164094717Y-86434188D01*
X164313342Y-86423687D01*
X164533052Y-86458701D01*
X164746420Y-86535674D01*
X164946022Y-86651048D01*
X165124429Y-86801266D01*
X165274217Y-86982774D01*
X165290006Y-87006628D01*
X165341712Y-87082202D01*
X165386512Y-87139652D01*
X165415117Y-87167118D01*
X165416021Y-87167518D01*
X165446964Y-87161621D01*
X165517191Y-87138246D01*
X165620925Y-87099822D01*
X165752390Y-87048778D01*
X165905807Y-86987543D01*
X166075401Y-86918545D01*
X166255393Y-86844214D01*
X166440008Y-86766979D01*
X166623468Y-86689269D01*
X166799996Y-86613512D01*
X166963814Y-86542138D01*
X167109147Y-86477575D01*
X167230217Y-86422253D01*
X167321247Y-86378601D01*
X167376460Y-86349047D01*
X167390961Y-86337145D01*
X167379669Y-86300778D01*
X167349385Y-86232731D01*
X167305520Y-86144737D01*
X167279875Y-86096351D01*
X167168770Y-85890864D01*
X167334346Y-85646069D01*
X167419170Y-85521107D01*
X167512516Y-85384296D01*
X167600408Y-85256089D01*
X167644667Y-85191872D01*
X167705318Y-85101552D01*
X167753381Y-85025072D01*
X167782770Y-84972408D01*
X167788982Y-84955303D01*
X167772223Y-84930406D01*
X167725436Y-84875306D01*
X167653480Y-84795344D01*
X167561212Y-84695861D01*
X167453490Y-84582201D01*
X167384326Y-84510316D01*
X167260757Y-84384552D01*
X167150234Y-84275864D01*
X167057485Y-84188646D01*
X166987237Y-84127290D01*
X166944220Y-84096192D01*
X166935490Y-84093209D01*
X166902284Y-84107054D01*
X166835142Y-84145313D01*
X166740863Y-84203742D01*
X166626245Y-84278098D01*
X166498083Y-84364136D01*
X166462353Y-84388603D01*
X166332489Y-84477755D01*
X166215569Y-84557739D01*
X166118162Y-84624081D01*
X166046839Y-84672312D01*
X166008170Y-84697958D01*
X166004172Y-84700436D01*
X165973355Y-84696730D01*
X165905599Y-84677062D01*
X165809839Y-84644861D01*
X165695009Y-84603556D01*
X165570044Y-84556576D01*
X165443879Y-84507350D01*
X165325448Y-84459309D01*
X165223685Y-84415882D01*
X165147526Y-84380497D01*
X165105904Y-84356585D01*
X165103908Y-84354885D01*
X165092013Y-84340263D01*
X165080250Y-84315566D01*
X165067401Y-84275373D01*
X165052249Y-84214264D01*
X165033576Y-84126818D01*
X165010165Y-84007613D01*
X164980797Y-83851228D01*
X164944255Y-83652244D01*
X164936398Y-83609161D01*
X164911727Y-83481471D01*
X164887593Y-83370154D01*
X164866324Y-83285046D01*
X164850248Y-83235984D01*
X164846500Y-83229406D01*
X164813273Y-83218565D01*
X164739021Y-83209754D01*
X164632376Y-83202977D01*
X164501967Y-83198241D01*
X164356427Y-83195551D01*
X164204386Y-83194914D01*
X164054476Y-83196335D01*
X163915328Y-83199821D01*
X163795572Y-83205377D01*
X163703841Y-83213009D01*
X163648766Y-83222723D01*
X163637493Y-83228579D01*
X163626123Y-83261181D01*
X163607624Y-83335419D01*
X163583602Y-83443897D01*
X163555662Y-83579218D01*
X163525408Y-83733986D01*
X163509551Y-83818308D01*
X163479644Y-83978297D01*
X163452550Y-84120968D01*
X163429631Y-84239349D01*
X163412243Y-84326466D01*
X163401747Y-84375346D01*
X163399420Y-84383391D01*
X163373186Y-84396988D01*
X163309995Y-84425730D01*
X163218877Y-84465786D01*
X163108857Y-84513325D01*
X162988965Y-84564516D01*
X162868227Y-84615527D01*
X162755671Y-84662527D01*
X162660326Y-84701685D01*
X162591217Y-84729170D01*
X162557374Y-84741150D01*
X162555895Y-84741373D01*
X162529197Y-84727792D01*
X162467760Y-84689716D01*
X162377689Y-84631148D01*
X162265090Y-84556089D01*
X162136070Y-84468541D01*
X162061961Y-84417648D01*
X161926077Y-84324910D01*
X161802709Y-84242542D01*
X161698097Y-84174562D01*
X161618483Y-84124989D01*
X161570107Y-84097843D01*
X161559262Y-84093922D01*
X161534020Y-84110776D01*
X161480124Y-84157369D01*
X161403613Y-84227749D01*
X161310523Y-84315966D01*
X161206895Y-84416066D01*
X161098764Y-84522099D01*
X160992170Y-84628112D01*
X160893150Y-84728153D01*
X160807742Y-84816271D01*
X160741985Y-84886514D01*
X160701916Y-84932929D01*
X160692353Y-84948457D01*
X160705800Y-84973740D01*
X160743575Y-85034212D01*
X160801835Y-85123993D01*
X160876734Y-85237204D01*
X160964425Y-85367964D01*
X161031233Y-85466600D01*
X161370112Y-85964958D01*
X161198865Y-86380371D01*
X161027618Y-86795785D01*
X160430427Y-86908367D01*
X159833235Y-87020950D01*
X159833235Y-88263953D01*
X160430427Y-88376536D01*
G37*
X160430427Y-88376536D02*
X161027618Y-88489118D01*
X161198865Y-88904531D01*
X161370112Y-89319945D01*
X161031233Y-89818302D01*
X160936877Y-89957869D01*
X160852630Y-90084029D01*
X160782338Y-90190896D01*
X160729847Y-90272583D01*
X160699004Y-90323202D01*
X160692353Y-90336987D01*
X160709458Y-90361821D01*
X160756744Y-90414889D01*
X160828172Y-90490241D01*
X160917700Y-90581930D01*
X161019289Y-90684008D01*
X161126898Y-90790527D01*
X161234487Y-90895537D01*
X161336015Y-90993092D01*
X161425441Y-91077243D01*
X161496726Y-91142041D01*
X161543828Y-91181538D01*
X161559592Y-91190981D01*
X161588653Y-91177392D01*
X161652321Y-91139294D01*
X161744367Y-91080694D01*
X161858564Y-91005598D01*
X161988684Y-90918009D01*
X162062901Y-90867255D01*
X162198422Y-90774746D01*
X162320716Y-90692541D01*
X162423695Y-90624631D01*
X162501273Y-90575001D01*
X162547361Y-90547641D01*
X162557047Y-90543530D01*
X162584574Y-90552850D01*
X162648728Y-90578255D01*
X162740490Y-90615912D01*
X162850839Y-90661987D01*
X162970755Y-90712647D01*
X163091219Y-90764060D01*
X163203209Y-90812390D01*
X163297707Y-90853807D01*
X163365692Y-90884475D01*
X163398143Y-90900562D01*
X163399420Y-90901512D01*
X163405617Y-90926773D01*
X163419440Y-90994046D01*
X163439532Y-91096361D01*
X163464534Y-91226742D01*
X163493086Y-91378217D01*
X163509551Y-91466594D01*
X163540369Y-91628453D01*
X163569694Y-91774650D01*
X163595921Y-91897788D01*
X163617446Y-91990470D01*
X163632665Y-92045302D01*
X163637493Y-92056324D01*
X163670174Y-92067119D01*
X163743985Y-92075830D01*
X163850292Y-92082461D01*
X163980467Y-92087019D01*
X164125876Y-92089510D01*
X164277890Y-92089939D01*
X164427877Y-92088312D01*
X164567206Y-92084636D01*
X164687245Y-92078916D01*
X164779365Y-92071158D01*
X164834932Y-92061369D01*
X164846500Y-92055497D01*
X164860365Y-92020400D01*
X164880188Y-91946029D01*
X164903639Y-91842224D01*
X164928391Y-91718820D01*
X164936398Y-91675742D01*
X164974441Y-91468048D01*
X165005079Y-91303985D01*
X165029529Y-91178131D01*
X165049009Y-91085066D01*
X165064736Y-91019368D01*
X165077928Y-90975618D01*
X165089804Y-90948393D01*
X165101580Y-90932273D01*
X165103908Y-90930018D01*
X165141400Y-90907504D01*
X165214365Y-90873159D01*
X165313867Y-90830412D01*
X165430973Y-90782693D01*
X165556748Y-90733431D01*
X165682257Y-90686056D01*
X165798565Y-90643996D01*
X165896739Y-90610681D01*
X165967843Y-90589542D01*
X166002942Y-90584006D01*
X166004172Y-90584467D01*
X166032861Y-90603224D01*
X166095985Y-90645777D01*
X166186973Y-90707654D01*
X166299255Y-90784383D01*
X166426260Y-90871492D01*
X166462353Y-90896299D01*
X166593203Y-90984753D01*
X166712591Y-91062589D01*
X166813662Y-91125567D01*
X166889559Y-91169446D01*
X166933427Y-91189986D01*
X166938817Y-91190981D01*
X166967144Y-91173723D01*
X167023261Y-91126036D01*
X167101137Y-91054051D01*
X167194740Y-90963898D01*
X167298041Y-90861706D01*
X167405006Y-90753606D01*
X167509606Y-90645729D01*
X167605809Y-90544205D01*
X167687584Y-90455163D01*
X167748900Y-90384734D01*
X167783726Y-90339048D01*
X167789412Y-90326410D01*
X167776020Y-90296992D01*
X167739899Y-90236762D01*
X167687136Y-90155530D01*
X167644667Y-90093031D01*
X167566740Y-89979786D01*
X167474984Y-89845675D01*
X167383375Y-89711156D01*
X167334346Y-89638834D01*
X167168770Y-89394039D01*
X167279875Y-89188551D01*
X167328548Y-89094937D01*
X167366381Y-89015331D01*
X167387958Y-88961468D01*
X167390961Y-88947758D01*
X167368793Y-88931271D01*
X167306149Y-88898746D01*
X167208809Y-88852609D01*
X167082549Y-88795291D01*
X166933150Y-88729217D01*
X166766388Y-88656816D01*
X166588042Y-88580517D01*
X166403891Y-88502747D01*
X166219712Y-88425935D01*
X166041285Y-88352507D01*
X165874387Y-88284893D01*
X165724797Y-88225521D01*
X165598293Y-88176817D01*
X165500654Y-88141211D01*
X165437657Y-88121131D01*
X165416021Y-88117901D01*
X165388424Y-88143497D01*
X165343625Y-88199539D01*
X165290934Y-88274312D01*
X165286765Y-88280588D01*
X165132069Y-88473846D01*
X164951591Y-88629675D01*
X164751102Y-88746725D01*
X164536374Y-88823646D01*
X164313177Y-88859087D01*
X164087281Y-88851698D01*
X163864459Y-88800128D01*
X163650479Y-88703027D01*
X163603664Y-88674459D01*
X163414618Y-88525869D01*
X163262812Y-88350328D01*
X163149034Y-88153911D01*
X163074075Y-87942694D01*
X163038722Y-87722754D01*
X163043767Y-87500164D01*
X163089999Y-87281002D01*
X163178206Y-87071343D01*
X163309179Y-86877262D01*
X163362337Y-86817227D01*
X163528739Y-86664436D01*
X163703912Y-86553098D01*
X163900266Y-86476724D01*
X164094717Y-86434188D01*
X164313342Y-86423687D01*
X164533052Y-86458701D01*
X164746420Y-86535674D01*
X164946022Y-86651048D01*
X165124429Y-86801266D01*
X165274217Y-86982774D01*
X165290006Y-87006628D01*
X165341712Y-87082202D01*
X165386512Y-87139652D01*
X165415117Y-87167118D01*
X165416021Y-87167518D01*
X165446964Y-87161621D01*
X165517191Y-87138246D01*
X165620925Y-87099822D01*
X165752390Y-87048778D01*
X165905807Y-86987543D01*
X166075401Y-86918545D01*
X166255393Y-86844214D01*
X166440008Y-86766979D01*
X166623468Y-86689269D01*
X166799996Y-86613512D01*
X166963814Y-86542138D01*
X167109147Y-86477575D01*
X167230217Y-86422253D01*
X167321247Y-86378601D01*
X167376460Y-86349047D01*
X167390961Y-86337145D01*
X167379669Y-86300778D01*
X167349385Y-86232731D01*
X167305520Y-86144737D01*
X167279875Y-86096351D01*
X167168770Y-85890864D01*
X167334346Y-85646069D01*
X167419170Y-85521107D01*
X167512516Y-85384296D01*
X167600408Y-85256089D01*
X167644667Y-85191872D01*
X167705318Y-85101552D01*
X167753381Y-85025072D01*
X167782770Y-84972408D01*
X167788982Y-84955303D01*
X167772223Y-84930406D01*
X167725436Y-84875306D01*
X167653480Y-84795344D01*
X167561212Y-84695861D01*
X167453490Y-84582201D01*
X167384326Y-84510316D01*
X167260757Y-84384552D01*
X167150234Y-84275864D01*
X167057485Y-84188646D01*
X166987237Y-84127290D01*
X166944220Y-84096192D01*
X166935490Y-84093209D01*
X166902284Y-84107054D01*
X166835142Y-84145313D01*
X166740863Y-84203742D01*
X166626245Y-84278098D01*
X166498083Y-84364136D01*
X166462353Y-84388603D01*
X166332489Y-84477755D01*
X166215569Y-84557739D01*
X166118162Y-84624081D01*
X166046839Y-84672312D01*
X166008170Y-84697958D01*
X166004172Y-84700436D01*
X165973355Y-84696730D01*
X165905599Y-84677062D01*
X165809839Y-84644861D01*
X165695009Y-84603556D01*
X165570044Y-84556576D01*
X165443879Y-84507350D01*
X165325448Y-84459309D01*
X165223685Y-84415882D01*
X165147526Y-84380497D01*
X165105904Y-84356585D01*
X165103908Y-84354885D01*
X165092013Y-84340263D01*
X165080250Y-84315566D01*
X165067401Y-84275373D01*
X165052249Y-84214264D01*
X165033576Y-84126818D01*
X165010165Y-84007613D01*
X164980797Y-83851228D01*
X164944255Y-83652244D01*
X164936398Y-83609161D01*
X164911727Y-83481471D01*
X164887593Y-83370154D01*
X164866324Y-83285046D01*
X164850248Y-83235984D01*
X164846500Y-83229406D01*
X164813273Y-83218565D01*
X164739021Y-83209754D01*
X164632376Y-83202977D01*
X164501967Y-83198241D01*
X164356427Y-83195551D01*
X164204386Y-83194914D01*
X164054476Y-83196335D01*
X163915328Y-83199821D01*
X163795572Y-83205377D01*
X163703841Y-83213009D01*
X163648766Y-83222723D01*
X163637493Y-83228579D01*
X163626123Y-83261181D01*
X163607624Y-83335419D01*
X163583602Y-83443897D01*
X163555662Y-83579218D01*
X163525408Y-83733986D01*
X163509551Y-83818308D01*
X163479644Y-83978297D01*
X163452550Y-84120968D01*
X163429631Y-84239349D01*
X163412243Y-84326466D01*
X163401747Y-84375346D01*
X163399420Y-84383391D01*
X163373186Y-84396988D01*
X163309995Y-84425730D01*
X163218877Y-84465786D01*
X163108857Y-84513325D01*
X162988965Y-84564516D01*
X162868227Y-84615527D01*
X162755671Y-84662527D01*
X162660326Y-84701685D01*
X162591217Y-84729170D01*
X162557374Y-84741150D01*
X162555895Y-84741373D01*
X162529197Y-84727792D01*
X162467760Y-84689716D01*
X162377689Y-84631148D01*
X162265090Y-84556089D01*
X162136070Y-84468541D01*
X162061961Y-84417648D01*
X161926077Y-84324910D01*
X161802709Y-84242542D01*
X161698097Y-84174562D01*
X161618483Y-84124989D01*
X161570107Y-84097843D01*
X161559262Y-84093922D01*
X161534020Y-84110776D01*
X161480124Y-84157369D01*
X161403613Y-84227749D01*
X161310523Y-84315966D01*
X161206895Y-84416066D01*
X161098764Y-84522099D01*
X160992170Y-84628112D01*
X160893150Y-84728153D01*
X160807742Y-84816271D01*
X160741985Y-84886514D01*
X160701916Y-84932929D01*
X160692353Y-84948457D01*
X160705800Y-84973740D01*
X160743575Y-85034212D01*
X160801835Y-85123993D01*
X160876734Y-85237204D01*
X160964425Y-85367964D01*
X161031233Y-85466600D01*
X161370112Y-85964958D01*
X161198865Y-86380371D01*
X161027618Y-86795785D01*
X160430427Y-86908367D01*
X159833235Y-87020950D01*
X159833235Y-88263953D01*
X160430427Y-88376536D01*
M02*
