<?xml version="1.0" standalone="no"?>
 <!DOCTYPE svg PUBLIC "-//W3C//DTD SVG 1.1//EN" 
 "http://www.w3.org/Graphics/SVG/1.1/DTD/svg11.dtd"> 
<svg
  xmlns:svg="http://www.w3.org/2000/svg"
  xmlns="http://www.w3.org/2000/svg"
  xmlns:xlink="http://www.w3.org/1999/xlink"
  version="1.1"
  width="11.684000cm" height="10.414000cm" viewBox="0 0 46000 41000">
<title>SVG Picture created as PCB-B_SilkS.svg date 2020/06/27 19:56:16 </title>
  <desc>Picture generated by PCBNEW </desc>
<g style="fill:#000000; fill-opacity:1;stroke:#000000; stroke-opacity:1;
stroke-linecap:round; stroke-linejoin:round;"
 transform="translate(0 0) scale(1 1)">
</g>
<g style="fill:#000000; fill-opacity:0.0; 
stroke:#000000; stroke-width:-0.000393701; stroke-opacity:1; 
stroke-linecap:round; stroke-linejoin:round;">
</g>
<g style="fill:#840084; fill-opacity:0.0; 
stroke:#840084; stroke-width:-0.000393701; stroke-opacity:1; 
stroke-linecap:round; stroke-linejoin:round;">
</g>
<g style="fill:#840084; fill-opacity:0.0; 
stroke:#840084; stroke-width:59.0551; stroke-opacity:1; 
stroke-linecap:round; stroke-linejoin:round;">
<g transform="rotate(-90 20000 21600)">
<text x="20000" y="21796.9"
textLength="6968.5" font-size="524.934" lengthAdjust="spacingAndGlyphs"
text-anchor="middle" opacity="0">Designed by Electro707</text>
</g>
<path d="M20178 18150
L19784 18150
L19784 18244
L19803 18300
L19840 18337
L19878 18356
L19953 18375
L20009 18375
L20084 18356
L20121 18337
L20159 18300
L20178 18244
L20178 18150
" />
<path d="M20159 18694
L20178 18656
L20178 18581
L20159 18544
L20121 18525
L19971 18525
L19934 18544
L19915 18581
L19915 18656
L19934 18694
L19971 18712
L20009 18712
L20046 18525
" />
<path d="M20159 18862
L20178 18900
L20178 18975
L20159 19012
L20121 19031
L20103 19031
L20065 19012
L20046 18975
L20046 18919
L20028 18881
L19990 18862
L19971 18862
L19934 18881
L19915 18919
L19915 18975
L19934 19012
" />
<path d="M20178 19200
L19915 19200
" />
<path d="M19784 19200
L19803 19181
L19821 19200
L19803 19219
L19784 19200
L19821 19200
" />
<path d="M19915 19556
L20234 19556
L20271 19537
L20290 19519
L20309 19481
L20309 19425
L20290 19387
" />
<path d="M20159 19556
L20178 19519
L20178 19444
L20159 19406
L20140 19387
L20103 19369
L19990 19369
L19953 19387
L19934 19406
L19915 19444
L19915 19519
L19934 19556
" />
<path d="M19915 19743
L20178 19743
" />
<path d="M19953 19743
L19934 19762
L19915 19800
L19915 19856
L19934 19893
L19971 19912
L20178 19912
" />
<path d="M20159 20250
L20178 20212
L20178 20137
L20159 20100
L20121 20081
L19971 20081
L19934 20100
L19915 20137
L19915 20212
L19934 20250
L19971 20268
L20009 20268
L20046 20081
" />
<path d="M20178 20606
L19784 20606
" />
<path d="M20159 20606
L20178 20568
L20178 20493
L20159 20456
L20140 20437
L20103 20418
L19990 20418
L19953 20437
L19934 20456
L19915 20493
L19915 20568
L19934 20606
" />
<path d="M20178 21093
L19784 21093
" />
<path d="M19934 21093
L19915 21131
L19915 21206
L19934 21243
L19953 21262
L19990 21281
L20103 21281
L20140 21262
L20159 21243
L20178 21206
L20178 21131
L20159 21093
" />
<path d="M19915 21412
L20178 21506
" />
<path d="M19915 21600
L20178 21506
L20271 21468
L20290 21450
L20309 21412
" />
<path d="M19971 22049
L19971 22181
" />
<path d="M20178 22237
L20178 22049
L19784 22049
L19784 22237
" />
<path d="M20178 22462
L20159 22424
L20121 22406
L19784 22406
" />
<path d="M20159 22762
L20178 22724
L20178 22649
L20159 22612
L20121 22593
L19971 22593
L19934 22612
L19915 22649
L19915 22724
L19934 22762
L19971 22781
L20009 22781
L20046 22593
" />
<path d="M20159 23118
L20178 23081
L20178 23006
L20159 22968
L20140 22949
L20103 22931
L19990 22931
L19953 22949
L19934 22968
L19915 23006
L19915 23081
L19934 23118
" />
<path d="M19915 23231
L19915 23381
" />
<path d="M19784 23287
L20121 23287
L20159 23306
L20178 23343
L20178 23381
" />
<path d="M20178 23512
L19915 23512
" />
<path d="M19990 23512
L19953 23531
L19934 23549
L19915 23587
L19915 23624
" />
<path d="M20178 23812
L20159 23774
L20140 23755
L20103 23737
L19990 23737
L19953 23755
L19934 23774
L19915 23812
L19915 23868
L19934 23905
L19953 23924
L19990 23943
L20103 23943
L20140 23924
L20159 23905
L20178 23868
L20178 23812
" />
<path d="M19784 24074
L19784 24337
L20178 24168
" />
<path d="M19784 24562
L19784 24599
L19803 24637
L19821 24655
L19859 24674
L19934 24693
L20028 24693
L20103 24674
L20140 24655
L20159 24637
L20178 24599
L20178 24562
L20159 24524
L20140 24505
L20103 24487
L20028 24468
L19934 24468
L19859 24487
L19821 24505
L19803 24524
L19784 24562
" />
<path d="M19784 24824
L19784 25087
L20178 24918
" />
</g>
<g style="fill:#840084; fill-opacity:0.0; 
stroke:#840084; stroke-width:75; stroke-opacity:1; 
stroke-linecap:round; stroke-linejoin:round;">
<g transform="rotate(-90 19200 21800)">
<text x="19200" y="22100"
textLength="10923.2" font-size="800" lengthAdjust="spacingAndGlyphs"
text-anchor="middle" opacity="0">Connect 4 Soldering Kit</text>
</g>
<path d="M19414 16785
L19442 16757
L19471 16671
L19471 16614
L19442 16528
L19385 16471
L19328 16442
L19214 16414
L19128 16414
L19014 16442
L18957 16471
L18900 16528
L18871 16614
L18871 16671
L18900 16757
L18928 16785
" />
<path d="M19471 17128
L19442 17071
L19414 17042
L19357 17014
L19185 17014
L19128 17042
L19100 17071
L19071 17128
L19071 17214
L19100 17271
L19128 17300
L19185 17328
L19357 17328
L19414 17300
L19442 17271
L19471 17214
L19471 17128
" />
<path d="M19071 17585
L19471 17585
" />
<path d="M19128 17585
L19100 17614
L19071 17671
L19071 17757
L19100 17814
L19157 17842
L19471 17842
" />
<path d="M19071 18128
L19471 18128
" />
<path d="M19128 18128
L19100 18157
L19071 18214
L19071 18300
L19100 18357
L19157 18385
L19471 18385
" />
<path d="M19442 18900
L19471 18842
L19471 18728
L19442 18671
L19385 18642
L19157 18642
L19100 18671
L19071 18728
L19071 18842
L19100 18900
L19157 18928
L19214 18928
L19271 18642
" />
<path d="M19442 19442
L19471 19385
L19471 19271
L19442 19214
L19414 19185
L19357 19157
L19185 19157
L19128 19185
L19100 19214
L19071 19271
L19071 19385
L19100 19442
" />
<path d="M19071 19614
L19071 19842
" />
<path d="M18871 19700
L19385 19700
L19442 19728
L19471 19785
L19471 19842
" />
<path d="M19071 20757
L19471 20757
" />
<path d="M18842 20614
L19271 20471
L19271 20842
" />
<path d="M19442 21500
L19471 21585
L19471 21728
L19442 21785
L19414 21814
L19357 21842
L19300 21842
L19242 21814
L19214 21785
L19185 21728
L19157 21614
L19128 21557
L19100 21528
L19042 21500
L18985 21500
L18928 21528
L18900 21557
L18871 21614
L18871 21757
L18900 21842
" />
<path d="M19471 22185
L19442 22128
L19414 22100
L19357 22071
L19185 22071
L19128 22100
L19100 22128
L19071 22185
L19071 22271
L19100 22328
L19128 22357
L19185 22385
L19357 22385
L19414 22357
L19442 22328
L19471 22271
L19471 22185
" />
<path d="M19471 22728
L19442 22671
L19385 22642
L18871 22642
" />
<path d="M19471 23214
L18871 23214
" />
<path d="M19442 23214
L19471 23157
L19471 23042
L19442 22985
L19414 22957
L19357 22928
L19185 22928
L19128 22957
L19100 22985
L19071 23042
L19071 23157
L19100 23214
" />
<path d="M19442 23728
L19471 23671
L19471 23557
L19442 23500
L19385 23471
L19157 23471
L19100 23500
L19071 23557
L19071 23671
L19100 23728
L19157 23757
L19214 23757
L19271 23471
" />
<path d="M19471 24014
L19071 24014
" />
<path d="M19185 24014
L19128 24042
L19100 24071
L19071 24128
L19071 24185
" />
<path d="M19471 24385
L19071 24385
" />
<path d="M18871 24385
L18900 24357
L18928 24385
L18900 24414
L18871 24385
L18928 24385
" />
<path d="M19071 24671
L19471 24671
" />
<path d="M19128 24671
L19100 24700
L19071 24757
L19071 24842
L19100 24900
L19157 24928
L19471 24928
" />
<path d="M19071 25471
L19557 25471
L19614 25442
L19642 25414
L19671 25357
L19671 25271
L19642 25214
" />
<path d="M19442 25471
L19471 25414
L19471 25300
L19442 25242
L19414 25214
L19357 25185
L19185 25185
L19128 25214
L19100 25242
L19071 25300
L19071 25414
L19100 25471
" />
<path d="M19471 26214
L18871 26214
" />
<path d="M19471 26557
L19128 26300
" />
<path d="M18871 26557
L19214 26214
" />
<path d="M19471 26814
L19071 26814
" />
<path d="M18871 26814
L18900 26785
L18928 26814
L18900 26842
L18871 26814
L18928 26814
" />
<path d="M19071 27014
L19071 27242
" />
<path d="M18871 27100
L19385 27100
L19442 27128
L19471 27185
L19471 27242
" />
</g>
<g style="fill:#840084; fill-opacity:1.0; 
stroke:#840084; stroke-width:3.93701; stroke-opacity:1; 
stroke-linecap:round; stroke-linejoin:round;">
<path style="fill:#840084; fill-opacity:1.0; 
stroke:#840084; stroke-width:3.93701; stroke-opacity:1; 
stroke-linecap:round; stroke-linejoin:round;fill-rule:evenodd;"
d="M 9913.39,7799.64
9927.51,7843.33
9938.82,7879.23
9951.78,7922.01
9966.2,7970.93
9981.85,8025.2
9998.54,8084.09
10016.1,8146.81
10034.2,8212.61
10052.7,8280.72
10071.5,8350.39
10090.2,8420.86
10108.7,8491.35
10126.9,8561.11
10144.3,8629.39
10161,8695.4
10173.8,8747.19
10216.2,8922.58
10255.2,9090.87
10290.9,9252.05
10323.3,9406.16
10352.3,9553.2
10377.9,9693.19
10400.3,9826.15
10419.3,9952.09
10435,10071
10447.4,10183
10456.5,10288
10462.2,10386
10463.1,10407.7
10465.8,10483.5
10803.1,10483.5
10803.1,10431.3
10802.3,10376.4
10800.1,10315
10796.3,10247.2
10791,10172.5
10784.2,10090.8
10775.8,10001.9
10765.9,9905.64
10761.7,9867.06
10761.5,9861.58
10763,9862.66
10766.2,9870.58
10771.2,9885.61
10776.7,9902.76
10805.8,9987.07
10838.8,10064.6
10875.7,10135.3
10916.6,10199.4
10961.5,10256.9
11010.6,10307.9
11063.7,10352.5
11121.1,10390.8
11159.4,10411.6
11212.3,10435.4
11266.4,10454.1
11322.8,10468
11382.8,10477.3
11447.7,10482.4
11500,10483.5
11569.3,10481.5
11632.9,10475.4
11692,10464.9
11747.8,10449.8
11801.4,10429.8
11840.5,10411.7
11877.8,10391.7
11911,10371
11942.3,10348.1
11973.7,10321.4
12003.3,10293.3
12049.2,10243.5
12091,10188.3
12129.1,10127.3
12163.5,10060.2
12194.5,9986.52
12222.4,9905.93
12223.3,9902.76
12230,9881.9
12234.6,9868.36
12237.5,9861.89
12238.6,9862.19
12238.3,9867.06
12227.8,9966.24
12218.8,10057.9
12211.4,10142.3
12205.5,10219.6
12201.2,10290
12198.3,10353.8
12197,10411.2
12196.9,10431.3
12196.9,10483.5
12535.4,10483.5
12535.5,10451
12535.9,10428.7
12536.9,10400.2
12538.6,10367.2
12540.7,10331.2
12543.1,10294
12545.9,10257.2
12548.8,10222.4
12549.4,10215.7
12560.1,10112.6
12573.9,10002.5
12590.7,9885.7
12598.3,9837.8
12244.1,9837.8
12242.7,9841.04
12241.5,9840.42
12241,9835.75
12241.5,9835.17
12243.8,9835.71
12244.1,9837.8
12598.3,9837.8
12610.4,9762.54
12633.1,9633.26
12658.6,9498.15
12686.8,9357.49
12717.8,9211.54
12751.5,9060.61
12787.8,8904.95
12826.7,8744.86
12868,8580.6
12911.8,8412.46
12945.5,8286.61
12956.4,8246.65
12968.2,8203.75
12980.7,8158.94
12993.6,8113.24
13006.5,8067.67
13019.2,8023.26
13031.4,7981.04
13042.7,7942.01
13053,7907.22
13061.9,7877.67
13069,7854.4
13070.8,7848.91
13086.6,7799.33
13086.6,7357.93
13086.6,7255.12
12669.3,7255.12
12669.3,7782.68
11803.1,7782.68
11803.1,8121.26
12585.3,8121.26
12571.9,8167.52
12558.1,8216.77
12543.2,8272.98
12527.3,8335.38
12510.6,8403.18
12493.3,8475.58
12475.6,8551.79
12457.6,8631.04
12439.6,8712.52
12421.8,8795.45
12404.3,8879.04
12393.8,8930.31
12387.4,8962.16
12380.2,8999.06
12372.3,9039.89
12364,9083.55
12355.4,9128.92
12346.9,9174.89
12338.5,9220.35
12330.4,9264.2
12323,9305.31
12316.4,9342.58
12310.8,9374.9
12306.4,9401.16
12304.7,9411.61
12301.9,9429.13
12299.6,9443.38
12298,9452.81
12297.5,9455.91
12297.4,9452.11
12297.4,9441.25
12297.3,9424.17
12297.3,9401.67
12297.3,9374.58
12297.3,9343.72
12297.2,9309.91
12297.2,9293.5
12297.2,9272.04
11879.5,9272.04
11879.5,9313.84
11879.1,9354.83
11878.4,9393.56
11877.4,9428.61
11876.1,9458.51
11874.6,9479.53
11864.9,9567.14
11852,9647.73
11835.7,9721.26
11816.1,9787.74
11793.2,9847.15
11767.1,9899.47
11737.7,9944.68
11705.1,9982.77
11669.2,10013.7
11630,10037.6
11587.6,10054.2
11563,10060.3
11533,10064.3
11499.3,10065.6
11465.8,10064.1
11440.1,10060.6
11395.4,10048.1
11354,10028.5
11316,10001.8
11281.2,9967.95
11249.8,9926.95
11221.6,9878.81
11203.2,9837.8
10759.8,9837.8
10758.4,9841.04
10757.2,9840.42
10756.7,9835.75
10757.2,9835.17
10759.6,9835.71
10759.8,9837.8
11203.2,9837.8
11196.8,9823.53
11175.3,9761.12
11157.1,9691.58
11142.2,9614.91
11130.6,9531.12
11125.4,9479.53
11123.8,9455.46
11122.5,9424.96
11121.5,9389.48
11120.9,9350.47
11120.6,9309.36
11120.6,9267.61
11120.9,9226.65
11121.6,9187.92
11122.6,9152.87
11123.9,9122.95
11125.4,9101.57
11135,9014.28
11147.8,8934.14
11163.8,8861.09
11183.1,8795.09
11205.6,8736.11
11231.5,8684.08
11260.6,8638.98
11293.1,8600.74
11294.7,8599.04
11330.8,8567.88
11369.7,8543.98
11411.8,8527.26
11457.3,8517.63
11500,8514.96
11548.8,8518.53
11594.2,8529.25
11636.4,8547.12
11675.2,8572.13
11710.8,8604.29
11743,8643.6
11771.9,8690.05
11797.5,8743.65
11819.9,8804.4
11838.9,8872.29
11854.6,8947.33
11867,9029.52
11874.6,9101.57
11876.3,9125.72
11877.6,9156.28
11878.5,9191.82
11879.2,9230.89
11879.5,9272.04
12297.2,9272.04
12297.1,9241.41
12296.7,9195.85
12295.8,9155.48
12294.6,9118.97
12292.7,9084.96
12290.3,9052.12
12287.2,9019.11
12283.3,8984.6
12278.6,8947.23
12277.2,8937.12
12261.1,8836.7
12240.4,8742.29
12215.3,8653.97
12185.6,8571.84
12151.5,8495.99
12113,8426.51
12070,8363.49
12063.5,8354.92
12046.9,8334.85
12026.8,8312.43
12004.9,8289.49
11983,8267.85
11962.9,8249.33
11950.8,8239.13
11894.3,8199.39
11833.3,8165.86
11768.3,8138.75
11699.6,8118.26
11628,8104.59
11605.5,8101.79
11580.8,8099.82
11550.5,8098.51
11516.8,8097.86
11482.1,8097.87
11448.5,8098.54
11418.4,8099.88
11394.5,8101.79
11320.7,8113.45
11250.8,8131.92
11184.9,8157.16
11122.9,8189.11
11065,8227.72
11011.2,8272.92
10961.5,8324.67
10916,8382.92
10874.7,8447.6
10837.7,8518.67
10805.1,8596.06
10776.8,8679.74
10753,8769.63
10742.1,8820.08
10732.4,8871.58
10724.3,8921.54
10717.7,8971.2
10712.4,9021.85
10708.4,9074.74
10705.6,9131.13
10703.8,9192.3
10703,9259.51
10702.9,9289.78
10702.8,9456.34
10695.8,9413.8
10683.8,9342.44
10670.5,9266.91
10656.1,9188
10640.6,9106.46
10624.3,9023.05
10607.4,8938.55
10590,8853.71
10572.2,8769.3
10554.3,8686.09
10536.4,8604.84
10518.6,8526.32
10501.1,8451.29
10484.2,8380.51
10467.9,8314.76
10452.4,8254.79
10437.8,8201.37
10429.7,8172.73
10414.6,8121.26
11196.9,8121.26
11196.9,7782.68
10330.7,7782.68
10330.7,7255.12
11330.7,7255.12
11330.7,7648.82
11669.3,7648.82
11669.3,7255.12
12669.3,7255.12
13086.6,7255.12
13086.6,6916.54
9913.39,6916.54
Z" /> 
<path style="fill:#840084; fill-opacity:1.0; 
stroke:#840084; stroke-width:3.93701; stroke-opacity:1; 
stroke-linecap:round; stroke-linejoin:round;fill-rule:evenodd;"
d="M 15088.2,19545.5
15067.6,19555.7
15042.1,19573.5
15023.5,19592.9
15010.8,19617.3
15002.8,19650
14998.6,19694.3
14997.1,19753.7
14997.1,19779.2
14997.3,19835.1
14998.4,19875.1
15000.7,19902.8
15004.7,19921.8
15010.9,19935.7
15017.3,19945.3
15058.2,19985.8
15106.3,20010.2
15158.2,20017.5
15210.5,20006.9
15227,19999.4
15266.7,19978.7
15266.7,20302.5
15237.7,20287.5
15199.6,20275.9
15152.8,20273
15106,20278.4
15070.7,20290.7
15041.4,20314.2
15016.3,20347.7
15014.5,20351.1
15006.5,20367.3
15000.7,20383.6
14996.7,20403.4
14994.2,20430
14992.8,20466.7
14992.3,20516.7
14992.2,20573.1
14992.2,20752.9
15100,20752.9
15100,20421.4
15130.2,20396
15161.5,20375.7
15191.2,20372
15221,20381.5
15236.9,20390.8
15248.7,20404
15257.2,20424
15262.8,20453.7
15266.3,20495.7
15268.4,20553
15269.1,20591.2
15271.6,20748
15323,20751
15374.5,20754
15374.5,19780.5
15266.7,19780.5
15263.9,19834.8
15254.7,19872.5
15237.3,19895.9
15210.5,19907.5
15183.3,19909.8
15152.6,19907.1
15132.2,19896.7
15119.5,19882.9
15109.4,19868
15103.4,19851.5
15100.8,19828.3
15100.7,19793.5
15101.6,19764.3
15103.6,19720.5
15106.7,19691.7
15111.9,19673.4
15120.2,19661.1
15128,19654
15160.9,19638.6
15199.8,19636.1
15222.1,19641.4
15244.2,19660.3
15258.9,19697.2
15266,19751.7
15266.7,19780.5
15374.5,19780.5
15374.5,19537.3
15320.6,19537.3
15288.2,19538.5
15271.5,19543.1
15266.7,19551.9
15266.7,19552.2
15264.4,19560.9
15254.5,19559.9
15234.8,19550.4
15188.9,19535.8
15137.2,19534.2
Z" /> 
<path style="fill:#840084; fill-opacity:1.0; 
stroke:#840084; stroke-width:3.93701; stroke-opacity:1; 
stroke-linecap:round; stroke-linejoin:round;fill-rule:evenodd;"
d="M 14679.2,20276.3
14633.1,20288.7
14598,20311
14573.2,20340.2
14565.5,20352.6
14559.8,20365.7
14555.9,20382.4
14553.3,20405.8
14551.8,20439
14551.2,20485
14551,20546.8
14551,20563.2
14551,20752.9
14598,20752.9
14628.1,20750.8
14650.2,20745.5
14655.8,20742.2
14671,20736.6
14686.5,20742.2
14712.1,20749.3
14749.2,20752.2
14790.4,20750.9
14828,20745.7
14850,20739.1
14892.5,20711.8
14919.1,20673.9
14931,20623.6
14931.2,20622.3
14930.1,20599.9
14835.3,20599.9
14827,20625.3
14813.5,20639.6
14786.4,20650.5
14750.6,20654.8
14714.2,20652.7
14684.9,20644.1
14676.8,20638.7
14662.4,20613.4
14658.8,20584.8
14658.8,20547.1
14713.1,20547.1
14764.6,20551
14803.6,20562.3
14827.9,20579.8
14835.3,20599.9
14930.1,20599.9
14928.6,20567.2
14910.4,20523.7
14876.3,20490.8
14871.6,20487.8
14851.3,20478.1
14826.2,20472.2
14791.2,20469.3
14749.5,20468.7
14658.8,20468.6
14658.8,20430.6
14662.7,20401.1
14672.5,20381.4
14673.6,20380.3
14695.5,20371.7
14728.5,20368.3
14764.9,20370
14797.1,20376.3
14816.3,20385.8
14826.6,20393.4
14837.6,20394.9
14852.7,20388.7
14875.5,20373.2
14909.7,20346.9
14912.8,20344.5
14911.2,20335.4
14897.8,20320.2
14877.5,20303.4
14854.9,20289.2
14847.9,20285.9
14822.1,20279.2
14784.2,20274.5
14742,20272.6
14740,20272.6
Z" /> 
<path style="fill:#840084; fill-opacity:1.0; 
stroke:#840084; stroke-width:3.93701; stroke-opacity:1; 
stroke-linecap:round; stroke-linejoin:round;fill-rule:evenodd;"
d="M 14374.5,20273.6
14359.8,20278
14355.1,20287.7
14354.9,20292
14354.1,20304.2
14348.2,20306.1
14332.4,20297.7
14323,20292
14293.4,20279.9
14258.1,20273.8
14221.1,20273.4
14186.3,20277.9
14157.9,20286.7
14140,20299.4
14136.4,20315.2
14138.2,20319.5
14151.3,20337.2
14171.5,20359.1
14175.1,20362.6
14194.4,20378.8
14211.1,20384.1
14234.3,20380.4
14243.6,20378
14272.6,20372.1
14293,20374.8
14310.2,20384
14326,20396.5
14337.6,20412.1
14345.7,20434
14350.9,20465
14353.7,20508.1
14354.8,20566.4
14354.9,20601.6
14354.9,20752.9
14452.9,20752.9
14452.9,20272.5
14403.9,20272.5
Z" /> 
<path style="fill:#840084; fill-opacity:1.0; 
stroke:#840084; stroke-width:3.93701; stroke-opacity:1; 
stroke-linecap:round; stroke-linejoin:round;fill-rule:evenodd;"
d="M 13756.9,20752.9
13810.8,20752.9
13842.1,20752
13858.4,20748.2
13864.3,20740
13864.7,20734.4
13865.7,20723.2
13871.9,20721.1
13888.3,20728
13901.1,20734.4
13950.1,20749.6
14003.3,20750.5
14046.6,20739.2
14086.9,20711.7
14117.6,20671.1
14134.4,20623.2
14134.8,20620.5
14137.3,20591.4
14138.6,20549.4
14138.5,20517.7
14031.4,20517.7
14028.9,20559.9
14023.3,20594.6
14015.6,20614.2
13986.7,20641
13952.4,20650.6
13917,20642.8
13886.8,20619.7
13875.3,20604.1
13868.6,20585.5
13865.5,20558.3
13864.7,20517.6
13866.1,20477.2
13869.7,20441.7
13874.9,20418
13875.8,20415.8
13896.7,20390.5
13927.1,20376.6
13961.2,20374.4
13993,20384
14016.4,20405.8
14018.8,20410.1
14026.5,20436.5
14030.6,20474.5
14031.4,20517.7
14138.5,20517.7
14138.4,20501.7
14137.7,20476
14132.9,20412.3
14123,20364.6
14106.4,20329.3
14081.7,20303
14057.8,20287.6
14024.4,20276.8
13982.9,20273.1
13940.3,20276.1
13903.9,20285.5
13884.7,20296.7
13864.7,20314.8
13864.7,20086.3
13756.9,20086.3
Z" /> 
<path style="fill:#840084; fill-opacity:1.0; 
stroke:#840084; stroke-width:3.93701; stroke-opacity:1; 
stroke-linecap:round; stroke-linejoin:round;fill-rule:evenodd;"
d="M 13380.5,20274.5
13341.7,20277.5
13291,20429.4
13240.3,20581.4
13224.4,20527.5
13214.9,20494.1
13202.3,20449.1
13188.7,20399.6
13181.5,20373
13154.5,20272.5
13043,20272.5
13076.3,20377.9
13092.7,20429.8
13112.6,20492.3
13133.3,20557.5
13151.8,20615.7
13193.9,20748
13284.8,20754
13309.4,20672.6
13324.6,20622
13341.2,20566.3
13355.7,20517
13356.3,20515.1
13367.1,20481.7
13376.7,20459
13383.4,20450.4
13384.7,20451.4
13389.6,20464.7
13398.7,20493.3
13411.1,20533.5
13425.7,20581.8
13433.5,20608.3
13476,20752.9
13566.3,20752.9
13638.4,20525
13658.7,20461.1
13677.1,20403
13692.9,20353.5
13705.2,20315.4
13713,20291.3
13715.4,20284.3
13713.5,20277.1
13698.7,20273.9
13668,20274.2
13663.2,20274.5
13606.2,20277.5
13568.8,20414.7
13555.1,20464.8
13542.9,20508.8
13533.1,20542.9
13527,20563.3
13525.9,20566.7
13521.2,20562.8
13511.8,20543
13498.7,20509.8
13483,20466
13469.8,20426.5
13419.3,20271.6
Z" /> 
<path style="fill:#840084; fill-opacity:1.0; 
stroke:#840084; stroke-width:3.93701; stroke-opacity:1; 
stroke-linecap:round; stroke-linejoin:round;fill-rule:evenodd;"
d="M 12790.4,20275.5
12749,20285.5
12737.1,20290.8
12713.9,20304.7
12696.2,20320.4
12683,20340.6
12673.7,20368
12667.5,20405.3
12663.7,20455.2
12661.4,20520.6
12660.5,20564.2
12657.3,20752.9
12712,20752.9
12745.2,20751.6
12762.3,20746.8
12766.7,20738.8
12769,20730.2
12779.4,20731.8
12793.6,20738.8
12829.2,20749.4
12874.9,20752.2
12923,20747.5
12965.6,20735.6
12969.4,20733.9
13008.4,20706.5
13034.1,20668.4
13046,20623.9
13045.1,20607.9
12948.6,20607.9
12940.1,20629.4
12914.9,20644.9
12874.2,20653.1
12852.5,20654.2
12816.2,20651.4
12792.1,20640.5
12786.3,20635.3
12770.4,20607
12766.7,20581.4
12766.7,20547.1
12814.5,20547.1
12870,20549.9
12909,20558.8
12933.6,20574.4
12939.1,20581.3
12948.6,20607.9
13045.1,20607.9
13043.3,20577.2
13025.6,20532.6
13001.5,20502.5
12986.9,20489.4
12972.6,20480.9
12953.9,20475.7
12926.4,20472.6
12885.3,20470.7
12869,20470.2
12766.7,20466.8
12766.8,20435.9
12770.8,20403.3
12785.1,20383.6
12814.1,20371.1
12814.8,20370.8
12855.9,20365.9
12896,20372.3
12925.9,20388.1
12937.8,20395.8
12950.7,20394.7
12970.6,20383.5
12982.2,20375.6
13005,20358.6
13019.2,20345.9
13021.4,20342.3
13012.1,20323.5
12984.5,20301
12972.5,20293.4
12938.1,20280.4
12891.7,20273
12840.2,20271.3
Z" /> 
<path style="fill:#840084; fill-opacity:1.0; 
stroke:#840084; stroke-width:3.93701; stroke-opacity:1; 
stroke-linecap:round; stroke-linejoin:round;fill-rule:evenodd;"
d="M 12325,20272.4
12287.3,20279.8
12265.9,20290.8
12243.3,20309.1
12275.4,20349.7
12295.2,20374.2
12308.7,20386.2
12322,20388
12341.6,20382.1
12350.7,20378.8
12388.2,20373.9
12422.4,20384.4
12447.6,20408.2
12451.7,20415.8
12456.1,20436
12459.6,20473
12461.8,20524.4
12462.7,20587.6
12462.7,20596.5
12462.7,20752.9
12570.6,20752.9
12570.6,20272.5
12516.7,20272.5
12485.6,20273.4
12469.4,20277
12463.4,20285.2
12462.7,20292.9
12462.7,20313.2
12436.9,20292.9
12407.3,20279
12367.5,20272.2
Z" /> 
<path style="fill:#840084; fill-opacity:1.0; 
stroke:#840084; stroke-width:3.93701; stroke-opacity:1; 
stroke-linecap:round; stroke-linejoin:round;fill-rule:evenodd;"
d="M 12015.2,20275.1
11968.4,20287.3
11929.1,20312.4
11910.1,20331.2
11879,20375.6
11861.1,20427.1
11855,20490.5
11855,20495.6
11854.9,20547.1
12151.1,20547.1
12144.8,20574
12133.4,20598.4
12113.5,20623.9
12109.3,20627.9
12073.4,20649.9
12032.5,20653.7
11985.4,20639.2
11977.5,20635.3
11953,20623.5
11936.6,20616.7
11933.7,20616.1
11923.7,20622.1
11904.7,20637
11895,20645.1
11875,20663.7
11868.4,20676
11873,20687.3
11875.4,20690.3
11891.9,20703.9
11919.2,20720.3
11938.2,20729.9
11992.2,20746.8
12052,20752.3
12108.7,20745.8
12124.5,20741.1
12173.6,20714.8
12210,20674.4
12233.9,20619.3
12245.5,20549.3
12246.7,20512.7
12243,20459.5
12149,20459.5
12139.9,20463.4
12115.5,20466.5
12080,20468.3
12055.9,20468.6
12012.6,20468.3
11985.3,20466.9
11970.3,20463.6
11964,20457.7
11962.7,20449.2
11971.2,20422.8
11992.3,20396.7
12020.1,20376.7
12048,20368.5
12085.8,20375.8
12118.6,20396.8
12141.3,20427
12149,20459.5
12243,20459.5
12241.3,20435.2
12224.6,20373.3
12196.2,20326.8
12155.8,20295.1
12103,20277.6
12074.4,20274.3
Z" /> 
<path style="fill:#840084; fill-opacity:1.0; 
stroke:#840084; stroke-width:3.93701; stroke-opacity:1; 
stroke-linecap:round; stroke-linejoin:round;fill-rule:evenodd;"
d="M 15579,19542.3
15527.7,19565
15488.8,19602.9
15462.2,19656
15447.8,19724.4
15446.7,19735.1
15445.9,19810.4
15456.4,19876.4
15477.6,19929.9
15488.9,19947.1
15528.3,19983.5
15578.5,20007.1
15634.7,20016.9
15692,20011.9
15735.6,19996.6
15773.1,19970.8
15803.7,19936.9
15804.2,19936.1
15816.7,19915.2
15824.8,19894.2
15829.6,19867.6
15832.5,19830.2
15833.8,19799.5
15834.3,19771.6
15736.3,19771.6
15735.3,19799.3
15731.9,19836.2
15725.7,19859.9
15714.7,19876.8
15704.3,19886.6
15667.6,19907.2
15629.1,19910
15593.3,19895.1
15575.4,19878.5
15562.5,19861.8
15555,19845.8
15551.7,19824.9
15551.5,19793.7
15552.5,19764.9
15554.7,19723.9
15558.2,19697.2
15564.4,19679.8
15575,19666.5
15583.4,19659
15618.4,19639
15656.2,19638
15687.9,19649.8
15714.9,19674.5
15731,19715
15736.3,19771.6
15834.3,19771.6
15834.9,19738.4
15833,19692.8
15827.1,19658.4
15816.4,19631.3
15800.2,19607.4
15794.1,19600.3
15756.5,19564.9
15716.2,19544.2
15666.8,19535.5
15642.7,19534.8
Z" /> 
<path style="fill:#840084; fill-opacity:1.0; 
stroke:#840084; stroke-width:3.93701; stroke-opacity:1; 
stroke-linecap:round; stroke-linejoin:round;fill-rule:evenodd;"
d="M 14657.8,19548.2
14648,19552.8
14614.2,19577.5
14582.2,19613.7
14558.4,19653.5
14551.6,19671.8
14545.4,19704.5
14541.7,19744
14541.2,19760.3
14541.2,19811.8
14837.4,19811.8
14831.1,19838.7
14815.6,19870.6
14788.5,19898.2
14756.3,19915.9
14735.7,19919.6
14707.9,19915.1
14674.6,19903.9
14663.3,19898.8
14621.6,19877.9
14585.9,19905.1
14565.4,19923.5
14554.4,19938.6
14553.9,19943.1
14563.6,19953.9
14585.1,19970.3
14604.5,19983.1
14657,20006.1
14715.8,20016.5
14774.1,20013.8
14820.6,19999.6
14868.5,19969.3
14902.5,19929.4
14923.8,19877.8
14933.5,19812.3
14934.4,19782.3
14930.9,19713.7
14930.5,19711.7
14832.4,19711.7
14829.6,19718.1
14818.5,19721.6
14795.6,19723.2
14757.5,19723.5
14742.8,19723.5
14698.2,19723
14669.8,19721.1
14654.6,19717.2
14649.2,19711
14649,19709
14655.2,19693
14670.6,19670.7
14677.2,19662.9
14701.8,19640.8
14727.4,19632.1
14741.2,19631.4
14778.5,19640.5
14809.8,19664.9
14829.7,19700.3
14830,19701.5
14832.4,19711.7
14930.5,19711.7
14919.5,19659.6
14899,19616.3
14873.9,19585.6
14827.4,19552.3
14772.8,19534.5
14714.7,19532.9
Z" /> 
<path style="fill:#840084; fill-opacity:1.0; 
stroke:#840084; stroke-width:3.93701; stroke-opacity:1; 
stroke-linecap:round; stroke-linejoin:round;fill-rule:evenodd;"
d="M 13589.1,19535.6
13551.9,19542.6
13513.4,19557.3
13509.3,19559.2
13480.1,19574.6
13459.9,19588.8
13453.3,19598
13459.6,19612.9
13474.7,19634.9
13481.4,19643.1
13509.1,19675.4
13544.7,19654.4
13578.7,19640.4
13617.9,19632.9
13655.5,19632.4
13684.6,19639.5
13691.6,19643.8
13704.9,19664
13706.5,19687.2
13696.6,19705.3
13690.7,19708.9
13673,19713.2
13642,19718.4
13603.8,19723.3
13596.7,19724
13535.3,19734.7
13490.7,19752.7
13461.2,19779.8
13444.8,19817.7
13439.7,19864
13446.7,19916.6
13469.7,19958
13508.6,19988
13563.5,20007
13624.5,20014.5
13674.3,20014.4
13714.6,20007.6
13742.2,19998.2
13777,19981.9
13809.2,19962.9
13820.6,19954.6
13850,19930.6
13814.5,19894.7
13779.1,19858.8
13738.7,19885.5
13698.3,19905.5
13655.1,19916
13613.6,19917.1
13578.1,19909
13553.2,19891.9
13545.2,19877.5
13546.4,19854.4
13566.4,19836.7
13605.1,19824.4
13647.5,19818.8
13712.8,19808
13761.4,19787.7
13793.7,19757.2
13810.6,19716
13813,19667.1
13801.4,19616
13775.1,19577.4
13733.7,19551.1
13677.1,19536.9
13635.1,19534.2
Z" /> 
<path style="fill:#840084; fill-opacity:1.0; 
stroke:#840084; stroke-width:3.93701; stroke-opacity:1; 
stroke-linecap:round; stroke-linejoin:round;fill-rule:evenodd;"
d="M 13123.8,19543.1
13074.2,19570.1
13035.4,19612.7
13017.1,19647.4
13009.3,19678
13004.2,19721.7
13002,19771.9
13002.9,19822.5
13007,19866.8
13011.7,19890.5
13027.7,19923
13055.4,19957.4
13088.8,19987.5
13121.9,20007
13122.7,20007.3
13163.7,20015.8
13212.4,20016
13258.6,20008.2
13276.4,20002
13322.4,19976
13355.3,19941.8
13376.9,19896.6
13389,19837.4
13391.7,19806.4
13391.4,19767.4
13286.3,19767.4
13282.7,19824.3
13272.5,19867.6
13256.4,19895.3
13244.8,19903.2
13215.3,19908.8
13180.1,19907.1
13149.7,19899.2
13141.8,19894.8
13120.8,19869.3
13106.9,19830.4
13101,19782.9
13103.9,19732.1
13110.3,19701.5
13128.8,19666.1
13158,19643.9
13193.2,19636.2
13229.6,19644.3
13257.6,19664
13272.3,19680.2
13280.9,19696.2
13285,19717.8
13286.2,19751
13286.3,19767.4
13391.4,19767.4
13391,19723.6
13377.5,19655.7
13351.3,19602.7
13312.3,19564.6
13260.6,19541.4
13249.5,19538.7
13182.7,19532.4
Z" /> 
<path style="fill:#840084; fill-opacity:1.0; 
stroke:#840084; stroke-width:3.93701; stroke-opacity:1; 
stroke-linecap:round; stroke-linejoin:round;fill-rule:evenodd;"
d="M 12825.5,19689.9
12824.6,19761.8
12821.2,19816.4
12814.4,19856
12803.4,19882.8
12787.2,19899.1
12764.9,19907.1
12737.3,19909.2
12708.3,19906.9
12686.4,19898.5
12670.4,19881.7
12659.6,19854.3
12653.1,19814
12649.8,19758.5
12649,19689.9
12649,19537.3
12541.2,19537.3
12541.2,20007.8
12595.1,20007.8
12627.6,20006.5
12644.3,20001.9
12649,19993.1
12651.8,19985.3
12663,19987
12685.6,19998
12737.4,20015.1
12792.3,20013.9
12845,19995.3
12870,19980.7
12889.2,19964.8
12903.1,19945
12912.7,19918.4
12918.8,19882.3
12922.1,19833.8
12923.4,19770.3
12923.5,19721.2
12923.5,19537.3
12825.5,19537.3
Z" /> 
<path style="fill:#840084; fill-opacity:1.0; 
stroke:#840084; stroke-width:3.93701; stroke-opacity:1; 
stroke-linecap:round; stroke-linejoin:round;fill-rule:evenodd;"
d="M 11871.3,19541.4
11814.5,19565.5
11796.6,19577.2
11773.7,19595.3
11759.4,19609.5
11756.9,19614.1
11763.9,19624.4
11781.9,19641.8
11796.3,19653.9
11835.8,19685.6
11867,19659.4
11891,19642.5
11914.5,19636.6
11941.4,19638.1
11984.1,19648.7
12013.4,19670.7
12031.3,19706.3
12039.4,19757.7
12039.4,19757.7
12038.7,19815.1
12027.8,19857.2
12006.1,19885.9
11991.3,19895.6
11951.9,19907.7
11909.9,19907.7
11873.4,19895.9
11864.7,19890.2
11843,19875.6
11826,19873.2
11807.7,19884.1
11787.5,19903.6
11755.5,19936.7
11791,19966
11846,19999
11907.9,20015.3
11972.6,20014.2
12015.1,20003.3
12064.8,19976.6
12104.6,19934.6
12122.6,19904.9
12137.2,19862.3
12144.6,19808.4
12144.6,19749.9
12137.5,19693.8
12123.1,19646.8
12120.9,19642
12087.5,19594.7
12042.2,19560.3
11988.7,19539.5
11930.5,19532.9
Z" /> 
<path style="fill:#840084; fill-opacity:1.0; 
stroke:#840084; stroke-width:3.93701; stroke-opacity:1; 
stroke-linecap:round; stroke-linejoin:round;fill-rule:evenodd;"
d="M 11512.1,19535.6
11487,19541.7
11438.9,19564
11397.7,19598.1
11369.2,19639
11365.3,19648.2
11359.9,19672.2
11356.2,19707.8
11354.9,19743.8
11354.9,19811.8
11497.1,19811.8
11555.7,19812
11597,19813.3
11623.3,19816.8
11636.7,19823.5
11639.8,19834.3
11634.6,19850.4
11625.2,19869.2
11599.3,19900.5
11563.2,19916.1
11519.1,19915.6
11469.1,19898.6
11425.9,19877.6
11390.1,19906
11354.3,19934.3
11388,19965.5
11433,19994.9
11488.3,20012.6
11547.9,20017.6
11605.4,20008.7
11614.7,20005.7
11665.3,19979.3
11702.9,19939.9
11728.4,19886.3
11742.5,19817.5
11742.7,19816
11743.9,19741
11738.8,19714.2
11639.2,19714.2
11630.1,19718.3
11605.2,19721.5
11568.6,19723.3
11545.4,19723.5
11502.2,19723.4
11475.1,19722.3
11460.9,19719.4
11456.1,19713.9
11457.3,19704.9
11458.3,19701.5
11475.8,19668.8
11503.4,19642.5
11527.8,19630.9
11560.1,19631.6
11592.9,19646.1
11620.4,19669.9
11636.9,19699
11639.2,19714.2
11738.8,19714.2
11731.3,19675
11706.4,19619.6
11670.5,19576.4
11625.2,19546.9
11571.9,19532.8
Z" /> 
<path style="fill:#840084; fill-opacity:1.0; 
stroke:#840084; stroke-width:3.93701; stroke-opacity:1; 
stroke-linecap:round; stroke-linejoin:round;fill-rule:evenodd;"
d="M 14187.9,19545.4
14163.5,19557
14139.9,19573.8
14121.9,19593.2
14108.7,19617.9
14099.8,19650.8
14094.2,19694.6
14091.4,19752.1
14090.4,19826.1
14090.4,19833.8
14090.2,20007.8
14198,20007.8
14198,19847.4
14198.1,19788
14198.6,19744.9
14200.1,19714.9
14202.9,19694.8
14207.5,19681.3
14214.3,19671.2
14223.9,19661.1
14257.3,19639.6
14293.8,19635.6
14328.6,19649.2
14340.6,19659.4
14349.5,19668.9
14355.9,19679.1
14360.2,19693.2
14362.8,19714.4
14364.1,19745.9
14364.6,19790.9
14364.7,19845.6
14364.7,20007.8
14472.5,20007.8
14472.5,19537.3
14418.6,19537.3
14386.3,19538.5
14369.6,19543.1
14364.7,19551.9
14364.7,19552.2
14362.5,19560.9
14352.5,19559.9
14332.8,19550.4
14288.2,19536.3
14237,19534.8
Z" /> 
<path style="fill:#840084; fill-opacity:1.0; 
stroke:#840084; stroke-width:3.93701; stroke-opacity:1; 
stroke-linecap:round; stroke-linejoin:round;fill-rule:evenodd;"
d="M 12197,19536.8
12163.3,19547.1
12141.6,19560.1
12134.5,19570.4
12136.4,19582.6
12149.1,19601.8
12159.7,19615.4
12181.8,19639.9
12198.3,19650.2
12212.4,19649.6
12254.2,19638.9
12285,19639.4
12309.9,19651.5
12318.3,19658.5
12345.1,19683.4
12345.1,20007.8
12452.9,20007.8
12452.9,19537.3
12399,19537.3
12366.6,19538.5
12349.9,19543.1
12345.1,19551.9
12345.1,19552.2
12342.8,19561.5
12332.5,19560.3
12318.1,19553.6
12288.5,19541.1
12264.5,19533.6
12233.6,19531.7
Z" /> 
<path style="fill:#840084; fill-opacity:1.0; 
stroke:#840084; stroke-width:3.93701; stroke-opacity:1; 
stroke-linecap:round; stroke-linejoin:round;fill-rule:evenodd;"
d="M 13306.1,16287.1
13261.8,16522.2
13098.2,16589.6
12934.7,16657
12738.5,16523.6
12683.5,16486.5
12633.8,16453.3
12591.8,16425.6
12559.6,16405
12539.7,16392.8
12534.3,16390.2
12524.5,16396.9
12503.6,16415.5
12473.9,16443.7
12437.8,16478.9
12397.6,16518.9
12355.7,16561.3
12314.4,16603.6
12275.9,16643.6
12242.8,16678.8
12217.3,16706.9
12201.8,16725.4
12198,16731.6
12203.4,16743.1
12218.4,16768.1
12241.5,16804.4
12271,16849.3
12305.5,16900.6
12325.5,16929.8
12361.9,16983.1
12394.3,17031.3
12421,17071.8
12440.6,17102.4
12451.3,17120.5
12452.9,17124.3
12449.3,17135.2
12439.3,17160.4
12424.4,17196.5
12406.3,17240
12386.4,17287.2
12366.1,17334.6
12347.1,17378.7
12330.8,17415.9
12318.7,17442.7
12312.4,17455.5
12312,17456
12302.1,17458.4
12275.6,17463.9
12235.3,17471.8
12184,17481.6
12124.3,17492.8
12089.5,17499.3
12025.8,17511.5
11968.2,17523
11919.8,17533.3
11883.3,17541.8
11861.7,17547.8
11857.4,17549.7
11853.1,17562.6
11849.7,17591.6
11847.1,17633.5
11845.3,17684.7
11844.3,17742
11844.1,17801.8
11844.8,17860.9
11846.2,17915.7
11848.5,17963
11851.5,17999.3
11855.4,18021.1
11857.7,18025.7
11871.5,18031.1
11900.8,18039
11941.6,18048.2
11990.2,18057.9
12007.2,18061.1
12089,18076.1
12153.5,18088.1
12203.1,18097.7
12239.7,18105.4
12265.6,18111.6
12282.8,18116.8
12293.5,18121.5
12299.9,18126.1
12300.8,18127
12309.6,18141.8
12323.2,18170.5
12340,18209.7
12358.8,18255.8
12378.2,18305.3
12396.8,18354.7
12413.4,18400.5
12426.5,18439.2
12434.8,18467.2
12437,18481
12436.8,18481.5
12429.4,18492.8
12412.7,18517.6
12388.3,18553.4
12358.1,18597.6
12323.8,18647.6
12314.1,18661.8
12279.2,18713.4
12248.6,18760.4
12223.8,18800.2
12206.5,18830
12198.4,18847.3
12198,18849.4
12204.8,18860.6
12223.6,18882.7
12251.9,18913.3
12287.4,18950.2
12327.7,18990.9
12370.2,19033
12412.7,19074.2
12452.7,19112
12487.7,19144.2
12515.5,19168.4
12533.4,19182.1
12538.4,19184.3
12550,19179
12573.7,19164.8
12605.7,19144
12630.3,19127.3
12674.9,19096.6
12727.7,19060.5
12780.6,19024.5
12809.1,19005.2
12905.5,18940
12986.4,18983.7
13023.3,19002.9
13054.6,19017.8
13075.8,19026.3
13081.2,19027.4
13087.7,19018.7
13100.5,18994.1
13118.7,18955.7
13141.2,18906
13167.2,18847.2
13195.7,18781.5
13225.8,18711.3
13256.4,18638.8
13286.6,18566.3
13315.5,18496.1
13342.2,18430.4
13365.5,18371.5
13384.7,18321.7
13398.7,18283.2
13406.6,18258.4
13407.9,18249.9
13397.8,18239
13375.8,18221.4
13346.3,18200.7
13343.9,18199
13267.8,18138.1
13206.4,18067.1
13160.3,17988.1
13130.1,17903.6
13116.1,17815.7
13119,17726.8
13139.3,17639.1
13177.5,17554.8
13188.8,17536.4
13247.3,17462
13316.4,17402.2
13393.7,17357.4
13476.9,17327.9
13563.5,17314
13651.1,17315.9
13737.4,17334.2
13819.9,17368.9
13896.4,17420.4
13920,17441.4
13980.1,17506.9
14024,17575.8
14054,17653.2
14070.8,17729.7
14074.9,17815.8
14061.1,17902.3
14030.8,17986.3
13985.4,18064.9
13926.3,18135.1
13854.8,18194.1
13845.4,18200.3
13815.7,18220.7
13793.1,18238.3
13782.2,18249.6
13782.1,18249.9
13784.4,18262.1
13793.6,18289.7
13808.7,18330.6
13828.8,18382.3
13852.9,18442.7
13880.1,18509.5
13909.4,18580.4
13939.8,18653.1
13970.4,18725.3
14000.2,18794.8
14028.3,18859.3
14053.7,18916.5
14075.5,18964.2
14092.7,19000
14104.3,19021.7
14109,19027.4
14123.3,19023
14150.1,19011.1
14184.7,18993.8
14203.8,18983.7
14284.7,18940
14381.1,19005.2
14430.3,19038.5
14484.1,19075.3
14534.6,19109.9
14559.9,19127.3
14595.5,19151.2
14625.6,19170.1
14646.3,19181.7
14653,19184.1
14662.8,19177.5
14684.5,19159.1
14716,19130.8
14755.2,19094.5
14799.9,19052.1
14828.2,19024.8
14877.7,18976.2
14920.5,18932.7
14954.9,18896.2
14979,18868.5
14991.3,18851.6
14992.4,18848.1
14987,18835.1
14971.9,18808.6
14948.9,18771.5
14919.6,18726.4
14885.8,18675.9
14876.1,18661.8
14841,18610.7
14809.6,18564.7
14783.4,18526.3
14764.4,18498.3
14754.3,18483
14753.4,18481.5
14754.8,18469.3
14762.6,18442.7
14775.3,18405
14791.5,18359.7
14810,18310.5
14829.4,18260.9
14848.3,18214.2
14865.4,18174.2
14879.3,18144.2
14888.7,18127.8
14889.4,18127
14895.2,18122.3
14904.9,18117.7
14920.7,18112.7
14944.8,18106.7
14979.2,18099.3
15026.1,18090.1
15087.7,18078.6
15166,18064.2
15183,18061.1
15233.3,18051.4
15277.1,18041.9
15310.6,18033.5
15329.9,18027.2
15332.5,18025.7
15336.8,18012.6
15340.3,17983.4
15342.9,17941.4
15344.8,17890
15345.8,17832.7
15346.1,17772.9
15345.5,17713.9
15344.2,17659.1
15342,17611.9
15339,17575.8
15335.1,17554.1
15332.8,17549.7
15320,17545.2
15290.8,17537.9
15248.1,17528.5
15194.8,17517.5
15133.9,17505.6
15100.7,17499.3
15037.7,17487.6
14981.5,17476.9
14934.9,17467.9
14900.6,17461
14881.4,17456.9
14878.2,17456
14872.8,17445.6
14861.5,17420.8
14845.8,17384.9
14827,17341.6
14806.9,17294.4
14786.8,17246.8
14768.3,17202.5
14752.9,17165
14742.1,17137.8
14737.3,17124.5
14737.3,17123.9
14742.6,17113.4
14757.6,17089.2
14780.7,17053.7
14810.2,17009.4
14844.7,16958.6
14864.7,16929.4
14901.2,16875.9
14933.6,16827.3
14960.4,16786.2
14979.9,16754.8
14990.6,16735.8
14992.2,16731.5
14985.5,16721.6
14967.2,16700.3
14939.5,16670.2
14904.7,16633.6
14865.3,16592.8
14823.6,16550.2
14781.8,16508.2
14742.5,16469.2
14707.8,16435.6
14680.1,16409.7
14661.8,16394
14655.7,16390.2
14645.8,16395.5
14622,16410.4
14586.6,16433.3
14542,16462.8
14490.6,16497.3
14451.7,16523.6
14255.5,16657
14092,16589.6
13928.4,16522.2
13884.1,16287.1
13839.8,16052
13350.4,16052
Z" /> 
<path style="fill:#840084; fill-opacity:1.0; 
stroke:#840084; stroke-width:3.93701; stroke-opacity:1; 
stroke-linecap:round; stroke-linejoin:round;fill-rule:evenodd;"
d="M 31161.6,10793.9
31396.7,10838.2
31464.1,11001.8
31531.5,11165.3
31398.1,11361.5
31361,11416.5
31327.8,11466.2
31300.1,11508.2
31279.5,11540.4
31267.3,11560.3
31264.7,11565.7
31271.4,11575.5
31290.1,11596.4
31318.2,11626.1
31353.4,11662.2
31393.4,11702.4
31435.8,11744.3
31478.1,11785.6
31518.1,11824.1
31553.3,11857.2
31581.4,11882.7
31599.9,11898.2
31606.1,11902
31617.6,11896.6
31642.6,11881.6
31678.9,11858.5
31723.8,11829
31775.1,11794.5
31804.3,11774.5
31857.6,11738.1
31905.8,11705.7
31946.3,11679
31976.9,11659.4
31995,11648.7
31998.8,11647.1
32009.7,11650.7
32034.9,11660.7
32071.1,11675.6
32114.5,11693.7
32161.7,11713.6
32209.1,11733.9
32253.2,11752.9
32290.4,11769.2
32317.2,11781.3
32330,11787.6
32330.5,11788
32332.9,11797.9
32338.4,11824.4
32346.3,11864.7
32356.1,11916
32367.4,11975.7
32373.8,12010.5
32386,12074.2
32397.5,12131.8
32407.8,12180.2
32416.3,12216.7
32422.3,12238.3
32424.2,12242.6
32437.1,12246.9
32466.1,12250.3
32508,12252.9
32559.2,12254.7
32616.5,12255.7
32676.3,12255.9
32735.4,12255.2
32790.2,12253.8
32837.5,12251.5
32873.8,12248.5
32895.6,12244.6
32900.2,12242.3
32905.7,12228.5
32913.5,12199.2
32922.7,12158.4
32932.4,12109.8
32935.6,12092.8
32950.6,12011
32962.6,11946.5
32972.3,11896.9
32979.9,11860.3
32986.1,11834.4
32991.3,11817.2
32996,11806.5
33000.6,11800.1
33001.5,11799.2
33016.3,11790.4
33045,11776.8
33084.2,11760
33130.3,11741.2
33179.8,11721.8
33229.2,11703.2
33275,11686.6
33313.7,11673.5
33341.7,11665.2
33355.5,11663
33356,11663.2
33367.3,11670.6
33392.1,11687.3
33427.9,11711.7
33472.1,11741.9
33522.1,11776.2
33536.4,11785.9
33587.9,11820.8
33634.9,11851.4
33674.7,11876.2
33704.6,11893.5
33721.8,11901.6
33723.9,11902
33735.1,11895.2
33757.2,11876.4
33787.8,11848.1
33824.7,11812.6
33865.4,11772.3
33907.5,11729.8
33948.7,11687.3
33986.5,11647.3
34018.7,11612.3
34042.9,11584.5
34056.6,11566.6
34058.8,11561.6
34053.6,11550
34039.3,11526.3
34018.6,11494.3
34001.8,11469.7
33971.2,11425.1
33935,11372.3
33899,11319.4
33879.7,11290.9
33814.5,11194.5
33858.2,11113.6
33877.4,11076.7
33892.3,11045.4
33900.8,11024.2
33902,11018.8
33893.2,11012.3
33868.6,10999.5
33830.2,10981.3
33780.5,10958.8
33721.7,10932.8
33656.1,10904.3
33585.8,10874.2
33513.3,10843.6
33440.8,10813.4
33370.6,10784.5
33304.9,10757.8
33246,10734.5
33196.2,10715.3
33157.7,10701.3
33132.9,10693.4
33124.4,10692.1
33113.6,10702.2
33095.9,10724.2
33075.2,10753.7
33073.5,10756.1
33012.6,10832.2
32941.6,10893.6
32862.6,10939.7
32778.1,10969.9
32690.2,10983.9
32601.3,10981
32513.6,10960.7
32429.3,10922.5
32410.9,10911.2
32336.5,10852.7
32276.7,10783.6
32231.9,10706.3
32202.4,10623.1
32188.5,10536.5
32190.5,10448.9
32208.7,10362.6
32243.4,10280.1
32295,10203.6
32315.9,10180
32381.4,10119.9
32450.4,10076
32527.7,10046
32604.2,10029.2
32690.3,10025.1
32776.8,10038.9
32860.8,10069.2
32939.4,10114.6
33009.6,10173.7
33068.6,10245.2
33074.8,10254.6
33095.2,10284.3
33112.8,10306.9
33124.1,10317.8
33124.4,10317.9
33136.6,10315.6
33164.2,10306.4
33205.1,10291.3
33256.8,10271.2
33317.2,10247.1
33384,10219.9
33454.9,10190.6
33527.6,10160.2
33599.8,10129.6
33669.3,10099.8
33733.8,10071.7
33791,10046.3
33838.7,10024.5
33874.5,10007.3
33896.2,9995.69
33902,9991
33897.5,9976.68
33885.6,9949.89
33868.3,9915.25
33858.2,9896.2
33814.5,9815.3
33879.7,9718.92
33913.1,9669.73
33949.8,9615.86
33984.4,9565.39
34001.8,9540.11
34025.7,9504.55
34044.6,9474.44
34056.2,9453.7
34058.7,9446.97
34052.1,9437.17
34033.6,9415.47
34005.3,9383.99
33969,9344.83
33926.6,9300.08
33899.3,9271.78
33850.7,9222.26
33807.2,9179.47
33770.7,9145.14
33743,9120.98
33726.1,9108.74
33722.6,9107.56
33709.6,9113.01
33683.1,9128.08
33646,9151.08
33600.9,9180.35
33550.4,9214.23
33536.4,9223.86
33485.2,9258.96
33439.2,9290.45
33400.9,9316.57
33372.8,9335.56
33357.5,9345.65
33356,9346.63
33343.8,9345.17
33317.2,9337.43
33279.5,9324.75
33234.3,9308.49
33185.1,9289.99
33135.4,9270.61
33088.8,9251.7
33048.7,9234.6
33018.7,9220.67
33002.3,9211.25
33001.5,9210.58
32996.9,9204.83
32992.2,9195.1
32987.2,9179.28
32981.2,9155.22
32973.8,9120.79
32964.6,9073.86
32953.1,9012.29
32938.7,8933.95
32935.6,8916.99
32925.9,8866.72
32916.4,8822.9
32908,8789.39
32901.7,8770.07
32900.2,8767.48
32887.1,8763.21
32857.9,8759.75
32815.9,8757.08
32764.6,8755.21
32707.3,8754.15
32647.4,8753.9
32588.4,8754.46
32533.6,8755.84
32486.4,8758.02
32450.3,8761.03
32428.6,8764.85
32424.2,8767.16
32419.7,8779.99
32412.5,8809.22
32403,8851.93
32392,8905.2
32380.1,8966.14
32373.8,8999.33
32362.1,9062.32
32351.4,9118.49
32342.4,9165.1
32335.5,9199.4
32331.4,9218.64
32330.5,9221.81
32320.2,9227.16
32295.3,9238.48
32259.4,9254.25
32216.1,9272.96
32168.9,9293.12
32121.3,9313.2
32077,9331.7
32039.5,9347.12
32012.3,9357.94
31999,9362.66
31998.4,9362.75
31987.9,9357.4
31963.7,9342.41
31928.2,9319.35
31883.9,9289.8
31833.1,9255.33
31803.9,9235.29
31750.4,9198.78
31701.9,9166.36
31660.7,9139.59
31629.3,9120.07
31610.3,9109.39
31606,9107.84
31596.1,9114.48
31574.9,9132.82
31544.7,9160.53
31508.1,9195.26
31467.3,9234.67
31424.7,9276.42
31382.7,9318.15
31343.8,9357.54
31310.1,9392.23
31284.2,9419.89
31268.5,9438.16
31264.7,9444.27
31270,9454.23
31284.9,9478.04
31307.8,9513.38
31337.3,9557.95
31371.8,9609.43
31398.1,9648.27
31531.5,9844.47
31464.1,10008
31396.7,10171.6
31161.6,10215.9
30926.5,10260.2
30926.5,10749.6
Z" /> 
<g >
</g>
</g>
<g style="fill:#000000; fill-opacity:1.0; 
stroke:#000000; stroke-width:3.93701; stroke-opacity:1; 
stroke-linecap:round; stroke-linejoin:round;">
</g>
<g style="fill:#C2C200; fill-opacity:1.0; 
stroke:#C2C200; stroke-width:3.93701; stroke-opacity:1; 
stroke-linecap:round; stroke-linejoin:round;">
</g>
<g style="fill:#C2C200; fill-opacity:1.0; 
stroke:#C2C200; stroke-width:19.685; stroke-opacity:1; 
stroke-linecap:round; stroke-linejoin:round;">
</g>
<g style="fill:#C2C200; fill-opacity:0.0; 
stroke:#C2C200; stroke-width:19.685; stroke-opacity:1; 
stroke-linecap:round; stroke-linejoin:round;">
<path d="M34000 6500
L34000 13500
" />
<path d="M20500 6500
L34000 6500
" />
<path d="M8000 6500
L20500 6500
" />
<path d="M8000 13500
L8000 6500
" />
<path d="M8000 13500
L8000 35500
" />
<path d="M34000 35500
L34000 13500
" />
<path d="M8000 35500
L34000 35500
" />
<g >
</g>
<g >
</g>
<g >
</g>
<g >
</g>
<g >
</g>
<g >
</g>
<g >
</g>
<g >
</g>
<g >
</g>
<g >
</g>
<g >
</g>
<g >
</g>
<g >
</g>
<g >
</g>
<g >
</g>
<g >
</g>
<g >
</g>
<g >
</g>
<g >
</g>
<g >
</g>
<g >
</g>
<g >
</g>
<g >
</g>
<g >
</g>
<g >
</g>
<g >
</g>
<g >
</g>
<g >
</g>
<g >
</g>
<g >
</g>
<g >
</g>
<g >
</g>
<g >
</g>
<g >
</g>
<g >
</g>
<g >
</g>
<g >
</g>
<g >
</g>
<g >
</g>
<g >
</g>
<g >
</g>
<g >
</g>
</g> 
</svg>
