G04 #@! TF.GenerationSoftware,KiCad,Pcbnew,(5.1.5)-3*
G04 #@! TF.CreationDate,2020-03-12T17:28:53-04:00*
G04 #@! TF.ProjectId,PCB,5043422e-6b69-4636-9164-5f7063625858,rev?*
G04 #@! TF.SameCoordinates,Original*
G04 #@! TF.FileFunction,Legend,Bot*
G04 #@! TF.FilePolarity,Positive*
%FSLAX46Y46*%
G04 Gerber Fmt 4.6, Leading zero omitted, Abs format (unit mm)*
G04 Created by KiCad (PCBNEW (5.1.5)-3) date 2020-03-12 17:28:53*
%MOMM*%
%LPD*%
G04 APERTURE LIST*
%ADD10C,0.120000*%
%ADD11C,0.150000*%
G04 APERTURE END LIST*
D10*
X245050000Y-101660000D02*
X246380000Y-101660000D01*
X245050000Y-100330000D02*
X245050000Y-101660000D01*
X245050000Y-99060000D02*
X247710000Y-99060000D01*
X247710000Y-99060000D02*
X247710000Y-55820000D01*
X245050000Y-99060000D02*
X245050000Y-55820000D01*
X245050000Y-55820000D02*
X247710000Y-55820000D01*
X184090000Y-55820000D02*
X186750000Y-55820000D01*
X184090000Y-99060000D02*
X184090000Y-55820000D01*
X186750000Y-99060000D02*
X186750000Y-55820000D01*
X184090000Y-99060000D02*
X186750000Y-99060000D01*
X184090000Y-100330000D02*
X184090000Y-101660000D01*
X184090000Y-101660000D02*
X185420000Y-101660000D01*
D11*
X246713333Y-102112380D02*
X246713333Y-102826666D01*
X246760952Y-102969523D01*
X246856190Y-103064761D01*
X246999047Y-103112380D01*
X247094285Y-103112380D01*
X246284761Y-102207619D02*
X246237142Y-102160000D01*
X246141904Y-102112380D01*
X245903809Y-102112380D01*
X245808571Y-102160000D01*
X245760952Y-102207619D01*
X245713333Y-102302857D01*
X245713333Y-102398095D01*
X245760952Y-102540952D01*
X246332380Y-103112380D01*
X245713333Y-103112380D01*
X185753333Y-102112380D02*
X185753333Y-102826666D01*
X185800952Y-102969523D01*
X185896190Y-103064761D01*
X186039047Y-103112380D01*
X186134285Y-103112380D01*
X184753333Y-103112380D02*
X185324761Y-103112380D01*
X185039047Y-103112380D02*
X185039047Y-102112380D01*
X185134285Y-102255238D01*
X185229523Y-102350476D01*
X185324761Y-102398095D01*
M02*
