G04 #@! TF.GenerationSoftware,KiCad,Pcbnew,(5.99.0-9618-g5ca7a2c457)*
G04 #@! TF.CreationDate,2021-03-10T22:29:09-05:00*
G04 #@! TF.ProjectId,PCB,5043422e-6b69-4636-9164-5f7063625858,rev?*
G04 #@! TF.SameCoordinates,Original*
G04 #@! TF.FileFunction,Legend,Top*
G04 #@! TF.FilePolarity,Positive*
%FSLAX46Y46*%
G04 Gerber Fmt 4.6, Leading zero omitted, Abs format (unit mm)*
G04 Created by KiCad (PCBNEW (5.99.0-9618-g5ca7a2c457)) date 2021-03-10 22:29:09*
%MOMM*%
%LPD*%
G01*
G04 APERTURE LIST*
%ADD10C,0.150000*%
%ADD11C,0.120000*%
G04 APERTURE END LIST*
D10*
X237716666Y-56844761D02*
X237859523Y-56892380D01*
X238097619Y-56892380D01*
X238192857Y-56844761D01*
X238240476Y-56797142D01*
X238288095Y-56701904D01*
X238288095Y-56606666D01*
X238240476Y-56511428D01*
X238192857Y-56463809D01*
X238097619Y-56416190D01*
X237907142Y-56368571D01*
X237811904Y-56320952D01*
X237764285Y-56273333D01*
X237716666Y-56178095D01*
X237716666Y-56082857D01*
X237764285Y-55987619D01*
X237811904Y-55940000D01*
X237907142Y-55892380D01*
X238145238Y-55892380D01*
X238288095Y-55940000D01*
X238621428Y-55892380D02*
X238859523Y-56892380D01*
X239050000Y-56178095D01*
X239240476Y-56892380D01*
X239478571Y-55892380D01*
X239764285Y-55892380D02*
X240430952Y-55892380D01*
X240002380Y-56892380D01*
X229999996Y-56844761D02*
X230142853Y-56892380D01*
X230380949Y-56892380D01*
X230476187Y-56844761D01*
X230523806Y-56797142D01*
X230571425Y-56701904D01*
X230571425Y-56606666D01*
X230523806Y-56511428D01*
X230476187Y-56463809D01*
X230380949Y-56416190D01*
X230190472Y-56368571D01*
X230095234Y-56320952D01*
X230047615Y-56273333D01*
X229999996Y-56178095D01*
X229999996Y-56082857D01*
X230047615Y-55987619D01*
X230095234Y-55940000D01*
X230190472Y-55892380D01*
X230428568Y-55892380D01*
X230571425Y-55940000D01*
X230904758Y-55892380D02*
X231142853Y-56892380D01*
X231333330Y-56178095D01*
X231523806Y-56892380D01*
X231761901Y-55892380D01*
X232571425Y-55892380D02*
X232380949Y-55892380D01*
X232285710Y-55940000D01*
X232238091Y-55987619D01*
X232142853Y-56130476D01*
X232095234Y-56320952D01*
X232095234Y-56701904D01*
X232142853Y-56797142D01*
X232190472Y-56844761D01*
X232285710Y-56892380D01*
X232476187Y-56892380D01*
X232571425Y-56844761D01*
X232619044Y-56797142D01*
X232666663Y-56701904D01*
X232666663Y-56463809D01*
X232619044Y-56368571D01*
X232571425Y-56320952D01*
X232476187Y-56273333D01*
X232285710Y-56273333D01*
X232190472Y-56320952D01*
X232142853Y-56368571D01*
X232095234Y-56463809D01*
X222283330Y-56919761D02*
X222426187Y-56967380D01*
X222664283Y-56967380D01*
X222759521Y-56919761D01*
X222807140Y-56872142D01*
X222854759Y-56776904D01*
X222854759Y-56681666D01*
X222807140Y-56586428D01*
X222759521Y-56538809D01*
X222664283Y-56491190D01*
X222473806Y-56443571D01*
X222378568Y-56395952D01*
X222330949Y-56348333D01*
X222283330Y-56253095D01*
X222283330Y-56157857D01*
X222330949Y-56062619D01*
X222378568Y-56015000D01*
X222473806Y-55967380D01*
X222711902Y-55967380D01*
X222854759Y-56015000D01*
X223188092Y-55967380D02*
X223426187Y-56967380D01*
X223616664Y-56253095D01*
X223807140Y-56967380D01*
X224045235Y-55967380D01*
X224902378Y-55967380D02*
X224426187Y-55967380D01*
X224378568Y-56443571D01*
X224426187Y-56395952D01*
X224521425Y-56348333D01*
X224759521Y-56348333D01*
X224854759Y-56395952D01*
X224902378Y-56443571D01*
X224949997Y-56538809D01*
X224949997Y-56776904D01*
X224902378Y-56872142D01*
X224854759Y-56919761D01*
X224759521Y-56967380D01*
X224521425Y-56967380D01*
X224426187Y-56919761D01*
X224378568Y-56872142D01*
X214566664Y-56919761D02*
X214709521Y-56967380D01*
X214947617Y-56967380D01*
X215042855Y-56919761D01*
X215090474Y-56872142D01*
X215138093Y-56776904D01*
X215138093Y-56681666D01*
X215090474Y-56586428D01*
X215042855Y-56538809D01*
X214947617Y-56491190D01*
X214757140Y-56443571D01*
X214661902Y-56395952D01*
X214614283Y-56348333D01*
X214566664Y-56253095D01*
X214566664Y-56157857D01*
X214614283Y-56062619D01*
X214661902Y-56015000D01*
X214757140Y-55967380D01*
X214995236Y-55967380D01*
X215138093Y-56015000D01*
X215471426Y-55967380D02*
X215709521Y-56967380D01*
X215899998Y-56253095D01*
X216090474Y-56967380D01*
X216328569Y-55967380D01*
X217138093Y-56300714D02*
X217138093Y-56967380D01*
X216899998Y-55919761D02*
X216661902Y-56634047D01*
X217280950Y-56634047D01*
X206849998Y-56844761D02*
X206992855Y-56892380D01*
X207230951Y-56892380D01*
X207326189Y-56844761D01*
X207373808Y-56797142D01*
X207421427Y-56701904D01*
X207421427Y-56606666D01*
X207373808Y-56511428D01*
X207326189Y-56463809D01*
X207230951Y-56416190D01*
X207040474Y-56368571D01*
X206945236Y-56320952D01*
X206897617Y-56273333D01*
X206849998Y-56178095D01*
X206849998Y-56082857D01*
X206897617Y-55987619D01*
X206945236Y-55940000D01*
X207040474Y-55892380D01*
X207278570Y-55892380D01*
X207421427Y-55940000D01*
X207754760Y-55892380D02*
X207992855Y-56892380D01*
X208183332Y-56178095D01*
X208373808Y-56892380D01*
X208611903Y-55892380D01*
X208897617Y-55892380D02*
X209516665Y-55892380D01*
X209183332Y-56273333D01*
X209326189Y-56273333D01*
X209421427Y-56320952D01*
X209469046Y-56368571D01*
X209516665Y-56463809D01*
X209516665Y-56701904D01*
X209469046Y-56797142D01*
X209421427Y-56844761D01*
X209326189Y-56892380D01*
X209040474Y-56892380D01*
X208945236Y-56844761D01*
X208897617Y-56797142D01*
X199133332Y-56844761D02*
X199276189Y-56892380D01*
X199514285Y-56892380D01*
X199609523Y-56844761D01*
X199657142Y-56797142D01*
X199704761Y-56701904D01*
X199704761Y-56606666D01*
X199657142Y-56511428D01*
X199609523Y-56463809D01*
X199514285Y-56416190D01*
X199323808Y-56368571D01*
X199228570Y-56320952D01*
X199180951Y-56273333D01*
X199133332Y-56178095D01*
X199133332Y-56082857D01*
X199180951Y-55987619D01*
X199228570Y-55940000D01*
X199323808Y-55892380D01*
X199561904Y-55892380D01*
X199704761Y-55940000D01*
X200038094Y-55892380D02*
X200276189Y-56892380D01*
X200466666Y-56178095D01*
X200657142Y-56892380D01*
X200895237Y-55892380D01*
X201228570Y-55987619D02*
X201276189Y-55940000D01*
X201371427Y-55892380D01*
X201609523Y-55892380D01*
X201704761Y-55940000D01*
X201752380Y-55987619D01*
X201799999Y-56082857D01*
X201799999Y-56178095D01*
X201752380Y-56320952D01*
X201180951Y-56892380D01*
X201799999Y-56892380D01*
X191416666Y-56844761D02*
X191559523Y-56892380D01*
X191797619Y-56892380D01*
X191892857Y-56844761D01*
X191940476Y-56797142D01*
X191988095Y-56701904D01*
X191988095Y-56606666D01*
X191940476Y-56511428D01*
X191892857Y-56463809D01*
X191797619Y-56416190D01*
X191607142Y-56368571D01*
X191511904Y-56320952D01*
X191464285Y-56273333D01*
X191416666Y-56178095D01*
X191416666Y-56082857D01*
X191464285Y-55987619D01*
X191511904Y-55940000D01*
X191607142Y-55892380D01*
X191845238Y-55892380D01*
X191988095Y-55940000D01*
X192321428Y-55892380D02*
X192559523Y-56892380D01*
X192750000Y-56178095D01*
X192940476Y-56892380D01*
X193178571Y-55892380D01*
X194083333Y-56892380D02*
X193511904Y-56892380D01*
X193797619Y-56892380D02*
X193797619Y-55892380D01*
X193702380Y-56035238D01*
X193607142Y-56130476D01*
X193511904Y-56178095D01*
X210520595Y-100632380D02*
X210520595Y-99632380D01*
X210758690Y-99632380D01*
X210901547Y-99680000D01*
X210996785Y-99775238D01*
X211044404Y-99870476D01*
X211092023Y-100060952D01*
X211092023Y-100203809D01*
X211044404Y-100394285D01*
X210996785Y-100489523D01*
X210901547Y-100584761D01*
X210758690Y-100632380D01*
X210520595Y-100632380D01*
X212044404Y-100632380D02*
X211472976Y-100632380D01*
X211758690Y-100632380D02*
X211758690Y-99632380D01*
X211663452Y-99775238D01*
X211568214Y-99870476D01*
X211472976Y-99918095D01*
X212615833Y-100060952D02*
X212520595Y-100013333D01*
X212472976Y-99965714D01*
X212425357Y-99870476D01*
X212425357Y-99822857D01*
X212472976Y-99727619D01*
X212520595Y-99680000D01*
X212615833Y-99632380D01*
X212806309Y-99632380D01*
X212901547Y-99680000D01*
X212949166Y-99727619D01*
X212996785Y-99822857D01*
X212996785Y-99870476D01*
X212949166Y-99965714D01*
X212901547Y-100013333D01*
X212806309Y-100060952D01*
X212615833Y-100060952D01*
X212520595Y-100108571D01*
X212472976Y-100156190D01*
X212425357Y-100251428D01*
X212425357Y-100441904D01*
X212472976Y-100537142D01*
X212520595Y-100584761D01*
X212615833Y-100632380D01*
X212806309Y-100632380D01*
X212901547Y-100584761D01*
X212949166Y-100537142D01*
X212996785Y-100441904D01*
X212996785Y-100251428D01*
X212949166Y-100156190D01*
X212901547Y-100108571D01*
X212806309Y-100060952D01*
X241000595Y-100632380D02*
X241000595Y-99632380D01*
X241238690Y-99632380D01*
X241381547Y-99680000D01*
X241476785Y-99775238D01*
X241524404Y-99870476D01*
X241572023Y-100060952D01*
X241572023Y-100203809D01*
X241524404Y-100394285D01*
X241476785Y-100489523D01*
X241381547Y-100584761D01*
X241238690Y-100632380D01*
X241000595Y-100632380D01*
X242429166Y-99965714D02*
X242429166Y-100632380D01*
X242191071Y-99584761D02*
X241952976Y-100299047D01*
X242572023Y-100299047D01*
X242905357Y-99727619D02*
X242952976Y-99680000D01*
X243048214Y-99632380D01*
X243286309Y-99632380D01*
X243381547Y-99680000D01*
X243429166Y-99727619D01*
X243476785Y-99822857D01*
X243476785Y-99918095D01*
X243429166Y-100060952D01*
X242857738Y-100632380D01*
X243476785Y-100632380D01*
X233380595Y-100632380D02*
X233380595Y-99632380D01*
X233618690Y-99632380D01*
X233761547Y-99680000D01*
X233856785Y-99775238D01*
X233904404Y-99870476D01*
X233952023Y-100060952D01*
X233952023Y-100203809D01*
X233904404Y-100394285D01*
X233856785Y-100489523D01*
X233761547Y-100584761D01*
X233618690Y-100632380D01*
X233380595Y-100632380D01*
X234285357Y-99632380D02*
X234904404Y-99632380D01*
X234571071Y-100013333D01*
X234713928Y-100013333D01*
X234809166Y-100060952D01*
X234856785Y-100108571D01*
X234904404Y-100203809D01*
X234904404Y-100441904D01*
X234856785Y-100537142D01*
X234809166Y-100584761D01*
X234713928Y-100632380D01*
X234428214Y-100632380D01*
X234332976Y-100584761D01*
X234285357Y-100537142D01*
X235761547Y-99632380D02*
X235571071Y-99632380D01*
X235475833Y-99680000D01*
X235428214Y-99727619D01*
X235332976Y-99870476D01*
X235285357Y-100060952D01*
X235285357Y-100441904D01*
X235332976Y-100537142D01*
X235380595Y-100584761D01*
X235475833Y-100632380D01*
X235666309Y-100632380D01*
X235761547Y-100584761D01*
X235809166Y-100537142D01*
X235856785Y-100441904D01*
X235856785Y-100203809D01*
X235809166Y-100108571D01*
X235761547Y-100060952D01*
X235666309Y-100013333D01*
X235475833Y-100013333D01*
X235380595Y-100060952D01*
X235332976Y-100108571D01*
X235285357Y-100203809D01*
X225760595Y-100632380D02*
X225760595Y-99632380D01*
X225998690Y-99632380D01*
X226141547Y-99680000D01*
X226236785Y-99775238D01*
X226284404Y-99870476D01*
X226332023Y-100060952D01*
X226332023Y-100203809D01*
X226284404Y-100394285D01*
X226236785Y-100489523D01*
X226141547Y-100584761D01*
X225998690Y-100632380D01*
X225760595Y-100632380D01*
X226665357Y-99632380D02*
X227284404Y-99632380D01*
X226951071Y-100013333D01*
X227093928Y-100013333D01*
X227189166Y-100060952D01*
X227236785Y-100108571D01*
X227284404Y-100203809D01*
X227284404Y-100441904D01*
X227236785Y-100537142D01*
X227189166Y-100584761D01*
X227093928Y-100632380D01*
X226808214Y-100632380D01*
X226712976Y-100584761D01*
X226665357Y-100537142D01*
X227903452Y-99632380D02*
X227998690Y-99632380D01*
X228093928Y-99680000D01*
X228141547Y-99727619D01*
X228189166Y-99822857D01*
X228236785Y-100013333D01*
X228236785Y-100251428D01*
X228189166Y-100441904D01*
X228141547Y-100537142D01*
X228093928Y-100584761D01*
X227998690Y-100632380D01*
X227903452Y-100632380D01*
X227808214Y-100584761D01*
X227760595Y-100537142D01*
X227712976Y-100441904D01*
X227665357Y-100251428D01*
X227665357Y-100013333D01*
X227712976Y-99822857D01*
X227760595Y-99727619D01*
X227808214Y-99680000D01*
X227903452Y-99632380D01*
X218140595Y-100632380D02*
X218140595Y-99632380D01*
X218378690Y-99632380D01*
X218521547Y-99680000D01*
X218616785Y-99775238D01*
X218664404Y-99870476D01*
X218712023Y-100060952D01*
X218712023Y-100203809D01*
X218664404Y-100394285D01*
X218616785Y-100489523D01*
X218521547Y-100584761D01*
X218378690Y-100632380D01*
X218140595Y-100632380D01*
X219092976Y-99727619D02*
X219140595Y-99680000D01*
X219235833Y-99632380D01*
X219473928Y-99632380D01*
X219569166Y-99680000D01*
X219616785Y-99727619D01*
X219664404Y-99822857D01*
X219664404Y-99918095D01*
X219616785Y-100060952D01*
X219045357Y-100632380D01*
X219664404Y-100632380D01*
X220521547Y-99965714D02*
X220521547Y-100632380D01*
X220283452Y-99584761D02*
X220045357Y-100299047D01*
X220664404Y-100299047D01*
X202900595Y-100632380D02*
X202900595Y-99632380D01*
X203138690Y-99632380D01*
X203281547Y-99680000D01*
X203376785Y-99775238D01*
X203424404Y-99870476D01*
X203472023Y-100060952D01*
X203472023Y-100203809D01*
X203424404Y-100394285D01*
X203376785Y-100489523D01*
X203281547Y-100584761D01*
X203138690Y-100632380D01*
X202900595Y-100632380D01*
X204424404Y-100632380D02*
X203852976Y-100632380D01*
X204138690Y-100632380D02*
X204138690Y-99632380D01*
X204043452Y-99775238D01*
X203948214Y-99870476D01*
X203852976Y-99918095D01*
X204805357Y-99727619D02*
X204852976Y-99680000D01*
X204948214Y-99632380D01*
X205186309Y-99632380D01*
X205281547Y-99680000D01*
X205329166Y-99727619D01*
X205376785Y-99822857D01*
X205376785Y-99918095D01*
X205329166Y-100060952D01*
X204757738Y-100632380D01*
X205376785Y-100632380D01*
X195280595Y-100632380D02*
X195280595Y-99632380D01*
X195518690Y-99632380D01*
X195661547Y-99680000D01*
X195756785Y-99775238D01*
X195804404Y-99870476D01*
X195852023Y-100060952D01*
X195852023Y-100203809D01*
X195804404Y-100394285D01*
X195756785Y-100489523D01*
X195661547Y-100584761D01*
X195518690Y-100632380D01*
X195280595Y-100632380D01*
X196709166Y-99632380D02*
X196518690Y-99632380D01*
X196423452Y-99680000D01*
X196375833Y-99727619D01*
X196280595Y-99870476D01*
X196232976Y-100060952D01*
X196232976Y-100441904D01*
X196280595Y-100537142D01*
X196328214Y-100584761D01*
X196423452Y-100632380D01*
X196613928Y-100632380D01*
X196709166Y-100584761D01*
X196756785Y-100537142D01*
X196804404Y-100441904D01*
X196804404Y-100203809D01*
X196756785Y-100108571D01*
X196709166Y-100060952D01*
X196613928Y-100013333D01*
X196423452Y-100013333D01*
X196328214Y-100060952D01*
X196280595Y-100108571D01*
X196232976Y-100203809D01*
X241000595Y-93012380D02*
X241000595Y-92012380D01*
X241238690Y-92012380D01*
X241381547Y-92060000D01*
X241476785Y-92155238D01*
X241524404Y-92250476D01*
X241572023Y-92440952D01*
X241572023Y-92583809D01*
X241524404Y-92774285D01*
X241476785Y-92869523D01*
X241381547Y-92964761D01*
X241238690Y-93012380D01*
X241000595Y-93012380D01*
X242429166Y-92345714D02*
X242429166Y-93012380D01*
X242191071Y-91964761D02*
X241952976Y-92679047D01*
X242572023Y-92679047D01*
X243476785Y-93012380D02*
X242905357Y-93012380D01*
X243191071Y-93012380D02*
X243191071Y-92012380D01*
X243095833Y-92155238D01*
X243000595Y-92250476D01*
X242905357Y-92298095D01*
X233380595Y-93012380D02*
X233380595Y-92012380D01*
X233618690Y-92012380D01*
X233761547Y-92060000D01*
X233856785Y-92155238D01*
X233904404Y-92250476D01*
X233952023Y-92440952D01*
X233952023Y-92583809D01*
X233904404Y-92774285D01*
X233856785Y-92869523D01*
X233761547Y-92964761D01*
X233618690Y-93012380D01*
X233380595Y-93012380D01*
X234285357Y-92012380D02*
X234904404Y-92012380D01*
X234571071Y-92393333D01*
X234713928Y-92393333D01*
X234809166Y-92440952D01*
X234856785Y-92488571D01*
X234904404Y-92583809D01*
X234904404Y-92821904D01*
X234856785Y-92917142D01*
X234809166Y-92964761D01*
X234713928Y-93012380D01*
X234428214Y-93012380D01*
X234332976Y-92964761D01*
X234285357Y-92917142D01*
X235809166Y-92012380D02*
X235332976Y-92012380D01*
X235285357Y-92488571D01*
X235332976Y-92440952D01*
X235428214Y-92393333D01*
X235666309Y-92393333D01*
X235761547Y-92440952D01*
X235809166Y-92488571D01*
X235856785Y-92583809D01*
X235856785Y-92821904D01*
X235809166Y-92917142D01*
X235761547Y-92964761D01*
X235666309Y-93012380D01*
X235428214Y-93012380D01*
X235332976Y-92964761D01*
X235285357Y-92917142D01*
X225760595Y-93012380D02*
X225760595Y-92012380D01*
X225998690Y-92012380D01*
X226141547Y-92060000D01*
X226236785Y-92155238D01*
X226284404Y-92250476D01*
X226332023Y-92440952D01*
X226332023Y-92583809D01*
X226284404Y-92774285D01*
X226236785Y-92869523D01*
X226141547Y-92964761D01*
X225998690Y-93012380D01*
X225760595Y-93012380D01*
X226712976Y-92107619D02*
X226760595Y-92060000D01*
X226855833Y-92012380D01*
X227093928Y-92012380D01*
X227189166Y-92060000D01*
X227236785Y-92107619D01*
X227284404Y-92202857D01*
X227284404Y-92298095D01*
X227236785Y-92440952D01*
X226665357Y-93012380D01*
X227284404Y-93012380D01*
X227760595Y-93012380D02*
X227951071Y-93012380D01*
X228046309Y-92964761D01*
X228093928Y-92917142D01*
X228189166Y-92774285D01*
X228236785Y-92583809D01*
X228236785Y-92202857D01*
X228189166Y-92107619D01*
X228141547Y-92060000D01*
X228046309Y-92012380D01*
X227855833Y-92012380D01*
X227760595Y-92060000D01*
X227712976Y-92107619D01*
X227665357Y-92202857D01*
X227665357Y-92440952D01*
X227712976Y-92536190D01*
X227760595Y-92583809D01*
X227855833Y-92631428D01*
X228046309Y-92631428D01*
X228141547Y-92583809D01*
X228189166Y-92536190D01*
X228236785Y-92440952D01*
X218140595Y-93012380D02*
X218140595Y-92012380D01*
X218378690Y-92012380D01*
X218521547Y-92060000D01*
X218616785Y-92155238D01*
X218664404Y-92250476D01*
X218712023Y-92440952D01*
X218712023Y-92583809D01*
X218664404Y-92774285D01*
X218616785Y-92869523D01*
X218521547Y-92964761D01*
X218378690Y-93012380D01*
X218140595Y-93012380D01*
X219092976Y-92107619D02*
X219140595Y-92060000D01*
X219235833Y-92012380D01*
X219473928Y-92012380D01*
X219569166Y-92060000D01*
X219616785Y-92107619D01*
X219664404Y-92202857D01*
X219664404Y-92298095D01*
X219616785Y-92440952D01*
X219045357Y-93012380D01*
X219664404Y-93012380D01*
X219997738Y-92012380D02*
X220616785Y-92012380D01*
X220283452Y-92393333D01*
X220426309Y-92393333D01*
X220521547Y-92440952D01*
X220569166Y-92488571D01*
X220616785Y-92583809D01*
X220616785Y-92821904D01*
X220569166Y-92917142D01*
X220521547Y-92964761D01*
X220426309Y-93012380D01*
X220140595Y-93012380D01*
X220045357Y-92964761D01*
X219997738Y-92917142D01*
X210520595Y-93012380D02*
X210520595Y-92012380D01*
X210758690Y-92012380D01*
X210901547Y-92060000D01*
X210996785Y-92155238D01*
X211044404Y-92250476D01*
X211092023Y-92440952D01*
X211092023Y-92583809D01*
X211044404Y-92774285D01*
X210996785Y-92869523D01*
X210901547Y-92964761D01*
X210758690Y-93012380D01*
X210520595Y-93012380D01*
X212044404Y-93012380D02*
X211472976Y-93012380D01*
X211758690Y-93012380D02*
X211758690Y-92012380D01*
X211663452Y-92155238D01*
X211568214Y-92250476D01*
X211472976Y-92298095D01*
X212377738Y-92012380D02*
X213044404Y-92012380D01*
X212615833Y-93012380D01*
X202900595Y-93012380D02*
X202900595Y-92012380D01*
X203138690Y-92012380D01*
X203281547Y-92060000D01*
X203376785Y-92155238D01*
X203424404Y-92250476D01*
X203472023Y-92440952D01*
X203472023Y-92583809D01*
X203424404Y-92774285D01*
X203376785Y-92869523D01*
X203281547Y-92964761D01*
X203138690Y-93012380D01*
X202900595Y-93012380D01*
X204424404Y-93012380D02*
X203852976Y-93012380D01*
X204138690Y-93012380D02*
X204138690Y-92012380D01*
X204043452Y-92155238D01*
X203948214Y-92250476D01*
X203852976Y-92298095D01*
X205376785Y-93012380D02*
X204805357Y-93012380D01*
X205091071Y-93012380D02*
X205091071Y-92012380D01*
X204995833Y-92155238D01*
X204900595Y-92250476D01*
X204805357Y-92298095D01*
X195280595Y-93012380D02*
X195280595Y-92012380D01*
X195518690Y-92012380D01*
X195661547Y-92060000D01*
X195756785Y-92155238D01*
X195804404Y-92250476D01*
X195852023Y-92440952D01*
X195852023Y-92583809D01*
X195804404Y-92774285D01*
X195756785Y-92869523D01*
X195661547Y-92964761D01*
X195518690Y-93012380D01*
X195280595Y-93012380D01*
X196756785Y-92012380D02*
X196280595Y-92012380D01*
X196232976Y-92488571D01*
X196280595Y-92440952D01*
X196375833Y-92393333D01*
X196613928Y-92393333D01*
X196709166Y-92440952D01*
X196756785Y-92488571D01*
X196804404Y-92583809D01*
X196804404Y-92821904D01*
X196756785Y-92917142D01*
X196709166Y-92964761D01*
X196613928Y-93012380D01*
X196375833Y-93012380D01*
X196280595Y-92964761D01*
X196232976Y-92917142D01*
X241000595Y-85392380D02*
X241000595Y-84392380D01*
X241238690Y-84392380D01*
X241381547Y-84440000D01*
X241476785Y-84535238D01*
X241524404Y-84630476D01*
X241572023Y-84820952D01*
X241572023Y-84963809D01*
X241524404Y-85154285D01*
X241476785Y-85249523D01*
X241381547Y-85344761D01*
X241238690Y-85392380D01*
X241000595Y-85392380D01*
X242429166Y-84725714D02*
X242429166Y-85392380D01*
X242191071Y-84344761D02*
X241952976Y-85059047D01*
X242572023Y-85059047D01*
X243143452Y-84392380D02*
X243238690Y-84392380D01*
X243333928Y-84440000D01*
X243381547Y-84487619D01*
X243429166Y-84582857D01*
X243476785Y-84773333D01*
X243476785Y-85011428D01*
X243429166Y-85201904D01*
X243381547Y-85297142D01*
X243333928Y-85344761D01*
X243238690Y-85392380D01*
X243143452Y-85392380D01*
X243048214Y-85344761D01*
X243000595Y-85297142D01*
X242952976Y-85201904D01*
X242905357Y-85011428D01*
X242905357Y-84773333D01*
X242952976Y-84582857D01*
X243000595Y-84487619D01*
X243048214Y-84440000D01*
X243143452Y-84392380D01*
X233380595Y-85392380D02*
X233380595Y-84392380D01*
X233618690Y-84392380D01*
X233761547Y-84440000D01*
X233856785Y-84535238D01*
X233904404Y-84630476D01*
X233952023Y-84820952D01*
X233952023Y-84963809D01*
X233904404Y-85154285D01*
X233856785Y-85249523D01*
X233761547Y-85344761D01*
X233618690Y-85392380D01*
X233380595Y-85392380D01*
X234285357Y-84392380D02*
X234904404Y-84392380D01*
X234571071Y-84773333D01*
X234713928Y-84773333D01*
X234809166Y-84820952D01*
X234856785Y-84868571D01*
X234904404Y-84963809D01*
X234904404Y-85201904D01*
X234856785Y-85297142D01*
X234809166Y-85344761D01*
X234713928Y-85392380D01*
X234428214Y-85392380D01*
X234332976Y-85344761D01*
X234285357Y-85297142D01*
X235761547Y-84725714D02*
X235761547Y-85392380D01*
X235523452Y-84344761D02*
X235285357Y-85059047D01*
X235904404Y-85059047D01*
X225760595Y-85392380D02*
X225760595Y-84392380D01*
X225998690Y-84392380D01*
X226141547Y-84440000D01*
X226236785Y-84535238D01*
X226284404Y-84630476D01*
X226332023Y-84820952D01*
X226332023Y-84963809D01*
X226284404Y-85154285D01*
X226236785Y-85249523D01*
X226141547Y-85344761D01*
X225998690Y-85392380D01*
X225760595Y-85392380D01*
X226712976Y-84487619D02*
X226760595Y-84440000D01*
X226855833Y-84392380D01*
X227093928Y-84392380D01*
X227189166Y-84440000D01*
X227236785Y-84487619D01*
X227284404Y-84582857D01*
X227284404Y-84678095D01*
X227236785Y-84820952D01*
X226665357Y-85392380D01*
X227284404Y-85392380D01*
X227855833Y-84820952D02*
X227760595Y-84773333D01*
X227712976Y-84725714D01*
X227665357Y-84630476D01*
X227665357Y-84582857D01*
X227712976Y-84487619D01*
X227760595Y-84440000D01*
X227855833Y-84392380D01*
X228046309Y-84392380D01*
X228141547Y-84440000D01*
X228189166Y-84487619D01*
X228236785Y-84582857D01*
X228236785Y-84630476D01*
X228189166Y-84725714D01*
X228141547Y-84773333D01*
X228046309Y-84820952D01*
X227855833Y-84820952D01*
X227760595Y-84868571D01*
X227712976Y-84916190D01*
X227665357Y-85011428D01*
X227665357Y-85201904D01*
X227712976Y-85297142D01*
X227760595Y-85344761D01*
X227855833Y-85392380D01*
X228046309Y-85392380D01*
X228141547Y-85344761D01*
X228189166Y-85297142D01*
X228236785Y-85201904D01*
X228236785Y-85011428D01*
X228189166Y-84916190D01*
X228141547Y-84868571D01*
X228046309Y-84820952D01*
X218140595Y-85392380D02*
X218140595Y-84392380D01*
X218378690Y-84392380D01*
X218521547Y-84440000D01*
X218616785Y-84535238D01*
X218664404Y-84630476D01*
X218712023Y-84820952D01*
X218712023Y-84963809D01*
X218664404Y-85154285D01*
X218616785Y-85249523D01*
X218521547Y-85344761D01*
X218378690Y-85392380D01*
X218140595Y-85392380D01*
X219092976Y-84487619D02*
X219140595Y-84440000D01*
X219235833Y-84392380D01*
X219473928Y-84392380D01*
X219569166Y-84440000D01*
X219616785Y-84487619D01*
X219664404Y-84582857D01*
X219664404Y-84678095D01*
X219616785Y-84820952D01*
X219045357Y-85392380D01*
X219664404Y-85392380D01*
X220045357Y-84487619D02*
X220092976Y-84440000D01*
X220188214Y-84392380D01*
X220426309Y-84392380D01*
X220521547Y-84440000D01*
X220569166Y-84487619D01*
X220616785Y-84582857D01*
X220616785Y-84678095D01*
X220569166Y-84820952D01*
X219997738Y-85392380D01*
X220616785Y-85392380D01*
X210520595Y-85392380D02*
X210520595Y-84392380D01*
X210758690Y-84392380D01*
X210901547Y-84440000D01*
X210996785Y-84535238D01*
X211044404Y-84630476D01*
X211092023Y-84820952D01*
X211092023Y-84963809D01*
X211044404Y-85154285D01*
X210996785Y-85249523D01*
X210901547Y-85344761D01*
X210758690Y-85392380D01*
X210520595Y-85392380D01*
X212044404Y-85392380D02*
X211472976Y-85392380D01*
X211758690Y-85392380D02*
X211758690Y-84392380D01*
X211663452Y-84535238D01*
X211568214Y-84630476D01*
X211472976Y-84678095D01*
X212901547Y-84392380D02*
X212711071Y-84392380D01*
X212615833Y-84440000D01*
X212568214Y-84487619D01*
X212472976Y-84630476D01*
X212425357Y-84820952D01*
X212425357Y-85201904D01*
X212472976Y-85297142D01*
X212520595Y-85344761D01*
X212615833Y-85392380D01*
X212806309Y-85392380D01*
X212901547Y-85344761D01*
X212949166Y-85297142D01*
X212996785Y-85201904D01*
X212996785Y-84963809D01*
X212949166Y-84868571D01*
X212901547Y-84820952D01*
X212806309Y-84773333D01*
X212615833Y-84773333D01*
X212520595Y-84820952D01*
X212472976Y-84868571D01*
X212425357Y-84963809D01*
X202900595Y-85392380D02*
X202900595Y-84392380D01*
X203138690Y-84392380D01*
X203281547Y-84440000D01*
X203376785Y-84535238D01*
X203424404Y-84630476D01*
X203472023Y-84820952D01*
X203472023Y-84963809D01*
X203424404Y-85154285D01*
X203376785Y-85249523D01*
X203281547Y-85344761D01*
X203138690Y-85392380D01*
X202900595Y-85392380D01*
X204424404Y-85392380D02*
X203852976Y-85392380D01*
X204138690Y-85392380D02*
X204138690Y-84392380D01*
X204043452Y-84535238D01*
X203948214Y-84630476D01*
X203852976Y-84678095D01*
X205043452Y-84392380D02*
X205138690Y-84392380D01*
X205233928Y-84440000D01*
X205281547Y-84487619D01*
X205329166Y-84582857D01*
X205376785Y-84773333D01*
X205376785Y-85011428D01*
X205329166Y-85201904D01*
X205281547Y-85297142D01*
X205233928Y-85344761D01*
X205138690Y-85392380D01*
X205043452Y-85392380D01*
X204948214Y-85344761D01*
X204900595Y-85297142D01*
X204852976Y-85201904D01*
X204805357Y-85011428D01*
X204805357Y-84773333D01*
X204852976Y-84582857D01*
X204900595Y-84487619D01*
X204948214Y-84440000D01*
X205043452Y-84392380D01*
X195280595Y-85392380D02*
X195280595Y-84392380D01*
X195518690Y-84392380D01*
X195661547Y-84440000D01*
X195756785Y-84535238D01*
X195804404Y-84630476D01*
X195852023Y-84820952D01*
X195852023Y-84963809D01*
X195804404Y-85154285D01*
X195756785Y-85249523D01*
X195661547Y-85344761D01*
X195518690Y-85392380D01*
X195280595Y-85392380D01*
X196709166Y-84725714D02*
X196709166Y-85392380D01*
X196471071Y-84344761D02*
X196232976Y-85059047D01*
X196852023Y-85059047D01*
X241000595Y-77772380D02*
X241000595Y-76772380D01*
X241238690Y-76772380D01*
X241381547Y-76820000D01*
X241476785Y-76915238D01*
X241524404Y-77010476D01*
X241572023Y-77200952D01*
X241572023Y-77343809D01*
X241524404Y-77534285D01*
X241476785Y-77629523D01*
X241381547Y-77724761D01*
X241238690Y-77772380D01*
X241000595Y-77772380D01*
X241905357Y-76772380D02*
X242524404Y-76772380D01*
X242191071Y-77153333D01*
X242333928Y-77153333D01*
X242429166Y-77200952D01*
X242476785Y-77248571D01*
X242524404Y-77343809D01*
X242524404Y-77581904D01*
X242476785Y-77677142D01*
X242429166Y-77724761D01*
X242333928Y-77772380D01*
X242048214Y-77772380D01*
X241952976Y-77724761D01*
X241905357Y-77677142D01*
X243000595Y-77772380D02*
X243191071Y-77772380D01*
X243286309Y-77724761D01*
X243333928Y-77677142D01*
X243429166Y-77534285D01*
X243476785Y-77343809D01*
X243476785Y-76962857D01*
X243429166Y-76867619D01*
X243381547Y-76820000D01*
X243286309Y-76772380D01*
X243095833Y-76772380D01*
X243000595Y-76820000D01*
X242952976Y-76867619D01*
X242905357Y-76962857D01*
X242905357Y-77200952D01*
X242952976Y-77296190D01*
X243000595Y-77343809D01*
X243095833Y-77391428D01*
X243286309Y-77391428D01*
X243381547Y-77343809D01*
X243429166Y-77296190D01*
X243476785Y-77200952D01*
X233380595Y-77772380D02*
X233380595Y-76772380D01*
X233618690Y-76772380D01*
X233761547Y-76820000D01*
X233856785Y-76915238D01*
X233904404Y-77010476D01*
X233952023Y-77200952D01*
X233952023Y-77343809D01*
X233904404Y-77534285D01*
X233856785Y-77629523D01*
X233761547Y-77724761D01*
X233618690Y-77772380D01*
X233380595Y-77772380D01*
X234285357Y-76772380D02*
X234904404Y-76772380D01*
X234571071Y-77153333D01*
X234713928Y-77153333D01*
X234809166Y-77200952D01*
X234856785Y-77248571D01*
X234904404Y-77343809D01*
X234904404Y-77581904D01*
X234856785Y-77677142D01*
X234809166Y-77724761D01*
X234713928Y-77772380D01*
X234428214Y-77772380D01*
X234332976Y-77724761D01*
X234285357Y-77677142D01*
X235237738Y-76772380D02*
X235856785Y-76772380D01*
X235523452Y-77153333D01*
X235666309Y-77153333D01*
X235761547Y-77200952D01*
X235809166Y-77248571D01*
X235856785Y-77343809D01*
X235856785Y-77581904D01*
X235809166Y-77677142D01*
X235761547Y-77724761D01*
X235666309Y-77772380D01*
X235380595Y-77772380D01*
X235285357Y-77724761D01*
X235237738Y-77677142D01*
X225760595Y-77772380D02*
X225760595Y-76772380D01*
X225998690Y-76772380D01*
X226141547Y-76820000D01*
X226236785Y-76915238D01*
X226284404Y-77010476D01*
X226332023Y-77200952D01*
X226332023Y-77343809D01*
X226284404Y-77534285D01*
X226236785Y-77629523D01*
X226141547Y-77724761D01*
X225998690Y-77772380D01*
X225760595Y-77772380D01*
X226712976Y-76867619D02*
X226760595Y-76820000D01*
X226855833Y-76772380D01*
X227093928Y-76772380D01*
X227189166Y-76820000D01*
X227236785Y-76867619D01*
X227284404Y-76962857D01*
X227284404Y-77058095D01*
X227236785Y-77200952D01*
X226665357Y-77772380D01*
X227284404Y-77772380D01*
X227617738Y-76772380D02*
X228284404Y-76772380D01*
X227855833Y-77772380D01*
X218140595Y-77772380D02*
X218140595Y-76772380D01*
X218378690Y-76772380D01*
X218521547Y-76820000D01*
X218616785Y-76915238D01*
X218664404Y-77010476D01*
X218712023Y-77200952D01*
X218712023Y-77343809D01*
X218664404Y-77534285D01*
X218616785Y-77629523D01*
X218521547Y-77724761D01*
X218378690Y-77772380D01*
X218140595Y-77772380D01*
X219092976Y-76867619D02*
X219140595Y-76820000D01*
X219235833Y-76772380D01*
X219473928Y-76772380D01*
X219569166Y-76820000D01*
X219616785Y-76867619D01*
X219664404Y-76962857D01*
X219664404Y-77058095D01*
X219616785Y-77200952D01*
X219045357Y-77772380D01*
X219664404Y-77772380D01*
X220616785Y-77772380D02*
X220045357Y-77772380D01*
X220331071Y-77772380D02*
X220331071Y-76772380D01*
X220235833Y-76915238D01*
X220140595Y-77010476D01*
X220045357Y-77058095D01*
X210520595Y-77772380D02*
X210520595Y-76772380D01*
X210758690Y-76772380D01*
X210901547Y-76820000D01*
X210996785Y-76915238D01*
X211044404Y-77010476D01*
X211092023Y-77200952D01*
X211092023Y-77343809D01*
X211044404Y-77534285D01*
X210996785Y-77629523D01*
X210901547Y-77724761D01*
X210758690Y-77772380D01*
X210520595Y-77772380D01*
X212044404Y-77772380D02*
X211472976Y-77772380D01*
X211758690Y-77772380D02*
X211758690Y-76772380D01*
X211663452Y-76915238D01*
X211568214Y-77010476D01*
X211472976Y-77058095D01*
X212949166Y-76772380D02*
X212472976Y-76772380D01*
X212425357Y-77248571D01*
X212472976Y-77200952D01*
X212568214Y-77153333D01*
X212806309Y-77153333D01*
X212901547Y-77200952D01*
X212949166Y-77248571D01*
X212996785Y-77343809D01*
X212996785Y-77581904D01*
X212949166Y-77677142D01*
X212901547Y-77724761D01*
X212806309Y-77772380D01*
X212568214Y-77772380D01*
X212472976Y-77724761D01*
X212425357Y-77677142D01*
X202900595Y-77772380D02*
X202900595Y-76772380D01*
X203138690Y-76772380D01*
X203281547Y-76820000D01*
X203376785Y-76915238D01*
X203424404Y-77010476D01*
X203472023Y-77200952D01*
X203472023Y-77343809D01*
X203424404Y-77534285D01*
X203376785Y-77629523D01*
X203281547Y-77724761D01*
X203138690Y-77772380D01*
X202900595Y-77772380D01*
X203948214Y-77772380D02*
X204138690Y-77772380D01*
X204233928Y-77724761D01*
X204281547Y-77677142D01*
X204376785Y-77534285D01*
X204424404Y-77343809D01*
X204424404Y-76962857D01*
X204376785Y-76867619D01*
X204329166Y-76820000D01*
X204233928Y-76772380D01*
X204043452Y-76772380D01*
X203948214Y-76820000D01*
X203900595Y-76867619D01*
X203852976Y-76962857D01*
X203852976Y-77200952D01*
X203900595Y-77296190D01*
X203948214Y-77343809D01*
X204043452Y-77391428D01*
X204233928Y-77391428D01*
X204329166Y-77343809D01*
X204376785Y-77296190D01*
X204424404Y-77200952D01*
X195280595Y-77772380D02*
X195280595Y-76772380D01*
X195518690Y-76772380D01*
X195661547Y-76820000D01*
X195756785Y-76915238D01*
X195804404Y-77010476D01*
X195852023Y-77200952D01*
X195852023Y-77343809D01*
X195804404Y-77534285D01*
X195756785Y-77629523D01*
X195661547Y-77724761D01*
X195518690Y-77772380D01*
X195280595Y-77772380D01*
X196185357Y-76772380D02*
X196804404Y-76772380D01*
X196471071Y-77153333D01*
X196613928Y-77153333D01*
X196709166Y-77200952D01*
X196756785Y-77248571D01*
X196804404Y-77343809D01*
X196804404Y-77581904D01*
X196756785Y-77677142D01*
X196709166Y-77724761D01*
X196613928Y-77772380D01*
X196328214Y-77772380D01*
X196232976Y-77724761D01*
X196185357Y-77677142D01*
X241000595Y-70152380D02*
X241000595Y-69152380D01*
X241238690Y-69152380D01*
X241381547Y-69200000D01*
X241476785Y-69295238D01*
X241524404Y-69390476D01*
X241572023Y-69580952D01*
X241572023Y-69723809D01*
X241524404Y-69914285D01*
X241476785Y-70009523D01*
X241381547Y-70104761D01*
X241238690Y-70152380D01*
X241000595Y-70152380D01*
X241905357Y-69152380D02*
X242524404Y-69152380D01*
X242191071Y-69533333D01*
X242333928Y-69533333D01*
X242429166Y-69580952D01*
X242476785Y-69628571D01*
X242524404Y-69723809D01*
X242524404Y-69961904D01*
X242476785Y-70057142D01*
X242429166Y-70104761D01*
X242333928Y-70152380D01*
X242048214Y-70152380D01*
X241952976Y-70104761D01*
X241905357Y-70057142D01*
X243095833Y-69580952D02*
X243000595Y-69533333D01*
X242952976Y-69485714D01*
X242905357Y-69390476D01*
X242905357Y-69342857D01*
X242952976Y-69247619D01*
X243000595Y-69200000D01*
X243095833Y-69152380D01*
X243286309Y-69152380D01*
X243381547Y-69200000D01*
X243429166Y-69247619D01*
X243476785Y-69342857D01*
X243476785Y-69390476D01*
X243429166Y-69485714D01*
X243381547Y-69533333D01*
X243286309Y-69580952D01*
X243095833Y-69580952D01*
X243000595Y-69628571D01*
X242952976Y-69676190D01*
X242905357Y-69771428D01*
X242905357Y-69961904D01*
X242952976Y-70057142D01*
X243000595Y-70104761D01*
X243095833Y-70152380D01*
X243286309Y-70152380D01*
X243381547Y-70104761D01*
X243429166Y-70057142D01*
X243476785Y-69961904D01*
X243476785Y-69771428D01*
X243429166Y-69676190D01*
X243381547Y-69628571D01*
X243286309Y-69580952D01*
X233380595Y-70152380D02*
X233380595Y-69152380D01*
X233618690Y-69152380D01*
X233761547Y-69200000D01*
X233856785Y-69295238D01*
X233904404Y-69390476D01*
X233952023Y-69580952D01*
X233952023Y-69723809D01*
X233904404Y-69914285D01*
X233856785Y-70009523D01*
X233761547Y-70104761D01*
X233618690Y-70152380D01*
X233380595Y-70152380D01*
X234285357Y-69152380D02*
X234904404Y-69152380D01*
X234571071Y-69533333D01*
X234713928Y-69533333D01*
X234809166Y-69580952D01*
X234856785Y-69628571D01*
X234904404Y-69723809D01*
X234904404Y-69961904D01*
X234856785Y-70057142D01*
X234809166Y-70104761D01*
X234713928Y-70152380D01*
X234428214Y-70152380D01*
X234332976Y-70104761D01*
X234285357Y-70057142D01*
X235285357Y-69247619D02*
X235332976Y-69200000D01*
X235428214Y-69152380D01*
X235666309Y-69152380D01*
X235761547Y-69200000D01*
X235809166Y-69247619D01*
X235856785Y-69342857D01*
X235856785Y-69438095D01*
X235809166Y-69580952D01*
X235237738Y-70152380D01*
X235856785Y-70152380D01*
X225760595Y-70152380D02*
X225760595Y-69152380D01*
X225998690Y-69152380D01*
X226141547Y-69200000D01*
X226236785Y-69295238D01*
X226284404Y-69390476D01*
X226332023Y-69580952D01*
X226332023Y-69723809D01*
X226284404Y-69914285D01*
X226236785Y-70009523D01*
X226141547Y-70104761D01*
X225998690Y-70152380D01*
X225760595Y-70152380D01*
X226712976Y-69247619D02*
X226760595Y-69200000D01*
X226855833Y-69152380D01*
X227093928Y-69152380D01*
X227189166Y-69200000D01*
X227236785Y-69247619D01*
X227284404Y-69342857D01*
X227284404Y-69438095D01*
X227236785Y-69580952D01*
X226665357Y-70152380D01*
X227284404Y-70152380D01*
X228141547Y-69152380D02*
X227951071Y-69152380D01*
X227855833Y-69200000D01*
X227808214Y-69247619D01*
X227712976Y-69390476D01*
X227665357Y-69580952D01*
X227665357Y-69961904D01*
X227712976Y-70057142D01*
X227760595Y-70104761D01*
X227855833Y-70152380D01*
X228046309Y-70152380D01*
X228141547Y-70104761D01*
X228189166Y-70057142D01*
X228236785Y-69961904D01*
X228236785Y-69723809D01*
X228189166Y-69628571D01*
X228141547Y-69580952D01*
X228046309Y-69533333D01*
X227855833Y-69533333D01*
X227760595Y-69580952D01*
X227712976Y-69628571D01*
X227665357Y-69723809D01*
X218140595Y-70152380D02*
X218140595Y-69152380D01*
X218378690Y-69152380D01*
X218521547Y-69200000D01*
X218616785Y-69295238D01*
X218664404Y-69390476D01*
X218712023Y-69580952D01*
X218712023Y-69723809D01*
X218664404Y-69914285D01*
X218616785Y-70009523D01*
X218521547Y-70104761D01*
X218378690Y-70152380D01*
X218140595Y-70152380D01*
X219092976Y-69247619D02*
X219140595Y-69200000D01*
X219235833Y-69152380D01*
X219473928Y-69152380D01*
X219569166Y-69200000D01*
X219616785Y-69247619D01*
X219664404Y-69342857D01*
X219664404Y-69438095D01*
X219616785Y-69580952D01*
X219045357Y-70152380D01*
X219664404Y-70152380D01*
X220283452Y-69152380D02*
X220378690Y-69152380D01*
X220473928Y-69200000D01*
X220521547Y-69247619D01*
X220569166Y-69342857D01*
X220616785Y-69533333D01*
X220616785Y-69771428D01*
X220569166Y-69961904D01*
X220521547Y-70057142D01*
X220473928Y-70104761D01*
X220378690Y-70152380D01*
X220283452Y-70152380D01*
X220188214Y-70104761D01*
X220140595Y-70057142D01*
X220092976Y-69961904D01*
X220045357Y-69771428D01*
X220045357Y-69533333D01*
X220092976Y-69342857D01*
X220140595Y-69247619D01*
X220188214Y-69200000D01*
X220283452Y-69152380D01*
X210520595Y-70152380D02*
X210520595Y-69152380D01*
X210758690Y-69152380D01*
X210901547Y-69200000D01*
X210996785Y-69295238D01*
X211044404Y-69390476D01*
X211092023Y-69580952D01*
X211092023Y-69723809D01*
X211044404Y-69914285D01*
X210996785Y-70009523D01*
X210901547Y-70104761D01*
X210758690Y-70152380D01*
X210520595Y-70152380D01*
X212044404Y-70152380D02*
X211472976Y-70152380D01*
X211758690Y-70152380D02*
X211758690Y-69152380D01*
X211663452Y-69295238D01*
X211568214Y-69390476D01*
X211472976Y-69438095D01*
X212901547Y-69485714D02*
X212901547Y-70152380D01*
X212663452Y-69104761D02*
X212425357Y-69819047D01*
X213044404Y-69819047D01*
X202900595Y-70152380D02*
X202900595Y-69152380D01*
X203138690Y-69152380D01*
X203281547Y-69200000D01*
X203376785Y-69295238D01*
X203424404Y-69390476D01*
X203472023Y-69580952D01*
X203472023Y-69723809D01*
X203424404Y-69914285D01*
X203376785Y-70009523D01*
X203281547Y-70104761D01*
X203138690Y-70152380D01*
X202900595Y-70152380D01*
X204043452Y-69580952D02*
X203948214Y-69533333D01*
X203900595Y-69485714D01*
X203852976Y-69390476D01*
X203852976Y-69342857D01*
X203900595Y-69247619D01*
X203948214Y-69200000D01*
X204043452Y-69152380D01*
X204233928Y-69152380D01*
X204329166Y-69200000D01*
X204376785Y-69247619D01*
X204424404Y-69342857D01*
X204424404Y-69390476D01*
X204376785Y-69485714D01*
X204329166Y-69533333D01*
X204233928Y-69580952D01*
X204043452Y-69580952D01*
X203948214Y-69628571D01*
X203900595Y-69676190D01*
X203852976Y-69771428D01*
X203852976Y-69961904D01*
X203900595Y-70057142D01*
X203948214Y-70104761D01*
X204043452Y-70152380D01*
X204233928Y-70152380D01*
X204329166Y-70104761D01*
X204376785Y-70057142D01*
X204424404Y-69961904D01*
X204424404Y-69771428D01*
X204376785Y-69676190D01*
X204329166Y-69628571D01*
X204233928Y-69580952D01*
X195280595Y-70152380D02*
X195280595Y-69152380D01*
X195518690Y-69152380D01*
X195661547Y-69200000D01*
X195756785Y-69295238D01*
X195804404Y-69390476D01*
X195852023Y-69580952D01*
X195852023Y-69723809D01*
X195804404Y-69914285D01*
X195756785Y-70009523D01*
X195661547Y-70104761D01*
X195518690Y-70152380D01*
X195280595Y-70152380D01*
X196232976Y-69247619D02*
X196280595Y-69200000D01*
X196375833Y-69152380D01*
X196613928Y-69152380D01*
X196709166Y-69200000D01*
X196756785Y-69247619D01*
X196804404Y-69342857D01*
X196804404Y-69438095D01*
X196756785Y-69580952D01*
X196185357Y-70152380D01*
X196804404Y-70152380D01*
X241000595Y-62532380D02*
X241000595Y-61532380D01*
X241238690Y-61532380D01*
X241381547Y-61580000D01*
X241476785Y-61675238D01*
X241524404Y-61770476D01*
X241572023Y-61960952D01*
X241572023Y-62103809D01*
X241524404Y-62294285D01*
X241476785Y-62389523D01*
X241381547Y-62484761D01*
X241238690Y-62532380D01*
X241000595Y-62532380D01*
X241905357Y-61532380D02*
X242524404Y-61532380D01*
X242191071Y-61913333D01*
X242333928Y-61913333D01*
X242429166Y-61960952D01*
X242476785Y-62008571D01*
X242524404Y-62103809D01*
X242524404Y-62341904D01*
X242476785Y-62437142D01*
X242429166Y-62484761D01*
X242333928Y-62532380D01*
X242048214Y-62532380D01*
X241952976Y-62484761D01*
X241905357Y-62437142D01*
X242857738Y-61532380D02*
X243524404Y-61532380D01*
X243095833Y-62532380D01*
X233380595Y-62532380D02*
X233380595Y-61532380D01*
X233618690Y-61532380D01*
X233761547Y-61580000D01*
X233856785Y-61675238D01*
X233904404Y-61770476D01*
X233952023Y-61960952D01*
X233952023Y-62103809D01*
X233904404Y-62294285D01*
X233856785Y-62389523D01*
X233761547Y-62484761D01*
X233618690Y-62532380D01*
X233380595Y-62532380D01*
X234285357Y-61532380D02*
X234904404Y-61532380D01*
X234571071Y-61913333D01*
X234713928Y-61913333D01*
X234809166Y-61960952D01*
X234856785Y-62008571D01*
X234904404Y-62103809D01*
X234904404Y-62341904D01*
X234856785Y-62437142D01*
X234809166Y-62484761D01*
X234713928Y-62532380D01*
X234428214Y-62532380D01*
X234332976Y-62484761D01*
X234285357Y-62437142D01*
X235856785Y-62532380D02*
X235285357Y-62532380D01*
X235571071Y-62532380D02*
X235571071Y-61532380D01*
X235475833Y-61675238D01*
X235380595Y-61770476D01*
X235285357Y-61818095D01*
X225760595Y-62532380D02*
X225760595Y-61532380D01*
X225998690Y-61532380D01*
X226141547Y-61580000D01*
X226236785Y-61675238D01*
X226284404Y-61770476D01*
X226332023Y-61960952D01*
X226332023Y-62103809D01*
X226284404Y-62294285D01*
X226236785Y-62389523D01*
X226141547Y-62484761D01*
X225998690Y-62532380D01*
X225760595Y-62532380D01*
X226712976Y-61627619D02*
X226760595Y-61580000D01*
X226855833Y-61532380D01*
X227093928Y-61532380D01*
X227189166Y-61580000D01*
X227236785Y-61627619D01*
X227284404Y-61722857D01*
X227284404Y-61818095D01*
X227236785Y-61960952D01*
X226665357Y-62532380D01*
X227284404Y-62532380D01*
X228189166Y-61532380D02*
X227712976Y-61532380D01*
X227665357Y-62008571D01*
X227712976Y-61960952D01*
X227808214Y-61913333D01*
X228046309Y-61913333D01*
X228141547Y-61960952D01*
X228189166Y-62008571D01*
X228236785Y-62103809D01*
X228236785Y-62341904D01*
X228189166Y-62437142D01*
X228141547Y-62484761D01*
X228046309Y-62532380D01*
X227808214Y-62532380D01*
X227712976Y-62484761D01*
X227665357Y-62437142D01*
X218140595Y-62532380D02*
X218140595Y-61532380D01*
X218378690Y-61532380D01*
X218521547Y-61580000D01*
X218616785Y-61675238D01*
X218664404Y-61770476D01*
X218712023Y-61960952D01*
X218712023Y-62103809D01*
X218664404Y-62294285D01*
X218616785Y-62389523D01*
X218521547Y-62484761D01*
X218378690Y-62532380D01*
X218140595Y-62532380D01*
X219664404Y-62532380D02*
X219092976Y-62532380D01*
X219378690Y-62532380D02*
X219378690Y-61532380D01*
X219283452Y-61675238D01*
X219188214Y-61770476D01*
X219092976Y-61818095D01*
X220140595Y-62532380D02*
X220331071Y-62532380D01*
X220426309Y-62484761D01*
X220473928Y-62437142D01*
X220569166Y-62294285D01*
X220616785Y-62103809D01*
X220616785Y-61722857D01*
X220569166Y-61627619D01*
X220521547Y-61580000D01*
X220426309Y-61532380D01*
X220235833Y-61532380D01*
X220140595Y-61580000D01*
X220092976Y-61627619D01*
X220045357Y-61722857D01*
X220045357Y-61960952D01*
X220092976Y-62056190D01*
X220140595Y-62103809D01*
X220235833Y-62151428D01*
X220426309Y-62151428D01*
X220521547Y-62103809D01*
X220569166Y-62056190D01*
X220616785Y-61960952D01*
X210520595Y-62532380D02*
X210520595Y-61532380D01*
X210758690Y-61532380D01*
X210901547Y-61580000D01*
X210996785Y-61675238D01*
X211044404Y-61770476D01*
X211092023Y-61960952D01*
X211092023Y-62103809D01*
X211044404Y-62294285D01*
X210996785Y-62389523D01*
X210901547Y-62484761D01*
X210758690Y-62532380D01*
X210520595Y-62532380D01*
X212044404Y-62532380D02*
X211472976Y-62532380D01*
X211758690Y-62532380D02*
X211758690Y-61532380D01*
X211663452Y-61675238D01*
X211568214Y-61770476D01*
X211472976Y-61818095D01*
X212377738Y-61532380D02*
X212996785Y-61532380D01*
X212663452Y-61913333D01*
X212806309Y-61913333D01*
X212901547Y-61960952D01*
X212949166Y-62008571D01*
X212996785Y-62103809D01*
X212996785Y-62341904D01*
X212949166Y-62437142D01*
X212901547Y-62484761D01*
X212806309Y-62532380D01*
X212520595Y-62532380D01*
X212425357Y-62484761D01*
X212377738Y-62437142D01*
X202900595Y-62532380D02*
X202900595Y-61532380D01*
X203138690Y-61532380D01*
X203281547Y-61580000D01*
X203376785Y-61675238D01*
X203424404Y-61770476D01*
X203472023Y-61960952D01*
X203472023Y-62103809D01*
X203424404Y-62294285D01*
X203376785Y-62389523D01*
X203281547Y-62484761D01*
X203138690Y-62532380D01*
X202900595Y-62532380D01*
X203805357Y-61532380D02*
X204472023Y-61532380D01*
X204043452Y-62532380D01*
X195280595Y-62532380D02*
X195280595Y-61532380D01*
X195518690Y-61532380D01*
X195661547Y-61580000D01*
X195756785Y-61675238D01*
X195804404Y-61770476D01*
X195852023Y-61960952D01*
X195852023Y-62103809D01*
X195804404Y-62294285D01*
X195756785Y-62389523D01*
X195661547Y-62484761D01*
X195518690Y-62532380D01*
X195280595Y-62532380D01*
X196804404Y-62532380D02*
X196232976Y-62532380D01*
X196518690Y-62532380D02*
X196518690Y-61532380D01*
X196423452Y-61675238D01*
X196328214Y-61770476D01*
X196232976Y-61818095D01*
D11*
X239800000Y-52940000D02*
X238300000Y-52940000D01*
X235800000Y-54190000D02*
X235800000Y-58690000D01*
X238300000Y-59940000D02*
X239800000Y-59940000D01*
X242300000Y-58690000D02*
X242300000Y-54190000D01*
X232083330Y-52940000D02*
X230583330Y-52940000D01*
X228083330Y-54190000D02*
X228083330Y-58690000D01*
X230583330Y-59940000D02*
X232083330Y-59940000D01*
X234583330Y-58690000D02*
X234583330Y-54190000D01*
X224366664Y-52940000D02*
X222866664Y-52940000D01*
X220366664Y-54190000D02*
X220366664Y-58690000D01*
X222866664Y-59940000D02*
X224366664Y-59940000D01*
X226866664Y-58690000D02*
X226866664Y-54190000D01*
X216649998Y-52940000D02*
X215149998Y-52940000D01*
X212649998Y-54190000D02*
X212649998Y-58690000D01*
X215149998Y-59940000D02*
X216649998Y-59940000D01*
X219149998Y-58690000D02*
X219149998Y-54190000D01*
X208933332Y-52940000D02*
X207433332Y-52940000D01*
X204933332Y-54190000D02*
X204933332Y-58690000D01*
X207433332Y-59940000D02*
X208933332Y-59940000D01*
X211433332Y-58690000D02*
X211433332Y-54190000D01*
X201216666Y-52940000D02*
X199716666Y-52940000D01*
X197216666Y-54190000D02*
X197216666Y-58690000D01*
X199716666Y-59940000D02*
X201216666Y-59940000D01*
X203716666Y-58690000D02*
X203716666Y-54190000D01*
X193500000Y-52940000D02*
X192000000Y-52940000D01*
X189500000Y-54190000D02*
X189500000Y-58690000D01*
X192000000Y-59940000D02*
X193500000Y-59940000D01*
X196000000Y-58690000D02*
X196000000Y-54190000D01*
X210760090Y-102583579D02*
G75*
G03*
X206527401Y-101092001I-2480090J-286421D01*
G01*
X211256836Y-102611784D02*
G75*
G03*
X205895000Y-101070000I-2976836J-258216D01*
G01*
X210671334Y-104664887D02*
G75*
G02*
X205720000Y-104414830I-2391334J1794887D01*
G01*
X210239086Y-104423056D02*
G75*
G02*
X206025316Y-103950000I-1959086J1553056D01*
G01*
X205720000Y-103169188D02*
X205720000Y-104415000D01*
X241240090Y-102583579D02*
G75*
G03*
X237007401Y-101092001I-2480090J-286421D01*
G01*
X241736836Y-102611784D02*
G75*
G03*
X236375000Y-101070000I-2976836J-258216D01*
G01*
X241151334Y-104664887D02*
G75*
G02*
X236200000Y-104414830I-2391334J1794887D01*
G01*
X240719086Y-104423056D02*
G75*
G02*
X236505316Y-103950000I-1959086J1553056D01*
G01*
X236200000Y-103169188D02*
X236200000Y-104415000D01*
X233620090Y-102583579D02*
G75*
G03*
X229387401Y-101092001I-2480090J-286421D01*
G01*
X234116836Y-102611784D02*
G75*
G03*
X228755000Y-101070000I-2976836J-258216D01*
G01*
X233531334Y-104664887D02*
G75*
G02*
X228580000Y-104414830I-2391334J1794887D01*
G01*
X233099086Y-104423056D02*
G75*
G02*
X228885316Y-103950000I-1959086J1553056D01*
G01*
X228580000Y-103169188D02*
X228580000Y-104415000D01*
X226000090Y-102583579D02*
G75*
G03*
X221767401Y-101092001I-2480090J-286421D01*
G01*
X226496836Y-102611784D02*
G75*
G03*
X221135000Y-101070000I-2976836J-258216D01*
G01*
X225911334Y-104664887D02*
G75*
G02*
X220960000Y-104414830I-2391334J1794887D01*
G01*
X225479086Y-104423056D02*
G75*
G02*
X221265316Y-103950000I-1959086J1553056D01*
G01*
X220960000Y-103169188D02*
X220960000Y-104415000D01*
X218380090Y-102583579D02*
G75*
G03*
X214147401Y-101092001I-2480090J-286421D01*
G01*
X218876836Y-102611784D02*
G75*
G03*
X213515000Y-101070000I-2976836J-258216D01*
G01*
X218291334Y-104664887D02*
G75*
G02*
X213340000Y-104414830I-2391334J1794887D01*
G01*
X217859086Y-104423056D02*
G75*
G02*
X213645316Y-103950000I-1959086J1553056D01*
G01*
X213340000Y-103169188D02*
X213340000Y-104415000D01*
X203140090Y-102583579D02*
G75*
G03*
X198907401Y-101092001I-2480090J-286421D01*
G01*
X203636836Y-102611784D02*
G75*
G03*
X198275000Y-101070000I-2976836J-258216D01*
G01*
X203051334Y-104664887D02*
G75*
G02*
X198100000Y-104414830I-2391334J1794887D01*
G01*
X202619086Y-104423056D02*
G75*
G02*
X198405316Y-103950000I-1959086J1553056D01*
G01*
X198100000Y-103169188D02*
X198100000Y-104415000D01*
X195520090Y-102583579D02*
G75*
G03*
X191287401Y-101092001I-2480090J-286421D01*
G01*
X196016836Y-102611784D02*
G75*
G03*
X190655000Y-101070000I-2976836J-258216D01*
G01*
X195431334Y-104664887D02*
G75*
G02*
X190480000Y-104414830I-2391334J1794887D01*
G01*
X194999086Y-104423056D02*
G75*
G02*
X190785316Y-103950000I-1959086J1553056D01*
G01*
X190480000Y-103169188D02*
X190480000Y-104415000D01*
X241240090Y-94963579D02*
G75*
G03*
X237007401Y-93472001I-2480090J-286421D01*
G01*
X241736836Y-94991784D02*
G75*
G03*
X236375000Y-93450000I-2976836J-258216D01*
G01*
X241151334Y-97044887D02*
G75*
G02*
X236200000Y-96794830I-2391334J1794887D01*
G01*
X240719086Y-96803056D02*
G75*
G02*
X236505316Y-96330000I-1959086J1553056D01*
G01*
X236200000Y-95549188D02*
X236200000Y-96795000D01*
X233620090Y-94963579D02*
G75*
G03*
X229387401Y-93472001I-2480090J-286421D01*
G01*
X234116836Y-94991784D02*
G75*
G03*
X228755000Y-93450000I-2976836J-258216D01*
G01*
X233531334Y-97044887D02*
G75*
G02*
X228580000Y-96794830I-2391334J1794887D01*
G01*
X233099086Y-96803056D02*
G75*
G02*
X228885316Y-96330000I-1959086J1553056D01*
G01*
X228580000Y-95549188D02*
X228580000Y-96795000D01*
X226000090Y-94963579D02*
G75*
G03*
X221767401Y-93472001I-2480090J-286421D01*
G01*
X226496836Y-94991784D02*
G75*
G03*
X221135000Y-93450000I-2976836J-258216D01*
G01*
X225911334Y-97044887D02*
G75*
G02*
X220960000Y-96794830I-2391334J1794887D01*
G01*
X225479086Y-96803056D02*
G75*
G02*
X221265316Y-96330000I-1959086J1553056D01*
G01*
X220960000Y-95549188D02*
X220960000Y-96795000D01*
X218380090Y-94963579D02*
G75*
G03*
X214147401Y-93472001I-2480090J-286421D01*
G01*
X218876836Y-94991784D02*
G75*
G03*
X213515000Y-93450000I-2976836J-258216D01*
G01*
X218291334Y-97044887D02*
G75*
G02*
X213340000Y-96794830I-2391334J1794887D01*
G01*
X217859086Y-96803056D02*
G75*
G02*
X213645316Y-96330000I-1959086J1553056D01*
G01*
X213340000Y-95549188D02*
X213340000Y-96795000D01*
X210760090Y-94963579D02*
G75*
G03*
X206527401Y-93472001I-2480090J-286421D01*
G01*
X211256836Y-94991784D02*
G75*
G03*
X205895000Y-93450000I-2976836J-258216D01*
G01*
X210671334Y-97044887D02*
G75*
G02*
X205720000Y-96794830I-2391334J1794887D01*
G01*
X210239086Y-96803056D02*
G75*
G02*
X206025316Y-96330000I-1959086J1553056D01*
G01*
X205720000Y-95549188D02*
X205720000Y-96795000D01*
X203140090Y-94963579D02*
G75*
G03*
X198907401Y-93472001I-2480090J-286421D01*
G01*
X203636836Y-94991784D02*
G75*
G03*
X198275000Y-93450000I-2976836J-258216D01*
G01*
X203051334Y-97044887D02*
G75*
G02*
X198100000Y-96794830I-2391334J1794887D01*
G01*
X202619086Y-96803056D02*
G75*
G02*
X198405316Y-96330000I-1959086J1553056D01*
G01*
X198100000Y-95549188D02*
X198100000Y-96795000D01*
X195520090Y-94963579D02*
G75*
G03*
X191287401Y-93472001I-2480090J-286421D01*
G01*
X196016836Y-94991784D02*
G75*
G03*
X190655000Y-93450000I-2976836J-258216D01*
G01*
X195431334Y-97044887D02*
G75*
G02*
X190480000Y-96794830I-2391334J1794887D01*
G01*
X194999086Y-96803056D02*
G75*
G02*
X190785316Y-96330000I-1959086J1553056D01*
G01*
X190480000Y-95549188D02*
X190480000Y-96795000D01*
X241240090Y-87343579D02*
G75*
G03*
X237007401Y-85852001I-2480090J-286421D01*
G01*
X241736836Y-87371784D02*
G75*
G03*
X236375000Y-85830000I-2976836J-258216D01*
G01*
X241151334Y-89424887D02*
G75*
G02*
X236200000Y-89174830I-2391334J1794887D01*
G01*
X240719086Y-89183056D02*
G75*
G02*
X236505316Y-88710000I-1959086J1553056D01*
G01*
X236200000Y-87929188D02*
X236200000Y-89175000D01*
X233620090Y-87343579D02*
G75*
G03*
X229387401Y-85852001I-2480090J-286421D01*
G01*
X234116836Y-87371784D02*
G75*
G03*
X228755000Y-85830000I-2976836J-258216D01*
G01*
X233531334Y-89424887D02*
G75*
G02*
X228580000Y-89174830I-2391334J1794887D01*
G01*
X233099086Y-89183056D02*
G75*
G02*
X228885316Y-88710000I-1959086J1553056D01*
G01*
X228580000Y-87929188D02*
X228580000Y-89175000D01*
X226000090Y-87343579D02*
G75*
G03*
X221767401Y-85852001I-2480090J-286421D01*
G01*
X226496836Y-87371784D02*
G75*
G03*
X221135000Y-85830000I-2976836J-258216D01*
G01*
X225911334Y-89424887D02*
G75*
G02*
X220960000Y-89174830I-2391334J1794887D01*
G01*
X225479086Y-89183056D02*
G75*
G02*
X221265316Y-88710000I-1959086J1553056D01*
G01*
X220960000Y-87929188D02*
X220960000Y-89175000D01*
X218380090Y-87343579D02*
G75*
G03*
X214147401Y-85852001I-2480090J-286421D01*
G01*
X218876836Y-87371784D02*
G75*
G03*
X213515000Y-85830000I-2976836J-258216D01*
G01*
X218291334Y-89424887D02*
G75*
G02*
X213340000Y-89174830I-2391334J1794887D01*
G01*
X217859086Y-89183056D02*
G75*
G02*
X213645316Y-88710000I-1959086J1553056D01*
G01*
X213340000Y-87929188D02*
X213340000Y-89175000D01*
X210760090Y-87343579D02*
G75*
G03*
X206527401Y-85852001I-2480090J-286421D01*
G01*
X211256836Y-87371784D02*
G75*
G03*
X205895000Y-85830000I-2976836J-258216D01*
G01*
X210671334Y-89424887D02*
G75*
G02*
X205720000Y-89174830I-2391334J1794887D01*
G01*
X210239086Y-89183056D02*
G75*
G02*
X206025316Y-88710000I-1959086J1553056D01*
G01*
X205720000Y-87929188D02*
X205720000Y-89175000D01*
X203140090Y-87343579D02*
G75*
G03*
X198907401Y-85852001I-2480090J-286421D01*
G01*
X203636836Y-87371784D02*
G75*
G03*
X198275000Y-85830000I-2976836J-258216D01*
G01*
X203051334Y-89424887D02*
G75*
G02*
X198100000Y-89174830I-2391334J1794887D01*
G01*
X202619086Y-89183056D02*
G75*
G02*
X198405316Y-88710000I-1959086J1553056D01*
G01*
X198100000Y-87929188D02*
X198100000Y-89175000D01*
X195520090Y-87343579D02*
G75*
G03*
X191287401Y-85852001I-2480090J-286421D01*
G01*
X196016836Y-87371784D02*
G75*
G03*
X190655000Y-85830000I-2976836J-258216D01*
G01*
X195431334Y-89424887D02*
G75*
G02*
X190480000Y-89174830I-2391334J1794887D01*
G01*
X194999086Y-89183056D02*
G75*
G02*
X190785316Y-88710000I-1959086J1553056D01*
G01*
X190480000Y-87929188D02*
X190480000Y-89175000D01*
X241240090Y-79723579D02*
G75*
G03*
X237007401Y-78232001I-2480090J-286421D01*
G01*
X241736836Y-79751784D02*
G75*
G03*
X236375000Y-78210000I-2976836J-258216D01*
G01*
X241151334Y-81804887D02*
G75*
G02*
X236200000Y-81554830I-2391334J1794887D01*
G01*
X240719086Y-81563056D02*
G75*
G02*
X236505316Y-81090000I-1959086J1553056D01*
G01*
X236200000Y-80309188D02*
X236200000Y-81555000D01*
X233620090Y-79723579D02*
G75*
G03*
X229387401Y-78232001I-2480090J-286421D01*
G01*
X234116836Y-79751784D02*
G75*
G03*
X228755000Y-78210000I-2976836J-258216D01*
G01*
X233531334Y-81804887D02*
G75*
G02*
X228580000Y-81554830I-2391334J1794887D01*
G01*
X233099086Y-81563056D02*
G75*
G02*
X228885316Y-81090000I-1959086J1553056D01*
G01*
X228580000Y-80309188D02*
X228580000Y-81555000D01*
X226000090Y-79723579D02*
G75*
G03*
X221767401Y-78232001I-2480090J-286421D01*
G01*
X226496836Y-79751784D02*
G75*
G03*
X221135000Y-78210000I-2976836J-258216D01*
G01*
X225911334Y-81804887D02*
G75*
G02*
X220960000Y-81554830I-2391334J1794887D01*
G01*
X225479086Y-81563056D02*
G75*
G02*
X221265316Y-81090000I-1959086J1553056D01*
G01*
X220960000Y-80309188D02*
X220960000Y-81555000D01*
X218380090Y-79723579D02*
G75*
G03*
X214147401Y-78232001I-2480090J-286421D01*
G01*
X218876836Y-79751784D02*
G75*
G03*
X213515000Y-78210000I-2976836J-258216D01*
G01*
X218291334Y-81804887D02*
G75*
G02*
X213340000Y-81554830I-2391334J1794887D01*
G01*
X217859086Y-81563056D02*
G75*
G02*
X213645316Y-81090000I-1959086J1553056D01*
G01*
X213340000Y-80309188D02*
X213340000Y-81555000D01*
X210760090Y-79723579D02*
G75*
G03*
X206527401Y-78232001I-2480090J-286421D01*
G01*
X211256836Y-79751784D02*
G75*
G03*
X205895000Y-78210000I-2976836J-258216D01*
G01*
X210671334Y-81804887D02*
G75*
G02*
X205720000Y-81554830I-2391334J1794887D01*
G01*
X210239086Y-81563056D02*
G75*
G02*
X206025316Y-81090000I-1959086J1553056D01*
G01*
X205720000Y-80309188D02*
X205720000Y-81555000D01*
X203140090Y-79723579D02*
G75*
G03*
X198907401Y-78232001I-2480090J-286421D01*
G01*
X203636836Y-79751784D02*
G75*
G03*
X198275000Y-78210000I-2976836J-258216D01*
G01*
X203051334Y-81804887D02*
G75*
G02*
X198100000Y-81554830I-2391334J1794887D01*
G01*
X202619086Y-81563056D02*
G75*
G02*
X198405316Y-81090000I-1959086J1553056D01*
G01*
X198100000Y-80309188D02*
X198100000Y-81555000D01*
X195520090Y-79723579D02*
G75*
G03*
X191287401Y-78232001I-2480090J-286421D01*
G01*
X196016836Y-79751784D02*
G75*
G03*
X190655000Y-78210000I-2976836J-258216D01*
G01*
X195431334Y-81804887D02*
G75*
G02*
X190480000Y-81554830I-2391334J1794887D01*
G01*
X194999086Y-81563056D02*
G75*
G02*
X190785316Y-81090000I-1959086J1553056D01*
G01*
X190480000Y-80309188D02*
X190480000Y-81555000D01*
X241240090Y-72103579D02*
G75*
G03*
X237007401Y-70612001I-2480090J-286421D01*
G01*
X241736836Y-72131784D02*
G75*
G03*
X236375000Y-70590000I-2976836J-258216D01*
G01*
X241151334Y-74184887D02*
G75*
G02*
X236200000Y-73934830I-2391334J1794887D01*
G01*
X240719086Y-73943056D02*
G75*
G02*
X236505316Y-73470000I-1959086J1553056D01*
G01*
X236200000Y-72689188D02*
X236200000Y-73935000D01*
X233620090Y-72103579D02*
G75*
G03*
X229387401Y-70612001I-2480090J-286421D01*
G01*
X234116836Y-72131784D02*
G75*
G03*
X228755000Y-70590000I-2976836J-258216D01*
G01*
X233531334Y-74184887D02*
G75*
G02*
X228580000Y-73934830I-2391334J1794887D01*
G01*
X233099086Y-73943056D02*
G75*
G02*
X228885316Y-73470000I-1959086J1553056D01*
G01*
X228580000Y-72689188D02*
X228580000Y-73935000D01*
X226000090Y-72103579D02*
G75*
G03*
X221767401Y-70612001I-2480090J-286421D01*
G01*
X226496836Y-72131784D02*
G75*
G03*
X221135000Y-70590000I-2976836J-258216D01*
G01*
X225911334Y-74184887D02*
G75*
G02*
X220960000Y-73934830I-2391334J1794887D01*
G01*
X225479086Y-73943056D02*
G75*
G02*
X221265316Y-73470000I-1959086J1553056D01*
G01*
X220960000Y-72689188D02*
X220960000Y-73935000D01*
X218380090Y-72103579D02*
G75*
G03*
X214147401Y-70612001I-2480090J-286421D01*
G01*
X218876836Y-72131784D02*
G75*
G03*
X213515000Y-70590000I-2976836J-258216D01*
G01*
X218291334Y-74184887D02*
G75*
G02*
X213340000Y-73934830I-2391334J1794887D01*
G01*
X217859086Y-73943056D02*
G75*
G02*
X213645316Y-73470000I-1959086J1553056D01*
G01*
X213340000Y-72689188D02*
X213340000Y-73935000D01*
X210760090Y-72103579D02*
G75*
G03*
X206527401Y-70612001I-2480090J-286421D01*
G01*
X211256836Y-72131784D02*
G75*
G03*
X205895000Y-70590000I-2976836J-258216D01*
G01*
X210671334Y-74184887D02*
G75*
G02*
X205720000Y-73934830I-2391334J1794887D01*
G01*
X210239086Y-73943056D02*
G75*
G02*
X206025316Y-73470000I-1959086J1553056D01*
G01*
X205720000Y-72689188D02*
X205720000Y-73935000D01*
X203140090Y-72103579D02*
G75*
G03*
X198907401Y-70612001I-2480090J-286421D01*
G01*
X203636836Y-72131784D02*
G75*
G03*
X198275000Y-70590000I-2976836J-258216D01*
G01*
X203051334Y-74184887D02*
G75*
G02*
X198100000Y-73934830I-2391334J1794887D01*
G01*
X202619086Y-73943056D02*
G75*
G02*
X198405316Y-73470000I-1959086J1553056D01*
G01*
X198100000Y-72689188D02*
X198100000Y-73935000D01*
X195520090Y-72103579D02*
G75*
G03*
X191287401Y-70612001I-2480090J-286421D01*
G01*
X196016836Y-72131784D02*
G75*
G03*
X190655000Y-70590000I-2976836J-258216D01*
G01*
X195431334Y-74184887D02*
G75*
G02*
X190480000Y-73934830I-2391334J1794887D01*
G01*
X194999086Y-73943056D02*
G75*
G02*
X190785316Y-73470000I-1959086J1553056D01*
G01*
X190480000Y-72689188D02*
X190480000Y-73935000D01*
X241240090Y-64483579D02*
G75*
G03*
X237007401Y-62992001I-2480090J-286421D01*
G01*
X241736836Y-64511784D02*
G75*
G03*
X236375000Y-62970000I-2976836J-258216D01*
G01*
X241151334Y-66564887D02*
G75*
G02*
X236200000Y-66314830I-2391334J1794887D01*
G01*
X240719086Y-66323056D02*
G75*
G02*
X236505316Y-65850000I-1959086J1553056D01*
G01*
X236200000Y-65069188D02*
X236200000Y-66315000D01*
X233620090Y-64483579D02*
G75*
G03*
X229387401Y-62992001I-2480090J-286421D01*
G01*
X234116836Y-64511784D02*
G75*
G03*
X228755000Y-62970000I-2976836J-258216D01*
G01*
X233531334Y-66564887D02*
G75*
G02*
X228580000Y-66314830I-2391334J1794887D01*
G01*
X233099086Y-66323056D02*
G75*
G02*
X228885316Y-65850000I-1959086J1553056D01*
G01*
X228580000Y-65069188D02*
X228580000Y-66315000D01*
X226000090Y-64483579D02*
G75*
G03*
X221767401Y-62992001I-2480090J-286421D01*
G01*
X226496836Y-64511784D02*
G75*
G03*
X221135000Y-62970000I-2976836J-258216D01*
G01*
X225911334Y-66564887D02*
G75*
G02*
X220960000Y-66314830I-2391334J1794887D01*
G01*
X225479086Y-66323056D02*
G75*
G02*
X221265316Y-65850000I-1959086J1553056D01*
G01*
X220960000Y-65069188D02*
X220960000Y-66315000D01*
X218380090Y-64483579D02*
G75*
G03*
X214147401Y-62992001I-2480090J-286421D01*
G01*
X218876836Y-64511784D02*
G75*
G03*
X213515000Y-62970000I-2976836J-258216D01*
G01*
X218291334Y-66564887D02*
G75*
G02*
X213340000Y-66314830I-2391334J1794887D01*
G01*
X217859086Y-66323056D02*
G75*
G02*
X213645316Y-65850000I-1959086J1553056D01*
G01*
X213340000Y-65069188D02*
X213340000Y-66315000D01*
X210760090Y-64483579D02*
G75*
G03*
X206527401Y-62992001I-2480090J-286421D01*
G01*
X211256836Y-64511784D02*
G75*
G03*
X205895000Y-62970000I-2976836J-258216D01*
G01*
X210671334Y-66564887D02*
G75*
G02*
X205720000Y-66314830I-2391334J1794887D01*
G01*
X210239086Y-66323056D02*
G75*
G02*
X206025316Y-65850000I-1959086J1553056D01*
G01*
X205720000Y-65069188D02*
X205720000Y-66315000D01*
X203140090Y-64483579D02*
G75*
G03*
X198907401Y-62992001I-2480090J-286421D01*
G01*
X203636836Y-64511784D02*
G75*
G03*
X198275000Y-62970000I-2976836J-258216D01*
G01*
X203051334Y-66564887D02*
G75*
G02*
X198100000Y-66314830I-2391334J1794887D01*
G01*
X202619086Y-66323056D02*
G75*
G02*
X198405316Y-65850000I-1959086J1553056D01*
G01*
X198100000Y-65069188D02*
X198100000Y-66315000D01*
X195520090Y-64483579D02*
G75*
G03*
X191287401Y-62992001I-2480090J-286421D01*
G01*
X196016836Y-64511784D02*
G75*
G03*
X190655000Y-62970000I-2976836J-258216D01*
G01*
X195431334Y-66564887D02*
G75*
G02*
X190480000Y-66314830I-2391334J1794887D01*
G01*
X194999086Y-66323056D02*
G75*
G02*
X190785316Y-65850000I-1959086J1553056D01*
G01*
X190480000Y-65069188D02*
X190480000Y-66315000D01*
M02*
