%FSLAX45Y45*%
G04 Gerber Fmt 4.5, Leading zero omitted, Abs format (unit mm)*
G04 Created by KiCad (PCBNEW (5.99.0-9618-g5ca7a2c457)) date 2021-03-10 22:29:11*
%MOMM*%
%LPD*%
G01*
G04 APERTURE LIST*
%TA.AperFunction,Profile*%
%ADD10C,0.100000*%
%TD*%
%ADD11C,0.200000*%
G04 APERTURE END LIST*
D10*
X24892000Y-10414000D02*
G75*
G02*
X24638000Y-10668000I-254000J0D01*
G01*
X18542000Y-10668000D02*
G75*
G02*
X18288000Y-10414000I0J254000D01*
G01*
X18288000Y-5334000D02*
G75*
G02*
X18542000Y-5080000I254000J0D01*
G01*
X24892000Y-5334000D02*
G75*
G03*
X24638000Y-5080000I-254000J0D01*
G01*
X18542000Y-10668000D02*
X24638000Y-10668000D01*
X24892000Y-10414000D02*
X24892000Y-5334000D01*
X24638000Y-5080000D02*
X18542000Y-5080000D01*
X18288000Y-5334000D02*
X18288000Y-10414000D01*
D11*
X18530619Y-10993476D02*
X18530619Y-10793476D01*
X18578238Y-10793476D01*
X18606810Y-10803000D01*
X18625857Y-10822048D01*
X18635381Y-10841095D01*
X18644905Y-10879190D01*
X18644905Y-10907762D01*
X18635381Y-10945857D01*
X18625857Y-10964905D01*
X18606810Y-10983952D01*
X18578238Y-10993476D01*
X18530619Y-10993476D01*
X18730619Y-10993476D02*
X18730619Y-10860143D01*
X18730619Y-10898238D02*
X18740143Y-10879190D01*
X18749667Y-10869667D01*
X18768714Y-10860143D01*
X18787762Y-10860143D01*
X18854429Y-10993476D02*
X18854429Y-10860143D01*
X18854429Y-10793476D02*
X18844905Y-10803000D01*
X18854429Y-10812524D01*
X18863952Y-10803000D01*
X18854429Y-10793476D01*
X18854429Y-10812524D01*
X18978238Y-10993476D02*
X18959190Y-10983952D01*
X18949667Y-10964905D01*
X18949667Y-10793476D01*
X19083000Y-10993476D02*
X19063952Y-10983952D01*
X19054429Y-10964905D01*
X19054429Y-10793476D01*
X19311571Y-10993476D02*
X19311571Y-10793476D01*
X19378238Y-10936333D01*
X19444905Y-10793476D01*
X19444905Y-10993476D01*
X19625857Y-10993476D02*
X19625857Y-10888714D01*
X19616333Y-10869667D01*
X19597286Y-10860143D01*
X19559190Y-10860143D01*
X19540143Y-10869667D01*
X19625857Y-10983952D02*
X19606810Y-10993476D01*
X19559190Y-10993476D01*
X19540143Y-10983952D01*
X19530619Y-10964905D01*
X19530619Y-10945857D01*
X19540143Y-10926810D01*
X19559190Y-10917286D01*
X19606810Y-10917286D01*
X19625857Y-10907762D01*
X19721095Y-10860143D02*
X19721095Y-11060143D01*
X19721095Y-10869667D02*
X19740143Y-10860143D01*
X19778238Y-10860143D01*
X19797286Y-10869667D01*
X19806810Y-10879190D01*
X19816333Y-10898238D01*
X19816333Y-10955381D01*
X19806810Y-10974429D01*
X19797286Y-10983952D01*
X19778238Y-10993476D01*
X19740143Y-10993476D01*
X19721095Y-10983952D01*
X19902048Y-10974429D02*
X19911571Y-10983952D01*
X19902048Y-10993476D01*
X19892524Y-10983952D01*
X19902048Y-10974429D01*
X19902048Y-10993476D01*
X19902048Y-10869667D02*
X19911571Y-10879190D01*
X19902048Y-10888714D01*
X19892524Y-10879190D01*
X19902048Y-10869667D01*
X19902048Y-10888714D01*
M02*
