G04 #@! TF.GenerationSoftware,KiCad,Pcbnew,(5.99.0-9618-g5ca7a2c457)*
G04 #@! TF.CreationDate,2021-03-10T22:29:09-05:00*
G04 #@! TF.ProjectId,PCB,5043422e-6b69-4636-9164-5f7063625858,rev?*
G04 #@! TF.SameCoordinates,Original*
G04 #@! TF.FileFunction,Soldermask,Top*
G04 #@! TF.FilePolarity,Negative*
%FSLAX46Y46*%
G04 Gerber Fmt 4.6, Leading zero omitted, Abs format (unit mm)*
G04 Created by KiCad (PCBNEW (5.99.0-9618-g5ca7a2c457)) date 2021-03-10 22:29:09*
%MOMM*%
%LPD*%
G01*
G04 APERTURE LIST*
G04 Aperture macros list*
%AMRoundRect*
0 Rectangle with rounded corners*
0 $1 Rounding radius*
0 $2 $3 $4 $5 $6 $7 $8 $9 X,Y pos of 4 corners*
0 Add a 4 corners polygon primitive as box body*
4,1,4,$2,$3,$4,$5,$6,$7,$8,$9,$2,$3,0*
0 Add four circle primitives for the rounded corners*
1,1,$1+$1,$2,$3*
1,1,$1+$1,$4,$5*
1,1,$1+$1,$6,$7*
1,1,$1+$1,$8,$9*
0 Add four rect primitives between the rounded corners*
20,1,$1+$1,$2,$3,$4,$5,0*
20,1,$1+$1,$4,$5,$6,$7,0*
20,1,$1+$1,$6,$7,$8,$9,0*
20,1,$1+$1,$8,$9,$2,$3,0*%
G04 Aperture macros list end*
%ADD10C,2.000000*%
%ADD11O,1.700000X1.700000*%
%ADD12R,1.700000X1.700000*%
%ADD13RoundRect,0.450000X-0.450000X-0.450000X0.450000X-0.450000X0.450000X0.450000X-0.450000X0.450000X0*%
%ADD14C,1.800000*%
G04 APERTURE END LIST*
D10*
X236800000Y-53190000D03*
X241300000Y-53190000D03*
X236800000Y-59690000D03*
X241300000Y-59690000D03*
X229083330Y-53190000D03*
X233583330Y-53190000D03*
X229083330Y-59690000D03*
X233583330Y-59690000D03*
X221366664Y-53190000D03*
X225866664Y-53190000D03*
X221366664Y-59690000D03*
X225866664Y-59690000D03*
X213649998Y-53190000D03*
X218149998Y-53190000D03*
X213649998Y-59690000D03*
X218149998Y-59690000D03*
X205933332Y-53190000D03*
X210433332Y-53190000D03*
X205933332Y-59690000D03*
X210433332Y-59690000D03*
X198216666Y-53190000D03*
X202716666Y-53190000D03*
X198216666Y-59690000D03*
X202716666Y-59690000D03*
X190500000Y-53190000D03*
X195000000Y-53190000D03*
X190500000Y-59690000D03*
X195000000Y-59690000D03*
D11*
X246380000Y-57150000D03*
X246380000Y-59690000D03*
X246380000Y-62230000D03*
X246380000Y-64770000D03*
X246380000Y-67310000D03*
X246380000Y-69850000D03*
X246380000Y-72390000D03*
X246380000Y-74930000D03*
X246380000Y-77470000D03*
X246380000Y-80010000D03*
X246380000Y-82550000D03*
X246380000Y-85090000D03*
X246380000Y-87630000D03*
X246380000Y-90170000D03*
X246380000Y-92710000D03*
X246380000Y-95250000D03*
X246380000Y-97790000D03*
D12*
X246380000Y-100330000D03*
D11*
X185420000Y-57150000D03*
X185420000Y-59690000D03*
X185420000Y-62230000D03*
X185420000Y-64770000D03*
X185420000Y-67310000D03*
X185420000Y-69850000D03*
X185420000Y-72390000D03*
X185420000Y-74930000D03*
X185420000Y-77470000D03*
X185420000Y-80010000D03*
X185420000Y-82550000D03*
X185420000Y-85090000D03*
X185420000Y-87630000D03*
X185420000Y-90170000D03*
X185420000Y-92710000D03*
X185420000Y-95250000D03*
X185420000Y-97790000D03*
D12*
X185420000Y-100330000D03*
D13*
X205867000Y-102108000D03*
D14*
X207645000Y-103632000D03*
X209169000Y-102108000D03*
X210693000Y-103632000D03*
D13*
X236347000Y-102108000D03*
D14*
X238125000Y-103632000D03*
X239649000Y-102108000D03*
X241173000Y-103632000D03*
D13*
X228727000Y-102108000D03*
D14*
X230505000Y-103632000D03*
X232029000Y-102108000D03*
X233553000Y-103632000D03*
D13*
X221107000Y-102108000D03*
D14*
X222885000Y-103632000D03*
X224409000Y-102108000D03*
X225933000Y-103632000D03*
D13*
X213487000Y-102108000D03*
D14*
X215265000Y-103632000D03*
X216789000Y-102108000D03*
X218313000Y-103632000D03*
D13*
X198247000Y-102108000D03*
D14*
X200025000Y-103632000D03*
X201549000Y-102108000D03*
X203073000Y-103632000D03*
D13*
X190627000Y-102108000D03*
D14*
X192405000Y-103632000D03*
X193929000Y-102108000D03*
X195453000Y-103632000D03*
D13*
X236347000Y-94488000D03*
D14*
X238125000Y-96012000D03*
X239649000Y-94488000D03*
X241173000Y-96012000D03*
D13*
X228727000Y-94488000D03*
D14*
X230505000Y-96012000D03*
X232029000Y-94488000D03*
X233553000Y-96012000D03*
D13*
X221107000Y-94488000D03*
D14*
X222885000Y-96012000D03*
X224409000Y-94488000D03*
X225933000Y-96012000D03*
D13*
X213487000Y-94488000D03*
D14*
X215265000Y-96012000D03*
X216789000Y-94488000D03*
X218313000Y-96012000D03*
D13*
X205867000Y-94488000D03*
D14*
X207645000Y-96012000D03*
X209169000Y-94488000D03*
X210693000Y-96012000D03*
D13*
X198247000Y-94488000D03*
D14*
X200025000Y-96012000D03*
X201549000Y-94488000D03*
X203073000Y-96012000D03*
D13*
X190627000Y-94488000D03*
D14*
X192405000Y-96012000D03*
X193929000Y-94488000D03*
X195453000Y-96012000D03*
D13*
X236347000Y-86868000D03*
D14*
X238125000Y-88392000D03*
X239649000Y-86868000D03*
X241173000Y-88392000D03*
D13*
X228727000Y-86868000D03*
D14*
X230505000Y-88392000D03*
X232029000Y-86868000D03*
X233553000Y-88392000D03*
D13*
X221107000Y-86868000D03*
D14*
X222885000Y-88392000D03*
X224409000Y-86868000D03*
X225933000Y-88392000D03*
D13*
X213487000Y-86868000D03*
D14*
X215265000Y-88392000D03*
X216789000Y-86868000D03*
X218313000Y-88392000D03*
D13*
X205867000Y-86868000D03*
D14*
X207645000Y-88392000D03*
X209169000Y-86868000D03*
X210693000Y-88392000D03*
D13*
X198247000Y-86868000D03*
D14*
X200025000Y-88392000D03*
X201549000Y-86868000D03*
X203073000Y-88392000D03*
D13*
X190627000Y-86868000D03*
D14*
X192405000Y-88392000D03*
X193929000Y-86868000D03*
X195453000Y-88392000D03*
D13*
X236347000Y-79248000D03*
D14*
X238125000Y-80772000D03*
X239649000Y-79248000D03*
X241173000Y-80772000D03*
D13*
X228727000Y-79248000D03*
D14*
X230505000Y-80772000D03*
X232029000Y-79248000D03*
X233553000Y-80772000D03*
D13*
X221107000Y-79248000D03*
D14*
X222885000Y-80772000D03*
X224409000Y-79248000D03*
X225933000Y-80772000D03*
D13*
X213487000Y-79248000D03*
D14*
X215265000Y-80772000D03*
X216789000Y-79248000D03*
X218313000Y-80772000D03*
D13*
X205867000Y-79248000D03*
D14*
X207645000Y-80772000D03*
X209169000Y-79248000D03*
X210693000Y-80772000D03*
D13*
X198247000Y-79248000D03*
D14*
X200025000Y-80772000D03*
X201549000Y-79248000D03*
X203073000Y-80772000D03*
D13*
X190627000Y-79248000D03*
D14*
X192405000Y-80772000D03*
X193929000Y-79248000D03*
X195453000Y-80772000D03*
D13*
X236347000Y-71628000D03*
D14*
X238125000Y-73152000D03*
X239649000Y-71628000D03*
X241173000Y-73152000D03*
D13*
X228727000Y-71628000D03*
D14*
X230505000Y-73152000D03*
X232029000Y-71628000D03*
X233553000Y-73152000D03*
D13*
X221107000Y-71628000D03*
D14*
X222885000Y-73152000D03*
X224409000Y-71628000D03*
X225933000Y-73152000D03*
D13*
X213487000Y-71628000D03*
D14*
X215265000Y-73152000D03*
X216789000Y-71628000D03*
X218313000Y-73152000D03*
D13*
X205867000Y-71628000D03*
D14*
X207645000Y-73152000D03*
X209169000Y-71628000D03*
X210693000Y-73152000D03*
D13*
X198247000Y-71628000D03*
D14*
X200025000Y-73152000D03*
X201549000Y-71628000D03*
X203073000Y-73152000D03*
D13*
X190627000Y-71628000D03*
D14*
X192405000Y-73152000D03*
X193929000Y-71628000D03*
X195453000Y-73152000D03*
D13*
X236347000Y-64008000D03*
D14*
X238125000Y-65532000D03*
X239649000Y-64008000D03*
X241173000Y-65532000D03*
D13*
X228727000Y-64008000D03*
D14*
X230505000Y-65532000D03*
X232029000Y-64008000D03*
X233553000Y-65532000D03*
D13*
X221107000Y-64008000D03*
D14*
X222885000Y-65532000D03*
X224409000Y-64008000D03*
X225933000Y-65532000D03*
D13*
X213487000Y-64008000D03*
D14*
X215265000Y-65532000D03*
X216789000Y-64008000D03*
X218313000Y-65532000D03*
D13*
X205867000Y-64008000D03*
D14*
X207645000Y-65532000D03*
X209169000Y-64008000D03*
X210693000Y-65532000D03*
D13*
X198247000Y-64008000D03*
D14*
X200025000Y-65532000D03*
X201549000Y-64008000D03*
X203073000Y-65532000D03*
D13*
X190627000Y-64008000D03*
D14*
X192405000Y-65532000D03*
X193929000Y-64008000D03*
X195453000Y-65532000D03*
M02*
