%FSLAX45Y45*%
G04 Gerber Fmt 4.5, Leading zero omitted, Abs format (unit mm)*
G04 Created by KiCad (PCBNEW (5.99.0-9618-g5ca7a2c457)) date 2021-03-10 22:29:11*
%MOMM*%
%LPD*%
G01*
G04 APERTURE LIST*
%TA.AperFunction,Profile*%
%ADD10C,0.100000*%
%TD*%
%ADD11C,0.200000*%
%ADD12C,0.033020*%
%ADD13C,0.090000*%
%ADD14C,0.100000*%
%ADD15C,0.110000*%
G04 APERTURE END LIST*
D10*
X24892000Y-10414000D02*
G75*
G02*
X24638000Y-10668000I-254000J0D01*
G01*
X18542000Y-10668000D02*
G75*
G02*
X18288000Y-10414000I0J254000D01*
G01*
X18288000Y-5334000D02*
G75*
G02*
X18542000Y-5080000I254000J0D01*
G01*
X24892000Y-5334000D02*
G75*
G03*
X24638000Y-5080000I-254000J0D01*
G01*
X18542000Y-10668000D02*
X24638000Y-10668000D01*
X24892000Y-10414000D02*
X24892000Y-5334000D01*
X24638000Y-5080000D02*
X18542000Y-5080000D01*
X18288000Y-5334000D02*
X18288000Y-10414000D01*
D11*
D12*
X18868390Y-7006590D02*
X18901410Y-7039610D01*
X18901410Y-7006590D02*
X18868390Y-7039610D01*
X19376390Y-10003790D02*
X19409410Y-10036810D01*
X19409410Y-10003790D02*
X19376390Y-10036810D01*
X19528790Y-9918060D02*
X19561810Y-9951080D01*
X19561810Y-9918060D02*
X19528790Y-9951080D01*
X19668490Y-6841490D02*
X19701510Y-6874510D01*
X19701510Y-6841490D02*
X19668490Y-6874510D01*
X20290790Y-9267190D02*
X20323810Y-9300210D01*
X20323810Y-9267190D02*
X20290790Y-9300210D01*
X20430490Y-6930390D02*
X20463510Y-6963410D01*
X20463510Y-6930390D02*
X20430490Y-6963410D01*
X21052790Y-8479790D02*
X21085810Y-8512810D01*
X21085810Y-8479790D02*
X21052790Y-8512810D01*
X21344890Y-5688961D02*
X21377910Y-5721981D01*
X21377910Y-5688961D02*
X21344890Y-5721981D01*
X21814790Y-9927590D02*
X21847810Y-9960610D01*
X21847810Y-9927590D02*
X21814790Y-9960610D01*
X22094190Y-9848220D02*
X22127210Y-9881240D01*
X22127210Y-9848220D02*
X22094190Y-9881240D01*
X22119590Y-5571490D02*
X22152610Y-5604510D01*
X22152610Y-5571490D02*
X22119590Y-5604510D01*
X22576790Y-9216390D02*
X22609810Y-9249410D01*
X22609810Y-9216390D02*
X22576790Y-9249410D01*
X22856190Y-9137020D02*
X22889210Y-9170040D01*
X22889210Y-9137020D02*
X22856190Y-9170040D01*
X23592790Y-10549890D02*
X23625810Y-10582910D01*
X23625810Y-10549890D02*
X23592790Y-10582910D01*
X24265890Y-9432290D02*
X24298910Y-9465310D01*
X24298910Y-9432290D02*
X24265890Y-9465310D01*
D13*
X19107700Y-6400800D02*
G75*
G03*
X19107700Y-6400800I-45000J0D01*
G01*
X19107700Y-7162800D02*
G75*
G03*
X19107700Y-7162800I-45000J0D01*
G01*
X19107700Y-7924800D02*
G75*
G03*
X19107700Y-7924800I-45000J0D01*
G01*
X19107700Y-8686800D02*
G75*
G03*
X19107700Y-8686800I-45000J0D01*
G01*
X19107700Y-9448800D02*
G75*
G03*
X19107700Y-9448800I-45000J0D01*
G01*
X19107700Y-10210800D02*
G75*
G03*
X19107700Y-10210800I-45000J0D01*
G01*
X19285500Y-6553200D02*
G75*
G03*
X19285500Y-6553200I-45000J0D01*
G01*
X19285500Y-7315200D02*
G75*
G03*
X19285500Y-7315200I-45000J0D01*
G01*
X19285500Y-8077200D02*
G75*
G03*
X19285500Y-8077200I-45000J0D01*
G01*
X19285500Y-8839200D02*
G75*
G03*
X19285500Y-8839200I-45000J0D01*
G01*
X19285500Y-9601200D02*
G75*
G03*
X19285500Y-9601200I-45000J0D01*
G01*
X19285500Y-10363200D02*
G75*
G03*
X19285500Y-10363200I-45000J0D01*
G01*
X19437900Y-6400800D02*
G75*
G03*
X19437900Y-6400800I-45000J0D01*
G01*
X19437900Y-7162800D02*
G75*
G03*
X19437900Y-7162800I-45000J0D01*
G01*
X19437900Y-7924800D02*
G75*
G03*
X19437900Y-7924800I-45000J0D01*
G01*
X19437900Y-8686800D02*
G75*
G03*
X19437900Y-8686800I-45000J0D01*
G01*
X19437900Y-9448800D02*
G75*
G03*
X19437900Y-9448800I-45000J0D01*
G01*
X19437900Y-10210800D02*
G75*
G03*
X19437900Y-10210800I-45000J0D01*
G01*
X19590300Y-6553200D02*
G75*
G03*
X19590300Y-6553200I-45000J0D01*
G01*
X19590300Y-7315200D02*
G75*
G03*
X19590300Y-7315200I-45000J0D01*
G01*
X19590300Y-8077200D02*
G75*
G03*
X19590300Y-8077200I-45000J0D01*
G01*
X19590300Y-8839200D02*
G75*
G03*
X19590300Y-8839200I-45000J0D01*
G01*
X19590300Y-9601200D02*
G75*
G03*
X19590300Y-9601200I-45000J0D01*
G01*
X19590300Y-10363200D02*
G75*
G03*
X19590300Y-10363200I-45000J0D01*
G01*
X19869700Y-6400800D02*
G75*
G03*
X19869700Y-6400800I-45000J0D01*
G01*
X19869700Y-7162800D02*
G75*
G03*
X19869700Y-7162800I-45000J0D01*
G01*
X19869700Y-7924800D02*
G75*
G03*
X19869700Y-7924800I-45000J0D01*
G01*
X19869700Y-8686800D02*
G75*
G03*
X19869700Y-8686800I-45000J0D01*
G01*
X19869700Y-9448800D02*
G75*
G03*
X19869700Y-9448800I-45000J0D01*
G01*
X19869700Y-10210800D02*
G75*
G03*
X19869700Y-10210800I-45000J0D01*
G01*
X20047500Y-6553200D02*
G75*
G03*
X20047500Y-6553200I-45000J0D01*
G01*
X20047500Y-7315200D02*
G75*
G03*
X20047500Y-7315200I-45000J0D01*
G01*
X20047500Y-8077200D02*
G75*
G03*
X20047500Y-8077200I-45000J0D01*
G01*
X20047500Y-8839200D02*
G75*
G03*
X20047500Y-8839200I-45000J0D01*
G01*
X20047500Y-9601200D02*
G75*
G03*
X20047500Y-9601200I-45000J0D01*
G01*
X20047500Y-10363200D02*
G75*
G03*
X20047500Y-10363200I-45000J0D01*
G01*
X20199900Y-6400800D02*
G75*
G03*
X20199900Y-6400800I-45000J0D01*
G01*
X20199900Y-7162800D02*
G75*
G03*
X20199900Y-7162800I-45000J0D01*
G01*
X20199900Y-7924800D02*
G75*
G03*
X20199900Y-7924800I-45000J0D01*
G01*
X20199900Y-8686800D02*
G75*
G03*
X20199900Y-8686800I-45000J0D01*
G01*
X20199900Y-9448800D02*
G75*
G03*
X20199900Y-9448800I-45000J0D01*
G01*
X20199900Y-10210800D02*
G75*
G03*
X20199900Y-10210800I-45000J0D01*
G01*
X20352300Y-6553200D02*
G75*
G03*
X20352300Y-6553200I-45000J0D01*
G01*
X20352300Y-7315200D02*
G75*
G03*
X20352300Y-7315200I-45000J0D01*
G01*
X20352300Y-8077200D02*
G75*
G03*
X20352300Y-8077200I-45000J0D01*
G01*
X20352300Y-8839200D02*
G75*
G03*
X20352300Y-8839200I-45000J0D01*
G01*
X20352300Y-9601200D02*
G75*
G03*
X20352300Y-9601200I-45000J0D01*
G01*
X20352300Y-10363200D02*
G75*
G03*
X20352300Y-10363200I-45000J0D01*
G01*
X20631700Y-6400800D02*
G75*
G03*
X20631700Y-6400800I-45000J0D01*
G01*
X20631700Y-7162800D02*
G75*
G03*
X20631700Y-7162800I-45000J0D01*
G01*
X20631700Y-7924800D02*
G75*
G03*
X20631700Y-7924800I-45000J0D01*
G01*
X20631700Y-8686800D02*
G75*
G03*
X20631700Y-8686800I-45000J0D01*
G01*
X20631700Y-9448800D02*
G75*
G03*
X20631700Y-9448800I-45000J0D01*
G01*
X20631700Y-10210800D02*
G75*
G03*
X20631700Y-10210800I-45000J0D01*
G01*
X20809500Y-6553200D02*
G75*
G03*
X20809500Y-6553200I-45000J0D01*
G01*
X20809500Y-7315200D02*
G75*
G03*
X20809500Y-7315200I-45000J0D01*
G01*
X20809500Y-8077200D02*
G75*
G03*
X20809500Y-8077200I-45000J0D01*
G01*
X20809500Y-8839200D02*
G75*
G03*
X20809500Y-8839200I-45000J0D01*
G01*
X20809500Y-9601200D02*
G75*
G03*
X20809500Y-9601200I-45000J0D01*
G01*
X20809500Y-10363200D02*
G75*
G03*
X20809500Y-10363200I-45000J0D01*
G01*
X20961900Y-6400800D02*
G75*
G03*
X20961900Y-6400800I-45000J0D01*
G01*
X20961900Y-7162800D02*
G75*
G03*
X20961900Y-7162800I-45000J0D01*
G01*
X20961900Y-7924800D02*
G75*
G03*
X20961900Y-7924800I-45000J0D01*
G01*
X20961900Y-8686800D02*
G75*
G03*
X20961900Y-8686800I-45000J0D01*
G01*
X20961900Y-9448800D02*
G75*
G03*
X20961900Y-9448800I-45000J0D01*
G01*
X20961900Y-10210800D02*
G75*
G03*
X20961900Y-10210800I-45000J0D01*
G01*
X21114300Y-6553200D02*
G75*
G03*
X21114300Y-6553200I-45000J0D01*
G01*
X21114300Y-7315200D02*
G75*
G03*
X21114300Y-7315200I-45000J0D01*
G01*
X21114300Y-8077200D02*
G75*
G03*
X21114300Y-8077200I-45000J0D01*
G01*
X21114300Y-8839200D02*
G75*
G03*
X21114300Y-8839200I-45000J0D01*
G01*
X21114300Y-9601200D02*
G75*
G03*
X21114300Y-9601200I-45000J0D01*
G01*
X21114300Y-10363200D02*
G75*
G03*
X21114300Y-10363200I-45000J0D01*
G01*
X21393700Y-6400800D02*
G75*
G03*
X21393700Y-6400800I-45000J0D01*
G01*
X21393700Y-7162800D02*
G75*
G03*
X21393700Y-7162800I-45000J0D01*
G01*
X21393700Y-7924800D02*
G75*
G03*
X21393700Y-7924800I-45000J0D01*
G01*
X21393700Y-8686800D02*
G75*
G03*
X21393700Y-8686800I-45000J0D01*
G01*
X21393700Y-9448800D02*
G75*
G03*
X21393700Y-9448800I-45000J0D01*
G01*
X21393700Y-10210800D02*
G75*
G03*
X21393700Y-10210800I-45000J0D01*
G01*
X21571500Y-6553200D02*
G75*
G03*
X21571500Y-6553200I-45000J0D01*
G01*
X21571500Y-7315200D02*
G75*
G03*
X21571500Y-7315200I-45000J0D01*
G01*
X21571500Y-8077200D02*
G75*
G03*
X21571500Y-8077200I-45000J0D01*
G01*
X21571500Y-8839200D02*
G75*
G03*
X21571500Y-8839200I-45000J0D01*
G01*
X21571500Y-9601200D02*
G75*
G03*
X21571500Y-9601200I-45000J0D01*
G01*
X21571500Y-10363200D02*
G75*
G03*
X21571500Y-10363200I-45000J0D01*
G01*
X21723900Y-6400800D02*
G75*
G03*
X21723900Y-6400800I-45000J0D01*
G01*
X21723900Y-7162800D02*
G75*
G03*
X21723900Y-7162800I-45000J0D01*
G01*
X21723900Y-7924800D02*
G75*
G03*
X21723900Y-7924800I-45000J0D01*
G01*
X21723900Y-8686800D02*
G75*
G03*
X21723900Y-8686800I-45000J0D01*
G01*
X21723900Y-9448800D02*
G75*
G03*
X21723900Y-9448800I-45000J0D01*
G01*
X21723900Y-10210800D02*
G75*
G03*
X21723900Y-10210800I-45000J0D01*
G01*
X21876300Y-6553200D02*
G75*
G03*
X21876300Y-6553200I-45000J0D01*
G01*
X21876300Y-7315200D02*
G75*
G03*
X21876300Y-7315200I-45000J0D01*
G01*
X21876300Y-8077200D02*
G75*
G03*
X21876300Y-8077200I-45000J0D01*
G01*
X21876300Y-8839200D02*
G75*
G03*
X21876300Y-8839200I-45000J0D01*
G01*
X21876300Y-9601200D02*
G75*
G03*
X21876300Y-9601200I-45000J0D01*
G01*
X21876300Y-10363200D02*
G75*
G03*
X21876300Y-10363200I-45000J0D01*
G01*
X22155700Y-6400800D02*
G75*
G03*
X22155700Y-6400800I-45000J0D01*
G01*
X22155700Y-7162800D02*
G75*
G03*
X22155700Y-7162800I-45000J0D01*
G01*
X22155700Y-7924800D02*
G75*
G03*
X22155700Y-7924800I-45000J0D01*
G01*
X22155700Y-8686800D02*
G75*
G03*
X22155700Y-8686800I-45000J0D01*
G01*
X22155700Y-9448800D02*
G75*
G03*
X22155700Y-9448800I-45000J0D01*
G01*
X22155700Y-10210800D02*
G75*
G03*
X22155700Y-10210800I-45000J0D01*
G01*
X22333500Y-6553200D02*
G75*
G03*
X22333500Y-6553200I-45000J0D01*
G01*
X22333500Y-7315200D02*
G75*
G03*
X22333500Y-7315200I-45000J0D01*
G01*
X22333500Y-8077200D02*
G75*
G03*
X22333500Y-8077200I-45000J0D01*
G01*
X22333500Y-8839200D02*
G75*
G03*
X22333500Y-8839200I-45000J0D01*
G01*
X22333500Y-9601200D02*
G75*
G03*
X22333500Y-9601200I-45000J0D01*
G01*
X22333500Y-10363200D02*
G75*
G03*
X22333500Y-10363200I-45000J0D01*
G01*
X22485900Y-6400800D02*
G75*
G03*
X22485900Y-6400800I-45000J0D01*
G01*
X22485900Y-7162800D02*
G75*
G03*
X22485900Y-7162800I-45000J0D01*
G01*
X22485900Y-7924800D02*
G75*
G03*
X22485900Y-7924800I-45000J0D01*
G01*
X22485900Y-8686800D02*
G75*
G03*
X22485900Y-8686800I-45000J0D01*
G01*
X22485900Y-9448800D02*
G75*
G03*
X22485900Y-9448800I-45000J0D01*
G01*
X22485900Y-10210800D02*
G75*
G03*
X22485900Y-10210800I-45000J0D01*
G01*
X22638300Y-6553200D02*
G75*
G03*
X22638300Y-6553200I-45000J0D01*
G01*
X22638300Y-7315200D02*
G75*
G03*
X22638300Y-7315200I-45000J0D01*
G01*
X22638300Y-8077200D02*
G75*
G03*
X22638300Y-8077200I-45000J0D01*
G01*
X22638300Y-8839200D02*
G75*
G03*
X22638300Y-8839200I-45000J0D01*
G01*
X22638300Y-9601200D02*
G75*
G03*
X22638300Y-9601200I-45000J0D01*
G01*
X22638300Y-10363200D02*
G75*
G03*
X22638300Y-10363200I-45000J0D01*
G01*
X22917700Y-6400800D02*
G75*
G03*
X22917700Y-6400800I-45000J0D01*
G01*
X22917700Y-7162800D02*
G75*
G03*
X22917700Y-7162800I-45000J0D01*
G01*
X22917700Y-7924800D02*
G75*
G03*
X22917700Y-7924800I-45000J0D01*
G01*
X22917700Y-8686800D02*
G75*
G03*
X22917700Y-8686800I-45000J0D01*
G01*
X22917700Y-9448800D02*
G75*
G03*
X22917700Y-9448800I-45000J0D01*
G01*
X22917700Y-10210800D02*
G75*
G03*
X22917700Y-10210800I-45000J0D01*
G01*
X23095500Y-6553200D02*
G75*
G03*
X23095500Y-6553200I-45000J0D01*
G01*
X23095500Y-7315200D02*
G75*
G03*
X23095500Y-7315200I-45000J0D01*
G01*
X23095500Y-8077200D02*
G75*
G03*
X23095500Y-8077200I-45000J0D01*
G01*
X23095500Y-8839200D02*
G75*
G03*
X23095500Y-8839200I-45000J0D01*
G01*
X23095500Y-9601200D02*
G75*
G03*
X23095500Y-9601200I-45000J0D01*
G01*
X23095500Y-10363200D02*
G75*
G03*
X23095500Y-10363200I-45000J0D01*
G01*
X23247900Y-6400800D02*
G75*
G03*
X23247900Y-6400800I-45000J0D01*
G01*
X23247900Y-7162800D02*
G75*
G03*
X23247900Y-7162800I-45000J0D01*
G01*
X23247900Y-7924800D02*
G75*
G03*
X23247900Y-7924800I-45000J0D01*
G01*
X23247900Y-8686800D02*
G75*
G03*
X23247900Y-8686800I-45000J0D01*
G01*
X23247900Y-9448800D02*
G75*
G03*
X23247900Y-9448800I-45000J0D01*
G01*
X23247900Y-10210800D02*
G75*
G03*
X23247900Y-10210800I-45000J0D01*
G01*
X23400300Y-6553200D02*
G75*
G03*
X23400300Y-6553200I-45000J0D01*
G01*
X23400300Y-7315200D02*
G75*
G03*
X23400300Y-7315200I-45000J0D01*
G01*
X23400300Y-8077200D02*
G75*
G03*
X23400300Y-8077200I-45000J0D01*
G01*
X23400300Y-8839200D02*
G75*
G03*
X23400300Y-8839200I-45000J0D01*
G01*
X23400300Y-9601200D02*
G75*
G03*
X23400300Y-9601200I-45000J0D01*
G01*
X23400300Y-10363200D02*
G75*
G03*
X23400300Y-10363200I-45000J0D01*
G01*
X23679700Y-6400800D02*
G75*
G03*
X23679700Y-6400800I-45000J0D01*
G01*
X23679700Y-7162800D02*
G75*
G03*
X23679700Y-7162800I-45000J0D01*
G01*
X23679700Y-7924800D02*
G75*
G03*
X23679700Y-7924800I-45000J0D01*
G01*
X23679700Y-8686800D02*
G75*
G03*
X23679700Y-8686800I-45000J0D01*
G01*
X23679700Y-9448800D02*
G75*
G03*
X23679700Y-9448800I-45000J0D01*
G01*
X23679700Y-10210800D02*
G75*
G03*
X23679700Y-10210800I-45000J0D01*
G01*
X23857500Y-6553200D02*
G75*
G03*
X23857500Y-6553200I-45000J0D01*
G01*
X23857500Y-7315200D02*
G75*
G03*
X23857500Y-7315200I-45000J0D01*
G01*
X23857500Y-8077200D02*
G75*
G03*
X23857500Y-8077200I-45000J0D01*
G01*
X23857500Y-8839200D02*
G75*
G03*
X23857500Y-8839200I-45000J0D01*
G01*
X23857500Y-9601200D02*
G75*
G03*
X23857500Y-9601200I-45000J0D01*
G01*
X23857500Y-10363200D02*
G75*
G03*
X23857500Y-10363200I-45000J0D01*
G01*
X24009900Y-6400800D02*
G75*
G03*
X24009900Y-6400800I-45000J0D01*
G01*
X24009900Y-7162800D02*
G75*
G03*
X24009900Y-7162800I-45000J0D01*
G01*
X24009900Y-7924800D02*
G75*
G03*
X24009900Y-7924800I-45000J0D01*
G01*
X24009900Y-8686800D02*
G75*
G03*
X24009900Y-8686800I-45000J0D01*
G01*
X24009900Y-9448800D02*
G75*
G03*
X24009900Y-9448800I-45000J0D01*
G01*
X24009900Y-10210800D02*
G75*
G03*
X24009900Y-10210800I-45000J0D01*
G01*
X24162300Y-6553200D02*
G75*
G03*
X24162300Y-6553200I-45000J0D01*
G01*
X24162300Y-7315200D02*
G75*
G03*
X24162300Y-7315200I-45000J0D01*
G01*
X24162300Y-8077200D02*
G75*
G03*
X24162300Y-8077200I-45000J0D01*
G01*
X24162300Y-8839200D02*
G75*
G03*
X24162300Y-8839200I-45000J0D01*
G01*
X24162300Y-9601200D02*
G75*
G03*
X24162300Y-9601200I-45000J0D01*
G01*
X24162300Y-10363200D02*
G75*
G03*
X24162300Y-10363200I-45000J0D01*
G01*
D14*
X18542000Y-5665000D02*
X18542000Y-5765000D01*
X18492000Y-5715000D02*
X18592000Y-5715000D01*
X18542000Y-5919000D02*
X18542000Y-6019000D01*
X18492000Y-5969000D02*
X18592000Y-5969000D01*
X18542000Y-6173000D02*
X18542000Y-6273000D01*
X18492000Y-6223000D02*
X18592000Y-6223000D01*
X18542000Y-6427000D02*
X18542000Y-6527000D01*
X18492000Y-6477000D02*
X18592000Y-6477000D01*
X18542000Y-6681000D02*
X18542000Y-6781000D01*
X18492000Y-6731000D02*
X18592000Y-6731000D01*
X18542000Y-6935000D02*
X18542000Y-7035000D01*
X18492000Y-6985000D02*
X18592000Y-6985000D01*
X18542000Y-7189000D02*
X18542000Y-7289000D01*
X18492000Y-7239000D02*
X18592000Y-7239000D01*
X18542000Y-7443000D02*
X18542000Y-7543000D01*
X18492000Y-7493000D02*
X18592000Y-7493000D01*
X18542000Y-7697000D02*
X18542000Y-7797000D01*
X18492000Y-7747000D02*
X18592000Y-7747000D01*
X18542000Y-7951000D02*
X18542000Y-8051000D01*
X18492000Y-8001000D02*
X18592000Y-8001000D01*
X18542000Y-8205000D02*
X18542000Y-8305000D01*
X18492000Y-8255000D02*
X18592000Y-8255000D01*
X18542000Y-8459000D02*
X18542000Y-8559000D01*
X18492000Y-8509000D02*
X18592000Y-8509000D01*
X18542000Y-8713000D02*
X18542000Y-8813000D01*
X18492000Y-8763000D02*
X18592000Y-8763000D01*
X18542000Y-8967000D02*
X18542000Y-9067000D01*
X18492000Y-9017000D02*
X18592000Y-9017000D01*
X18542000Y-9221000D02*
X18542000Y-9321000D01*
X18492000Y-9271000D02*
X18592000Y-9271000D01*
X18542000Y-9475000D02*
X18542000Y-9575000D01*
X18492000Y-9525000D02*
X18592000Y-9525000D01*
X18542000Y-9729000D02*
X18542000Y-9829000D01*
X18492000Y-9779000D02*
X18592000Y-9779000D01*
X18542000Y-9983000D02*
X18542000Y-10083000D01*
X18492000Y-10033000D02*
X18592000Y-10033000D01*
X24638000Y-5665000D02*
X24638000Y-5765000D01*
X24588000Y-5715000D02*
X24688000Y-5715000D01*
X24638000Y-5919000D02*
X24638000Y-6019000D01*
X24588000Y-5969000D02*
X24688000Y-5969000D01*
X24638000Y-6173000D02*
X24638000Y-6273000D01*
X24588000Y-6223000D02*
X24688000Y-6223000D01*
X24638000Y-6427000D02*
X24638000Y-6527000D01*
X24588000Y-6477000D02*
X24688000Y-6477000D01*
X24638000Y-6681000D02*
X24638000Y-6781000D01*
X24588000Y-6731000D02*
X24688000Y-6731000D01*
X24638000Y-6935000D02*
X24638000Y-7035000D01*
X24588000Y-6985000D02*
X24688000Y-6985000D01*
X24638000Y-7189000D02*
X24638000Y-7289000D01*
X24588000Y-7239000D02*
X24688000Y-7239000D01*
X24638000Y-7443000D02*
X24638000Y-7543000D01*
X24588000Y-7493000D02*
X24688000Y-7493000D01*
X24638000Y-7697000D02*
X24638000Y-7797000D01*
X24588000Y-7747000D02*
X24688000Y-7747000D01*
X24638000Y-7951000D02*
X24638000Y-8051000D01*
X24588000Y-8001000D02*
X24688000Y-8001000D01*
X24638000Y-8205000D02*
X24638000Y-8305000D01*
X24588000Y-8255000D02*
X24688000Y-8255000D01*
X24638000Y-8459000D02*
X24638000Y-8559000D01*
X24588000Y-8509000D02*
X24688000Y-8509000D01*
X24638000Y-8713000D02*
X24638000Y-8813000D01*
X24588000Y-8763000D02*
X24688000Y-8763000D01*
X24638000Y-8967000D02*
X24638000Y-9067000D01*
X24588000Y-9017000D02*
X24688000Y-9017000D01*
X24638000Y-9221000D02*
X24638000Y-9321000D01*
X24588000Y-9271000D02*
X24688000Y-9271000D01*
X24638000Y-9475000D02*
X24638000Y-9575000D01*
X24588000Y-9525000D02*
X24688000Y-9525000D01*
X24638000Y-9729000D02*
X24638000Y-9829000D01*
X24588000Y-9779000D02*
X24688000Y-9779000D01*
X24638000Y-9983000D02*
X24638000Y-10083000D01*
X24588000Y-10033000D02*
X24688000Y-10033000D01*
D15*
X19088891Y-5357891D02*
X19088891Y-5280109D01*
X19011109Y-5280109D01*
X19011109Y-5357891D01*
X19088891Y-5357891D01*
X19088891Y-6007891D02*
X19088891Y-5930109D01*
X19011109Y-5930109D01*
X19011109Y-6007891D01*
X19088891Y-6007891D01*
X19538891Y-5357891D02*
X19538891Y-5280109D01*
X19461109Y-5280109D01*
X19461109Y-5357891D01*
X19538891Y-5357891D01*
X19538891Y-6007891D02*
X19538891Y-5930109D01*
X19461109Y-5930109D01*
X19461109Y-6007891D01*
X19538891Y-6007891D01*
X19860558Y-5357891D02*
X19860558Y-5280109D01*
X19782775Y-5280109D01*
X19782775Y-5357891D01*
X19860558Y-5357891D01*
X19860558Y-6007891D02*
X19860558Y-5930109D01*
X19782775Y-5930109D01*
X19782775Y-6007891D01*
X19860558Y-6007891D01*
X20310558Y-5357891D02*
X20310558Y-5280109D01*
X20232775Y-5280109D01*
X20232775Y-5357891D01*
X20310558Y-5357891D01*
X20310558Y-6007891D02*
X20310558Y-5930109D01*
X20232775Y-5930109D01*
X20232775Y-6007891D01*
X20310558Y-6007891D01*
X20632224Y-5357891D02*
X20632224Y-5280109D01*
X20554442Y-5280109D01*
X20554442Y-5357891D01*
X20632224Y-5357891D01*
X20632224Y-6007891D02*
X20632224Y-5930109D01*
X20554442Y-5930109D01*
X20554442Y-6007891D01*
X20632224Y-6007891D01*
X21082224Y-5357891D02*
X21082224Y-5280109D01*
X21004442Y-5280109D01*
X21004442Y-5357891D01*
X21082224Y-5357891D01*
X21082224Y-6007891D02*
X21082224Y-5930109D01*
X21004442Y-5930109D01*
X21004442Y-6007891D01*
X21082224Y-6007891D01*
X21403891Y-5357891D02*
X21403891Y-5280109D01*
X21326109Y-5280109D01*
X21326109Y-5357891D01*
X21403891Y-5357891D01*
X21403891Y-6007891D02*
X21403891Y-5930109D01*
X21326109Y-5930109D01*
X21326109Y-6007891D01*
X21403891Y-6007891D01*
X21853891Y-5357891D02*
X21853891Y-5280109D01*
X21776109Y-5280109D01*
X21776109Y-5357891D01*
X21853891Y-5357891D01*
X21853891Y-6007891D02*
X21853891Y-5930109D01*
X21776109Y-5930109D01*
X21776109Y-6007891D01*
X21853891Y-6007891D01*
X22175558Y-5357891D02*
X22175558Y-5280109D01*
X22097775Y-5280109D01*
X22097775Y-5357891D01*
X22175558Y-5357891D01*
X22175558Y-6007891D02*
X22175558Y-5930109D01*
X22097775Y-5930109D01*
X22097775Y-6007891D01*
X22175558Y-6007891D01*
X22625558Y-5357891D02*
X22625558Y-5280109D01*
X22547775Y-5280109D01*
X22547775Y-5357891D01*
X22625558Y-5357891D01*
X22625558Y-6007891D02*
X22625558Y-5930109D01*
X22547775Y-5930109D01*
X22547775Y-6007891D01*
X22625558Y-6007891D01*
X22947224Y-5357891D02*
X22947224Y-5280109D01*
X22869442Y-5280109D01*
X22869442Y-5357891D01*
X22947224Y-5357891D01*
X22947224Y-6007891D02*
X22947224Y-5930109D01*
X22869442Y-5930109D01*
X22869442Y-6007891D01*
X22947224Y-6007891D01*
X23397224Y-5357891D02*
X23397224Y-5280109D01*
X23319442Y-5280109D01*
X23319442Y-5357891D01*
X23397224Y-5357891D01*
X23397224Y-6007891D02*
X23397224Y-5930109D01*
X23319442Y-5930109D01*
X23319442Y-6007891D01*
X23397224Y-6007891D01*
X23718891Y-5357891D02*
X23718891Y-5280109D01*
X23641109Y-5280109D01*
X23641109Y-5357891D01*
X23718891Y-5357891D01*
X23718891Y-6007891D02*
X23718891Y-5930109D01*
X23641109Y-5930109D01*
X23641109Y-6007891D01*
X23718891Y-6007891D01*
X24168891Y-5357891D02*
X24168891Y-5280109D01*
X24091109Y-5280109D01*
X24091109Y-5357891D01*
X24168891Y-5357891D01*
X24168891Y-6007891D02*
X24168891Y-5930109D01*
X24091109Y-5930109D01*
X24091109Y-6007891D01*
X24168891Y-6007891D01*
D11*
X18530619Y-10993476D02*
X18530619Y-10793476D01*
X18578238Y-10793476D01*
X18606810Y-10803000D01*
X18625857Y-10822048D01*
X18635381Y-10841095D01*
X18644905Y-10879190D01*
X18644905Y-10907762D01*
X18635381Y-10945857D01*
X18625857Y-10964905D01*
X18606810Y-10983952D01*
X18578238Y-10993476D01*
X18530619Y-10993476D01*
X18730619Y-10993476D02*
X18730619Y-10860143D01*
X18730619Y-10898238D02*
X18740143Y-10879190D01*
X18749667Y-10869667D01*
X18768714Y-10860143D01*
X18787762Y-10860143D01*
X18854429Y-10993476D02*
X18854429Y-10860143D01*
X18854429Y-10793476D02*
X18844905Y-10803000D01*
X18854429Y-10812524D01*
X18863952Y-10803000D01*
X18854429Y-10793476D01*
X18854429Y-10812524D01*
X18978238Y-10993476D02*
X18959190Y-10983952D01*
X18949667Y-10964905D01*
X18949667Y-10793476D01*
X19083000Y-10993476D02*
X19063952Y-10983952D01*
X19054429Y-10964905D01*
X19054429Y-10793476D01*
X19311571Y-10993476D02*
X19311571Y-10793476D01*
X19378238Y-10936333D01*
X19444905Y-10793476D01*
X19444905Y-10993476D01*
X19625857Y-10993476D02*
X19625857Y-10888714D01*
X19616333Y-10869667D01*
X19597286Y-10860143D01*
X19559190Y-10860143D01*
X19540143Y-10869667D01*
X19625857Y-10983952D02*
X19606810Y-10993476D01*
X19559190Y-10993476D01*
X19540143Y-10983952D01*
X19530619Y-10964905D01*
X19530619Y-10945857D01*
X19540143Y-10926810D01*
X19559190Y-10917286D01*
X19606810Y-10917286D01*
X19625857Y-10907762D01*
X19721095Y-10860143D02*
X19721095Y-11060143D01*
X19721095Y-10869667D02*
X19740143Y-10860143D01*
X19778238Y-10860143D01*
X19797286Y-10869667D01*
X19806810Y-10879190D01*
X19816333Y-10898238D01*
X19816333Y-10955381D01*
X19806810Y-10974429D01*
X19797286Y-10983952D01*
X19778238Y-10993476D01*
X19740143Y-10993476D01*
X19721095Y-10983952D01*
X19902048Y-10974429D02*
X19911571Y-10983952D01*
X19902048Y-10993476D01*
X19892524Y-10983952D01*
X19902048Y-10974429D01*
X19902048Y-10993476D01*
X19902048Y-10869667D02*
X19911571Y-10879190D01*
X19902048Y-10888714D01*
X19892524Y-10879190D01*
X19902048Y-10869667D01*
X19902048Y-10888714D01*
D12*
X18239980Y-11306490D02*
X18273000Y-11339510D01*
X18273000Y-11306490D02*
X18239980Y-11339510D01*
D11*
X18568714Y-11213476D02*
X18587762Y-11213476D01*
X18606810Y-11223000D01*
X18616333Y-11232524D01*
X18625857Y-11251571D01*
X18635381Y-11289667D01*
X18635381Y-11337286D01*
X18625857Y-11375381D01*
X18616333Y-11394428D01*
X18606810Y-11403952D01*
X18587762Y-11413476D01*
X18568714Y-11413476D01*
X18549667Y-11403952D01*
X18540143Y-11394428D01*
X18530619Y-11375381D01*
X18521095Y-11337286D01*
X18521095Y-11289667D01*
X18530619Y-11251571D01*
X18540143Y-11232524D01*
X18549667Y-11223000D01*
X18568714Y-11213476D01*
X18721095Y-11394428D02*
X18730619Y-11403952D01*
X18721095Y-11413476D01*
X18711571Y-11403952D01*
X18721095Y-11394428D01*
X18721095Y-11413476D01*
X18797286Y-11213476D02*
X18921095Y-11213476D01*
X18854429Y-11289667D01*
X18883000Y-11289667D01*
X18902048Y-11299190D01*
X18911571Y-11308714D01*
X18921095Y-11327762D01*
X18921095Y-11375381D01*
X18911571Y-11394428D01*
X18902048Y-11403952D01*
X18883000Y-11413476D01*
X18825857Y-11413476D01*
X18806810Y-11403952D01*
X18797286Y-11394428D01*
X18987762Y-11213476D02*
X19111571Y-11213476D01*
X19044905Y-11289667D01*
X19073476Y-11289667D01*
X19092524Y-11299190D01*
X19102048Y-11308714D01*
X19111571Y-11327762D01*
X19111571Y-11375381D01*
X19102048Y-11394428D01*
X19092524Y-11403952D01*
X19073476Y-11413476D01*
X19016333Y-11413476D01*
X18997286Y-11403952D01*
X18987762Y-11394428D01*
X19235381Y-11213476D02*
X19254429Y-11213476D01*
X19273476Y-11223000D01*
X19283000Y-11232524D01*
X19292524Y-11251571D01*
X19302048Y-11289667D01*
X19302048Y-11337286D01*
X19292524Y-11375381D01*
X19283000Y-11394428D01*
X19273476Y-11403952D01*
X19254429Y-11413476D01*
X19235381Y-11413476D01*
X19216333Y-11403952D01*
X19206810Y-11394428D01*
X19197286Y-11375381D01*
X19187762Y-11337286D01*
X19187762Y-11289667D01*
X19197286Y-11251571D01*
X19206810Y-11232524D01*
X19216333Y-11223000D01*
X19235381Y-11213476D01*
X19387762Y-11413476D02*
X19387762Y-11280143D01*
X19387762Y-11299190D02*
X19397286Y-11289667D01*
X19416333Y-11280143D01*
X19444905Y-11280143D01*
X19463952Y-11289667D01*
X19473476Y-11308714D01*
X19473476Y-11413476D01*
X19473476Y-11308714D02*
X19483000Y-11289667D01*
X19502048Y-11280143D01*
X19530619Y-11280143D01*
X19549667Y-11289667D01*
X19559190Y-11308714D01*
X19559190Y-11413476D01*
X19654429Y-11413476D02*
X19654429Y-11280143D01*
X19654429Y-11299190D02*
X19663952Y-11289667D01*
X19683000Y-11280143D01*
X19711571Y-11280143D01*
X19730619Y-11289667D01*
X19740143Y-11308714D01*
X19740143Y-11413476D01*
X19740143Y-11308714D02*
X19749667Y-11289667D01*
X19768714Y-11280143D01*
X19797286Y-11280143D01*
X19816333Y-11289667D01*
X19825857Y-11308714D01*
X19825857Y-11413476D01*
X20216333Y-11203952D02*
X20044905Y-11461095D01*
X20473476Y-11213476D02*
X20492524Y-11213476D01*
X20511571Y-11223000D01*
X20521095Y-11232524D01*
X20530619Y-11251571D01*
X20540143Y-11289667D01*
X20540143Y-11337286D01*
X20530619Y-11375381D01*
X20521095Y-11394428D01*
X20511571Y-11403952D01*
X20492524Y-11413476D01*
X20473476Y-11413476D01*
X20454429Y-11403952D01*
X20444905Y-11394428D01*
X20435381Y-11375381D01*
X20425857Y-11337286D01*
X20425857Y-11289667D01*
X20435381Y-11251571D01*
X20444905Y-11232524D01*
X20454429Y-11223000D01*
X20473476Y-11213476D01*
X20625857Y-11394428D02*
X20635381Y-11403952D01*
X20625857Y-11413476D01*
X20616333Y-11403952D01*
X20625857Y-11394428D01*
X20625857Y-11413476D01*
X20759190Y-11213476D02*
X20778238Y-11213476D01*
X20797286Y-11223000D01*
X20806810Y-11232524D01*
X20816333Y-11251571D01*
X20825857Y-11289667D01*
X20825857Y-11337286D01*
X20816333Y-11375381D01*
X20806810Y-11394428D01*
X20797286Y-11403952D01*
X20778238Y-11413476D01*
X20759190Y-11413476D01*
X20740143Y-11403952D01*
X20730619Y-11394428D01*
X20721095Y-11375381D01*
X20711571Y-11337286D01*
X20711571Y-11289667D01*
X20721095Y-11251571D01*
X20730619Y-11232524D01*
X20740143Y-11223000D01*
X20759190Y-11213476D01*
X21016333Y-11413476D02*
X20902048Y-11413476D01*
X20959190Y-11413476D02*
X20959190Y-11213476D01*
X20940143Y-11242048D01*
X20921095Y-11261095D01*
X20902048Y-11270619D01*
X21083000Y-11213476D02*
X21206810Y-11213476D01*
X21140143Y-11289667D01*
X21168714Y-11289667D01*
X21187762Y-11299190D01*
X21197286Y-11308714D01*
X21206810Y-11327762D01*
X21206810Y-11375381D01*
X21197286Y-11394428D01*
X21187762Y-11403952D01*
X21168714Y-11413476D01*
X21111571Y-11413476D01*
X21092524Y-11403952D01*
X21083000Y-11394428D01*
X21330619Y-11213476D02*
X21349667Y-11213476D01*
X21368714Y-11223000D01*
X21378238Y-11232524D01*
X21387762Y-11251571D01*
X21397286Y-11289667D01*
X21397286Y-11337286D01*
X21387762Y-11375381D01*
X21378238Y-11394428D01*
X21368714Y-11403952D01*
X21349667Y-11413476D01*
X21330619Y-11413476D01*
X21311571Y-11403952D01*
X21302048Y-11394428D01*
X21292524Y-11375381D01*
X21283000Y-11337286D01*
X21283000Y-11289667D01*
X21292524Y-11251571D01*
X21302048Y-11232524D01*
X21311571Y-11223000D01*
X21330619Y-11213476D01*
X21473476Y-11213476D02*
X21473476Y-11251571D01*
X21549667Y-11213476D02*
X21549667Y-11251571D01*
X21844905Y-11489667D02*
X21835381Y-11480143D01*
X21816333Y-11451571D01*
X21806810Y-11432524D01*
X21797286Y-11403952D01*
X21787762Y-11356333D01*
X21787762Y-11318238D01*
X21797286Y-11270619D01*
X21806810Y-11242048D01*
X21816333Y-11223000D01*
X21835381Y-11194428D01*
X21844905Y-11184905D01*
X22025857Y-11413476D02*
X21911571Y-11413476D01*
X21968714Y-11413476D02*
X21968714Y-11213476D01*
X21949667Y-11242048D01*
X21930619Y-11261095D01*
X21911571Y-11270619D01*
X22206810Y-11213476D02*
X22111571Y-11213476D01*
X22102048Y-11308714D01*
X22111571Y-11299190D01*
X22130619Y-11289667D01*
X22178238Y-11289667D01*
X22197286Y-11299190D01*
X22206810Y-11308714D01*
X22216333Y-11327762D01*
X22216333Y-11375381D01*
X22206810Y-11394428D01*
X22197286Y-11403952D01*
X22178238Y-11413476D01*
X22130619Y-11413476D01*
X22111571Y-11403952D01*
X22102048Y-11394428D01*
X22454428Y-11413476D02*
X22454428Y-11213476D01*
X22540143Y-11413476D02*
X22540143Y-11308714D01*
X22530619Y-11289667D01*
X22511571Y-11280143D01*
X22483000Y-11280143D01*
X22463952Y-11289667D01*
X22454428Y-11299190D01*
X22663952Y-11413476D02*
X22644905Y-11403952D01*
X22635381Y-11394428D01*
X22625857Y-11375381D01*
X22625857Y-11318238D01*
X22635381Y-11299190D01*
X22644905Y-11289667D01*
X22663952Y-11280143D01*
X22692524Y-11280143D01*
X22711571Y-11289667D01*
X22721095Y-11299190D01*
X22730619Y-11318238D01*
X22730619Y-11375381D01*
X22721095Y-11394428D01*
X22711571Y-11403952D01*
X22692524Y-11413476D01*
X22663952Y-11413476D01*
X22844905Y-11413476D02*
X22825857Y-11403952D01*
X22816333Y-11384905D01*
X22816333Y-11213476D01*
X22997286Y-11403952D02*
X22978238Y-11413476D01*
X22940143Y-11413476D01*
X22921095Y-11403952D01*
X22911571Y-11384905D01*
X22911571Y-11308714D01*
X22921095Y-11289667D01*
X22940143Y-11280143D01*
X22978238Y-11280143D01*
X22997286Y-11289667D01*
X23006809Y-11308714D01*
X23006809Y-11327762D01*
X22911571Y-11346809D01*
X23083000Y-11403952D02*
X23102048Y-11413476D01*
X23140143Y-11413476D01*
X23159190Y-11403952D01*
X23168714Y-11384905D01*
X23168714Y-11375381D01*
X23159190Y-11356333D01*
X23140143Y-11346809D01*
X23111571Y-11346809D01*
X23092524Y-11337286D01*
X23083000Y-11318238D01*
X23083000Y-11308714D01*
X23092524Y-11289667D01*
X23111571Y-11280143D01*
X23140143Y-11280143D01*
X23159190Y-11289667D01*
X23235381Y-11489667D02*
X23244905Y-11480143D01*
X23263952Y-11451571D01*
X23273476Y-11432524D01*
X23283000Y-11403952D01*
X23292524Y-11356333D01*
X23292524Y-11318238D01*
X23283000Y-11270619D01*
X23273476Y-11242048D01*
X23263952Y-11223000D01*
X23244905Y-11194428D01*
X23235381Y-11184905D01*
D13*
X18273000Y-11587000D02*
G75*
G03*
X18273000Y-11587000I-45000J0D01*
G01*
D11*
X18568714Y-11477476D02*
X18587762Y-11477476D01*
X18606810Y-11487000D01*
X18616333Y-11496524D01*
X18625857Y-11515571D01*
X18635381Y-11553667D01*
X18635381Y-11601286D01*
X18625857Y-11639381D01*
X18616333Y-11658428D01*
X18606810Y-11667952D01*
X18587762Y-11677476D01*
X18568714Y-11677476D01*
X18549667Y-11667952D01*
X18540143Y-11658428D01*
X18530619Y-11639381D01*
X18521095Y-11601286D01*
X18521095Y-11553667D01*
X18530619Y-11515571D01*
X18540143Y-11496524D01*
X18549667Y-11487000D01*
X18568714Y-11477476D01*
X18721095Y-11658428D02*
X18730619Y-11667952D01*
X18721095Y-11677476D01*
X18711571Y-11667952D01*
X18721095Y-11658428D01*
X18721095Y-11677476D01*
X18825857Y-11677476D02*
X18863952Y-11677476D01*
X18883000Y-11667952D01*
X18892524Y-11658428D01*
X18911571Y-11629857D01*
X18921095Y-11591762D01*
X18921095Y-11515571D01*
X18911571Y-11496524D01*
X18902048Y-11487000D01*
X18883000Y-11477476D01*
X18844905Y-11477476D01*
X18825857Y-11487000D01*
X18816333Y-11496524D01*
X18806810Y-11515571D01*
X18806810Y-11563190D01*
X18816333Y-11582238D01*
X18825857Y-11591762D01*
X18844905Y-11601286D01*
X18883000Y-11601286D01*
X18902048Y-11591762D01*
X18911571Y-11582238D01*
X18921095Y-11563190D01*
X19044905Y-11477476D02*
X19063952Y-11477476D01*
X19083000Y-11487000D01*
X19092524Y-11496524D01*
X19102048Y-11515571D01*
X19111571Y-11553667D01*
X19111571Y-11601286D01*
X19102048Y-11639381D01*
X19092524Y-11658428D01*
X19083000Y-11667952D01*
X19063952Y-11677476D01*
X19044905Y-11677476D01*
X19025857Y-11667952D01*
X19016333Y-11658428D01*
X19006810Y-11639381D01*
X18997286Y-11601286D01*
X18997286Y-11553667D01*
X19006810Y-11515571D01*
X19016333Y-11496524D01*
X19025857Y-11487000D01*
X19044905Y-11477476D01*
X19235381Y-11477476D02*
X19254429Y-11477476D01*
X19273476Y-11487000D01*
X19283000Y-11496524D01*
X19292524Y-11515571D01*
X19302048Y-11553667D01*
X19302048Y-11601286D01*
X19292524Y-11639381D01*
X19283000Y-11658428D01*
X19273476Y-11667952D01*
X19254429Y-11677476D01*
X19235381Y-11677476D01*
X19216333Y-11667952D01*
X19206810Y-11658428D01*
X19197286Y-11639381D01*
X19187762Y-11601286D01*
X19187762Y-11553667D01*
X19197286Y-11515571D01*
X19206810Y-11496524D01*
X19216333Y-11487000D01*
X19235381Y-11477476D01*
X19387762Y-11677476D02*
X19387762Y-11544143D01*
X19387762Y-11563190D02*
X19397286Y-11553667D01*
X19416333Y-11544143D01*
X19444905Y-11544143D01*
X19463952Y-11553667D01*
X19473476Y-11572714D01*
X19473476Y-11677476D01*
X19473476Y-11572714D02*
X19483000Y-11553667D01*
X19502048Y-11544143D01*
X19530619Y-11544143D01*
X19549667Y-11553667D01*
X19559190Y-11572714D01*
X19559190Y-11677476D01*
X19654429Y-11677476D02*
X19654429Y-11544143D01*
X19654429Y-11563190D02*
X19663952Y-11553667D01*
X19683000Y-11544143D01*
X19711571Y-11544143D01*
X19730619Y-11553667D01*
X19740143Y-11572714D01*
X19740143Y-11677476D01*
X19740143Y-11572714D02*
X19749667Y-11553667D01*
X19768714Y-11544143D01*
X19797286Y-11544143D01*
X19816333Y-11553667D01*
X19825857Y-11572714D01*
X19825857Y-11677476D01*
X20216333Y-11467952D02*
X20044905Y-11725095D01*
X20473476Y-11477476D02*
X20492524Y-11477476D01*
X20511571Y-11487000D01*
X20521095Y-11496524D01*
X20530619Y-11515571D01*
X20540143Y-11553667D01*
X20540143Y-11601286D01*
X20530619Y-11639381D01*
X20521095Y-11658428D01*
X20511571Y-11667952D01*
X20492524Y-11677476D01*
X20473476Y-11677476D01*
X20454429Y-11667952D01*
X20444905Y-11658428D01*
X20435381Y-11639381D01*
X20425857Y-11601286D01*
X20425857Y-11553667D01*
X20435381Y-11515571D01*
X20444905Y-11496524D01*
X20454429Y-11487000D01*
X20473476Y-11477476D01*
X20625857Y-11658428D02*
X20635381Y-11667952D01*
X20625857Y-11677476D01*
X20616333Y-11667952D01*
X20625857Y-11658428D01*
X20625857Y-11677476D01*
X20759190Y-11477476D02*
X20778238Y-11477476D01*
X20797286Y-11487000D01*
X20806810Y-11496524D01*
X20816333Y-11515571D01*
X20825857Y-11553667D01*
X20825857Y-11601286D01*
X20816333Y-11639381D01*
X20806810Y-11658428D01*
X20797286Y-11667952D01*
X20778238Y-11677476D01*
X20759190Y-11677476D01*
X20740143Y-11667952D01*
X20730619Y-11658428D01*
X20721095Y-11639381D01*
X20711571Y-11601286D01*
X20711571Y-11553667D01*
X20721095Y-11515571D01*
X20730619Y-11496524D01*
X20740143Y-11487000D01*
X20759190Y-11477476D01*
X20892524Y-11477476D02*
X21016333Y-11477476D01*
X20949667Y-11553667D01*
X20978238Y-11553667D01*
X20997286Y-11563190D01*
X21006810Y-11572714D01*
X21016333Y-11591762D01*
X21016333Y-11639381D01*
X21006810Y-11658428D01*
X20997286Y-11667952D01*
X20978238Y-11677476D01*
X20921095Y-11677476D01*
X20902048Y-11667952D01*
X20892524Y-11658428D01*
X21197286Y-11477476D02*
X21102048Y-11477476D01*
X21092524Y-11572714D01*
X21102048Y-11563190D01*
X21121095Y-11553667D01*
X21168714Y-11553667D01*
X21187762Y-11563190D01*
X21197286Y-11572714D01*
X21206810Y-11591762D01*
X21206810Y-11639381D01*
X21197286Y-11658428D01*
X21187762Y-11667952D01*
X21168714Y-11677476D01*
X21121095Y-11677476D01*
X21102048Y-11667952D01*
X21092524Y-11658428D01*
X21378238Y-11544143D02*
X21378238Y-11677476D01*
X21330619Y-11467952D02*
X21283000Y-11610809D01*
X21406810Y-11610809D01*
X21473476Y-11477476D02*
X21473476Y-11515571D01*
X21549667Y-11477476D02*
X21549667Y-11515571D01*
X21844905Y-11753667D02*
X21835381Y-11744143D01*
X21816333Y-11715571D01*
X21806810Y-11696524D01*
X21797286Y-11667952D01*
X21787762Y-11620333D01*
X21787762Y-11582238D01*
X21797286Y-11534619D01*
X21806810Y-11506048D01*
X21816333Y-11487000D01*
X21835381Y-11458428D01*
X21844905Y-11448905D01*
X22025857Y-11677476D02*
X21911571Y-11677476D01*
X21968714Y-11677476D02*
X21968714Y-11477476D01*
X21949667Y-11506048D01*
X21930619Y-11525095D01*
X21911571Y-11534619D01*
X22197286Y-11477476D02*
X22159190Y-11477476D01*
X22140143Y-11487000D01*
X22130619Y-11496524D01*
X22111571Y-11525095D01*
X22102048Y-11563190D01*
X22102048Y-11639381D01*
X22111571Y-11658428D01*
X22121095Y-11667952D01*
X22140143Y-11677476D01*
X22178238Y-11677476D01*
X22197286Y-11667952D01*
X22206810Y-11658428D01*
X22216333Y-11639381D01*
X22216333Y-11591762D01*
X22206810Y-11572714D01*
X22197286Y-11563190D01*
X22178238Y-11553667D01*
X22140143Y-11553667D01*
X22121095Y-11563190D01*
X22111571Y-11572714D01*
X22102048Y-11591762D01*
X22330619Y-11563190D02*
X22311571Y-11553667D01*
X22302048Y-11544143D01*
X22292524Y-11525095D01*
X22292524Y-11515571D01*
X22302048Y-11496524D01*
X22311571Y-11487000D01*
X22330619Y-11477476D01*
X22368714Y-11477476D01*
X22387762Y-11487000D01*
X22397286Y-11496524D01*
X22406809Y-11515571D01*
X22406809Y-11525095D01*
X22397286Y-11544143D01*
X22387762Y-11553667D01*
X22368714Y-11563190D01*
X22330619Y-11563190D01*
X22311571Y-11572714D01*
X22302048Y-11582238D01*
X22292524Y-11601286D01*
X22292524Y-11639381D01*
X22302048Y-11658428D01*
X22311571Y-11667952D01*
X22330619Y-11677476D01*
X22368714Y-11677476D01*
X22387762Y-11667952D01*
X22397286Y-11658428D01*
X22406809Y-11639381D01*
X22406809Y-11601286D01*
X22397286Y-11582238D01*
X22387762Y-11572714D01*
X22368714Y-11563190D01*
X22644905Y-11677476D02*
X22644905Y-11477476D01*
X22730619Y-11677476D02*
X22730619Y-11572714D01*
X22721095Y-11553667D01*
X22702048Y-11544143D01*
X22673476Y-11544143D01*
X22654428Y-11553667D01*
X22644905Y-11563190D01*
X22854428Y-11677476D02*
X22835381Y-11667952D01*
X22825857Y-11658428D01*
X22816333Y-11639381D01*
X22816333Y-11582238D01*
X22825857Y-11563190D01*
X22835381Y-11553667D01*
X22854428Y-11544143D01*
X22883000Y-11544143D01*
X22902048Y-11553667D01*
X22911571Y-11563190D01*
X22921095Y-11582238D01*
X22921095Y-11639381D01*
X22911571Y-11658428D01*
X22902048Y-11667952D01*
X22883000Y-11677476D01*
X22854428Y-11677476D01*
X23035381Y-11677476D02*
X23016333Y-11667952D01*
X23006809Y-11648905D01*
X23006809Y-11477476D01*
X23187762Y-11667952D02*
X23168714Y-11677476D01*
X23130619Y-11677476D01*
X23111571Y-11667952D01*
X23102048Y-11648905D01*
X23102048Y-11572714D01*
X23111571Y-11553667D01*
X23130619Y-11544143D01*
X23168714Y-11544143D01*
X23187762Y-11553667D01*
X23197286Y-11572714D01*
X23197286Y-11591762D01*
X23102048Y-11610809D01*
X23273476Y-11667952D02*
X23292524Y-11677476D01*
X23330619Y-11677476D01*
X23349667Y-11667952D01*
X23359190Y-11648905D01*
X23359190Y-11639381D01*
X23349667Y-11620333D01*
X23330619Y-11610809D01*
X23302048Y-11610809D01*
X23283000Y-11601286D01*
X23273476Y-11582238D01*
X23273476Y-11572714D01*
X23283000Y-11553667D01*
X23302048Y-11544143D01*
X23330619Y-11544143D01*
X23349667Y-11553667D01*
X23425857Y-11753667D02*
X23435381Y-11744143D01*
X23454428Y-11715571D01*
X23463952Y-11696524D01*
X23473476Y-11667952D01*
X23483000Y-11620333D01*
X23483000Y-11582238D01*
X23473476Y-11534619D01*
X23463952Y-11506048D01*
X23454428Y-11487000D01*
X23435381Y-11458428D01*
X23425857Y-11448905D01*
D14*
X18223000Y-11801000D02*
X18223000Y-11901000D01*
X18173000Y-11851000D02*
X18273000Y-11851000D01*
D11*
X18635381Y-11941476D02*
X18521095Y-11941476D01*
X18578238Y-11941476D02*
X18578238Y-11741476D01*
X18559190Y-11770048D01*
X18540143Y-11789095D01*
X18521095Y-11798619D01*
X18721095Y-11922428D02*
X18730619Y-11931952D01*
X18721095Y-11941476D01*
X18711571Y-11931952D01*
X18721095Y-11922428D01*
X18721095Y-11941476D01*
X18854429Y-11741476D02*
X18873476Y-11741476D01*
X18892524Y-11751000D01*
X18902048Y-11760524D01*
X18911571Y-11779571D01*
X18921095Y-11817667D01*
X18921095Y-11865286D01*
X18911571Y-11903381D01*
X18902048Y-11922428D01*
X18892524Y-11931952D01*
X18873476Y-11941476D01*
X18854429Y-11941476D01*
X18835381Y-11931952D01*
X18825857Y-11922428D01*
X18816333Y-11903381D01*
X18806810Y-11865286D01*
X18806810Y-11817667D01*
X18816333Y-11779571D01*
X18825857Y-11760524D01*
X18835381Y-11751000D01*
X18854429Y-11741476D01*
X19044905Y-11741476D02*
X19063952Y-11741476D01*
X19083000Y-11751000D01*
X19092524Y-11760524D01*
X19102048Y-11779571D01*
X19111571Y-11817667D01*
X19111571Y-11865286D01*
X19102048Y-11903381D01*
X19092524Y-11922428D01*
X19083000Y-11931952D01*
X19063952Y-11941476D01*
X19044905Y-11941476D01*
X19025857Y-11931952D01*
X19016333Y-11922428D01*
X19006810Y-11903381D01*
X18997286Y-11865286D01*
X18997286Y-11817667D01*
X19006810Y-11779571D01*
X19016333Y-11760524D01*
X19025857Y-11751000D01*
X19044905Y-11741476D01*
X19235381Y-11741476D02*
X19254429Y-11741476D01*
X19273476Y-11751000D01*
X19283000Y-11760524D01*
X19292524Y-11779571D01*
X19302048Y-11817667D01*
X19302048Y-11865286D01*
X19292524Y-11903381D01*
X19283000Y-11922428D01*
X19273476Y-11931952D01*
X19254429Y-11941476D01*
X19235381Y-11941476D01*
X19216333Y-11931952D01*
X19206810Y-11922428D01*
X19197286Y-11903381D01*
X19187762Y-11865286D01*
X19187762Y-11817667D01*
X19197286Y-11779571D01*
X19206810Y-11760524D01*
X19216333Y-11751000D01*
X19235381Y-11741476D01*
X19387762Y-11941476D02*
X19387762Y-11808143D01*
X19387762Y-11827190D02*
X19397286Y-11817667D01*
X19416333Y-11808143D01*
X19444905Y-11808143D01*
X19463952Y-11817667D01*
X19473476Y-11836714D01*
X19473476Y-11941476D01*
X19473476Y-11836714D02*
X19483000Y-11817667D01*
X19502048Y-11808143D01*
X19530619Y-11808143D01*
X19549667Y-11817667D01*
X19559190Y-11836714D01*
X19559190Y-11941476D01*
X19654429Y-11941476D02*
X19654429Y-11808143D01*
X19654429Y-11827190D02*
X19663952Y-11817667D01*
X19683000Y-11808143D01*
X19711571Y-11808143D01*
X19730619Y-11817667D01*
X19740143Y-11836714D01*
X19740143Y-11941476D01*
X19740143Y-11836714D02*
X19749667Y-11817667D01*
X19768714Y-11808143D01*
X19797286Y-11808143D01*
X19816333Y-11817667D01*
X19825857Y-11836714D01*
X19825857Y-11941476D01*
X20216333Y-11731952D02*
X20044905Y-11989095D01*
X20473476Y-11741476D02*
X20492524Y-11741476D01*
X20511571Y-11751000D01*
X20521095Y-11760524D01*
X20530619Y-11779571D01*
X20540143Y-11817667D01*
X20540143Y-11865286D01*
X20530619Y-11903381D01*
X20521095Y-11922428D01*
X20511571Y-11931952D01*
X20492524Y-11941476D01*
X20473476Y-11941476D01*
X20454429Y-11931952D01*
X20444905Y-11922428D01*
X20435381Y-11903381D01*
X20425857Y-11865286D01*
X20425857Y-11817667D01*
X20435381Y-11779571D01*
X20444905Y-11760524D01*
X20454429Y-11751000D01*
X20473476Y-11741476D01*
X20625857Y-11922428D02*
X20635381Y-11931952D01*
X20625857Y-11941476D01*
X20616333Y-11931952D01*
X20625857Y-11922428D01*
X20625857Y-11941476D01*
X20759190Y-11741476D02*
X20778238Y-11741476D01*
X20797286Y-11751000D01*
X20806810Y-11760524D01*
X20816333Y-11779571D01*
X20825857Y-11817667D01*
X20825857Y-11865286D01*
X20816333Y-11903381D01*
X20806810Y-11922428D01*
X20797286Y-11931952D01*
X20778238Y-11941476D01*
X20759190Y-11941476D01*
X20740143Y-11931952D01*
X20730619Y-11922428D01*
X20721095Y-11903381D01*
X20711571Y-11865286D01*
X20711571Y-11817667D01*
X20721095Y-11779571D01*
X20730619Y-11760524D01*
X20740143Y-11751000D01*
X20759190Y-11741476D01*
X20892524Y-11741476D02*
X21016333Y-11741476D01*
X20949667Y-11817667D01*
X20978238Y-11817667D01*
X20997286Y-11827190D01*
X21006810Y-11836714D01*
X21016333Y-11855762D01*
X21016333Y-11903381D01*
X21006810Y-11922428D01*
X20997286Y-11931952D01*
X20978238Y-11941476D01*
X20921095Y-11941476D01*
X20902048Y-11931952D01*
X20892524Y-11922428D01*
X21111571Y-11941476D02*
X21149667Y-11941476D01*
X21168714Y-11931952D01*
X21178238Y-11922428D01*
X21197286Y-11893857D01*
X21206810Y-11855762D01*
X21206810Y-11779571D01*
X21197286Y-11760524D01*
X21187762Y-11751000D01*
X21168714Y-11741476D01*
X21130619Y-11741476D01*
X21111571Y-11751000D01*
X21102048Y-11760524D01*
X21092524Y-11779571D01*
X21092524Y-11827190D01*
X21102048Y-11846238D01*
X21111571Y-11855762D01*
X21130619Y-11865286D01*
X21168714Y-11865286D01*
X21187762Y-11855762D01*
X21197286Y-11846238D01*
X21206810Y-11827190D01*
X21378238Y-11808143D02*
X21378238Y-11941476D01*
X21330619Y-11731952D02*
X21283000Y-11874809D01*
X21406810Y-11874809D01*
X21473476Y-11741476D02*
X21473476Y-11779571D01*
X21549667Y-11741476D02*
X21549667Y-11779571D01*
X21844905Y-12017667D02*
X21835381Y-12008143D01*
X21816333Y-11979571D01*
X21806810Y-11960524D01*
X21797286Y-11931952D01*
X21787762Y-11884333D01*
X21787762Y-11846238D01*
X21797286Y-11798619D01*
X21806810Y-11770048D01*
X21816333Y-11751000D01*
X21835381Y-11722428D01*
X21844905Y-11712905D01*
X21902048Y-11741476D02*
X22025857Y-11741476D01*
X21959190Y-11817667D01*
X21987762Y-11817667D01*
X22006810Y-11827190D01*
X22016333Y-11836714D01*
X22025857Y-11855762D01*
X22025857Y-11903381D01*
X22016333Y-11922428D01*
X22006810Y-11931952D01*
X21987762Y-11941476D01*
X21930619Y-11941476D01*
X21911571Y-11931952D01*
X21902048Y-11922428D01*
X22197286Y-11741476D02*
X22159190Y-11741476D01*
X22140143Y-11751000D01*
X22130619Y-11760524D01*
X22111571Y-11789095D01*
X22102048Y-11827190D01*
X22102048Y-11903381D01*
X22111571Y-11922428D01*
X22121095Y-11931952D01*
X22140143Y-11941476D01*
X22178238Y-11941476D01*
X22197286Y-11931952D01*
X22206810Y-11922428D01*
X22216333Y-11903381D01*
X22216333Y-11855762D01*
X22206810Y-11836714D01*
X22197286Y-11827190D01*
X22178238Y-11817667D01*
X22140143Y-11817667D01*
X22121095Y-11827190D01*
X22111571Y-11836714D01*
X22102048Y-11855762D01*
X22454428Y-11941476D02*
X22454428Y-11741476D01*
X22540143Y-11941476D02*
X22540143Y-11836714D01*
X22530619Y-11817667D01*
X22511571Y-11808143D01*
X22483000Y-11808143D01*
X22463952Y-11817667D01*
X22454428Y-11827190D01*
X22663952Y-11941476D02*
X22644905Y-11931952D01*
X22635381Y-11922428D01*
X22625857Y-11903381D01*
X22625857Y-11846238D01*
X22635381Y-11827190D01*
X22644905Y-11817667D01*
X22663952Y-11808143D01*
X22692524Y-11808143D01*
X22711571Y-11817667D01*
X22721095Y-11827190D01*
X22730619Y-11846238D01*
X22730619Y-11903381D01*
X22721095Y-11922428D01*
X22711571Y-11931952D01*
X22692524Y-11941476D01*
X22663952Y-11941476D01*
X22844905Y-11941476D02*
X22825857Y-11931952D01*
X22816333Y-11912905D01*
X22816333Y-11741476D01*
X22997286Y-11931952D02*
X22978238Y-11941476D01*
X22940143Y-11941476D01*
X22921095Y-11931952D01*
X22911571Y-11912905D01*
X22911571Y-11836714D01*
X22921095Y-11817667D01*
X22940143Y-11808143D01*
X22978238Y-11808143D01*
X22997286Y-11817667D01*
X23006809Y-11836714D01*
X23006809Y-11855762D01*
X22911571Y-11874809D01*
X23083000Y-11931952D02*
X23102048Y-11941476D01*
X23140143Y-11941476D01*
X23159190Y-11931952D01*
X23168714Y-11912905D01*
X23168714Y-11903381D01*
X23159190Y-11884333D01*
X23140143Y-11874809D01*
X23111571Y-11874809D01*
X23092524Y-11865286D01*
X23083000Y-11846238D01*
X23083000Y-11836714D01*
X23092524Y-11817667D01*
X23111571Y-11808143D01*
X23140143Y-11808143D01*
X23159190Y-11817667D01*
X23235381Y-12017667D02*
X23244905Y-12008143D01*
X23263952Y-11979571D01*
X23273476Y-11960524D01*
X23283000Y-11931952D01*
X23292524Y-11884333D01*
X23292524Y-11846238D01*
X23283000Y-11798619D01*
X23273476Y-11770048D01*
X23263952Y-11751000D01*
X23244905Y-11722428D01*
X23235381Y-11712905D01*
D15*
X18256891Y-12153891D02*
X18256891Y-12076109D01*
X18179109Y-12076109D01*
X18179109Y-12153891D01*
X18256891Y-12153891D01*
D11*
X18635381Y-12205476D02*
X18521095Y-12205476D01*
X18578238Y-12205476D02*
X18578238Y-12005476D01*
X18559190Y-12034048D01*
X18540143Y-12053095D01*
X18521095Y-12062619D01*
X18721095Y-12186428D02*
X18730619Y-12195952D01*
X18721095Y-12205476D01*
X18711571Y-12195952D01*
X18721095Y-12186428D01*
X18721095Y-12205476D01*
X18921095Y-12205476D02*
X18806810Y-12205476D01*
X18863952Y-12205476D02*
X18863952Y-12005476D01*
X18844905Y-12034048D01*
X18825857Y-12053095D01*
X18806810Y-12062619D01*
X19044905Y-12005476D02*
X19063952Y-12005476D01*
X19083000Y-12015000D01*
X19092524Y-12024524D01*
X19102048Y-12043571D01*
X19111571Y-12081667D01*
X19111571Y-12129286D01*
X19102048Y-12167381D01*
X19092524Y-12186428D01*
X19083000Y-12195952D01*
X19063952Y-12205476D01*
X19044905Y-12205476D01*
X19025857Y-12195952D01*
X19016333Y-12186428D01*
X19006810Y-12167381D01*
X18997286Y-12129286D01*
X18997286Y-12081667D01*
X19006810Y-12043571D01*
X19016333Y-12024524D01*
X19025857Y-12015000D01*
X19044905Y-12005476D01*
X19235381Y-12005476D02*
X19254429Y-12005476D01*
X19273476Y-12015000D01*
X19283000Y-12024524D01*
X19292524Y-12043571D01*
X19302048Y-12081667D01*
X19302048Y-12129286D01*
X19292524Y-12167381D01*
X19283000Y-12186428D01*
X19273476Y-12195952D01*
X19254429Y-12205476D01*
X19235381Y-12205476D01*
X19216333Y-12195952D01*
X19206810Y-12186428D01*
X19197286Y-12167381D01*
X19187762Y-12129286D01*
X19187762Y-12081667D01*
X19197286Y-12043571D01*
X19206810Y-12024524D01*
X19216333Y-12015000D01*
X19235381Y-12005476D01*
X19387762Y-12205476D02*
X19387762Y-12072143D01*
X19387762Y-12091190D02*
X19397286Y-12081667D01*
X19416333Y-12072143D01*
X19444905Y-12072143D01*
X19463952Y-12081667D01*
X19473476Y-12100714D01*
X19473476Y-12205476D01*
X19473476Y-12100714D02*
X19483000Y-12081667D01*
X19502048Y-12072143D01*
X19530619Y-12072143D01*
X19549667Y-12081667D01*
X19559190Y-12100714D01*
X19559190Y-12205476D01*
X19654429Y-12205476D02*
X19654429Y-12072143D01*
X19654429Y-12091190D02*
X19663952Y-12081667D01*
X19683000Y-12072143D01*
X19711571Y-12072143D01*
X19730619Y-12081667D01*
X19740143Y-12100714D01*
X19740143Y-12205476D01*
X19740143Y-12100714D02*
X19749667Y-12081667D01*
X19768714Y-12072143D01*
X19797286Y-12072143D01*
X19816333Y-12081667D01*
X19825857Y-12100714D01*
X19825857Y-12205476D01*
X20216333Y-11995952D02*
X20044905Y-12253095D01*
X20473476Y-12005476D02*
X20492524Y-12005476D01*
X20511571Y-12015000D01*
X20521095Y-12024524D01*
X20530619Y-12043571D01*
X20540143Y-12081667D01*
X20540143Y-12129286D01*
X20530619Y-12167381D01*
X20521095Y-12186428D01*
X20511571Y-12195952D01*
X20492524Y-12205476D01*
X20473476Y-12205476D01*
X20454429Y-12195952D01*
X20444905Y-12186428D01*
X20435381Y-12167381D01*
X20425857Y-12129286D01*
X20425857Y-12081667D01*
X20435381Y-12043571D01*
X20444905Y-12024524D01*
X20454429Y-12015000D01*
X20473476Y-12005476D01*
X20625857Y-12186428D02*
X20635381Y-12195952D01*
X20625857Y-12205476D01*
X20616333Y-12195952D01*
X20625857Y-12186428D01*
X20625857Y-12205476D01*
X20759190Y-12005476D02*
X20778238Y-12005476D01*
X20797286Y-12015000D01*
X20806810Y-12024524D01*
X20816333Y-12043571D01*
X20825857Y-12081667D01*
X20825857Y-12129286D01*
X20816333Y-12167381D01*
X20806810Y-12186428D01*
X20797286Y-12195952D01*
X20778238Y-12205476D01*
X20759190Y-12205476D01*
X20740143Y-12195952D01*
X20730619Y-12186428D01*
X20721095Y-12167381D01*
X20711571Y-12129286D01*
X20711571Y-12081667D01*
X20721095Y-12043571D01*
X20730619Y-12024524D01*
X20740143Y-12015000D01*
X20759190Y-12005476D01*
X20997286Y-12072143D02*
X20997286Y-12205476D01*
X20949667Y-11995952D02*
X20902048Y-12138809D01*
X21025857Y-12138809D01*
X21083000Y-12005476D02*
X21206810Y-12005476D01*
X21140143Y-12081667D01*
X21168714Y-12081667D01*
X21187762Y-12091190D01*
X21197286Y-12100714D01*
X21206810Y-12119762D01*
X21206810Y-12167381D01*
X21197286Y-12186428D01*
X21187762Y-12195952D01*
X21168714Y-12205476D01*
X21111571Y-12205476D01*
X21092524Y-12195952D01*
X21083000Y-12186428D01*
X21273476Y-12005476D02*
X21397286Y-12005476D01*
X21330619Y-12081667D01*
X21359190Y-12081667D01*
X21378238Y-12091190D01*
X21387762Y-12100714D01*
X21397286Y-12119762D01*
X21397286Y-12167381D01*
X21387762Y-12186428D01*
X21378238Y-12195952D01*
X21359190Y-12205476D01*
X21302048Y-12205476D01*
X21283000Y-12195952D01*
X21273476Y-12186428D01*
X21473476Y-12005476D02*
X21473476Y-12043571D01*
X21549667Y-12005476D02*
X21549667Y-12043571D01*
X21844905Y-12281667D02*
X21835381Y-12272143D01*
X21816333Y-12243571D01*
X21806810Y-12224524D01*
X21797286Y-12195952D01*
X21787762Y-12148333D01*
X21787762Y-12110238D01*
X21797286Y-12062619D01*
X21806810Y-12034048D01*
X21816333Y-12015000D01*
X21835381Y-11986428D01*
X21844905Y-11976905D01*
X21911571Y-12024524D02*
X21921095Y-12015000D01*
X21940143Y-12005476D01*
X21987762Y-12005476D01*
X22006810Y-12015000D01*
X22016333Y-12024524D01*
X22025857Y-12043571D01*
X22025857Y-12062619D01*
X22016333Y-12091190D01*
X21902048Y-12205476D01*
X22025857Y-12205476D01*
X22140143Y-12091190D02*
X22121095Y-12081667D01*
X22111571Y-12072143D01*
X22102048Y-12053095D01*
X22102048Y-12043571D01*
X22111571Y-12024524D01*
X22121095Y-12015000D01*
X22140143Y-12005476D01*
X22178238Y-12005476D01*
X22197286Y-12015000D01*
X22206810Y-12024524D01*
X22216333Y-12043571D01*
X22216333Y-12053095D01*
X22206810Y-12072143D01*
X22197286Y-12081667D01*
X22178238Y-12091190D01*
X22140143Y-12091190D01*
X22121095Y-12100714D01*
X22111571Y-12110238D01*
X22102048Y-12129286D01*
X22102048Y-12167381D01*
X22111571Y-12186428D01*
X22121095Y-12195952D01*
X22140143Y-12205476D01*
X22178238Y-12205476D01*
X22197286Y-12195952D01*
X22206810Y-12186428D01*
X22216333Y-12167381D01*
X22216333Y-12129286D01*
X22206810Y-12110238D01*
X22197286Y-12100714D01*
X22178238Y-12091190D01*
X22454428Y-12205476D02*
X22454428Y-12005476D01*
X22540143Y-12205476D02*
X22540143Y-12100714D01*
X22530619Y-12081667D01*
X22511571Y-12072143D01*
X22483000Y-12072143D01*
X22463952Y-12081667D01*
X22454428Y-12091190D01*
X22663952Y-12205476D02*
X22644905Y-12195952D01*
X22635381Y-12186428D01*
X22625857Y-12167381D01*
X22625857Y-12110238D01*
X22635381Y-12091190D01*
X22644905Y-12081667D01*
X22663952Y-12072143D01*
X22692524Y-12072143D01*
X22711571Y-12081667D01*
X22721095Y-12091190D01*
X22730619Y-12110238D01*
X22730619Y-12167381D01*
X22721095Y-12186428D01*
X22711571Y-12195952D01*
X22692524Y-12205476D01*
X22663952Y-12205476D01*
X22844905Y-12205476D02*
X22825857Y-12195952D01*
X22816333Y-12176905D01*
X22816333Y-12005476D01*
X22997286Y-12195952D02*
X22978238Y-12205476D01*
X22940143Y-12205476D01*
X22921095Y-12195952D01*
X22911571Y-12176905D01*
X22911571Y-12100714D01*
X22921095Y-12081667D01*
X22940143Y-12072143D01*
X22978238Y-12072143D01*
X22997286Y-12081667D01*
X23006809Y-12100714D01*
X23006809Y-12119762D01*
X22911571Y-12138809D01*
X23083000Y-12195952D02*
X23102048Y-12205476D01*
X23140143Y-12205476D01*
X23159190Y-12195952D01*
X23168714Y-12176905D01*
X23168714Y-12167381D01*
X23159190Y-12148333D01*
X23140143Y-12138809D01*
X23111571Y-12138809D01*
X23092524Y-12129286D01*
X23083000Y-12110238D01*
X23083000Y-12100714D01*
X23092524Y-12081667D01*
X23111571Y-12072143D01*
X23140143Y-12072143D01*
X23159190Y-12081667D01*
X23235381Y-12281667D02*
X23244905Y-12272143D01*
X23263952Y-12243571D01*
X23273476Y-12224524D01*
X23283000Y-12195952D01*
X23292524Y-12148333D01*
X23292524Y-12110238D01*
X23283000Y-12062619D01*
X23273476Y-12034048D01*
X23263952Y-12015000D01*
X23244905Y-11986428D01*
X23235381Y-11976905D01*
M02*
