G04 #@! TF.GenerationSoftware,KiCad,Pcbnew,(5.99.0-9618-g5ca7a2c457)*
G04 #@! TF.CreationDate,2021-03-10T22:29:08-05:00*
G04 #@! TF.ProjectId,PCB,5043422e-6b69-4636-9164-5f7063625858,rev?*
G04 #@! TF.SameCoordinates,Original*
G04 #@! TF.FileFunction,Copper,L2,Bot*
G04 #@! TF.FilePolarity,Positive*
%FSLAX46Y46*%
G04 Gerber Fmt 4.6, Leading zero omitted, Abs format (unit mm)*
G04 Created by KiCad (PCBNEW (5.99.0-9618-g5ca7a2c457)) date 2021-03-10 22:29:08*
%MOMM*%
%LPD*%
G01*
G04 APERTURE LIST*
G04 Aperture macros list*
%AMRoundRect*
0 Rectangle with rounded corners*
0 $1 Rounding radius*
0 $2 $3 $4 $5 $6 $7 $8 $9 X,Y pos of 4 corners*
0 Add a 4 corners polygon primitive as box body*
4,1,4,$2,$3,$4,$5,$6,$7,$8,$9,$2,$3,0*
0 Add four circle primitives for the rounded corners*
1,1,$1+$1,$2,$3*
1,1,$1+$1,$4,$5*
1,1,$1+$1,$6,$7*
1,1,$1+$1,$8,$9*
0 Add four rect primitives between the rounded corners*
20,1,$1+$1,$2,$3,$4,$5,0*
20,1,$1+$1,$4,$5,$6,$7,0*
20,1,$1+$1,$6,$7,$8,$9,0*
20,1,$1+$1,$8,$9,$2,$3,0*%
G04 Aperture macros list end*
G04 #@! TA.AperFunction,ComponentPad*
%ADD10C,2.000000*%
G04 #@! TD*
G04 #@! TA.AperFunction,ComponentPad*
%ADD11O,1.700000X1.700000*%
G04 #@! TD*
G04 #@! TA.AperFunction,ComponentPad*
%ADD12R,1.700000X1.700000*%
G04 #@! TD*
G04 #@! TA.AperFunction,ComponentPad*
%ADD13RoundRect,0.450000X-0.450000X-0.450000X0.450000X-0.450000X0.450000X0.450000X-0.450000X0.450000X0*%
G04 #@! TD*
G04 #@! TA.AperFunction,ComponentPad*
%ADD14C,1.800000*%
G04 #@! TD*
G04 #@! TA.AperFunction,ViaPad*
%ADD15C,0.812800*%
G04 #@! TD*
G04 #@! TA.AperFunction,Conductor*
%ADD16C,0.381000*%
G04 #@! TD*
G04 APERTURE END LIST*
D10*
X236800000Y-53190000D03*
X241300000Y-53190000D03*
X236800000Y-59690000D03*
X241300000Y-59690000D03*
X229083330Y-53190000D03*
X233583330Y-53190000D03*
X229083330Y-59690000D03*
X233583330Y-59690000D03*
X221366664Y-53190000D03*
X225866664Y-53190000D03*
X221366664Y-59690000D03*
X225866664Y-59690000D03*
X213649998Y-53190000D03*
X218149998Y-53190000D03*
X213649998Y-59690000D03*
X218149998Y-59690000D03*
X205933332Y-53190000D03*
X210433332Y-53190000D03*
X205933332Y-59690000D03*
X210433332Y-59690000D03*
X198216666Y-53190000D03*
X202716666Y-53190000D03*
X198216666Y-59690000D03*
X202716666Y-59690000D03*
X190500000Y-53190000D03*
X195000000Y-53190000D03*
X190500000Y-59690000D03*
X195000000Y-59690000D03*
D11*
X246380000Y-57150000D03*
X246380000Y-59690000D03*
X246380000Y-62230000D03*
X246380000Y-64770000D03*
X246380000Y-67310000D03*
X246380000Y-69850000D03*
X246380000Y-72390000D03*
X246380000Y-74930000D03*
X246380000Y-77470000D03*
X246380000Y-80010000D03*
X246380000Y-82550000D03*
X246380000Y-85090000D03*
X246380000Y-87630000D03*
X246380000Y-90170000D03*
X246380000Y-92710000D03*
X246380000Y-95250000D03*
X246380000Y-97790000D03*
D12*
X246380000Y-100330000D03*
D11*
X185420000Y-57150000D03*
X185420000Y-59690000D03*
X185420000Y-62230000D03*
X185420000Y-64770000D03*
X185420000Y-67310000D03*
X185420000Y-69850000D03*
X185420000Y-72390000D03*
X185420000Y-74930000D03*
X185420000Y-77470000D03*
X185420000Y-80010000D03*
X185420000Y-82550000D03*
X185420000Y-85090000D03*
X185420000Y-87630000D03*
X185420000Y-90170000D03*
X185420000Y-92710000D03*
X185420000Y-95250000D03*
X185420000Y-97790000D03*
D12*
X185420000Y-100330000D03*
D13*
X205867000Y-102108000D03*
D14*
X207645000Y-103632000D03*
X209169000Y-102108000D03*
X210693000Y-103632000D03*
D13*
X236347000Y-102108000D03*
D14*
X238125000Y-103632000D03*
X239649000Y-102108000D03*
X241173000Y-103632000D03*
D13*
X228727000Y-102108000D03*
D14*
X230505000Y-103632000D03*
X232029000Y-102108000D03*
X233553000Y-103632000D03*
D13*
X221107000Y-102108000D03*
D14*
X222885000Y-103632000D03*
X224409000Y-102108000D03*
X225933000Y-103632000D03*
D13*
X213487000Y-102108000D03*
D14*
X215265000Y-103632000D03*
X216789000Y-102108000D03*
X218313000Y-103632000D03*
D13*
X198247000Y-102108000D03*
D14*
X200025000Y-103632000D03*
X201549000Y-102108000D03*
X203073000Y-103632000D03*
D13*
X190627000Y-102108000D03*
D14*
X192405000Y-103632000D03*
X193929000Y-102108000D03*
X195453000Y-103632000D03*
D13*
X236347000Y-94488000D03*
D14*
X238125000Y-96012000D03*
X239649000Y-94488000D03*
X241173000Y-96012000D03*
D13*
X228727000Y-94488000D03*
D14*
X230505000Y-96012000D03*
X232029000Y-94488000D03*
X233553000Y-96012000D03*
D13*
X221107000Y-94488000D03*
D14*
X222885000Y-96012000D03*
X224409000Y-94488000D03*
X225933000Y-96012000D03*
D13*
X213487000Y-94488000D03*
D14*
X215265000Y-96012000D03*
X216789000Y-94488000D03*
X218313000Y-96012000D03*
D13*
X205867000Y-94488000D03*
D14*
X207645000Y-96012000D03*
X209169000Y-94488000D03*
X210693000Y-96012000D03*
D13*
X198247000Y-94488000D03*
D14*
X200025000Y-96012000D03*
X201549000Y-94488000D03*
X203073000Y-96012000D03*
D13*
X190627000Y-94488000D03*
D14*
X192405000Y-96012000D03*
X193929000Y-94488000D03*
X195453000Y-96012000D03*
D13*
X236347000Y-86868000D03*
D14*
X238125000Y-88392000D03*
X239649000Y-86868000D03*
X241173000Y-88392000D03*
D13*
X228727000Y-86868000D03*
D14*
X230505000Y-88392000D03*
X232029000Y-86868000D03*
X233553000Y-88392000D03*
D13*
X221107000Y-86868000D03*
D14*
X222885000Y-88392000D03*
X224409000Y-86868000D03*
X225933000Y-88392000D03*
D13*
X213487000Y-86868000D03*
D14*
X215265000Y-88392000D03*
X216789000Y-86868000D03*
X218313000Y-88392000D03*
D13*
X205867000Y-86868000D03*
D14*
X207645000Y-88392000D03*
X209169000Y-86868000D03*
X210693000Y-88392000D03*
D13*
X198247000Y-86868000D03*
D14*
X200025000Y-88392000D03*
X201549000Y-86868000D03*
X203073000Y-88392000D03*
D13*
X190627000Y-86868000D03*
D14*
X192405000Y-88392000D03*
X193929000Y-86868000D03*
X195453000Y-88392000D03*
D13*
X236347000Y-79248000D03*
D14*
X238125000Y-80772000D03*
X239649000Y-79248000D03*
X241173000Y-80772000D03*
D13*
X228727000Y-79248000D03*
D14*
X230505000Y-80772000D03*
X232029000Y-79248000D03*
X233553000Y-80772000D03*
D13*
X221107000Y-79248000D03*
D14*
X222885000Y-80772000D03*
X224409000Y-79248000D03*
X225933000Y-80772000D03*
D13*
X213487000Y-79248000D03*
D14*
X215265000Y-80772000D03*
X216789000Y-79248000D03*
X218313000Y-80772000D03*
D13*
X205867000Y-79248000D03*
D14*
X207645000Y-80772000D03*
X209169000Y-79248000D03*
X210693000Y-80772000D03*
D13*
X198247000Y-79248000D03*
D14*
X200025000Y-80772000D03*
X201549000Y-79248000D03*
X203073000Y-80772000D03*
D13*
X190627000Y-79248000D03*
D14*
X192405000Y-80772000D03*
X193929000Y-79248000D03*
X195453000Y-80772000D03*
D13*
X236347000Y-71628000D03*
D14*
X238125000Y-73152000D03*
X239649000Y-71628000D03*
X241173000Y-73152000D03*
D13*
X228727000Y-71628000D03*
D14*
X230505000Y-73152000D03*
X232029000Y-71628000D03*
X233553000Y-73152000D03*
D13*
X221107000Y-71628000D03*
D14*
X222885000Y-73152000D03*
X224409000Y-71628000D03*
X225933000Y-73152000D03*
D13*
X213487000Y-71628000D03*
D14*
X215265000Y-73152000D03*
X216789000Y-71628000D03*
X218313000Y-73152000D03*
D13*
X205867000Y-71628000D03*
D14*
X207645000Y-73152000D03*
X209169000Y-71628000D03*
X210693000Y-73152000D03*
D13*
X198247000Y-71628000D03*
D14*
X200025000Y-73152000D03*
X201549000Y-71628000D03*
X203073000Y-73152000D03*
D13*
X190627000Y-71628000D03*
D14*
X192405000Y-73152000D03*
X193929000Y-71628000D03*
X195453000Y-73152000D03*
D13*
X236347000Y-64008000D03*
D14*
X238125000Y-65532000D03*
X239649000Y-64008000D03*
X241173000Y-65532000D03*
D13*
X228727000Y-64008000D03*
D14*
X230505000Y-65532000D03*
X232029000Y-64008000D03*
X233553000Y-65532000D03*
D13*
X221107000Y-64008000D03*
D14*
X222885000Y-65532000D03*
X224409000Y-64008000D03*
X225933000Y-65532000D03*
D13*
X213487000Y-64008000D03*
D14*
X215265000Y-65532000D03*
X216789000Y-64008000D03*
X218313000Y-65532000D03*
D13*
X205867000Y-64008000D03*
D14*
X207645000Y-65532000D03*
X209169000Y-64008000D03*
X210693000Y-65532000D03*
D13*
X198247000Y-64008000D03*
D14*
X200025000Y-65532000D03*
X201549000Y-64008000D03*
X203073000Y-65532000D03*
D13*
X190627000Y-64008000D03*
D14*
X192405000Y-65532000D03*
X193929000Y-64008000D03*
X195453000Y-65532000D03*
D15*
X242824000Y-94488000D03*
X236093000Y-105664000D03*
X221107000Y-98647300D03*
X218313000Y-99441000D03*
X210693000Y-84963000D03*
X203073000Y-92837000D03*
X195453000Y-99345700D03*
X193929000Y-100203000D03*
X228727000Y-91535300D03*
X225933000Y-92329000D03*
X221361000Y-55880000D03*
X213614000Y-57054710D03*
X196850000Y-68580000D03*
X204470000Y-69469000D03*
X188849000Y-70231000D03*
D16*
X221107000Y-64008000D02*
X221107000Y-102108000D01*
X221361000Y-55880000D02*
X221361000Y-53269000D01*
X221361000Y-53269000D02*
X221282000Y-53190000D01*
X221361000Y-55880000D02*
X221361000Y-59611000D01*
X221361000Y-59611000D02*
X221282000Y-59690000D01*
X246380000Y-82550000D02*
X243840000Y-82550000D01*
X243840000Y-82550000D02*
X242824000Y-83566000D01*
X242824000Y-83566000D02*
X242824000Y-94488000D01*
X246380000Y-85090000D02*
X244348000Y-87122000D01*
X244348000Y-87122000D02*
X244348000Y-103759000D01*
X244348000Y-103759000D02*
X242443000Y-105664000D01*
X242443000Y-105664000D02*
X236093000Y-105664000D01*
X224409000Y-102108000D02*
X224409000Y-64008000D01*
X218313000Y-103632000D02*
X218313000Y-99441000D01*
X218313000Y-99441000D02*
X218313000Y-65532000D01*
X216789000Y-64008000D02*
X216789000Y-102108000D01*
X213487000Y-102108000D02*
X213487000Y-64008000D01*
X210693000Y-65532000D02*
X210693000Y-84963000D01*
X210693000Y-84963000D02*
X210693000Y-103632000D01*
X209169000Y-64008000D02*
X209169000Y-102108000D01*
X205867000Y-101208000D02*
X205867000Y-64008000D01*
X205867000Y-102108000D02*
X205867000Y-101208000D01*
X203073000Y-65532000D02*
X203073000Y-92837000D01*
X203073000Y-92837000D02*
X203073000Y-103632000D01*
X201549000Y-102108000D02*
X201549000Y-64008000D01*
X198247000Y-64008000D02*
X198247000Y-102108000D01*
X195453000Y-103632000D02*
X195453000Y-65532000D01*
X193929000Y-65141322D02*
X193929000Y-64008000D01*
X193929000Y-102108000D02*
X193929000Y-100203000D01*
X193929000Y-100203000D02*
X193929000Y-65141322D01*
X190627000Y-64008000D02*
X190627000Y-102108000D01*
X189727000Y-102108000D02*
X190627000Y-102108000D01*
X185967000Y-102108000D02*
X189727000Y-102108000D01*
X185420000Y-101561000D02*
X185967000Y-102108000D01*
X185420000Y-100330000D02*
X185420000Y-101561000D01*
X241173000Y-103632000D02*
X241173000Y-65532000D01*
X239649000Y-64008000D02*
X239649000Y-102108000D01*
X236347000Y-102108000D02*
X236347000Y-64008000D01*
X233553000Y-103632000D02*
X233553000Y-65532000D01*
X232029000Y-102108000D02*
X232029000Y-64008000D01*
X228727000Y-101208000D02*
X228727000Y-64008000D01*
X228727000Y-102108000D02*
X228727000Y-101208000D01*
X225933000Y-92202000D02*
X225933000Y-92329000D01*
X225933000Y-103632000D02*
X225933000Y-92329000D01*
X225933000Y-65532000D02*
X225933000Y-92202000D01*
X236800000Y-53317000D02*
X236673000Y-53190000D01*
X236800000Y-59563000D02*
X236800000Y-53317000D01*
X236673000Y-59690000D02*
X236800000Y-59563000D01*
X228977500Y-59690000D02*
X229083330Y-59690000D01*
X229083330Y-53295830D02*
X228977500Y-53190000D01*
X229083330Y-59690000D02*
X229083330Y-53295830D01*
X213586500Y-53190000D02*
X213614000Y-53217500D01*
X213614000Y-59662500D02*
X213614000Y-57054710D01*
X213586500Y-59690000D02*
X213614000Y-59662500D01*
X213614000Y-53217500D02*
X213614000Y-57054710D01*
X205933332Y-53232332D02*
X205891000Y-53190000D01*
X205933332Y-59647668D02*
X205933332Y-53232332D01*
X205891000Y-59690000D02*
X205933332Y-59647668D01*
X198216666Y-59668834D02*
X196850000Y-61035500D01*
X196850000Y-61035500D02*
X196850000Y-68580000D01*
X198216666Y-53211166D02*
X198216666Y-59668834D01*
X198195500Y-53190000D02*
X198216666Y-53211166D01*
X190500000Y-58275787D02*
X190500000Y-53190000D01*
X190500000Y-59690000D02*
X190500000Y-58275787D01*
X189500001Y-60689999D02*
X190500000Y-59690000D01*
X187960000Y-62230000D02*
X189500001Y-60689999D01*
X185420000Y-72390000D02*
X187960000Y-69850000D01*
X187960000Y-69850000D02*
X187960000Y-62230000D01*
X192628406Y-59690000D02*
X188849000Y-63469406D01*
X188849000Y-69665315D02*
X188849000Y-70231000D01*
X195000000Y-59690000D02*
X192628406Y-59690000D01*
X188849000Y-63469406D02*
X188849000Y-69665315D01*
X241300000Y-53317000D02*
X241173000Y-53190000D01*
X241300000Y-59563000D02*
X241300000Y-53317000D01*
X241173000Y-59690000D02*
X241300000Y-59563000D01*
X195000000Y-59690000D02*
X195000000Y-53190000D01*
X210433332Y-53232332D02*
X210391000Y-53190000D01*
X210433332Y-59647668D02*
X210433332Y-53232332D01*
X210391000Y-59690000D02*
X210433332Y-59647668D01*
X202695500Y-59690000D02*
X202695500Y-58275787D01*
X204470000Y-61464500D02*
X202695500Y-59690000D01*
X202695500Y-58275787D02*
X202695500Y-53190000D01*
X204470000Y-69469000D02*
X204470000Y-61464500D01*
X218149998Y-53253498D02*
X218086500Y-53190000D01*
X218149998Y-59626502D02*
X218149998Y-53253498D01*
X218086500Y-59690000D02*
X218149998Y-59626502D01*
X225866664Y-53274664D02*
X225782000Y-53190000D01*
X225866664Y-59690000D02*
X225866664Y-53274664D01*
X225782000Y-59690000D02*
X225866664Y-59690000D01*
X233583330Y-53295830D02*
X233477500Y-53190000D01*
X233583330Y-59584170D02*
X233583330Y-53295830D01*
X233477500Y-59690000D02*
X233583330Y-59584170D01*
M02*
