M48
; DRILL file {KiCad (5.1.5)-3} date 3/12/2020 5:38:15 PM
; FORMAT={-:-/ absolute / metric / decimal}
; #@! TF.CreationDate,2020-03-12T17:38:15-04:00
; #@! TF.GenerationSoftware,Kicad,Pcbnew,(5.1.5)-3
; #@! TF.FileFunction,Plated,1,2,PTH
FMAT,2
METRIC
T1C0.400
T2C0.800
T3C1.000
T4C1.001
T5C1.100
%
G90
G05
T1
X109.728Y-124.206
X112.522Y-107.188
X117.475Y-147.193
X119.38Y-107.188
X127.508Y-120.015
X128.409Y-135.255
X129.413Y-119.253
X130.302Y-130.937
X131.127Y-136.207
X131.953Y-145.161
X134.62Y-140.208
X134.62Y-142.748
X135.128Y-120.396
X135.509Y-139.319
X140.208Y-123.516
X140.97Y-124.333
X140.97Y-130.81
X141.224Y-122.809
X141.859Y-131.318
X142.61Y-130.164
X143.503Y-131.014
X144.272Y-106.68
X145.542Y-104.648
X146.812Y-106.68
X148.59Y-114.3
X148.59Y-127.127
X150.114Y-124.587
X151.13Y-113.411
X151.765Y-107.95
X153.416Y-116.332
X153.543Y-107.188
X154.305Y-115.697
X156.464Y-116.332
X156.591Y-113.665
X157.988Y-116.332
X157.988Y-129.032
T2
X110.49Y-115.57
X115.49Y-115.57
X160.02Y-137.795
X160.02Y-147.955
X111.125Y-122.555
X116.125Y-122.555
X125.73Y-103.505
X125.73Y-106.045
X125.73Y-108.585
X125.73Y-111.125
X125.73Y-113.665
X125.73Y-116.205
X125.73Y-118.745
X125.73Y-121.285
X125.73Y-123.825
X125.73Y-126.365
X125.73Y-128.905
X125.73Y-131.445
X125.73Y-133.985
X125.73Y-136.525
X133.35Y-103.505
X133.35Y-106.045
X133.35Y-108.585
X133.35Y-111.125
X133.35Y-113.665
X133.35Y-116.205
X133.35Y-118.745
X133.35Y-121.285
X133.35Y-123.825
X133.35Y-126.365
X133.35Y-128.905
X133.35Y-131.445
X133.35Y-133.985
X133.35Y-136.525
X137.668Y-130.81
X137.668Y-133.35
X137.668Y-135.89
X137.668Y-138.43
X137.668Y-140.97
X137.668Y-143.51
X137.668Y-146.05
X137.668Y-148.59
X145.288Y-130.81
X145.288Y-133.35
X145.288Y-135.89
X145.288Y-138.43
X145.288Y-140.97
X145.288Y-143.51
X145.288Y-146.05
X145.288Y-148.59
X111.76Y-130.81
X111.76Y-133.35
X111.76Y-135.89
X111.76Y-138.43
X111.76Y-140.97
X111.76Y-143.51
X111.76Y-146.05
X111.76Y-148.59
X119.38Y-130.81
X119.38Y-133.35
X119.38Y-135.89
X119.38Y-138.43
X119.38Y-140.97
X119.38Y-143.51
X119.38Y-146.05
X119.38Y-148.59
X160.02Y-109.855
X160.02Y-120.015
X160.02Y-123.825
X160.02Y-133.985
X153.67Y-109.855
X153.67Y-120.015
X153.67Y-137.795
X153.67Y-147.955
X153.67Y-123.825
X153.67Y-133.985
X111.125Y-125.73
X116.125Y-125.73
X120.904Y-119.634
X120.904Y-124.514
X137.922Y-108.966
X137.922Y-111.506
X137.922Y-114.046
X137.922Y-116.586
X137.922Y-119.126
X137.922Y-121.666
X137.922Y-124.206
X137.922Y-126.746
X145.542Y-108.966
X145.542Y-111.506
X145.542Y-114.046
X145.542Y-116.586
X145.542Y-119.126
X145.542Y-121.666
X145.542Y-124.206
X145.542Y-126.746
T3
X165.1Y-101.6
X165.1Y-104.14
X165.1Y-106.68
X165.1Y-109.22
X165.1Y-111.76
X165.1Y-114.3
X165.1Y-116.84
X165.1Y-119.38
X165.1Y-121.92
X165.1Y-124.46
X165.1Y-127.0
X165.1Y-129.54
X165.1Y-132.08
X165.1Y-134.62
X165.1Y-137.16
X165.1Y-139.7
X165.1Y-142.24
X165.1Y-144.78
X125.73Y-140.97
X125.73Y-143.51
X125.73Y-146.05
X128.27Y-140.97
X128.27Y-143.51
X128.27Y-146.05
X104.14Y-101.6
X104.14Y-104.14
X104.14Y-106.68
X104.14Y-109.22
X104.14Y-111.76
X104.14Y-114.3
X104.14Y-116.84
X104.14Y-119.38
X104.14Y-121.92
X104.14Y-124.46
X104.14Y-127.0
X104.14Y-129.54
X104.14Y-132.08
X104.14Y-134.62
X104.14Y-137.16
X104.14Y-139.7
X104.14Y-142.24
X104.14Y-144.78
T4
X127.508Y-97.536
X131.318Y-97.536
X160.528Y-98.552
X160.528Y-102.362
T5
X155.956Y-98.552
X155.956Y-101.092
X155.956Y-103.632
T0
M30
