<?xml version="1.0" standalone="no"?>
 <!DOCTYPE svg PUBLIC "-//W3C//DTD SVG 1.1//EN" 
 "http://www.w3.org/Graphics/SVG/1.1/DTD/svg11.dtd"> 
<svg
  xmlns:svg="http://www.w3.org/2000/svg"
  xmlns="http://www.w3.org/2000/svg"
  xmlns:xlink="http://www.w3.org/1999/xlink"
  version="1.1"
  width="11.684000cm" height="10.414000cm" viewBox="0 0 46000 41000">
<title>SVG Picture created as PCB-F_SilkS.svg date 2020/06/27 19:56:16 </title>
  <desc>Picture generated by PCBNEW </desc>
<g style="fill:#000000; fill-opacity:1;stroke:#000000; stroke-opacity:1;
stroke-linecap:round; stroke-linejoin:round;"
 transform="translate(0 0) scale(1 1)">
</g>
<g style="fill:#000000; fill-opacity:0.0; 
stroke:#000000; stroke-width:-0.000393701; stroke-opacity:1; 
stroke-linecap:round; stroke-linejoin:round;">
</g>
<g style="fill:#008484; fill-opacity:0.0; 
stroke:#008484; stroke-width:-0.000393701; stroke-opacity:1; 
stroke-linecap:round; stroke-linejoin:round;">
</g>
<g style="fill:#008484; fill-opacity:0.0; 
stroke:#008484; stroke-width:118.11; stroke-opacity:1; 
stroke-linecap:round; stroke-linejoin:round;">
<text x="13600" y="18090.9"
textLength="6878.45" font-size="1066.67" lengthAdjust="spacingAndGlyphs"
text-anchor="middle" opacity="0">Connect 4 </text>
<path d="M10857 17976
L10819 18014
L10704 18052
L10628 18052
L10514 18014
L10438 17938
L10400 17862
L10361 17709
L10361 17595
L10400 17443
L10438 17367
L10514 17290
L10628 17252
L10704 17252
L10819 17290
L10857 17329
" />
<path d="M11314 18052
L11238 18014
L11200 17976
L11161 17900
L11161 17671
L11200 17595
L11238 17557
L11314 17519
L11428 17519
L11504 17557
L11542 17595
L11580 17671
L11580 17900
L11542 17976
L11504 18014
L11428 18052
L11314 18052
" />
<path d="M11923 17519
L11923 18052
" />
<path d="M11923 17595
L11961 17557
L12038 17519
L12152 17519
L12228 17557
L12266 17633
L12266 18052
" />
<path d="M12647 17519
L12647 18052
" />
<path d="M12647 17595
L12685 17557
L12761 17519
L12876 17519
L12952 17557
L12990 17633
L12990 18052
" />
<path d="M13676 18014
L13600 18052
L13447 18052
L13371 18014
L13333 17938
L13333 17633
L13371 17557
L13447 17519
L13600 17519
L13676 17557
L13714 17633
L13714 17709
L13333 17786
" />
<path d="M14400 18014
L14323 18052
L14171 18052
L14095 18014
L14057 17976
L14019 17900
L14019 17671
L14057 17595
L14095 17557
L14171 17519
L14323 17519
L14400 17557
" />
<path d="M14628 17519
L14933 17519
" />
<path d="M14742 17252
L14742 17938
L14780 18014
L14857 18052
L14933 18052
" />
<path d="M16152 17519
L16152 18052
" />
<path d="M15961 17214
L15771 17786
L16266 17786
" />
<text x="13600" y="19409.1"
textLength="8039.26" font-size="1066.67" lengthAdjust="spacingAndGlyphs"
text-anchor="middle" opacity="0">Soldering Kit</text>
<path d="M9809 19332
L9923 19370
L10114 19370
L10190 19332
L10228 19294
L10266 19218
L10266 19142
L10228 19066
L10190 19028
L10114 18990
L9961 18951
L9885 18913
L9847 18875
L9809 18799
L9809 18723
L9847 18647
L9885 18609
L9961 18570
L10152 18570
L10266 18609
" />
<path d="M10723 19370
L10647 19332
L10609 19294
L10571 19218
L10571 18990
L10609 18913
L10647 18875
L10723 18837
L10838 18837
L10914 18875
L10952 18913
L10990 18990
L10990 19218
L10952 19294
L10914 19332
L10838 19370
L10723 19370
" />
<path d="M11447 19370
L11371 19332
L11333 19256
L11333 18570
" />
<path d="M12095 19370
L12095 18570
" />
<path d="M12095 19332
L12019 19370
L11866 19370
L11790 19332
L11752 19294
L11714 19218
L11714 18990
L11752 18913
L11790 18875
L11866 18837
L12019 18837
L12095 18875
" />
<path d="M12780 19332
L12704 19370
L12552 19370
L12476 19332
L12438 19256
L12438 18951
L12476 18875
L12552 18837
L12704 18837
L12780 18875
L12819 18951
L12819 19028
L12438 19104
" />
<path d="M13161 19370
L13161 18837
" />
<path d="M13161 18990
L13200 18913
L13238 18875
L13314 18837
L13390 18837
" />
<path d="M13657 19370
L13657 18837
" />
<path d="M13657 18570
L13619 18609
L13657 18647
L13695 18609
L13657 18570
L13657 18647
" />
<path d="M14038 18837
L14038 19370
" />
<path d="M14038 18913
L14076 18875
L14152 18837
L14266 18837
L14342 18875
L14380 18951
L14380 19370
" />
<path d="M15104 18837
L15104 19485
L15066 19561
L15028 19599
L14952 19637
L14838 19637
L14761 19599
" />
<path d="M15104 19332
L15028 19370
L14876 19370
L14800 19332
L14761 19294
L14723 19218
L14723 18990
L14761 18913
L14800 18875
L14876 18837
L15028 18837
L15104 18875
" />
<path d="M16095 19370
L16095 18570
" />
<path d="M16552 19370
L16209 18913
" />
<path d="M16552 18570
L16095 19028
" />
<path d="M16895 19370
L16895 18837
" />
<path d="M16895 18570
L16857 18609
L16895 18647
L16933 18609
L16895 18570
L16895 18647
" />
<path d="M17161 18837
L17466 18837
" />
<path d="M17276 18570
L17276 19256
L17314 19332
L17390 19370
L17466 19370
" />
</g>
<g style="fill:#008484; fill-opacity:1.0; 
stroke:#008484; stroke-width:3.93701; stroke-opacity:1; 
stroke-linecap:round; stroke-linejoin:round;">
<path style="fill:#008484; fill-opacity:1.0; 
stroke:#008484; stroke-width:3.93701; stroke-opacity:1; 
stroke-linecap:round; stroke-linejoin:round;fill-rule:evenodd;"
d="M 31161.6,10206.1
31396.7,10161.8
31464.1,9998.22
31531.5,9834.67
31398.1,9638.46
31361,9583.52
31327.8,9533.85
31300.1,9491.77
31279.5,9459.61
31267.3,9439.68
31264.7,9434.26
31271.4,9424.48
31290.1,9403.59
31318.2,9373.92
31353.4,9337.82
31393.4,9297.63
31435.8,9255.7
31478.1,9214.36
31518.1,9175.95
31553.3,9142.82
31581.4,9117.31
31599.9,9101.76
31606.1,9098.04
31617.6,9103.39
31642.6,9118.39
31678.9,9141.46
31723.8,9171.02
31775.1,9205.51
31804.3,9225.49
31857.6,9261.91
31905.8,9294.28
31946.3,9321.01
31976.9,9340.55
31995,9351.32
31998.8,9352.94
32009.7,9349.27
32034.9,9339.27
32071.1,9324.44
32114.5,9306.3
32161.7,9286.36
32209.1,9266.12
32253.2,9247.09
32290.4,9230.78
32317.2,9218.71
32330,9212.38
32330.5,9212
32332.9,9202.06
32338.4,9175.57
32346.3,9135.29
32356.1,9083.96
32367.4,9024.32
32373.8,8989.53
32386,8925.81
32397.5,8868.25
32407.8,8819.77
32416.3,8783.28
32422.3,8761.69
32424.2,8757.35
32437.1,8753.1
32466.1,8749.67
32508,8747.06
32559.2,8745.27
32616.5,8744.29
32676.3,8744.12
32735.4,8744.76
32790.2,8746.21
32837.5,8748.46
32873.8,8751.51
32895.6,8755.37
32900.2,8757.68
32905.7,8771.5
32913.5,8800.78
32922.7,8841.64
32932.4,8890.23
32935.6,8907.19
32950.6,8988.96
32962.6,9053.55
32972.3,9103.1
32979.9,9139.74
32986.1,9165.6
32991.3,9182.83
32996,9193.55
33000.6,9199.89
33001.5,9200.78
33016.3,9209.64
33045,9223.17
33084.2,9240
33130.3,9258.78
33179.8,9278.18
33229.2,9296.83
33275,9313.39
33313.7,9326.5
33341.7,9334.83
33355.5,9337.01
33356,9336.82
33367.3,9329.44
33392.1,9312.69
33427.9,9288.33
33472.1,9258.12
33522.1,9223.82
33536.4,9214.06
33587.9,9179.23
33634.9,9148.59
33674.7,9123.79
33704.6,9106.52
33721.8,9098.43
33723.9,9098.04
33735.1,9104.83
33757.2,9123.61
33787.8,9151.95
33824.7,9187.44
33865.4,9227.67
33907.5,9270.23
33948.7,9312.71
33986.5,9352.68
34018.7,9387.73
34042.9,9415.46
34056.6,9433.45
34058.8,9438.42
34053.6,9450
34039.3,9473.72
34018.6,9505.7
34001.8,9530.3
33971.2,9574.89
33935,9627.69
33899,9680.65
33879.7,9709.12
33814.5,9805.5
33858.2,9886.4
33877.4,9923.25
33892.3,9954.59
33900.8,9975.8
33902,9981.2
33893.2,9987.69
33868.6,10000.5
33830.2,10018.7
33780.5,10041.2
33721.7,10067.2
33656.1,10095.7
33585.8,10125.8
33513.3,10156.4
33440.8,10186.6
33370.6,10215.5
33304.9,10242.2
33246,10265.5
33196.2,10284.7
33157.7,10298.7
33132.9,10306.6
33124.4,10307.9
33113.6,10297.8
33095.9,10275.8
33075.2,10246.3
33073.5,10243.9
33012.6,10167.8
32941.6,10106.4
32862.6,10060.3
32778.1,10030.1
32690.2,10016.1
32601.3,10019
32513.6,10039.3
32429.3,10077.5
32410.9,10088.8
32336.5,10147.3
32276.7,10216.4
32231.9,10293.7
32202.4,10376.9
32188.5,10463.5
32190.5,10551.1
32208.7,10637.4
32243.4,10719.9
32295,10796.4
32315.9,10820
32381.4,10880.1
32450.4,10924
32527.7,10954
32604.2,10970.8
32690.3,10974.9
32776.8,10961.1
32860.8,10930.8
32939.4,10885.4
33009.6,10826.3
33068.6,10754.8
33074.8,10745.4
33095.2,10715.7
33112.8,10693.1
33124.1,10682.2
33124.4,10682.1
33136.6,10684.4
33164.2,10693.6
33205.1,10708.7
33256.8,10728.8
33317.2,10752.9
33384,10780.1
33454.9,10809.4
33527.6,10839.8
33599.8,10870.4
33669.3,10900.2
33733.8,10928.3
33791,10953.7
33838.7,10975.5
33874.5,10992.7
33896.2,11004.3
33902,11009
33897.5,11023.3
33885.6,11050.1
33868.3,11084.7
33858.2,11103.8
33814.5,11184.7
33879.7,11281.1
33913.1,11330.3
33949.8,11384.1
33984.4,11434.6
34001.8,11459.9
34025.7,11495.5
34044.6,11525.6
34056.2,11546.3
34058.7,11553
34052.1,11562.8
34033.6,11584.5
34005.3,11616
33969,11655.2
33926.6,11699.9
33899.3,11728.2
33850.7,11777.7
33807.2,11820.5
33770.7,11854.9
33743,11879
33726.1,11891.3
33722.6,11892.4
33709.6,11887
33683.1,11871.9
33646,11848.9
33600.9,11819.6
33550.4,11785.8
33536.4,11776.1
33485.2,11741
33439.2,11709.6
33400.9,11683.4
33372.8,11664.4
33357.5,11654.3
33356,11653.4
33343.8,11654.8
33317.2,11662.6
33279.5,11675.3
33234.3,11691.5
33185.1,11710
33135.4,11729.4
33088.8,11748.3
33048.7,11765.4
33018.7,11779.3
33002.3,11788.7
33001.5,11789.4
32996.9,11795.2
32992.2,11804.9
32987.2,11820.7
32981.2,11844.8
32973.8,11879.2
32964.6,11926.1
32953.1,11987.7
32938.7,12066
32935.6,12083
32925.9,12133.3
32916.4,12177.1
32908,12210.6
32901.7,12229.9
32900.2,12232.5
32887.1,12236.8
32857.9,12240.3
32815.9,12242.9
32764.6,12244.8
32707.3,12245.8
32647.4,12246.1
32588.4,12245.5
32533.6,12244.2
32486.4,12242
32450.3,12239
32428.6,12235.1
32424.2,12232.8
32419.7,12220
32412.5,12190.8
32403,12148.1
32392,12094.8
32380.1,12033.9
32373.8,12000.7
32362.1,11937.7
32351.4,11881.5
32342.4,11834.9
32335.5,11800.6
32331.4,11781.4
32330.5,11778.2
32320.2,11772.8
32295.3,11761.5
32259.4,11745.8
32216.1,11727
32168.9,11706.9
32121.3,11686.8
32077,11668.3
32039.5,11652.9
32012.3,11642.1
31999,11637.3
31998.4,11637.3
31987.9,11642.6
31963.7,11657.6
31928.2,11680.7
31883.9,11710.2
31833.1,11744.7
31803.9,11764.7
31750.4,11801.2
31701.9,11833.6
31660.7,11860.4
31629.3,11879.9
31610.3,11890.6
31606,11892.2
31596.1,11885.5
31574.9,11867.2
31544.7,11839.5
31508.1,11804.7
31467.3,11765.3
31424.7,11723.6
31382.7,11681.8
31343.8,11642.5
31310.1,11607.8
31284.2,11580.1
31268.5,11561.8
31264.7,11555.7
31270,11545.8
31284.9,11522
31307.8,11486.6
31337.3,11442
31371.8,11390.6
31398.1,11351.7
31531.5,11155.5
31464.1,10992
31396.7,10828.4
31161.6,10784.1
30926.5,10739.8
30926.5,10250.4
Z" /> 
</g>
<g style="fill:#008484; fill-opacity:1.0; 
stroke:#008484; stroke-width:47.2441; stroke-opacity:1; 
stroke-linecap:round; stroke-linejoin:round;">
</g>
<g style="fill:#008484; fill-opacity:0.0; 
stroke:#008484; stroke-width:47.2441; stroke-opacity:1; 
stroke-linecap:round; stroke-linejoin:round;">
<path d="M27393 11500
L26393 11500
" />
<path d="M27393 10500
L26393 10500
" />
<path d="M27393 9500
L26393 9500
" />
<path d="M33649 12515
L27393 12515
" />
<path d="M33649 8484
L27393 8484
" />
<path d="M33649 8484
L33649 12515
" />
<path d="M27393 8484
L27393 12515
" />
<path d="M27091 29928
L28508 29928
" />
<path d="M28508.7 29928.3 A1016.21 1016.21 0.0 0 0 28715 29642" />
<path d="M28727.3 28767.6 A1023.21 1023.21 0.0 0 0 28237 28274.8" />
<path d="M27351.2 28274.8 A1028.31 1028.31 0.0 0 0 26868 28765.4" />
<path d="M26885 29642 A1016.21 1016.21 0.0 0 0 27091.3 29928.3" />
<path d="M29891 29928
L31308 29928
" />
<path d="M31308.7 29928.3 A1016.21 1016.21 0.0 0 0 31515 29642" />
<path d="M31527.3 28767.6 A1023.21 1023.21 0.0 0 0 31037 28274.8" />
<path d="M30151.2 28274.8 A1028.31 1028.31 0.0 0 0 29668 28765.4" />
<path d="M29685 29642 A1016.21 1016.21 0.0 0 0 29891.3 29928.3" />
<path d="M27091 22528
L28508 22528
" />
<path d="M28508.7 22528.3 A1016.21 1016.21 0.0 0 0 28715 22242" />
<path d="M28727.3 21367.6 A1023.21 1023.21 0.0 0 0 28237 20874.8" />
<path d="M27351.2 20874.8 A1028.31 1028.31 0.0 0 0 26868 21365.4" />
<path d="M26885 22242 A1016.21 1016.21 0.0 0 0 27091.3 22528.3" />
<path d="M29891 22528
L31308 22528
" />
<path d="M31308.7 22528.3 A1016.21 1016.21 0.0 0 0 31515 22242" />
<path d="M31527.3 21367.6 A1023.21 1023.21 0.0 0 0 31037 20874.8" />
<path d="M30151.2 20874.8 A1028.31 1028.31 0.0 0 0 29668 21365.4" />
<path d="M29685 22242 A1016.21 1016.21 0.0 0 0 29891.3 22528.3" />
<path d="M27091 15128
L28508 15128
" />
<path d="M28508.7 15128.3 A1016.21 1016.21 0.0 0 0 28715 14842" />
<path d="M28727.3 13967.6 A1023.21 1023.21 0.0 0 0 28237 13474.8" />
<path d="M27351.2 13474.8 A1028.31 1028.31 0.0 0 0 26868 13965.4" />
<path d="M26885 14842 A1016.21 1016.21 0.0 0 0 27091.3 15128.3" />
<path d="M29891 15128
L31308 15128
" />
<path d="M31308.7 15128.3 A1016.21 1016.21 0.0 0 0 31515 14842" />
<path d="M31527.3 13967.6 A1023.21 1023.21 0.0 0 0 31037 13474.8" />
<path d="M30151.2 13474.8 A1028.31 1028.31 0.0 0 0 29668 13965.4" />
<path d="M29685 14842 A1016.21 1016.21 0.0 0 0 29891.3 15128.3" />
<path d="M28260 33887
L29339 33887
" />
<path d="M29339 33887
L29339 31312
" />
<path d="M29339 31312
L28260 31312
" />
<path d="M28260 31312
L28260 33887
" />
<path d="M28800 34190
L28800 33887
" />
<path d="M28800 31009
L28800 31312
" />
<path d="M31060 33887
L32139 33887
" />
<path d="M32139 33887
L32139 31312
" />
<path d="M32139 31312
L31060 31312
" />
<path d="M31060 31312
L31060 33887
" />
<path d="M31600 34190
L31600 33887
" />
<path d="M31600 31009
L31600 31312
" />
<path d="M28260 26487
L29339 26487
" />
<path d="M29339 26487
L29339 23912
" />
<path d="M29339 23912
L28260 23912
" />
<path d="M28260 23912
L28260 26487
" />
<path d="M28800 26790
L28800 26487
" />
<path d="M28800 23609
L28800 23912
" />
<path d="M31060 26487
L32139 26487
" />
<path d="M32139 26487
L32139 23912
" />
<path d="M32139 23912
L31060 23912
" />
<path d="M31060 23912
L31060 26487
" />
<path d="M31600 26790
L31600 26487
" />
<path d="M31600 23609
L31600 23912
" />
<path d="M28260 19087
L29339 19087
" />
<path d="M29339 19087
L29339 16512
" />
<path d="M29339 16512
L28260 16512
" />
<path d="M28260 16512
L28260 19087
" />
<path d="M28800 19390
L28800 19087
" />
<path d="M28800 16209
L28800 16512
" />
<path d="M31060 19087
L32139 19087
" />
<path d="M32139 19087
L32139 16512
" />
<path d="M32139 16512
L31060 16512
" />
<path d="M31060 16512
L31060 19087
" />
<path d="M31600 19390
L31600 19087
" />
<path d="M31600 16209
L31600 16512
" />
<path d="M20923 31766
L17876 31766
" />
<path d="M17876 31766
L17876 32814
" />
<path d="M17876 32814
L20923 32814
" />
<path d="M20923 32814
L20923 31766
" />
<path d="M20549 32814
L20549 35176
" />
<path d="M20549 35176
L20250 35176
" />
<path d="M20250 35176
L20250 32814
" />
<path d="M20525 32814
L20525 35176
" />
<path d="M20478 32814
L20478 35176
" />
<path d="M20431 32814
L20431 35176
" />
<path d="M20384 32814
L20384 35176
" />
<path d="M20337 32814
L20337 35176
" />
<path d="M20289 32814
L20289 35176
" />
<path d="M20549 31610
L20549 31766
" />
<path d="M20250 31610
L20250 31766
" />
<path d="M20549 30637
L20549 30789
" />
<path d="M20250 30637
L20250 30789
" />
<path d="M19900 31766
L19900 32814
" />
<path d="M19549 32814
L19549 35176
" />
<path d="M19549 35176
L19250 35176
" />
<path d="M19250 35176
L19250 32814
" />
<path d="M19549 31610
L19549 31766
" />
<path d="M19250 31610
L19250 31766
" />
<path d="M19549 30610
L19549 30789
" />
<path d="M19250 30610
L19250 30789
" />
<path d="M18900 31766
L18900 32814
" />
<path d="M18549 32814
L18549 35176
" />
<path d="M18549 35176
L18250 35176
" />
<path d="M18250 35176
L18250 32814
" />
<path d="M18549 31610
L18549 31766
" />
<path d="M18250 31610
L18250 31766
" />
<path d="M18549 30610
L18549 30789
" />
<path d="M18250 30610
L18250 30789
" />
<path d="M20400 29700
L20900 29700
" />
<path d="M20900 29700
L20900 30200
" />
<path d="M19406 7234
L17634 7234
" />
<path d="M19898 8809
L19898 8218
" />
<path d="M17634 9793
L19406 9793
" />
<path d="M17142 8218
L17142 8809
" />
<path d="M21537 12039
L21537 10960
" />
<path d="M21537 10960
L18962 10960
" />
<path d="M18962 10960
L18962 12039
" />
<path d="M18962 12039
L21537 12039
" />
<path d="M21840 11500
L21537 11500
" />
<path d="M18659 11500
L18962 11500
" />
<path d="M9066 11452
L9066 13129
" />
<path d="M9066 13129
L13917 13129
" />
<path d="M13917 13129
L13917 11452
" />
<path d="M9066 9838
L9066 6547
" />
<path d="M9066 6547
L13917 6547
" />
<path d="M13917 6547
L13917 9838
" />
<path d="M11000 13216
L10803 13413
" />
<path d="M10803 13413
L11196 13413
" />
<path d="M11196 13413
L11000 13216
" />
<path d="M22467 7991
L22467 8174
" />
<path d="M22467 9025
L22467 9208
" />
<path d="M22587.3 9025.2 A984.252 984.252 0.0 0 0 24362.6 9025.37" />
<path d="M24362.6 8174.63 A984.252 984.252 0.0 0 0 22587.3 8174.8" />
<path d="M22467.1 9208.2 A1177.17 1177.17 0.0 0 0 24572.6 9025.52" />
<path d="M24572.6 8174.48 A1177.17 1177.17 0.0 0 0 22467.1 7991.8" />
<path d="M16594 22000
L16594 24520
" />
<path d="M14605 22000
L14605 24520
" />
<path d="M14605.9 24520.5 A994.094 994.094 0.0 0 0 16594.1 24520.5" />
<path d="M16594.1 22000.8 A994.094 994.094 0.0 0 0 14605.9 22000.8" />
<path d="M33000 33523
L32476 33523
" />
<path d="M32476 33523
L32476 33000
" />
<path d="M32476 32500
L32476 15476
" />
<path d="M33523 15476
L32476 15476
" />
<path d="M33523 32500
L33523 15476
" />
<path d="M33523 32500
L32476 32500
" />
<path d="M9000 33523
L8476 33523
" />
<path d="M8476 33523
L8476 33000
" />
<path d="M8476 32500
L8476 15476
" />
<path d="M9523 15476
L8476 15476
" />
<path d="M9523 32500
L9523 15476
" />
<path d="M9523 32500
L8476 32500
" />
<path d="M14106 25976
L13614 25976
" />
<path d="M13614 25976
L13614 34023
" />
<path d="M13614 34023
L15385 34023
" />
<path d="M15385 34023
L15385 25976
" />
<path d="M15385 25976
L14893 25976
" />
<path d="M14106.3 25976.4 A393.701 393.701 0.0 0 0 14893.7 25976.4" />
<path d="M19106 14476
L18456 14476
" />
<path d="M18456 14476
L18456 28523
" />
<path d="M18456 28523
L20543 28523
" />
<path d="M20543 28523
L20543 14476
" />
<path d="M20543 14476
L19893 14476
" />
<path d="M19106.3 14476.4 A393.701 393.701 0.0 0 0 19893.7 14476.4" />
<path d="M27739 31312
L26660 31312
" />
<path d="M26660 31312
L26660 33887
" />
<path d="M26660 33887
L27739 33887
" />
<path d="M27739 33887
L27739 31312
" />
<path d="M27200 31009
L27200 31312
" />
<path d="M27200 34190
L27200 33887
" />
<path d="M11090 14078
L12877 14078
" />
<path d="M11090 14921
L12877 14921
" />
<path d="M11090 14078
L11090 14084
" />
<path d="M11090 14915
L11090 14921
" />
<path d="M12877 14078
L12877 14084
" />
<path d="M12877 14915
L12877 14921
" />
<path d="M11840 23778
L13627 23778
" />
<path d="M11840 24621
L13627 24621
" />
<path d="M11840 23778
L11840 23784
" />
<path d="M11840 24615
L11840 24621
" />
<path d="M13627 23778
L13627 23784
" />
<path d="M13627 24615
L13627 24621
" />
<path d="M11840 21878
L13627 21878
" />
<path d="M11840 22721
L13627 22721
" />
<path d="M11840 21878
L11840 21884
" />
<path d="M11840 22715
L11840 22721
" />
<path d="M13627 21878
L13627 21884
" />
<path d="M13627 22715
L13627 22721
" />
<path d="M24493 24023
L24985 24023
" />
<path d="M24985 24023
L24985 15976
" />
<path d="M24985 15976
L23214 15976
" />
<path d="M23214 15976
L23214 24023
" />
<path d="M23214 24023
L23706 24023
" />
<path d="M24493.7 24023.6 A393.701 393.701 0.0 0 0 23706.3 24023.6" />
<path d="M24493 34023
L24985 34023
" />
<path d="M24985 34023
L24985 25976
" />
<path d="M24985 25976
L23214 25976
" />
<path d="M23214 25976
L23214 34023
" />
<path d="M23214 34023
L23706 34023
" />
<path d="M24493.7 34023.6 A393.701 393.701 0.0 0 0 23706.3 34023.6" />
<path d="M30539 31312
L29460 31312
" />
<path d="M29460 31312
L29460 33887
" />
<path d="M29460 33887
L30539 33887
" />
<path d="M30539 33887
L30539 31312
" />
<path d="M30000 31009
L30000 31312
" />
<path d="M30000 34190
L30000 33887
" />
<path d="M27739 23912
L26660 23912
" />
<path d="M26660 23912
L26660 26487
" />
<path d="M26660 26487
L27739 26487
" />
<path d="M27739 26487
L27739 23912
" />
<path d="M27200 23609
L27200 23912
" />
<path d="M27200 26790
L27200 26487
" />
<path d="M30539 23912
L29460 23912
" />
<path d="M29460 23912
L29460 26487
" />
<path d="M29460 26487
L30539 26487
" />
<path d="M30539 26487
L30539 23912
" />
<path d="M30000 23609
L30000 23912
" />
<path d="M30000 26790
L30000 26487
" />
<path d="M27739 16512
L26660 16512
" />
<path d="M26660 16512
L26660 19087
" />
<path d="M26660 19087
L27739 19087
" />
<path d="M27739 19087
L27739 16512
" />
<path d="M27200 16209
L27200 16512
" />
<path d="M27200 19390
L27200 19087
" />
<path d="M30539 16512
L29460 16512
" />
<path d="M29460 16512
L29460 19087
" />
<path d="M29460 19087
L30539 19087
" />
<path d="M30539 19087
L30539 16512
" />
<path d="M30000 16209
L30000 16512
" />
<path d="M30000 19390
L30000 19087
" />
</g>
<g style="fill:#008484; fill-opacity:0.0; 
stroke:#008484; stroke-width:59.0551; stroke-opacity:1; 
stroke-linecap:round; stroke-linejoin:round;">
<text x="30140.9" y="10696.9"
textLength="940.945" font-size="524.934" lengthAdjust="spacingAndGlyphs"
text-anchor="middle" opacity="0">U4</text>
<path d="M29840 10284
L29840 10603
L29859 10640
L29878 10659
L29915 10678
L29990 10678
L30028 10659
L30047 10640
L30065 10603
L30065 10284
" />
<path d="M30422 10415
L30422 10678
" />
<path d="M30328 10265
L30234 10546
L30478 10546
" />
<text x="27803.9" y="29696.9"
textLength="864.173" font-size="524.934" lengthAdjust="spacingAndGlyphs"
text-anchor="middle" opacity="0">Q6</text>
<path d="M27766 29715
L27728 29696
L27691 29659
L27635 29603
L27597 29584
L27560 29584
" />
<path d="M27578 29678
L27541 29659
L27503 29621
L27485 29546
L27485 29415
L27503 29340
L27541 29303
L27578 29284
L27653 29284
L27691 29303
L27728 29340
L27747 29415
L27747 29546
L27728 29621
L27691 29659
L27653 29678
L27578 29678
" />
<path d="M28085 29284
L28010 29284
L27972 29303
L27953 29321
L27916 29378
L27897 29453
L27897 29603
L27916 29640
L27935 29659
L27972 29678
L28047 29678
L28085 29659
L28103 29640
L28122 29603
L28122 29509
L28103 29471
L28085 29453
L28047 29434
L27972 29434
L27935 29453
L27916 29471
L27897 29509
" />
<text x="30603.9" y="29696.9"
textLength="864.173" font-size="524.934" lengthAdjust="spacingAndGlyphs"
text-anchor="middle" opacity="0">Q5</text>
<path d="M30566 29715
L30528 29696
L30491 29659
L30435 29603
L30397 29584
L30360 29584
" />
<path d="M30378 29678
L30341 29659
L30303 29621
L30285 29546
L30285 29415
L30303 29340
L30341 29303
L30378 29284
L30453 29284
L30491 29303
L30528 29340
L30547 29415
L30547 29546
L30528 29621
L30491 29659
L30453 29678
L30378 29678
" />
<path d="M30903 29284
L30716 29284
L30697 29471
L30716 29453
L30753 29434
L30847 29434
L30885 29453
L30903 29471
L30922 29509
L30922 29603
L30903 29640
L30885 29659
L30847 29678
L30753 29678
L30716 29659
L30697 29640
" />
<text x="27803.9" y="22196.9"
textLength="864.173" font-size="524.934" lengthAdjust="spacingAndGlyphs"
text-anchor="middle" opacity="0">Q4</text>
<path d="M27766 22215
L27728 22196
L27691 22159
L27635 22103
L27597 22084
L27560 22084
" />
<path d="M27578 22178
L27541 22159
L27503 22121
L27485 22046
L27485 21915
L27503 21840
L27541 21803
L27578 21784
L27653 21784
L27691 21803
L27728 21840
L27747 21915
L27747 22046
L27728 22121
L27691 22159
L27653 22178
L27578 22178
" />
<path d="M28085 21915
L28085 22178
" />
<path d="M27991 21765
L27897 22046
L28141 22046
" />
<text x="30603.9" y="22196.9"
textLength="864.173" font-size="524.934" lengthAdjust="spacingAndGlyphs"
text-anchor="middle" opacity="0">Q3</text>
<path d="M30566 22215
L30528 22196
L30491 22159
L30435 22103
L30397 22084
L30360 22084
" />
<path d="M30378 22178
L30341 22159
L30303 22121
L30285 22046
L30285 21915
L30303 21840
L30341 21803
L30378 21784
L30453 21784
L30491 21803
L30528 21840
L30547 21915
L30547 22046
L30528 22121
L30491 22159
L30453 22178
L30378 22178
" />
<path d="M30678 21784
L30922 21784
L30791 21934
L30847 21934
L30885 21953
L30903 21971
L30922 22009
L30922 22103
L30903 22140
L30885 22159
L30847 22178
L30735 22178
L30697 22159
L30678 22140
" />
<text x="27803.9" y="14946.9"
textLength="864.173" font-size="524.934" lengthAdjust="spacingAndGlyphs"
text-anchor="middle" opacity="0">Q2</text>
<path d="M27766 14965
L27728 14946
L27691 14909
L27635 14853
L27597 14834
L27560 14834
" />
<path d="M27578 14928
L27541 14909
L27503 14871
L27485 14796
L27485 14665
L27503 14590
L27541 14553
L27578 14534
L27653 14534
L27691 14553
L27728 14590
L27747 14665
L27747 14796
L27728 14871
L27691 14909
L27653 14928
L27578 14928
" />
<path d="M27897 14571
L27916 14553
L27953 14534
L28047 14534
L28085 14553
L28103 14571
L28122 14609
L28122 14646
L28103 14703
L27878 14928
L28122 14928
" />
<text x="30603.9" y="14946.9"
textLength="864.173" font-size="524.934" lengthAdjust="spacingAndGlyphs"
text-anchor="middle" opacity="0">Q1</text>
<path d="M30566 14965
L30528 14946
L30491 14909
L30435 14853
L30397 14834
L30360 14834
" />
<path d="M30378 14928
L30341 14909
L30303 14871
L30285 14796
L30285 14665
L30303 14590
L30341 14553
L30378 14534
L30453 14534
L30491 14553
L30528 14590
L30547 14665
L30547 14796
L30528 14871
L30491 14909
L30453 14928
L30378 14928
" />
<path d="M30922 14928
L30697 14928
" />
<path d="M30810 14928
L30810 14534
L30772 14590
L30735 14628
L30697 14646
" />
<g transform="rotate(-90 28800 32600)">
<text x="28800" y="32796.9"
textLength="1220.38" font-size="524.934" lengthAdjust="spacingAndGlyphs"
text-anchor="middle" opacity="0">R13</text>
</g>
<path d="M28978 32853
L28790 32984
" />
<path d="M28978 33078
L28584 33078
L28584 32928
L28603 32890
L28621 32871
L28659 32853
L28715 32853
L28753 32871
L28771 32890
L28790 32928
L28790 33078
" />
<path d="M28978 32478
L28978 32703
" />
<path d="M28978 32590
L28584 32590
L28640 32628
L28678 32665
L28696 32703
" />
<path d="M28584 32346
L28584 32103
L28734 32234
L28734 32178
L28753 32140
L28771 32121
L28809 32103
L28903 32103
L28940 32121
L28959 32140
L28978 32178
L28978 32290
L28959 32328
L28940 32346
" />
<g transform="rotate(-90 31600 32600)">
<text x="31600" y="32796.9"
textLength="1220.38" font-size="524.934" lengthAdjust="spacingAndGlyphs"
text-anchor="middle" opacity="0">R12</text>
</g>
<path d="M31778 32853
L31590 32984
" />
<path d="M31778 33078
L31384 33078
L31384 32928
L31403 32890
L31421 32871
L31459 32853
L31515 32853
L31553 32871
L31571 32890
L31590 32928
L31590 33078
" />
<path d="M31778 32478
L31778 32703
" />
<path d="M31778 32590
L31384 32590
L31440 32628
L31478 32665
L31496 32703
" />
<path d="M31421 32328
L31403 32309
L31384 32271
L31384 32178
L31403 32140
L31421 32121
L31459 32103
L31496 32103
L31553 32121
L31778 32346
L31778 32103
" />
<g transform="rotate(-90 28800 25200)">
<text x="28800" y="25396.9"
textLength="1220.38" font-size="524.934" lengthAdjust="spacingAndGlyphs"
text-anchor="middle" opacity="0">R11</text>
</g>
<path d="M28978 25453
L28790 25584
" />
<path d="M28978 25678
L28584 25678
L28584 25528
L28603 25490
L28621 25471
L28659 25453
L28715 25453
L28753 25471
L28771 25490
L28790 25528
L28790 25678
" />
<path d="M28978 25078
L28978 25303
" />
<path d="M28978 25190
L28584 25190
L28640 25228
L28678 25265
L28696 25303
" />
<path d="M28978 24703
L28978 24928
" />
<path d="M28978 24815
L28584 24815
L28640 24853
L28678 24890
L28696 24928
" />
<g transform="rotate(-90 31600 25200)">
<text x="31600" y="25396.9"
textLength="1220.38" font-size="524.934" lengthAdjust="spacingAndGlyphs"
text-anchor="middle" opacity="0">R10</text>
</g>
<path d="M31778 25453
L31590 25584
" />
<path d="M31778 25678
L31384 25678
L31384 25528
L31403 25490
L31421 25471
L31459 25453
L31515 25453
L31553 25471
L31571 25490
L31590 25528
L31590 25678
" />
<path d="M31778 25078
L31778 25303
" />
<path d="M31778 25190
L31384 25190
L31440 25228
L31478 25265
L31496 25303
" />
<path d="M31384 24834
L31384 24796
L31403 24759
L31421 24740
L31459 24721
L31534 24703
L31628 24703
L31703 24721
L31740 24740
L31759 24759
L31778 24796
L31778 24834
L31759 24871
L31740 24890
L31703 24909
L31628 24928
L31534 24928
L31459 24909
L31421 24890
L31403 24871
L31384 24834
" />
<g transform="rotate(-90 28800 17800)">
<text x="28800" y="17996.9"
textLength="845.426" font-size="524.934" lengthAdjust="spacingAndGlyphs"
text-anchor="middle" opacity="0">R9</text>
</g>
<path d="M28978 17865
L28790 17996
" />
<path d="M28978 18090
L28584 18090
L28584 17940
L28603 17903
L28621 17884
L28659 17865
L28715 17865
L28753 17884
L28771 17903
L28790 17940
L28790 18090
" />
<path d="M28978 17678
L28978 17603
L28959 17565
L28940 17546
L28884 17509
L28809 17490
L28659 17490
L28621 17509
L28603 17528
L28584 17565
L28584 17640
L28603 17678
L28621 17696
L28659 17715
L28753 17715
L28790 17696
L28809 17678
L28828 17640
L28828 17565
L28809 17528
L28790 17509
L28753 17490
" />
<g transform="rotate(-90 31600 17800)">
<text x="31600" y="17996.9"
textLength="845.426" font-size="524.934" lengthAdjust="spacingAndGlyphs"
text-anchor="middle" opacity="0">R8</text>
</g>
<path d="M31778 17865
L31590 17996
" />
<path d="M31778 18090
L31384 18090
L31384 17940
L31403 17903
L31421 17884
L31459 17865
L31515 17865
L31553 17884
L31571 17903
L31590 17940
L31590 18090
" />
<path d="M31553 17640
L31534 17678
L31515 17696
L31478 17715
L31459 17715
L31421 17696
L31403 17678
L31384 17640
L31384 17565
L31403 17528
L31421 17509
L31459 17490
L31478 17490
L31515 17509
L31534 17528
L31553 17565
L31553 17640
L31571 17678
L31590 17696
L31628 17715
L31703 17715
L31740 17696
L31759 17678
L31778 17640
L31778 17565
L31759 17528
L31740 17509
L31703 17490
L31628 17490
L31590 17509
L31571 17528
L31553 17565
" />
<text x="21293.7" y="32623.2"
textLength="751.687" font-size="524.934" lengthAdjust="spacingAndGlyphs"
text-anchor="middle" opacity="0">J1</text>
<path d="M21162 32210
L21162 32491
L21143 32548
L21106 32585
L21049 32604
L21012 32604
" />
<path d="M21556 32604
L21331 32604
" />
<path d="M21443 32604
L21443 32210
L21406 32267
L21368 32304
L21331 32323
" />
<text x="18520.5" y="8696.85"
textLength="1276.62" font-size="524.934" lengthAdjust="spacingAndGlyphs"
text-anchor="middle" opacity="0">SW1</text>
<path d="M17995 8659
L18051 8678
L18145 8678
L18183 8659
L18201 8640
L18220 8603
L18220 8565
L18201 8528
L18183 8509
L18145 8490
L18070 8471
L18033 8453
L18014 8434
L17995 8396
L17995 8359
L18014 8321
L18033 8303
L18070 8284
L18164 8284
L18220 8303
" />
<path d="M18351 8284
L18445 8678
L18520 8396
L18595 8678
L18689 8284
" />
<path d="M19045 8678
L18820 8678
" />
<path d="M18932 8678
L18932 8284
L18895 8340
L18857 8378
L18820 8396
" />
<text x="20250" y="11696.9"
textLength="845.426" font-size="524.934" lengthAdjust="spacingAndGlyphs"
text-anchor="middle" opacity="0">R1</text>
<path d="M20184 11678
L20053 11490
" />
<path d="M19959 11678
L19959 11284
L20109 11284
L20146 11303
L20165 11321
L20184 11359
L20184 11415
L20165 11453
L20146 11471
L20109 11490
L19959 11490
" />
<path d="M20559 11678
L20334 11678
" />
<path d="M20446 11678
L20446 11284
L20409 11340
L20371 11378
L20334 11396
" />
<text x="11500" y="10196.9"
textLength="751.687" font-size="524.934" lengthAdjust="spacingAndGlyphs"
text-anchor="middle" opacity="0">J6</text>
<path d="M11368 9784
L11368 10065
L11350 10121
L11312 10159
L11256 10178
L11218 10178
" />
<path d="M11724 9784
L11649 9784
L11612 9803
L11593 9821
L11556 9878
L11537 9953
L11537 10103
L11556 10140
L11574 10159
L11612 10178
L11687 10178
L11724 10159
L11743 10140
L11762 10103
L11762 10009
L11743 9971
L11724 9953
L11687 9934
L11612 9934
L11574 9953
L11556 9971
L11537 10009
" />
<text x="22000" y="7696.85"
textLength="845.426" font-size="524.934" lengthAdjust="spacingAndGlyphs"
text-anchor="middle" opacity="0">D1</text>
<path d="M21709 7678
L21709 7284
L21803 7284
L21859 7303
L21896 7340
L21915 7378
L21934 7453
L21934 7509
L21915 7584
L21896 7621
L21859 7659
L21803 7678
L21709 7678
" />
<path d="M22309 7678
L22084 7678
" />
<path d="M22196 7678
L22196 7284
L22159 7340
L22121 7378
L22084 7396
" />
<text x="26000" y="7796.85"
textLength="751.687" font-size="524.934" lengthAdjust="spacingAndGlyphs"
text-anchor="middle" opacity="0">J4</text>
<path d="M25868 7384
L25868 7665
L25850 7721
L25812 7759
L25756 7778
L25718 7778
" />
<path d="M26224 7515
L26224 7778
" />
<path d="M26131 7365
L26037 7646
L26281 7646
" />
<text x="33200" y="7796.85"
textLength="751.687" font-size="524.934" lengthAdjust="spacingAndGlyphs"
text-anchor="middle" opacity="0">J5</text>
<path d="M33068 7384
L33068 7665
L33050 7721
L33012 7759
L32956 7778
L32918 7778
" />
<path d="M33443 7384
L33256 7384
L33237 7571
L33256 7553
L33293 7534
L33387 7534
L33424 7553
L33443 7571
L33462 7609
L33462 7703
L33443 7740
L33424 7759
L33387 7778
L33293 7778
L33256 7759
L33237 7740
" />
<text x="15600" y="23457.5"
textLength="789.183" font-size="524.934" lengthAdjust="spacingAndGlyphs"
text-anchor="middle" opacity="0">Y1</text>
<path d="M15412 23251
L15412 23438
" />
<path d="M15281 23045
L15412 23251
L15543 23045
" />
<path d="M15881 23438
L15656 23438
" />
<path d="M15768 23438
L15768 23045
L15731 23101
L15693 23138
L15656 23157
" />
<text x="33000" y="34196.9"
textLength="751.687" font-size="524.934" lengthAdjust="spacingAndGlyphs"
text-anchor="middle" opacity="0">J3</text>
<path d="M32868 33784
L32868 34065
L32850 34121
L32812 34159
L32756 34178
L32718 34178
" />
<path d="M33018 33784
L33262 33784
L33131 33934
L33187 33934
L33224 33953
L33243 33971
L33262 34009
L33262 34103
L33243 34140
L33224 34159
L33187 34178
L33074 34178
L33037 34159
L33018 34140
" />
<text x="9000" y="34287.4"
textLength="751.687" font-size="524.934" lengthAdjust="spacingAndGlyphs"
text-anchor="middle" opacity="0">J2</text>
<path d="M8868 33874
L8868 34156
L8850 34212
L8812 34249
L8756 34268
L8718 34268
" />
<path d="M9037 33912
L9056 33893
L9093 33874
L9187 33874
L9224 33893
L9243 33912
L9262 33949
L9262 33987
L9243 34043
L9018 34268
L9262 34268
" />
<text x="14500" y="27196.9"
textLength="864.173" font-size="524.934" lengthAdjust="spacingAndGlyphs"
text-anchor="middle" opacity="0">U1</text>
<path d="M14200 26784
L14200 27103
L14218 27140
L14237 27159
L14275 27178
L14350 27178
L14387 27159
L14406 27140
L14425 27103
L14425 26784
" />
<path d="M14818 27178
L14593 27178
" />
<path d="M14706 27178
L14706 26784
L14668 26840
L14631 26878
L14593 26896
" />
<text x="19500" y="15696.9"
textLength="864.173" font-size="524.934" lengthAdjust="spacingAndGlyphs"
text-anchor="middle" opacity="0">U2</text>
<path d="M19200 15284
L19200 15603
L19218 15640
L19237 15659
L19275 15678
L19350 15678
L19387 15659
L19406 15640
L19425 15603
L19425 15284
" />
<path d="M19593 15321
L19612 15303
L19649 15284
L19743 15284
L19781 15303
L19799 15321
L19818 15359
L19818 15396
L19799 15453
L19574 15678
L19818 15678
" />
<g transform="rotate(-90 27200 32600)">
<text x="27200" y="32796.9"
textLength="845.426" font-size="524.934" lengthAdjust="spacingAndGlyphs"
text-anchor="middle" opacity="0">R7</text>
</g>
<path d="M27378 32665
L27190 32796
" />
<path d="M27378 32890
L26984 32890
L26984 32740
L27003 32703
L27021 32684
L27059 32665
L27115 32665
L27153 32684
L27171 32703
L27190 32740
L27190 32890
" />
<path d="M26984 32534
L26984 32271
L27378 32440
" />
<text x="11984.3" y="14696.9"
textLength="845.426" font-size="524.934" lengthAdjust="spacingAndGlyphs"
text-anchor="middle" opacity="0">C3</text>
<path d="M11918 14640
L11899 14659
L11843 14678
L11806 14678
L11749 14659
L11712 14621
L11693 14584
L11674 14509
L11674 14453
L11693 14378
L11712 14340
L11749 14303
L11806 14284
L11843 14284
L11899 14303
L11918 14321
" />
<path d="M12049 14284
L12293 14284
L12162 14434
L12218 14434
L12256 14453
L12274 14471
L12293 14509
L12293 14603
L12274 14640
L12256 14659
L12218 14678
L12106 14678
L12068 14659
L12049 14640
" />
<text x="12734.3" y="24396.9"
textLength="845.426" font-size="524.934" lengthAdjust="spacingAndGlyphs"
text-anchor="middle" opacity="0">C2</text>
<path d="M12668 24340
L12649 24359
L12593 24378
L12556 24378
L12499 24359
L12462 24321
L12443 24284
L12424 24209
L12424 24153
L12443 24078
L12462 24040
L12499 24003
L12556 23984
L12593 23984
L12649 24003
L12668 24021
" />
<path d="M12818 24021
L12837 24003
L12874 23984
L12968 23984
L13006 24003
L13024 24021
L13043 24059
L13043 24096
L13024 24153
L12799 24378
L13043 24378
" />
<text x="12734.3" y="22496.9"
textLength="845.426" font-size="524.934" lengthAdjust="spacingAndGlyphs"
text-anchor="middle" opacity="0">C1</text>
<path d="M12668 22440
L12649 22459
L12593 22478
L12556 22478
L12499 22459
L12462 22421
L12443 22384
L12424 22309
L12424 22253
L12443 22178
L12462 22140
L12499 22103
L12556 22084
L12593 22084
L12649 22103
L12668 22121
" />
<path d="M13043 22478
L12818 22478
" />
<path d="M12931 22478
L12931 22084
L12893 22140
L12856 22178
L12818 22196
" />
<text x="24100" y="23096.9"
textLength="864.173" font-size="524.934" lengthAdjust="spacingAndGlyphs"
text-anchor="middle" opacity="0">U5</text>
<path d="M23800 22684
L23800 23003
L23818 23040
L23837 23059
L23875 23078
L23950 23078
L23987 23059
L24006 23040
L24025 23003
L24025 22684
" />
<path d="M24399 22684
L24212 22684
L24193 22871
L24212 22853
L24249 22834
L24343 22834
L24381 22853
L24399 22871
L24418 22909
L24418 23003
L24399 23040
L24381 23059
L24343 23078
L24249 23078
L24212 23059
L24193 23040
" />
<text x="24100" y="33196.9"
textLength="864.173" font-size="524.934" lengthAdjust="spacingAndGlyphs"
text-anchor="middle" opacity="0">U3</text>
<path d="M23800 32784
L23800 33103
L23818 33140
L23837 33159
L23875 33178
L23950 33178
L23987 33159
L24006 33140
L24025 33103
L24025 32784
" />
<path d="M24174 32784
L24418 32784
L24287 32934
L24343 32934
L24381 32953
L24399 32971
L24418 33009
L24418 33103
L24399 33140
L24381 33159
L24343 33178
L24231 33178
L24193 33159
L24174 33140
" />
<g transform="rotate(-90 30000 32600)">
<text x="30000" y="32796.9"
textLength="845.426" font-size="524.934" lengthAdjust="spacingAndGlyphs"
text-anchor="middle" opacity="0">R6</text>
</g>
<path d="M30178 32665
L29990 32796
" />
<path d="M30178 32890
L29784 32890
L29784 32740
L29803 32703
L29821 32684
L29859 32665
L29915 32665
L29953 32684
L29971 32703
L29990 32740
L29990 32890
" />
<path d="M29784 32328
L29784 32403
L29803 32440
L29821 32459
L29878 32496
L29953 32515
L30103 32515
L30140 32496
L30159 32478
L30178 32440
L30178 32365
L30159 32328
L30140 32309
L30103 32290
L30009 32290
L29971 32309
L29953 32328
L29934 32365
L29934 32440
L29953 32478
L29971 32496
L30009 32515
" />
<g transform="rotate(-90 27200 25200)">
<text x="27200" y="25396.9"
textLength="845.426" font-size="524.934" lengthAdjust="spacingAndGlyphs"
text-anchor="middle" opacity="0">R5</text>
</g>
<path d="M27378 25265
L27190 25396
" />
<path d="M27378 25490
L26984 25490
L26984 25340
L27003 25303
L27021 25284
L27059 25265
L27115 25265
L27153 25284
L27171 25303
L27190 25340
L27190 25490
" />
<path d="M26984 24909
L26984 25096
L27171 25115
L27153 25096
L27134 25059
L27134 24965
L27153 24928
L27171 24909
L27209 24890
L27303 24890
L27340 24909
L27359 24928
L27378 24965
L27378 25059
L27359 25096
L27340 25115
" />
<g transform="rotate(-90 30000 25200)">
<text x="30000" y="25396.9"
textLength="845.426" font-size="524.934" lengthAdjust="spacingAndGlyphs"
text-anchor="middle" opacity="0">R4</text>
</g>
<path d="M30178 25265
L29990 25396
" />
<path d="M30178 25490
L29784 25490
L29784 25340
L29803 25303
L29821 25284
L29859 25265
L29915 25265
L29953 25284
L29971 25303
L29990 25340
L29990 25490
" />
<path d="M29915 24928
L30178 24928
" />
<path d="M29765 25021
L30046 25115
L30046 24871
" />
<g transform="rotate(-90 27200 17800)">
<text x="27200" y="17996.9"
textLength="845.426" font-size="524.934" lengthAdjust="spacingAndGlyphs"
text-anchor="middle" opacity="0">R3</text>
</g>
<path d="M27378 17865
L27190 17996
" />
<path d="M27378 18090
L26984 18090
L26984 17940
L27003 17903
L27021 17884
L27059 17865
L27115 17865
L27153 17884
L27171 17903
L27190 17940
L27190 18090
" />
<path d="M26984 17734
L26984 17490
L27134 17621
L27134 17565
L27153 17528
L27171 17509
L27209 17490
L27303 17490
L27340 17509
L27359 17528
L27378 17565
L27378 17678
L27359 17715
L27340 17734
" />
<g transform="rotate(-90 30000 17800)">
<text x="30000" y="17996.9"
textLength="845.426" font-size="524.934" lengthAdjust="spacingAndGlyphs"
text-anchor="middle" opacity="0">R2</text>
</g>
<path d="M30178 17865
L29990 17996
" />
<path d="M30178 18090
L29784 18090
L29784 17940
L29803 17903
L29821 17884
L29859 17865
L29915 17865
L29953 17884
L29971 17903
L29990 17940
L29990 18090
" />
<path d="M29821 17715
L29803 17696
L29784 17659
L29784 17565
L29803 17528
L29821 17509
L29859 17490
L29896 17490
L29953 17509
L30178 17734
L30178 17490
" />
<g >
</g>
</g>
<g style="fill:#000000; fill-opacity:0.0; 
stroke:#000000; stroke-width:59.0551; stroke-opacity:1; 
stroke-linecap:round; stroke-linejoin:round;">
</g>
<g style="fill:#C2C200; fill-opacity:0.0; 
stroke:#C2C200; stroke-width:59.0551; stroke-opacity:1; 
stroke-linecap:round; stroke-linejoin:round;">
</g>
<g style="fill:#C2C200; fill-opacity:0.0; 
stroke:#C2C200; stroke-width:19.685; stroke-opacity:1; 
stroke-linecap:round; stroke-linejoin:round;">
<path d="M34000 6500
L34000 13500
" />
<path d="M20500 6500
L34000 6500
" />
<path d="M8000 6500
L20500 6500
" />
<path d="M8000 13500
L8000 6500
" />
<path d="M8000 13500
L8000 35500
" />
<path d="M34000 35500
L34000 13500
" />
<path d="M8000 35500
L34000 35500
" />
<g >
</g>
<g >
</g>
<g >
</g>
<g >
</g>
<g >
</g>
<g >
</g>
<g >
</g>
<g >
</g>
<g >
</g>
<g >
</g>
<g >
</g>
<g >
</g>
<g >
</g>
<g >
</g>
<g >
</g>
<g >
</g>
<g >
</g>
<g >
</g>
<g >
</g>
<g >
</g>
<g >
</g>
<g >
</g>
<g >
</g>
<g >
</g>
<g >
</g>
<g >
</g>
<g >
</g>
<g >
</g>
<g >
</g>
<g >
</g>
<g >
</g>
<g >
</g>
<g >
</g>
<g >
</g>
<g >
</g>
<g >
</g>
<g >
</g>
<g >
</g>
<g >
</g>
<g >
</g>
<g >
</g>
<g >
</g>
</g> 
</svg>
