G04 #@! TF.GenerationSoftware,KiCad,Pcbnew,5.1.5+dfsg1-2*
G04 #@! TF.CreationDate,2020-01-03T23:49:53-05:00*
G04 #@! TF.ProjectId,PCB,5043422e-6b69-4636-9164-5f7063625858,rev?*
G04 #@! TF.SameCoordinates,Original*
G04 #@! TF.FileFunction,Legend,Bot*
G04 #@! TF.FilePolarity,Positive*
%FSLAX46Y46*%
G04 Gerber Fmt 4.6, Leading zero omitted, Abs format (unit mm)*
G04 Created by KiCad (PCBNEW 5.1.5+dfsg1-2) date 2020-01-03 23:49:53*
%MOMM*%
%LPD*%
G04 APERTURE LIST*
%ADD10C,0.150000*%
%ADD11C,0.120000*%
G04 APERTURE END LIST*
D10*
X157084375Y-117292380D02*
X157358184Y-116816190D01*
X157655803Y-117292380D02*
X157530803Y-116292380D01*
X157149851Y-116292380D01*
X157060565Y-116340000D01*
X157018898Y-116387619D01*
X156983184Y-116482857D01*
X157001041Y-116625714D01*
X157060565Y-116720952D01*
X157114136Y-116768571D01*
X157215327Y-116816190D01*
X157596279Y-116816190D01*
X156268898Y-117244761D02*
X156370089Y-117292380D01*
X156560565Y-117292380D01*
X156649851Y-117244761D01*
X156685565Y-117149523D01*
X156637946Y-116768571D01*
X156578422Y-116673333D01*
X156477232Y-116625714D01*
X156286755Y-116625714D01*
X156197470Y-116673333D01*
X156161755Y-116768571D01*
X156173660Y-116863809D01*
X156661755Y-116959047D01*
X155810565Y-116625714D02*
X155655803Y-117292380D01*
X155334375Y-116625714D01*
X154209375Y-116387619D02*
X154155803Y-116340000D01*
X154054613Y-116292380D01*
X153816517Y-116292380D01*
X153727232Y-116340000D01*
X153685565Y-116387619D01*
X153649851Y-116482857D01*
X153661755Y-116578095D01*
X153727232Y-116720952D01*
X154370089Y-117292380D01*
X153751041Y-117292380D01*
X153334375Y-117006666D02*
X152858184Y-117006666D01*
X153465327Y-117292380D02*
X153006994Y-116292380D01*
X152798660Y-117292380D01*
X212002452Y-117292380D02*
X211877452Y-116292380D01*
X211639357Y-116292380D01*
X211502452Y-116340000D01*
X211419119Y-116435238D01*
X211383404Y-116530476D01*
X211359595Y-116720952D01*
X211377452Y-116863809D01*
X211448880Y-117054285D01*
X211508404Y-117149523D01*
X211615547Y-117244761D01*
X211764357Y-117292380D01*
X212002452Y-117292380D01*
X210615547Y-117244761D02*
X210716738Y-117292380D01*
X210907214Y-117292380D01*
X210996500Y-117244761D01*
X211032214Y-117149523D01*
X210984595Y-116768571D01*
X210925071Y-116673333D01*
X210823880Y-116625714D01*
X210633404Y-116625714D01*
X210544119Y-116673333D01*
X210508404Y-116768571D01*
X210520309Y-116863809D01*
X211008404Y-116959047D01*
X210186976Y-117244761D02*
X210097690Y-117292380D01*
X209907214Y-117292380D01*
X209806023Y-117244761D01*
X209746500Y-117149523D01*
X209740547Y-117101904D01*
X209776261Y-117006666D01*
X209865547Y-116959047D01*
X210008404Y-116959047D01*
X210097690Y-116911428D01*
X210133404Y-116816190D01*
X210127452Y-116768571D01*
X210067928Y-116673333D01*
X209966738Y-116625714D01*
X209823880Y-116625714D01*
X209734595Y-116673333D01*
X209335785Y-117292380D02*
X209252452Y-116625714D01*
X209210785Y-116292380D02*
X209264357Y-116340000D01*
X209222690Y-116387619D01*
X209169119Y-116340000D01*
X209210785Y-116292380D01*
X209222690Y-116387619D01*
X208347690Y-116625714D02*
X208448880Y-117435238D01*
X208508404Y-117530476D01*
X208561976Y-117578095D01*
X208663166Y-117625714D01*
X208806023Y-117625714D01*
X208895309Y-117578095D01*
X208425071Y-117244761D02*
X208526261Y-117292380D01*
X208716738Y-117292380D01*
X208806023Y-117244761D01*
X208847690Y-117197142D01*
X208883404Y-117101904D01*
X208847690Y-116816190D01*
X208788166Y-116720952D01*
X208734595Y-116673333D01*
X208633404Y-116625714D01*
X208442928Y-116625714D01*
X208353642Y-116673333D01*
X207871500Y-116625714D02*
X207954833Y-117292380D01*
X207883404Y-116720952D02*
X207829833Y-116673333D01*
X207728642Y-116625714D01*
X207585785Y-116625714D01*
X207496500Y-116673333D01*
X207460785Y-116768571D01*
X207526261Y-117292380D01*
X206663166Y-117244761D02*
X206764357Y-117292380D01*
X206954833Y-117292380D01*
X207044119Y-117244761D01*
X207079833Y-117149523D01*
X207032214Y-116768571D01*
X206972690Y-116673333D01*
X206871500Y-116625714D01*
X206681023Y-116625714D01*
X206591738Y-116673333D01*
X206556023Y-116768571D01*
X206567928Y-116863809D01*
X207056023Y-116959047D01*
X205764357Y-117292380D02*
X205639357Y-116292380D01*
X205758404Y-117244761D02*
X205859595Y-117292380D01*
X206050071Y-117292380D01*
X206139357Y-117244761D01*
X206181023Y-117197142D01*
X206216738Y-117101904D01*
X206181023Y-116816190D01*
X206121500Y-116720952D01*
X206067928Y-116673333D01*
X205966738Y-116625714D01*
X205776261Y-116625714D01*
X205686976Y-116673333D01*
X204526261Y-117292380D02*
X204401261Y-116292380D01*
X204448880Y-116673333D02*
X204347690Y-116625714D01*
X204157214Y-116625714D01*
X204067928Y-116673333D01*
X204026261Y-116720952D01*
X203990547Y-116816190D01*
X204026261Y-117101904D01*
X204085785Y-117197142D01*
X204139357Y-117244761D01*
X204240547Y-117292380D01*
X204431023Y-117292380D01*
X204520309Y-117244761D01*
X203633404Y-116625714D02*
X203478642Y-117292380D01*
X203157214Y-116625714D02*
X203478642Y-117292380D01*
X203603642Y-117530476D01*
X203657214Y-117578095D01*
X203758404Y-117625714D01*
X201686976Y-116292380D02*
X201776261Y-117006666D01*
X201841738Y-117149523D01*
X201948880Y-117244761D01*
X202097690Y-117292380D01*
X202192928Y-117292380D01*
X200907214Y-117292380D02*
X200841738Y-116768571D01*
X200877452Y-116673333D01*
X200966738Y-116625714D01*
X201157214Y-116625714D01*
X201258404Y-116673333D01*
X200901261Y-117244761D02*
X201002452Y-117292380D01*
X201240547Y-117292380D01*
X201329833Y-117244761D01*
X201365547Y-117149523D01*
X201353642Y-117054285D01*
X201294119Y-116959047D01*
X201192928Y-116911428D01*
X200954833Y-116911428D01*
X200853642Y-116863809D01*
X200431023Y-117292380D02*
X200347690Y-116625714D01*
X200359595Y-116720952D02*
X200306023Y-116673333D01*
X200204833Y-116625714D01*
X200061976Y-116625714D01*
X199972690Y-116673333D01*
X199936976Y-116768571D01*
X200002452Y-117292380D01*
X199936976Y-116768571D02*
X199877452Y-116673333D01*
X199776261Y-116625714D01*
X199633404Y-116625714D01*
X199544119Y-116673333D01*
X199508404Y-116768571D01*
X199573880Y-117292380D01*
X198669119Y-117292380D02*
X198603642Y-116768571D01*
X198639357Y-116673333D01*
X198728642Y-116625714D01*
X198919119Y-116625714D01*
X199020309Y-116673333D01*
X198663166Y-117244761D02*
X198764357Y-117292380D01*
X199002452Y-117292380D01*
X199091738Y-117244761D01*
X199127452Y-117149523D01*
X199115547Y-117054285D01*
X199056023Y-116959047D01*
X198954833Y-116911428D01*
X198716738Y-116911428D01*
X198615547Y-116863809D01*
X198050071Y-117292380D02*
X198139357Y-117244761D01*
X198175071Y-117149523D01*
X198067928Y-116292380D01*
X196508404Y-116768571D02*
X196371500Y-116816190D01*
X196329833Y-116863809D01*
X196294119Y-116959047D01*
X196311976Y-117101904D01*
X196371500Y-117197142D01*
X196425071Y-117244761D01*
X196526261Y-117292380D01*
X196907214Y-117292380D01*
X196782214Y-116292380D01*
X196448880Y-116292380D01*
X196359595Y-116340000D01*
X196317928Y-116387619D01*
X196282214Y-116482857D01*
X196294119Y-116578095D01*
X196353642Y-116673333D01*
X196407214Y-116720952D01*
X196508404Y-116768571D01*
X196841738Y-116768571D01*
X195764357Y-117292380D02*
X195853642Y-117244761D01*
X195895309Y-117197142D01*
X195931023Y-117101904D01*
X195895309Y-116816190D01*
X195835785Y-116720952D01*
X195782214Y-116673333D01*
X195681023Y-116625714D01*
X195538166Y-116625714D01*
X195448880Y-116673333D01*
X195407214Y-116720952D01*
X195371500Y-116816190D01*
X195407214Y-117101904D01*
X195466738Y-117197142D01*
X195520309Y-117244761D01*
X195621500Y-117292380D01*
X195764357Y-117292380D01*
X194490547Y-116625714D02*
X194573880Y-117292380D01*
X194919119Y-116625714D02*
X194984595Y-117149523D01*
X194948880Y-117244761D01*
X194859595Y-117292380D01*
X194716738Y-117292380D01*
X194615547Y-117244761D01*
X194561976Y-117197142D01*
X193669119Y-117292380D02*
X193603642Y-116768571D01*
X193639357Y-116673333D01*
X193728642Y-116625714D01*
X193919119Y-116625714D01*
X194020309Y-116673333D01*
X193663166Y-117244761D02*
X193764357Y-117292380D01*
X194002452Y-117292380D01*
X194091738Y-117244761D01*
X194127452Y-117149523D01*
X194115547Y-117054285D01*
X194056023Y-116959047D01*
X193954833Y-116911428D01*
X193716738Y-116911428D01*
X193615547Y-116863809D01*
X193109595Y-116625714D02*
X193216738Y-117482857D01*
X193276261Y-117578095D01*
X193377452Y-117625714D01*
X193425071Y-117625714D01*
X193067928Y-116292380D02*
X193121500Y-116340000D01*
X193079833Y-116387619D01*
X193026261Y-116340000D01*
X193067928Y-116292380D01*
X193079833Y-116387619D01*
X192633404Y-116625714D02*
X192740547Y-117482857D01*
X192800071Y-117578095D01*
X192901261Y-117625714D01*
X192948880Y-117625714D01*
X192591738Y-116292380D02*
X192645309Y-116340000D01*
X192603642Y-116387619D01*
X192550071Y-116340000D01*
X192591738Y-116292380D01*
X192603642Y-116387619D01*
X191811976Y-117292380D02*
X191746500Y-116768571D01*
X191782214Y-116673333D01*
X191871500Y-116625714D01*
X192061976Y-116625714D01*
X192163166Y-116673333D01*
X191806023Y-117244761D02*
X191907214Y-117292380D01*
X192145309Y-117292380D01*
X192234595Y-117244761D01*
X192270309Y-117149523D01*
X192258404Y-117054285D01*
X192198880Y-116959047D01*
X192097690Y-116911428D01*
X191859595Y-116911428D01*
X191758404Y-116863809D01*
X191252452Y-116625714D02*
X191359595Y-117482857D01*
X191419119Y-117578095D01*
X191520309Y-117625714D01*
X191567928Y-117625714D01*
X191210785Y-116292380D02*
X191264357Y-116340000D01*
X191222690Y-116387619D01*
X191169119Y-116340000D01*
X191210785Y-116292380D01*
X191222690Y-116387619D01*
D11*
X212927000Y-70858748D02*
X212927000Y-71381252D01*
X211507000Y-70858748D02*
X211507000Y-71381252D01*
X209936150Y-70858748D02*
X209936150Y-71381252D01*
X208516150Y-70858748D02*
X208516150Y-71381252D01*
X206945300Y-70858748D02*
X206945300Y-71381252D01*
X205525300Y-70858748D02*
X205525300Y-71381252D01*
X203954450Y-70858748D02*
X203954450Y-71381252D01*
X202534450Y-70858748D02*
X202534450Y-71381252D01*
X200963600Y-70858748D02*
X200963600Y-71381252D01*
X199543600Y-70858748D02*
X199543600Y-71381252D01*
X197972750Y-70858748D02*
X197972750Y-71381252D01*
X196552750Y-70858748D02*
X196552750Y-71381252D01*
X194981900Y-70858748D02*
X194981900Y-71381252D01*
X193561900Y-70858748D02*
X193561900Y-71381252D01*
X191991050Y-70858748D02*
X191991050Y-71381252D01*
X190571050Y-70858748D02*
X190571050Y-71381252D01*
X189000200Y-70858748D02*
X189000200Y-71381252D01*
X187580200Y-70858748D02*
X187580200Y-71381252D01*
X186009350Y-70858748D02*
X186009350Y-71381252D01*
X184589350Y-70858748D02*
X184589350Y-71381252D01*
X183018500Y-70858748D02*
X183018500Y-71381252D01*
X181598500Y-70858748D02*
X181598500Y-71381252D01*
X180027650Y-70858748D02*
X180027650Y-71381252D01*
X178607650Y-70858748D02*
X178607650Y-71381252D01*
X177036800Y-70858748D02*
X177036800Y-71381252D01*
X175616800Y-70858748D02*
X175616800Y-71381252D01*
X174045950Y-70858748D02*
X174045950Y-71381252D01*
X172625950Y-70858748D02*
X172625950Y-71381252D01*
X171055100Y-70858748D02*
X171055100Y-71381252D01*
X169635100Y-70858748D02*
X169635100Y-71381252D01*
X168064250Y-70858748D02*
X168064250Y-71381252D01*
X166644250Y-70858748D02*
X166644250Y-71381252D01*
X165073400Y-70858748D02*
X165073400Y-71381252D01*
X163653400Y-70858748D02*
X163653400Y-71381252D01*
X162082550Y-70858748D02*
X162082550Y-71381252D01*
X160662550Y-70858748D02*
X160662550Y-71381252D01*
X159091700Y-70858748D02*
X159091700Y-71381252D01*
X157671700Y-70858748D02*
X157671700Y-71381252D01*
X156100850Y-70858748D02*
X156100850Y-71381252D01*
X154680850Y-70858748D02*
X154680850Y-71381252D01*
X153110000Y-70858748D02*
X153110000Y-71381252D01*
X151690000Y-70858748D02*
X151690000Y-71381252D01*
D10*
X211273380Y-70477142D02*
X210797190Y-70143809D01*
X211273380Y-69905714D02*
X210273380Y-69905714D01*
X210273380Y-70286666D01*
X210321000Y-70381904D01*
X210368619Y-70429523D01*
X210463857Y-70477142D01*
X210606714Y-70477142D01*
X210701952Y-70429523D01*
X210749571Y-70381904D01*
X210797190Y-70286666D01*
X210797190Y-69905714D01*
X210368619Y-70858095D02*
X210321000Y-70905714D01*
X210273380Y-71000952D01*
X210273380Y-71239047D01*
X210321000Y-71334285D01*
X210368619Y-71381904D01*
X210463857Y-71429523D01*
X210559095Y-71429523D01*
X210701952Y-71381904D01*
X211273380Y-70810476D01*
X211273380Y-71429523D01*
X211273380Y-72381904D02*
X211273380Y-71810476D01*
X211273380Y-72096190D02*
X210273380Y-72096190D01*
X210416238Y-72000952D01*
X210511476Y-71905714D01*
X210559095Y-71810476D01*
X208282530Y-70477142D02*
X207806340Y-70143809D01*
X208282530Y-69905714D02*
X207282530Y-69905714D01*
X207282530Y-70286666D01*
X207330150Y-70381904D01*
X207377769Y-70429523D01*
X207473007Y-70477142D01*
X207615864Y-70477142D01*
X207711102Y-70429523D01*
X207758721Y-70381904D01*
X207806340Y-70286666D01*
X207806340Y-69905714D01*
X207377769Y-70858095D02*
X207330150Y-70905714D01*
X207282530Y-71000952D01*
X207282530Y-71239047D01*
X207330150Y-71334285D01*
X207377769Y-71381904D01*
X207473007Y-71429523D01*
X207568245Y-71429523D01*
X207711102Y-71381904D01*
X208282530Y-70810476D01*
X208282530Y-71429523D01*
X207282530Y-72048571D02*
X207282530Y-72143809D01*
X207330150Y-72239047D01*
X207377769Y-72286666D01*
X207473007Y-72334285D01*
X207663483Y-72381904D01*
X207901578Y-72381904D01*
X208092054Y-72334285D01*
X208187292Y-72286666D01*
X208234911Y-72239047D01*
X208282530Y-72143809D01*
X208282530Y-72048571D01*
X208234911Y-71953333D01*
X208187292Y-71905714D01*
X208092054Y-71858095D01*
X207901578Y-71810476D01*
X207663483Y-71810476D01*
X207473007Y-71858095D01*
X207377769Y-71905714D01*
X207330150Y-71953333D01*
X207282530Y-72048571D01*
X205291680Y-70477142D02*
X204815490Y-70143809D01*
X205291680Y-69905714D02*
X204291680Y-69905714D01*
X204291680Y-70286666D01*
X204339300Y-70381904D01*
X204386919Y-70429523D01*
X204482157Y-70477142D01*
X204625014Y-70477142D01*
X204720252Y-70429523D01*
X204767871Y-70381904D01*
X204815490Y-70286666D01*
X204815490Y-69905714D01*
X205291680Y-71429523D02*
X205291680Y-70858095D01*
X205291680Y-71143809D02*
X204291680Y-71143809D01*
X204434538Y-71048571D01*
X204529776Y-70953333D01*
X204577395Y-70858095D01*
X205291680Y-71905714D02*
X205291680Y-72096190D01*
X205244061Y-72191428D01*
X205196442Y-72239047D01*
X205053585Y-72334285D01*
X204863109Y-72381904D01*
X204482157Y-72381904D01*
X204386919Y-72334285D01*
X204339300Y-72286666D01*
X204291680Y-72191428D01*
X204291680Y-72000952D01*
X204339300Y-71905714D01*
X204386919Y-71858095D01*
X204482157Y-71810476D01*
X204720252Y-71810476D01*
X204815490Y-71858095D01*
X204863109Y-71905714D01*
X204910728Y-72000952D01*
X204910728Y-72191428D01*
X204863109Y-72286666D01*
X204815490Y-72334285D01*
X204720252Y-72381904D01*
X202300830Y-70477142D02*
X201824640Y-70143809D01*
X202300830Y-69905714D02*
X201300830Y-69905714D01*
X201300830Y-70286666D01*
X201348450Y-70381904D01*
X201396069Y-70429523D01*
X201491307Y-70477142D01*
X201634164Y-70477142D01*
X201729402Y-70429523D01*
X201777021Y-70381904D01*
X201824640Y-70286666D01*
X201824640Y-69905714D01*
X202300830Y-71429523D02*
X202300830Y-70858095D01*
X202300830Y-71143809D02*
X201300830Y-71143809D01*
X201443688Y-71048571D01*
X201538926Y-70953333D01*
X201586545Y-70858095D01*
X201729402Y-72000952D02*
X201681783Y-71905714D01*
X201634164Y-71858095D01*
X201538926Y-71810476D01*
X201491307Y-71810476D01*
X201396069Y-71858095D01*
X201348450Y-71905714D01*
X201300830Y-72000952D01*
X201300830Y-72191428D01*
X201348450Y-72286666D01*
X201396069Y-72334285D01*
X201491307Y-72381904D01*
X201538926Y-72381904D01*
X201634164Y-72334285D01*
X201681783Y-72286666D01*
X201729402Y-72191428D01*
X201729402Y-72000952D01*
X201777021Y-71905714D01*
X201824640Y-71858095D01*
X201919878Y-71810476D01*
X202110354Y-71810476D01*
X202205592Y-71858095D01*
X202253211Y-71905714D01*
X202300830Y-72000952D01*
X202300830Y-72191428D01*
X202253211Y-72286666D01*
X202205592Y-72334285D01*
X202110354Y-72381904D01*
X201919878Y-72381904D01*
X201824640Y-72334285D01*
X201777021Y-72286666D01*
X201729402Y-72191428D01*
X199309980Y-70477142D02*
X198833790Y-70143809D01*
X199309980Y-69905714D02*
X198309980Y-69905714D01*
X198309980Y-70286666D01*
X198357600Y-70381904D01*
X198405219Y-70429523D01*
X198500457Y-70477142D01*
X198643314Y-70477142D01*
X198738552Y-70429523D01*
X198786171Y-70381904D01*
X198833790Y-70286666D01*
X198833790Y-69905714D01*
X199309980Y-71429523D02*
X199309980Y-70858095D01*
X199309980Y-71143809D02*
X198309980Y-71143809D01*
X198452838Y-71048571D01*
X198548076Y-70953333D01*
X198595695Y-70858095D01*
X198309980Y-71762857D02*
X198309980Y-72429523D01*
X199309980Y-72000952D01*
X196319130Y-70477142D02*
X195842940Y-70143809D01*
X196319130Y-69905714D02*
X195319130Y-69905714D01*
X195319130Y-70286666D01*
X195366750Y-70381904D01*
X195414369Y-70429523D01*
X195509607Y-70477142D01*
X195652464Y-70477142D01*
X195747702Y-70429523D01*
X195795321Y-70381904D01*
X195842940Y-70286666D01*
X195842940Y-69905714D01*
X196319130Y-71429523D02*
X196319130Y-70858095D01*
X196319130Y-71143809D02*
X195319130Y-71143809D01*
X195461988Y-71048571D01*
X195557226Y-70953333D01*
X195604845Y-70858095D01*
X195319130Y-72286666D02*
X195319130Y-72096190D01*
X195366750Y-72000952D01*
X195414369Y-71953333D01*
X195557226Y-71858095D01*
X195747702Y-71810476D01*
X196128654Y-71810476D01*
X196223892Y-71858095D01*
X196271511Y-71905714D01*
X196319130Y-72000952D01*
X196319130Y-72191428D01*
X196271511Y-72286666D01*
X196223892Y-72334285D01*
X196128654Y-72381904D01*
X195890559Y-72381904D01*
X195795321Y-72334285D01*
X195747702Y-72286666D01*
X195700083Y-72191428D01*
X195700083Y-72000952D01*
X195747702Y-71905714D01*
X195795321Y-71858095D01*
X195890559Y-71810476D01*
X193328280Y-70477142D02*
X192852090Y-70143809D01*
X193328280Y-69905714D02*
X192328280Y-69905714D01*
X192328280Y-70286666D01*
X192375900Y-70381904D01*
X192423519Y-70429523D01*
X192518757Y-70477142D01*
X192661614Y-70477142D01*
X192756852Y-70429523D01*
X192804471Y-70381904D01*
X192852090Y-70286666D01*
X192852090Y-69905714D01*
X193328280Y-71429523D02*
X193328280Y-70858095D01*
X193328280Y-71143809D02*
X192328280Y-71143809D01*
X192471138Y-71048571D01*
X192566376Y-70953333D01*
X192613995Y-70858095D01*
X192328280Y-72334285D02*
X192328280Y-71858095D01*
X192804471Y-71810476D01*
X192756852Y-71858095D01*
X192709233Y-71953333D01*
X192709233Y-72191428D01*
X192756852Y-72286666D01*
X192804471Y-72334285D01*
X192899709Y-72381904D01*
X193137804Y-72381904D01*
X193233042Y-72334285D01*
X193280661Y-72286666D01*
X193328280Y-72191428D01*
X193328280Y-71953333D01*
X193280661Y-71858095D01*
X193233042Y-71810476D01*
X190337430Y-70477142D02*
X189861240Y-70143809D01*
X190337430Y-69905714D02*
X189337430Y-69905714D01*
X189337430Y-70286666D01*
X189385050Y-70381904D01*
X189432669Y-70429523D01*
X189527907Y-70477142D01*
X189670764Y-70477142D01*
X189766002Y-70429523D01*
X189813621Y-70381904D01*
X189861240Y-70286666D01*
X189861240Y-69905714D01*
X190337430Y-71429523D02*
X190337430Y-70858095D01*
X190337430Y-71143809D02*
X189337430Y-71143809D01*
X189480288Y-71048571D01*
X189575526Y-70953333D01*
X189623145Y-70858095D01*
X189670764Y-72286666D02*
X190337430Y-72286666D01*
X189289811Y-72048571D02*
X190004097Y-71810476D01*
X190004097Y-72429523D01*
X187346580Y-70477142D02*
X186870390Y-70143809D01*
X187346580Y-69905714D02*
X186346580Y-69905714D01*
X186346580Y-70286666D01*
X186394200Y-70381904D01*
X186441819Y-70429523D01*
X186537057Y-70477142D01*
X186679914Y-70477142D01*
X186775152Y-70429523D01*
X186822771Y-70381904D01*
X186870390Y-70286666D01*
X186870390Y-69905714D01*
X187346580Y-71429523D02*
X187346580Y-70858095D01*
X187346580Y-71143809D02*
X186346580Y-71143809D01*
X186489438Y-71048571D01*
X186584676Y-70953333D01*
X186632295Y-70858095D01*
X186346580Y-71762857D02*
X186346580Y-72381904D01*
X186727533Y-72048571D01*
X186727533Y-72191428D01*
X186775152Y-72286666D01*
X186822771Y-72334285D01*
X186918009Y-72381904D01*
X187156104Y-72381904D01*
X187251342Y-72334285D01*
X187298961Y-72286666D01*
X187346580Y-72191428D01*
X187346580Y-71905714D01*
X187298961Y-71810476D01*
X187251342Y-71762857D01*
X184354730Y-70477142D02*
X183878540Y-70143809D01*
X184354730Y-69905714D02*
X183354730Y-69905714D01*
X183354730Y-70286666D01*
X183402350Y-70381904D01*
X183449969Y-70429523D01*
X183545207Y-70477142D01*
X183688064Y-70477142D01*
X183783302Y-70429523D01*
X183830921Y-70381904D01*
X183878540Y-70286666D01*
X183878540Y-69905714D01*
X184354730Y-71429523D02*
X184354730Y-70858095D01*
X184354730Y-71143809D02*
X183354730Y-71143809D01*
X183497588Y-71048571D01*
X183592826Y-70953333D01*
X183640445Y-70858095D01*
X183449969Y-71810476D02*
X183402350Y-71858095D01*
X183354730Y-71953333D01*
X183354730Y-72191428D01*
X183402350Y-72286666D01*
X183449969Y-72334285D01*
X183545207Y-72381904D01*
X183640445Y-72381904D01*
X183783302Y-72334285D01*
X184354730Y-71762857D01*
X184354730Y-72381904D01*
X181364880Y-70477142D02*
X180888690Y-70143809D01*
X181364880Y-69905714D02*
X180364880Y-69905714D01*
X180364880Y-70286666D01*
X180412500Y-70381904D01*
X180460119Y-70429523D01*
X180555357Y-70477142D01*
X180698214Y-70477142D01*
X180793452Y-70429523D01*
X180841071Y-70381904D01*
X180888690Y-70286666D01*
X180888690Y-69905714D01*
X181364880Y-71429523D02*
X181364880Y-70858095D01*
X181364880Y-71143809D02*
X180364880Y-71143809D01*
X180507738Y-71048571D01*
X180602976Y-70953333D01*
X180650595Y-70858095D01*
X181364880Y-72381904D02*
X181364880Y-71810476D01*
X181364880Y-72096190D02*
X180364880Y-72096190D01*
X180507738Y-72000952D01*
X180602976Y-71905714D01*
X180650595Y-71810476D01*
X178374030Y-70477142D02*
X177897840Y-70143809D01*
X178374030Y-69905714D02*
X177374030Y-69905714D01*
X177374030Y-70286666D01*
X177421650Y-70381904D01*
X177469269Y-70429523D01*
X177564507Y-70477142D01*
X177707364Y-70477142D01*
X177802602Y-70429523D01*
X177850221Y-70381904D01*
X177897840Y-70286666D01*
X177897840Y-69905714D01*
X178374030Y-71429523D02*
X178374030Y-70858095D01*
X178374030Y-71143809D02*
X177374030Y-71143809D01*
X177516888Y-71048571D01*
X177612126Y-70953333D01*
X177659745Y-70858095D01*
X177374030Y-72048571D02*
X177374030Y-72143809D01*
X177421650Y-72239047D01*
X177469269Y-72286666D01*
X177564507Y-72334285D01*
X177754983Y-72381904D01*
X177993078Y-72381904D01*
X178183554Y-72334285D01*
X178278792Y-72286666D01*
X178326411Y-72239047D01*
X178374030Y-72143809D01*
X178374030Y-72048571D01*
X178326411Y-71953333D01*
X178278792Y-71905714D01*
X178183554Y-71858095D01*
X177993078Y-71810476D01*
X177754983Y-71810476D01*
X177564507Y-71858095D01*
X177469269Y-71905714D01*
X177421650Y-71953333D01*
X177374030Y-72048571D01*
X175383180Y-70953333D02*
X174906990Y-70620000D01*
X175383180Y-70381904D02*
X174383180Y-70381904D01*
X174383180Y-70762857D01*
X174430800Y-70858095D01*
X174478419Y-70905714D01*
X174573657Y-70953333D01*
X174716514Y-70953333D01*
X174811752Y-70905714D01*
X174859371Y-70858095D01*
X174906990Y-70762857D01*
X174906990Y-70381904D01*
X175383180Y-71429523D02*
X175383180Y-71620000D01*
X175335561Y-71715238D01*
X175287942Y-71762857D01*
X175145085Y-71858095D01*
X174954609Y-71905714D01*
X174573657Y-71905714D01*
X174478419Y-71858095D01*
X174430800Y-71810476D01*
X174383180Y-71715238D01*
X174383180Y-71524761D01*
X174430800Y-71429523D01*
X174478419Y-71381904D01*
X174573657Y-71334285D01*
X174811752Y-71334285D01*
X174906990Y-71381904D01*
X174954609Y-71429523D01*
X175002228Y-71524761D01*
X175002228Y-71715238D01*
X174954609Y-71810476D01*
X174906990Y-71858095D01*
X174811752Y-71905714D01*
X172392330Y-70953333D02*
X171916140Y-70620000D01*
X172392330Y-70381904D02*
X171392330Y-70381904D01*
X171392330Y-70762857D01*
X171439950Y-70858095D01*
X171487569Y-70905714D01*
X171582807Y-70953333D01*
X171725664Y-70953333D01*
X171820902Y-70905714D01*
X171868521Y-70858095D01*
X171916140Y-70762857D01*
X171916140Y-70381904D01*
X171820902Y-71524761D02*
X171773283Y-71429523D01*
X171725664Y-71381904D01*
X171630426Y-71334285D01*
X171582807Y-71334285D01*
X171487569Y-71381904D01*
X171439950Y-71429523D01*
X171392330Y-71524761D01*
X171392330Y-71715238D01*
X171439950Y-71810476D01*
X171487569Y-71858095D01*
X171582807Y-71905714D01*
X171630426Y-71905714D01*
X171725664Y-71858095D01*
X171773283Y-71810476D01*
X171820902Y-71715238D01*
X171820902Y-71524761D01*
X171868521Y-71429523D01*
X171916140Y-71381904D01*
X172011378Y-71334285D01*
X172201854Y-71334285D01*
X172297092Y-71381904D01*
X172344711Y-71429523D01*
X172392330Y-71524761D01*
X172392330Y-71715238D01*
X172344711Y-71810476D01*
X172297092Y-71858095D01*
X172201854Y-71905714D01*
X172011378Y-71905714D01*
X171916140Y-71858095D01*
X171868521Y-71810476D01*
X171820902Y-71715238D01*
X169401480Y-70953333D02*
X168925290Y-70620000D01*
X169401480Y-70381904D02*
X168401480Y-70381904D01*
X168401480Y-70762857D01*
X168449100Y-70858095D01*
X168496719Y-70905714D01*
X168591957Y-70953333D01*
X168734814Y-70953333D01*
X168830052Y-70905714D01*
X168877671Y-70858095D01*
X168925290Y-70762857D01*
X168925290Y-70381904D01*
X168401480Y-71286666D02*
X168401480Y-71953333D01*
X169401480Y-71524761D01*
X166410630Y-70953333D02*
X165934440Y-70620000D01*
X166410630Y-70381904D02*
X165410630Y-70381904D01*
X165410630Y-70762857D01*
X165458250Y-70858095D01*
X165505869Y-70905714D01*
X165601107Y-70953333D01*
X165743964Y-70953333D01*
X165839202Y-70905714D01*
X165886821Y-70858095D01*
X165934440Y-70762857D01*
X165934440Y-70381904D01*
X165410630Y-71810476D02*
X165410630Y-71620000D01*
X165458250Y-71524761D01*
X165505869Y-71477142D01*
X165648726Y-71381904D01*
X165839202Y-71334285D01*
X166220154Y-71334285D01*
X166315392Y-71381904D01*
X166363011Y-71429523D01*
X166410630Y-71524761D01*
X166410630Y-71715238D01*
X166363011Y-71810476D01*
X166315392Y-71858095D01*
X166220154Y-71905714D01*
X165982059Y-71905714D01*
X165886821Y-71858095D01*
X165839202Y-71810476D01*
X165791583Y-71715238D01*
X165791583Y-71524761D01*
X165839202Y-71429523D01*
X165886821Y-71381904D01*
X165982059Y-71334285D01*
X163419780Y-70953333D02*
X162943590Y-70620000D01*
X163419780Y-70381904D02*
X162419780Y-70381904D01*
X162419780Y-70762857D01*
X162467400Y-70858095D01*
X162515019Y-70905714D01*
X162610257Y-70953333D01*
X162753114Y-70953333D01*
X162848352Y-70905714D01*
X162895971Y-70858095D01*
X162943590Y-70762857D01*
X162943590Y-70381904D01*
X162419780Y-71858095D02*
X162419780Y-71381904D01*
X162895971Y-71334285D01*
X162848352Y-71381904D01*
X162800733Y-71477142D01*
X162800733Y-71715238D01*
X162848352Y-71810476D01*
X162895971Y-71858095D01*
X162991209Y-71905714D01*
X163229304Y-71905714D01*
X163324542Y-71858095D01*
X163372161Y-71810476D01*
X163419780Y-71715238D01*
X163419780Y-71477142D01*
X163372161Y-71381904D01*
X163324542Y-71334285D01*
X160428930Y-70953333D02*
X159952740Y-70620000D01*
X160428930Y-70381904D02*
X159428930Y-70381904D01*
X159428930Y-70762857D01*
X159476550Y-70858095D01*
X159524169Y-70905714D01*
X159619407Y-70953333D01*
X159762264Y-70953333D01*
X159857502Y-70905714D01*
X159905121Y-70858095D01*
X159952740Y-70762857D01*
X159952740Y-70381904D01*
X159762264Y-71810476D02*
X160428930Y-71810476D01*
X159381311Y-71572380D02*
X160095597Y-71334285D01*
X160095597Y-71953333D01*
X157438080Y-70953333D02*
X156961890Y-70620000D01*
X157438080Y-70381904D02*
X156438080Y-70381904D01*
X156438080Y-70762857D01*
X156485700Y-70858095D01*
X156533319Y-70905714D01*
X156628557Y-70953333D01*
X156771414Y-70953333D01*
X156866652Y-70905714D01*
X156914271Y-70858095D01*
X156961890Y-70762857D01*
X156961890Y-70381904D01*
X156438080Y-71286666D02*
X156438080Y-71905714D01*
X156819033Y-71572380D01*
X156819033Y-71715238D01*
X156866652Y-71810476D01*
X156914271Y-71858095D01*
X157009509Y-71905714D01*
X157247604Y-71905714D01*
X157342842Y-71858095D01*
X157390461Y-71810476D01*
X157438080Y-71715238D01*
X157438080Y-71429523D01*
X157390461Y-71334285D01*
X157342842Y-71286666D01*
X154447230Y-70953333D02*
X153971040Y-70620000D01*
X154447230Y-70381904D02*
X153447230Y-70381904D01*
X153447230Y-70762857D01*
X153494850Y-70858095D01*
X153542469Y-70905714D01*
X153637707Y-70953333D01*
X153780564Y-70953333D01*
X153875802Y-70905714D01*
X153923421Y-70858095D01*
X153971040Y-70762857D01*
X153971040Y-70381904D01*
X153542469Y-71334285D02*
X153494850Y-71381904D01*
X153447230Y-71477142D01*
X153447230Y-71715238D01*
X153494850Y-71810476D01*
X153542469Y-71858095D01*
X153637707Y-71905714D01*
X153732945Y-71905714D01*
X153875802Y-71858095D01*
X154447230Y-71286666D01*
X154447230Y-71905714D01*
X151456380Y-70953333D02*
X150980190Y-70620000D01*
X151456380Y-70381904D02*
X150456380Y-70381904D01*
X150456380Y-70762857D01*
X150504000Y-70858095D01*
X150551619Y-70905714D01*
X150646857Y-70953333D01*
X150789714Y-70953333D01*
X150884952Y-70905714D01*
X150932571Y-70858095D01*
X150980190Y-70762857D01*
X150980190Y-70381904D01*
X151456380Y-71905714D02*
X151456380Y-71334285D01*
X151456380Y-71620000D02*
X150456380Y-71620000D01*
X150599238Y-71524761D01*
X150694476Y-71429523D01*
X150742095Y-71334285D01*
M02*
