M48
; DRILL file {KiCad 5.1.5+dfsg1-2} date Fri 03 Jan 2020 11:49:59 PM EST
; FORMAT={-:-/ absolute / inch / decimal}
; #@! TF.CreationDate,2020-01-03T23:49:59-05:00
; #@! TF.GenerationSoftware,Kicad,Pcbnew,5.1.5+dfsg1-2
; #@! TF.FileFunction,Plated,1,2,PTH
FMAT,2
INCH
T1C0.0157
T2C0.0354
T3C0.0394
T4C0.0433
%
G90
G05
T1
X6.0924Y-2.42
X6.125Y-2.475
X6.14Y-2.12
X6.16Y-2.42
X6.44Y-2.415
X6.47Y-2.46
X6.51Y-2.42
X6.525Y-1.76
X6.57Y-1.76
X6.63Y-2.48
X6.6535Y-2.9134
X6.6535Y-3.1339
X6.66Y-2.53
X6.665Y-1.76
X6.665Y-2.205
X6.6848Y-1.975
X6.6848Y-2.05
X6.79Y-2.42
X6.795Y-1.69
X6.8224Y-2.05
X6.83Y-2.46
X6.835Y-1.78
X6.85Y-1.9533
X6.86Y-2.42
X6.93Y-2.05
X7.0039Y-2.9134
X7.0039Y-3.4331
X7.005Y-2.48
X7.02Y-1.69
X7.075Y-1.78
X7.095Y-1.98
X7.11Y-2.085
X7.11Y-2.155
X7.15Y-2.42
X7.18Y-2.46
X7.21Y-2.42
X7.24Y-2.055
X7.2555Y-2.0962
X7.3465Y-1.5827
X7.35Y-2.26
X7.35Y-2.48
X7.3543Y-2.9134
X7.3543Y-3.7323
X7.3698Y-2.0376
X7.38Y-2.42
X7.385Y-1.7576
X7.41Y-1.985
X7.44Y-1.795
X7.4588Y-1.8971
X7.46Y-2.055
X7.48Y-2.19
X7.4846Y-1.7936
X7.4949Y-2.0119
X7.4957Y-1.9721
X7.505Y-1.595
X7.52Y-1.9
X7.53Y-2.46
X7.55Y-2.0
X7.56Y-1.6
X7.56Y-2.42
X7.575Y-1.74
X7.575Y-1.78
X7.595Y-1.965
X7.5953Y-2.0163
X7.6267Y-2.04
X7.6299Y-1.7795
X7.6772Y-1.7756
X7.69Y-1.98
X7.7Y-2.42
X7.7028Y-2.9193
X7.7028Y-4.0354
X7.72Y-1.655
X7.76Y-2.13
X7.7705Y-1.6849
X7.815Y-2.13
X7.815Y-1.975
X7.845Y-2.075
X7.85Y-2.42
X7.88Y-1.91
X7.88Y-2.475
X7.9126Y-2.42
X7.915Y-1.98
X7.9426Y-2.13
X7.96Y-2.005
X8.0512Y-2.9134
X8.0512Y-4.3346
X8.055Y-2.42
X8.06Y-2.31
X8.06Y-2.245
X8.205Y-2.42
X8.2338Y-2.46
X8.2626Y-2.42
T2
X6.0Y-3.6
X6.085Y-3.6
X6.17Y-3.6
X6.255Y-3.6
X7.4Y-3.6
X7.485Y-3.6
X7.57Y-3.6
X7.655Y-3.6
X7.75Y-3.6
X7.835Y-3.6
X7.92Y-3.6
X8.005Y-3.6
X6.7Y-4.5
X6.785Y-4.5
X6.87Y-4.5
X6.955Y-4.5
X7.4Y-3.0
X7.485Y-3.0
X7.57Y-3.0
X7.655Y-3.0
X6.35Y-4.2
X6.435Y-4.2
X6.52Y-4.2
X6.605Y-4.2
X7.75Y-3.9
X7.835Y-3.9
X7.92Y-3.9
X8.005Y-3.9
X7.05Y-3.3
X7.135Y-3.3
X7.22Y-3.3
X7.305Y-3.3
X6.0Y-4.5
X6.085Y-4.5
X6.17Y-4.5
X6.255Y-4.5
X7.05Y-3.6
X7.135Y-3.6
X7.22Y-3.6
X7.305Y-3.6
X7.05Y-3.0
X7.135Y-3.0
X7.22Y-3.0
X7.305Y-3.0
X6.7Y-3.6
X6.785Y-3.6
X6.87Y-3.6
X6.955Y-3.6
X6.7Y-3.3
X6.785Y-3.3
X6.87Y-3.3
X6.955Y-3.3
X7.4Y-4.5
X7.485Y-4.5
X7.57Y-4.5
X7.655Y-4.5
X7.4Y-3.3
X7.485Y-3.3
X7.57Y-3.3
X7.655Y-3.3
X7.75Y-3.3
X7.835Y-3.3
X7.92Y-3.3
X8.005Y-3.3
X6.7Y-3.0
X6.785Y-3.0
X6.87Y-3.0
X6.955Y-3.0
X6.0Y-3.9
X6.085Y-3.9
X6.17Y-3.9
X6.255Y-3.9
X8.06Y-2.05
X8.145Y-2.05
X8.23Y-2.05
X8.315Y-2.05
X6.7Y-4.2
X6.785Y-4.2
X6.87Y-4.2
X6.955Y-4.2
X8.1Y-3.0
X8.185Y-3.0
X8.27Y-3.0
X8.355Y-3.0
X8.1Y-3.3
X8.185Y-3.3
X8.27Y-3.3
X8.355Y-3.3
X6.26Y-1.98
X6.26Y-2.1099
X6.3584Y-1.98
X6.3584Y-2.1099
X6.4569Y-1.98
X6.4569Y-2.1099
X7.05Y-4.5
X7.135Y-4.5
X7.22Y-4.5
X7.305Y-4.5
X7.75Y-4.2
X7.835Y-4.2
X7.92Y-4.2
X8.005Y-4.2
X7.75Y-3.0
X7.835Y-3.0
X7.92Y-3.0
X8.005Y-3.0
X7.75Y-4.5
X7.835Y-4.5
X7.92Y-4.5
X8.005Y-4.5
X6.35Y-3.3
X6.435Y-3.3
X6.52Y-3.3
X6.605Y-3.3
X8.1Y-3.6
X8.185Y-3.6
X8.27Y-3.6
X8.355Y-3.6
X8.1Y-3.9
X8.185Y-3.9
X8.27Y-3.9
X8.355Y-3.9
X8.1Y-4.2
X8.185Y-4.2
X8.27Y-4.2
X8.355Y-4.2
X7.05Y-3.9
X7.135Y-3.9
X7.22Y-3.9
X7.305Y-3.9
X6.0Y-3.3
X6.085Y-3.3
X6.17Y-3.3
X6.255Y-3.3
X6.0Y-4.2
X6.085Y-4.2
X6.17Y-4.2
X6.255Y-4.2
X7.4Y-4.2
X7.485Y-4.2
X7.57Y-4.2
X7.655Y-4.2
X6.7Y-3.9
X6.785Y-3.9
X6.87Y-3.9
X6.955Y-3.9
X6.35Y-3.9
X6.435Y-3.9
X6.52Y-3.9
X6.605Y-3.9
X6.35Y-3.0
X6.435Y-3.0
X6.52Y-3.0
X6.605Y-3.0
X8.1Y-4.5
X8.185Y-4.5
X8.27Y-4.5
X8.355Y-4.5
X7.05Y-4.2
X7.135Y-4.2
X7.22Y-4.2
X7.305Y-4.2
X6.35Y-4.5
X6.435Y-4.5
X6.52Y-4.5
X6.605Y-4.5
X6.35Y-3.6
X6.435Y-3.6
X6.52Y-3.6
X6.605Y-3.6
X7.4Y-3.9
X7.485Y-3.9
X7.57Y-3.9
X7.655Y-3.9
X6.0Y-3.0
X6.085Y-3.0
X6.17Y-3.0
X6.255Y-3.0
T3
X6.78Y-1.585
X6.88Y-1.585
X6.98Y-1.585
X7.08Y-1.585
X7.18Y-1.585
X6.435Y-1.59
X6.535Y-1.59
X7.815Y-1.59
X7.915Y-1.59
T4
X7.789Y-2.3479
X7.789Y-2.6038
X7.9661Y-2.3479
X7.9661Y-2.6038
X7.439Y-2.3479
X7.439Y-2.6038
X7.6161Y-2.3479
X7.6161Y-2.6038
X7.089Y-2.3479
X7.089Y-2.6038
X7.2661Y-2.3479
X7.2661Y-2.6038
X5.97Y-1.5928
X5.97Y-1.77
X6.2259Y-1.5928
X6.2259Y-1.77
X8.139Y-2.3479
X8.139Y-2.6038
X8.3161Y-2.3479
X8.3161Y-2.6038
X6.739Y-2.3479
X6.739Y-2.6038
X6.9161Y-2.3479
X6.9161Y-2.6038
X8.1341Y-1.5928
X8.1341Y-1.77
X8.39Y-1.5928
X8.39Y-1.77
X6.389Y-2.3479
X6.389Y-2.6038
X6.5661Y-2.3479
X6.5661Y-2.6038
X6.039Y-2.3479
X6.039Y-2.6038
X6.2161Y-2.3479
X6.2161Y-2.6038
T0
M30
