G04 #@! TF.GenerationSoftware,KiCad,Pcbnew,(5.1.5)-3*
G04 #@! TF.CreationDate,2020-03-12T17:28:53-04:00*
G04 #@! TF.ProjectId,PCB,5043422e-6b69-4636-9164-5f7063625858,rev?*
G04 #@! TF.SameCoordinates,Original*
G04 #@! TF.FileFunction,Copper,L2,Bot*
G04 #@! TF.FilePolarity,Positive*
%FSLAX46Y46*%
G04 Gerber Fmt 4.6, Leading zero omitted, Abs format (unit mm)*
G04 Created by KiCad (PCBNEW (5.1.5)-3) date 2020-03-12 17:28:53*
%MOMM*%
%LPD*%
G04 APERTURE LIST*
%ADD10C,2.000000*%
%ADD11O,1.700000X1.700000*%
%ADD12R,1.700000X1.700000*%
%ADD13C,0.100000*%
%ADD14C,1.800000*%
%ADD15C,0.800000*%
%ADD16C,0.381000*%
G04 APERTURE END LIST*
D10*
X236673000Y-53190000D03*
X241173000Y-53190000D03*
X236673000Y-59690000D03*
X241173000Y-59690000D03*
X228977500Y-53190000D03*
X233477500Y-53190000D03*
X228977500Y-59690000D03*
X233477500Y-59690000D03*
X221282000Y-53190000D03*
X225782000Y-53190000D03*
X221282000Y-59690000D03*
X225782000Y-59690000D03*
X213586500Y-53190000D03*
X218086500Y-53190000D03*
X213586500Y-59690000D03*
X218086500Y-59690000D03*
X205891000Y-53190000D03*
X210391000Y-53190000D03*
X205891000Y-59690000D03*
X210391000Y-59690000D03*
X198195500Y-53190000D03*
X202695500Y-53190000D03*
X198195500Y-59690000D03*
X202695500Y-59690000D03*
X190500000Y-53190000D03*
X195000000Y-53190000D03*
X190500000Y-59690000D03*
X195000000Y-59690000D03*
D11*
X246380000Y-57150000D03*
X246380000Y-59690000D03*
X246380000Y-62230000D03*
X246380000Y-64770000D03*
X246380000Y-67310000D03*
X246380000Y-69850000D03*
X246380000Y-72390000D03*
X246380000Y-74930000D03*
X246380000Y-77470000D03*
X246380000Y-80010000D03*
X246380000Y-82550000D03*
X246380000Y-85090000D03*
X246380000Y-87630000D03*
X246380000Y-90170000D03*
X246380000Y-92710000D03*
X246380000Y-95250000D03*
X246380000Y-97790000D03*
D12*
X246380000Y-100330000D03*
X185420000Y-100330000D03*
D11*
X185420000Y-97790000D03*
X185420000Y-95250000D03*
X185420000Y-92710000D03*
X185420000Y-90170000D03*
X185420000Y-87630000D03*
X185420000Y-85090000D03*
X185420000Y-82550000D03*
X185420000Y-80010000D03*
X185420000Y-77470000D03*
X185420000Y-74930000D03*
X185420000Y-72390000D03*
X185420000Y-69850000D03*
X185420000Y-67310000D03*
X185420000Y-64770000D03*
X185420000Y-62230000D03*
X185420000Y-59690000D03*
X185420000Y-57150000D03*
G04 #@! TA.AperFunction,ComponentPad*
D13*
G36*
X206361108Y-101210167D02*
G01*
X206404791Y-101216647D01*
X206447628Y-101227377D01*
X206489208Y-101242254D01*
X206529129Y-101261135D01*
X206567007Y-101283839D01*
X206602477Y-101310145D01*
X206635198Y-101339802D01*
X206664855Y-101372523D01*
X206691161Y-101407993D01*
X206713865Y-101445871D01*
X206732746Y-101485792D01*
X206747623Y-101527372D01*
X206758353Y-101570209D01*
X206764833Y-101613892D01*
X206767000Y-101658000D01*
X206767000Y-102558000D01*
X206764833Y-102602108D01*
X206758353Y-102645791D01*
X206747623Y-102688628D01*
X206732746Y-102730208D01*
X206713865Y-102770129D01*
X206691161Y-102808007D01*
X206664855Y-102843477D01*
X206635198Y-102876198D01*
X206602477Y-102905855D01*
X206567007Y-102932161D01*
X206529129Y-102954865D01*
X206489208Y-102973746D01*
X206447628Y-102988623D01*
X206404791Y-102999353D01*
X206361108Y-103005833D01*
X206317000Y-103008000D01*
X205417000Y-103008000D01*
X205372892Y-103005833D01*
X205329209Y-102999353D01*
X205286372Y-102988623D01*
X205244792Y-102973746D01*
X205204871Y-102954865D01*
X205166993Y-102932161D01*
X205131523Y-102905855D01*
X205098802Y-102876198D01*
X205069145Y-102843477D01*
X205042839Y-102808007D01*
X205020135Y-102770129D01*
X205001254Y-102730208D01*
X204986377Y-102688628D01*
X204975647Y-102645791D01*
X204969167Y-102602108D01*
X204967000Y-102558000D01*
X204967000Y-101658000D01*
X204969167Y-101613892D01*
X204975647Y-101570209D01*
X204986377Y-101527372D01*
X205001254Y-101485792D01*
X205020135Y-101445871D01*
X205042839Y-101407993D01*
X205069145Y-101372523D01*
X205098802Y-101339802D01*
X205131523Y-101310145D01*
X205166993Y-101283839D01*
X205204871Y-101261135D01*
X205244792Y-101242254D01*
X205286372Y-101227377D01*
X205329209Y-101216647D01*
X205372892Y-101210167D01*
X205417000Y-101208000D01*
X206317000Y-101208000D01*
X206361108Y-101210167D01*
G37*
G04 #@! TD.AperFunction*
D14*
X207645000Y-103632000D03*
X209169000Y-102108000D03*
X210693000Y-103632000D03*
G04 #@! TA.AperFunction,ComponentPad*
D13*
G36*
X236841108Y-101210167D02*
G01*
X236884791Y-101216647D01*
X236927628Y-101227377D01*
X236969208Y-101242254D01*
X237009129Y-101261135D01*
X237047007Y-101283839D01*
X237082477Y-101310145D01*
X237115198Y-101339802D01*
X237144855Y-101372523D01*
X237171161Y-101407993D01*
X237193865Y-101445871D01*
X237212746Y-101485792D01*
X237227623Y-101527372D01*
X237238353Y-101570209D01*
X237244833Y-101613892D01*
X237247000Y-101658000D01*
X237247000Y-102558000D01*
X237244833Y-102602108D01*
X237238353Y-102645791D01*
X237227623Y-102688628D01*
X237212746Y-102730208D01*
X237193865Y-102770129D01*
X237171161Y-102808007D01*
X237144855Y-102843477D01*
X237115198Y-102876198D01*
X237082477Y-102905855D01*
X237047007Y-102932161D01*
X237009129Y-102954865D01*
X236969208Y-102973746D01*
X236927628Y-102988623D01*
X236884791Y-102999353D01*
X236841108Y-103005833D01*
X236797000Y-103008000D01*
X235897000Y-103008000D01*
X235852892Y-103005833D01*
X235809209Y-102999353D01*
X235766372Y-102988623D01*
X235724792Y-102973746D01*
X235684871Y-102954865D01*
X235646993Y-102932161D01*
X235611523Y-102905855D01*
X235578802Y-102876198D01*
X235549145Y-102843477D01*
X235522839Y-102808007D01*
X235500135Y-102770129D01*
X235481254Y-102730208D01*
X235466377Y-102688628D01*
X235455647Y-102645791D01*
X235449167Y-102602108D01*
X235447000Y-102558000D01*
X235447000Y-101658000D01*
X235449167Y-101613892D01*
X235455647Y-101570209D01*
X235466377Y-101527372D01*
X235481254Y-101485792D01*
X235500135Y-101445871D01*
X235522839Y-101407993D01*
X235549145Y-101372523D01*
X235578802Y-101339802D01*
X235611523Y-101310145D01*
X235646993Y-101283839D01*
X235684871Y-101261135D01*
X235724792Y-101242254D01*
X235766372Y-101227377D01*
X235809209Y-101216647D01*
X235852892Y-101210167D01*
X235897000Y-101208000D01*
X236797000Y-101208000D01*
X236841108Y-101210167D01*
G37*
G04 #@! TD.AperFunction*
D14*
X238125000Y-103632000D03*
X239649000Y-102108000D03*
X241173000Y-103632000D03*
G04 #@! TA.AperFunction,ComponentPad*
D13*
G36*
X229221108Y-101210167D02*
G01*
X229264791Y-101216647D01*
X229307628Y-101227377D01*
X229349208Y-101242254D01*
X229389129Y-101261135D01*
X229427007Y-101283839D01*
X229462477Y-101310145D01*
X229495198Y-101339802D01*
X229524855Y-101372523D01*
X229551161Y-101407993D01*
X229573865Y-101445871D01*
X229592746Y-101485792D01*
X229607623Y-101527372D01*
X229618353Y-101570209D01*
X229624833Y-101613892D01*
X229627000Y-101658000D01*
X229627000Y-102558000D01*
X229624833Y-102602108D01*
X229618353Y-102645791D01*
X229607623Y-102688628D01*
X229592746Y-102730208D01*
X229573865Y-102770129D01*
X229551161Y-102808007D01*
X229524855Y-102843477D01*
X229495198Y-102876198D01*
X229462477Y-102905855D01*
X229427007Y-102932161D01*
X229389129Y-102954865D01*
X229349208Y-102973746D01*
X229307628Y-102988623D01*
X229264791Y-102999353D01*
X229221108Y-103005833D01*
X229177000Y-103008000D01*
X228277000Y-103008000D01*
X228232892Y-103005833D01*
X228189209Y-102999353D01*
X228146372Y-102988623D01*
X228104792Y-102973746D01*
X228064871Y-102954865D01*
X228026993Y-102932161D01*
X227991523Y-102905855D01*
X227958802Y-102876198D01*
X227929145Y-102843477D01*
X227902839Y-102808007D01*
X227880135Y-102770129D01*
X227861254Y-102730208D01*
X227846377Y-102688628D01*
X227835647Y-102645791D01*
X227829167Y-102602108D01*
X227827000Y-102558000D01*
X227827000Y-101658000D01*
X227829167Y-101613892D01*
X227835647Y-101570209D01*
X227846377Y-101527372D01*
X227861254Y-101485792D01*
X227880135Y-101445871D01*
X227902839Y-101407993D01*
X227929145Y-101372523D01*
X227958802Y-101339802D01*
X227991523Y-101310145D01*
X228026993Y-101283839D01*
X228064871Y-101261135D01*
X228104792Y-101242254D01*
X228146372Y-101227377D01*
X228189209Y-101216647D01*
X228232892Y-101210167D01*
X228277000Y-101208000D01*
X229177000Y-101208000D01*
X229221108Y-101210167D01*
G37*
G04 #@! TD.AperFunction*
D14*
X230505000Y-103632000D03*
X232029000Y-102108000D03*
X233553000Y-103632000D03*
G04 #@! TA.AperFunction,ComponentPad*
D13*
G36*
X221601108Y-101210167D02*
G01*
X221644791Y-101216647D01*
X221687628Y-101227377D01*
X221729208Y-101242254D01*
X221769129Y-101261135D01*
X221807007Y-101283839D01*
X221842477Y-101310145D01*
X221875198Y-101339802D01*
X221904855Y-101372523D01*
X221931161Y-101407993D01*
X221953865Y-101445871D01*
X221972746Y-101485792D01*
X221987623Y-101527372D01*
X221998353Y-101570209D01*
X222004833Y-101613892D01*
X222007000Y-101658000D01*
X222007000Y-102558000D01*
X222004833Y-102602108D01*
X221998353Y-102645791D01*
X221987623Y-102688628D01*
X221972746Y-102730208D01*
X221953865Y-102770129D01*
X221931161Y-102808007D01*
X221904855Y-102843477D01*
X221875198Y-102876198D01*
X221842477Y-102905855D01*
X221807007Y-102932161D01*
X221769129Y-102954865D01*
X221729208Y-102973746D01*
X221687628Y-102988623D01*
X221644791Y-102999353D01*
X221601108Y-103005833D01*
X221557000Y-103008000D01*
X220657000Y-103008000D01*
X220612892Y-103005833D01*
X220569209Y-102999353D01*
X220526372Y-102988623D01*
X220484792Y-102973746D01*
X220444871Y-102954865D01*
X220406993Y-102932161D01*
X220371523Y-102905855D01*
X220338802Y-102876198D01*
X220309145Y-102843477D01*
X220282839Y-102808007D01*
X220260135Y-102770129D01*
X220241254Y-102730208D01*
X220226377Y-102688628D01*
X220215647Y-102645791D01*
X220209167Y-102602108D01*
X220207000Y-102558000D01*
X220207000Y-101658000D01*
X220209167Y-101613892D01*
X220215647Y-101570209D01*
X220226377Y-101527372D01*
X220241254Y-101485792D01*
X220260135Y-101445871D01*
X220282839Y-101407993D01*
X220309145Y-101372523D01*
X220338802Y-101339802D01*
X220371523Y-101310145D01*
X220406993Y-101283839D01*
X220444871Y-101261135D01*
X220484792Y-101242254D01*
X220526372Y-101227377D01*
X220569209Y-101216647D01*
X220612892Y-101210167D01*
X220657000Y-101208000D01*
X221557000Y-101208000D01*
X221601108Y-101210167D01*
G37*
G04 #@! TD.AperFunction*
D14*
X222885000Y-103632000D03*
X224409000Y-102108000D03*
X225933000Y-103632000D03*
G04 #@! TA.AperFunction,ComponentPad*
D13*
G36*
X213981108Y-101210167D02*
G01*
X214024791Y-101216647D01*
X214067628Y-101227377D01*
X214109208Y-101242254D01*
X214149129Y-101261135D01*
X214187007Y-101283839D01*
X214222477Y-101310145D01*
X214255198Y-101339802D01*
X214284855Y-101372523D01*
X214311161Y-101407993D01*
X214333865Y-101445871D01*
X214352746Y-101485792D01*
X214367623Y-101527372D01*
X214378353Y-101570209D01*
X214384833Y-101613892D01*
X214387000Y-101658000D01*
X214387000Y-102558000D01*
X214384833Y-102602108D01*
X214378353Y-102645791D01*
X214367623Y-102688628D01*
X214352746Y-102730208D01*
X214333865Y-102770129D01*
X214311161Y-102808007D01*
X214284855Y-102843477D01*
X214255198Y-102876198D01*
X214222477Y-102905855D01*
X214187007Y-102932161D01*
X214149129Y-102954865D01*
X214109208Y-102973746D01*
X214067628Y-102988623D01*
X214024791Y-102999353D01*
X213981108Y-103005833D01*
X213937000Y-103008000D01*
X213037000Y-103008000D01*
X212992892Y-103005833D01*
X212949209Y-102999353D01*
X212906372Y-102988623D01*
X212864792Y-102973746D01*
X212824871Y-102954865D01*
X212786993Y-102932161D01*
X212751523Y-102905855D01*
X212718802Y-102876198D01*
X212689145Y-102843477D01*
X212662839Y-102808007D01*
X212640135Y-102770129D01*
X212621254Y-102730208D01*
X212606377Y-102688628D01*
X212595647Y-102645791D01*
X212589167Y-102602108D01*
X212587000Y-102558000D01*
X212587000Y-101658000D01*
X212589167Y-101613892D01*
X212595647Y-101570209D01*
X212606377Y-101527372D01*
X212621254Y-101485792D01*
X212640135Y-101445871D01*
X212662839Y-101407993D01*
X212689145Y-101372523D01*
X212718802Y-101339802D01*
X212751523Y-101310145D01*
X212786993Y-101283839D01*
X212824871Y-101261135D01*
X212864792Y-101242254D01*
X212906372Y-101227377D01*
X212949209Y-101216647D01*
X212992892Y-101210167D01*
X213037000Y-101208000D01*
X213937000Y-101208000D01*
X213981108Y-101210167D01*
G37*
G04 #@! TD.AperFunction*
D14*
X215265000Y-103632000D03*
X216789000Y-102108000D03*
X218313000Y-103632000D03*
G04 #@! TA.AperFunction,ComponentPad*
D13*
G36*
X198741108Y-101210167D02*
G01*
X198784791Y-101216647D01*
X198827628Y-101227377D01*
X198869208Y-101242254D01*
X198909129Y-101261135D01*
X198947007Y-101283839D01*
X198982477Y-101310145D01*
X199015198Y-101339802D01*
X199044855Y-101372523D01*
X199071161Y-101407993D01*
X199093865Y-101445871D01*
X199112746Y-101485792D01*
X199127623Y-101527372D01*
X199138353Y-101570209D01*
X199144833Y-101613892D01*
X199147000Y-101658000D01*
X199147000Y-102558000D01*
X199144833Y-102602108D01*
X199138353Y-102645791D01*
X199127623Y-102688628D01*
X199112746Y-102730208D01*
X199093865Y-102770129D01*
X199071161Y-102808007D01*
X199044855Y-102843477D01*
X199015198Y-102876198D01*
X198982477Y-102905855D01*
X198947007Y-102932161D01*
X198909129Y-102954865D01*
X198869208Y-102973746D01*
X198827628Y-102988623D01*
X198784791Y-102999353D01*
X198741108Y-103005833D01*
X198697000Y-103008000D01*
X197797000Y-103008000D01*
X197752892Y-103005833D01*
X197709209Y-102999353D01*
X197666372Y-102988623D01*
X197624792Y-102973746D01*
X197584871Y-102954865D01*
X197546993Y-102932161D01*
X197511523Y-102905855D01*
X197478802Y-102876198D01*
X197449145Y-102843477D01*
X197422839Y-102808007D01*
X197400135Y-102770129D01*
X197381254Y-102730208D01*
X197366377Y-102688628D01*
X197355647Y-102645791D01*
X197349167Y-102602108D01*
X197347000Y-102558000D01*
X197347000Y-101658000D01*
X197349167Y-101613892D01*
X197355647Y-101570209D01*
X197366377Y-101527372D01*
X197381254Y-101485792D01*
X197400135Y-101445871D01*
X197422839Y-101407993D01*
X197449145Y-101372523D01*
X197478802Y-101339802D01*
X197511523Y-101310145D01*
X197546993Y-101283839D01*
X197584871Y-101261135D01*
X197624792Y-101242254D01*
X197666372Y-101227377D01*
X197709209Y-101216647D01*
X197752892Y-101210167D01*
X197797000Y-101208000D01*
X198697000Y-101208000D01*
X198741108Y-101210167D01*
G37*
G04 #@! TD.AperFunction*
D14*
X200025000Y-103632000D03*
X201549000Y-102108000D03*
X203073000Y-103632000D03*
G04 #@! TA.AperFunction,ComponentPad*
D13*
G36*
X191121108Y-101210167D02*
G01*
X191164791Y-101216647D01*
X191207628Y-101227377D01*
X191249208Y-101242254D01*
X191289129Y-101261135D01*
X191327007Y-101283839D01*
X191362477Y-101310145D01*
X191395198Y-101339802D01*
X191424855Y-101372523D01*
X191451161Y-101407993D01*
X191473865Y-101445871D01*
X191492746Y-101485792D01*
X191507623Y-101527372D01*
X191518353Y-101570209D01*
X191524833Y-101613892D01*
X191527000Y-101658000D01*
X191527000Y-102558000D01*
X191524833Y-102602108D01*
X191518353Y-102645791D01*
X191507623Y-102688628D01*
X191492746Y-102730208D01*
X191473865Y-102770129D01*
X191451161Y-102808007D01*
X191424855Y-102843477D01*
X191395198Y-102876198D01*
X191362477Y-102905855D01*
X191327007Y-102932161D01*
X191289129Y-102954865D01*
X191249208Y-102973746D01*
X191207628Y-102988623D01*
X191164791Y-102999353D01*
X191121108Y-103005833D01*
X191077000Y-103008000D01*
X190177000Y-103008000D01*
X190132892Y-103005833D01*
X190089209Y-102999353D01*
X190046372Y-102988623D01*
X190004792Y-102973746D01*
X189964871Y-102954865D01*
X189926993Y-102932161D01*
X189891523Y-102905855D01*
X189858802Y-102876198D01*
X189829145Y-102843477D01*
X189802839Y-102808007D01*
X189780135Y-102770129D01*
X189761254Y-102730208D01*
X189746377Y-102688628D01*
X189735647Y-102645791D01*
X189729167Y-102602108D01*
X189727000Y-102558000D01*
X189727000Y-101658000D01*
X189729167Y-101613892D01*
X189735647Y-101570209D01*
X189746377Y-101527372D01*
X189761254Y-101485792D01*
X189780135Y-101445871D01*
X189802839Y-101407993D01*
X189829145Y-101372523D01*
X189858802Y-101339802D01*
X189891523Y-101310145D01*
X189926993Y-101283839D01*
X189964871Y-101261135D01*
X190004792Y-101242254D01*
X190046372Y-101227377D01*
X190089209Y-101216647D01*
X190132892Y-101210167D01*
X190177000Y-101208000D01*
X191077000Y-101208000D01*
X191121108Y-101210167D01*
G37*
G04 #@! TD.AperFunction*
D14*
X192405000Y-103632000D03*
X193929000Y-102108000D03*
X195453000Y-103632000D03*
G04 #@! TA.AperFunction,ComponentPad*
D13*
G36*
X236841108Y-93590167D02*
G01*
X236884791Y-93596647D01*
X236927628Y-93607377D01*
X236969208Y-93622254D01*
X237009129Y-93641135D01*
X237047007Y-93663839D01*
X237082477Y-93690145D01*
X237115198Y-93719802D01*
X237144855Y-93752523D01*
X237171161Y-93787993D01*
X237193865Y-93825871D01*
X237212746Y-93865792D01*
X237227623Y-93907372D01*
X237238353Y-93950209D01*
X237244833Y-93993892D01*
X237247000Y-94038000D01*
X237247000Y-94938000D01*
X237244833Y-94982108D01*
X237238353Y-95025791D01*
X237227623Y-95068628D01*
X237212746Y-95110208D01*
X237193865Y-95150129D01*
X237171161Y-95188007D01*
X237144855Y-95223477D01*
X237115198Y-95256198D01*
X237082477Y-95285855D01*
X237047007Y-95312161D01*
X237009129Y-95334865D01*
X236969208Y-95353746D01*
X236927628Y-95368623D01*
X236884791Y-95379353D01*
X236841108Y-95385833D01*
X236797000Y-95388000D01*
X235897000Y-95388000D01*
X235852892Y-95385833D01*
X235809209Y-95379353D01*
X235766372Y-95368623D01*
X235724792Y-95353746D01*
X235684871Y-95334865D01*
X235646993Y-95312161D01*
X235611523Y-95285855D01*
X235578802Y-95256198D01*
X235549145Y-95223477D01*
X235522839Y-95188007D01*
X235500135Y-95150129D01*
X235481254Y-95110208D01*
X235466377Y-95068628D01*
X235455647Y-95025791D01*
X235449167Y-94982108D01*
X235447000Y-94938000D01*
X235447000Y-94038000D01*
X235449167Y-93993892D01*
X235455647Y-93950209D01*
X235466377Y-93907372D01*
X235481254Y-93865792D01*
X235500135Y-93825871D01*
X235522839Y-93787993D01*
X235549145Y-93752523D01*
X235578802Y-93719802D01*
X235611523Y-93690145D01*
X235646993Y-93663839D01*
X235684871Y-93641135D01*
X235724792Y-93622254D01*
X235766372Y-93607377D01*
X235809209Y-93596647D01*
X235852892Y-93590167D01*
X235897000Y-93588000D01*
X236797000Y-93588000D01*
X236841108Y-93590167D01*
G37*
G04 #@! TD.AperFunction*
D14*
X238125000Y-96012000D03*
X239649000Y-94488000D03*
X241173000Y-96012000D03*
G04 #@! TA.AperFunction,ComponentPad*
D13*
G36*
X229221108Y-93590167D02*
G01*
X229264791Y-93596647D01*
X229307628Y-93607377D01*
X229349208Y-93622254D01*
X229389129Y-93641135D01*
X229427007Y-93663839D01*
X229462477Y-93690145D01*
X229495198Y-93719802D01*
X229524855Y-93752523D01*
X229551161Y-93787993D01*
X229573865Y-93825871D01*
X229592746Y-93865792D01*
X229607623Y-93907372D01*
X229618353Y-93950209D01*
X229624833Y-93993892D01*
X229627000Y-94038000D01*
X229627000Y-94938000D01*
X229624833Y-94982108D01*
X229618353Y-95025791D01*
X229607623Y-95068628D01*
X229592746Y-95110208D01*
X229573865Y-95150129D01*
X229551161Y-95188007D01*
X229524855Y-95223477D01*
X229495198Y-95256198D01*
X229462477Y-95285855D01*
X229427007Y-95312161D01*
X229389129Y-95334865D01*
X229349208Y-95353746D01*
X229307628Y-95368623D01*
X229264791Y-95379353D01*
X229221108Y-95385833D01*
X229177000Y-95388000D01*
X228277000Y-95388000D01*
X228232892Y-95385833D01*
X228189209Y-95379353D01*
X228146372Y-95368623D01*
X228104792Y-95353746D01*
X228064871Y-95334865D01*
X228026993Y-95312161D01*
X227991523Y-95285855D01*
X227958802Y-95256198D01*
X227929145Y-95223477D01*
X227902839Y-95188007D01*
X227880135Y-95150129D01*
X227861254Y-95110208D01*
X227846377Y-95068628D01*
X227835647Y-95025791D01*
X227829167Y-94982108D01*
X227827000Y-94938000D01*
X227827000Y-94038000D01*
X227829167Y-93993892D01*
X227835647Y-93950209D01*
X227846377Y-93907372D01*
X227861254Y-93865792D01*
X227880135Y-93825871D01*
X227902839Y-93787993D01*
X227929145Y-93752523D01*
X227958802Y-93719802D01*
X227991523Y-93690145D01*
X228026993Y-93663839D01*
X228064871Y-93641135D01*
X228104792Y-93622254D01*
X228146372Y-93607377D01*
X228189209Y-93596647D01*
X228232892Y-93590167D01*
X228277000Y-93588000D01*
X229177000Y-93588000D01*
X229221108Y-93590167D01*
G37*
G04 #@! TD.AperFunction*
D14*
X230505000Y-96012000D03*
X232029000Y-94488000D03*
X233553000Y-96012000D03*
G04 #@! TA.AperFunction,ComponentPad*
D13*
G36*
X221601108Y-93590167D02*
G01*
X221644791Y-93596647D01*
X221687628Y-93607377D01*
X221729208Y-93622254D01*
X221769129Y-93641135D01*
X221807007Y-93663839D01*
X221842477Y-93690145D01*
X221875198Y-93719802D01*
X221904855Y-93752523D01*
X221931161Y-93787993D01*
X221953865Y-93825871D01*
X221972746Y-93865792D01*
X221987623Y-93907372D01*
X221998353Y-93950209D01*
X222004833Y-93993892D01*
X222007000Y-94038000D01*
X222007000Y-94938000D01*
X222004833Y-94982108D01*
X221998353Y-95025791D01*
X221987623Y-95068628D01*
X221972746Y-95110208D01*
X221953865Y-95150129D01*
X221931161Y-95188007D01*
X221904855Y-95223477D01*
X221875198Y-95256198D01*
X221842477Y-95285855D01*
X221807007Y-95312161D01*
X221769129Y-95334865D01*
X221729208Y-95353746D01*
X221687628Y-95368623D01*
X221644791Y-95379353D01*
X221601108Y-95385833D01*
X221557000Y-95388000D01*
X220657000Y-95388000D01*
X220612892Y-95385833D01*
X220569209Y-95379353D01*
X220526372Y-95368623D01*
X220484792Y-95353746D01*
X220444871Y-95334865D01*
X220406993Y-95312161D01*
X220371523Y-95285855D01*
X220338802Y-95256198D01*
X220309145Y-95223477D01*
X220282839Y-95188007D01*
X220260135Y-95150129D01*
X220241254Y-95110208D01*
X220226377Y-95068628D01*
X220215647Y-95025791D01*
X220209167Y-94982108D01*
X220207000Y-94938000D01*
X220207000Y-94038000D01*
X220209167Y-93993892D01*
X220215647Y-93950209D01*
X220226377Y-93907372D01*
X220241254Y-93865792D01*
X220260135Y-93825871D01*
X220282839Y-93787993D01*
X220309145Y-93752523D01*
X220338802Y-93719802D01*
X220371523Y-93690145D01*
X220406993Y-93663839D01*
X220444871Y-93641135D01*
X220484792Y-93622254D01*
X220526372Y-93607377D01*
X220569209Y-93596647D01*
X220612892Y-93590167D01*
X220657000Y-93588000D01*
X221557000Y-93588000D01*
X221601108Y-93590167D01*
G37*
G04 #@! TD.AperFunction*
D14*
X222885000Y-96012000D03*
X224409000Y-94488000D03*
X225933000Y-96012000D03*
G04 #@! TA.AperFunction,ComponentPad*
D13*
G36*
X213981108Y-93590167D02*
G01*
X214024791Y-93596647D01*
X214067628Y-93607377D01*
X214109208Y-93622254D01*
X214149129Y-93641135D01*
X214187007Y-93663839D01*
X214222477Y-93690145D01*
X214255198Y-93719802D01*
X214284855Y-93752523D01*
X214311161Y-93787993D01*
X214333865Y-93825871D01*
X214352746Y-93865792D01*
X214367623Y-93907372D01*
X214378353Y-93950209D01*
X214384833Y-93993892D01*
X214387000Y-94038000D01*
X214387000Y-94938000D01*
X214384833Y-94982108D01*
X214378353Y-95025791D01*
X214367623Y-95068628D01*
X214352746Y-95110208D01*
X214333865Y-95150129D01*
X214311161Y-95188007D01*
X214284855Y-95223477D01*
X214255198Y-95256198D01*
X214222477Y-95285855D01*
X214187007Y-95312161D01*
X214149129Y-95334865D01*
X214109208Y-95353746D01*
X214067628Y-95368623D01*
X214024791Y-95379353D01*
X213981108Y-95385833D01*
X213937000Y-95388000D01*
X213037000Y-95388000D01*
X212992892Y-95385833D01*
X212949209Y-95379353D01*
X212906372Y-95368623D01*
X212864792Y-95353746D01*
X212824871Y-95334865D01*
X212786993Y-95312161D01*
X212751523Y-95285855D01*
X212718802Y-95256198D01*
X212689145Y-95223477D01*
X212662839Y-95188007D01*
X212640135Y-95150129D01*
X212621254Y-95110208D01*
X212606377Y-95068628D01*
X212595647Y-95025791D01*
X212589167Y-94982108D01*
X212587000Y-94938000D01*
X212587000Y-94038000D01*
X212589167Y-93993892D01*
X212595647Y-93950209D01*
X212606377Y-93907372D01*
X212621254Y-93865792D01*
X212640135Y-93825871D01*
X212662839Y-93787993D01*
X212689145Y-93752523D01*
X212718802Y-93719802D01*
X212751523Y-93690145D01*
X212786993Y-93663839D01*
X212824871Y-93641135D01*
X212864792Y-93622254D01*
X212906372Y-93607377D01*
X212949209Y-93596647D01*
X212992892Y-93590167D01*
X213037000Y-93588000D01*
X213937000Y-93588000D01*
X213981108Y-93590167D01*
G37*
G04 #@! TD.AperFunction*
D14*
X215265000Y-96012000D03*
X216789000Y-94488000D03*
X218313000Y-96012000D03*
G04 #@! TA.AperFunction,ComponentPad*
D13*
G36*
X206361108Y-93590167D02*
G01*
X206404791Y-93596647D01*
X206447628Y-93607377D01*
X206489208Y-93622254D01*
X206529129Y-93641135D01*
X206567007Y-93663839D01*
X206602477Y-93690145D01*
X206635198Y-93719802D01*
X206664855Y-93752523D01*
X206691161Y-93787993D01*
X206713865Y-93825871D01*
X206732746Y-93865792D01*
X206747623Y-93907372D01*
X206758353Y-93950209D01*
X206764833Y-93993892D01*
X206767000Y-94038000D01*
X206767000Y-94938000D01*
X206764833Y-94982108D01*
X206758353Y-95025791D01*
X206747623Y-95068628D01*
X206732746Y-95110208D01*
X206713865Y-95150129D01*
X206691161Y-95188007D01*
X206664855Y-95223477D01*
X206635198Y-95256198D01*
X206602477Y-95285855D01*
X206567007Y-95312161D01*
X206529129Y-95334865D01*
X206489208Y-95353746D01*
X206447628Y-95368623D01*
X206404791Y-95379353D01*
X206361108Y-95385833D01*
X206317000Y-95388000D01*
X205417000Y-95388000D01*
X205372892Y-95385833D01*
X205329209Y-95379353D01*
X205286372Y-95368623D01*
X205244792Y-95353746D01*
X205204871Y-95334865D01*
X205166993Y-95312161D01*
X205131523Y-95285855D01*
X205098802Y-95256198D01*
X205069145Y-95223477D01*
X205042839Y-95188007D01*
X205020135Y-95150129D01*
X205001254Y-95110208D01*
X204986377Y-95068628D01*
X204975647Y-95025791D01*
X204969167Y-94982108D01*
X204967000Y-94938000D01*
X204967000Y-94038000D01*
X204969167Y-93993892D01*
X204975647Y-93950209D01*
X204986377Y-93907372D01*
X205001254Y-93865792D01*
X205020135Y-93825871D01*
X205042839Y-93787993D01*
X205069145Y-93752523D01*
X205098802Y-93719802D01*
X205131523Y-93690145D01*
X205166993Y-93663839D01*
X205204871Y-93641135D01*
X205244792Y-93622254D01*
X205286372Y-93607377D01*
X205329209Y-93596647D01*
X205372892Y-93590167D01*
X205417000Y-93588000D01*
X206317000Y-93588000D01*
X206361108Y-93590167D01*
G37*
G04 #@! TD.AperFunction*
D14*
X207645000Y-96012000D03*
X209169000Y-94488000D03*
X210693000Y-96012000D03*
G04 #@! TA.AperFunction,ComponentPad*
D13*
G36*
X198741108Y-93590167D02*
G01*
X198784791Y-93596647D01*
X198827628Y-93607377D01*
X198869208Y-93622254D01*
X198909129Y-93641135D01*
X198947007Y-93663839D01*
X198982477Y-93690145D01*
X199015198Y-93719802D01*
X199044855Y-93752523D01*
X199071161Y-93787993D01*
X199093865Y-93825871D01*
X199112746Y-93865792D01*
X199127623Y-93907372D01*
X199138353Y-93950209D01*
X199144833Y-93993892D01*
X199147000Y-94038000D01*
X199147000Y-94938000D01*
X199144833Y-94982108D01*
X199138353Y-95025791D01*
X199127623Y-95068628D01*
X199112746Y-95110208D01*
X199093865Y-95150129D01*
X199071161Y-95188007D01*
X199044855Y-95223477D01*
X199015198Y-95256198D01*
X198982477Y-95285855D01*
X198947007Y-95312161D01*
X198909129Y-95334865D01*
X198869208Y-95353746D01*
X198827628Y-95368623D01*
X198784791Y-95379353D01*
X198741108Y-95385833D01*
X198697000Y-95388000D01*
X197797000Y-95388000D01*
X197752892Y-95385833D01*
X197709209Y-95379353D01*
X197666372Y-95368623D01*
X197624792Y-95353746D01*
X197584871Y-95334865D01*
X197546993Y-95312161D01*
X197511523Y-95285855D01*
X197478802Y-95256198D01*
X197449145Y-95223477D01*
X197422839Y-95188007D01*
X197400135Y-95150129D01*
X197381254Y-95110208D01*
X197366377Y-95068628D01*
X197355647Y-95025791D01*
X197349167Y-94982108D01*
X197347000Y-94938000D01*
X197347000Y-94038000D01*
X197349167Y-93993892D01*
X197355647Y-93950209D01*
X197366377Y-93907372D01*
X197381254Y-93865792D01*
X197400135Y-93825871D01*
X197422839Y-93787993D01*
X197449145Y-93752523D01*
X197478802Y-93719802D01*
X197511523Y-93690145D01*
X197546993Y-93663839D01*
X197584871Y-93641135D01*
X197624792Y-93622254D01*
X197666372Y-93607377D01*
X197709209Y-93596647D01*
X197752892Y-93590167D01*
X197797000Y-93588000D01*
X198697000Y-93588000D01*
X198741108Y-93590167D01*
G37*
G04 #@! TD.AperFunction*
D14*
X200025000Y-96012000D03*
X201549000Y-94488000D03*
X203073000Y-96012000D03*
G04 #@! TA.AperFunction,ComponentPad*
D13*
G36*
X191121108Y-93590167D02*
G01*
X191164791Y-93596647D01*
X191207628Y-93607377D01*
X191249208Y-93622254D01*
X191289129Y-93641135D01*
X191327007Y-93663839D01*
X191362477Y-93690145D01*
X191395198Y-93719802D01*
X191424855Y-93752523D01*
X191451161Y-93787993D01*
X191473865Y-93825871D01*
X191492746Y-93865792D01*
X191507623Y-93907372D01*
X191518353Y-93950209D01*
X191524833Y-93993892D01*
X191527000Y-94038000D01*
X191527000Y-94938000D01*
X191524833Y-94982108D01*
X191518353Y-95025791D01*
X191507623Y-95068628D01*
X191492746Y-95110208D01*
X191473865Y-95150129D01*
X191451161Y-95188007D01*
X191424855Y-95223477D01*
X191395198Y-95256198D01*
X191362477Y-95285855D01*
X191327007Y-95312161D01*
X191289129Y-95334865D01*
X191249208Y-95353746D01*
X191207628Y-95368623D01*
X191164791Y-95379353D01*
X191121108Y-95385833D01*
X191077000Y-95388000D01*
X190177000Y-95388000D01*
X190132892Y-95385833D01*
X190089209Y-95379353D01*
X190046372Y-95368623D01*
X190004792Y-95353746D01*
X189964871Y-95334865D01*
X189926993Y-95312161D01*
X189891523Y-95285855D01*
X189858802Y-95256198D01*
X189829145Y-95223477D01*
X189802839Y-95188007D01*
X189780135Y-95150129D01*
X189761254Y-95110208D01*
X189746377Y-95068628D01*
X189735647Y-95025791D01*
X189729167Y-94982108D01*
X189727000Y-94938000D01*
X189727000Y-94038000D01*
X189729167Y-93993892D01*
X189735647Y-93950209D01*
X189746377Y-93907372D01*
X189761254Y-93865792D01*
X189780135Y-93825871D01*
X189802839Y-93787993D01*
X189829145Y-93752523D01*
X189858802Y-93719802D01*
X189891523Y-93690145D01*
X189926993Y-93663839D01*
X189964871Y-93641135D01*
X190004792Y-93622254D01*
X190046372Y-93607377D01*
X190089209Y-93596647D01*
X190132892Y-93590167D01*
X190177000Y-93588000D01*
X191077000Y-93588000D01*
X191121108Y-93590167D01*
G37*
G04 #@! TD.AperFunction*
D14*
X192405000Y-96012000D03*
X193929000Y-94488000D03*
X195453000Y-96012000D03*
G04 #@! TA.AperFunction,ComponentPad*
D13*
G36*
X236841108Y-85970167D02*
G01*
X236884791Y-85976647D01*
X236927628Y-85987377D01*
X236969208Y-86002254D01*
X237009129Y-86021135D01*
X237047007Y-86043839D01*
X237082477Y-86070145D01*
X237115198Y-86099802D01*
X237144855Y-86132523D01*
X237171161Y-86167993D01*
X237193865Y-86205871D01*
X237212746Y-86245792D01*
X237227623Y-86287372D01*
X237238353Y-86330209D01*
X237244833Y-86373892D01*
X237247000Y-86418000D01*
X237247000Y-87318000D01*
X237244833Y-87362108D01*
X237238353Y-87405791D01*
X237227623Y-87448628D01*
X237212746Y-87490208D01*
X237193865Y-87530129D01*
X237171161Y-87568007D01*
X237144855Y-87603477D01*
X237115198Y-87636198D01*
X237082477Y-87665855D01*
X237047007Y-87692161D01*
X237009129Y-87714865D01*
X236969208Y-87733746D01*
X236927628Y-87748623D01*
X236884791Y-87759353D01*
X236841108Y-87765833D01*
X236797000Y-87768000D01*
X235897000Y-87768000D01*
X235852892Y-87765833D01*
X235809209Y-87759353D01*
X235766372Y-87748623D01*
X235724792Y-87733746D01*
X235684871Y-87714865D01*
X235646993Y-87692161D01*
X235611523Y-87665855D01*
X235578802Y-87636198D01*
X235549145Y-87603477D01*
X235522839Y-87568007D01*
X235500135Y-87530129D01*
X235481254Y-87490208D01*
X235466377Y-87448628D01*
X235455647Y-87405791D01*
X235449167Y-87362108D01*
X235447000Y-87318000D01*
X235447000Y-86418000D01*
X235449167Y-86373892D01*
X235455647Y-86330209D01*
X235466377Y-86287372D01*
X235481254Y-86245792D01*
X235500135Y-86205871D01*
X235522839Y-86167993D01*
X235549145Y-86132523D01*
X235578802Y-86099802D01*
X235611523Y-86070145D01*
X235646993Y-86043839D01*
X235684871Y-86021135D01*
X235724792Y-86002254D01*
X235766372Y-85987377D01*
X235809209Y-85976647D01*
X235852892Y-85970167D01*
X235897000Y-85968000D01*
X236797000Y-85968000D01*
X236841108Y-85970167D01*
G37*
G04 #@! TD.AperFunction*
D14*
X238125000Y-88392000D03*
X239649000Y-86868000D03*
X241173000Y-88392000D03*
G04 #@! TA.AperFunction,ComponentPad*
D13*
G36*
X229221108Y-85970167D02*
G01*
X229264791Y-85976647D01*
X229307628Y-85987377D01*
X229349208Y-86002254D01*
X229389129Y-86021135D01*
X229427007Y-86043839D01*
X229462477Y-86070145D01*
X229495198Y-86099802D01*
X229524855Y-86132523D01*
X229551161Y-86167993D01*
X229573865Y-86205871D01*
X229592746Y-86245792D01*
X229607623Y-86287372D01*
X229618353Y-86330209D01*
X229624833Y-86373892D01*
X229627000Y-86418000D01*
X229627000Y-87318000D01*
X229624833Y-87362108D01*
X229618353Y-87405791D01*
X229607623Y-87448628D01*
X229592746Y-87490208D01*
X229573865Y-87530129D01*
X229551161Y-87568007D01*
X229524855Y-87603477D01*
X229495198Y-87636198D01*
X229462477Y-87665855D01*
X229427007Y-87692161D01*
X229389129Y-87714865D01*
X229349208Y-87733746D01*
X229307628Y-87748623D01*
X229264791Y-87759353D01*
X229221108Y-87765833D01*
X229177000Y-87768000D01*
X228277000Y-87768000D01*
X228232892Y-87765833D01*
X228189209Y-87759353D01*
X228146372Y-87748623D01*
X228104792Y-87733746D01*
X228064871Y-87714865D01*
X228026993Y-87692161D01*
X227991523Y-87665855D01*
X227958802Y-87636198D01*
X227929145Y-87603477D01*
X227902839Y-87568007D01*
X227880135Y-87530129D01*
X227861254Y-87490208D01*
X227846377Y-87448628D01*
X227835647Y-87405791D01*
X227829167Y-87362108D01*
X227827000Y-87318000D01*
X227827000Y-86418000D01*
X227829167Y-86373892D01*
X227835647Y-86330209D01*
X227846377Y-86287372D01*
X227861254Y-86245792D01*
X227880135Y-86205871D01*
X227902839Y-86167993D01*
X227929145Y-86132523D01*
X227958802Y-86099802D01*
X227991523Y-86070145D01*
X228026993Y-86043839D01*
X228064871Y-86021135D01*
X228104792Y-86002254D01*
X228146372Y-85987377D01*
X228189209Y-85976647D01*
X228232892Y-85970167D01*
X228277000Y-85968000D01*
X229177000Y-85968000D01*
X229221108Y-85970167D01*
G37*
G04 #@! TD.AperFunction*
D14*
X230505000Y-88392000D03*
X232029000Y-86868000D03*
X233553000Y-88392000D03*
G04 #@! TA.AperFunction,ComponentPad*
D13*
G36*
X221601108Y-85970167D02*
G01*
X221644791Y-85976647D01*
X221687628Y-85987377D01*
X221729208Y-86002254D01*
X221769129Y-86021135D01*
X221807007Y-86043839D01*
X221842477Y-86070145D01*
X221875198Y-86099802D01*
X221904855Y-86132523D01*
X221931161Y-86167993D01*
X221953865Y-86205871D01*
X221972746Y-86245792D01*
X221987623Y-86287372D01*
X221998353Y-86330209D01*
X222004833Y-86373892D01*
X222007000Y-86418000D01*
X222007000Y-87318000D01*
X222004833Y-87362108D01*
X221998353Y-87405791D01*
X221987623Y-87448628D01*
X221972746Y-87490208D01*
X221953865Y-87530129D01*
X221931161Y-87568007D01*
X221904855Y-87603477D01*
X221875198Y-87636198D01*
X221842477Y-87665855D01*
X221807007Y-87692161D01*
X221769129Y-87714865D01*
X221729208Y-87733746D01*
X221687628Y-87748623D01*
X221644791Y-87759353D01*
X221601108Y-87765833D01*
X221557000Y-87768000D01*
X220657000Y-87768000D01*
X220612892Y-87765833D01*
X220569209Y-87759353D01*
X220526372Y-87748623D01*
X220484792Y-87733746D01*
X220444871Y-87714865D01*
X220406993Y-87692161D01*
X220371523Y-87665855D01*
X220338802Y-87636198D01*
X220309145Y-87603477D01*
X220282839Y-87568007D01*
X220260135Y-87530129D01*
X220241254Y-87490208D01*
X220226377Y-87448628D01*
X220215647Y-87405791D01*
X220209167Y-87362108D01*
X220207000Y-87318000D01*
X220207000Y-86418000D01*
X220209167Y-86373892D01*
X220215647Y-86330209D01*
X220226377Y-86287372D01*
X220241254Y-86245792D01*
X220260135Y-86205871D01*
X220282839Y-86167993D01*
X220309145Y-86132523D01*
X220338802Y-86099802D01*
X220371523Y-86070145D01*
X220406993Y-86043839D01*
X220444871Y-86021135D01*
X220484792Y-86002254D01*
X220526372Y-85987377D01*
X220569209Y-85976647D01*
X220612892Y-85970167D01*
X220657000Y-85968000D01*
X221557000Y-85968000D01*
X221601108Y-85970167D01*
G37*
G04 #@! TD.AperFunction*
D14*
X222885000Y-88392000D03*
X224409000Y-86868000D03*
X225933000Y-88392000D03*
G04 #@! TA.AperFunction,ComponentPad*
D13*
G36*
X213981108Y-85970167D02*
G01*
X214024791Y-85976647D01*
X214067628Y-85987377D01*
X214109208Y-86002254D01*
X214149129Y-86021135D01*
X214187007Y-86043839D01*
X214222477Y-86070145D01*
X214255198Y-86099802D01*
X214284855Y-86132523D01*
X214311161Y-86167993D01*
X214333865Y-86205871D01*
X214352746Y-86245792D01*
X214367623Y-86287372D01*
X214378353Y-86330209D01*
X214384833Y-86373892D01*
X214387000Y-86418000D01*
X214387000Y-87318000D01*
X214384833Y-87362108D01*
X214378353Y-87405791D01*
X214367623Y-87448628D01*
X214352746Y-87490208D01*
X214333865Y-87530129D01*
X214311161Y-87568007D01*
X214284855Y-87603477D01*
X214255198Y-87636198D01*
X214222477Y-87665855D01*
X214187007Y-87692161D01*
X214149129Y-87714865D01*
X214109208Y-87733746D01*
X214067628Y-87748623D01*
X214024791Y-87759353D01*
X213981108Y-87765833D01*
X213937000Y-87768000D01*
X213037000Y-87768000D01*
X212992892Y-87765833D01*
X212949209Y-87759353D01*
X212906372Y-87748623D01*
X212864792Y-87733746D01*
X212824871Y-87714865D01*
X212786993Y-87692161D01*
X212751523Y-87665855D01*
X212718802Y-87636198D01*
X212689145Y-87603477D01*
X212662839Y-87568007D01*
X212640135Y-87530129D01*
X212621254Y-87490208D01*
X212606377Y-87448628D01*
X212595647Y-87405791D01*
X212589167Y-87362108D01*
X212587000Y-87318000D01*
X212587000Y-86418000D01*
X212589167Y-86373892D01*
X212595647Y-86330209D01*
X212606377Y-86287372D01*
X212621254Y-86245792D01*
X212640135Y-86205871D01*
X212662839Y-86167993D01*
X212689145Y-86132523D01*
X212718802Y-86099802D01*
X212751523Y-86070145D01*
X212786993Y-86043839D01*
X212824871Y-86021135D01*
X212864792Y-86002254D01*
X212906372Y-85987377D01*
X212949209Y-85976647D01*
X212992892Y-85970167D01*
X213037000Y-85968000D01*
X213937000Y-85968000D01*
X213981108Y-85970167D01*
G37*
G04 #@! TD.AperFunction*
D14*
X215265000Y-88392000D03*
X216789000Y-86868000D03*
X218313000Y-88392000D03*
G04 #@! TA.AperFunction,ComponentPad*
D13*
G36*
X206361108Y-85970167D02*
G01*
X206404791Y-85976647D01*
X206447628Y-85987377D01*
X206489208Y-86002254D01*
X206529129Y-86021135D01*
X206567007Y-86043839D01*
X206602477Y-86070145D01*
X206635198Y-86099802D01*
X206664855Y-86132523D01*
X206691161Y-86167993D01*
X206713865Y-86205871D01*
X206732746Y-86245792D01*
X206747623Y-86287372D01*
X206758353Y-86330209D01*
X206764833Y-86373892D01*
X206767000Y-86418000D01*
X206767000Y-87318000D01*
X206764833Y-87362108D01*
X206758353Y-87405791D01*
X206747623Y-87448628D01*
X206732746Y-87490208D01*
X206713865Y-87530129D01*
X206691161Y-87568007D01*
X206664855Y-87603477D01*
X206635198Y-87636198D01*
X206602477Y-87665855D01*
X206567007Y-87692161D01*
X206529129Y-87714865D01*
X206489208Y-87733746D01*
X206447628Y-87748623D01*
X206404791Y-87759353D01*
X206361108Y-87765833D01*
X206317000Y-87768000D01*
X205417000Y-87768000D01*
X205372892Y-87765833D01*
X205329209Y-87759353D01*
X205286372Y-87748623D01*
X205244792Y-87733746D01*
X205204871Y-87714865D01*
X205166993Y-87692161D01*
X205131523Y-87665855D01*
X205098802Y-87636198D01*
X205069145Y-87603477D01*
X205042839Y-87568007D01*
X205020135Y-87530129D01*
X205001254Y-87490208D01*
X204986377Y-87448628D01*
X204975647Y-87405791D01*
X204969167Y-87362108D01*
X204967000Y-87318000D01*
X204967000Y-86418000D01*
X204969167Y-86373892D01*
X204975647Y-86330209D01*
X204986377Y-86287372D01*
X205001254Y-86245792D01*
X205020135Y-86205871D01*
X205042839Y-86167993D01*
X205069145Y-86132523D01*
X205098802Y-86099802D01*
X205131523Y-86070145D01*
X205166993Y-86043839D01*
X205204871Y-86021135D01*
X205244792Y-86002254D01*
X205286372Y-85987377D01*
X205329209Y-85976647D01*
X205372892Y-85970167D01*
X205417000Y-85968000D01*
X206317000Y-85968000D01*
X206361108Y-85970167D01*
G37*
G04 #@! TD.AperFunction*
D14*
X207645000Y-88392000D03*
X209169000Y-86868000D03*
X210693000Y-88392000D03*
G04 #@! TA.AperFunction,ComponentPad*
D13*
G36*
X198741108Y-85970167D02*
G01*
X198784791Y-85976647D01*
X198827628Y-85987377D01*
X198869208Y-86002254D01*
X198909129Y-86021135D01*
X198947007Y-86043839D01*
X198982477Y-86070145D01*
X199015198Y-86099802D01*
X199044855Y-86132523D01*
X199071161Y-86167993D01*
X199093865Y-86205871D01*
X199112746Y-86245792D01*
X199127623Y-86287372D01*
X199138353Y-86330209D01*
X199144833Y-86373892D01*
X199147000Y-86418000D01*
X199147000Y-87318000D01*
X199144833Y-87362108D01*
X199138353Y-87405791D01*
X199127623Y-87448628D01*
X199112746Y-87490208D01*
X199093865Y-87530129D01*
X199071161Y-87568007D01*
X199044855Y-87603477D01*
X199015198Y-87636198D01*
X198982477Y-87665855D01*
X198947007Y-87692161D01*
X198909129Y-87714865D01*
X198869208Y-87733746D01*
X198827628Y-87748623D01*
X198784791Y-87759353D01*
X198741108Y-87765833D01*
X198697000Y-87768000D01*
X197797000Y-87768000D01*
X197752892Y-87765833D01*
X197709209Y-87759353D01*
X197666372Y-87748623D01*
X197624792Y-87733746D01*
X197584871Y-87714865D01*
X197546993Y-87692161D01*
X197511523Y-87665855D01*
X197478802Y-87636198D01*
X197449145Y-87603477D01*
X197422839Y-87568007D01*
X197400135Y-87530129D01*
X197381254Y-87490208D01*
X197366377Y-87448628D01*
X197355647Y-87405791D01*
X197349167Y-87362108D01*
X197347000Y-87318000D01*
X197347000Y-86418000D01*
X197349167Y-86373892D01*
X197355647Y-86330209D01*
X197366377Y-86287372D01*
X197381254Y-86245792D01*
X197400135Y-86205871D01*
X197422839Y-86167993D01*
X197449145Y-86132523D01*
X197478802Y-86099802D01*
X197511523Y-86070145D01*
X197546993Y-86043839D01*
X197584871Y-86021135D01*
X197624792Y-86002254D01*
X197666372Y-85987377D01*
X197709209Y-85976647D01*
X197752892Y-85970167D01*
X197797000Y-85968000D01*
X198697000Y-85968000D01*
X198741108Y-85970167D01*
G37*
G04 #@! TD.AperFunction*
D14*
X200025000Y-88392000D03*
X201549000Y-86868000D03*
X203073000Y-88392000D03*
G04 #@! TA.AperFunction,ComponentPad*
D13*
G36*
X191121108Y-85970167D02*
G01*
X191164791Y-85976647D01*
X191207628Y-85987377D01*
X191249208Y-86002254D01*
X191289129Y-86021135D01*
X191327007Y-86043839D01*
X191362477Y-86070145D01*
X191395198Y-86099802D01*
X191424855Y-86132523D01*
X191451161Y-86167993D01*
X191473865Y-86205871D01*
X191492746Y-86245792D01*
X191507623Y-86287372D01*
X191518353Y-86330209D01*
X191524833Y-86373892D01*
X191527000Y-86418000D01*
X191527000Y-87318000D01*
X191524833Y-87362108D01*
X191518353Y-87405791D01*
X191507623Y-87448628D01*
X191492746Y-87490208D01*
X191473865Y-87530129D01*
X191451161Y-87568007D01*
X191424855Y-87603477D01*
X191395198Y-87636198D01*
X191362477Y-87665855D01*
X191327007Y-87692161D01*
X191289129Y-87714865D01*
X191249208Y-87733746D01*
X191207628Y-87748623D01*
X191164791Y-87759353D01*
X191121108Y-87765833D01*
X191077000Y-87768000D01*
X190177000Y-87768000D01*
X190132892Y-87765833D01*
X190089209Y-87759353D01*
X190046372Y-87748623D01*
X190004792Y-87733746D01*
X189964871Y-87714865D01*
X189926993Y-87692161D01*
X189891523Y-87665855D01*
X189858802Y-87636198D01*
X189829145Y-87603477D01*
X189802839Y-87568007D01*
X189780135Y-87530129D01*
X189761254Y-87490208D01*
X189746377Y-87448628D01*
X189735647Y-87405791D01*
X189729167Y-87362108D01*
X189727000Y-87318000D01*
X189727000Y-86418000D01*
X189729167Y-86373892D01*
X189735647Y-86330209D01*
X189746377Y-86287372D01*
X189761254Y-86245792D01*
X189780135Y-86205871D01*
X189802839Y-86167993D01*
X189829145Y-86132523D01*
X189858802Y-86099802D01*
X189891523Y-86070145D01*
X189926993Y-86043839D01*
X189964871Y-86021135D01*
X190004792Y-86002254D01*
X190046372Y-85987377D01*
X190089209Y-85976647D01*
X190132892Y-85970167D01*
X190177000Y-85968000D01*
X191077000Y-85968000D01*
X191121108Y-85970167D01*
G37*
G04 #@! TD.AperFunction*
D14*
X192405000Y-88392000D03*
X193929000Y-86868000D03*
X195453000Y-88392000D03*
G04 #@! TA.AperFunction,ComponentPad*
D13*
G36*
X236841108Y-78350167D02*
G01*
X236884791Y-78356647D01*
X236927628Y-78367377D01*
X236969208Y-78382254D01*
X237009129Y-78401135D01*
X237047007Y-78423839D01*
X237082477Y-78450145D01*
X237115198Y-78479802D01*
X237144855Y-78512523D01*
X237171161Y-78547993D01*
X237193865Y-78585871D01*
X237212746Y-78625792D01*
X237227623Y-78667372D01*
X237238353Y-78710209D01*
X237244833Y-78753892D01*
X237247000Y-78798000D01*
X237247000Y-79698000D01*
X237244833Y-79742108D01*
X237238353Y-79785791D01*
X237227623Y-79828628D01*
X237212746Y-79870208D01*
X237193865Y-79910129D01*
X237171161Y-79948007D01*
X237144855Y-79983477D01*
X237115198Y-80016198D01*
X237082477Y-80045855D01*
X237047007Y-80072161D01*
X237009129Y-80094865D01*
X236969208Y-80113746D01*
X236927628Y-80128623D01*
X236884791Y-80139353D01*
X236841108Y-80145833D01*
X236797000Y-80148000D01*
X235897000Y-80148000D01*
X235852892Y-80145833D01*
X235809209Y-80139353D01*
X235766372Y-80128623D01*
X235724792Y-80113746D01*
X235684871Y-80094865D01*
X235646993Y-80072161D01*
X235611523Y-80045855D01*
X235578802Y-80016198D01*
X235549145Y-79983477D01*
X235522839Y-79948007D01*
X235500135Y-79910129D01*
X235481254Y-79870208D01*
X235466377Y-79828628D01*
X235455647Y-79785791D01*
X235449167Y-79742108D01*
X235447000Y-79698000D01*
X235447000Y-78798000D01*
X235449167Y-78753892D01*
X235455647Y-78710209D01*
X235466377Y-78667372D01*
X235481254Y-78625792D01*
X235500135Y-78585871D01*
X235522839Y-78547993D01*
X235549145Y-78512523D01*
X235578802Y-78479802D01*
X235611523Y-78450145D01*
X235646993Y-78423839D01*
X235684871Y-78401135D01*
X235724792Y-78382254D01*
X235766372Y-78367377D01*
X235809209Y-78356647D01*
X235852892Y-78350167D01*
X235897000Y-78348000D01*
X236797000Y-78348000D01*
X236841108Y-78350167D01*
G37*
G04 #@! TD.AperFunction*
D14*
X238125000Y-80772000D03*
X239649000Y-79248000D03*
X241173000Y-80772000D03*
G04 #@! TA.AperFunction,ComponentPad*
D13*
G36*
X229221108Y-78350167D02*
G01*
X229264791Y-78356647D01*
X229307628Y-78367377D01*
X229349208Y-78382254D01*
X229389129Y-78401135D01*
X229427007Y-78423839D01*
X229462477Y-78450145D01*
X229495198Y-78479802D01*
X229524855Y-78512523D01*
X229551161Y-78547993D01*
X229573865Y-78585871D01*
X229592746Y-78625792D01*
X229607623Y-78667372D01*
X229618353Y-78710209D01*
X229624833Y-78753892D01*
X229627000Y-78798000D01*
X229627000Y-79698000D01*
X229624833Y-79742108D01*
X229618353Y-79785791D01*
X229607623Y-79828628D01*
X229592746Y-79870208D01*
X229573865Y-79910129D01*
X229551161Y-79948007D01*
X229524855Y-79983477D01*
X229495198Y-80016198D01*
X229462477Y-80045855D01*
X229427007Y-80072161D01*
X229389129Y-80094865D01*
X229349208Y-80113746D01*
X229307628Y-80128623D01*
X229264791Y-80139353D01*
X229221108Y-80145833D01*
X229177000Y-80148000D01*
X228277000Y-80148000D01*
X228232892Y-80145833D01*
X228189209Y-80139353D01*
X228146372Y-80128623D01*
X228104792Y-80113746D01*
X228064871Y-80094865D01*
X228026993Y-80072161D01*
X227991523Y-80045855D01*
X227958802Y-80016198D01*
X227929145Y-79983477D01*
X227902839Y-79948007D01*
X227880135Y-79910129D01*
X227861254Y-79870208D01*
X227846377Y-79828628D01*
X227835647Y-79785791D01*
X227829167Y-79742108D01*
X227827000Y-79698000D01*
X227827000Y-78798000D01*
X227829167Y-78753892D01*
X227835647Y-78710209D01*
X227846377Y-78667372D01*
X227861254Y-78625792D01*
X227880135Y-78585871D01*
X227902839Y-78547993D01*
X227929145Y-78512523D01*
X227958802Y-78479802D01*
X227991523Y-78450145D01*
X228026993Y-78423839D01*
X228064871Y-78401135D01*
X228104792Y-78382254D01*
X228146372Y-78367377D01*
X228189209Y-78356647D01*
X228232892Y-78350167D01*
X228277000Y-78348000D01*
X229177000Y-78348000D01*
X229221108Y-78350167D01*
G37*
G04 #@! TD.AperFunction*
D14*
X230505000Y-80772000D03*
X232029000Y-79248000D03*
X233553000Y-80772000D03*
G04 #@! TA.AperFunction,ComponentPad*
D13*
G36*
X221601108Y-78350167D02*
G01*
X221644791Y-78356647D01*
X221687628Y-78367377D01*
X221729208Y-78382254D01*
X221769129Y-78401135D01*
X221807007Y-78423839D01*
X221842477Y-78450145D01*
X221875198Y-78479802D01*
X221904855Y-78512523D01*
X221931161Y-78547993D01*
X221953865Y-78585871D01*
X221972746Y-78625792D01*
X221987623Y-78667372D01*
X221998353Y-78710209D01*
X222004833Y-78753892D01*
X222007000Y-78798000D01*
X222007000Y-79698000D01*
X222004833Y-79742108D01*
X221998353Y-79785791D01*
X221987623Y-79828628D01*
X221972746Y-79870208D01*
X221953865Y-79910129D01*
X221931161Y-79948007D01*
X221904855Y-79983477D01*
X221875198Y-80016198D01*
X221842477Y-80045855D01*
X221807007Y-80072161D01*
X221769129Y-80094865D01*
X221729208Y-80113746D01*
X221687628Y-80128623D01*
X221644791Y-80139353D01*
X221601108Y-80145833D01*
X221557000Y-80148000D01*
X220657000Y-80148000D01*
X220612892Y-80145833D01*
X220569209Y-80139353D01*
X220526372Y-80128623D01*
X220484792Y-80113746D01*
X220444871Y-80094865D01*
X220406993Y-80072161D01*
X220371523Y-80045855D01*
X220338802Y-80016198D01*
X220309145Y-79983477D01*
X220282839Y-79948007D01*
X220260135Y-79910129D01*
X220241254Y-79870208D01*
X220226377Y-79828628D01*
X220215647Y-79785791D01*
X220209167Y-79742108D01*
X220207000Y-79698000D01*
X220207000Y-78798000D01*
X220209167Y-78753892D01*
X220215647Y-78710209D01*
X220226377Y-78667372D01*
X220241254Y-78625792D01*
X220260135Y-78585871D01*
X220282839Y-78547993D01*
X220309145Y-78512523D01*
X220338802Y-78479802D01*
X220371523Y-78450145D01*
X220406993Y-78423839D01*
X220444871Y-78401135D01*
X220484792Y-78382254D01*
X220526372Y-78367377D01*
X220569209Y-78356647D01*
X220612892Y-78350167D01*
X220657000Y-78348000D01*
X221557000Y-78348000D01*
X221601108Y-78350167D01*
G37*
G04 #@! TD.AperFunction*
D14*
X222885000Y-80772000D03*
X224409000Y-79248000D03*
X225933000Y-80772000D03*
G04 #@! TA.AperFunction,ComponentPad*
D13*
G36*
X213981108Y-78350167D02*
G01*
X214024791Y-78356647D01*
X214067628Y-78367377D01*
X214109208Y-78382254D01*
X214149129Y-78401135D01*
X214187007Y-78423839D01*
X214222477Y-78450145D01*
X214255198Y-78479802D01*
X214284855Y-78512523D01*
X214311161Y-78547993D01*
X214333865Y-78585871D01*
X214352746Y-78625792D01*
X214367623Y-78667372D01*
X214378353Y-78710209D01*
X214384833Y-78753892D01*
X214387000Y-78798000D01*
X214387000Y-79698000D01*
X214384833Y-79742108D01*
X214378353Y-79785791D01*
X214367623Y-79828628D01*
X214352746Y-79870208D01*
X214333865Y-79910129D01*
X214311161Y-79948007D01*
X214284855Y-79983477D01*
X214255198Y-80016198D01*
X214222477Y-80045855D01*
X214187007Y-80072161D01*
X214149129Y-80094865D01*
X214109208Y-80113746D01*
X214067628Y-80128623D01*
X214024791Y-80139353D01*
X213981108Y-80145833D01*
X213937000Y-80148000D01*
X213037000Y-80148000D01*
X212992892Y-80145833D01*
X212949209Y-80139353D01*
X212906372Y-80128623D01*
X212864792Y-80113746D01*
X212824871Y-80094865D01*
X212786993Y-80072161D01*
X212751523Y-80045855D01*
X212718802Y-80016198D01*
X212689145Y-79983477D01*
X212662839Y-79948007D01*
X212640135Y-79910129D01*
X212621254Y-79870208D01*
X212606377Y-79828628D01*
X212595647Y-79785791D01*
X212589167Y-79742108D01*
X212587000Y-79698000D01*
X212587000Y-78798000D01*
X212589167Y-78753892D01*
X212595647Y-78710209D01*
X212606377Y-78667372D01*
X212621254Y-78625792D01*
X212640135Y-78585871D01*
X212662839Y-78547993D01*
X212689145Y-78512523D01*
X212718802Y-78479802D01*
X212751523Y-78450145D01*
X212786993Y-78423839D01*
X212824871Y-78401135D01*
X212864792Y-78382254D01*
X212906372Y-78367377D01*
X212949209Y-78356647D01*
X212992892Y-78350167D01*
X213037000Y-78348000D01*
X213937000Y-78348000D01*
X213981108Y-78350167D01*
G37*
G04 #@! TD.AperFunction*
D14*
X215265000Y-80772000D03*
X216789000Y-79248000D03*
X218313000Y-80772000D03*
G04 #@! TA.AperFunction,ComponentPad*
D13*
G36*
X206361108Y-78350167D02*
G01*
X206404791Y-78356647D01*
X206447628Y-78367377D01*
X206489208Y-78382254D01*
X206529129Y-78401135D01*
X206567007Y-78423839D01*
X206602477Y-78450145D01*
X206635198Y-78479802D01*
X206664855Y-78512523D01*
X206691161Y-78547993D01*
X206713865Y-78585871D01*
X206732746Y-78625792D01*
X206747623Y-78667372D01*
X206758353Y-78710209D01*
X206764833Y-78753892D01*
X206767000Y-78798000D01*
X206767000Y-79698000D01*
X206764833Y-79742108D01*
X206758353Y-79785791D01*
X206747623Y-79828628D01*
X206732746Y-79870208D01*
X206713865Y-79910129D01*
X206691161Y-79948007D01*
X206664855Y-79983477D01*
X206635198Y-80016198D01*
X206602477Y-80045855D01*
X206567007Y-80072161D01*
X206529129Y-80094865D01*
X206489208Y-80113746D01*
X206447628Y-80128623D01*
X206404791Y-80139353D01*
X206361108Y-80145833D01*
X206317000Y-80148000D01*
X205417000Y-80148000D01*
X205372892Y-80145833D01*
X205329209Y-80139353D01*
X205286372Y-80128623D01*
X205244792Y-80113746D01*
X205204871Y-80094865D01*
X205166993Y-80072161D01*
X205131523Y-80045855D01*
X205098802Y-80016198D01*
X205069145Y-79983477D01*
X205042839Y-79948007D01*
X205020135Y-79910129D01*
X205001254Y-79870208D01*
X204986377Y-79828628D01*
X204975647Y-79785791D01*
X204969167Y-79742108D01*
X204967000Y-79698000D01*
X204967000Y-78798000D01*
X204969167Y-78753892D01*
X204975647Y-78710209D01*
X204986377Y-78667372D01*
X205001254Y-78625792D01*
X205020135Y-78585871D01*
X205042839Y-78547993D01*
X205069145Y-78512523D01*
X205098802Y-78479802D01*
X205131523Y-78450145D01*
X205166993Y-78423839D01*
X205204871Y-78401135D01*
X205244792Y-78382254D01*
X205286372Y-78367377D01*
X205329209Y-78356647D01*
X205372892Y-78350167D01*
X205417000Y-78348000D01*
X206317000Y-78348000D01*
X206361108Y-78350167D01*
G37*
G04 #@! TD.AperFunction*
D14*
X207645000Y-80772000D03*
X209169000Y-79248000D03*
X210693000Y-80772000D03*
G04 #@! TA.AperFunction,ComponentPad*
D13*
G36*
X198741108Y-78350167D02*
G01*
X198784791Y-78356647D01*
X198827628Y-78367377D01*
X198869208Y-78382254D01*
X198909129Y-78401135D01*
X198947007Y-78423839D01*
X198982477Y-78450145D01*
X199015198Y-78479802D01*
X199044855Y-78512523D01*
X199071161Y-78547993D01*
X199093865Y-78585871D01*
X199112746Y-78625792D01*
X199127623Y-78667372D01*
X199138353Y-78710209D01*
X199144833Y-78753892D01*
X199147000Y-78798000D01*
X199147000Y-79698000D01*
X199144833Y-79742108D01*
X199138353Y-79785791D01*
X199127623Y-79828628D01*
X199112746Y-79870208D01*
X199093865Y-79910129D01*
X199071161Y-79948007D01*
X199044855Y-79983477D01*
X199015198Y-80016198D01*
X198982477Y-80045855D01*
X198947007Y-80072161D01*
X198909129Y-80094865D01*
X198869208Y-80113746D01*
X198827628Y-80128623D01*
X198784791Y-80139353D01*
X198741108Y-80145833D01*
X198697000Y-80148000D01*
X197797000Y-80148000D01*
X197752892Y-80145833D01*
X197709209Y-80139353D01*
X197666372Y-80128623D01*
X197624792Y-80113746D01*
X197584871Y-80094865D01*
X197546993Y-80072161D01*
X197511523Y-80045855D01*
X197478802Y-80016198D01*
X197449145Y-79983477D01*
X197422839Y-79948007D01*
X197400135Y-79910129D01*
X197381254Y-79870208D01*
X197366377Y-79828628D01*
X197355647Y-79785791D01*
X197349167Y-79742108D01*
X197347000Y-79698000D01*
X197347000Y-78798000D01*
X197349167Y-78753892D01*
X197355647Y-78710209D01*
X197366377Y-78667372D01*
X197381254Y-78625792D01*
X197400135Y-78585871D01*
X197422839Y-78547993D01*
X197449145Y-78512523D01*
X197478802Y-78479802D01*
X197511523Y-78450145D01*
X197546993Y-78423839D01*
X197584871Y-78401135D01*
X197624792Y-78382254D01*
X197666372Y-78367377D01*
X197709209Y-78356647D01*
X197752892Y-78350167D01*
X197797000Y-78348000D01*
X198697000Y-78348000D01*
X198741108Y-78350167D01*
G37*
G04 #@! TD.AperFunction*
D14*
X200025000Y-80772000D03*
X201549000Y-79248000D03*
X203073000Y-80772000D03*
G04 #@! TA.AperFunction,ComponentPad*
D13*
G36*
X191121108Y-78350167D02*
G01*
X191164791Y-78356647D01*
X191207628Y-78367377D01*
X191249208Y-78382254D01*
X191289129Y-78401135D01*
X191327007Y-78423839D01*
X191362477Y-78450145D01*
X191395198Y-78479802D01*
X191424855Y-78512523D01*
X191451161Y-78547993D01*
X191473865Y-78585871D01*
X191492746Y-78625792D01*
X191507623Y-78667372D01*
X191518353Y-78710209D01*
X191524833Y-78753892D01*
X191527000Y-78798000D01*
X191527000Y-79698000D01*
X191524833Y-79742108D01*
X191518353Y-79785791D01*
X191507623Y-79828628D01*
X191492746Y-79870208D01*
X191473865Y-79910129D01*
X191451161Y-79948007D01*
X191424855Y-79983477D01*
X191395198Y-80016198D01*
X191362477Y-80045855D01*
X191327007Y-80072161D01*
X191289129Y-80094865D01*
X191249208Y-80113746D01*
X191207628Y-80128623D01*
X191164791Y-80139353D01*
X191121108Y-80145833D01*
X191077000Y-80148000D01*
X190177000Y-80148000D01*
X190132892Y-80145833D01*
X190089209Y-80139353D01*
X190046372Y-80128623D01*
X190004792Y-80113746D01*
X189964871Y-80094865D01*
X189926993Y-80072161D01*
X189891523Y-80045855D01*
X189858802Y-80016198D01*
X189829145Y-79983477D01*
X189802839Y-79948007D01*
X189780135Y-79910129D01*
X189761254Y-79870208D01*
X189746377Y-79828628D01*
X189735647Y-79785791D01*
X189729167Y-79742108D01*
X189727000Y-79698000D01*
X189727000Y-78798000D01*
X189729167Y-78753892D01*
X189735647Y-78710209D01*
X189746377Y-78667372D01*
X189761254Y-78625792D01*
X189780135Y-78585871D01*
X189802839Y-78547993D01*
X189829145Y-78512523D01*
X189858802Y-78479802D01*
X189891523Y-78450145D01*
X189926993Y-78423839D01*
X189964871Y-78401135D01*
X190004792Y-78382254D01*
X190046372Y-78367377D01*
X190089209Y-78356647D01*
X190132892Y-78350167D01*
X190177000Y-78348000D01*
X191077000Y-78348000D01*
X191121108Y-78350167D01*
G37*
G04 #@! TD.AperFunction*
D14*
X192405000Y-80772000D03*
X193929000Y-79248000D03*
X195453000Y-80772000D03*
G04 #@! TA.AperFunction,ComponentPad*
D13*
G36*
X236841108Y-70730167D02*
G01*
X236884791Y-70736647D01*
X236927628Y-70747377D01*
X236969208Y-70762254D01*
X237009129Y-70781135D01*
X237047007Y-70803839D01*
X237082477Y-70830145D01*
X237115198Y-70859802D01*
X237144855Y-70892523D01*
X237171161Y-70927993D01*
X237193865Y-70965871D01*
X237212746Y-71005792D01*
X237227623Y-71047372D01*
X237238353Y-71090209D01*
X237244833Y-71133892D01*
X237247000Y-71178000D01*
X237247000Y-72078000D01*
X237244833Y-72122108D01*
X237238353Y-72165791D01*
X237227623Y-72208628D01*
X237212746Y-72250208D01*
X237193865Y-72290129D01*
X237171161Y-72328007D01*
X237144855Y-72363477D01*
X237115198Y-72396198D01*
X237082477Y-72425855D01*
X237047007Y-72452161D01*
X237009129Y-72474865D01*
X236969208Y-72493746D01*
X236927628Y-72508623D01*
X236884791Y-72519353D01*
X236841108Y-72525833D01*
X236797000Y-72528000D01*
X235897000Y-72528000D01*
X235852892Y-72525833D01*
X235809209Y-72519353D01*
X235766372Y-72508623D01*
X235724792Y-72493746D01*
X235684871Y-72474865D01*
X235646993Y-72452161D01*
X235611523Y-72425855D01*
X235578802Y-72396198D01*
X235549145Y-72363477D01*
X235522839Y-72328007D01*
X235500135Y-72290129D01*
X235481254Y-72250208D01*
X235466377Y-72208628D01*
X235455647Y-72165791D01*
X235449167Y-72122108D01*
X235447000Y-72078000D01*
X235447000Y-71178000D01*
X235449167Y-71133892D01*
X235455647Y-71090209D01*
X235466377Y-71047372D01*
X235481254Y-71005792D01*
X235500135Y-70965871D01*
X235522839Y-70927993D01*
X235549145Y-70892523D01*
X235578802Y-70859802D01*
X235611523Y-70830145D01*
X235646993Y-70803839D01*
X235684871Y-70781135D01*
X235724792Y-70762254D01*
X235766372Y-70747377D01*
X235809209Y-70736647D01*
X235852892Y-70730167D01*
X235897000Y-70728000D01*
X236797000Y-70728000D01*
X236841108Y-70730167D01*
G37*
G04 #@! TD.AperFunction*
D14*
X238125000Y-73152000D03*
X239649000Y-71628000D03*
X241173000Y-73152000D03*
G04 #@! TA.AperFunction,ComponentPad*
D13*
G36*
X229221108Y-70730167D02*
G01*
X229264791Y-70736647D01*
X229307628Y-70747377D01*
X229349208Y-70762254D01*
X229389129Y-70781135D01*
X229427007Y-70803839D01*
X229462477Y-70830145D01*
X229495198Y-70859802D01*
X229524855Y-70892523D01*
X229551161Y-70927993D01*
X229573865Y-70965871D01*
X229592746Y-71005792D01*
X229607623Y-71047372D01*
X229618353Y-71090209D01*
X229624833Y-71133892D01*
X229627000Y-71178000D01*
X229627000Y-72078000D01*
X229624833Y-72122108D01*
X229618353Y-72165791D01*
X229607623Y-72208628D01*
X229592746Y-72250208D01*
X229573865Y-72290129D01*
X229551161Y-72328007D01*
X229524855Y-72363477D01*
X229495198Y-72396198D01*
X229462477Y-72425855D01*
X229427007Y-72452161D01*
X229389129Y-72474865D01*
X229349208Y-72493746D01*
X229307628Y-72508623D01*
X229264791Y-72519353D01*
X229221108Y-72525833D01*
X229177000Y-72528000D01*
X228277000Y-72528000D01*
X228232892Y-72525833D01*
X228189209Y-72519353D01*
X228146372Y-72508623D01*
X228104792Y-72493746D01*
X228064871Y-72474865D01*
X228026993Y-72452161D01*
X227991523Y-72425855D01*
X227958802Y-72396198D01*
X227929145Y-72363477D01*
X227902839Y-72328007D01*
X227880135Y-72290129D01*
X227861254Y-72250208D01*
X227846377Y-72208628D01*
X227835647Y-72165791D01*
X227829167Y-72122108D01*
X227827000Y-72078000D01*
X227827000Y-71178000D01*
X227829167Y-71133892D01*
X227835647Y-71090209D01*
X227846377Y-71047372D01*
X227861254Y-71005792D01*
X227880135Y-70965871D01*
X227902839Y-70927993D01*
X227929145Y-70892523D01*
X227958802Y-70859802D01*
X227991523Y-70830145D01*
X228026993Y-70803839D01*
X228064871Y-70781135D01*
X228104792Y-70762254D01*
X228146372Y-70747377D01*
X228189209Y-70736647D01*
X228232892Y-70730167D01*
X228277000Y-70728000D01*
X229177000Y-70728000D01*
X229221108Y-70730167D01*
G37*
G04 #@! TD.AperFunction*
D14*
X230505000Y-73152000D03*
X232029000Y-71628000D03*
X233553000Y-73152000D03*
G04 #@! TA.AperFunction,ComponentPad*
D13*
G36*
X221601108Y-70730167D02*
G01*
X221644791Y-70736647D01*
X221687628Y-70747377D01*
X221729208Y-70762254D01*
X221769129Y-70781135D01*
X221807007Y-70803839D01*
X221842477Y-70830145D01*
X221875198Y-70859802D01*
X221904855Y-70892523D01*
X221931161Y-70927993D01*
X221953865Y-70965871D01*
X221972746Y-71005792D01*
X221987623Y-71047372D01*
X221998353Y-71090209D01*
X222004833Y-71133892D01*
X222007000Y-71178000D01*
X222007000Y-72078000D01*
X222004833Y-72122108D01*
X221998353Y-72165791D01*
X221987623Y-72208628D01*
X221972746Y-72250208D01*
X221953865Y-72290129D01*
X221931161Y-72328007D01*
X221904855Y-72363477D01*
X221875198Y-72396198D01*
X221842477Y-72425855D01*
X221807007Y-72452161D01*
X221769129Y-72474865D01*
X221729208Y-72493746D01*
X221687628Y-72508623D01*
X221644791Y-72519353D01*
X221601108Y-72525833D01*
X221557000Y-72528000D01*
X220657000Y-72528000D01*
X220612892Y-72525833D01*
X220569209Y-72519353D01*
X220526372Y-72508623D01*
X220484792Y-72493746D01*
X220444871Y-72474865D01*
X220406993Y-72452161D01*
X220371523Y-72425855D01*
X220338802Y-72396198D01*
X220309145Y-72363477D01*
X220282839Y-72328007D01*
X220260135Y-72290129D01*
X220241254Y-72250208D01*
X220226377Y-72208628D01*
X220215647Y-72165791D01*
X220209167Y-72122108D01*
X220207000Y-72078000D01*
X220207000Y-71178000D01*
X220209167Y-71133892D01*
X220215647Y-71090209D01*
X220226377Y-71047372D01*
X220241254Y-71005792D01*
X220260135Y-70965871D01*
X220282839Y-70927993D01*
X220309145Y-70892523D01*
X220338802Y-70859802D01*
X220371523Y-70830145D01*
X220406993Y-70803839D01*
X220444871Y-70781135D01*
X220484792Y-70762254D01*
X220526372Y-70747377D01*
X220569209Y-70736647D01*
X220612892Y-70730167D01*
X220657000Y-70728000D01*
X221557000Y-70728000D01*
X221601108Y-70730167D01*
G37*
G04 #@! TD.AperFunction*
D14*
X222885000Y-73152000D03*
X224409000Y-71628000D03*
X225933000Y-73152000D03*
G04 #@! TA.AperFunction,ComponentPad*
D13*
G36*
X213981108Y-70730167D02*
G01*
X214024791Y-70736647D01*
X214067628Y-70747377D01*
X214109208Y-70762254D01*
X214149129Y-70781135D01*
X214187007Y-70803839D01*
X214222477Y-70830145D01*
X214255198Y-70859802D01*
X214284855Y-70892523D01*
X214311161Y-70927993D01*
X214333865Y-70965871D01*
X214352746Y-71005792D01*
X214367623Y-71047372D01*
X214378353Y-71090209D01*
X214384833Y-71133892D01*
X214387000Y-71178000D01*
X214387000Y-72078000D01*
X214384833Y-72122108D01*
X214378353Y-72165791D01*
X214367623Y-72208628D01*
X214352746Y-72250208D01*
X214333865Y-72290129D01*
X214311161Y-72328007D01*
X214284855Y-72363477D01*
X214255198Y-72396198D01*
X214222477Y-72425855D01*
X214187007Y-72452161D01*
X214149129Y-72474865D01*
X214109208Y-72493746D01*
X214067628Y-72508623D01*
X214024791Y-72519353D01*
X213981108Y-72525833D01*
X213937000Y-72528000D01*
X213037000Y-72528000D01*
X212992892Y-72525833D01*
X212949209Y-72519353D01*
X212906372Y-72508623D01*
X212864792Y-72493746D01*
X212824871Y-72474865D01*
X212786993Y-72452161D01*
X212751523Y-72425855D01*
X212718802Y-72396198D01*
X212689145Y-72363477D01*
X212662839Y-72328007D01*
X212640135Y-72290129D01*
X212621254Y-72250208D01*
X212606377Y-72208628D01*
X212595647Y-72165791D01*
X212589167Y-72122108D01*
X212587000Y-72078000D01*
X212587000Y-71178000D01*
X212589167Y-71133892D01*
X212595647Y-71090209D01*
X212606377Y-71047372D01*
X212621254Y-71005792D01*
X212640135Y-70965871D01*
X212662839Y-70927993D01*
X212689145Y-70892523D01*
X212718802Y-70859802D01*
X212751523Y-70830145D01*
X212786993Y-70803839D01*
X212824871Y-70781135D01*
X212864792Y-70762254D01*
X212906372Y-70747377D01*
X212949209Y-70736647D01*
X212992892Y-70730167D01*
X213037000Y-70728000D01*
X213937000Y-70728000D01*
X213981108Y-70730167D01*
G37*
G04 #@! TD.AperFunction*
D14*
X215265000Y-73152000D03*
X216789000Y-71628000D03*
X218313000Y-73152000D03*
G04 #@! TA.AperFunction,ComponentPad*
D13*
G36*
X206361108Y-70730167D02*
G01*
X206404791Y-70736647D01*
X206447628Y-70747377D01*
X206489208Y-70762254D01*
X206529129Y-70781135D01*
X206567007Y-70803839D01*
X206602477Y-70830145D01*
X206635198Y-70859802D01*
X206664855Y-70892523D01*
X206691161Y-70927993D01*
X206713865Y-70965871D01*
X206732746Y-71005792D01*
X206747623Y-71047372D01*
X206758353Y-71090209D01*
X206764833Y-71133892D01*
X206767000Y-71178000D01*
X206767000Y-72078000D01*
X206764833Y-72122108D01*
X206758353Y-72165791D01*
X206747623Y-72208628D01*
X206732746Y-72250208D01*
X206713865Y-72290129D01*
X206691161Y-72328007D01*
X206664855Y-72363477D01*
X206635198Y-72396198D01*
X206602477Y-72425855D01*
X206567007Y-72452161D01*
X206529129Y-72474865D01*
X206489208Y-72493746D01*
X206447628Y-72508623D01*
X206404791Y-72519353D01*
X206361108Y-72525833D01*
X206317000Y-72528000D01*
X205417000Y-72528000D01*
X205372892Y-72525833D01*
X205329209Y-72519353D01*
X205286372Y-72508623D01*
X205244792Y-72493746D01*
X205204871Y-72474865D01*
X205166993Y-72452161D01*
X205131523Y-72425855D01*
X205098802Y-72396198D01*
X205069145Y-72363477D01*
X205042839Y-72328007D01*
X205020135Y-72290129D01*
X205001254Y-72250208D01*
X204986377Y-72208628D01*
X204975647Y-72165791D01*
X204969167Y-72122108D01*
X204967000Y-72078000D01*
X204967000Y-71178000D01*
X204969167Y-71133892D01*
X204975647Y-71090209D01*
X204986377Y-71047372D01*
X205001254Y-71005792D01*
X205020135Y-70965871D01*
X205042839Y-70927993D01*
X205069145Y-70892523D01*
X205098802Y-70859802D01*
X205131523Y-70830145D01*
X205166993Y-70803839D01*
X205204871Y-70781135D01*
X205244792Y-70762254D01*
X205286372Y-70747377D01*
X205329209Y-70736647D01*
X205372892Y-70730167D01*
X205417000Y-70728000D01*
X206317000Y-70728000D01*
X206361108Y-70730167D01*
G37*
G04 #@! TD.AperFunction*
D14*
X207645000Y-73152000D03*
X209169000Y-71628000D03*
X210693000Y-73152000D03*
G04 #@! TA.AperFunction,ComponentPad*
D13*
G36*
X198741108Y-70730167D02*
G01*
X198784791Y-70736647D01*
X198827628Y-70747377D01*
X198869208Y-70762254D01*
X198909129Y-70781135D01*
X198947007Y-70803839D01*
X198982477Y-70830145D01*
X199015198Y-70859802D01*
X199044855Y-70892523D01*
X199071161Y-70927993D01*
X199093865Y-70965871D01*
X199112746Y-71005792D01*
X199127623Y-71047372D01*
X199138353Y-71090209D01*
X199144833Y-71133892D01*
X199147000Y-71178000D01*
X199147000Y-72078000D01*
X199144833Y-72122108D01*
X199138353Y-72165791D01*
X199127623Y-72208628D01*
X199112746Y-72250208D01*
X199093865Y-72290129D01*
X199071161Y-72328007D01*
X199044855Y-72363477D01*
X199015198Y-72396198D01*
X198982477Y-72425855D01*
X198947007Y-72452161D01*
X198909129Y-72474865D01*
X198869208Y-72493746D01*
X198827628Y-72508623D01*
X198784791Y-72519353D01*
X198741108Y-72525833D01*
X198697000Y-72528000D01*
X197797000Y-72528000D01*
X197752892Y-72525833D01*
X197709209Y-72519353D01*
X197666372Y-72508623D01*
X197624792Y-72493746D01*
X197584871Y-72474865D01*
X197546993Y-72452161D01*
X197511523Y-72425855D01*
X197478802Y-72396198D01*
X197449145Y-72363477D01*
X197422839Y-72328007D01*
X197400135Y-72290129D01*
X197381254Y-72250208D01*
X197366377Y-72208628D01*
X197355647Y-72165791D01*
X197349167Y-72122108D01*
X197347000Y-72078000D01*
X197347000Y-71178000D01*
X197349167Y-71133892D01*
X197355647Y-71090209D01*
X197366377Y-71047372D01*
X197381254Y-71005792D01*
X197400135Y-70965871D01*
X197422839Y-70927993D01*
X197449145Y-70892523D01*
X197478802Y-70859802D01*
X197511523Y-70830145D01*
X197546993Y-70803839D01*
X197584871Y-70781135D01*
X197624792Y-70762254D01*
X197666372Y-70747377D01*
X197709209Y-70736647D01*
X197752892Y-70730167D01*
X197797000Y-70728000D01*
X198697000Y-70728000D01*
X198741108Y-70730167D01*
G37*
G04 #@! TD.AperFunction*
D14*
X200025000Y-73152000D03*
X201549000Y-71628000D03*
X203073000Y-73152000D03*
G04 #@! TA.AperFunction,ComponentPad*
D13*
G36*
X191121108Y-70730167D02*
G01*
X191164791Y-70736647D01*
X191207628Y-70747377D01*
X191249208Y-70762254D01*
X191289129Y-70781135D01*
X191327007Y-70803839D01*
X191362477Y-70830145D01*
X191395198Y-70859802D01*
X191424855Y-70892523D01*
X191451161Y-70927993D01*
X191473865Y-70965871D01*
X191492746Y-71005792D01*
X191507623Y-71047372D01*
X191518353Y-71090209D01*
X191524833Y-71133892D01*
X191527000Y-71178000D01*
X191527000Y-72078000D01*
X191524833Y-72122108D01*
X191518353Y-72165791D01*
X191507623Y-72208628D01*
X191492746Y-72250208D01*
X191473865Y-72290129D01*
X191451161Y-72328007D01*
X191424855Y-72363477D01*
X191395198Y-72396198D01*
X191362477Y-72425855D01*
X191327007Y-72452161D01*
X191289129Y-72474865D01*
X191249208Y-72493746D01*
X191207628Y-72508623D01*
X191164791Y-72519353D01*
X191121108Y-72525833D01*
X191077000Y-72528000D01*
X190177000Y-72528000D01*
X190132892Y-72525833D01*
X190089209Y-72519353D01*
X190046372Y-72508623D01*
X190004792Y-72493746D01*
X189964871Y-72474865D01*
X189926993Y-72452161D01*
X189891523Y-72425855D01*
X189858802Y-72396198D01*
X189829145Y-72363477D01*
X189802839Y-72328007D01*
X189780135Y-72290129D01*
X189761254Y-72250208D01*
X189746377Y-72208628D01*
X189735647Y-72165791D01*
X189729167Y-72122108D01*
X189727000Y-72078000D01*
X189727000Y-71178000D01*
X189729167Y-71133892D01*
X189735647Y-71090209D01*
X189746377Y-71047372D01*
X189761254Y-71005792D01*
X189780135Y-70965871D01*
X189802839Y-70927993D01*
X189829145Y-70892523D01*
X189858802Y-70859802D01*
X189891523Y-70830145D01*
X189926993Y-70803839D01*
X189964871Y-70781135D01*
X190004792Y-70762254D01*
X190046372Y-70747377D01*
X190089209Y-70736647D01*
X190132892Y-70730167D01*
X190177000Y-70728000D01*
X191077000Y-70728000D01*
X191121108Y-70730167D01*
G37*
G04 #@! TD.AperFunction*
D14*
X192405000Y-73152000D03*
X193929000Y-71628000D03*
X195453000Y-73152000D03*
G04 #@! TA.AperFunction,ComponentPad*
D13*
G36*
X236841108Y-63110167D02*
G01*
X236884791Y-63116647D01*
X236927628Y-63127377D01*
X236969208Y-63142254D01*
X237009129Y-63161135D01*
X237047007Y-63183839D01*
X237082477Y-63210145D01*
X237115198Y-63239802D01*
X237144855Y-63272523D01*
X237171161Y-63307993D01*
X237193865Y-63345871D01*
X237212746Y-63385792D01*
X237227623Y-63427372D01*
X237238353Y-63470209D01*
X237244833Y-63513892D01*
X237247000Y-63558000D01*
X237247000Y-64458000D01*
X237244833Y-64502108D01*
X237238353Y-64545791D01*
X237227623Y-64588628D01*
X237212746Y-64630208D01*
X237193865Y-64670129D01*
X237171161Y-64708007D01*
X237144855Y-64743477D01*
X237115198Y-64776198D01*
X237082477Y-64805855D01*
X237047007Y-64832161D01*
X237009129Y-64854865D01*
X236969208Y-64873746D01*
X236927628Y-64888623D01*
X236884791Y-64899353D01*
X236841108Y-64905833D01*
X236797000Y-64908000D01*
X235897000Y-64908000D01*
X235852892Y-64905833D01*
X235809209Y-64899353D01*
X235766372Y-64888623D01*
X235724792Y-64873746D01*
X235684871Y-64854865D01*
X235646993Y-64832161D01*
X235611523Y-64805855D01*
X235578802Y-64776198D01*
X235549145Y-64743477D01*
X235522839Y-64708007D01*
X235500135Y-64670129D01*
X235481254Y-64630208D01*
X235466377Y-64588628D01*
X235455647Y-64545791D01*
X235449167Y-64502108D01*
X235447000Y-64458000D01*
X235447000Y-63558000D01*
X235449167Y-63513892D01*
X235455647Y-63470209D01*
X235466377Y-63427372D01*
X235481254Y-63385792D01*
X235500135Y-63345871D01*
X235522839Y-63307993D01*
X235549145Y-63272523D01*
X235578802Y-63239802D01*
X235611523Y-63210145D01*
X235646993Y-63183839D01*
X235684871Y-63161135D01*
X235724792Y-63142254D01*
X235766372Y-63127377D01*
X235809209Y-63116647D01*
X235852892Y-63110167D01*
X235897000Y-63108000D01*
X236797000Y-63108000D01*
X236841108Y-63110167D01*
G37*
G04 #@! TD.AperFunction*
D14*
X238125000Y-65532000D03*
X239649000Y-64008000D03*
X241173000Y-65532000D03*
G04 #@! TA.AperFunction,ComponentPad*
D13*
G36*
X229221108Y-63110167D02*
G01*
X229264791Y-63116647D01*
X229307628Y-63127377D01*
X229349208Y-63142254D01*
X229389129Y-63161135D01*
X229427007Y-63183839D01*
X229462477Y-63210145D01*
X229495198Y-63239802D01*
X229524855Y-63272523D01*
X229551161Y-63307993D01*
X229573865Y-63345871D01*
X229592746Y-63385792D01*
X229607623Y-63427372D01*
X229618353Y-63470209D01*
X229624833Y-63513892D01*
X229627000Y-63558000D01*
X229627000Y-64458000D01*
X229624833Y-64502108D01*
X229618353Y-64545791D01*
X229607623Y-64588628D01*
X229592746Y-64630208D01*
X229573865Y-64670129D01*
X229551161Y-64708007D01*
X229524855Y-64743477D01*
X229495198Y-64776198D01*
X229462477Y-64805855D01*
X229427007Y-64832161D01*
X229389129Y-64854865D01*
X229349208Y-64873746D01*
X229307628Y-64888623D01*
X229264791Y-64899353D01*
X229221108Y-64905833D01*
X229177000Y-64908000D01*
X228277000Y-64908000D01*
X228232892Y-64905833D01*
X228189209Y-64899353D01*
X228146372Y-64888623D01*
X228104792Y-64873746D01*
X228064871Y-64854865D01*
X228026993Y-64832161D01*
X227991523Y-64805855D01*
X227958802Y-64776198D01*
X227929145Y-64743477D01*
X227902839Y-64708007D01*
X227880135Y-64670129D01*
X227861254Y-64630208D01*
X227846377Y-64588628D01*
X227835647Y-64545791D01*
X227829167Y-64502108D01*
X227827000Y-64458000D01*
X227827000Y-63558000D01*
X227829167Y-63513892D01*
X227835647Y-63470209D01*
X227846377Y-63427372D01*
X227861254Y-63385792D01*
X227880135Y-63345871D01*
X227902839Y-63307993D01*
X227929145Y-63272523D01*
X227958802Y-63239802D01*
X227991523Y-63210145D01*
X228026993Y-63183839D01*
X228064871Y-63161135D01*
X228104792Y-63142254D01*
X228146372Y-63127377D01*
X228189209Y-63116647D01*
X228232892Y-63110167D01*
X228277000Y-63108000D01*
X229177000Y-63108000D01*
X229221108Y-63110167D01*
G37*
G04 #@! TD.AperFunction*
D14*
X230505000Y-65532000D03*
X232029000Y-64008000D03*
X233553000Y-65532000D03*
G04 #@! TA.AperFunction,ComponentPad*
D13*
G36*
X221601108Y-63110167D02*
G01*
X221644791Y-63116647D01*
X221687628Y-63127377D01*
X221729208Y-63142254D01*
X221769129Y-63161135D01*
X221807007Y-63183839D01*
X221842477Y-63210145D01*
X221875198Y-63239802D01*
X221904855Y-63272523D01*
X221931161Y-63307993D01*
X221953865Y-63345871D01*
X221972746Y-63385792D01*
X221987623Y-63427372D01*
X221998353Y-63470209D01*
X222004833Y-63513892D01*
X222007000Y-63558000D01*
X222007000Y-64458000D01*
X222004833Y-64502108D01*
X221998353Y-64545791D01*
X221987623Y-64588628D01*
X221972746Y-64630208D01*
X221953865Y-64670129D01*
X221931161Y-64708007D01*
X221904855Y-64743477D01*
X221875198Y-64776198D01*
X221842477Y-64805855D01*
X221807007Y-64832161D01*
X221769129Y-64854865D01*
X221729208Y-64873746D01*
X221687628Y-64888623D01*
X221644791Y-64899353D01*
X221601108Y-64905833D01*
X221557000Y-64908000D01*
X220657000Y-64908000D01*
X220612892Y-64905833D01*
X220569209Y-64899353D01*
X220526372Y-64888623D01*
X220484792Y-64873746D01*
X220444871Y-64854865D01*
X220406993Y-64832161D01*
X220371523Y-64805855D01*
X220338802Y-64776198D01*
X220309145Y-64743477D01*
X220282839Y-64708007D01*
X220260135Y-64670129D01*
X220241254Y-64630208D01*
X220226377Y-64588628D01*
X220215647Y-64545791D01*
X220209167Y-64502108D01*
X220207000Y-64458000D01*
X220207000Y-63558000D01*
X220209167Y-63513892D01*
X220215647Y-63470209D01*
X220226377Y-63427372D01*
X220241254Y-63385792D01*
X220260135Y-63345871D01*
X220282839Y-63307993D01*
X220309145Y-63272523D01*
X220338802Y-63239802D01*
X220371523Y-63210145D01*
X220406993Y-63183839D01*
X220444871Y-63161135D01*
X220484792Y-63142254D01*
X220526372Y-63127377D01*
X220569209Y-63116647D01*
X220612892Y-63110167D01*
X220657000Y-63108000D01*
X221557000Y-63108000D01*
X221601108Y-63110167D01*
G37*
G04 #@! TD.AperFunction*
D14*
X222885000Y-65532000D03*
X224409000Y-64008000D03*
X225933000Y-65532000D03*
G04 #@! TA.AperFunction,ComponentPad*
D13*
G36*
X213981108Y-63110167D02*
G01*
X214024791Y-63116647D01*
X214067628Y-63127377D01*
X214109208Y-63142254D01*
X214149129Y-63161135D01*
X214187007Y-63183839D01*
X214222477Y-63210145D01*
X214255198Y-63239802D01*
X214284855Y-63272523D01*
X214311161Y-63307993D01*
X214333865Y-63345871D01*
X214352746Y-63385792D01*
X214367623Y-63427372D01*
X214378353Y-63470209D01*
X214384833Y-63513892D01*
X214387000Y-63558000D01*
X214387000Y-64458000D01*
X214384833Y-64502108D01*
X214378353Y-64545791D01*
X214367623Y-64588628D01*
X214352746Y-64630208D01*
X214333865Y-64670129D01*
X214311161Y-64708007D01*
X214284855Y-64743477D01*
X214255198Y-64776198D01*
X214222477Y-64805855D01*
X214187007Y-64832161D01*
X214149129Y-64854865D01*
X214109208Y-64873746D01*
X214067628Y-64888623D01*
X214024791Y-64899353D01*
X213981108Y-64905833D01*
X213937000Y-64908000D01*
X213037000Y-64908000D01*
X212992892Y-64905833D01*
X212949209Y-64899353D01*
X212906372Y-64888623D01*
X212864792Y-64873746D01*
X212824871Y-64854865D01*
X212786993Y-64832161D01*
X212751523Y-64805855D01*
X212718802Y-64776198D01*
X212689145Y-64743477D01*
X212662839Y-64708007D01*
X212640135Y-64670129D01*
X212621254Y-64630208D01*
X212606377Y-64588628D01*
X212595647Y-64545791D01*
X212589167Y-64502108D01*
X212587000Y-64458000D01*
X212587000Y-63558000D01*
X212589167Y-63513892D01*
X212595647Y-63470209D01*
X212606377Y-63427372D01*
X212621254Y-63385792D01*
X212640135Y-63345871D01*
X212662839Y-63307993D01*
X212689145Y-63272523D01*
X212718802Y-63239802D01*
X212751523Y-63210145D01*
X212786993Y-63183839D01*
X212824871Y-63161135D01*
X212864792Y-63142254D01*
X212906372Y-63127377D01*
X212949209Y-63116647D01*
X212992892Y-63110167D01*
X213037000Y-63108000D01*
X213937000Y-63108000D01*
X213981108Y-63110167D01*
G37*
G04 #@! TD.AperFunction*
D14*
X215265000Y-65532000D03*
X216789000Y-64008000D03*
X218313000Y-65532000D03*
G04 #@! TA.AperFunction,ComponentPad*
D13*
G36*
X206361108Y-63110167D02*
G01*
X206404791Y-63116647D01*
X206447628Y-63127377D01*
X206489208Y-63142254D01*
X206529129Y-63161135D01*
X206567007Y-63183839D01*
X206602477Y-63210145D01*
X206635198Y-63239802D01*
X206664855Y-63272523D01*
X206691161Y-63307993D01*
X206713865Y-63345871D01*
X206732746Y-63385792D01*
X206747623Y-63427372D01*
X206758353Y-63470209D01*
X206764833Y-63513892D01*
X206767000Y-63558000D01*
X206767000Y-64458000D01*
X206764833Y-64502108D01*
X206758353Y-64545791D01*
X206747623Y-64588628D01*
X206732746Y-64630208D01*
X206713865Y-64670129D01*
X206691161Y-64708007D01*
X206664855Y-64743477D01*
X206635198Y-64776198D01*
X206602477Y-64805855D01*
X206567007Y-64832161D01*
X206529129Y-64854865D01*
X206489208Y-64873746D01*
X206447628Y-64888623D01*
X206404791Y-64899353D01*
X206361108Y-64905833D01*
X206317000Y-64908000D01*
X205417000Y-64908000D01*
X205372892Y-64905833D01*
X205329209Y-64899353D01*
X205286372Y-64888623D01*
X205244792Y-64873746D01*
X205204871Y-64854865D01*
X205166993Y-64832161D01*
X205131523Y-64805855D01*
X205098802Y-64776198D01*
X205069145Y-64743477D01*
X205042839Y-64708007D01*
X205020135Y-64670129D01*
X205001254Y-64630208D01*
X204986377Y-64588628D01*
X204975647Y-64545791D01*
X204969167Y-64502108D01*
X204967000Y-64458000D01*
X204967000Y-63558000D01*
X204969167Y-63513892D01*
X204975647Y-63470209D01*
X204986377Y-63427372D01*
X205001254Y-63385792D01*
X205020135Y-63345871D01*
X205042839Y-63307993D01*
X205069145Y-63272523D01*
X205098802Y-63239802D01*
X205131523Y-63210145D01*
X205166993Y-63183839D01*
X205204871Y-63161135D01*
X205244792Y-63142254D01*
X205286372Y-63127377D01*
X205329209Y-63116647D01*
X205372892Y-63110167D01*
X205417000Y-63108000D01*
X206317000Y-63108000D01*
X206361108Y-63110167D01*
G37*
G04 #@! TD.AperFunction*
D14*
X207645000Y-65532000D03*
X209169000Y-64008000D03*
X210693000Y-65532000D03*
G04 #@! TA.AperFunction,ComponentPad*
D13*
G36*
X198741108Y-63110167D02*
G01*
X198784791Y-63116647D01*
X198827628Y-63127377D01*
X198869208Y-63142254D01*
X198909129Y-63161135D01*
X198947007Y-63183839D01*
X198982477Y-63210145D01*
X199015198Y-63239802D01*
X199044855Y-63272523D01*
X199071161Y-63307993D01*
X199093865Y-63345871D01*
X199112746Y-63385792D01*
X199127623Y-63427372D01*
X199138353Y-63470209D01*
X199144833Y-63513892D01*
X199147000Y-63558000D01*
X199147000Y-64458000D01*
X199144833Y-64502108D01*
X199138353Y-64545791D01*
X199127623Y-64588628D01*
X199112746Y-64630208D01*
X199093865Y-64670129D01*
X199071161Y-64708007D01*
X199044855Y-64743477D01*
X199015198Y-64776198D01*
X198982477Y-64805855D01*
X198947007Y-64832161D01*
X198909129Y-64854865D01*
X198869208Y-64873746D01*
X198827628Y-64888623D01*
X198784791Y-64899353D01*
X198741108Y-64905833D01*
X198697000Y-64908000D01*
X197797000Y-64908000D01*
X197752892Y-64905833D01*
X197709209Y-64899353D01*
X197666372Y-64888623D01*
X197624792Y-64873746D01*
X197584871Y-64854865D01*
X197546993Y-64832161D01*
X197511523Y-64805855D01*
X197478802Y-64776198D01*
X197449145Y-64743477D01*
X197422839Y-64708007D01*
X197400135Y-64670129D01*
X197381254Y-64630208D01*
X197366377Y-64588628D01*
X197355647Y-64545791D01*
X197349167Y-64502108D01*
X197347000Y-64458000D01*
X197347000Y-63558000D01*
X197349167Y-63513892D01*
X197355647Y-63470209D01*
X197366377Y-63427372D01*
X197381254Y-63385792D01*
X197400135Y-63345871D01*
X197422839Y-63307993D01*
X197449145Y-63272523D01*
X197478802Y-63239802D01*
X197511523Y-63210145D01*
X197546993Y-63183839D01*
X197584871Y-63161135D01*
X197624792Y-63142254D01*
X197666372Y-63127377D01*
X197709209Y-63116647D01*
X197752892Y-63110167D01*
X197797000Y-63108000D01*
X198697000Y-63108000D01*
X198741108Y-63110167D01*
G37*
G04 #@! TD.AperFunction*
D14*
X200025000Y-65532000D03*
X201549000Y-64008000D03*
X203073000Y-65532000D03*
G04 #@! TA.AperFunction,ComponentPad*
D13*
G36*
X191121108Y-63110167D02*
G01*
X191164791Y-63116647D01*
X191207628Y-63127377D01*
X191249208Y-63142254D01*
X191289129Y-63161135D01*
X191327007Y-63183839D01*
X191362477Y-63210145D01*
X191395198Y-63239802D01*
X191424855Y-63272523D01*
X191451161Y-63307993D01*
X191473865Y-63345871D01*
X191492746Y-63385792D01*
X191507623Y-63427372D01*
X191518353Y-63470209D01*
X191524833Y-63513892D01*
X191527000Y-63558000D01*
X191527000Y-64458000D01*
X191524833Y-64502108D01*
X191518353Y-64545791D01*
X191507623Y-64588628D01*
X191492746Y-64630208D01*
X191473865Y-64670129D01*
X191451161Y-64708007D01*
X191424855Y-64743477D01*
X191395198Y-64776198D01*
X191362477Y-64805855D01*
X191327007Y-64832161D01*
X191289129Y-64854865D01*
X191249208Y-64873746D01*
X191207628Y-64888623D01*
X191164791Y-64899353D01*
X191121108Y-64905833D01*
X191077000Y-64908000D01*
X190177000Y-64908000D01*
X190132892Y-64905833D01*
X190089209Y-64899353D01*
X190046372Y-64888623D01*
X190004792Y-64873746D01*
X189964871Y-64854865D01*
X189926993Y-64832161D01*
X189891523Y-64805855D01*
X189858802Y-64776198D01*
X189829145Y-64743477D01*
X189802839Y-64708007D01*
X189780135Y-64670129D01*
X189761254Y-64630208D01*
X189746377Y-64588628D01*
X189735647Y-64545791D01*
X189729167Y-64502108D01*
X189727000Y-64458000D01*
X189727000Y-63558000D01*
X189729167Y-63513892D01*
X189735647Y-63470209D01*
X189746377Y-63427372D01*
X189761254Y-63385792D01*
X189780135Y-63345871D01*
X189802839Y-63307993D01*
X189829145Y-63272523D01*
X189858802Y-63239802D01*
X189891523Y-63210145D01*
X189926993Y-63183839D01*
X189964871Y-63161135D01*
X190004792Y-63142254D01*
X190046372Y-63127377D01*
X190089209Y-63116647D01*
X190132892Y-63110167D01*
X190177000Y-63108000D01*
X191077000Y-63108000D01*
X191121108Y-63110167D01*
G37*
G04 #@! TD.AperFunction*
D14*
X192405000Y-65532000D03*
X193929000Y-64008000D03*
X195453000Y-65532000D03*
D15*
X242824000Y-94488000D03*
X236093000Y-105664000D03*
X221107000Y-98647300D03*
X218313000Y-99441000D03*
X210693000Y-84963000D03*
X203073000Y-92837000D03*
X195453000Y-99345700D03*
X193929000Y-100203000D03*
X228727000Y-91535300D03*
X225933000Y-92329000D03*
X221361000Y-56261000D03*
X213614004Y-57023000D03*
X196850000Y-68580000D03*
X204470000Y-69469000D03*
X188849000Y-70231000D03*
D16*
X246380000Y-82550000D02*
X243840000Y-82550000D01*
X243840000Y-82550000D02*
X242824000Y-83566000D01*
X242824000Y-83566000D02*
X242824000Y-94488000D01*
X246380000Y-85090000D02*
X244348000Y-87122000D01*
X244348000Y-87122000D02*
X244348000Y-103759000D01*
X244348000Y-103759000D02*
X242443000Y-105664000D01*
X242443000Y-105664000D02*
X236093000Y-105664000D01*
X224409000Y-102108000D02*
X224409000Y-64008000D01*
X221107000Y-64908000D02*
X221107000Y-102108000D01*
X221107000Y-64008000D02*
X221107000Y-64908000D01*
X218313000Y-103632000D02*
X218313000Y-99441000D01*
X218313000Y-99441000D02*
X218313000Y-65532000D01*
X216789000Y-64008000D02*
X216789000Y-102108000D01*
X213487000Y-102108000D02*
X213487000Y-64008000D01*
X210693000Y-65532000D02*
X210693000Y-84963000D01*
X210693000Y-84963000D02*
X210693000Y-103632000D01*
X209169000Y-64008000D02*
X209169000Y-102108000D01*
X205867000Y-101208000D02*
X205867000Y-64008000D01*
X205867000Y-102108000D02*
X205867000Y-101208000D01*
X203073000Y-65532000D02*
X203073000Y-92837000D01*
X203073000Y-92837000D02*
X203073000Y-103632000D01*
X201549000Y-102108000D02*
X201549000Y-64008000D01*
X198247000Y-64008000D02*
X198247000Y-102108000D01*
X195453000Y-103632000D02*
X195453000Y-65532000D01*
X193929000Y-65141322D02*
X193929000Y-64008000D01*
X193929000Y-102108000D02*
X193929000Y-100203000D01*
X193929000Y-100203000D02*
X193929000Y-65141322D01*
X190627000Y-64008000D02*
X190627000Y-102108000D01*
X189727000Y-102108000D02*
X190627000Y-102108000D01*
X185967000Y-102108000D02*
X189727000Y-102108000D01*
X185420000Y-101561000D02*
X185967000Y-102108000D01*
X185420000Y-100330000D02*
X185420000Y-101561000D01*
X241173000Y-103632000D02*
X241173000Y-65532000D01*
X239649000Y-64008000D02*
X239649000Y-102108000D01*
X236347000Y-102108000D02*
X236347000Y-64008000D01*
X233553000Y-103632000D02*
X233553000Y-65532000D01*
X232029000Y-102108000D02*
X232029000Y-64008000D01*
X228727000Y-101208000D02*
X228727000Y-64008000D01*
X228727000Y-102108000D02*
X228727000Y-101208000D01*
X225933000Y-92202000D02*
X225933000Y-92329000D01*
X225933000Y-103632000D02*
X225933000Y-92329000D01*
X225933000Y-65532000D02*
X225933000Y-92202000D01*
X236673000Y-59690000D02*
X236673000Y-53190000D01*
X228977500Y-58275787D02*
X228977500Y-53190000D01*
X228977500Y-59690000D02*
X228977500Y-58275787D01*
X221282000Y-59690000D02*
X221282000Y-56340000D01*
X221282000Y-56340000D02*
X221361000Y-56261000D01*
X221282000Y-56182000D02*
X221361000Y-56261000D01*
X221282000Y-53190000D02*
X221282000Y-56182000D01*
X213586500Y-56995496D02*
X213614004Y-57023000D01*
X213586500Y-53190000D02*
X213586500Y-56995496D01*
X213586500Y-57050504D02*
X213614004Y-57023000D01*
X213586500Y-59690000D02*
X213586500Y-57050504D01*
X205891000Y-59690000D02*
X205891000Y-53190000D01*
X198195500Y-53190000D02*
X198195500Y-59690000D01*
X196850000Y-61035500D02*
X198195500Y-59690000D01*
X196850000Y-68580000D02*
X196850000Y-61035500D01*
X190500000Y-58275787D02*
X190500000Y-53190000D01*
X190500000Y-59690000D02*
X190500000Y-58275787D01*
X189500001Y-60689999D02*
X190500000Y-59690000D01*
X187960000Y-62230000D02*
X189500001Y-60689999D01*
X185420000Y-72390000D02*
X187960000Y-69850000D01*
X187960000Y-69850000D02*
X187960000Y-62230000D01*
X195000000Y-59690000D02*
X195000000Y-53190000D01*
X202695500Y-58275787D02*
X202695500Y-53190000D01*
X202695500Y-59690000D02*
X202695500Y-58275787D01*
X210391000Y-59690000D02*
X210391000Y-53190000D01*
X218086500Y-59690000D02*
X218086500Y-53190000D01*
X225782000Y-58275787D02*
X225782000Y-53190000D01*
X225782000Y-59690000D02*
X225782000Y-58275787D01*
X233477500Y-59690000D02*
X233477500Y-53190000D01*
X241173000Y-59690000D02*
X241173000Y-53190000D01*
X202695500Y-59690000D02*
X204470000Y-61464500D01*
X204470000Y-61464500D02*
X204470000Y-69469000D01*
X192628406Y-59690000D02*
X188849000Y-63469406D01*
X188849000Y-69665315D02*
X188849000Y-70231000D01*
X195000000Y-59690000D02*
X192628406Y-59690000D01*
X188849000Y-63469406D02*
X188849000Y-69665315D01*
M02*
