M48
; DRILL file {KiCad (5.1.5)-3} date 3/12/2020 5:28:56 PM
; FORMAT={-:-/ absolute / metric / decimal}
; #@! TF.CreationDate,2020-03-12T17:28:56-04:00
; #@! TF.GenerationSoftware,Kicad,Pcbnew,(5.1.5)-3
; #@! TF.FileFunction,Plated,1,2,PTH
FMAT,2
METRIC
T1C0.400
T2C0.900
T3C1.000
T4C1.100
%
G90
G05
T1
X188.849Y-70.231
X193.929Y-100.203
X195.453Y-99.346
X196.85Y-68.58
X203.073Y-92.837
X204.47Y-69.469
X210.693Y-84.963
X213.614Y-57.023
X218.313Y-99.441
X221.107Y-98.647
X221.361Y-56.261
X225.933Y-92.329
X228.727Y-91.535
X236.093Y-105.664
X242.824Y-94.488
T2
X228.727Y-79.248
X230.505Y-80.772
X232.029Y-79.248
X233.553Y-80.772
X221.107Y-86.868
X222.885Y-88.392
X224.409Y-86.868
X225.933Y-88.392
X190.627Y-71.628
X192.405Y-73.152
X193.929Y-71.628
X195.453Y-73.152
X228.727Y-86.868
X230.505Y-88.392
X232.029Y-86.868
X233.553Y-88.392
X205.867Y-79.248
X207.645Y-80.772
X209.169Y-79.248
X210.693Y-80.772
X198.247Y-102.108
X200.025Y-103.632
X201.549Y-102.108
X203.073Y-103.632
X213.487Y-64.008
X215.265Y-65.532
X216.789Y-64.008
X218.313Y-65.532
X221.107Y-94.488
X222.885Y-96.012
X224.409Y-94.488
X225.933Y-96.012
X213.487Y-79.248
X215.265Y-80.772
X216.789Y-79.248
X218.313Y-80.772
X198.247Y-86.868
X200.025Y-88.392
X201.549Y-86.868
X203.073Y-88.392
X190.627Y-94.488
X192.405Y-96.012
X193.929Y-94.488
X195.453Y-96.012
X213.487Y-71.628
X215.265Y-73.152
X216.789Y-71.628
X218.313Y-73.152
X236.347Y-94.488
X238.125Y-96.012
X239.649Y-94.488
X241.173Y-96.012
X198.247Y-71.628
X200.025Y-73.152
X201.549Y-71.628
X203.073Y-73.152
X236.347Y-86.868
X238.125Y-88.392
X239.649Y-86.868
X241.173Y-88.392
X213.487Y-86.868
X215.265Y-88.392
X216.789Y-86.868
X218.313Y-88.392
X236.347Y-102.108
X238.125Y-103.632
X239.649Y-102.108
X241.173Y-103.632
X205.867Y-64.008
X207.645Y-65.532
X209.169Y-64.008
X210.693Y-65.532
X205.867Y-94.488
X207.645Y-96.012
X209.169Y-94.488
X210.693Y-96.012
X205.867Y-71.628
X207.645Y-73.152
X209.169Y-71.628
X210.693Y-73.152
X213.487Y-102.108
X215.265Y-103.632
X216.789Y-102.108
X218.313Y-103.632
X228.727Y-94.488
X230.505Y-96.012
X232.029Y-94.488
X233.553Y-96.012
X228.727Y-102.108
X230.505Y-103.632
X232.029Y-102.108
X233.553Y-103.632
X205.867Y-102.108
X207.645Y-103.632
X209.169Y-102.108
X210.693Y-103.632
X190.627Y-79.248
X192.405Y-80.772
X193.929Y-79.248
X195.453Y-80.772
X221.107Y-64.008
X222.885Y-65.532
X224.409Y-64.008
X225.933Y-65.532
X205.867Y-86.868
X207.645Y-88.392
X209.169Y-86.868
X210.693Y-88.392
X198.247Y-79.248
X200.025Y-80.772
X201.549Y-79.248
X203.073Y-80.772
X190.627Y-102.108
X192.405Y-103.632
X193.929Y-102.108
X195.453Y-103.632
X221.107Y-102.108
X222.885Y-103.632
X224.409Y-102.108
X225.933Y-103.632
X236.347Y-64.008
X238.125Y-65.532
X239.649Y-64.008
X241.173Y-65.532
X221.107Y-79.248
X222.885Y-80.772
X224.409Y-79.248
X225.933Y-80.772
X236.347Y-79.248
X238.125Y-80.772
X239.649Y-79.248
X241.173Y-80.772
X236.347Y-71.628
X238.125Y-73.152
X239.649Y-71.628
X241.173Y-73.152
X198.247Y-94.488
X200.025Y-96.012
X201.549Y-94.488
X203.073Y-96.012
X221.107Y-71.628
X222.885Y-73.152
X224.409Y-71.628
X225.933Y-73.152
X228.727Y-64.008
X230.505Y-65.532
X232.029Y-64.008
X233.553Y-65.532
X190.627Y-86.868
X192.405Y-88.392
X193.929Y-86.868
X195.453Y-88.392
X228.727Y-71.628
X230.505Y-73.152
X232.029Y-71.628
X233.553Y-73.152
X213.487Y-94.488
X215.265Y-96.012
X216.789Y-94.488
X218.313Y-96.012
X190.627Y-64.008
X192.405Y-65.532
X193.929Y-64.008
X195.453Y-65.532
X198.247Y-64.008
X200.025Y-65.532
X201.549Y-64.008
X203.073Y-65.532
T3
X185.42Y-57.15
X185.42Y-59.69
X185.42Y-62.23
X185.42Y-64.77
X185.42Y-67.31
X185.42Y-69.85
X185.42Y-72.39
X185.42Y-74.93
X185.42Y-77.47
X185.42Y-80.01
X185.42Y-82.55
X185.42Y-85.09
X185.42Y-87.63
X185.42Y-90.17
X185.42Y-92.71
X185.42Y-95.25
X185.42Y-97.79
X185.42Y-100.33
X246.38Y-57.15
X246.38Y-59.69
X246.38Y-62.23
X246.38Y-64.77
X246.38Y-67.31
X246.38Y-69.85
X246.38Y-72.39
X246.38Y-74.93
X246.38Y-77.47
X246.38Y-80.01
X246.38Y-82.55
X246.38Y-85.09
X246.38Y-87.63
X246.38Y-90.17
X246.38Y-92.71
X246.38Y-95.25
X246.38Y-97.79
X246.38Y-100.33
T4
X221.282Y-53.19
X221.282Y-59.69
X225.782Y-53.19
X225.782Y-59.69
X228.977Y-53.19
X228.977Y-59.69
X233.477Y-53.19
X233.477Y-59.69
X205.891Y-53.19
X205.891Y-59.69
X210.391Y-53.19
X210.391Y-59.69
X213.587Y-53.19
X213.587Y-59.69
X218.087Y-53.19
X218.087Y-59.69
X236.673Y-53.19
X236.673Y-59.69
X241.173Y-53.19
X241.173Y-59.69
X190.5Y-53.19
X190.5Y-59.69
X195.0Y-53.19
X195.0Y-59.69
X198.195Y-53.19
X198.195Y-59.69
X202.695Y-53.19
X202.695Y-59.69
T0
M30
