<?xml version="1.0" encoding="utf-8"?>
<!-- Generator: Adobe Illustrator 24.0.2, SVG Export Plug-In . SVG Version: 6.00 Build 0)  -->
<svg version="1.1" xmlns="http://www.w3.org/2000/svg" xmlns:xlink="http://www.w3.org/1999/xlink" x="0px" y="0px"
	 viewBox="0 0 288 288" style="enable-background:new 0 0 288 288;" xml:space="preserve">
<style type="text/css">
	.st0{fill:none;stroke:#000000;stroke-width:1.000000e-03;stroke-linecap:round;stroke-linejoin:round;stroke-miterlimit:10;}
	.st1{fill:none;stroke:#000000;stroke-width:1.000000e-03;stroke-miterlimit:10;}
	.st2{display:none;}
	.st3{display:inline;}
	
		.st4{fill:#008484;fill-opacity:0;stroke:#008484;stroke-width:0.3402;stroke-linecap:round;stroke-linejoin:round;stroke-miterlimit:10;}
	.st5{opacity:0;enable-background:new    ;}
	.st6{fill:none;}
	.st7{fill:#008484;}
	.st8{font-family:'ArialMT';}
	.st9{font-size:3.7795px;}
	.st10{fill:none;stroke:#008484;stroke-width:0.4252;stroke-linecap:round;stroke-linejoin:round;}
	
		.st11{fill:#008484;fill-opacity:0;stroke:#008484;stroke-width:0.4252;stroke-linecap:round;stroke-linejoin:round;stroke-miterlimit:10;}
	.st12{letter-spacing:1;}
</style>
<g id="Layer_2">
	<rect x="39.4" y="88" class="st0" width="20.1" height="21.8"/>
	<rect x="64.6" y="88" class="st0" width="20.1" height="21.8"/>
	<rect x="89.8" y="88" class="st0" width="20.3" height="21.8"/>
	<rect x="115" y="88" class="st0" width="20.1" height="21.8"/>
	<rect x="140.2" y="88" class="st0" width="20.1" height="21.8"/>
	<rect x="165" y="88" class="st0" width="20.1" height="21.8"/>
	<rect x="190.6" y="88" class="st0" width="20.1" height="21.8"/>
	<rect x="36.5" y="31.6" class="st0" width="21.8" height="20.1"/>
	<rect x="192.3" y="31.6" class="st0" width="21.8" height="20.1"/>
	<rect id="rect8711" x="92.7" y="31" class="st1" width="36.3" height="7.5"/>
	<rect id="rect8732" x="53.1" y="61.9" class="st1" width="26.1" height="11.9"/>
	<rect id="rect8734" x="67.9" y="31.3" class="st1" width="14.7" height="7.5"/>
	<rect id="rect8736" x="167.2" y="31.3" class="st1" width="14.7" height="7.5"/>
	<rect x="40.4" y="126.8" class="st1" width="170.1" height="127.6"/>
	<circle class="st1" cx="197.8" cy="68.2" r="9.2"/>
	<g>
		<circle class="st0" cx="23" cy="246.1" r="4.6"/>
		<path class="st0" d="M227.5,50.2h-4.3"/>
		<path class="st0" d="M23,50.2h4.3"/>
		<path class="st0" d="M33.1,56c0-3.2-2.6-5.8-5.8-5.8l0,0"/>
		<path class="st0" d="M223.2,50.2c-3.2,0-5.8,2.6-5.8,5.8l0,0"/>
		<path class="st0" d="M223.2,236h4.3"/>
		<path class="st0" d="M217.4,230.2c0,3.2,2.6,5.8,5.8,5.8l0,0"/>
		<path class="st0" d="M27.4,236H23"/>
		<path class="st0" d="M27.4,236c3.2,0,5.8-2.6,5.8-5.8l0,0"/>
		<path class="st0" d="M227.5,256.1c5.6,0,10.1-4.5,10.1-10.1c0-5.6-4.5-10.1-10.1-10.1"/>
		<path class="st0" d="M227.5,50.2c5.6,0,10.1-4.5,10.1-10.1s-4.5-10.1-10.1-10.1"/>
		<path class="st0" d="M23,30.1c-5.6,0-10.1,4.5-10.1,10.1S17.5,50.2,23,50.2"/>
		<path class="st0" d="M23,236c-5.6,0-10.1,4.5-10.1,10.1c0,5.6,4.5,10.1,10.1,10.1"/>
		<path class="st0" d="M23,30.1h204.5"/>
		<path class="st0" d="M33.1,230.2V56"/>
		<path class="st0" d="M227.5,256.1H23"/>
		<path class="st0" d="M217.4,56v174.2"/>
		<circle id="path4718-8-3" class="st1" cx="227.5" cy="246.1" r="4.6"/>
		<circle id="path4718-8-0" class="st1" cx="23" cy="40.1" r="4.6"/>
		<circle id="path4718-8-3-2" class="st1" cx="227.5" cy="40.1" r="4.6"/>
	</g>
</g>
<g id="Layer_1" class="st2">
	<title>SVG Picture created as PCB-brd.svg date 2020/02/12 13:19:33</title>
	<desc>Picture generated by PCBNEW</desc>
	<g transform="translate(0 0) scale(1 1)" class="st3">
	</g>
	<g class="st3">
		<path class="st4" d="M213.7,120.8v1.5"/>
		<path class="st4" d="M209.7,120.8v1.5"/>
		<path class="st4" d="M183.4,120.8v1.5"/>
		<path class="st4" d="M179.4,120.8v1.5"/>
		<path class="st4" d="M176.2,48v1.5"/>
		<path class="st4" d="M172.2,48v1.5"/>
		<path class="st4" d="M182,48v1.5"/>
		<path class="st4" d="M178,48v1.5"/>
		<path class="st4" d="M153.2,120.8v1.5"/>
		<path class="st4" d="M149.2,120.8v1.5"/>
		<path class="st4" d="M187.8,48v1.5"/>
		<path class="st4" d="M183.7,48v1.5"/>
		<path class="st4" d="M167.2,31.3v7.5"/>
		<path class="st4" d="M174.6,31.3h-7.4"/>
		<path class="st4" d="M174.6,38.9h-7.4"/>
		<path class="st4" d="M174.6,31.3v7.5"/>
		<path class="st4" d="M178.2,31.3h3.8"/>
		<path class="st4" d="M182,31.3v3.8"/>
		<path class="st4" d="M136,69.2v2.7"/>
		<path class="st4" d="M136,71.9h2.7"/>
		<path class="st4" d="M136,45.6v-2.7"/>
		<path class="st4" d="M136,42.9h2.7"/>
		<path class="st4" d="M165,69.2v2.7"/>
		<path class="st4" d="M165,71.9h-2.7"/>
		<path class="st4" d="M165,45.6v-2.7"/>
		<path class="st4" d="M165,42.9h-2.7"/>
		<path class="st4" d="M162.3,42.9v-3.8"/>
		<path class="st4" d="M108.7,77.9v-3.6"/>
		<path class="st4" d="M108.7,58.6v3.6"/>
		<path class="st4" d="M98.1,77.9h10.7"/>
		<path class="st4" d="M91.7,58.6h17"/>
		<path class="st4" d="M41,50.9h12.8"/>
		<path class="st4" d="M37.4,39.6v4.2"/>
		<path class="st4" d="M53.7,32.5H41"/>
		<path class="st4" d="M57.3,43.8v-4.2"/>
		<path class="st4" d="M196.8,50.9h12.8"/>
		<path class="st4" d="M193.3,39.6v4.2"/>
		<path class="st4" d="M209.6,32.5h-12.8"/>
		<path class="st4" d="M213.1,43.8v-4.2"/>
		<path class="st4" d="M209.9,105.3V92.5"/>
		<path class="st4" d="M198.6,108.8h4.3"/>
		<path class="st4" d="M191.5,92.5v12.8"/>
		<path class="st4" d="M202.8,89h-4.3"/>
		<path class="st4" d="M184.7,105.3V92.5"/>
		<path class="st4" d="M173.4,108.8h4.3"/>
		<path class="st4" d="M166.3,92.5v12.8"/>
		<path class="st4" d="M177.6,89h-4.3"/>
		<path class="st4" d="M159.5,105.3V92.5"/>
		<path class="st4" d="M148.2,108.8h4.3"/>
		<path class="st4" d="M141.1,92.5v12.8"/>
		<path class="st4" d="M152.4,89h-4.3"/>
		<path class="st4" d="M134.3,105.3V92.5"/>
		<path class="st4" d="M123,108.8h4.3"/>
		<path class="st4" d="M115.9,92.5v12.8"/>
		<path class="st4" d="M127.2,89H123"/>
		<path class="st4" d="M109.1,105.3V92.5"/>
		<path class="st4" d="M97.8,108.8h4.3"/>
		<path class="st4" d="M90.7,92.5v12.8"/>
		<path class="st4" d="M102,89h-4.3"/>
		<path class="st4" d="M83.9,105.3V92.5"/>
		<path class="st4" d="M72.6,108.8h4.3"/>
		<path class="st4" d="M65.5,92.5v12.8"/>
		<path class="st4" d="M76.8,89h-4.3"/>
		<path class="st4" d="M58.7,105.3V92.5"/>
		<path class="st4" d="M47.4,108.8h4.3"/>
		<path class="st4" d="M40.3,92.5v12.8"/>
		<path class="st4" d="M51.6,89h-4.3"/>
		<path class="st4" d="M52.2,61.1v3.4"/>
		<path class="st4" d="M55.6,61.1h-3.4"/>
		<path class="st4" d="M79.2,73.8h-3.4"/>
		<path class="st4" d="M79.2,61.9v11.9"/>
		<path class="st4" d="M75.8,61.9h3.4"/>
		<path class="st4" d="M53.1,73.8h3.4"/>
		<path class="st4" d="M53.1,61.9v11.9"/>
		<path class="st4" d="M56.5,61.9h-3.4"/>
		<path class="st4" d="M123,120.8v1.5"/>
		<path class="st4" d="M118.9,120.8v1.5"/>
		<path class="st4" d="M92.7,120.8v1.5"/>
		<path class="st4" d="M88.7,120.8v1.5"/>
		<path class="st4" d="M62.5,120.8v1.5"/>
		<path class="st4" d="M58.5,120.8v1.5"/>
		<path class="st4" d="M196.4,122.9h2.6"/>
		<path class="st4" d="M205.4,122.9h-2.6"/>
		<path class="st4" d="M205.4,122.9v-6.1"/>
		<path class="st4" d="M196.4,122.9v-4.1"/>
		<path class="st4" d="M166.2,122.9h2.6"/>
		<path class="st4" d="M175.1,122.9h-2.6"/>
		<path class="st4" d="M175.1,122.9v-6.1"/>
		<path class="st4" d="M166.2,122.9v-4.1"/>
		<path class="st4" d="M135.9,122.9h2.6"/>
		<path class="st4" d="M144.9,122.9h-2.6"/>
		<path class="st4" d="M144.9,122.9v-6.1"/>
		<path class="st4" d="M135.9,122.9v-4.1"/>
		<path class="st4" d="M105.7,122.9h2.6"/>
		<path class="st4" d="M114.6,122.9H112"/>
		<path class="st4" d="M114.6,122.9v-6.1"/>
		<path class="st4" d="M105.7,122.9v-4.1"/>
		<path class="st4" d="M75.4,122.9h2.6"/>
		<path class="st4" d="M84.4,122.9h-2.6"/>
		<path class="st4" d="M84.4,122.9v-6.1"/>
		<path class="st4" d="M75.4,122.9v-4.1"/>
		<path class="st4" d="M45.2,122.9h2.6"/>
		<path class="st4" d="M54.2,122.9h-2.6"/>
		<path class="st4" d="M54.2,122.9v-6.1"/>
		<path class="st4" d="M45.2,122.9v-4.1"/>
		<path class="st4" d="M82.6,38.9v-7.5"/>
		<path class="st4" d="M75.2,38.9h7.4"/>
		<path class="st4" d="M75.2,31.3h7.4"/>
		<path class="st4" d="M75.2,38.9v-7.5"/>
		<path class="st4" d="M71.6,38.9h-3.8"/>
		<path class="st4" d="M67.9,38.9v-3.8"/>
		<path class="st4" d="M45.4,79v-1.1"/>
		<path class="st4" d="M34,79h-0.7"/>
		<path class="st4" d="M45.4,79h-5"/>
		<path class="st4" d="M45.4,57.4v1.1"/>
		<path class="st4" d="M40.4,57.4h5"/>
		<path class="st4" d="M33.2,57.4H34"/>
		<path class="st4" d="M129,38.5V31"/>
		<path class="st4" d="M100.1,38.5h29"/>
		<path class="st4" d="M100.1,31h29"/>
		<path class="st4" d="M100.1,38.5V31"/>
		<path class="st4" d="M96.5,38.5h-3.8"/>
		<path class="st4" d="M92.7,38.5v-3.8"/>
		<path class="st4" d="M208.6,241.6c-1.7-4.4-6.6-6.5-11-4.8c-1.7,0.7-3.2,1.9-4.2,3.5"/>
		<path class="st4" d="M193.4,249c2.4,4,7.6,5.3,11.6,2.9c1.6-1,2.8-2.4,3.5-4.2"/>
		<path class="st4" d="M207.1,241.6c-1.7-3.5-5.9-5-9.5-3.3c-1.5,0.7-2.6,1.9-3.3,3.3"/>
		<path class="st4" d="M194.3,247.7c1.7,3.5,5.9,5,9.5,3.3c1.5-0.7,2.6-1.9,3.3-3.3"/>
		<path class="st4" d="M193.4,240.2v1.3"/>
		<path class="st4" d="M193.4,247.7v1.3"/>
		<path class="st4" d="M183.4,241.6c-1.7-4.4-6.6-6.5-11-4.8c-1.7,0.7-3.2,1.9-4.2,3.5"/>
		<path class="st4" d="M168.2,249c2.4,4,7.6,5.3,11.6,2.9c1.6-1,2.8-2.4,3.5-4.2"/>
		<path class="st4" d="M181.9,241.6c-1.7-3.5-5.9-5-9.5-3.3c-1.5,0.7-2.6,1.9-3.3,3.3"/>
		<path class="st4" d="M169.1,247.7c1.7,3.5,5.9,5,9.5,3.3c1.5-0.7,2.6-1.9,3.3-3.3"/>
		<path class="st4" d="M168.2,240.2v1.3"/>
		<path class="st4" d="M168.2,247.7v1.3"/>
		<path class="st4" d="M158.2,241.6c-1.7-4.4-6.6-6.5-11-4.8c-1.7,0.7-3.2,1.9-4.2,3.5"/>
		<path class="st4" d="M143,249c2.4,4,7.6,5.3,11.6,2.9c1.6-1,2.8-2.4,3.5-4.2"/>
		<path class="st4" d="M156.7,241.6c-1.7-3.5-5.9-5-9.5-3.3c-1.5,0.7-2.6,1.9-3.3,3.3"/>
		<path class="st4" d="M143.9,247.7c1.7,3.5,5.9,5,9.5,3.3c1.5-0.7,2.6-1.9,3.3-3.3"/>
		<path class="st4" d="M143,240.2v1.3"/>
		<path class="st4" d="M143,247.7v1.3"/>
		<path class="st4" d="M133,241.6c-1.7-4.4-6.6-6.5-11-4.8c-1.7,0.7-3.2,1.9-4.2,3.5"/>
		<path class="st4" d="M117.8,249c2.4,4,7.6,5.3,11.6,2.9c1.6-1,2.8-2.4,3.5-4.2"/>
		<path class="st4" d="M131.5,241.6c-1.7-3.5-5.9-5-9.5-3.3c-1.5,0.7-2.6,1.9-3.3,3.3"/>
		<path class="st4" d="M118.7,247.7c1.7,3.5,5.9,5,9.5,3.3c1.5-0.7,2.6-1.9,3.3-3.3"/>
		<path class="st4" d="M117.8,240.2v1.3"/>
		<path class="st4" d="M117.8,247.7v1.3"/>
		<path class="st4" d="M107.8,241.6c-1.7-4.4-6.6-6.5-11-4.8c-1.7,0.7-3.2,1.9-4.2,3.5"/>
		<path class="st4" d="M92.6,249c2.4,4,7.6,5.3,11.6,2.9c1.6-1,2.8-2.4,3.5-4.2"/>
		<path class="st4" d="M106.3,241.6c-1.7-3.5-5.9-5-9.5-3.3c-1.5,0.7-2.6,1.9-3.3,3.3"/>
		<path class="st4" d="M93.5,247.7c1.7,3.5,5.9,5,9.5,3.3c1.5-0.7,2.6-1.9,3.3-3.3"/>
		<path class="st4" d="M92.6,240.2v1.3"/>
		<path class="st4" d="M92.6,247.7v1.3"/>
		<path class="st4" d="M82.6,241.6c-1.7-4.4-6.6-6.5-11-4.8c-1.7,0.7-3.2,1.9-4.2,3.5"/>
		<path class="st4" d="M67.4,249c2.4,4,7.6,5.3,11.6,2.9c1.6-1,2.8-2.4,3.5-4.2"/>
		<path class="st4" d="M81.1,241.6c-1.7-3.5-5.9-5-9.5-3.3c-1.5,0.7-2.6,1.9-3.3,3.3"/>
		<path class="st4" d="M68.3,247.7c1.7,3.5,5.9,5,9.5,3.3c1.5-0.7,2.6-1.9,3.3-3.3"/>
		<path class="st4" d="M67.4,240.2v1.3"/>
		<path class="st4" d="M67.4,247.7v1.3"/>
		<path class="st4" d="M57.4,241.6c-1.7-4.4-6.6-6.5-11-4.8c-1.7,0.7-3.2,1.9-4.2,3.5"/>
		<path class="st4" d="M42.2,249c2.4,4,7.6,5.3,11.6,2.9c1.6-1,2.8-2.4,3.5-4.2"/>
		<path class="st4" d="M55.9,241.6c-1.7-3.5-5.9-5-9.5-3.3c-1.5,0.7-2.6,1.9-3.3,3.3"/>
		<path class="st4" d="M43.1,247.7c1.7,3.5,5.9,5,9.5,3.3c1.5-0.7,2.6-1.9,3.3-3.3"/>
		<path class="st4" d="M42.2,240.2v1.3"/>
		<path class="st4" d="M42.2,247.7v1.3"/>
		<path class="st4" d="M208.6,220c-1.7-4.4-6.6-6.5-11-4.8c-1.7,0.7-3.2,1.9-4.2,3.5"/>
		<path class="st4" d="M193.4,227.4c2.4,4,7.6,5.3,11.6,2.9c1.6-1,2.8-2.4,3.5-4.2"/>
		<path class="st4" d="M207.1,220c-1.7-3.5-5.9-5-9.5-3.3c-1.5,0.7-2.6,1.9-3.3,3.3"/>
		<path class="st4" d="M194.3,226.1c1.7,3.5,5.9,5,9.5,3.3c1.5-0.7,2.6-1.9,3.3-3.3"/>
		<path class="st4" d="M193.4,218.6v1.3"/>
		<path class="st4" d="M193.4,226.1v1.3"/>
		<path class="st4" d="M183.4,220c-1.7-4.4-6.6-6.5-11-4.8c-1.7,0.7-3.2,1.9-4.2,3.5"/>
		<path class="st4" d="M168.2,227.4c2.4,4,7.6,5.3,11.6,2.9c1.6-1,2.8-2.4,3.5-4.2"/>
		<path class="st4" d="M181.9,220c-1.7-3.5-5.9-5-9.5-3.3c-1.5,0.7-2.6,1.9-3.3,3.3"/>
		<path class="st4" d="M169.1,226.1c1.7,3.5,5.9,5,9.5,3.3c1.5-0.7,2.6-1.9,3.3-3.3"/>
		<path class="st4" d="M168.2,218.6v1.3"/>
		<path class="st4" d="M168.2,226.1v1.3"/>
		<path class="st4" d="M158.2,220c-1.7-4.4-6.6-6.5-11-4.8c-1.7,0.7-3.2,1.9-4.2,3.5"/>
		<path class="st4" d="M143,227.4c2.4,4,7.6,5.3,11.6,2.9c1.6-1,2.8-2.4,3.5-4.2"/>
		<path class="st4" d="M156.7,220c-1.7-3.5-5.9-5-9.5-3.3c-1.5,0.7-2.6,1.9-3.3,3.3"/>
		<path class="st4" d="M143.9,226.1c1.7,3.5,5.9,5,9.5,3.3c1.5-0.7,2.6-1.9,3.3-3.3"/>
		<path class="st4" d="M143,218.6v1.3"/>
		<path class="st4" d="M143,226.1v1.3"/>
		<path class="st4" d="M133,220c-1.7-4.4-6.6-6.5-11-4.8c-1.7,0.7-3.2,1.9-4.2,3.5"/>
		<path class="st4" d="M117.8,227.4c2.4,4,7.6,5.3,11.6,2.9c1.6-1,2.8-2.4,3.5-4.2"/>
		<path class="st4" d="M131.5,220c-1.7-3.5-5.9-5-9.5-3.3c-1.5,0.7-2.6,1.9-3.3,3.3"/>
		<path class="st4" d="M118.7,226.1c1.7,3.5,5.9,5,9.5,3.3c1.5-0.7,2.6-1.9,3.3-3.3"/>
		<path class="st4" d="M117.8,218.6v1.3"/>
		<path class="st4" d="M117.8,226.1v1.3"/>
		<path class="st4" d="M107.8,220c-1.7-4.4-6.6-6.5-11-4.8c-1.7,0.7-3.2,1.9-4.2,3.5"/>
		<path class="st4" d="M92.6,227.4c2.4,4,7.6,5.3,11.6,2.9c1.6-1,2.8-2.4,3.5-4.2"/>
		<path class="st4" d="M106.3,220c-1.7-3.5-5.9-5-9.5-3.3c-1.5,0.7-2.6,1.9-3.3,3.3"/>
		<path class="st4" d="M93.5,226.1c1.7,3.5,5.9,5,9.5,3.3c1.5-0.7,2.6-1.9,3.3-3.3"/>
		<path class="st4" d="M92.6,218.6v1.3"/>
		<path class="st4" d="M92.6,226.1v1.3"/>
		<path class="st4" d="M82.6,220c-1.7-4.4-6.6-6.5-11-4.8c-1.7,0.7-3.2,1.9-4.2,3.5"/>
		<path class="st4" d="M67.4,227.4c2.4,4,7.6,5.3,11.6,2.9c1.6-1,2.8-2.4,3.5-4.2"/>
		<path class="st4" d="M81.1,220c-1.7-3.5-5.9-5-9.5-3.3c-1.5,0.7-2.6,1.9-3.3,3.3"/>
		<path class="st4" d="M68.3,226.1c1.7,3.5,5.9,5,9.5,3.3c1.5-0.7,2.6-1.9,3.3-3.3"/>
		<path class="st4" d="M67.4,218.6v1.3"/>
		<path class="st4" d="M67.4,226.1v1.3"/>
		<path class="st4" d="M57.4,220c-1.7-4.4-6.6-6.5-11-4.8c-1.7,0.7-3.2,1.9-4.2,3.5"/>
		<path class="st4" d="M42.2,227.4c2.4,4,7.6,5.3,11.6,2.9c1.6-1,2.8-2.4,3.5-4.2"/>
		<path class="st4" d="M55.9,220c-1.7-3.5-5.9-5-9.5-3.3c-1.5,0.7-2.6,1.9-3.3,3.3"/>
		<path class="st4" d="M43.1,226.1c1.7,3.5,5.9,5,9.5,3.3c1.5-0.7,2.6-1.9,3.3-3.3"/>
		<path class="st4" d="M42.2,218.6v1.3"/>
		<path class="st4" d="M42.2,226.1v1.3"/>
		<path class="st4" d="M208.6,198.4c-1.7-4.4-6.6-6.5-11-4.8c-1.7,0.7-3.2,1.9-4.2,3.5"/>
		<path class="st4" d="M193.4,205.8c2.4,4,7.6,5.3,11.6,2.9c1.6-1,2.8-2.4,3.5-4.2"/>
		<path class="st4" d="M207.1,198.4c-1.7-3.5-5.9-5-9.5-3.3c-1.5,0.7-2.6,1.9-3.3,3.3"/>
		<path class="st4" d="M194.3,204.5c1.7,3.5,5.9,5,9.5,3.3c1.5-0.7,2.6-1.9,3.3-3.3"/>
		<path class="st4" d="M193.4,197v1.3"/>
		<path class="st4" d="M193.4,204.5v1.3"/>
		<path class="st4" d="M183.4,198.4c-1.7-4.4-6.6-6.5-11-4.8c-1.7,0.7-3.2,1.9-4.2,3.5"/>
		<path class="st4" d="M168.2,205.8c2.4,4,7.6,5.3,11.6,2.9c1.6-1,2.8-2.4,3.5-4.2"/>
		<path class="st4" d="M181.9,198.4c-1.7-3.5-5.9-5-9.5-3.3c-1.5,0.7-2.6,1.9-3.3,3.3"/>
		<path class="st4" d="M169.1,204.5c1.7,3.5,5.9,5,9.5,3.3c1.5-0.7,2.6-1.9,3.3-3.3"/>
		<path class="st4" d="M168.2,197v1.3"/>
		<path class="st4" d="M168.2,204.5v1.3"/>
		<path class="st4" d="M158.2,198.4c-1.7-4.4-6.6-6.5-11-4.8c-1.7,0.7-3.2,1.9-4.2,3.5"/>
		<path class="st4" d="M143,205.8c2.4,4,7.6,5.3,11.6,2.9c1.6-1,2.8-2.4,3.5-4.2"/>
		<path class="st4" d="M156.7,198.4c-1.7-3.5-5.9-5-9.5-3.3c-1.5,0.7-2.6,1.9-3.3,3.3"/>
		<path class="st4" d="M143.9,204.5c1.7,3.5,5.9,5,9.5,3.3c1.5-0.7,2.6-1.9,3.3-3.3"/>
		<path class="st4" d="M143,197v1.3"/>
		<path class="st4" d="M143,204.5v1.3"/>
		<path class="st4" d="M133,198.4c-1.7-4.4-6.6-6.5-11-4.8c-1.7,0.7-3.2,1.9-4.2,3.5"/>
		<path class="st4" d="M117.8,205.8c2.4,4,7.6,5.3,11.6,2.9c1.6-1,2.8-2.4,3.5-4.2"/>
		<path class="st4" d="M131.5,198.4c-1.7-3.5-5.9-5-9.5-3.3c-1.5,0.7-2.6,1.9-3.3,3.3"/>
		<path class="st4" d="M118.7,204.5c1.7,3.5,5.9,5,9.5,3.3c1.5-0.7,2.6-1.9,3.3-3.3"/>
		<path class="st4" d="M117.8,197v1.3"/>
		<path class="st4" d="M117.8,204.5v1.3"/>
		<path class="st4" d="M107.8,198.4c-1.7-4.4-6.6-6.5-11-4.8c-1.7,0.7-3.2,1.9-4.2,3.5"/>
		<path class="st4" d="M92.6,205.8c2.4,4,7.6,5.3,11.6,2.9c1.6-1,2.8-2.4,3.5-4.2"/>
		<path class="st4" d="M106.3,198.4c-1.7-3.5-5.9-5-9.5-3.3c-1.5,0.7-2.6,1.9-3.3,3.3"/>
		<path class="st4" d="M93.5,204.5c1.7,3.5,5.9,5,9.5,3.3c1.5-0.7,2.6-1.9,3.3-3.3"/>
		<path class="st4" d="M92.6,197v1.3"/>
		<path class="st4" d="M92.6,204.5v1.3"/>
		<path class="st4" d="M82.6,198.4c-1.7-4.4-6.6-6.5-11-4.8c-1.7,0.7-3.2,1.9-4.2,3.5"/>
		<path class="st4" d="M67.4,205.8c2.4,4,7.6,5.3,11.6,2.9c1.6-1,2.8-2.4,3.5-4.2"/>
		<path class="st4" d="M81.1,198.4c-1.7-3.5-5.9-5-9.5-3.3c-1.5,0.7-2.6,1.9-3.3,3.3"/>
		<path class="st4" d="M68.3,204.5c1.7,3.5,5.9,5,9.5,3.3c1.5-0.7,2.6-1.9,3.3-3.3"/>
		<path class="st4" d="M67.4,197v1.3"/>
		<path class="st4" d="M67.4,204.5v1.3"/>
		<path class="st4" d="M57.4,198.4c-1.7-4.4-6.6-6.5-11-4.8c-1.7,0.7-3.2,1.9-4.2,3.5"/>
		<path class="st4" d="M42.2,205.8c2.4,4,7.6,5.3,11.6,2.9c1.6-1,2.8-2.4,3.5-4.2"/>
		<path class="st4" d="M55.9,198.4c-1.7-3.5-5.9-5-9.5-3.3c-1.5,0.7-2.6,1.9-3.3,3.3"/>
		<path class="st4" d="M43.1,204.5c1.7,3.5,5.9,5,9.5,3.3c1.5-0.7,2.6-1.9,3.3-3.3"/>
		<path class="st4" d="M42.2,197v1.3"/>
		<path class="st4" d="M42.2,204.5v1.3"/>
		<path class="st4" d="M208.6,176.8c-1.7-4.4-6.6-6.5-11-4.8c-1.7,0.7-3.2,1.9-4.2,3.5"/>
		<path class="st4" d="M193.4,184.2c2.4,4,7.6,5.3,11.6,2.9c1.6-1,2.8-2.4,3.5-4.2"/>
		<path class="st4" d="M207.1,176.8c-1.7-3.5-5.9-5-9.5-3.3c-1.5,0.7-2.6,1.9-3.3,3.3"/>
		<path class="st4" d="M194.3,182.9c1.7,3.5,5.9,5,9.5,3.3c1.5-0.7,2.6-1.9,3.3-3.3"/>
		<path class="st4" d="M193.4,175.4v1.3"/>
		<path class="st4" d="M193.4,182.9v1.3"/>
		<path class="st4" d="M183.4,176.8c-1.7-4.4-6.6-6.5-11-4.8c-1.7,0.7-3.2,1.9-4.2,3.5"/>
		<path class="st4" d="M168.2,184.2c2.4,4,7.6,5.3,11.6,2.9c1.6-1,2.8-2.4,3.5-4.2"/>
		<path class="st4" d="M181.9,176.8c-1.7-3.5-5.9-5-9.5-3.3c-1.5,0.7-2.6,1.9-3.3,3.3"/>
		<path class="st4" d="M169.1,182.9c1.7,3.5,5.9,5,9.5,3.3c1.5-0.7,2.6-1.9,3.3-3.3"/>
		<path class="st4" d="M168.2,175.4v1.3"/>
		<path class="st4" d="M168.2,182.9v1.3"/>
		<path class="st4" d="M158.2,176.8c-1.7-4.4-6.6-6.5-11-4.8c-1.7,0.7-3.2,1.9-4.2,3.5"/>
		<path class="st4" d="M143,184.2c2.4,4,7.6,5.3,11.6,2.9c1.6-1,2.8-2.4,3.5-4.2"/>
		<path class="st4" d="M156.7,176.8c-1.7-3.5-5.9-5-9.5-3.3c-1.5,0.7-2.6,1.9-3.3,3.3"/>
		<path class="st4" d="M143.9,182.9c1.7,3.5,5.9,5,9.5,3.3c1.5-0.7,2.6-1.9,3.3-3.3"/>
		<path class="st4" d="M143,175.4v1.3"/>
		<path class="st4" d="M143,182.9v1.3"/>
		<path class="st4" d="M133,176.8c-1.7-4.4-6.6-6.5-11-4.8c-1.7,0.7-3.2,1.9-4.2,3.5"/>
		<path class="st4" d="M117.8,184.2c2.4,4,7.6,5.3,11.6,2.9c1.6-1,2.8-2.4,3.5-4.2"/>
		<path class="st4" d="M131.5,176.8c-1.7-3.5-5.9-5-9.5-3.3c-1.5,0.7-2.6,1.9-3.3,3.3"/>
		<path class="st4" d="M118.7,182.9c1.7,3.5,5.9,5,9.5,3.3c1.5-0.7,2.6-1.9,3.3-3.3"/>
		<path class="st4" d="M117.8,175.4v1.3"/>
		<path class="st4" d="M117.8,182.9v1.3"/>
		<path class="st4" d="M107.8,176.8c-1.7-4.4-6.6-6.5-11-4.8c-1.7,0.7-3.2,1.9-4.2,3.5"/>
		<path class="st4" d="M92.6,184.2c2.4,4,7.6,5.3,11.6,2.9c1.6-1,2.8-2.4,3.5-4.2"/>
		<path class="st4" d="M106.3,176.8c-1.7-3.5-5.9-5-9.5-3.3c-1.5,0.7-2.6,1.9-3.3,3.3"/>
		<path class="st4" d="M93.5,182.9c1.7,3.5,5.9,5,9.5,3.3c1.5-0.7,2.6-1.9,3.3-3.3"/>
		<path class="st4" d="M92.6,175.4v1.3"/>
		<path class="st4" d="M92.6,182.9v1.3"/>
		<path class="st4" d="M82.6,176.8c-1.7-4.4-6.6-6.5-11-4.8c-1.7,0.7-3.2,1.9-4.2,3.5"/>
		<path class="st4" d="M67.4,184.2c2.4,4,7.6,5.3,11.6,2.9c1.6-1,2.8-2.4,3.5-4.2"/>
		<path class="st4" d="M81.1,176.8c-1.7-3.5-5.9-5-9.5-3.3c-1.5,0.7-2.6,1.9-3.3,3.3"/>
		<path class="st4" d="M68.3,182.9c1.7,3.5,5.9,5,9.5,3.3c1.5-0.7,2.6-1.9,3.3-3.3"/>
		<path class="st4" d="M67.4,175.4v1.3"/>
		<path class="st4" d="M67.4,182.9v1.3"/>
		<path class="st4" d="M57.4,176.8c-1.7-4.4-6.6-6.5-11-4.8c-1.7,0.7-3.2,1.9-4.2,3.5"/>
		<path class="st4" d="M42.2,184.2c2.4,4,7.6,5.3,11.6,2.9c1.6-1,2.8-2.4,3.5-4.2"/>
		<path class="st4" d="M55.9,176.8c-1.7-3.5-5.9-5-9.5-3.3c-1.5,0.7-2.6,1.9-3.3,3.3"/>
		<path class="st4" d="M43.1,182.9c1.7,3.5,5.9,5,9.5,3.3c1.5-0.7,2.6-1.9,3.3-3.3"/>
		<path class="st4" d="M42.2,175.4v1.3"/>
		<path class="st4" d="M42.2,182.9v1.3"/>
		<path class="st4" d="M189.9,71.3c1.7,4.4,6.6,6.5,11,4.8c1.7-0.7,3.2-1.9,4.2-3.5"/>
		<path class="st4" d="M205.1,63.8c-2.4-4-7.6-5.3-11.6-2.9c-1.6,1-2.8,2.4-3.5,4.2"/>
		<path class="st4" d="M191.4,71.3c1.7,3.5,5.9,5,9.5,3.3c1.5-0.7,2.6-1.9,3.3-3.3"/>
		<path class="st4" d="M204.2,65.2c-1.7-3.5-5.9-5-9.5-3.3c-1.5,0.7-2.6,1.9-3.3,3.3"/>
		<path class="st4" d="M205.1,72.6v-1.3"/>
		<path class="st4" d="M205.1,65.2v-1.3"/>
		<path class="st4" d="M208.6,155.2c-1.7-4.4-6.6-6.5-11-4.8c-1.7,0.7-3.2,1.9-4.2,3.5"/>
		<path class="st4" d="M193.4,162.6c2.4,4,7.6,5.3,11.6,2.9c1.6-1,2.8-2.4,3.5-4.2"/>
		<path class="st4" d="M207.1,155.2c-1.7-3.5-5.9-5-9.5-3.3c-1.5,0.7-2.6,1.9-3.3,3.3"/>
		<path class="st4" d="M194.3,161.3c1.7,3.5,5.9,5,9.5,3.3c1.5-0.7,2.6-1.9,3.3-3.3"/>
		<path class="st4" d="M193.4,153.8v1.3"/>
		<path class="st4" d="M193.4,161.3v1.3"/>
		<path class="st4" d="M183.4,155.2c-1.7-4.4-6.6-6.5-11-4.8c-1.7,0.7-3.2,1.9-4.2,3.5"/>
		<path class="st4" d="M168.2,162.6c2.4,4,7.6,5.3,11.6,2.9c1.6-1,2.8-2.4,3.5-4.2"/>
		<path class="st4" d="M181.9,155.2c-1.7-3.5-5.9-5-9.5-3.3c-1.5,0.7-2.6,1.9-3.3,3.3"/>
		<path class="st4" d="M169.1,161.3c1.7,3.5,5.9,5,9.5,3.3c1.5-0.7,2.6-1.9,3.3-3.3"/>
		<path class="st4" d="M168.2,153.8v1.3"/>
		<path class="st4" d="M168.2,161.3v1.3"/>
		<path class="st4" d="M158.2,155.2c-1.7-4.4-6.6-6.5-11-4.8c-1.7,0.7-3.2,1.9-4.2,3.5"/>
		<path class="st4" d="M143,162.6c2.4,4,7.6,5.3,11.6,2.9c1.6-1,2.8-2.4,3.5-4.2"/>
		<path class="st4" d="M156.7,155.2c-1.7-3.5-5.9-5-9.5-3.3c-1.5,0.7-2.6,1.9-3.3,3.3"/>
		<path class="st4" d="M143.9,161.3c1.7,3.5,5.9,5,9.5,3.3c1.5-0.7,2.6-1.9,3.3-3.3"/>
		<path class="st4" d="M143,153.8v1.3"/>
		<path class="st4" d="M143,161.3v1.3"/>
		<path class="st4" d="M133,155.2c-1.7-4.4-6.6-6.5-11-4.8c-1.7,0.7-3.2,1.9-4.2,3.5"/>
		<path class="st4" d="M117.8,162.6c2.4,4,7.6,5.3,11.6,2.9c1.6-1,2.8-2.4,3.5-4.2"/>
		<path class="st4" d="M131.5,155.2c-1.7-3.5-5.9-5-9.5-3.3c-1.5,0.7-2.6,1.9-3.3,3.3"/>
		<path class="st4" d="M118.7,161.3c1.7,3.5,5.9,5,9.5,3.3c1.5-0.7,2.6-1.9,3.3-3.3"/>
		<path class="st4" d="M117.8,153.8v1.3"/>
		<path class="st4" d="M117.8,161.3v1.3"/>
		<path class="st4" d="M107.8,155.2c-1.7-4.4-6.6-6.5-11-4.8c-1.7,0.7-3.2,1.9-4.2,3.5"/>
		<path class="st4" d="M92.6,162.6c2.4,4,7.6,5.3,11.6,2.9c1.6-1,2.8-2.4,3.5-4.2"/>
		<path class="st4" d="M106.3,155.2c-1.7-3.5-5.9-5-9.5-3.3c-1.5,0.7-2.6,1.9-3.3,3.3"/>
		<path class="st4" d="M93.5,161.3c1.7,3.5,5.9,5,9.5,3.3c1.5-0.7,2.6-1.9,3.3-3.3"/>
		<path class="st4" d="M92.6,153.8v1.3"/>
		<path class="st4" d="M92.6,161.3v1.3"/>
		<path class="st4" d="M82.6,155.2c-1.7-4.4-6.6-6.5-11-4.8c-1.7,0.7-3.2,1.9-4.2,3.5"/>
		<path class="st4" d="M67.4,162.6c2.4,4,7.6,5.3,11.6,2.9c1.6-1,2.8-2.4,3.5-4.2"/>
		<path class="st4" d="M81.1,155.2c-1.7-3.5-5.9-5-9.5-3.3c-1.5,0.7-2.6,1.9-3.3,3.3"/>
		<path class="st4" d="M68.3,161.3c1.7,3.5,5.9,5,9.5,3.3c1.5-0.7,2.6-1.9,3.3-3.3"/>
		<path class="st4" d="M67.4,153.8v1.3"/>
		<path class="st4" d="M67.4,161.3v1.3"/>
		<path class="st4" d="M57.4,155.2c-1.7-4.4-6.6-6.5-11-4.8c-1.7,0.7-3.2,1.9-4.2,3.5"/>
		<path class="st4" d="M42.2,162.6c2.4,4,7.6,5.3,11.6,2.9c1.6-1,2.8-2.4,3.5-4.2"/>
		<path class="st4" d="M55.9,155.2c-1.7-3.5-5.9-5-9.5-3.3c-1.5,0.7-2.6,1.9-3.3,3.3"/>
		<path class="st4" d="M43.1,161.3c1.7,3.5,5.9,5,9.5,3.3c1.5-0.7,2.6-1.9,3.3-3.3"/>
		<path class="st4" d="M42.2,153.8v1.3"/>
		<path class="st4" d="M42.2,161.3v1.3"/>
		<path class="st4" d="M208.6,133.6c-1.7-4.4-6.6-6.5-11-4.8c-1.7,0.7-3.2,1.9-4.2,3.5"/>
		<path class="st4" d="M193.4,141c2.4,4,7.6,5.3,11.6,2.9c1.6-1,2.8-2.4,3.5-4.2"/>
		<path class="st4" d="M207.1,133.6c-1.7-3.5-5.9-5-9.5-3.3c-1.5,0.7-2.6,1.9-3.3,3.3"/>
		<path class="st4" d="M194.3,139.7c1.7,3.5,5.9,5,9.5,3.3c1.5-0.7,2.6-1.9,3.3-3.3"/>
		<path class="st4" d="M193.4,132.2v1.3"/>
		<path class="st4" d="M193.4,139.7v1.3"/>
		<path class="st4" d="M183.4,133.6c-1.7-4.4-6.6-6.5-11-4.8c-1.7,0.7-3.2,1.9-4.2,3.5"/>
		<path class="st4" d="M168.2,141c2.4,4,7.6,5.3,11.6,2.9c1.6-1,2.8-2.4,3.5-4.2"/>
		<path class="st4" d="M181.9,133.6c-1.7-3.5-5.9-5-9.5-3.3c-1.5,0.7-2.6,1.9-3.3,3.3"/>
		<path class="st4" d="M169.1,139.7c1.7,3.5,5.9,5,9.5,3.3c1.5-0.7,2.6-1.9,3.3-3.3"/>
		<path class="st4" d="M168.2,132.2v1.3"/>
		<path class="st4" d="M168.2,139.7v1.3"/>
		<path class="st4" d="M158.2,133.6c-1.7-4.4-6.6-6.5-11-4.8c-1.7,0.7-3.2,1.9-4.2,3.5"/>
		<path class="st4" d="M143,141c2.4,4,7.6,5.3,11.6,2.9c1.6-1,2.8-2.4,3.5-4.2"/>
		<path class="st4" d="M156.7,133.6c-1.7-3.5-5.9-5-9.5-3.3c-1.5,0.7-2.6,1.9-3.3,3.3"/>
		<path class="st4" d="M143.9,139.7c1.7,3.5,5.9,5,9.5,3.3c1.5-0.7,2.6-1.9,3.3-3.3"/>
		<path class="st4" d="M143,132.2v1.3"/>
		<path class="st4" d="M143,139.7v1.3"/>
		<path class="st4" d="M133,133.6c-1.7-4.4-6.6-6.5-11-4.8c-1.7,0.7-3.2,1.9-4.2,3.5"/>
		<path class="st4" d="M117.8,141c2.4,4,7.6,5.3,11.6,2.9c1.6-1,2.8-2.4,3.5-4.2"/>
		<path class="st4" d="M131.5,133.6c-1.7-3.5-5.9-5-9.5-3.3c-1.5,0.7-2.6,1.9-3.3,3.3"/>
		<path class="st4" d="M118.7,139.7c1.7,3.5,5.9,5,9.5,3.3c1.5-0.7,2.6-1.9,3.3-3.3"/>
		<path class="st4" d="M117.8,132.2v1.3"/>
		<path class="st4" d="M117.8,139.7v1.3"/>
		<path class="st4" d="M107.8,133.6c-1.7-4.4-6.6-6.5-11-4.8c-1.7,0.7-3.2,1.9-4.2,3.5"/>
		<path class="st4" d="M92.6,141c2.4,4,7.6,5.3,11.6,2.9c1.6-1,2.8-2.4,3.5-4.2"/>
		<path class="st4" d="M106.3,133.6c-1.7-3.5-5.9-5-9.5-3.3c-1.5,0.7-2.6,1.9-3.3,3.3"/>
		<path class="st4" d="M93.5,139.7c1.7,3.5,5.9,5,9.5,3.3c1.5-0.7,2.6-1.9,3.3-3.3"/>
		<path class="st4" d="M92.6,132.2v1.3"/>
		<path class="st4" d="M92.6,139.7v1.3"/>
		<path class="st4" d="M82.6,133.6c-1.7-4.4-6.6-6.5-11-4.8c-1.7,0.7-3.2,1.9-4.2,3.5"/>
		<path class="st4" d="M67.4,141c2.4,4,7.6,5.3,11.6,2.9c1.6-1,2.8-2.4,3.5-4.2"/>
		<path class="st4" d="M81.1,133.6c-1.7-3.5-5.9-5-9.5-3.3c-1.5,0.7-2.6,1.9-3.3,3.3"/>
		<path class="st4" d="M68.3,139.7c1.7,3.5,5.9,5,9.5,3.3c1.5-0.7,2.6-1.9,3.3-3.3"/>
		<path class="st4" d="M67.4,132.2v1.3"/>
		<path class="st4" d="M67.4,139.7v1.3"/>
		<path class="st4" d="M57.4,133.6c-1.7-4.4-6.6-6.5-11-4.8c-1.7,0.7-3.2,1.9-4.2,3.5"/>
		<path class="st4" d="M42.2,141c2.4,4,7.6,5.3,11.6,2.9c1.6-1,2.8-2.4,3.5-4.2"/>
		<path class="st4" d="M55.9,133.6c-1.7-3.5-5.9-5-9.5-3.3c-1.5,0.7-2.6,1.9-3.3,3.3"/>
		<path class="st4" d="M43.1,139.7c1.7,3.5,5.9,5,9.5,3.3c1.5-0.7,2.6-1.9,3.3-3.3"/>
		<path class="st4" d="M42.2,132.2v1.3"/>
		<path class="st4" d="M42.2,139.7v1.3"/>
		<path class="st4" d="M65.5,54H67"/>
		<path class="st4" d="M65.5,58H67"/>
	</g>
	<g class="st3">
		<g transform="rotate(-90 29374.6 16490.4)">
			<g class="st5">
				<rect x="45740.4" y="-12680.3" class="st6" width="6.3" height="6.9"/>
				<text transform="matrix(1 0 0 1 45740.0313 -12676.7227)" class="st7 st8 st9">R30</text>
			</g>
			<g class="st5">
				<rect x="45740.4" y="-12680.3" class="st6" width="6.3" height="6.9"/>
				<text transform="matrix(1 0 0 1 45740.0273 -12676.7246)" class="st10 st8 st9">R30</text>
			</g>
		</g>
		<path class="st11" d="M208.6,123.3l-1.3,0.9"/>
		<path class="st11" d="M208.6,124.9h-2.8v-1.1l0.1-0.3l0.1-0.1l0.3-0.1h0.4l0.3,0.1l0.1,0.1l0.1,0.3v1.1"/>
		<path class="st11" d="M205.8,122.4v-1.8l1.1,0.9v-0.4l0.1-0.3l0.1-0.1l0.3-0.1h0.7l0.3,0.1l0.1,0.1l0.1,0.3v0.8l-0.1,0.3l-0.1,0.1
			"/>
		<path class="st11" d="M205.8,118.9v-0.3l0.1-0.3l0.1-0.1l0.3-0.1l0.5-0.1h0.7l0.5,0.1l0.3,0.1l0.1,0.1l0.1,0.3v0.3l-0.1,0.3
			l-0.1,0.1l-0.3,0.1l-0.5,0.1h-0.7l-0.5-0.1l-0.3-0.1l-0.1-0.1L205.8,118.9"/>
		<g transform="rotate(-90 25174.6 16490.4)">
			<g class="st5">
				<rect x="41540.7" y="-8510.4" class="st6" width="5.7" height="6.9"/>
				<text transform="matrix(1 0 0 1 41540.0313 -8506.5322)" class="st7 st8 st9">R29</text>
			</g>
			<g class="st5">
				<rect x="41540.7" y="-8510.4" class="st6" width="5.7" height="6.9"/>
				<text transform="matrix(1 0 0 1 41540.0273 -8506.5342)" class="st10 st8 st9">R29</text>
			</g>
		</g>
		<path class="st11" d="M178.4,123.3l-1.3,0.9"/>
		<path class="st11" d="M178.4,124.9h-2.8v-1.1l0.1-0.3l0.1-0.1l0.3-0.1h0.4l0.3,0.1l0.1,0.1l0.1,0.3v1.1"/>
		<path class="st11" d="M175.8,122.2l-0.1-0.1l-0.1-0.3v-0.7l0.1-0.3l0.1-0.1l0.3-0.1h0.3l0.4,0.1l1.6,1.6v-1.8"/>
		<path class="st11" d="M178.4,119.3v-0.5l-0.1-0.3l-0.1-0.1l-0.4-0.3l-0.5-0.1h-1.1l-0.3,0.1l-0.1,0.1l-0.1,0.3v0.5l0.1,0.3
			l0.1,0.1l0.3,0.1h0.7l0.3-0.1l0.1-0.1l0.1-0.3v-0.5l-0.1-0.3l-0.1-0.1l-0.3-0.1"/>
		<g transform="rotate(-90 24774.6 7790.35)">
			<g class="st5">
				<rect x="32503.3" y="-16813.3" class="st6" width="5.7" height="6.9"/>
				<text transform="matrix(1 0 0 1 32502.6191 -16809.4629)" class="st7 st8 st9">R28</text>
			</g>
			<g class="st5">
				<rect x="32503.3" y="-16813.3" class="st6" width="5.7" height="6.9"/>
				<text transform="matrix(1 0 0 1 32502.6191 -16809.4648)" class="st10 st8 st9">R28</text>
			</g>
		</g>
		<path class="st11" d="M175.5,60.7l-1.3,0.9"/>
		<path class="st11" d="M175.5,62.3h-2.8v-1.1l0.1-0.3l0.1-0.1l0.3-0.1h0.4l0.3,0.1l0.1,0.1l0.1,0.3v1.1"/>
		<path class="st11" d="M173,59.6l-0.1-0.1l-0.1-0.3v-0.7l0.1-0.3l0.1-0.1l0.3-0.1h0.3l0.4,0.1l1.6,1.6V58"/>
		<path class="st11" d="M173.9,56.4l-0.1,0.3l-0.1,0.1l-0.3,0.1h-0.1l-0.3-0.1l-0.1-0.1l-0.1-0.3v-0.5l0.1-0.3l0.1-0.1l0.3-0.1h0.1
			l0.3,0.1l0.1,0.1l0.1,0.3V56.4l0.1,0.3l0.1,0.1l0.3,0.1h0.5l0.3-0.1l0.1-0.1l0.1-0.3v-0.5l-0.1-0.3l-0.1-0.1l-0.3-0.1h-0.5
			l-0.3,0.1l-0.1,0.1l-0.1,0.3"/>
		<g transform="rotate(-90 25574.6 7790.35)">
			<g class="st5">
				<rect x="33303.3" y="-17607.6" class="st6" width="5.7" height="6.9"/>
				<text transform="matrix(1 0 0 1 33302.6211 -17603.7031)" class="st7 st8 st9">R27</text>
			</g>
			<g class="st5">
				<rect x="33303.3" y="-17607.6" class="st6" width="5.7" height="6.9"/>
				<text transform="matrix(1 0 0 1 33302.6172 -17603.7051)" class="st10 st8 st9">R27</text>
			</g>
		</g>
		<path class="st11" d="M181.3,60.7l-1.3,0.9"/>
		<path class="st11" d="M181.3,62.3h-2.8v-1.1l0.1-0.3l0.1-0.1l0.3-0.1h0.4l0.3,0.1l0.1,0.1l0.1,0.3v1.1"/>
		<path class="st11" d="M178.7,59.6l-0.1-0.1l-0.1-0.3v-0.7l0.1-0.3l0.1-0.1L179,58h0.3l0.4,0.1l1.6,1.6V58"/>
		<path class="st11" d="M178.4,57v-1.9l2.8,1.2"/>
		<g transform="rotate(-90 20974.6 16490.4)">
			<g class="st5">
				<rect x="37340.7" y="-4340.6" class="st6" width="5.7" height="6.9"/>
				<text transform="matrix(1 0 0 1 37340.0313 -4336.772)" class="st7 st8 st9">R26</text>
			</g>
			<g class="st5">
				<rect x="37340.7" y="-4340.7" class="st6" width="5.7" height="6.9"/>
				<text transform="matrix(1 0 0 1 37340.0273 -4336.7739)" class="st10 st8 st9">R26</text>
			</g>
		</g>
		<path class="st11" d="M148.2,123.3l-1.3,0.9"/>
		<path class="st11" d="M148.2,124.9h-2.8v-1.1l0.1-0.3l0.1-0.1l0.3-0.1h0.4l0.3,0.1l0.1,0.1l0.1,0.3v1.1"/>
		<path class="st11" d="M145.6,122.2l-0.1-0.1l-0.1-0.3v-0.7l0.1-0.3l0.1-0.1l0.3-0.1h0.3l0.4,0.1l1.6,1.6v-1.8"/>
		<path class="st11" d="M145.3,118.2v0.5l0.1,0.3l0.1,0.1l0.4,0.3l0.5,0.1h1.1l0.3-0.1l0.1-0.1l0.1-0.3v-0.5l-0.1-0.3l-0.1-0.1
			l-0.3-0.1h-0.7l-0.3,0.1l-0.1,0.1l-0.1,0.3v0.5l0.1,0.3l0.1,0.1l0.3,0.1"/>
		<g transform="rotate(-90 26374.6 7790.35)">
			<g class="st5">
				<rect x="34103.3" y="-18401.8" class="st6" width="5.7" height="6.9"/>
				<text transform="matrix(1 0 0 1 34102.6211 -18397.9414)" class="st7 st8 st9">R25</text>
			</g>
			<g class="st5">
				<rect x="34103.3" y="-18401.8" class="st6" width="5.7" height="6.9"/>
				<text transform="matrix(1 0 0 1 34102.6172 -18397.9434)" class="st10 st8 st9">R25</text>
			</g>
		</g>
		<path class="st11" d="M187,60.7l-1.3,0.9"/>
		<path class="st11" d="M187,62.3h-2.8v-1.1l0.1-0.3l0.1-0.1l0.3-0.1h0.4l0.3,0.1l0.1,0.1l0.1,0.3v1.1"/>
		<path class="st11" d="M184.5,59.6l-0.1-0.1l-0.1-0.3v-0.7l0.1-0.3l0.1-0.1l0.3-0.1h0.3l0.4,0.1l1.6,1.6V58"/>
		<path class="st11" d="M184.2,55.4v1.3l1.4,0.1l-0.1-0.1l-0.1-0.3v-0.7l0.1-0.3l0.1-0.1l0.3-0.1h0.7l0.3,0.1l0.1,0.1l0.1,0.3v0.7
			l-0.1,0.3l-0.1,0.1"/>
		<g transform="rotate(-90 26241.9 4490.35)">
			<g class="st5">
				<rect x="30694.1" y="-21568.7" class="st6" width="6.1" height="4"/>
				<text transform="matrix(1 0 0 1 30695.1523 -21566.4863)" class="st7 st8 st9">J3</text>
			</g>
			<g class="st5">
				<rect x="30694.1" y="-21568.7" class="st6" width="6.1" height="4"/>
				<text transform="matrix(1 0 0 1 30695.1504 -21566.4883)" class="st10 st8 st9">J3</text>
			</g>
		</g>
		<path class="st11" d="M183.2,36h2l0.4,0.1l0.3,0.3l0.1,0.4v0.3"/>
		<path class="st11" d="M183.2,35v-1.8l1.1,1v-0.4l0.1-0.3l0.1-0.1l0.3-0.1h0.7l0.3,0.1l0.1,0.1l0.1,0.3v0.8l-0.1,0.3l-0.1,0.1"/>
		<g transform="rotate(-90 19174.6 5590.35)">
			<g class="st5">
				<rect x="24719" y="-13452.6" class="st6" width="5.8" height="4.8"/>
				<text transform="matrix(1 0 0 1 24719.5117 -13449.8486)" class="st7 st8 st9">U2</text>
			</g>
			<g class="st5">
				<rect x="24719" y="-13452.6" class="st6" width="5.8" height="4.8"/>
				<text transform="matrix(1 0 0 1 24719.5098 -13449.8506)" class="st10 st8 st9">U2</text>
			</g>
		</g>
		<path class="st11" d="M132.4,45.2h2.3l0.3-0.1l0.1-0.1l0.1-0.3v-0.5l-0.1-0.3l-0.1-0.1l-0.3-0.1h-2.3"/>
		<path class="st11" d="M132.6,42.3l-0.1-0.1l-0.1-0.3v-0.7l0.1-0.3l0.1-0.1l0.3-0.1h0.3l0.4,0.1l1.6,1.6v-1.8"/>
		<g transform="rotate(-90 15374.6 9990.35)">
			<g class="st5">
				<rect x="25287.4" y="-5280" class="st6" width="5.8" height="4.8"/>
				<text transform="matrix(1 0 0 1 25287.8301 -5277.209)" class="st7 st8 st9">U1</text>
			</g>
			<g class="st5">
				<rect x="25287.4" y="-5280" class="st6" width="5.8" height="4.8"/>
				<text transform="matrix(1 0 0 1 25287.8301 -5277.2109)" class="st10 st8 st9">U1</text>
			</g>
		</g>
		<path class="st11" d="M105,76.9h2.3l0.3-0.1l0.1-0.1l0.1-0.3v-0.5l-0.1-0.3l-0.1-0.1l-0.3-0.1H105"/>
		<path class="st11" d="M107.8,72.4V74"/>
		<path class="st11" d="M107.8,73.2H105l0.4,0.3l0.3,0.3l0.1,0.3"/>
		<g transform="rotate(-90 7154.12 5390.35)">
			<g class="st5">
				<rect x="12500.3" y="-1721.3" class="st6" width="5.2" height="10.3"/>
				<text transform="matrix(1 0 0 1 12497.7422 -1715.4867)" class="st7 st8 st9">SW10</text>
			</g>
			<g class="st5">
				<rect x="12500.3" y="-1721.3" class="st6" width="5.2" height="10.3"/>
				<text transform="matrix(1 0 0 1 12497.7402 -1715.4886)" class="st10 st8 st9">SW10</text>
			</g>
		</g>
		<path class="st11" d="M48.5,46.7l0.1-0.4v-0.7l-0.1-0.3l-0.1-0.1l-0.3-0.1h-0.3l-0.3,0.1l-0.1,0.1l-0.1,0.3l-0.1,0.5L47,46.4
			l-0.1,0.1l-0.3,0.1h-0.3l-0.3-0.1L46,46.4l-0.1-0.3v-0.7l0.1-0.4"/>
		<path class="st11" d="M45.8,44.1l2.8-0.7l-2-0.5l2-0.5l-2.8-0.7"/>
		<path class="st11" d="M48.7,39.1v1.6"/>
		<path class="st11" d="M48.7,40h-2.8l0.4,0.3l0.3,0.3l0.1,0.3"/>
		<path class="st11" d="M45.8,37.4v-0.3l0.1-0.3l0.1-0.1l0.3-0.1l0.5-0.1h0.7l0.5,0.1l0.3,0.1l0.1,0.1l0.1,0.3v0.3l-0.1,0.3
			l-0.1,0.1l-0.3,0.1l-0.5,0.1h-0.7l-0.5-0.1l-0.3-0.1L46,37.7L45.8,37.4"/>
		<g transform="rotate(-90 28795.1 5390.35)">
			<g class="st5">
				<rect x="34141.4" y="-23205.4" class="st6" width="5" height="8.2"/>
				<text transform="matrix(1 0 0 1 34139.7695 -23200.5449)" class="st7 st8 st9">SW9</text>
			</g>
			<g class="st5">
				<rect x="34141.4" y="-23205.4" class="st6" width="5" height="8.2"/>
				<text transform="matrix(1 0 0 1 34139.7695 -23200.5469)" class="st10 st8 st9">SW9</text>
			</g>
		</g>
		<path class="st11" d="M204.3,45.4l0.1-0.4v-0.7l-0.1-0.3l-0.1-0.1l-0.3-0.1h-0.3l-0.3,0.1l-0.1,0.1l-0.1,0.3l-0.1,0.5l-0.1,0.3
			l-0.1,0.1l-0.3,0.1h-0.3l-0.3-0.1l-0.1-0.1l-0.1-0.3v-0.7l0.1-0.4"/>
		<path class="st11" d="M201.6,42.8l2.8-0.7l-2-0.5l2-0.5l-2.8-0.7"/>
		<path class="st11" d="M204.5,39.1v-0.5l-0.1-0.3l-0.1-0.1l-0.4-0.3l-0.5-0.1h-1.1l-0.3,0.1l-0.1,0.1l-0.1,0.3v0.5l0.1,0.3l0.1,0.1
			l0.3,0.1h0.7l0.3-0.1l0.1-0.1l0.1-0.3v-0.5l-0.1-0.3l-0.1-0.1l-0.3-0.1"/>
		<g transform="rotate(-90 27577 13348.6)">
			<g class="st5">
				<rect x="40824.2" y="-14037.8" class="st6" width="5" height="8.2"/>
				<text transform="matrix(1 0 0 1 40822.625 -14032.9648)" class="st7 st8 st9">SW8</text>
			</g>
			<g class="st5">
				<rect x="40824.2" y="-14037.8" class="st6" width="5" height="8.2"/>
				<text transform="matrix(1 0 0 1 40822.6211 -14032.9658)" class="st10 st8 st9">SW8</text>
			</g>
		</g>
		<path class="st11" d="M195.6,102.7l0.1-0.4v-0.7l-0.1-0.3l-0.1-0.1l-0.3-0.1h-0.3l-0.3,0.1l-0.1,0.1l-0.1,0.3l-0.1,0.5l-0.1,0.3
			l-0.1,0.1l-0.3,0.1h-0.3l-0.3-0.1l-0.1-0.1l-0.1-0.3v-0.7l0.1-0.4"/>
		<path class="st11" d="M192.9,100.1l2.8-0.7l-2-0.5l2-0.5l-2.8-0.7"/>
		<path class="st11" d="M194.1,96.2l-0.1,0.3l-0.1,0.1l-0.3,0.1h-0.1l-0.3-0.1l-0.1-0.1l-0.1-0.3v-0.5l0.1-0.3l0.1-0.1l0.3-0.1h0.1
			l0.3,0.1l0.1,0.1l0.1,0.3V96.2l0.1,0.3l0.1,0.1l0.3,0.1h0.5l0.3-0.1l0.1-0.1l0.1-0.3v-0.5l-0.1-0.3l-0.1-0.1l-0.3-0.1h-0.5
			l-0.3,0.1l-0.1,0.1l-0.1,0.3"/>
		<g transform="rotate(-90 24077 13348.6)">
			<g class="st5">
				<rect x="37324.2" y="-10563" class="st6" width="5" height="8.2"/>
				<text transform="matrix(1 0 0 1 37322.625 -10558.165)" class="st7 st8 st9">SW7</text>
			</g>
			<g class="st5">
				<rect x="37324.2" y="-10563" class="st6" width="5" height="8.2"/>
				<text transform="matrix(1 0 0 1 37322.6211 -10558.166)" class="st10 st8 st9">SW7</text>
			</g>
		</g>
		<path class="st11" d="M170.4,102.7l0.1-0.4v-0.7l-0.1-0.3l-0.1-0.1L170,101h-0.3l-0.3,0.1l-0.1,0.1l-0.1,0.3l-0.1,0.5l-0.1,0.3
			l-0.1,0.1l-0.3,0.1h-0.3l-0.3-0.1l-0.1-0.1l-0.1-0.3v-0.7l0.1-0.4"/>
		<path class="st11" d="M167.7,100.1l2.8-0.7l-2-0.5l2-0.5l-2.8-0.7"/>
		<path class="st11" d="M167.7,96.9V95l2.8,1.2"/>
		<g transform="rotate(-90 20577 13348.6)">
			<g class="st5">
				<rect x="33824.2" y="-7088.2" class="st6" width="5" height="8.2"/>
				<text transform="matrix(1 0 0 1 33822.625 -7083.3647)" class="st7 st8 st9">SW6</text>
			</g>
			<g class="st5">
				<rect x="33824.2" y="-7088.2" class="st6" width="5" height="8.2"/>
				<text transform="matrix(1 0 0 1 33822.6211 -7083.3667)" class="st10 st8 st9">SW6</text>
			</g>
		</g>
		<path class="st11" d="M145.2,102.7l0.1-0.4v-0.7l-0.1-0.3l-0.1-0.1l-0.3-0.1h-0.3l-0.3,0.1l-0.1,0.1l-0.1,0.3l-0.1,0.5l-0.1,0.3
			l-0.1,0.1l-0.3,0.1H143l-0.3-0.1l-0.1-0.1l-0.1-0.3v-0.7l0.1-0.4"/>
		<path class="st11" d="M142.5,100.1l2.8-0.7l-2-0.5l2-0.5l-2.8-0.7"/>
		<path class="st11" d="M142.5,95.4v0.5l0.1,0.3l0.1,0.1l0.4,0.3l0.5,0.1h1.1l0.3-0.1l0.1-0.1l0.1-0.3v-0.5l-0.1-0.3l-0.1-0.1
			l-0.3-0.1h-0.7l-0.3,0.1l-0.1,0.1l-0.1,0.3v0.5l0.1,0.3l0.1,0.1l0.3,0.1"/>
		<g transform="rotate(-90 17077 13348.6)">
			<g class="st5">
				<rect x="30324.2" y="-3613.4" class="st6" width="5" height="8.2"/>
				<text transform="matrix(1 0 0 1 30322.623 -3608.5647)" class="st7 st8 st9">SW5</text>
			</g>
			<g class="st5">
				<rect x="30324.2" y="-3613.4" class="st6" width="5" height="8.2"/>
				<text transform="matrix(1 0 0 1 30322.6211 -3608.5662)" class="st10 st8 st9">SW5</text>
			</g>
		</g>
		<path class="st11" d="M120,102.7l0.1-0.4v-0.7l-0.1-0.3l-0.1-0.1l-0.3-0.1h-0.3l-0.3,0.1l-0.1,0.1l-0.1,0.3l-0.1,0.5l-0.1,0.3
			l-0.1,0.1l-0.3,0.1h-0.3l-0.3-0.1l-0.1-0.1l-0.1-0.3v-0.7l0.1-0.4"/>
		<path class="st11" d="M117.3,100.1l2.8-0.7l-2-0.5l2-0.5l-2.8-0.7"/>
		<path class="st11" d="M117.3,95.2v1.3l1.3,0.1l-0.1-0.1l-0.1-0.3v-0.7l0.1-0.3l0.1-0.1l0.3-0.1h0.7l0.3,0.1l0.1,0.1l0.1,0.3v0.7
			l-0.1,0.3l-0.1,0.1"/>
		<g transform="rotate(-90 13577 13348.6)">
			<g class="st5">
				<rect x="26824.2" y="-138.6" class="st6" width="5" height="8.2"/>
				<text transform="matrix(1 0 0 1 26822.623 -133.7645)" class="st7 st8 st9">SW4</text>
			</g>
			<g class="st5">
				<rect x="26824.2" y="-138.6" class="st6" width="5" height="8.2"/>
				<text transform="matrix(1 0 0 1 26822.6211 -133.7665)" class="st10 st8 st9">SW4</text>
			</g>
		</g>
		<path class="st11" d="M94.8,102.7l0.1-0.4v-0.7l-0.1-0.3l-0.1-0.1l-0.3-0.1h-0.3l-0.3,0.1l-0.1,0.1l-0.1,0.3l-0.1,0.5l-0.1,0.3
			l-0.1,0.1l-0.3,0.1h-0.3l-0.3-0.1l-0.1-0.1l-0.1-0.3v-0.7l0.1-0.4"/>
		<path class="st11" d="M92.1,100.1l2.8-0.7l-2-0.5l2-0.5l-2.8-0.7"/>
		<path class="st11" d="M93,95.4h1.9"/>
		<path class="st11" d="M91.9,96l2,0.7V95"/>
		<g transform="rotate(-90 10077 13348.6)">
			<g class="st5">
				<rect x="23324.2" y="3336.2" class="st6" width="5" height="8.2"/>
				<text transform="matrix(1 0 0 1 23322.623 3341.0354)" class="st7 st8 st9">SW3</text>
			</g>
			<g class="st5">
				<rect x="23324.2" y="3336.2" class="st6" width="5" height="8.2"/>
				<text transform="matrix(1 0 0 1 23322.6211 3341.0339)" class="st10 st8 st9">SW3</text>
			</g>
		</g>
		<path class="st11" d="M69.6,102.7l0.1-0.4v-0.7l-0.1-0.3l-0.1-0.1l-0.3-0.1h-0.3l-0.3,0.1l-0.1,0.1l-0.1,0.3l-0.1,0.5l-0.1,0.3
			l-0.1,0.1l-0.3,0.1h-0.3l-0.3-0.1l-0.1-0.1l-0.1-0.3v-0.7L67,101"/>
		<path class="st11" d="M66.9,100.1l2.8-0.7l-2-0.5l2-0.5l-2.8-0.7"/>
		<path class="st11" d="M66.9,96.9v-1.8l1.1,0.9v-0.4l0.1-0.3l0.1-0.1l0.3-0.1h0.7l0.3,0.1l0.1,0.1l0.1,0.3v0.8l-0.1,0.3l-0.1,0.1"
			/>
		<g transform="rotate(-90 6576.96 13348.6)">
			<g class="st5">
				<rect x="19824.2" y="6811" class="st6" width="5" height="8.2"/>
				<text transform="matrix(1 0 0 1 19822.582 6815.875)" class="st7 st8 st9">SW2</text>
			</g>
			<g class="st5">
				<rect x="19824.2" y="6811" class="st6" width="5" height="8.2"/>
				<text transform="matrix(1 0 0 1 19822.5801 6815.873)" class="st10 st8 st9">SW2</text>
			</g>
		</g>
		<path class="st11" d="M44.4,102.7l0.1-0.4v-0.7l-0.1-0.3l-0.1-0.1L44,101h-0.3l-0.3,0.1l-0.1,0.1l-0.1,0.3l-0.1,0.5l-0.1,0.3
			l-0.1,0.1l-0.3,0.1h-0.3l-0.3-0.1l-0.1-0.1l-0.1-0.3v-0.7l0.1-0.4"/>
		<path class="st11" d="M41.7,100.1l2.8-0.7l-2-0.5l2-0.5l-2.8-0.7"/>
		<path class="st11" d="M41.9,96.7l-0.1-0.1l-0.1-0.3v-0.7l0.1-0.3l0.1-0.1l0.3-0.1h0.3l0.4,0.1l1.6,1.6v-1.8"/>
		<g transform="rotate(-90 11974.6 8990.35)">
			<g class="st5">
				<rect x="20894.9" y="-2906" class="st6" width="5" height="8.2"/>
				<text transform="matrix(1 0 0 1 20893.3516 -2901.1516)" class="st7 st8 st9">SW1</text>
			</g>
			<g class="st5">
				<rect x="20894.9" y="-2906" class="st6" width="5" height="8.2"/>
				<text transform="matrix(1 0 0 1 20893.3496 -2901.1536)" class="st10 st8 st9">SW1</text>
			</g>
		</g>
		<path class="st11" d="M83.2,71.3l0.1-0.4v-0.7l-0.1-0.3l-0.1-0.1l-0.3-0.1h-0.3l-0.3,0.1l-0.1,0.1L82,70.2l-0.1,0.5L81.7,71
			l-0.1,0.1l-0.3,0.1h-0.3l-0.3-0.1L80.7,71l-0.1-0.3v-0.7l0.1-0.4"/>
		<path class="st11" d="M80.5,68.7l2.8-0.7l-2-0.5l2-0.5l-2.8-0.7"/>
		<path class="st11" d="M83.4,63.7v1.6"/>
		<path class="st11" d="M83.4,64.5h-2.8l0.4,0.3l0.3,0.3l0.1,0.3"/>
		<g transform="rotate(-90 16774.6 16490.4)">
			<g class="st5">
				<rect x="33140.7" y="-170.9" class="st6" width="5.7" height="6.9"/>
				<text transform="matrix(1 0 0 1 33140.0313 -167.0121)" class="st7 st8 st9">R24</text>
			</g>
			<g class="st5">
				<rect x="33140.7" y="-170.9" class="st6" width="5.7" height="6.9"/>
				<text transform="matrix(1 0 0 1 33140.0273 -167.014)" class="st10 st8 st9">R24</text>
			</g>
		</g>
		<path class="st11" d="M117.9,123.3l-1.3,0.9"/>
		<path class="st11" d="M117.9,124.9h-2.8v-1.1l0.1-0.3l0.1-0.1l0.3-0.1h0.4l0.3,0.1l0.1,0.1l0.1,0.3v1.1"/>
		<path class="st11" d="M115.4,122.2l-0.1-0.1l-0.1-0.3v-0.7l0.1-0.3l0.1-0.1l0.3-0.1h0.3l0.4,0.1l1.6,1.6v-1.8"/>
		<path class="st11" d="M116,118.2h1.9"/>
		<path class="st11" d="M114.9,118.9l2,0.7v-1.8"/>
		<g transform="rotate(-90 12574.6 16490.4)">
			<g class="st5">
				<rect x="28940.7" y="3998.9" class="st6" width="5.7" height="6.9"/>
				<text transform="matrix(1 0 0 1 28940.0293 4002.7483)" class="st7 st8 st9">R23</text>
			</g>
			<g class="st5">
				<rect x="28940.7" y="3998.9" class="st6" width="5.7" height="6.9"/>
				<text transform="matrix(1 0 0 1 28940.0293 4002.7463)" class="st10 st8 st9">R23</text>
			</g>
		</g>
		<path class="st11" d="M87.7,123.3l-1.3,0.9"/>
		<path class="st11" d="M87.7,124.9h-2.8v-1.1l0.1-0.3l0.1-0.1l0.3-0.1h0.4l0.3,0.1l0.1,0.1l0.1,0.3v1.1"/>
		<path class="st11" d="M85.1,122.2l-0.1-0.1l-0.1-0.3v-0.7l0.1-0.3l0.1-0.1l0.3-0.1h0.3l0.4,0.1l1.6,1.6v-1.8"/>
		<path class="st11" d="M84.8,119.7v-1.8l1.1,0.9v-0.4l0.1-0.3l0.1-0.1l0.3-0.1h0.7l0.3,0.1l0.1,0.1l0.1,0.3v0.8l-0.1,0.3l-0.1,0.1"
			/>
		<g transform="rotate(-90 8374.6 16490.4)">
			<g class="st5">
				<rect x="24740.7" y="8168.6" class="st6" width="5.7" height="6.9"/>
				<text transform="matrix(1 0 0 1 24740.0293 8172.5078)" class="st7 st8 st9">R22</text>
			</g>
			<g class="st5">
				<rect x="24740.7" y="8168.6" class="st6" width="5.7" height="6.9"/>
				<text transform="matrix(1 0 0 1 24740.0293 8172.5059)" class="st10 st8 st9">R22</text>
			</g>
		</g>
		<path class="st11" d="M57.4,123.3l-1.3,0.9"/>
		<path class="st11" d="M57.4,124.9h-2.8v-1.1l0.1-0.3l0.1-0.1l0.3-0.1h0.4l0.3,0.1l0.1,0.1l0.1,0.3v1.1"/>
		<path class="st11" d="M54.9,122.2l-0.1-0.1l-0.1-0.3v-0.7l0.1-0.3l0.1-0.1l0.3-0.1h0.3l0.4,0.1l1.6,1.6v-1.8"/>
		<path class="st11" d="M54.9,119.5l-0.1-0.1l-0.1-0.3v-0.7l0.1-0.3l0.1-0.1l0.3-0.1h0.3l0.4,0.1l1.6,1.6v-1.8"/>
		<g transform="rotate(-90 27574.6 16190.4)">
			<g class="st5">
				<rect x="43642.9" y="-11192.2" class="st6" width="5.5" height="5"/>
				<text transform="matrix(1 0 0 1 43643.1367 -11189.1445)" class="st7 st8 st9">Q6</text>
			</g>
			<g class="st5">
				<rect x="43642.9" y="-11192.2" class="st6" width="5.5" height="5"/>
				<text transform="matrix(1 0 0 1 43643.1328 -11189.1455)" class="st10 st8 st9">Q6</text>
			</g>
		</g>
		<path class="st11" d="M195.9,119.6l-0.1,0.3l-0.3,0.3l-0.4,0.4l-0.1,0.3v0.3"/>
		<path class="st11" d="M195.7,121l-0.1,0.3l-0.3,0.3l-0.5,0.1h-0.9l-0.5-0.1l-0.3-0.3l-0.1-0.3v-0.5l0.1-0.3l0.3-0.3l0.5-0.1h0.9
			l0.5,0.1l0.3,0.3l0.1,0.3V121"/>
		<path class="st11" d="M192.8,117.3v0.5l0.1,0.3l0.1,0.1l0.4,0.3l0.5,0.1h1.1l0.3-0.1l0.1-0.1l0.1-0.3v-0.5l-0.1-0.3l-0.1-0.1
			l-0.3-0.1h-0.7l-0.3,0.1l-0.1,0.1l-0.1,0.3v0.5l0.1,0.3l0.1,0.1l0.3,0.1"/>
		<g transform="rotate(-90 23374.6 16190.4)">
			<g class="st5">
				<rect x="39442.9" y="-7022.4" class="st6" width="5.5" height="5"/>
				<text transform="matrix(1 0 0 1 39443.1367 -7019.3843)" class="st7 st8 st9">Q5</text>
			</g>
			<g class="st5">
				<rect x="39442.9" y="-7022.4" class="st6" width="5.5" height="5"/>
				<text transform="matrix(1 0 0 1 39443.1328 -7019.3862)" class="st10 st8 st9">Q5</text>
			</g>
		</g>
		<path class="st11" d="M165.7,119.6l-0.1,0.3l-0.3,0.3l-0.4,0.4l-0.1,0.3v0.3"/>
		<path class="st11" d="M165.4,121l-0.1,0.3l-0.3,0.3l-0.5,0.1h-0.9l-0.5-0.1l-0.3-0.3l-0.1-0.3v-0.5l0.1-0.3l0.3-0.3l0.5-0.1h0.9
			l0.5,0.1l0.3,0.3l0.1,0.3V121"/>
		<path class="st11" d="M162.6,117.2v1.3l1.4,0.1l-0.1-0.1l-0.1-0.3v-0.7l0.1-0.3l0.1-0.1l0.3-0.1h0.7l0.3,0.1l0.1,0.1l0.1,0.3v0.7
			l-0.1,0.3l-0.1,0.1"/>
		<g transform="rotate(-90 19174.6 16190.4)">
			<g class="st5">
				<rect x="35242.9" y="-2852.6" class="st6" width="5.5" height="5"/>
				<text transform="matrix(1 0 0 1 35243.1367 -2849.6243)" class="st7 st8 st9">Q4</text>
			</g>
			<g class="st5">
				<rect x="35242.9" y="-2852.6" class="st6" width="5.5" height="5"/>
				<text transform="matrix(1 0 0 1 35243.1328 -2849.6257)" class="st10 st8 st9">Q4</text>
			</g>
		</g>
		<path class="st11" d="M135.5,119.6l-0.1,0.3l-0.3,0.3l-0.4,0.4l-0.1,0.3v0.3"/>
		<path class="st11" d="M135.2,121l-0.1,0.3l-0.3,0.3l-0.5,0.1h-0.9l-0.5-0.1l-0.3-0.3l-0.1-0.3v-0.5l0.1-0.3l0.3-0.3l0.5-0.1h0.9
			l0.5,0.1l0.3,0.3l0.1,0.3V121"/>
		<path class="st11" d="M133.3,117.3h1.9"/>
		<path class="st11" d="M132.2,118l2,0.7v-1.8"/>
		<g transform="rotate(-90 14974.6 16190.4)">
			<g class="st5">
				<rect x="31042.9" y="1317.1" class="st6" width="5.5" height="5"/>
				<text transform="matrix(1 0 0 1 31043.1367 1320.1359)" class="st7 st8 st9">Q3</text>
			</g>
			<g class="st5">
				<rect x="31042.9" y="1317.1" class="st6" width="5.5" height="5"/>
				<text transform="matrix(1 0 0 1 31043.1348 1320.1339)" class="st10 st8 st9">Q3</text>
			</g>
		</g>
		<path class="st11" d="M105.2,119.6l-0.1,0.3l-0.3,0.3l-0.4,0.4l-0.1,0.3v0.3"/>
		<path class="st11" d="M105,121l-0.1,0.3l-0.3,0.3l-0.5,0.1h-0.9l-0.5-0.1l-0.3-0.3l-0.1-0.3v-0.5l0.1-0.3l0.3-0.3l0.5-0.1h0.9
			l0.5,0.1l0.3,0.3l0.1,0.3V121"/>
		<path class="st11" d="M102.1,118.8V117l1.1,0.9v-0.4l0.1-0.3l0.1-0.1l0.3-0.1h0.7l0.3,0.1l0.1,0.1l0.1,0.3v0.8l-0.1,0.3l-0.1,0.1"
			/>
		<g transform="rotate(-90 10774.6 16190.4)">
			<g class="st5">
				<rect x="26842.9" y="5486.9" class="st6" width="5.5" height="5"/>
				<text transform="matrix(1 0 0 1 26843.1367 5489.8955)" class="st7 st8 st9">Q2</text>
			</g>
			<g class="st5">
				<rect x="26842.9" y="5486.9" class="st6" width="5.5" height="5"/>
				<text transform="matrix(1 0 0 1 26843.1348 5489.894)" class="st10 st8 st9">Q2</text>
			</g>
		</g>
		<path class="st11" d="M75,119.6l-0.1,0.3l-0.3,0.3l-0.4,0.4l-0.1,0.3v0.3"/>
		<path class="st11" d="M74.7,121l-0.1,0.3l-0.3,0.3l-0.5,0.1h-0.9l-0.5-0.1l-0.3-0.3l-0.1-0.3v-0.5l0.1-0.3l0.3-0.3l0.5-0.1h0.9
			l0.5,0.1l0.3,0.3l0.1,0.3V121"/>
		<path class="st11" d="M72.2,118.7l-0.1-0.1l-0.1-0.3v-0.7l0.1-0.3l0.1-0.1l0.3-0.1h0.3l0.4,0.1l1.6,1.6V117"/>
		<g transform="rotate(-90 6574.6 16190.4)">
			<g class="st5">
				<rect x="22642.9" y="9656.6" class="st6" width="5.5" height="5"/>
				<text transform="matrix(1 0 0 1 22643.1367 9659.6563)" class="st7 st8 st9">Q1</text>
			</g>
			<g class="st5">
				<rect x="22642.9" y="9656.6" class="st6" width="5.5" height="5"/>
				<text transform="matrix(1 0 0 1 22643.1348 9659.6543)" class="st10 st8 st9">Q1</text>
			</g>
		</g>
		<path class="st11" d="M44.7,119.6l-0.1,0.3l-0.3,0.3l-0.4,0.4l-0.1,0.3v0.3"/>
		<path class="st11" d="M44.5,121l-0.1,0.3l-0.3,0.3l-0.5,0.1h-0.9l-0.5-0.1l-0.3-0.3l-0.1-0.3v-0.5l0.1-0.3l0.3-0.3l0.5-0.1h0.9
			l0.5,0.1l0.3,0.3l0.1,0.3V121"/>
		<path class="st11" d="M44.5,117v1.6"/>
		<path class="st11" d="M44.5,117.9h-2.8l0.4,0.3l0.3,0.3l0.1,0.3"/>
		<g transform="rotate(-90 9607.27 4490.35)">
			<g class="st5">
				<rect x="14059.5" y="-5053.8" class="st6" width="6.1" height="4"/>
				<text transform="matrix(1 0 0 1 14060.5205 -5051.624)" class="st7 st8 st9">J4</text>
			</g>
			<g class="st5">
				<rect x="14059.5" y="-5053.8" class="st6" width="6.1" height="4"/>
				<text transform="matrix(1 0 0 1 14060.5186 -5051.626)" class="st10 st8 st9">J4</text>
			</g>
		</g>
		<path class="st11" d="M63.5,36h2l0.4,0.1l0.3,0.3l0.1,0.4v0.3"/>
		<path class="st11" d="M64.4,33.5h1.9"/>
		<path class="st11" d="M63.3,34.2l2,0.7v-1.7"/>
		<g transform="rotate(-90 6374.6 10990.4)">
			<g class="st5">
				<rect x="17280.1" y="4655.6" class="st6" width="6.1" height="4"/>
				<text transform="matrix(1 0 0 1 17281.1016 4657.8203)" class="st7 st8 st9">J2</text>
			</g>
			<g class="st5">
				<rect x="17280.1" y="4655.6" class="st6" width="6.1" height="4"/>
				<text transform="matrix(1 0 0 1 17281.0996 4657.8184)" class="st10 st8 st9">J2</text>
			</g>
		</g>
		<path class="st11" d="M40.2,82.8h2l0.4,0.1l0.3,0.3l0.1,0.4v0.3"/>
		<path class="st11" d="M40.5,81.6l-0.1-0.1l-0.1-0.3v-0.7l0.1-0.3l0.1-0.1l0.3-0.1H41l0.4,0.1l1.6,1.6V80"/>
		<g transform="rotate(-90 13057.3 4440.35)">
			<g class="st5">
				<rect x="17459.9" y="-8529" class="st6" width="6.1" height="4"/>
				<text transform="matrix(1 0 0 1 17460.9121 -8526.8135)" class="st7 st8 st9">J1</text>
			</g>
			<g class="st5">
				<rect x="17459.9" y="-8529" class="st6" width="6.1" height="4"/>
				<text transform="matrix(1 0 0 1 17460.9102 -8526.8154)" class="st10 st8 st9">J1</text>
			</g>
		</g>
		<path class="st11" d="M88.3,35.7h2l0.4,0.1l0.3,0.3l0.1,0.4v0.3"/>
		<path class="st11" d="M91.2,32.8v1.6"/>
		<path class="st11" d="M91.2,33.7h-2.8l0.4,0.3l0.3,0.3l0.1,0.3"/>
		<g transform="rotate(-90 29774.6 32390.4)">
			<g class="st5">
				<rect x="61926.2" y="2822.7" class="st6" width="5.7" height="6.9"/>
				<text transform="matrix(1 0 0 1 61925.5508 2826.5881)" class="st7 st8 st9">D43</text>
			</g>
			<g class="st5">
				<rect x="61926.2" y="2822.7" class="st6" width="5.7" height="6.9"/>
				<text transform="matrix(1 0 0 1 61925.5469 2826.5862)" class="st10 st8 st9">D43</text>
			</g>
		</g>
		<path class="st11" d="M211.5,239.4h-2.8v-0.7l0.1-0.4l0.3-0.3l0.3-0.1l0.5-0.1h0.4l0.5,0.1l0.3,0.1l0.3,0.3l0.1,0.4V239.4"/>
		<path class="st11" d="M209.6,235.4h1.9"/>
		<path class="st11" d="M208.5,236l2,0.7V235"/>
		<path class="st11" d="M208.7,234.2v-1.8l1.1,0.9v-0.4l0.1-0.3l0.1-0.1l0.3-0.1h0.7l0.3,0.1l0.1,0.1l0.1,0.3v0.8l-0.1,0.3l-0.1,0.1
			"/>
		<g transform="rotate(-90 26174.6 32390.4)">
			<g class="st5">
				<rect x="58326.2" y="6396.8" class="st6" width="5.7" height="6.9"/>
				<text transform="matrix(1 0 0 1 58325.5508 6400.668)" class="st7 st8 st9">D42</text>
			</g>
			<g class="st5">
				<rect x="58326.2" y="6396.8" class="st6" width="5.7" height="6.9"/>
				<text transform="matrix(1 0 0 1 58325.5469 6400.666)" class="st10 st8 st9">D42</text>
			</g>
		</g>
		<path class="st11" d="M185.6,239.4h-2.8v-0.7l0.1-0.4l0.3-0.3l0.3-0.1l0.5-0.1h0.4l0.5,0.1l0.3,0.1l0.3,0.3l0.1,0.4V239.4"/>
		<path class="st11" d="M183.7,235.4h1.9"/>
		<path class="st11" d="M182.6,236l2,0.7V235"/>
		<path class="st11" d="M183,234l-0.1-0.1l-0.1-0.3v-0.7l0.1-0.3l0.1-0.1l0.3-0.1h0.3l0.4,0.1l1.6,1.6v-1.8"/>
		<g transform="rotate(-90 22774.6 32390.4)">
			<g class="st5">
				<rect x="54926.2" y="9772.3" class="st6" width="5.7" height="6.9"/>
				<text transform="matrix(1 0 0 1 54925.5508 9776.1885)" class="st7 st8 st9">D41</text>
			</g>
			<g class="st5">
				<rect x="54926.2" y="9772.3" class="st6" width="5.7" height="6.9"/>
				<text transform="matrix(1 0 0 1 54925.5469 9776.1865)" class="st10 st8 st9">D41</text>
			</g>
		</g>
		<path class="st11" d="M161.1,239.4h-2.8v-0.7l0.1-0.4l0.3-0.3l0.3-0.1l0.5-0.1h0.4l0.5,0.1l0.3,0.1l0.3,0.3l0.1,0.4V239.4"/>
		<path class="st11" d="M159.2,235.4h1.9"/>
		<path class="st11" d="M158.1,236l2,0.7V235"/>
		<path class="st11" d="M161.1,232.4v1.6"/>
		<path class="st11" d="M161.1,233.2h-2.8l0.4,0.3l0.3,0.3l0.1,0.3"/>
		<g transform="rotate(-90 19174.6 32390.4)">
			<g class="st5">
				<rect x="51326.2" y="13346.4" class="st6" width="5.7" height="6.9"/>
				<text transform="matrix(1 0 0 1 51325.5508 13350.2686)" class="st7 st8 st9">D40</text>
			</g>
			<g class="st5">
				<rect x="51326.2" y="13346.4" class="st6" width="5.7" height="6.9"/>
				<text transform="matrix(1 0 0 1 51325.5469 13350.2666)" class="st10 st8 st9">D40</text>
			</g>
		</g>
		<path class="st11" d="M135.2,239.4h-2.8v-0.7l0.1-0.4l0.3-0.3l0.3-0.1l0.5-0.1h0.4l0.5,0.1l0.3,0.1l0.3,0.3l0.1,0.4V239.4"/>
		<path class="st11" d="M133.3,235.4h1.9"/>
		<path class="st11" d="M132.2,236l2,0.7V235"/>
		<path class="st11" d="M132.4,233.3v-0.3l0.1-0.3l0.1-0.1l0.3-0.1l0.5-0.1h0.7l0.5,0.1l0.3,0.1l0.1,0.1l0.1,0.3v0.3l-0.1,0.3
			l-0.1,0.1l-0.3,0.1l-0.5,0.1h-0.7l-0.5-0.1l-0.3-0.1l-0.1-0.1L132.4,233.3"/>
		<g transform="rotate(-90 15774.6 32390.4)">
			<g class="st5">
				<rect x="47926.2" y="16721.9" class="st6" width="5.7" height="6.9"/>
				<text transform="matrix(1 0 0 1 47925.5508 16725.7891)" class="st7 st8 st9">D39</text>
			</g>
			<g class="st5">
				<rect x="47926.2" y="16721.9" class="st6" width="5.7" height="6.9"/>
				<text transform="matrix(1 0 0 1 47925.5469 16725.7871)" class="st10 st8 st9">D39</text>
			</g>
		</g>
		<path class="st11" d="M110.7,239.4h-2.8v-0.7l0.1-0.4l0.3-0.3l0.3-0.1l0.5-0.1h0.4l0.5,0.1l0.3,0.1l0.3,0.3l0.1,0.4V239.4"/>
		<path class="st11" d="M107.9,236.9v-1.8l1.1,0.9v-0.4l0.1-0.3l0.1-0.1l0.3-0.1h0.7l0.3,0.1l0.1,0.1l0.1,0.3v0.8l-0.1,0.3l-0.1,0.1
			"/>
		<path class="st11" d="M110.7,233.8v-0.5l-0.1-0.3l-0.1-0.1l-0.4-0.3l-0.5-0.1h-1.1l-0.3,0.1l-0.1,0.1l-0.1,0.3v0.5l0.1,0.3
			l0.1,0.1l0.3,0.1h0.7l0.3-0.1l0.1-0.1l0.1-0.3v-0.5l-0.1-0.3l-0.1-0.1l-0.3-0.1"/>
		<g transform="rotate(-90 12174.6 32390.4)">
			<g class="st5">
				<rect x="44326.2" y="20296" class="st6" width="5.7" height="6.9"/>
				<text transform="matrix(1 0 0 1 44325.5508 20299.8691)" class="st7 st8 st9">D38</text>
			</g>
			<g class="st5">
				<rect x="44326.2" y="20296" class="st6" width="5.7" height="6.9"/>
				<text transform="matrix(1 0 0 1 44325.5469 20299.8672)" class="st10 st8 st9">D38</text>
			</g>
		</g>
		<path class="st11" d="M84.8,239.4H82v-0.7l0.1-0.4l0.3-0.3l0.3-0.1l0.5-0.1h0.4l0.5,0.1l0.3,0.1l0.3,0.3l0.1,0.4V239.4"/>
		<path class="st11" d="M82,236.9v-1.8L83,236v-0.4l0.1-0.3l0.1-0.1l0.3-0.1h0.7l0.3,0.1l0.1,0.1l0.1,0.3v0.8l-0.1,0.3l-0.1,0.1"/>
		<path class="st11" d="M83.2,233.5l-0.1,0.3l-0.1,0.1l-0.3,0.1h-0.1l-0.3-0.1l-0.1-0.1l-0.1-0.3v-0.5l0.1-0.3l0.1-0.1l0.3-0.1h0.1
			l0.3,0.1l0.1,0.1l0.1,0.3V233.5l0.1,0.3l0.1,0.1l0.3,0.1h0.5l0.3-0.1l0.1-0.1l0.1-0.3v-0.5l-0.1-0.3l-0.1-0.1l-0.3-0.1h-0.5
			l-0.3,0.1l-0.1,0.1l-0.1,0.3"/>
		<g transform="rotate(-90 8774.6 32390.4)">
			<g class="st5">
				<rect x="40926.2" y="23671.5" class="st6" width="5.7" height="6.9"/>
				<text transform="matrix(1 0 0 1 40925.5508 23675.3887)" class="st7 st8 st9">D37</text>
			</g>
			<g class="st5">
				<rect x="40926.2" y="23671.5" class="st6" width="5.7" height="6.9"/>
				<text transform="matrix(1 0 0 1 40925.5469 23675.3867)" class="st10 st8 st9">D37</text>
			</g>
		</g>
		<path class="st11" d="M60.3,239.4h-2.8v-0.7l0.1-0.4l0.3-0.3l0.3-0.1l0.5-0.1h0.4l0.5,0.1l0.3,0.1l0.3,0.3l0.1,0.4V239.4"/>
		<path class="st11" d="M57.5,236.9v-1.8l1.1,0.9v-0.4l0.1-0.3l0.1-0.1l0.3-0.1h0.7l0.3,0.1l0.1,0.1l0.1,0.3v0.8l-0.1,0.3l-0.1,0.1"
			/>
		<path class="st11" d="M57.5,234.2v-1.9l2.8,1.2"/>
		<g transform="rotate(-90 29774.6 29390.4)">
			<g class="st5">
				<rect x="58947.8" y="-177.3" class="st6" width="5.7" height="6.9"/>
				<text transform="matrix(1 0 0 1 58947.1484 -173.412)" class="st7 st8 st9">D36</text>
			</g>
			<g class="st5">
				<rect x="58947.8" y="-177.3" class="st6" width="5.7" height="6.9"/>
				<text transform="matrix(1 0 0 1 58947.1484 -173.4139)" class="st10 st8 st9">D36</text>
			</g>
		</g>
		<path class="st11" d="M211.5,217.8h-2.8v-0.7l0.1-0.4l0.3-0.3l0.3-0.1l0.5-0.1h0.4l0.5,0.1l0.3,0.1l0.3,0.3l0.1,0.4V217.8"/>
		<path class="st11" d="M208.7,215.3v-1.8l1.1,0.9V214l0.1-0.3l0.1-0.1l0.3-0.1h0.7l0.3,0.1l0.1,0.1l0.1,0.3v0.8l-0.1,0.3l-0.1,0.1"
			/>
		<path class="st11" d="M208.7,211.1v0.5l0.1,0.3l0.1,0.1l0.4,0.3l0.5,0.1h1.1l0.3-0.1l0.1-0.1l0.1-0.3v-0.5l-0.1-0.3l-0.1-0.1
			l-0.3-0.1h-0.7l-0.3,0.1l-0.1,0.1l-0.1,0.3v0.5l0.1,0.3l0.1,0.1l0.3,0.1"/>
		<g transform="rotate(-90 26174.6 29390.4)">
			<g class="st5">
				<rect x="55347.8" y="3396.8" class="st6" width="5.7" height="6.9"/>
				<text transform="matrix(1 0 0 1 55347.1484 3400.6682)" class="st7 st8 st9">D35</text>
			</g>
			<g class="st5">
				<rect x="55347.8" y="3396.8" class="st6" width="5.7" height="6.9"/>
				<text transform="matrix(1 0 0 1 55347.1484 3400.6663)" class="st10 st8 st9">D35</text>
			</g>
		</g>
		<path class="st11" d="M185.6,217.8h-2.8v-0.7l0.1-0.4l0.3-0.3l0.3-0.1l0.5-0.1h0.4l0.5,0.1l0.3,0.1l0.3,0.3l0.1,0.4V217.8"/>
		<path class="st11" d="M182.8,215.3v-1.8l1.1,0.9V214l0.1-0.3l0.1-0.1l0.3-0.1h0.7l0.3,0.1l0.1,0.1l0.1,0.3v0.8l-0.1,0.3l-0.1,0.1"
			/>
		<path class="st11" d="M182.8,210.9v1.3l1.4,0.1l-0.1-0.1l-0.1-0.3v-0.7l0.1-0.3l0.1-0.1l0.3-0.1h0.7l0.3,0.1l0.1,0.1l0.1,0.3v0.7
			l-0.1,0.3l-0.1,0.1"/>
		<g transform="rotate(-90 22774.6 29390.4)">
			<g class="st5">
				<rect x="51947.8" y="6772.3" class="st6" width="5.7" height="6.9"/>
				<text transform="matrix(1 0 0 1 51947.1484 6776.188)" class="st7 st8 st9">D34</text>
			</g>
			<g class="st5">
				<rect x="51947.8" y="6772.3" class="st6" width="5.7" height="6.9"/>
				<text transform="matrix(1 0 0 1 51947.1484 6776.186)" class="st10 st8 st9">D34</text>
			</g>
		</g>
		<path class="st11" d="M161.1,217.8h-2.8v-0.7l0.1-0.4l0.3-0.3l0.3-0.1l0.5-0.1h0.4l0.5,0.1l0.3,0.1l0.3,0.3l0.1,0.4V217.8"/>
		<path class="st11" d="M158.3,215.3v-1.8l1.1,0.9V214l0.1-0.3l0.1-0.1l0.3-0.1h0.7l0.3,0.1l0.1,0.1l0.1,0.3v0.8l-0.1,0.3l-0.1,0.1"
			/>
		<path class="st11" d="M159.2,211.1h1.9"/>
		<path class="st11" d="M158.1,211.7l2,0.7v-1.8"/>
		<g transform="rotate(-90 19174.6 29390.4)">
			<g class="st5">
				<rect x="48347.8" y="10346.4" class="st6" width="5.7" height="6.9"/>
				<text transform="matrix(1 0 0 1 48347.1484 10350.2686)" class="st7 st8 st9">D33</text>
			</g>
			<g class="st5">
				<rect x="48347.8" y="10346.4" class="st6" width="5.7" height="6.9"/>
				<text transform="matrix(1 0 0 1 48347.1484 10350.2666)" class="st10 st8 st9">D33</text>
			</g>
		</g>
		<path class="st11" d="M135.2,217.8h-2.8v-0.7l0.1-0.4l0.3-0.3l0.3-0.1l0.5-0.1h0.4l0.5,0.1l0.3,0.1l0.3,0.3l0.1,0.4V217.8"/>
		<path class="st11" d="M132.4,215.3v-1.8l1.1,0.9V214l0.1-0.3l0.1-0.1l0.3-0.1h0.7l0.3,0.1l0.1,0.1l0.1,0.3v0.8l-0.1,0.3l-0.1,0.1"
			/>
		<path class="st11" d="M132.4,212.6v-1.8l1.1,0.9v-0.4l0.1-0.3l0.1-0.1l0.3-0.1h0.7l0.3,0.1l0.1,0.1l0.1,0.3v0.8l-0.1,0.3l-0.1,0.1
			"/>
		<g transform="rotate(-90 15774.6 29390.4)">
			<g class="st5">
				<rect x="44947.8" y="13721.9" class="st6" width="5.7" height="6.9"/>
				<text transform="matrix(1 0 0 1 44947.1484 13725.7881)" class="st7 st8 st9">D32</text>
			</g>
			<g class="st5">
				<rect x="44947.8" y="13721.9" class="st6" width="5.7" height="6.9"/>
				<text transform="matrix(1 0 0 1 44947.1484 13725.7861)" class="st10 st8 st9">D32</text>
			</g>
		</g>
		<path class="st11" d="M110.7,217.8h-2.8v-0.7l0.1-0.4l0.3-0.3l0.3-0.1l0.5-0.1h0.4l0.5,0.1l0.3,0.1l0.3,0.3l0.1,0.4V217.8"/>
		<path class="st11" d="M107.9,215.3v-1.8l1.1,0.9V214l0.1-0.3l0.1-0.1l0.3-0.1h0.7l0.3,0.1l0.1,0.1l0.1,0.3v0.8l-0.1,0.3l-0.1,0.1"
			/>
		<path class="st11" d="M108.2,212.4l-0.1-0.1l-0.1-0.3v-0.7l0.1-0.3l0.1-0.1l0.3-0.1h0.3l0.4,0.1l1.6,1.6v-1.8"/>
		<g transform="rotate(-90 12174.6 29390.4)">
			<g class="st5">
				<rect x="41347.8" y="17296" class="st6" width="5.7" height="6.9"/>
				<text transform="matrix(1 0 0 1 41347.1484 17299.8691)" class="st7 st8 st9">D31</text>
			</g>
			<g class="st5">
				<rect x="41347.8" y="17296" class="st6" width="5.7" height="6.9"/>
				<text transform="matrix(1 0 0 1 41347.1484 17299.8672)" class="st10 st8 st9">D31</text>
			</g>
		</g>
		<path class="st11" d="M84.8,217.8H82v-0.7l0.1-0.4l0.3-0.3l0.3-0.1l0.5-0.1h0.4l0.5,0.1l0.3,0.1l0.3,0.3l0.1,0.4V217.8"/>
		<path class="st11" d="M82,215.3v-1.8l1.1,0.9V214l0.1-0.3l0.1-0.1l0.3-0.1h0.7l0.3,0.1l0.1,0.1l0.1,0.3v0.8l-0.1,0.3l-0.1,0.1"/>
		<path class="st11" d="M84.8,210.8v1.6"/>
		<path class="st11" d="M84.8,211.6H82l0.4,0.3l0.3,0.3l0.1,0.3"/>
		<g transform="rotate(-90 8774.6 29390.4)">
			<g class="st5">
				<rect x="37947.8" y="20671.5" class="st6" width="5.7" height="6.9"/>
				<text transform="matrix(1 0 0 1 37947.1484 20675.3887)" class="st7 st8 st9">D30</text>
			</g>
			<g class="st5">
				<rect x="37947.8" y="20671.5" class="st6" width="5.7" height="6.9"/>
				<text transform="matrix(1 0 0 1 37947.1484 20675.3867)" class="st10 st8 st9">D30</text>
			</g>
		</g>
		<path class="st11" d="M60.3,217.8h-2.8v-0.7l0.1-0.4l0.3-0.3l0.3-0.1l0.5-0.1h0.4l0.5,0.1l0.3,0.1l0.3,0.3l0.1,0.4V217.8"/>
		<path class="st11" d="M57.5,215.3v-1.8l1.1,0.9V214l0.1-0.3l0.1-0.1l0.3-0.1h0.7l0.3,0.1l0.1,0.1l0.1,0.3v0.8l-0.1,0.3l-0.1,0.1"
			/>
		<path class="st11" d="M57.5,211.7v-0.3l0.1-0.3l0.1-0.1l0.3-0.1l0.5-0.1h0.7l0.5,0.1l0.3,0.1l0.1,0.1l0.1,0.3v0.3l-0.1,0.3
			l-0.1,0.1l-0.3,0.1l-0.5,0.1h-0.7l-0.5-0.1l-0.3-0.1l-0.1-0.1L57.5,211.7"/>
		<g transform="rotate(-90 29774.6 26390.4)">
			<g class="st5">
				<rect x="55969.4" y="-3177.3" class="st6" width="5.7" height="6.9"/>
				<text transform="matrix(1 0 0 1 55968.75 -3173.4119)" class="st7 st8 st9">D29</text>
			</g>
			<g class="st5">
				<rect x="55969.4" y="-3177.3" class="st6" width="5.7" height="6.9"/>
				<text transform="matrix(1 0 0 1 55968.75 -3173.4138)" class="st10 st8 st9">D29</text>
			</g>
		</g>
		<path class="st11" d="M211.5,196.2h-2.8v-0.7l0.1-0.4l0.3-0.3l0.3-0.1l0.5-0.1h0.4l0.5,0.1l0.3,0.1l0.3,0.3l0.1,0.4V196.2"/>
		<path class="st11" d="M209,193.5l-0.1-0.1l-0.1-0.3v-0.7l0.1-0.3l0.1-0.1l0.3-0.1h0.3l0.4,0.1l1.6,1.6v-1.8"/>
		<path class="st11" d="M211.5,190.6V190l-0.1-0.3l-0.1-0.1l-0.4-0.3l-0.5-0.1h-1.1l-0.3,0.1l-0.1,0.1l-0.1,0.3v0.5l0.1,0.3l0.1,0.1
			l0.3,0.1h0.7l0.3-0.1l0.1-0.1l0.1-0.3v-0.5l-0.1-0.3l-0.1-0.1l-0.3-0.1"/>
		<g transform="rotate(-90 26174.6 26390.4)">
			<g class="st5">
				<rect x="52369.4" y="396.8" class="st6" width="5.7" height="6.9"/>
				<text transform="matrix(1 0 0 1 52368.75 400.6681)" class="st7 st8 st9">D28</text>
			</g>
			<g class="st5">
				<rect x="52369.4" y="396.8" class="st6" width="5.7" height="6.9"/>
				<text transform="matrix(1 0 0 1 52368.75 400.6661)" class="st10 st8 st9">D28</text>
			</g>
		</g>
		<path class="st11" d="M185.6,196.2h-2.8v-0.7l0.1-0.4l0.3-0.3l0.3-0.1l0.5-0.1h0.4l0.5,0.1l0.3,0.1l0.3,0.3l0.1,0.4V196.2"/>
		<path class="st11" d="M183,193.5l-0.1-0.1l-0.1-0.3v-0.7l0.1-0.3l0.1-0.1l0.3-0.1h0.3l0.4,0.1l1.6,1.6v-1.8"/>
		<path class="st11" d="M184,190.3l-0.1,0.3l-0.1,0.1l-0.3,0.1h-0.1l-0.3-0.1l-0.1-0.1l-0.1-0.3v-0.5l0.1-0.3l0.1-0.1l0.3-0.1h0.1
			l0.3,0.1l0.1,0.1l0.1,0.3V190.3l0.1,0.3l0.1,0.1l0.3,0.1h0.5l0.3-0.1l0.1-0.1l0.1-0.3v-0.5l-0.1-0.3l-0.1-0.1l-0.3-0.1h-0.5
			l-0.3,0.1l-0.1,0.1l-0.1,0.3"/>
		<g transform="rotate(-90 22774.6 26390.4)">
			<g class="st5">
				<rect x="48969.4" y="3772.3" class="st6" width="5.7" height="6.9"/>
				<text transform="matrix(1 0 0 1 48968.75 3776.1882)" class="st7 st8 st9">D27</text>
			</g>
			<g class="st5">
				<rect x="48969.4" y="3772.3" class="st6" width="5.7" height="6.9"/>
				<text transform="matrix(1 0 0 1 48968.75 3776.1863)" class="st10 st8 st9">D27</text>
			</g>
		</g>
		<path class="st11" d="M161.1,196.2h-2.8v-0.7l0.1-0.4l0.3-0.3l0.3-0.1l0.5-0.1h0.4l0.5,0.1l0.3,0.1l0.3,0.3l0.1,0.4V196.2"/>
		<path class="st11" d="M158.6,193.5l-0.1-0.1l-0.1-0.3v-0.7l0.1-0.3l0.1-0.1l0.3-0.1h0.3l0.4,0.1l1.6,1.6v-1.8"/>
		<path class="st11" d="M158.3,191v-1.9l2.8,1.2"/>
		<g transform="rotate(-90 19174.6 26390.4)">
			<g class="st5">
				<rect x="45369.4" y="7346.4" class="st6" width="5.7" height="6.9"/>
				<text transform="matrix(1 0 0 1 45368.75 7350.2681)" class="st7 st8 st9">D26</text>
			</g>
			<g class="st5">
				<rect x="45369.4" y="7346.4" class="st6" width="5.7" height="6.9"/>
				<text transform="matrix(1 0 0 1 45368.75 7350.2661)" class="st10 st8 st9">D26</text>
			</g>
		</g>
		<path class="st11" d="M135.2,196.2h-2.8v-0.7l0.1-0.4l0.3-0.3l0.3-0.1l0.5-0.1h0.4l0.5,0.1l0.3,0.1l0.3,0.3l0.1,0.4V196.2"/>
		<path class="st11" d="M132.6,193.5l-0.1-0.1l-0.1-0.3v-0.7l0.1-0.3l0.1-0.1l0.3-0.1h0.3l0.4,0.1l1.6,1.6v-1.8"/>
		<path class="st11" d="M132.4,189.5v0.5l0.1,0.3l0.1,0.1l0.4,0.3l0.5,0.1h1.1l0.3-0.1l0.1-0.1l0.1-0.3v-0.5l-0.1-0.3l-0.1-0.1
			l-0.3-0.1H134l-0.3,0.1l-0.1,0.1l-0.1,0.3v0.5l0.1,0.3l0.1,0.1l0.3,0.1"/>
		<g transform="rotate(-90 15774.6 26390.4)">
			<g class="st5">
				<rect x="41969.4" y="10721.9" class="st6" width="5.7" height="6.9"/>
				<text transform="matrix(1 0 0 1 41968.75 10725.7881)" class="st7 st8 st9">D25</text>
			</g>
			<g class="st5">
				<rect x="41969.4" y="10721.9" class="st6" width="5.7" height="6.9"/>
				<text transform="matrix(1 0 0 1 41968.75 10725.7861)" class="st10 st8 st9">D25</text>
			</g>
		</g>
		<path class="st11" d="M110.7,196.2h-2.8v-0.7l0.1-0.4l0.3-0.3l0.3-0.1l0.5-0.1h0.4l0.5,0.1l0.3,0.1l0.3,0.3l0.1,0.4V196.2"/>
		<path class="st11" d="M108.2,193.5l-0.1-0.1l-0.1-0.3v-0.7l0.1-0.3l0.1-0.1l0.3-0.1h0.3l0.4,0.1l1.6,1.6v-1.8"/>
		<path class="st11" d="M107.9,189.3v1.3l1.4,0.1l-0.1-0.1l-0.1-0.3v-0.7l0.1-0.3l0.1-0.1l0.3-0.1h0.7l0.3,0.1l0.1,0.1l0.1,0.3v0.7
			l-0.1,0.3l-0.1,0.1"/>
		<g transform="rotate(-90 12174.6 26390.4)">
			<g class="st5">
				<rect x="38369.4" y="14296" class="st6" width="5.7" height="6.9"/>
				<text transform="matrix(1 0 0 1 38368.75 14299.8682)" class="st7 st8 st9">D24</text>
			</g>
			<g class="st5">
				<rect x="38369.4" y="14296" class="st6" width="5.7" height="6.9"/>
				<text transform="matrix(1 0 0 1 38368.75 14299.8662)" class="st10 st8 st9">D24</text>
			</g>
		</g>
		<path class="st11" d="M84.8,196.2H82v-0.7l0.1-0.4l0.3-0.3l0.3-0.1l0.5-0.1h0.4l0.5,0.1l0.3,0.1l0.3,0.3l0.1,0.4V196.2"/>
		<path class="st11" d="M82.2,193.5l-0.1-0.1l-0.1-0.3v-0.7l0.1-0.3l0.1-0.1l0.3-0.1h0.3l0.4,0.1l1.6,1.6v-1.8"/>
		<path class="st11" d="M82.9,189.5h1.9"/>
		<path class="st11" d="M81.8,190.1l2,0.7v-1.8"/>
		<g transform="rotate(-90 8774.6 26390.4)">
			<g class="st5">
				<rect x="34969.4" y="17671.5" class="st6" width="5.7" height="6.9"/>
				<text transform="matrix(1 0 0 1 34968.75 17675.3887)" class="st7 st8 st9">D23</text>
			</g>
			<g class="st5">
				<rect x="34969.4" y="17671.5" class="st6" width="5.7" height="6.9"/>
				<text transform="matrix(1 0 0 1 34968.75 17675.3867)" class="st10 st8 st9">D23</text>
			</g>
		</g>
		<path class="st11" d="M60.3,196.2h-2.8v-0.7l0.1-0.4l0.3-0.3l0.3-0.1l0.5-0.1h0.4l0.5,0.1l0.3,0.1l0.3,0.3l0.1,0.4V196.2"/>
		<path class="st11" d="M57.8,193.5l-0.1-0.1l-0.1-0.3v-0.7l0.1-0.3l0.1-0.1l0.3-0.1h0.3l0.4,0.1l1.6,1.6v-1.8"/>
		<path class="st11" d="M57.5,191v-1.8l1.1,0.9v-0.4l0.1-0.3l0.1-0.1l0.3-0.1h0.7l0.3,0.1l0.1,0.1l0.1,0.3v0.8l-0.1,0.3L60,191"/>
		<g transform="rotate(-90 29774.6 23390.4)">
			<g class="st5">
				<rect x="52991" y="-6177.3" class="st6" width="5.7" height="6.9"/>
				<text transform="matrix(1 0 0 1 52990.3516 -6173.4121)" class="st7 st8 st9">D22</text>
			</g>
			<g class="st5">
				<rect x="52991" y="-6177.3" class="st6" width="5.7" height="6.9"/>
				<text transform="matrix(1 0 0 1 52990.3477 -6173.4141)" class="st10 st8 st9">D22</text>
			</g>
		</g>
		<path class="st11" d="M211.5,174.6h-2.8v-0.7l0.1-0.4l0.3-0.3l0.3-0.1l0.5-0.1h0.4l0.5,0.1l0.3,0.1l0.3,0.3l0.1,0.4V174.6"/>
		<path class="st11" d="M209,171.9l-0.1-0.1l-0.1-0.3v-0.7l0.1-0.3l0.1-0.1l0.3-0.1h0.3l0.4,0.1l1.6,1.6v-1.8"/>
		<path class="st11" d="M209,169.2l-0.1-0.1l-0.1-0.3v-0.7l0.1-0.3l0.1-0.1l0.3-0.1h0.3l0.4,0.1l1.6,1.6v-1.8"/>
		<g transform="rotate(-90 26174.6 23390.4)">
			<g class="st5">
				<rect x="49391" y="-2603.2" class="st6" width="5.7" height="6.9"/>
				<text transform="matrix(1 0 0 1 49390.3516 -2599.3318)" class="st7 st8 st9">D21</text>
			</g>
			<g class="st5">
				<rect x="49391" y="-2603.2" class="st6" width="5.7" height="6.9"/>
				<text transform="matrix(1 0 0 1 49390.3477 -2599.3337)" class="st10 st8 st9">D21</text>
			</g>
		</g>
		<path class="st11" d="M185.6,174.6h-2.8v-0.7l0.1-0.4l0.3-0.3l0.3-0.1l0.5-0.1h0.4l0.5,0.1l0.3,0.1l0.3,0.3l0.1,0.4V174.6"/>
		<path class="st11" d="M183,171.9l-0.1-0.1l-0.1-0.3v-0.7l0.1-0.3l0.1-0.1l0.3-0.1h0.3l0.4,0.1l1.6,1.6v-1.8"/>
		<path class="st11" d="M185.6,167.6v1.6"/>
		<path class="st11" d="M185.6,168.4h-2.8l0.4,0.3l0.3,0.3l0.1,0.3"/>
		<g transform="rotate(-90 22774.6 23390.4)">
			<g class="st5">
				<rect x="45991" y="772.3" class="st6" width="5.7" height="6.9"/>
				<text transform="matrix(1 0 0 1 45990.3516 776.1881)" class="st7 st8 st9">D20</text>
			</g>
			<g class="st5">
				<rect x="45991" y="772.3" class="st6" width="5.7" height="6.9"/>
				<text transform="matrix(1 0 0 1 45990.3477 776.1862)" class="st10 st8 st9">D20</text>
			</g>
		</g>
		<path class="st11" d="M161.1,174.6h-2.8v-0.7l0.1-0.4l0.3-0.3l0.3-0.1l0.5-0.1h0.4l0.5,0.1l0.3,0.1l0.3,0.3l0.1,0.4V174.6"/>
		<path class="st11" d="M158.6,171.9l-0.1-0.1l-0.1-0.3v-0.7l0.1-0.3l0.1-0.1l0.3-0.1h0.3l0.4,0.1l1.6,1.6v-1.8"/>
		<path class="st11" d="M158.3,168.5v-0.3l0.1-0.3l0.1-0.1l0.3-0.1l0.5-0.1h0.7l0.5,0.1l0.3,0.1l0.1,0.1l0.1,0.3v0.3l-0.1,0.3
			l-0.1,0.1l-0.3,0.1l-0.5,0.1h-0.7l-0.5-0.1l-0.3-0.1l-0.1-0.1L158.3,168.5"/>
		<g transform="rotate(-90 19174.6 23390.4)">
			<g class="st5">
				<rect x="42391" y="4346.4" class="st6" width="5.7" height="6.9"/>
				<text transform="matrix(1 0 0 1 42390.3516 4350.2681)" class="st7 st8 st9">D19</text>
			</g>
			<g class="st5">
				<rect x="42391" y="4346.4" class="st6" width="5.7" height="6.9"/>
				<text transform="matrix(1 0 0 1 42390.3477 4350.2661)" class="st10 st8 st9">D19</text>
			</g>
		</g>
		<path class="st11" d="M135.2,174.6h-2.8v-0.7l0.1-0.4l0.3-0.3l0.3-0.1l0.5-0.1h0.4l0.5,0.1l0.3,0.1l0.3,0.3l0.1,0.4V174.6"/>
		<path class="st11" d="M135.2,170.3v1.6"/>
		<path class="st11" d="M135.2,171.1h-2.8l0.4,0.3l0.3,0.3l0.1,0.3"/>
		<path class="st11" d="M135.2,169v-0.5l-0.1-0.3l-0.1-0.1l-0.4-0.3l-0.5-0.1h-1.1l-0.3,0.1l-0.1,0.1l-0.1,0.3v0.5l0.1,0.3l0.1,0.1
			l0.3,0.1h0.7l0.3-0.1l0.1-0.1l0.1-0.3v-0.5l-0.1-0.3l-0.1-0.1l-0.3-0.1"/>
		<g transform="rotate(-90 15774.6 23390.4)">
			<g class="st5">
				<rect x="38991" y="7721.9" class="st6" width="5.7" height="6.9"/>
				<text transform="matrix(1 0 0 1 38990.3516 7725.7881)" class="st7 st8 st9">D18</text>
			</g>
			<g class="st5">
				<rect x="38991" y="7721.9" class="st6" width="5.7" height="6.9"/>
				<text transform="matrix(1 0 0 1 38990.3477 7725.7861)" class="st10 st8 st9">D18</text>
			</g>
		</g>
		<path class="st11" d="M110.7,174.6h-2.8v-0.7l0.1-0.4l0.3-0.3l0.3-0.1l0.5-0.1h0.4l0.5,0.1l0.3,0.1l0.3,0.3l0.1,0.4V174.6"/>
		<path class="st11" d="M110.7,170.3v1.6"/>
		<path class="st11" d="M110.7,171.1h-2.8l0.4,0.3l0.3,0.3l0.1,0.3"/>
		<path class="st11" d="M109.1,168.7L109,169l-0.1,0.1l-0.3,0.1h-0.1l-0.3-0.1L108,169l-0.1-0.3v-0.5l0.1-0.3l0.1-0.1l0.3-0.1h0.1
			l0.3,0.1l0.1,0.1l0.1,0.3V168.7l0.1,0.3l0.1,0.1l0.3,0.1h0.5l0.3-0.1l0.1-0.1l0.1-0.3v-0.5l-0.1-0.3l-0.1-0.1l-0.3-0.1h-0.5
			l-0.3,0.1l-0.1,0.1l-0.1,0.3"/>
		<g transform="rotate(-90 12174.6 23390.4)">
			<g class="st5">
				<rect x="35391" y="11296" class="st6" width="5.7" height="6.9"/>
				<text transform="matrix(1 0 0 1 35390.3516 11299.8682)" class="st7 st8 st9">D17</text>
			</g>
			<g class="st5">
				<rect x="35391" y="11296" class="st6" width="5.7" height="6.9"/>
				<text transform="matrix(1 0 0 1 35390.3477 11299.8662)" class="st10 st8 st9">D17</text>
			</g>
		</g>
		<path class="st11" d="M84.8,174.6H82v-0.7l0.1-0.4l0.3-0.3l0.3-0.1l0.5-0.1h0.4l0.5,0.1l0.3,0.1l0.3,0.3l0.1,0.4V174.6"/>
		<path class="st11" d="M84.8,170.3v1.6"/>
		<path class="st11" d="M84.8,171.1H82l0.4,0.3l0.3,0.3l0.1,0.3"/>
		<path class="st11" d="M82,169.4v-1.9l2.8,1.2"/>
		<g transform="rotate(-90 8774.6 23390.4)">
			<g class="st5">
				<rect x="31991" y="14671.5" class="st6" width="5.7" height="6.9"/>
				<text transform="matrix(1 0 0 1 31990.3496 14675.3887)" class="st7 st8 st9">D16</text>
			</g>
			<g class="st5">
				<rect x="31991" y="14671.5" class="st6" width="5.7" height="6.9"/>
				<text transform="matrix(1 0 0 1 31990.3496 14675.3867)" class="st10 st8 st9">D16</text>
			</g>
		</g>
		<path class="st11" d="M60.3,174.6h-2.8v-0.7l0.1-0.4l0.3-0.3l0.3-0.1l0.5-0.1h0.4l0.5,0.1l0.3,0.1l0.3,0.3l0.1,0.4V174.6"/>
		<path class="st11" d="M60.3,170.3v1.6"/>
		<path class="st11" d="M60.3,171.1h-2.8l0.4,0.3l0.3,0.3l0.1,0.3"/>
		<path class="st11" d="M57.5,167.9v0.5l0.1,0.3l0.1,0.1l0.4,0.3l0.5,0.1h1.1l0.3-0.1l0.1-0.1l0.1-0.3v-0.5l-0.1-0.3l-0.1-0.1
			l-0.3-0.1h-0.7l-0.3,0.1l-0.1,0.1l-0.1,0.3v0.5l0.1,0.3l0.1,0.1l0.3,0.1"/>
		<g transform="rotate(-90 29374.6 10390.4)">
			<g class="st5">
				<rect x="39684.6" y="-18780.2" class="st6" width="5.7" height="6.9"/>
				<text transform="matrix(1 0 0 1 39683.9492 -18776.291)" class="st7 st8 st9">D15</text>
			</g>
			<g class="st5">
				<rect x="39684.6" y="-18780.2" class="st6" width="5.7" height="6.9"/>
				<text transform="matrix(1 0 0 1 39683.9492 -18776.293)" class="st10 st8 st9">D15</text>
			</g>
		</g>
		<path class="st11" d="M208.6,81h-2.8v-0.7l0.1-0.4l0.3-0.3l0.3-0.1l0.5-0.1h0.4l0.5,0.1l0.3,0.1l0.3,0.3l0.1,0.4V81"/>
		<path class="st11" d="M208.6,76.7v1.6"/>
		<path class="st11" d="M208.6,77.5h-2.8l0.4,0.3l0.3,0.3l0.1,0.3"/>
		<path class="st11" d="M205.8,74.1v1.3l1.4,0.1l-0.1-0.1l-0.1-0.3v-0.7l0.1-0.3l0.1-0.1l0.3-0.1h0.7l0.3,0.1l0.1,0.1l0.1,0.3v0.7
			l-0.1,0.3l-0.1,0.1"/>
		<g transform="rotate(-90 29774.6 20390.4)">
			<g class="st5">
				<rect x="50012.6" y="-9177.3" class="st6" width="5.7" height="6.9"/>
				<text transform="matrix(1 0 0 1 50011.9492 -9173.4121)" class="st7 st8 st9">D14</text>
			</g>
			<g class="st5">
				<rect x="50012.6" y="-9177.3" class="st6" width="5.7" height="6.9"/>
				<text transform="matrix(1 0 0 1 50011.9492 -9173.4141)" class="st10 st8 st9">D14</text>
			</g>
		</g>
		<path class="st11" d="M211.5,153h-2.8v-0.7l0.1-0.4l0.3-0.3l0.3-0.1l0.5-0.1h0.4l0.5,0.1l0.3,0.1l0.3,0.3l0.1,0.4V153"/>
		<path class="st11" d="M211.5,148.7v1.6"/>
		<path class="st11" d="M211.5,149.5h-2.8l0.4,0.3l0.3,0.3l0.1,0.3"/>
		<path class="st11" d="M209.6,146.3h1.9"/>
		<path class="st11" d="M208.5,146.9l2,0.7v-1.8"/>
		<g transform="rotate(-90 26174.6 20390.4)">
			<g class="st5">
				<rect x="46412.6" y="-5603.2" class="st6" width="5.7" height="6.9"/>
				<text transform="matrix(1 0 0 1 46411.9492 -5599.332)" class="st7 st8 st9">D13</text>
			</g>
			<g class="st5">
				<rect x="46412.6" y="-5603.2" class="st6" width="5.7" height="6.9"/>
				<text transform="matrix(1 0 0 1 46411.9492 -5599.334)" class="st10 st8 st9">D13</text>
			</g>
		</g>
		<path class="st11" d="M185.6,153h-2.8v-0.7l0.1-0.4l0.3-0.3l0.3-0.1l0.5-0.1h0.4l0.5,0.1l0.3,0.1l0.3,0.3l0.1,0.4V153"/>
		<path class="st11" d="M185.6,148.7v1.6"/>
		<path class="st11" d="M185.6,149.5h-2.8l0.4,0.3l0.3,0.3l0.1,0.3"/>
		<path class="st11" d="M182.8,147.8V146l1.1,0.9v-0.4l0.1-0.3l0.1-0.1l0.3-0.1h0.7l0.3,0.1l0.1,0.1l0.1,0.3v0.8l-0.1,0.3l-0.1,0.1"
			/>
		<g transform="rotate(-90 22774.6 20390.4)">
			<g class="st5">
				<rect x="43012.6" y="-2227.7" class="st6" width="5.7" height="6.9"/>
				<text transform="matrix(1 0 0 1 43011.9492 -2223.8118)" class="st7 st8 st9">D12</text>
			</g>
			<g class="st5">
				<rect x="43012.6" y="-2227.7" class="st6" width="5.7" height="6.9"/>
				<text transform="matrix(1 0 0 1 43011.9492 -2223.8137)" class="st10 st8 st9">D12</text>
			</g>
		</g>
		<path class="st11" d="M161.1,153h-2.8v-0.7l0.1-0.4l0.3-0.3l0.3-0.1l0.5-0.1h0.4l0.5,0.1l0.3,0.1l0.3,0.3l0.1,0.4V153"/>
		<path class="st11" d="M161.1,148.7v1.6"/>
		<path class="st11" d="M161.1,149.5h-2.8l0.4,0.3l0.3,0.3l0.1,0.3"/>
		<path class="st11" d="M158.6,147.6l-0.1-0.1l-0.1-0.3v-0.7l0.1-0.3l0.1-0.1l0.3-0.1h0.3l0.4,0.1l1.6,1.6V146"/>
		<g transform="rotate(-90 19174.6 20390.4)">
			<g class="st5">
				<rect x="39412.5" y="1346.5" class="st6" width="5.9" height="6.7"/>
				<text transform="matrix(1 0 0 1 39412.0898 1350.0948)"><tspan x="0" y="0" class="st7 st8 st9 st12">D</tspan><tspan x="4.6" y="0" class="st7 st8 st9">1</tspan></text>
			</g>
			<g class="st5">
				<rect x="39412.5" y="1346.5" class="st6" width="5.9" height="6.7"/>
				<text transform="matrix(1 0 0 1 39412.0898 1350.0929)"><tspan x="0" y="0" class="st10 st8 st9 st12">D</tspan><tspan x="4.6" y="0" class="st10 st8 st9">1</tspan></text>
			</g>
		</g>
		<path class="st11" d="M135.2,153h-2.8v-0.7l0.1-0.4l0.3-0.3l0.3-0.1l0.5-0.1h0.4l0.5,0.1l0.3,0.1l0.3,0.3l0.1,0.4V153"/>
		<path class="st11" d="M135.2,148.7v1.6"/>
		<path class="st11" d="M135.2,149.5h-2.8l0.4,0.3l0.3,0.3l0.1,0.3"/>
		<path class="st11" d="M135.2,146v1.6"/>
		<path class="st11" d="M135.2,146.8h-2.8l0.4,0.3l0.3,0.3l0.1,0.3"/>
		<g transform="rotate(-90 15774.6 20390.4)">
			<g class="st5">
				<rect x="36012.6" y="4721.9" class="st6" width="5.7" height="6.9"/>
				<text transform="matrix(1 0 0 1 36011.9492 4725.7881)" class="st7 st8 st9">D10</text>
			</g>
			<g class="st5">
				<rect x="36012.6" y="4721.9" class="st6" width="5.7" height="6.9"/>
				<text transform="matrix(1 0 0 1 36011.9492 4725.7861)" class="st10 st8 st9">D10</text>
			</g>
		</g>
		<path class="st11" d="M110.7,153h-2.8v-0.7l0.1-0.4l0.3-0.3l0.3-0.1l0.5-0.1h0.4l0.5,0.1l0.3,0.1l0.3,0.3l0.1,0.4V153"/>
		<path class="st11" d="M110.7,148.7v1.6"/>
		<path class="st11" d="M110.7,149.5h-2.8l0.4,0.3l0.3,0.3l0.1,0.3"/>
		<path class="st11" d="M107.9,146.9v-0.3l0.1-0.3l0.1-0.1l0.3-0.1l0.5-0.1h0.7l0.5,0.1l0.3,0.1l0.1,0.1l0.1,0.3v0.3l-0.1,0.3
			l-0.1,0.1l-0.3,0.1l-0.5,0.1H109l-0.5-0.1l-0.3-0.1l-0.1-0.1L107.9,146.9"/>
		<g transform="rotate(-90 12174.6 20390.4)">
			<g class="st5">
				<rect x="32412.6" y="8297" class="st6" width="5.6" height="4.8"/>
				<text transform="matrix(1 0 0 1 32413.002 8299.8926)" class="st7 st8 st9">D9</text>
			</g>
			<g class="st5">
				<rect x="32412.6" y="8297" class="st6" width="5.6" height="4.8"/>
				<text transform="matrix(1 0 0 1 32413 8299.8906)" class="st10 st8 st9">D9</text>
			</g>
		</g>
		<path class="st11" d="M84.8,151.7H82V151l0.1-0.4l0.3-0.3l0.3-0.1l0.5-0.1h0.4l0.5,0.1l0.3,0.1l0.3,0.3l0.1,0.4V151.7"/>
		<path class="st11" d="M84.8,148.7v-0.5l-0.1-0.3l-0.1-0.1l-0.4-0.3l-0.5-0.1h-1.1l-0.3,0.1l-0.1,0.1l-0.1,0.3v0.5l0.1,0.3l0.1,0.1
			l0.3,0.1h0.7l0.3-0.1l0.1-0.1l0.1-0.3v-0.5l-0.1-0.3l-0.1-0.1l-0.3-0.1"/>
		<g transform="rotate(-90 8774.6 20390.4)">
			<g class="st5">
				<rect x="29012.6" y="11672.6" class="st6" width="5.6" height="4.8"/>
				<text transform="matrix(1 0 0 1 29013.002 11675.4121)" class="st7 st8 st9">D8</text>
			</g>
			<g class="st5">
				<rect x="29012.6" y="11672.6" class="st6" width="5.6" height="4.8"/>
				<text transform="matrix(1 0 0 1 29013 11675.4102)" class="st10 st8 st9">D8</text>
			</g>
		</g>
		<path class="st11" d="M60.3,151.7h-2.8V151l0.1-0.4l0.3-0.3l0.3-0.1l0.5-0.1h0.4l0.5,0.1l0.3,0.1l0.3,0.3l0.1,0.4V151.7"/>
		<path class="st11" d="M58.7,148.4l-0.1,0.3l-0.1,0.1l-0.3,0.1H58l-0.3-0.1l-0.1-0.1l-0.1-0.3v-0.5l0.1-0.3l0.1-0.1l0.3-0.1h0.1
			l0.3,0.1l0.1,0.1l0.1,0.3V148.4l0.1,0.3l0.1,0.1l0.3,0.1h0.5l0.3-0.1l0.1-0.1l0.1-0.3v-0.5l-0.1-0.3l-0.1-0.1l-0.3-0.1h-0.5
			l-0.3,0.1l-0.1,0.1l-0.1,0.3"/>
		<g transform="rotate(-90 29774.6 17590.4)">
			<g class="st5">
				<rect x="47232.8" y="-11976.2" class="st6" width="5.6" height="4.8"/>
				<text transform="matrix(1 0 0 1 47233.1602 -11973.3877)" class="st7 st8 st9">D7</text>
			</g>
			<g class="st5">
				<rect x="47232.8" y="-11976.2" class="st6" width="5.6" height="4.8"/>
				<text transform="matrix(1 0 0 1 47233.1602 -11973.3896)" class="st10 st8 st9">D7</text>
			</g>
		</g>
		<path class="st11" d="M211.5,131.5h-2.8v-0.7l0.1-0.4l0.3-0.3l0.3-0.1l0.5-0.1h0.4l0.5,0.1l0.3,0.1l0.3,0.3l0.1,0.4V131.5"/>
		<path class="st11" d="M208.7,128.9v-1.9l2.8,1.2"/>
		<g transform="rotate(-90 26174.6 17590.4)">
			<g class="st5">
				<rect x="43632.8" y="-8402.2" class="st6" width="5.6" height="4.8"/>
				<text transform="matrix(1 0 0 1 43633.1602 -8399.3076)" class="st7 st8 st9">D6</text>
			</g>
			<g class="st5">
				<rect x="43632.8" y="-8402.2" class="st6" width="5.6" height="4.8"/>
				<text transform="matrix(1 0 0 1 43633.1602 -8399.3096)" class="st10 st8 st9">D6</text>
			</g>
		</g>
		<path class="st11" d="M185.6,131.5h-2.8v-0.7l0.1-0.4l0.3-0.3l0.3-0.1l0.5-0.1h0.4l0.5,0.1l0.3,0.1l0.3,0.3l0.1,0.4V131.5"/>
		<path class="st11" d="M182.8,127.5v0.5l0.1,0.3l0.1,0.1l0.4,0.3l0.5,0.1h1.1l0.3-0.1l0.1-0.1l0.1-0.3v-0.5l-0.1-0.3l-0.1-0.1
			l-0.3-0.1h-0.7l-0.3,0.1l-0.1,0.1l-0.1,0.3v0.5l0.1,0.3l0.1,0.1l0.3,0.1"/>
		<g transform="rotate(-90 22774.6 17590.4)">
			<g class="st5">
				<rect x="40232.8" y="-5026.6" class="st6" width="5.6" height="4.8"/>
				<text transform="matrix(1 0 0 1 40233.1602 -5023.7881)" class="st7 st8 st9">D5</text>
			</g>
			<g class="st5">
				<rect x="40232.8" y="-5026.6" class="st6" width="5.6" height="4.8"/>
				<text transform="matrix(1 0 0 1 40233.1602 -5023.79)" class="st10 st8 st9">D5</text>
			</g>
		</g>
		<path class="st11" d="M161.1,131.5h-2.8v-0.7l0.1-0.4l0.3-0.3l0.3-0.1l0.5-0.1h0.4l0.5,0.1l0.3,0.1l0.3,0.3l0.1,0.4V131.5"/>
		<path class="st11" d="M158.3,127.3v1.4l1.4,0.1l-0.1-0.1l-0.1-0.3v-0.7l0.1-0.3l0.1-0.1l0.3-0.1h0.7l0.3,0.1l0.1,0.1l0.1,0.3v0.7
			l-0.1,0.3l-0.1,0.1"/>
		<g transform="rotate(-90 19174.6 17590.4)">
			<g class="st5">
				<rect x="36632.8" y="-1452.6" class="st6" width="5.6" height="4.8"/>
				<text transform="matrix(1 0 0 1 36633.1602 -1449.7079)" class="st7 st8 st9">D4</text>
			</g>
			<g class="st5">
				<rect x="36632.8" y="-1452.6" class="st6" width="5.6" height="4.8"/>
				<text transform="matrix(1 0 0 1 36633.1602 -1449.7098)" class="st10 st8 st9">D4</text>
			</g>
		</g>
		<path class="st11" d="M135.2,131.5h-2.8v-0.7l0.1-0.4l0.3-0.3l0.3-0.1l0.5-0.1h0.4l0.5,0.1l0.3,0.1l0.3,0.3l0.1,0.4V131.5"/>
		<path class="st11" d="M133.3,127.5h1.9"/>
		<path class="st11" d="M132.2,128.1l2,0.7v-1.7"/>
		<g transform="rotate(-90 15774.6 17590.4)">
			<g class="st5">
				<rect x="33232.8" y="1923" class="st6" width="5.6" height="4.8"/>
				<text transform="matrix(1 0 0 1 33233.1602 1925.8121)" class="st7 st8 st9">D3</text>
			</g>
			<g class="st5">
				<rect x="33232.8" y="1923" class="st6" width="5.6" height="4.8"/>
				<text transform="matrix(1 0 0 1 33233.1602 1925.8102)" class="st10 st8 st9">D3</text>
			</g>
		</g>
		<path class="st11" d="M110.7,131.5h-2.8v-0.7l0.1-0.4l0.3-0.3l0.3-0.1l0.5-0.1h0.4l0.5,0.1l0.3,0.1l0.3,0.3l0.1,0.4V131.5"/>
		<path class="st11" d="M107.9,128.9v-1.7l1.1,0.9v-0.4l0.1-0.3l0.1-0.1l0.3-0.1h0.7l0.3,0.1l0.1,0.1l0.1,0.3v0.8l-0.1,0.3l-0.1,0.1
			"/>
		<g transform="rotate(-90 12174.6 17590.4)">
			<g class="st5">
				<rect x="29632.8" y="5497" class="st6" width="5.6" height="4.8"/>
				<text transform="matrix(1 0 0 1 29633.1621 5499.8921)" class="st7 st8 st9">D2</text>
			</g>
			<g class="st5">
				<rect x="29632.8" y="5497" class="st6" width="5.6" height="4.8"/>
				<text transform="matrix(1 0 0 1 29633.1602 5499.8901)" class="st10 st8 st9">D2</text>
			</g>
		</g>
		<path class="st11" d="M84.8,131.5H82v-0.7l0.1-0.4l0.3-0.3l0.3-0.1l0.5-0.1h0.4l0.5,0.1l0.3,0.1l0.3,0.3l0.1,0.4V131.5"/>
		<path class="st11" d="M82.2,128.8l-0.1-0.1l-0.1-0.3v-0.7l0.1-0.3l0.1-0.1l0.3-0.1h0.3l0.4,0.1l1.6,1.6v-1.7"/>
		<g transform="rotate(-90 8774.6 17590.4)">
			<g class="st5">
				<rect x="26232.8" y="8872.6" class="st6" width="5.6" height="4.8"/>
				<text transform="matrix(1 0 0 1 26233.1621 8875.4121)" class="st7 st8 st9">D1</text>
			</g>
			<g class="st5">
				<rect x="26232.8" y="8872.6" class="st6" width="5.6" height="4.8"/>
				<text transform="matrix(1 0 0 1 26233.1602 8875.4102)" class="st10 st8 st9">D1</text>
			</g>
		</g>
		<path class="st11" d="M60.3,131.5h-2.8v-0.7l0.1-0.4l0.3-0.3l0.3-0.1l0.5-0.1h0.4l0.5,0.1l0.3,0.1l0.3,0.3l0.1,0.4V131.5"/>
		<path class="st11" d="M60.3,127.2v1.6"/>
		<path class="st11" d="M60.3,128h-2.8l0.4,0.3l0.3,0.3l0.1,0.3"/>
		<g transform="rotate(-90 10774.6 7390.35)">
			<g class="st5">
				<rect x="18106.2" y="-3313.1" class="st6" width="5.6" height="4.8"/>
				<text transform="matrix(1 0 0 1 18106.5508 -3310.2375)" class="st7 st8 st9">C1</text>
			</g>
			<g class="st5">
				<rect x="18106.1" y="-3313.1" class="st6" width="5.6" height="4.8"/>
				<text transform="matrix(1 0 0 1 18106.5488 -3310.2395)" class="st10 st8 st9">C1</text>
			</g>
		</g>
		<path class="st11" d="M74.4,56.4l0.1,0.1l0.1,0.4v0.3l-0.1,0.4l-0.3,0.3L74,58.1l-0.5,0.1h-0.4l-0.5-0.1l-0.3-0.1L72,57.7
			l-0.1-0.4V57l0.1-0.4l0.1-0.1"/>
		<path class="st11" d="M74.7,53.8v1.6"/>
		<path class="st11" d="M74.7,54.6h-2.8l0.4,0.3l0.3,0.3l0.1,0.3"/>
	</g>
</g>
</svg>
