<?xml version="1.0" standalone="no"?>
 <!DOCTYPE svg PUBLIC "-//W3C//DTD SVG 1.1//EN" 
 "http://www.w3.org/Graphics/SVG/1.1/DTD/svg11.dtd"> 
<svg xmlns="http://www.w3.org/2000/svg" version="1.1" 
    width="10.4521cm" height="9.96442cm" viewBox="0 0 41150 39230 ">
<title>SVG Picture created as PCB-brd.svg date 2020/02/12 13:19:33 </title>
  <desc>Picture generated by PCBNEW </desc>
<g style="fill:#000000; fill-opacity:1;stroke:#000000; stroke-opacity:1;
stroke-linecap:round; stroke-linejoin:round; "
 transform="translate(0 0) scale(1 1)">
</g>
<g style="fill:#000000; fill-opacity:0.0; 
stroke:#000000; stroke-width:-0.000393701; stroke-opacity:1; 
stroke-linecap:round; stroke-linejoin:round;">
</g>
<g style="fill:#008484; fill-opacity:0.0; 
stroke:#008484; stroke-width:-0.000393701; stroke-opacity:1; 
stroke-linecap:round; stroke-linejoin:round;">
</g>
<g style="fill:#008484; fill-opacity:0.0; 
stroke:#008484; stroke-width:157.48; stroke-opacity:1; 
stroke-linecap:round; stroke-linejoin:round;">
<text x="17974.6" y="11482.5"
textLength="16815.7" font-size="1312.34" lengthAdjust="spacingAndGlyphs"
text-anchor="middle" opacity="0">4 LED in a Row Game</text>
<path d="M10341 10779
L10259 11435
" />
<path d="M10153 10404
L9831 11107
L10440 11107
" />
<path d="M11993 11435
L11524 11435
L11647 10451
" />
<path d="M12385 10920
L12713 10920
" />
<path d="M12790 11435
L12321 11435
L12444 10451
L12913 10451
" />
<path d="M13211 11435
L13334 10451
L13569 10451
L13704 10498
L13786 10591
L13821 10685
L13844 10873
L13827 11013
L13756 11201
L13698 11295
L13592 11388
L13446 11435
L13211 11435
" />
<path d="M14946 11435
L15028 10779
" />
<path d="M15069 10451
L15016 10498
L15057 10545
L15110 10498
L15069 10451
L15057 10545
" />
<path d="M15496 10779
L15414 11435
" />
<path d="M15485 10873
L15537 10826
L15637 10779
L15777 10779
L15865 10826
L15901 10920
L15836 11435
" />
<path d="M17476 11435
L17541 10920
L17506 10826
L17418 10779
L17230 10779
L17131 10826
" />
<path d="M17482 11388
L17383 11435
L17148 11435
L17061 11388
L17025 11295
L17037 11201
L17096 11107
L17195 11060
L17430 11060
L17529 11013
" />
<path d="M19258 11435
L18988 10966
" />
<path d="M18695 11435
L18818 10451
L19193 10451
L19281 10498
L19322 10545
L19357 10638
L19340 10779
L19281 10873
L19228 10920
L19129 10966
L18754 10966
" />
<path d="M19820 11435
L19732 11388
L19691 11341
L19656 11248
L19691 10966
L19750 10873
L19802 10826
L19902 10779
L20043 10779
L20130 10826
L20171 10873
L20207 10966
L20171 11248
L20113 11341
L20060 11388
L19961 11435
L19820 11435
" />
<path d="M20558 10779
L20664 11435
L20910 10966
L21039 11435
L21308 10779
" />
<path d="M22984 10498
L22896 10451
L22755 10451
L22609 10498
L22503 10591
L22445 10685
L22374 10873
L22357 11013
L22380 11201
L22415 11295
L22497 11388
L22632 11435
L22726 11435
L22872 11388
L22925 11341
L22966 11013
L22779 11013
" />
<path d="M23757 11435
L23821 10920
L23786 10826
L23698 10779
L23511 10779
L23411 10826
" />
<path d="M23763 11388
L23663 11435
L23429 11435
L23341 11388
L23306 11295
L23318 11201
L23376 11107
L23476 11060
L23710 11060
L23810 11013
" />
<path d="M24226 11435
L24308 10779
" />
<path d="M24296 10873
L24349 10826
L24448 10779
L24589 10779
L24677 10826
L24712 10920
L24647 11435
" />
<path d="M24712 10920
L24771 10826
L24870 10779
L25011 10779
L25099 10826
L25134 10920
L25069 11435
" />
<path d="M25919 11388
L25819 11435
L25632 11435
L25544 11388
L25509 11295
L25556 10920
L25614 10826
L25714 10779
L25901 10779
L25989 10826
L26024 10920
L26013 11013
L25532 11107
" />
</g>
<g style="fill:#008484; fill-opacity:0.0; 
stroke:#008484; stroke-width:47.2441; stroke-opacity:1; 
stroke-linecap:round; stroke-linejoin:round;">
<path d="M30254 16387
L30254 16593
" />
<path d="M29695 16387
L29695 16593
" />
<path d="M26054 16387
L26054 16593
" />
<path d="M25495 16387
L25495 16593
" />
<path d="M25054 6287
L25054 6493
" />
<path d="M24495 6287
L24495 6493
" />
<path d="M25854 6287
L25854 6493
" />
<path d="M25295 6287
L25295 6493
" />
<path d="M21854 16387
L21854 16593
" />
<path d="M21295 16387
L21295 16593
" />
<path d="M26654 6287
L26654 6493
" />
<path d="M26095 6287
L26095 6493
" />
<path d="M23800 3966
L23800 5013
" />
<path d="M24824 3966
L23800 3966
" />
<path d="M24824 5013
L23800 5013
" />
<path d="M24824 3966
L24824 5013
" />
<path d="M25324 3966
L25848 3966
" />
<path d="M25848 3966
L25848 4490
" />
<path d="M19462 9228
L19462 9602
" />
<path d="M19462 9602
L19836 9602
" />
<path d="M19462 5952
L19462 5578
" />
<path d="M19462 5578
L19836 5578
" />
<path d="M23486 9228
L23486 9602
" />
<path d="M23486 9602
L23112 9602
" />
<path d="M23486 5952
L23486 5578
" />
<path d="M23486 5578
L23112 5578
" />
<path d="M23112 5578
L23112 5050
" />
<path d="M15676 10432
L15676 9936
" />
<path d="M15676 7747
L15676 8243
" />
<path d="M14196 10432
L15676 10432
" />
<path d="M13310 7747
L15676 7747
" />
<path d="M6268 6684
L8039 6684
" />
<path d="M5776 5109
L5776 5699
" />
<path d="M8039 4124
L6268 4124
" />
<path d="M8532 5699
L8532 5109
" />
<path d="M27909 6684
L29680 6684
" />
<path d="M27417 5109
L27417 5699
" />
<path d="M29680 4124
L27909 4124
" />
<path d="M30173 5699
L30173 5109
" />
<path d="M29729 14234
L29729 12462
" />
<path d="M28154 14726
L28745 14726
" />
<path d="M27170 12462
L27170 14234
" />
<path d="M28745 11970
L28154 11970
" />
<path d="M26229 14234
L26229 12462
" />
<path d="M24654 14726
L25245 14726
" />
<path d="M23670 12462
L23670 14234
" />
<path d="M25245 11970
L24654 11970
" />
<path d="M22729 14234
L22729 12462
" />
<path d="M21154 14726
L21745 14726
" />
<path d="M20170 12462
L20170 14234
" />
<path d="M21745 11970
L21154 11970
" />
<path d="M19229 14234
L19229 12462
" />
<path d="M17654 14726
L18245 14726
" />
<path d="M16670 12462
L16670 14234
" />
<path d="M18245 11970
L17654 11970
" />
<path d="M15729 14234
L15729 12462
" />
<path d="M14154 14726
L14745 14726
" />
<path d="M13170 12462
L13170 14234
" />
<path d="M14745 11970
L14154 11970
" />
<path d="M12229 14234
L12229 12462
" />
<path d="M10654 14726
L11245 14726
" />
<path d="M9670 12462
L9670 14234
" />
<path d="M11245 11970
L10654 11970
" />
<path d="M8729 14234
L8729 12462
" />
<path d="M7154 14726
L7745 14726
" />
<path d="M6170 12462
L6170 14234
" />
<path d="M7745 11970
L7154 11970
" />
<path d="M7829 8095
L7829 8567
" />
<path d="M8302 8095
L7829 8095
" />
<path d="M11569 9866
L11097 9866
" />
<path d="M11569 8213
L11569 9866
" />
<path d="M11097 8213
L11569 8213
" />
<path d="M7947 9866
L8420 9866
" />
<path d="M7947 8213
L7947 9866
" />
<path d="M8420 8213
L7947 8213
" />
<path d="M17654 16387
L17654 16593
" />
<path d="M17095 16387
L17095 16593
" />
<path d="M13454 16387
L13454 16593
" />
<path d="M12895 16387
L12895 16593
" />
<path d="M9254 16387
L9254 16593
" />
<path d="M8695 16387
L8695 16593
" />
<path d="M27852 16689
L28218 16689
" />
<path d="M29096 16689
L28730 16689
" />
<path d="M29096 16689
L29096 15839
" />
<path d="M27852 16689
L27852 16114
" />
<path d="M23652 16689
L24018 16689
" />
<path d="M24896 16689
L24530 16689
" />
<path d="M24896 16689
L24896 15839
" />
<path d="M23652 16689
L23652 16114
" />
<path d="M19452 16689
L19818 16689
" />
<path d="M20696 16689
L20330 16689
" />
<path d="M20696 16689
L20696 15839
" />
<path d="M19452 16689
L19452 16114
" />
<path d="M15252 16689
L15618 16689
" />
<path d="M16496 16689
L16130 16689
" />
<path d="M16496 16689
L16496 15839
" />
<path d="M15252 16689
L15252 16114
" />
<path d="M11052 16689
L11418 16689
" />
<path d="M12296 16689
L11930 16689
" />
<path d="M12296 16689
L12296 15839
" />
<path d="M11052 16689
L11052 16114
" />
<path d="M6852 16689
L7218 16689
" />
<path d="M8096 16689
L7730 16689
" />
<path d="M8096 16689
L8096 15839
" />
<path d="M6852 16689
L6852 16114
" />
<path d="M12048 5013
L12048 3966
" />
<path d="M11024 5013
L12048 5013
" />
<path d="M11024 3966
L12048 3966
" />
<path d="M11024 5013
L11024 3966
" />
<path d="M10524 5013
L10000 5013
" />
<path d="M10000 5013
L10000 4490
" />
<path d="M6887 10590
L6887 10440
" />
<path d="M5292 10590
L5190 10590
" />
<path d="M6887 10590
L6190 10590
" />
<path d="M6887 7590
L6887 7739
" />
<path d="M6190 7590
L6887 7590
" />
<path d="M5190 7590
L5292 7590
" />
<path d="M18498 4963
L18498 3916
" />
<path d="M14474 4963
L18498 4963
" />
<path d="M14474 3916
L18498 3916
" />
<path d="M14474 4963
L14474 3916
" />
<path d="M13974 4963
L13450 4963
" />
<path d="M13450 4963
L13450 4440
" />
<path d="M29547.2 33164.8 A1177.17 1177.17 0.0 0 0 27441.7 32982.2 " />
<path d="M27441.7 34198.6 A1177.17 1177.17 0.0 0 0 29547.2 34015.9 " />
<path d="M29337.2 33165 A984.252 984.252 0.0 0 0 27561.9 33165.2 " />
<path d="M27561.9 34015.6 A984.252 984.252 0.0 0 0 29337.2 34015.7 " />
<path d="M27441 32982
L27441 33165
" />
<path d="M27441 34015
L27441 34198
" />
<path d="M26047.2 33164.8 A1177.17 1177.17 0.0 0 0 23941.7 32982.2 " />
<path d="M23941.7 34198.6 A1177.17 1177.17 0.0 0 0 26047.2 34015.9 " />
<path d="M25837.2 33165 A984.252 984.252 0.0 0 0 24061.9 33165.2 " />
<path d="M24061.9 34015.6 A984.252 984.252 0.0 0 0 25837.2 34015.7 " />
<path d="M23941 32982
L23941 33165
" />
<path d="M23941 34015
L23941 34198
" />
<path d="M22547.2 33164.8 A1177.17 1177.17 0.0 0 0 20441.7 32982.2 " />
<path d="M20441.7 34198.6 A1177.17 1177.17 0.0 0 0 22547.2 34015.9 " />
<path d="M22337.2 33165 A984.252 984.252 0.0 0 0 20561.9 33165.2 " />
<path d="M20561.9 34015.6 A984.252 984.252 0.0 0 0 22337.2 34015.7 " />
<path d="M20441 32982
L20441 33165
" />
<path d="M20441 34015
L20441 34198
" />
<path d="M19047.2 33164.8 A1177.17 1177.17 0.0 0 0 16941.7 32982.2 " />
<path d="M16941.7 34198.6 A1177.17 1177.17 0.0 0 0 19047.2 34015.9 " />
<path d="M18837.2 33165 A984.252 984.252 0.0 0 0 17061.9 33165.2 " />
<path d="M17061.9 34015.6 A984.252 984.252 0.0 0 0 18837.2 34015.7 " />
<path d="M16941 32982
L16941 33165
" />
<path d="M16941 34015
L16941 34198
" />
<path d="M15547.2 33164.8 A1177.17 1177.17 0.0 0 0 13441.7 32982.2 " />
<path d="M13441.7 34198.6 A1177.17 1177.17 0.0 0 0 15547.2 34015.9 " />
<path d="M15337.2 33165 A984.252 984.252 0.0 0 0 13561.9 33165.2 " />
<path d="M13561.9 34015.6 A984.252 984.252 0.0 0 0 15337.2 34015.7 " />
<path d="M13441 32982
L13441 33165
" />
<path d="M13441 34015
L13441 34198
" />
<path d="M12047.2 33164.8 A1177.17 1177.17 0.0 0 0 9941.72 32982.2 " />
<path d="M9941.72 34198.6 A1177.17 1177.17 0.0 0 0 12047.2 34015.9 " />
<path d="M11837.2 33165 A984.252 984.252 0.0 0 0 10061.9 33165.2 " />
<path d="M10061.9 34015.6 A984.252 984.252 0.0 0 0 11837.2 34015.7 " />
<path d="M9941 32982
L9941 33165
" />
<path d="M9941 34015
L9941 34198
" />
<path d="M8547.16 33164.8 A1177.17 1177.17 0.0 0 0 6441.72 32982.2 " />
<path d="M6441.72 34198.6 A1177.17 1177.17 0.0 0 0 8547.16 34015.9 " />
<path d="M8337.19 33165 A984.252 984.252 0.0 0 0 6561.93 33165.2 " />
<path d="M6561.93 34015.6 A984.252 984.252 0.0 0 0 8337.19 34015.7 " />
<path d="M6441 32982
L6441 33165
" />
<path d="M6441 34015
L6441 34198
" />
<path d="M29547.2 30164.8 A1177.17 1177.17 0.0 0 0 27441.7 29982.2 " />
<path d="M27441.7 31198.6 A1177.17 1177.17 0.0 0 0 29547.2 31015.9 " />
<path d="M29337.2 30165 A984.252 984.252 0.0 0 0 27561.9 30165.2 " />
<path d="M27561.9 31015.6 A984.252 984.252 0.0 0 0 29337.2 31015.7 " />
<path d="M27441 29982
L27441 30165
" />
<path d="M27441 31015
L27441 31198
" />
<path d="M26047.2 30164.8 A1177.17 1177.17 0.0 0 0 23941.7 29982.2 " />
<path d="M23941.7 31198.6 A1177.17 1177.17 0.0 0 0 26047.2 31015.9 " />
<path d="M25837.2 30165 A984.252 984.252 0.0 0 0 24061.9 30165.2 " />
<path d="M24061.9 31015.6 A984.252 984.252 0.0 0 0 25837.2 31015.7 " />
<path d="M23941 29982
L23941 30165
" />
<path d="M23941 31015
L23941 31198
" />
<path d="M22547.2 30164.8 A1177.17 1177.17 0.0 0 0 20441.7 29982.2 " />
<path d="M20441.7 31198.6 A1177.17 1177.17 0.0 0 0 22547.2 31015.9 " />
<path d="M22337.2 30165 A984.252 984.252 0.0 0 0 20561.9 30165.2 " />
<path d="M20561.9 31015.6 A984.252 984.252 0.0 0 0 22337.2 31015.7 " />
<path d="M20441 29982
L20441 30165
" />
<path d="M20441 31015
L20441 31198
" />
<path d="M19047.2 30164.8 A1177.17 1177.17 0.0 0 0 16941.7 29982.2 " />
<path d="M16941.7 31198.6 A1177.17 1177.17 0.0 0 0 19047.2 31015.9 " />
<path d="M18837.2 30165 A984.252 984.252 0.0 0 0 17061.9 30165.2 " />
<path d="M17061.9 31015.6 A984.252 984.252 0.0 0 0 18837.2 31015.7 " />
<path d="M16941 29982
L16941 30165
" />
<path d="M16941 31015
L16941 31198
" />
<path d="M15547.2 30164.8 A1177.17 1177.17 0.0 0 0 13441.7 29982.2 " />
<path d="M13441.7 31198.6 A1177.17 1177.17 0.0 0 0 15547.2 31015.9 " />
<path d="M15337.2 30165 A984.252 984.252 0.0 0 0 13561.9 30165.2 " />
<path d="M13561.9 31015.6 A984.252 984.252 0.0 0 0 15337.2 31015.7 " />
<path d="M13441 29982
L13441 30165
" />
<path d="M13441 31015
L13441 31198
" />
<path d="M12047.2 30164.8 A1177.17 1177.17 0.0 0 0 9941.72 29982.2 " />
<path d="M9941.72 31198.6 A1177.17 1177.17 0.0 0 0 12047.2 31015.9 " />
<path d="M11837.2 30165 A984.252 984.252 0.0 0 0 10061.9 30165.2 " />
<path d="M10061.9 31015.6 A984.252 984.252 0.0 0 0 11837.2 31015.7 " />
<path d="M9941 29982
L9941 30165
" />
<path d="M9941 31015
L9941 31198
" />
<path d="M8547.16 30164.8 A1177.17 1177.17 0.0 0 0 6441.72 29982.2 " />
<path d="M6441.72 31198.6 A1177.17 1177.17 0.0 0 0 8547.16 31015.9 " />
<path d="M8337.19 30165 A984.252 984.252 0.0 0 0 6561.93 30165.2 " />
<path d="M6561.93 31015.6 A984.252 984.252 0.0 0 0 8337.19 31015.7 " />
<path d="M6441 29982
L6441 30165
" />
<path d="M6441 31015
L6441 31198
" />
<path d="M29547.2 27164.8 A1177.17 1177.17 0.0 0 0 27441.7 26982.2 " />
<path d="M27441.7 28198.6 A1177.17 1177.17 0.0 0 0 29547.2 28015.9 " />
<path d="M29337.2 27165 A984.252 984.252 0.0 0 0 27561.9 27165.2 " />
<path d="M27561.9 28015.6 A984.252 984.252 0.0 0 0 29337.2 28015.7 " />
<path d="M27441 26982
L27441 27165
" />
<path d="M27441 28015
L27441 28198
" />
<path d="M26047.2 27164.8 A1177.17 1177.17 0.0 0 0 23941.7 26982.2 " />
<path d="M23941.7 28198.6 A1177.17 1177.17 0.0 0 0 26047.2 28015.9 " />
<path d="M25837.2 27165 A984.252 984.252 0.0 0 0 24061.9 27165.2 " />
<path d="M24061.9 28015.6 A984.252 984.252 0.0 0 0 25837.2 28015.7 " />
<path d="M23941 26982
L23941 27165
" />
<path d="M23941 28015
L23941 28198
" />
<path d="M22547.2 27164.8 A1177.17 1177.17 0.0 0 0 20441.7 26982.2 " />
<path d="M20441.7 28198.6 A1177.17 1177.17 0.0 0 0 22547.2 28015.9 " />
<path d="M22337.2 27165 A984.252 984.252 0.0 0 0 20561.9 27165.2 " />
<path d="M20561.9 28015.6 A984.252 984.252 0.0 0 0 22337.2 28015.7 " />
<path d="M20441 26982
L20441 27165
" />
<path d="M20441 28015
L20441 28198
" />
<path d="M19047.2 27164.8 A1177.17 1177.17 0.0 0 0 16941.7 26982.2 " />
<path d="M16941.7 28198.6 A1177.17 1177.17 0.0 0 0 19047.2 28015.9 " />
<path d="M18837.2 27165 A984.252 984.252 0.0 0 0 17061.9 27165.2 " />
<path d="M17061.9 28015.6 A984.252 984.252 0.0 0 0 18837.2 28015.7 " />
<path d="M16941 26982
L16941 27165
" />
<path d="M16941 28015
L16941 28198
" />
<path d="M15547.2 27164.8 A1177.17 1177.17 0.0 0 0 13441.7 26982.2 " />
<path d="M13441.7 28198.6 A1177.17 1177.17 0.0 0 0 15547.2 28015.9 " />
<path d="M15337.2 27165 A984.252 984.252 0.0 0 0 13561.9 27165.2 " />
<path d="M13561.9 28015.6 A984.252 984.252 0.0 0 0 15337.2 28015.7 " />
<path d="M13441 26982
L13441 27165
" />
<path d="M13441 28015
L13441 28198
" />
<path d="M12047.2 27164.8 A1177.17 1177.17 0.0 0 0 9941.72 26982.2 " />
<path d="M9941.72 28198.6 A1177.17 1177.17 0.0 0 0 12047.2 28015.9 " />
<path d="M11837.2 27165 A984.252 984.252 0.0 0 0 10061.9 27165.2 " />
<path d="M10061.9 28015.6 A984.252 984.252 0.0 0 0 11837.2 28015.7 " />
<path d="M9941 26982
L9941 27165
" />
<path d="M9941 28015
L9941 28198
" />
<path d="M8547.16 27164.8 A1177.17 1177.17 0.0 0 0 6441.72 26982.2 " />
<path d="M6441.72 28198.6 A1177.17 1177.17 0.0 0 0 8547.16 28015.9 " />
<path d="M8337.19 27165 A984.252 984.252 0.0 0 0 6561.93 27165.2 " />
<path d="M6561.93 28015.6 A984.252 984.252 0.0 0 0 8337.19 28015.7 " />
<path d="M6441 26982
L6441 27165
" />
<path d="M6441 28015
L6441 28198
" />
<path d="M29547.2 24164.8 A1177.17 1177.17 0.0 0 0 27441.7 23982.2 " />
<path d="M27441.7 25198.6 A1177.17 1177.17 0.0 0 0 29547.2 25015.9 " />
<path d="M29337.2 24165 A984.252 984.252 0.0 0 0 27561.9 24165.2 " />
<path d="M27561.9 25015.6 A984.252 984.252 0.0 0 0 29337.2 25015.7 " />
<path d="M27441 23982
L27441 24165
" />
<path d="M27441 25015
L27441 25198
" />
<path d="M26047.2 24164.8 A1177.17 1177.17 0.0 0 0 23941.7 23982.2 " />
<path d="M23941.7 25198.6 A1177.17 1177.17 0.0 0 0 26047.2 25015.9 " />
<path d="M25837.2 24165 A984.252 984.252 0.0 0 0 24061.9 24165.2 " />
<path d="M24061.9 25015.6 A984.252 984.252 0.0 0 0 25837.2 25015.7 " />
<path d="M23941 23982
L23941 24165
" />
<path d="M23941 25015
L23941 25198
" />
<path d="M22547.2 24164.8 A1177.17 1177.17 0.0 0 0 20441.7 23982.2 " />
<path d="M20441.7 25198.6 A1177.17 1177.17 0.0 0 0 22547.2 25015.9 " />
<path d="M22337.2 24165 A984.252 984.252 0.0 0 0 20561.9 24165.2 " />
<path d="M20561.9 25015.6 A984.252 984.252 0.0 0 0 22337.2 25015.7 " />
<path d="M20441 23982
L20441 24165
" />
<path d="M20441 25015
L20441 25198
" />
<path d="M19047.2 24164.8 A1177.17 1177.17 0.0 0 0 16941.7 23982.2 " />
<path d="M16941.7 25198.6 A1177.17 1177.17 0.0 0 0 19047.2 25015.9 " />
<path d="M18837.2 24165 A984.252 984.252 0.0 0 0 17061.9 24165.2 " />
<path d="M17061.9 25015.6 A984.252 984.252 0.0 0 0 18837.2 25015.7 " />
<path d="M16941 23982
L16941 24165
" />
<path d="M16941 25015
L16941 25198
" />
<path d="M15547.2 24164.8 A1177.17 1177.17 0.0 0 0 13441.7 23982.2 " />
<path d="M13441.7 25198.6 A1177.17 1177.17 0.0 0 0 15547.2 25015.9 " />
<path d="M15337.2 24165 A984.252 984.252 0.0 0 0 13561.9 24165.2 " />
<path d="M13561.9 25015.6 A984.252 984.252 0.0 0 0 15337.2 25015.7 " />
<path d="M13441 23982
L13441 24165
" />
<path d="M13441 25015
L13441 25198
" />
<path d="M12047.2 24164.8 A1177.17 1177.17 0.0 0 0 9941.72 23982.2 " />
<path d="M9941.72 25198.6 A1177.17 1177.17 0.0 0 0 12047.2 25015.9 " />
<path d="M11837.2 24165 A984.252 984.252 0.0 0 0 10061.9 24165.2 " />
<path d="M10061.9 25015.6 A984.252 984.252 0.0 0 0 11837.2 25015.7 " />
<path d="M9941 23982
L9941 24165
" />
<path d="M9941 25015
L9941 25198
" />
<path d="M8547.16 24164.8 A1177.17 1177.17 0.0 0 0 6441.72 23982.2 " />
<path d="M6441.72 25198.6 A1177.17 1177.17 0.0 0 0 8547.16 25015.9 " />
<path d="M8337.19 24165 A984.252 984.252 0.0 0 0 6561.93 24165.2 " />
<path d="M6561.93 25015.6 A984.252 984.252 0.0 0 0 8337.19 25015.7 " />
<path d="M6441 23982
L6441 24165
" />
<path d="M6441 25015
L6441 25198
" />
<path d="M26952 9515.88 A1177.17 1177.17 0.0 0 0 29057.5 9698.55 " />
<path d="M29057.5 8482.15 A1177.17 1177.17 0.0 0 0 26952 8664.83 " />
<path d="M27162 9515.72 A984.252 984.252 0.0 0 0 28937.3 9515.55 " />
<path d="M28937.3 8665.16 A984.252 984.252 0.0 0 0 27162 8664.99 " />
<path d="M29057 9698
L29057 9515
" />
<path d="M29057 8665
L29057 8482
" />
<path d="M29547.2 21164.8 A1177.17 1177.17 0.0 0 0 27441.7 20982.2 " />
<path d="M27441.7 22198.6 A1177.17 1177.17 0.0 0 0 29547.2 22015.9 " />
<path d="M29337.2 21165 A984.252 984.252 0.0 0 0 27561.9 21165.2 " />
<path d="M27561.9 22015.6 A984.252 984.252 0.0 0 0 29337.2 22015.7 " />
<path d="M27441 20982
L27441 21165
" />
<path d="M27441 22015
L27441 22198
" />
<path d="M26047.2 21164.8 A1177.17 1177.17 0.0 0 0 23941.7 20982.2 " />
<path d="M23941.7 22198.6 A1177.17 1177.17 0.0 0 0 26047.2 22015.9 " />
<path d="M25837.2 21165 A984.252 984.252 0.0 0 0 24061.9 21165.2 " />
<path d="M24061.9 22015.6 A984.252 984.252 0.0 0 0 25837.2 22015.7 " />
<path d="M23941 20982
L23941 21165
" />
<path d="M23941 22015
L23941 22198
" />
<path d="M22547.2 21164.8 A1177.17 1177.17 0.0 0 0 20441.7 20982.2 " />
<path d="M20441.7 22198.6 A1177.17 1177.17 0.0 0 0 22547.2 22015.9 " />
<path d="M22337.2 21165 A984.252 984.252 0.0 0 0 20561.9 21165.2 " />
<path d="M20561.9 22015.6 A984.252 984.252 0.0 0 0 22337.2 22015.7 " />
<path d="M20441 20982
L20441 21165
" />
<path d="M20441 22015
L20441 22198
" />
<path d="M19047.2 21164.8 A1177.17 1177.17 0.0 0 0 16941.7 20982.2 " />
<path d="M16941.7 22198.6 A1177.17 1177.17 0.0 0 0 19047.2 22015.9 " />
<path d="M18837.2 21165 A984.252 984.252 0.0 0 0 17061.9 21165.2 " />
<path d="M17061.9 22015.6 A984.252 984.252 0.0 0 0 18837.2 22015.7 " />
<path d="M16941 20982
L16941 21165
" />
<path d="M16941 22015
L16941 22198
" />
<path d="M15547.2 21164.8 A1177.17 1177.17 0.0 0 0 13441.7 20982.2 " />
<path d="M13441.7 22198.6 A1177.17 1177.17 0.0 0 0 15547.2 22015.9 " />
<path d="M15337.2 21165 A984.252 984.252 0.0 0 0 13561.9 21165.2 " />
<path d="M13561.9 22015.6 A984.252 984.252 0.0 0 0 15337.2 22015.7 " />
<path d="M13441 20982
L13441 21165
" />
<path d="M13441 22015
L13441 22198
" />
<path d="M12047.2 21164.8 A1177.17 1177.17 0.0 0 0 9941.72 20982.2 " />
<path d="M9941.72 22198.6 A1177.17 1177.17 0.0 0 0 12047.2 22015.9 " />
<path d="M11837.2 21165 A984.252 984.252 0.0 0 0 10061.9 21165.2 " />
<path d="M10061.9 22015.6 A984.252 984.252 0.0 0 0 11837.2 22015.7 " />
<path d="M9941 20982
L9941 21165
" />
<path d="M9941 22015
L9941 22198
" />
<path d="M8547.16 21164.8 A1177.17 1177.17 0.0 0 0 6441.72 20982.2 " />
<path d="M6441.72 22198.6 A1177.17 1177.17 0.0 0 0 8547.16 22015.9 " />
<path d="M8337.19 21165 A984.252 984.252 0.0 0 0 6561.93 21165.2 " />
<path d="M6561.93 22015.6 A984.252 984.252 0.0 0 0 8337.19 22015.7 " />
<path d="M6441 20982
L6441 21165
" />
<path d="M6441 22015
L6441 22198
" />
<path d="M29547.2 18164.8 A1177.17 1177.17 0.0 0 0 27441.7 17982.2 " />
<path d="M27441.7 19198.6 A1177.17 1177.17 0.0 0 0 29547.2 19015.9 " />
<path d="M29337.2 18165 A984.252 984.252 0.0 0 0 27561.9 18165.2 " />
<path d="M27561.9 19015.6 A984.252 984.252 0.0 0 0 29337.2 19015.7 " />
<path d="M27441 17982
L27441 18165
" />
<path d="M27441 19015
L27441 19198
" />
<path d="M26047.2 18164.8 A1177.17 1177.17 0.0 0 0 23941.7 17982.2 " />
<path d="M23941.7 19198.6 A1177.17 1177.17 0.0 0 0 26047.2 19015.9 " />
<path d="M25837.2 18165 A984.252 984.252 0.0 0 0 24061.9 18165.2 " />
<path d="M24061.9 19015.6 A984.252 984.252 0.0 0 0 25837.2 19015.7 " />
<path d="M23941 17982
L23941 18165
" />
<path d="M23941 19015
L23941 19198
" />
<path d="M22547.2 18164.8 A1177.17 1177.17 0.0 0 0 20441.7 17982.2 " />
<path d="M20441.7 19198.6 A1177.17 1177.17 0.0 0 0 22547.2 19015.9 " />
<path d="M22337.2 18165 A984.252 984.252 0.0 0 0 20561.9 18165.2 " />
<path d="M20561.9 19015.6 A984.252 984.252 0.0 0 0 22337.2 19015.7 " />
<path d="M20441 17982
L20441 18165
" />
<path d="M20441 19015
L20441 19198
" />
<path d="M19047.2 18164.8 A1177.17 1177.17 0.0 0 0 16941.7 17982.2 " />
<path d="M16941.7 19198.6 A1177.17 1177.17 0.0 0 0 19047.2 19015.9 " />
<path d="M18837.2 18165 A984.252 984.252 0.0 0 0 17061.9 18165.2 " />
<path d="M17061.9 19015.6 A984.252 984.252 0.0 0 0 18837.2 19015.7 " />
<path d="M16941 17982
L16941 18165
" />
<path d="M16941 19015
L16941 19198
" />
<path d="M15547.2 18164.8 A1177.17 1177.17 0.0 0 0 13441.7 17982.2 " />
<path d="M13441.7 19198.6 A1177.17 1177.17 0.0 0 0 15547.2 19015.9 " />
<path d="M15337.2 18165 A984.252 984.252 0.0 0 0 13561.9 18165.2 " />
<path d="M13561.9 19015.6 A984.252 984.252 0.0 0 0 15337.2 19015.7 " />
<path d="M13441 17982
L13441 18165
" />
<path d="M13441 19015
L13441 19198
" />
<path d="M12047.2 18164.8 A1177.17 1177.17 0.0 0 0 9941.72 17982.2 " />
<path d="M9941.72 19198.6 A1177.17 1177.17 0.0 0 0 12047.2 19015.9 " />
<path d="M11837.2 18165 A984.252 984.252 0.0 0 0 10061.9 18165.2 " />
<path d="M10061.9 19015.6 A984.252 984.252 0.0 0 0 11837.2 19015.7 " />
<path d="M9941 17982
L9941 18165
" />
<path d="M9941 19015
L9941 19198
" />
<path d="M8547.16 18164.8 A1177.17 1177.17 0.0 0 0 6441.72 17982.2 " />
<path d="M6441.72 19198.6 A1177.17 1177.17 0.0 0 0 8547.16 19015.9 " />
<path d="M8337.19 18165 A984.252 984.252 0.0 0 0 6561.93 18165.2 " />
<path d="M6561.93 19015.6 A984.252 984.252 0.0 0 0 8337.19 19015.7 " />
<path d="M6441 17982
L6441 18165
" />
<path d="M6441 19015
L6441 19198
" />
<path d="M9671 7110
L9877 7110
" />
<path d="M9671 7669
L9877 7669
" />
</g>
<g style="fill:#008484; fill-opacity:0.0; 
stroke:#008484; stroke-width:59.0551; stroke-opacity:1; 
stroke-linecap:round; stroke-linejoin:round;">
<g transform="rotate(-90 29374.6 16490.4)">
<text x="29374.6" y="16687.2"
textLength="1348.33" font-size="524.934" lengthAdjust="spacingAndGlyphs"
text-anchor="middle" opacity="0">R30</text>
</g>
<path d="M29552 16743
L29365 16874
" />
<path d="M29552 16968
L29158 16968
L29158 16818
L29177 16780
L29196 16762
L29233 16743
L29290 16743
L29327 16762
L29346 16780
L29365 16818
L29365 16968
" />
<path d="M29158 16612
L29158 16368
L29308 16499
L29308 16443
L29327 16405
L29346 16387
L29383 16368
L29477 16368
L29515 16387
L29533 16405
L29552 16443
L29552 16555
L29533 16593
L29515 16612
" />
<path d="M29158 16124
L29158 16087
L29177 16049
L29196 16031
L29233 16012
L29308 15993
L29402 15993
L29477 16012
L29515 16031
L29533 16049
L29552 16087
L29552 16124
L29533 16162
L29515 16181
L29477 16199
L29402 16218
L29308 16218
L29233 16199
L29196 16181
L29177 16162
L29158 16124
" />
<g transform="rotate(-90 25174.6 16490.4)">
<text x="25174.6" y="16687.2"
textLength="1220.38" font-size="524.934" lengthAdjust="spacingAndGlyphs"
text-anchor="middle" opacity="0">R29</text>
</g>
<path d="M25352 16743
L25165 16874
" />
<path d="M25352 16968
L24958 16968
L24958 16818
L24977 16780
L24996 16762
L25033 16743
L25090 16743
L25127 16762
L25146 16780
L25165 16818
L25165 16968
" />
<path d="M24996 16593
L24977 16574
L24958 16537
L24958 16443
L24977 16405
L24996 16387
L25033 16368
L25071 16368
L25127 16387
L25352 16612
L25352 16368
" />
<path d="M25352 16181
L25352 16106
L25333 16068
L25315 16049
L25258 16012
L25183 15993
L25033 15993
L24996 16012
L24977 16031
L24958 16068
L24958 16143
L24977 16181
L24996 16199
L25033 16218
L25127 16218
L25165 16199
L25183 16181
L25202 16143
L25202 16068
L25183 16031
L25165 16012
L25127 15993
" />
<g transform="rotate(-90 24774.6 7790.35)">
<text x="24774.6" y="7987.2"
textLength="1220.38" font-size="524.934" lengthAdjust="spacingAndGlyphs"
text-anchor="middle" opacity="0">R28</text>
</g>
<path d="M24952 8043
L24765 8174
" />
<path d="M24952 8268
L24558 8268
L24558 8118
L24577 8080
L24596 8062
L24633 8043
L24690 8043
L24727 8062
L24746 8080
L24765 8118
L24765 8268
" />
<path d="M24596 7893
L24577 7874
L24558 7837
L24558 7743
L24577 7705
L24596 7687
L24633 7668
L24671 7668
L24727 7687
L24952 7912
L24952 7668
" />
<path d="M24727 7443
L24708 7481
L24690 7499
L24652 7518
L24633 7518
L24596 7499
L24577 7481
L24558 7443
L24558 7368
L24577 7331
L24596 7312
L24633 7293
L24652 7293
L24690 7312
L24708 7331
L24727 7368
L24727 7443
L24746 7481
L24765 7499
L24802 7518
L24877 7518
L24915 7499
L24933 7481
L24952 7443
L24952 7368
L24933 7331
L24915 7312
L24877 7293
L24802 7293
L24765 7312
L24746 7331
L24727 7368
" />
<g transform="rotate(-90 25574.6 7790.35)">
<text x="25574.6" y="7987.2"
textLength="1220.38" font-size="524.934" lengthAdjust="spacingAndGlyphs"
text-anchor="middle" opacity="0">R27</text>
</g>
<path d="M25752 8043
L25565 8174
" />
<path d="M25752 8268
L25358 8268
L25358 8118
L25377 8080
L25396 8062
L25433 8043
L25490 8043
L25527 8062
L25546 8080
L25565 8118
L25565 8268
" />
<path d="M25396 7893
L25377 7874
L25358 7837
L25358 7743
L25377 7705
L25396 7687
L25433 7668
L25471 7668
L25527 7687
L25752 7912
L25752 7668
" />
<path d="M25358 7537
L25358 7274
L25752 7443
" />
<g transform="rotate(-90 20974.6 16490.4)">
<text x="20974.6" y="16687.2"
textLength="1220.38" font-size="524.934" lengthAdjust="spacingAndGlyphs"
text-anchor="middle" opacity="0">R26</text>
</g>
<path d="M21152 16743
L20965 16874
" />
<path d="M21152 16968
L20758 16968
L20758 16818
L20777 16780
L20796 16762
L20833 16743
L20890 16743
L20927 16762
L20946 16780
L20965 16818
L20965 16968
" />
<path d="M20796 16593
L20777 16574
L20758 16537
L20758 16443
L20777 16405
L20796 16387
L20833 16368
L20871 16368
L20927 16387
L21152 16612
L21152 16368
" />
<path d="M20758 16031
L20758 16106
L20777 16143
L20796 16162
L20852 16199
L20927 16218
L21077 16218
L21115 16199
L21133 16181
L21152 16143
L21152 16068
L21133 16031
L21115 16012
L21077 15993
L20983 15993
L20946 16012
L20927 16031
L20908 16068
L20908 16143
L20927 16181
L20946 16199
L20983 16218
" />
<g transform="rotate(-90 26374.6 7790.35)">
<text x="26374.6" y="7987.2"
textLength="1220.38" font-size="524.934" lengthAdjust="spacingAndGlyphs"
text-anchor="middle" opacity="0">R25</text>
</g>
<path d="M26552 8043
L26365 8174
" />
<path d="M26552 8268
L26158 8268
L26158 8118
L26177 8080
L26196 8062
L26233 8043
L26290 8043
L26327 8062
L26346 8080
L26365 8118
L26365 8268
" />
<path d="M26196 7893
L26177 7874
L26158 7837
L26158 7743
L26177 7705
L26196 7687
L26233 7668
L26271 7668
L26327 7687
L26552 7912
L26552 7668
" />
<path d="M26158 7312
L26158 7499
L26346 7518
L26327 7499
L26308 7462
L26308 7368
L26327 7331
L26346 7312
L26383 7293
L26477 7293
L26515 7312
L26533 7331
L26552 7368
L26552 7462
L26533 7499
L26515 7518
" />
<g transform="rotate(-90 26241.9 4490.35)">
<text x="26241.9" y="4687.2"
textLength="751.687" font-size="524.934" lengthAdjust="spacingAndGlyphs"
text-anchor="middle" opacity="0">J3</text>
</g>
<path d="M26026 4621
L26307 4621
L26363 4640
L26401 4677
L26420 4734
L26420 4771
" />
<path d="M26026 4471
L26026 4227
L26176 4359
L26176 4302
L26195 4265
L26213 4246
L26251 4227
L26345 4227
L26382 4246
L26401 4265
L26420 4302
L26420 4415
L26401 4452
L26382 4471
" />
<g transform="rotate(-90 19174.6 5590.35)">
<text x="19174.6" y="5787.2"
textLength="864.173" font-size="524.934" lengthAdjust="spacingAndGlyphs"
text-anchor="middle" opacity="0">U2</text>
</g>
<path d="M18958 5890
L19277 5890
L19315 5871
L19333 5852
L19352 5815
L19352 5740
L19333 5702
L19315 5684
L19277 5665
L18958 5665
" />
<path d="M18996 5496
L18977 5477
L18958 5440
L18958 5346
L18977 5309
L18996 5290
L19033 5271
L19071 5271
L19127 5290
L19352 5515
L19352 5271
" />
<g transform="rotate(-90 15374.6 9990.35)">
<text x="15374.6" y="10187.2"
textLength="864.173" font-size="524.934" lengthAdjust="spacingAndGlyphs"
text-anchor="middle" opacity="0">U1</text>
</g>
<path d="M15158 10290
L15477 10290
L15515 10271
L15533 10252
L15552 10215
L15552 10140
L15533 10102
L15515 10084
L15477 10065
L15158 10065
" />
<path d="M15552 9671
L15552 9896
" />
<path d="M15552 9784
L15158 9784
L15215 9821
L15252 9859
L15271 9896
" />
<g transform="rotate(-90 7154.12 5390.35)">
<text x="7154.12" y="5587.2"
textLength="1651.57" font-size="524.934" lengthAdjust="spacingAndGlyphs"
text-anchor="middle" opacity="0">SW10</text>
</g>
<path d="M7313 6102
L7332 6046
L7332 5952
L7313 5915
L7294 5896
L7257 5877
L7219 5877
L7182 5896
L7163 5915
L7144 5952
L7126 6027
L7107 6065
L7088 6084
L7051 6102
L7013 6102
L6976 6084
L6957 6065
L6938 6027
L6938 5934
L6957 5877
" />
<path d="M6938 5746
L7332 5652
L7051 5577
L7332 5502
L6938 5409
" />
<path d="M7332 5052
L7332 5277
" />
<path d="M7332 5165
L6938 5165
L6994 5202
L7032 5240
L7051 5277
" />
<path d="M6938 4809
L6938 4771
L6957 4734
L6976 4715
L7013 4696
L7088 4677
L7182 4677
L7257 4696
L7294 4715
L7313 4734
L7332 4771
L7332 4809
L7313 4846
L7294 4865
L7257 4884
L7182 4902
L7088 4902
L7013 4884
L6976 4865
L6957 4846
L6938 4809
" />
<g transform="rotate(-90 28795.1 5390.35)">
<text x="28795.1" y="5587.2"
textLength="1276.62" font-size="524.934" lengthAdjust="spacingAndGlyphs"
text-anchor="middle" opacity="0">SW9</text>
</g>
<path d="M28954 5915
L28973 5859
L28973 5765
L28954 5727
L28935 5709
L28898 5690
L28860 5690
L28823 5709
L28804 5727
L28785 5765
L28766 5840
L28748 5877
L28729 5896
L28691 5915
L28654 5915
L28616 5896
L28598 5877
L28579 5840
L28579 5746
L28598 5690
" />
<path d="M28579 5559
L28973 5465
L28691 5390
L28973 5315
L28579 5221
" />
<path d="M28973 5052
L28973 4977
L28954 4940
L28935 4921
L28879 4884
L28804 4865
L28654 4865
L28616 4884
L28598 4902
L28579 4940
L28579 5015
L28598 5052
L28616 5071
L28654 5090
L28748 5090
L28785 5071
L28804 5052
L28823 5015
L28823 4940
L28804 4902
L28785 4884
L28748 4865
" />
<g transform="rotate(-90 27577 13348.6)">
<text x="27577" y="13545.5"
textLength="1276.62" font-size="524.934" lengthAdjust="spacingAndGlyphs"
text-anchor="middle" opacity="0">SW8</text>
</g>
<path d="M27736 13873
L27755 13817
L27755 13723
L27736 13686
L27717 13667
L27680 13648
L27642 13648
L27605 13667
L27586 13686
L27567 13723
L27548 13798
L27530 13836
L27511 13854
L27473 13873
L27436 13873
L27398 13854
L27380 13836
L27361 13798
L27361 13704
L27380 13648
" />
<path d="M27361 13517
L27755 13423
L27473 13348
L27755 13273
L27361 13179
" />
<path d="M27530 12973
L27511 13011
L27492 13029
L27455 13048
L27436 13048
L27398 13029
L27380 13011
L27361 12973
L27361 12898
L27380 12861
L27398 12842
L27436 12823
L27455 12823
L27492 12842
L27511 12861
L27530 12898
L27530 12973
L27548 13011
L27567 13029
L27605 13048
L27680 13048
L27717 13029
L27736 13011
L27755 12973
L27755 12898
L27736 12861
L27717 12842
L27680 12823
L27605 12823
L27567 12842
L27548 12861
L27530 12898
" />
<g transform="rotate(-90 24077 13348.6)">
<text x="24077" y="13545.5"
textLength="1276.62" font-size="524.934" lengthAdjust="spacingAndGlyphs"
text-anchor="middle" opacity="0">SW7</text>
</g>
<path d="M24236 13873
L24255 13817
L24255 13723
L24236 13686
L24217 13667
L24180 13648
L24142 13648
L24105 13667
L24086 13686
L24067 13723
L24048 13798
L24030 13836
L24011 13854
L23973 13873
L23936 13873
L23898 13854
L23880 13836
L23861 13798
L23861 13704
L23880 13648
" />
<path d="M23861 13517
L24255 13423
L23973 13348
L24255 13273
L23861 13179
" />
<path d="M23861 13067
L23861 12804
L24255 12973
" />
<g transform="rotate(-90 20577 13348.6)">
<text x="20577" y="13545.5"
textLength="1276.62" font-size="524.934" lengthAdjust="spacingAndGlyphs"
text-anchor="middle" opacity="0">SW6</text>
</g>
<path d="M20736 13873
L20755 13817
L20755 13723
L20736 13686
L20717 13667
L20680 13648
L20642 13648
L20605 13667
L20586 13686
L20567 13723
L20548 13798
L20530 13836
L20511 13854
L20473 13873
L20436 13873
L20398 13854
L20380 13836
L20361 13798
L20361 13704
L20380 13648
" />
<path d="M20361 13517
L20755 13423
L20473 13348
L20755 13273
L20361 13179
" />
<path d="M20361 12861
L20361 12936
L20380 12973
L20398 12992
L20455 13029
L20530 13048
L20680 13048
L20717 13029
L20736 13011
L20755 12973
L20755 12898
L20736 12861
L20717 12842
L20680 12823
L20586 12823
L20548 12842
L20530 12861
L20511 12898
L20511 12973
L20530 13011
L20548 13029
L20586 13048
" />
<g transform="rotate(-90 17077 13348.6)">
<text x="17077" y="13545.5"
textLength="1276.62" font-size="524.934" lengthAdjust="spacingAndGlyphs"
text-anchor="middle" opacity="0">SW5</text>
</g>
<path d="M17236 13873
L17255 13817
L17255 13723
L17236 13686
L17217 13667
L17180 13648
L17142 13648
L17105 13667
L17086 13686
L17067 13723
L17048 13798
L17030 13836
L17011 13854
L16973 13873
L16936 13873
L16898 13854
L16880 13836
L16861 13798
L16861 13704
L16880 13648
" />
<path d="M16861 13517
L17255 13423
L16973 13348
L17255 13273
L16861 13179
" />
<path d="M16861 12842
L16861 13029
L17048 13048
L17030 13029
L17011 12992
L17011 12898
L17030 12861
L17048 12842
L17086 12823
L17180 12823
L17217 12842
L17236 12861
L17255 12898
L17255 12992
L17236 13029
L17217 13048
" />
<g transform="rotate(-90 13577 13348.6)">
<text x="13577" y="13545.5"
textLength="1276.62" font-size="524.934" lengthAdjust="spacingAndGlyphs"
text-anchor="middle" opacity="0">SW4</text>
</g>
<path d="M13736 13873
L13755 13817
L13755 13723
L13736 13686
L13717 13667
L13680 13648
L13642 13648
L13605 13667
L13586 13686
L13567 13723
L13548 13798
L13530 13836
L13511 13854
L13473 13873
L13436 13873
L13398 13854
L13380 13836
L13361 13798
L13361 13704
L13380 13648
" />
<path d="M13361 13517
L13755 13423
L13473 13348
L13755 13273
L13361 13179
" />
<path d="M13492 12861
L13755 12861
" />
<path d="M13342 12954
L13623 13048
L13623 12804
" />
<g transform="rotate(-90 10077 13348.6)">
<text x="10077" y="13545.5"
textLength="1276.62" font-size="524.934" lengthAdjust="spacingAndGlyphs"
text-anchor="middle" opacity="0">SW3</text>
</g>
<path d="M10236 13873
L10255 13817
L10255 13723
L10236 13686
L10217 13667
L10180 13648
L10142 13648
L10105 13667
L10086 13686
L10067 13723
L10048 13798
L10030 13836
L10011 13854
L9973 13873
L9936 13873
L9898 13854
L9880 13836
L9861 13798
L9861 13704
L9880 13648
" />
<path d="M9861 13517
L10255 13423
L9973 13348
L10255 13273
L9861 13179
" />
<path d="M9861 13067
L9861 12823
L10011 12954
L10011 12898
L10030 12861
L10048 12842
L10086 12823
L10180 12823
L10217 12842
L10236 12861
L10255 12898
L10255 13011
L10236 13048
L10217 13067
" />
<g transform="rotate(-90 6576.96 13348.6)">
<text x="6576.96" y="13545.5"
textLength="1276.62" font-size="524.934" lengthAdjust="spacingAndGlyphs"
text-anchor="middle" opacity="0">SW2</text>
</g>
<path d="M6736 13873
L6755 13817
L6755 13723
L6736 13686
L6717 13667
L6680 13648
L6642 13648
L6605 13667
L6586 13686
L6567 13723
L6548 13798
L6530 13836
L6511 13854
L6473 13873
L6436 13873
L6398 13854
L6380 13836
L6361 13798
L6361 13704
L6380 13648
" />
<path d="M6361 13517
L6755 13423
L6473 13348
L6755 13273
L6361 13179
" />
<path d="M6398 13048
L6380 13029
L6361 12992
L6361 12898
L6380 12861
L6398 12842
L6436 12823
L6473 12823
L6530 12842
L6755 13067
L6755 12823
" />
<g transform="rotate(-90 11974.6 8990.35)">
<text x="11974.6" y="9187.2"
textLength="1276.62" font-size="524.934" lengthAdjust="spacingAndGlyphs"
text-anchor="middle" opacity="0">SW1</text>
</g>
<path d="M12133 9515
L12152 9459
L12152 9365
L12133 9327
L12115 9309
L12077 9290
L12040 9290
L12002 9309
L11983 9327
L11965 9365
L11946 9440
L11927 9477
L11908 9496
L11871 9515
L11833 9515
L11796 9496
L11777 9477
L11758 9440
L11758 9346
L11777 9290
" />
<path d="M11758 9159
L12152 9065
L11871 8990
L12152 8915
L11758 8821
" />
<path d="M12152 8465
L12152 8690
" />
<path d="M12152 8577
L11758 8577
L11815 8615
L11852 8652
L11871 8690
" />
<g transform="rotate(-90 16774.6 16490.4)">
<text x="16774.6" y="16687.2"
textLength="1220.38" font-size="524.934" lengthAdjust="spacingAndGlyphs"
text-anchor="middle" opacity="0">R24</text>
</g>
<path d="M16952 16743
L16765 16874
" />
<path d="M16952 16968
L16558 16968
L16558 16818
L16577 16780
L16596 16762
L16633 16743
L16690 16743
L16727 16762
L16746 16780
L16765 16818
L16765 16968
" />
<path d="M16596 16593
L16577 16574
L16558 16537
L16558 16443
L16577 16405
L16596 16387
L16633 16368
L16671 16368
L16727 16387
L16952 16612
L16952 16368
" />
<path d="M16690 16031
L16952 16031
" />
<path d="M16540 16124
L16821 16218
L16821 15974
" />
<g transform="rotate(-90 12574.6 16490.4)">
<text x="12574.6" y="16687.2"
textLength="1220.38" font-size="524.934" lengthAdjust="spacingAndGlyphs"
text-anchor="middle" opacity="0">R23</text>
</g>
<path d="M12752 16743
L12565 16874
" />
<path d="M12752 16968
L12358 16968
L12358 16818
L12377 16780
L12396 16762
L12433 16743
L12490 16743
L12527 16762
L12546 16780
L12565 16818
L12565 16968
" />
<path d="M12396 16593
L12377 16574
L12358 16537
L12358 16443
L12377 16405
L12396 16387
L12433 16368
L12471 16368
L12527 16387
L12752 16612
L12752 16368
" />
<path d="M12358 16237
L12358 15993
L12508 16124
L12508 16068
L12527 16031
L12546 16012
L12583 15993
L12677 15993
L12715 16012
L12733 16031
L12752 16068
L12752 16181
L12733 16218
L12715 16237
" />
<g transform="rotate(-90 8374.6 16490.4)">
<text x="8374.6" y="16687.2"
textLength="1220.38" font-size="524.934" lengthAdjust="spacingAndGlyphs"
text-anchor="middle" opacity="0">R22</text>
</g>
<path d="M8552 16743
L8365 16874
" />
<path d="M8552 16968
L8158 16968
L8158 16818
L8177 16780
L8196 16762
L8233 16743
L8290 16743
L8327 16762
L8346 16780
L8365 16818
L8365 16968
" />
<path d="M8196 16593
L8177 16574
L8158 16537
L8158 16443
L8177 16405
L8196 16387
L8233 16368
L8271 16368
L8327 16387
L8552 16612
L8552 16368
" />
<path d="M8196 16218
L8177 16199
L8158 16162
L8158 16068
L8177 16031
L8196 16012
L8233 15993
L8271 15993
L8327 16012
L8552 16237
L8552 15993
" />
<g transform="rotate(-90 27574.6 16190.4)">
<text x="27574.6" y="16387.2"
textLength="864.173" font-size="524.934" lengthAdjust="spacingAndGlyphs"
text-anchor="middle" opacity="0">Q6</text>
</g>
<path d="M27790 16227
L27771 16265
L27733 16302
L27677 16359
L27658 16396
L27658 16434
" />
<path d="M27752 16415
L27733 16452
L27696 16490
L27621 16509
L27490 16509
L27415 16490
L27377 16452
L27358 16415
L27358 16340
L27377 16302
L27415 16265
L27490 16246
L27621 16246
L27696 16265
L27733 16302
L27752 16340
L27752 16415
" />
<path d="M27358 15909
L27358 15984
L27377 16021
L27396 16040
L27452 16077
L27527 16096
L27677 16096
L27715 16077
L27733 16059
L27752 16021
L27752 15946
L27733 15909
L27715 15890
L27677 15871
L27583 15871
L27546 15890
L27527 15909
L27508 15946
L27508 16021
L27527 16059
L27546 16077
L27583 16096
" />
<g transform="rotate(-90 23374.6 16190.4)">
<text x="23374.6" y="16387.2"
textLength="864.173" font-size="524.934" lengthAdjust="spacingAndGlyphs"
text-anchor="middle" opacity="0">Q5</text>
</g>
<path d="M23590 16227
L23571 16265
L23533 16302
L23477 16359
L23458 16396
L23458 16434
" />
<path d="M23552 16415
L23533 16452
L23496 16490
L23421 16509
L23290 16509
L23215 16490
L23177 16452
L23158 16415
L23158 16340
L23177 16302
L23215 16265
L23290 16246
L23421 16246
L23496 16265
L23533 16302
L23552 16340
L23552 16415
" />
<path d="M23158 15890
L23158 16077
L23346 16096
L23327 16077
L23308 16040
L23308 15946
L23327 15909
L23346 15890
L23383 15871
L23477 15871
L23515 15890
L23533 15909
L23552 15946
L23552 16040
L23533 16077
L23515 16096
" />
<g transform="rotate(-90 19174.6 16190.4)">
<text x="19174.6" y="16387.2"
textLength="864.173" font-size="524.934" lengthAdjust="spacingAndGlyphs"
text-anchor="middle" opacity="0">Q4</text>
</g>
<path d="M19390 16227
L19371 16265
L19333 16302
L19277 16359
L19258 16396
L19258 16434
" />
<path d="M19352 16415
L19333 16452
L19296 16490
L19221 16509
L19090 16509
L19015 16490
L18977 16452
L18958 16415
L18958 16340
L18977 16302
L19015 16265
L19090 16246
L19221 16246
L19296 16265
L19333 16302
L19352 16340
L19352 16415
" />
<path d="M19090 15909
L19352 15909
" />
<path d="M18940 16002
L19221 16096
L19221 15852
" />
<g transform="rotate(-90 14974.6 16190.4)">
<text x="14974.6" y="16387.2"
textLength="864.173" font-size="524.934" lengthAdjust="spacingAndGlyphs"
text-anchor="middle" opacity="0">Q3</text>
</g>
<path d="M15190 16227
L15171 16265
L15133 16302
L15077 16359
L15058 16396
L15058 16434
" />
<path d="M15152 16415
L15133 16452
L15096 16490
L15021 16509
L14890 16509
L14815 16490
L14777 16452
L14758 16415
L14758 16340
L14777 16302
L14815 16265
L14890 16246
L15021 16246
L15096 16265
L15133 16302
L15152 16340
L15152 16415
" />
<path d="M14758 16115
L14758 15871
L14908 16002
L14908 15946
L14927 15909
L14946 15890
L14983 15871
L15077 15871
L15115 15890
L15133 15909
L15152 15946
L15152 16059
L15133 16096
L15115 16115
" />
<g transform="rotate(-90 10774.6 16190.4)">
<text x="10774.6" y="16387.2"
textLength="864.173" font-size="524.934" lengthAdjust="spacingAndGlyphs"
text-anchor="middle" opacity="0">Q2</text>
</g>
<path d="M10990 16227
L10971 16265
L10933 16302
L10877 16359
L10858 16396
L10858 16434
" />
<path d="M10952 16415
L10933 16452
L10896 16490
L10821 16509
L10690 16509
L10615 16490
L10577 16452
L10558 16415
L10558 16340
L10577 16302
L10615 16265
L10690 16246
L10821 16246
L10896 16265
L10933 16302
L10952 16340
L10952 16415
" />
<path d="M10596 16096
L10577 16077
L10558 16040
L10558 15946
L10577 15909
L10596 15890
L10633 15871
L10671 15871
L10727 15890
L10952 16115
L10952 15871
" />
<g transform="rotate(-90 6574.6 16190.4)">
<text x="6574.6" y="16387.2"
textLength="864.173" font-size="524.934" lengthAdjust="spacingAndGlyphs"
text-anchor="middle" opacity="0">Q1</text>
</g>
<path d="M6790 16227
L6771 16265
L6733 16302
L6677 16359
L6658 16396
L6658 16434
" />
<path d="M6752 16415
L6733 16452
L6696 16490
L6621 16509
L6490 16509
L6415 16490
L6377 16452
L6358 16415
L6358 16340
L6377 16302
L6415 16265
L6490 16246
L6621 16246
L6696 16265
L6733 16302
L6752 16340
L6752 16415
" />
<path d="M6752 15871
L6752 16096
" />
<path d="M6752 15984
L6358 15984
L6415 16021
L6452 16059
L6471 16096
" />
<g transform="rotate(-90 9607.27 4490.35)">
<text x="9607.27" y="4687.2"
textLength="751.687" font-size="524.934" lengthAdjust="spacingAndGlyphs"
text-anchor="middle" opacity="0">J4</text>
</g>
<path d="M9391 4621
L9672 4621
L9729 4640
L9766 4677
L9785 4734
L9785 4771
" />
<path d="M9522 4265
L9785 4265
" />
<path d="M9372 4359
L9654 4452
L9654 4209
" />
<g transform="rotate(-90 6374.6 10990.4)">
<text x="6374.6" y="11187.2"
textLength="751.687" font-size="524.934" lengthAdjust="spacingAndGlyphs"
text-anchor="middle" opacity="0">J2</text>
</g>
<path d="M6158 11121
L6440 11121
L6496 11140
L6533 11177
L6552 11234
L6552 11271
" />
<path d="M6196 10952
L6177 10934
L6158 10896
L6158 10802
L6177 10765
L6196 10746
L6233 10727
L6271 10727
L6327 10746
L6552 10971
L6552 10727
" />
<g transform="rotate(-90 13057.3 4440.35)">
<text x="13057.3" y="4637.2"
textLength="751.687" font-size="524.934" lengthAdjust="spacingAndGlyphs"
text-anchor="middle" opacity="0">J1</text>
</g>
<path d="M12841 4571
L13122 4571
L13179 4590
L13216 4627
L13235 4684
L13235 4721
" />
<path d="M13235 4177
L13235 4402
" />
<path d="M13235 4290
L12841 4290
L12897 4327
L12935 4365
L12954 4402
" />
<g transform="rotate(-90 29774.6 32390.4)">
<text x="29774.6" y="32587.2"
textLength="1220.38" font-size="524.934" lengthAdjust="spacingAndGlyphs"
text-anchor="middle" opacity="0">D43</text>
</g>
<path d="M29952 32868
L29558 32868
L29558 32774
L29577 32718
L29615 32680
L29652 32662
L29727 32643
L29783 32643
L29858 32662
L29896 32680
L29933 32718
L29952 32774
L29952 32868
" />
<path d="M29690 32305
L29952 32305
" />
<path d="M29540 32399
L29821 32493
L29821 32249
" />
<path d="M29558 32137
L29558 31893
L29708 32024
L29708 31968
L29727 31931
L29746 31912
L29783 31893
L29877 31893
L29915 31912
L29933 31931
L29952 31968
L29952 32081
L29933 32118
L29915 32137
" />
<g transform="rotate(-90 26174.6 32390.4)">
<text x="26174.6" y="32587.2"
textLength="1220.38" font-size="524.934" lengthAdjust="spacingAndGlyphs"
text-anchor="middle" opacity="0">D42</text>
</g>
<path d="M26352 32868
L25958 32868
L25958 32774
L25977 32718
L26015 32680
L26052 32662
L26127 32643
L26183 32643
L26258 32662
L26296 32680
L26333 32718
L26352 32774
L26352 32868
" />
<path d="M26090 32305
L26352 32305
" />
<path d="M25940 32399
L26221 32493
L26221 32249
" />
<path d="M25996 32118
L25977 32099
L25958 32062
L25958 31968
L25977 31931
L25996 31912
L26033 31893
L26071 31893
L26127 31912
L26352 32137
L26352 31893
" />
<g transform="rotate(-90 22774.6 32390.4)">
<text x="22774.6" y="32587.2"
textLength="1220.38" font-size="524.934" lengthAdjust="spacingAndGlyphs"
text-anchor="middle" opacity="0">D41</text>
</g>
<path d="M22952 32868
L22558 32868
L22558 32774
L22577 32718
L22615 32680
L22652 32662
L22727 32643
L22783 32643
L22858 32662
L22896 32680
L22933 32718
L22952 32774
L22952 32868
" />
<path d="M22690 32305
L22952 32305
" />
<path d="M22540 32399
L22821 32493
L22821 32249
" />
<path d="M22952 31893
L22952 32118
" />
<path d="M22952 32006
L22558 32006
L22615 32043
L22652 32081
L22671 32118
" />
<g transform="rotate(-90 19174.6 32390.4)">
<text x="19174.6" y="32587.2"
textLength="1220.38" font-size="524.934" lengthAdjust="spacingAndGlyphs"
text-anchor="middle" opacity="0">D40</text>
</g>
<path d="M19352 32868
L18958 32868
L18958 32774
L18977 32718
L19015 32680
L19052 32662
L19127 32643
L19183 32643
L19258 32662
L19296 32680
L19333 32718
L19352 32774
L19352 32868
" />
<path d="M19090 32305
L19352 32305
" />
<path d="M18940 32399
L19221 32493
L19221 32249
" />
<path d="M18958 32024
L18958 31987
L18977 31949
L18996 31931
L19033 31912
L19108 31893
L19202 31893
L19277 31912
L19315 31931
L19333 31949
L19352 31987
L19352 32024
L19333 32062
L19315 32081
L19277 32099
L19202 32118
L19108 32118
L19033 32099
L18996 32081
L18977 32062
L18958 32024
" />
<g transform="rotate(-90 15774.6 32390.4)">
<text x="15774.6" y="32587.2"
textLength="1220.38" font-size="524.934" lengthAdjust="spacingAndGlyphs"
text-anchor="middle" opacity="0">D39</text>
</g>
<path d="M15952 32868
L15558 32868
L15558 32774
L15577 32718
L15615 32680
L15652 32662
L15727 32643
L15783 32643
L15858 32662
L15896 32680
L15933 32718
L15952 32774
L15952 32868
" />
<path d="M15558 32512
L15558 32268
L15708 32399
L15708 32343
L15727 32305
L15746 32287
L15783 32268
L15877 32268
L15915 32287
L15933 32305
L15952 32343
L15952 32455
L15933 32493
L15915 32512
" />
<path d="M15952 32081
L15952 32006
L15933 31968
L15915 31949
L15858 31912
L15783 31893
L15633 31893
L15596 31912
L15577 31931
L15558 31968
L15558 32043
L15577 32081
L15596 32099
L15633 32118
L15727 32118
L15765 32099
L15783 32081
L15802 32043
L15802 31968
L15783 31931
L15765 31912
L15727 31893
" />
<g transform="rotate(-90 12174.6 32390.4)">
<text x="12174.6" y="32587.2"
textLength="1220.38" font-size="524.934" lengthAdjust="spacingAndGlyphs"
text-anchor="middle" opacity="0">D38</text>
</g>
<path d="M12352 32868
L11958 32868
L11958 32774
L11977 32718
L12015 32680
L12052 32662
L12127 32643
L12183 32643
L12258 32662
L12296 32680
L12333 32718
L12352 32774
L12352 32868
" />
<path d="M11958 32512
L11958 32268
L12108 32399
L12108 32343
L12127 32305
L12146 32287
L12183 32268
L12277 32268
L12315 32287
L12333 32305
L12352 32343
L12352 32455
L12333 32493
L12315 32512
" />
<path d="M12127 32043
L12108 32081
L12090 32099
L12052 32118
L12033 32118
L11996 32099
L11977 32081
L11958 32043
L11958 31968
L11977 31931
L11996 31912
L12033 31893
L12052 31893
L12090 31912
L12108 31931
L12127 31968
L12127 32043
L12146 32081
L12165 32099
L12202 32118
L12277 32118
L12315 32099
L12333 32081
L12352 32043
L12352 31968
L12333 31931
L12315 31912
L12277 31893
L12202 31893
L12165 31912
L12146 31931
L12127 31968
" />
<g transform="rotate(-90 8774.6 32390.4)">
<text x="8774.6" y="32587.2"
textLength="1220.38" font-size="524.934" lengthAdjust="spacingAndGlyphs"
text-anchor="middle" opacity="0">D37</text>
</g>
<path d="M8952 32868
L8558 32868
L8558 32774
L8577 32718
L8615 32680
L8652 32662
L8727 32643
L8783 32643
L8858 32662
L8896 32680
L8933 32718
L8952 32774
L8952 32868
" />
<path d="M8558 32512
L8558 32268
L8708 32399
L8708 32343
L8727 32305
L8746 32287
L8783 32268
L8877 32268
L8915 32287
L8933 32305
L8952 32343
L8952 32455
L8933 32493
L8915 32512
" />
<path d="M8558 32137
L8558 31874
L8952 32043
" />
<g transform="rotate(-90 29774.6 29390.4)">
<text x="29774.6" y="29587.2"
textLength="1220.38" font-size="524.934" lengthAdjust="spacingAndGlyphs"
text-anchor="middle" opacity="0">D36</text>
</g>
<path d="M29952 29868
L29558 29868
L29558 29774
L29577 29718
L29615 29680
L29652 29662
L29727 29643
L29783 29643
L29858 29662
L29896 29680
L29933 29718
L29952 29774
L29952 29868
" />
<path d="M29558 29512
L29558 29268
L29708 29399
L29708 29343
L29727 29305
L29746 29287
L29783 29268
L29877 29268
L29915 29287
L29933 29305
L29952 29343
L29952 29455
L29933 29493
L29915 29512
" />
<path d="M29558 28931
L29558 29006
L29577 29043
L29596 29062
L29652 29099
L29727 29118
L29877 29118
L29915 29099
L29933 29081
L29952 29043
L29952 28968
L29933 28931
L29915 28912
L29877 28893
L29783 28893
L29746 28912
L29727 28931
L29708 28968
L29708 29043
L29727 29081
L29746 29099
L29783 29118
" />
<g transform="rotate(-90 26174.6 29390.4)">
<text x="26174.6" y="29587.2"
textLength="1220.38" font-size="524.934" lengthAdjust="spacingAndGlyphs"
text-anchor="middle" opacity="0">D35</text>
</g>
<path d="M26352 29868
L25958 29868
L25958 29774
L25977 29718
L26015 29680
L26052 29662
L26127 29643
L26183 29643
L26258 29662
L26296 29680
L26333 29718
L26352 29774
L26352 29868
" />
<path d="M25958 29512
L25958 29268
L26108 29399
L26108 29343
L26127 29305
L26146 29287
L26183 29268
L26277 29268
L26315 29287
L26333 29305
L26352 29343
L26352 29455
L26333 29493
L26315 29512
" />
<path d="M25958 28912
L25958 29099
L26146 29118
L26127 29099
L26108 29062
L26108 28968
L26127 28931
L26146 28912
L26183 28893
L26277 28893
L26315 28912
L26333 28931
L26352 28968
L26352 29062
L26333 29099
L26315 29118
" />
<g transform="rotate(-90 22774.6 29390.4)">
<text x="22774.6" y="29587.2"
textLength="1220.38" font-size="524.934" lengthAdjust="spacingAndGlyphs"
text-anchor="middle" opacity="0">D34</text>
</g>
<path d="M22952 29868
L22558 29868
L22558 29774
L22577 29718
L22615 29680
L22652 29662
L22727 29643
L22783 29643
L22858 29662
L22896 29680
L22933 29718
L22952 29774
L22952 29868
" />
<path d="M22558 29512
L22558 29268
L22708 29399
L22708 29343
L22727 29305
L22746 29287
L22783 29268
L22877 29268
L22915 29287
L22933 29305
L22952 29343
L22952 29455
L22933 29493
L22915 29512
" />
<path d="M22690 28931
L22952 28931
" />
<path d="M22540 29024
L22821 29118
L22821 28874
" />
<g transform="rotate(-90 19174.6 29390.4)">
<text x="19174.6" y="29587.2"
textLength="1220.38" font-size="524.934" lengthAdjust="spacingAndGlyphs"
text-anchor="middle" opacity="0">D33</text>
</g>
<path d="M19352 29868
L18958 29868
L18958 29774
L18977 29718
L19015 29680
L19052 29662
L19127 29643
L19183 29643
L19258 29662
L19296 29680
L19333 29718
L19352 29774
L19352 29868
" />
<path d="M18958 29512
L18958 29268
L19108 29399
L19108 29343
L19127 29305
L19146 29287
L19183 29268
L19277 29268
L19315 29287
L19333 29305
L19352 29343
L19352 29455
L19333 29493
L19315 29512
" />
<path d="M18958 29137
L18958 28893
L19108 29024
L19108 28968
L19127 28931
L19146 28912
L19183 28893
L19277 28893
L19315 28912
L19333 28931
L19352 28968
L19352 29081
L19333 29118
L19315 29137
" />
<g transform="rotate(-90 15774.6 29390.4)">
<text x="15774.6" y="29587.2"
textLength="1220.38" font-size="524.934" lengthAdjust="spacingAndGlyphs"
text-anchor="middle" opacity="0">D32</text>
</g>
<path d="M15952 29868
L15558 29868
L15558 29774
L15577 29718
L15615 29680
L15652 29662
L15727 29643
L15783 29643
L15858 29662
L15896 29680
L15933 29718
L15952 29774
L15952 29868
" />
<path d="M15558 29512
L15558 29268
L15708 29399
L15708 29343
L15727 29305
L15746 29287
L15783 29268
L15877 29268
L15915 29287
L15933 29305
L15952 29343
L15952 29455
L15933 29493
L15915 29512
" />
<path d="M15596 29118
L15577 29099
L15558 29062
L15558 28968
L15577 28931
L15596 28912
L15633 28893
L15671 28893
L15727 28912
L15952 29137
L15952 28893
" />
<g transform="rotate(-90 12174.6 29390.4)">
<text x="12174.6" y="29587.2"
textLength="1220.38" font-size="524.934" lengthAdjust="spacingAndGlyphs"
text-anchor="middle" opacity="0">D31</text>
</g>
<path d="M12352 29868
L11958 29868
L11958 29774
L11977 29718
L12015 29680
L12052 29662
L12127 29643
L12183 29643
L12258 29662
L12296 29680
L12333 29718
L12352 29774
L12352 29868
" />
<path d="M11958 29512
L11958 29268
L12108 29399
L12108 29343
L12127 29305
L12146 29287
L12183 29268
L12277 29268
L12315 29287
L12333 29305
L12352 29343
L12352 29455
L12333 29493
L12315 29512
" />
<path d="M12352 28893
L12352 29118
" />
<path d="M12352 29006
L11958 29006
L12015 29043
L12052 29081
L12071 29118
" />
<g transform="rotate(-90 8774.6 29390.4)">
<text x="8774.6" y="29587.2"
textLength="1220.38" font-size="524.934" lengthAdjust="spacingAndGlyphs"
text-anchor="middle" opacity="0">D30</text>
</g>
<path d="M8952 29868
L8558 29868
L8558 29774
L8577 29718
L8615 29680
L8652 29662
L8727 29643
L8783 29643
L8858 29662
L8896 29680
L8933 29718
L8952 29774
L8952 29868
" />
<path d="M8558 29512
L8558 29268
L8708 29399
L8708 29343
L8727 29305
L8746 29287
L8783 29268
L8877 29268
L8915 29287
L8933 29305
L8952 29343
L8952 29455
L8933 29493
L8915 29512
" />
<path d="M8558 29024
L8558 28987
L8577 28949
L8596 28931
L8633 28912
L8708 28893
L8802 28893
L8877 28912
L8915 28931
L8933 28949
L8952 28987
L8952 29024
L8933 29062
L8915 29081
L8877 29099
L8802 29118
L8708 29118
L8633 29099
L8596 29081
L8577 29062
L8558 29024
" />
<g transform="rotate(-90 29774.6 26390.4)">
<text x="29774.6" y="26587.2"
textLength="1220.38" font-size="524.934" lengthAdjust="spacingAndGlyphs"
text-anchor="middle" opacity="0">D29</text>
</g>
<path d="M29952 26868
L29558 26868
L29558 26774
L29577 26718
L29615 26680
L29652 26662
L29727 26643
L29783 26643
L29858 26662
L29896 26680
L29933 26718
L29952 26774
L29952 26868
" />
<path d="M29596 26493
L29577 26474
L29558 26437
L29558 26343
L29577 26305
L29596 26287
L29633 26268
L29671 26268
L29727 26287
L29952 26512
L29952 26268
" />
<path d="M29952 26081
L29952 26006
L29933 25968
L29915 25949
L29858 25912
L29783 25893
L29633 25893
L29596 25912
L29577 25931
L29558 25968
L29558 26043
L29577 26081
L29596 26099
L29633 26118
L29727 26118
L29765 26099
L29783 26081
L29802 26043
L29802 25968
L29783 25931
L29765 25912
L29727 25893
" />
<g transform="rotate(-90 26174.6 26390.4)">
<text x="26174.6" y="26587.2"
textLength="1220.38" font-size="524.934" lengthAdjust="spacingAndGlyphs"
text-anchor="middle" opacity="0">D28</text>
</g>
<path d="M26352 26868
L25958 26868
L25958 26774
L25977 26718
L26015 26680
L26052 26662
L26127 26643
L26183 26643
L26258 26662
L26296 26680
L26333 26718
L26352 26774
L26352 26868
" />
<path d="M25996 26493
L25977 26474
L25958 26437
L25958 26343
L25977 26305
L25996 26287
L26033 26268
L26071 26268
L26127 26287
L26352 26512
L26352 26268
" />
<path d="M26127 26043
L26108 26081
L26090 26099
L26052 26118
L26033 26118
L25996 26099
L25977 26081
L25958 26043
L25958 25968
L25977 25931
L25996 25912
L26033 25893
L26052 25893
L26090 25912
L26108 25931
L26127 25968
L26127 26043
L26146 26081
L26165 26099
L26202 26118
L26277 26118
L26315 26099
L26333 26081
L26352 26043
L26352 25968
L26333 25931
L26315 25912
L26277 25893
L26202 25893
L26165 25912
L26146 25931
L26127 25968
" />
<g transform="rotate(-90 22774.6 26390.4)">
<text x="22774.6" y="26587.2"
textLength="1220.38" font-size="524.934" lengthAdjust="spacingAndGlyphs"
text-anchor="middle" opacity="0">D27</text>
</g>
<path d="M22952 26868
L22558 26868
L22558 26774
L22577 26718
L22615 26680
L22652 26662
L22727 26643
L22783 26643
L22858 26662
L22896 26680
L22933 26718
L22952 26774
L22952 26868
" />
<path d="M22596 26493
L22577 26474
L22558 26437
L22558 26343
L22577 26305
L22596 26287
L22633 26268
L22671 26268
L22727 26287
L22952 26512
L22952 26268
" />
<path d="M22558 26137
L22558 25874
L22952 26043
" />
<g transform="rotate(-90 19174.6 26390.4)">
<text x="19174.6" y="26587.2"
textLength="1220.38" font-size="524.934" lengthAdjust="spacingAndGlyphs"
text-anchor="middle" opacity="0">D26</text>
</g>
<path d="M19352 26868
L18958 26868
L18958 26774
L18977 26718
L19015 26680
L19052 26662
L19127 26643
L19183 26643
L19258 26662
L19296 26680
L19333 26718
L19352 26774
L19352 26868
" />
<path d="M18996 26493
L18977 26474
L18958 26437
L18958 26343
L18977 26305
L18996 26287
L19033 26268
L19071 26268
L19127 26287
L19352 26512
L19352 26268
" />
<path d="M18958 25931
L18958 26006
L18977 26043
L18996 26062
L19052 26099
L19127 26118
L19277 26118
L19315 26099
L19333 26081
L19352 26043
L19352 25968
L19333 25931
L19315 25912
L19277 25893
L19183 25893
L19146 25912
L19127 25931
L19108 25968
L19108 26043
L19127 26081
L19146 26099
L19183 26118
" />
<g transform="rotate(-90 15774.6 26390.4)">
<text x="15774.6" y="26587.2"
textLength="1220.38" font-size="524.934" lengthAdjust="spacingAndGlyphs"
text-anchor="middle" opacity="0">D25</text>
</g>
<path d="M15952 26868
L15558 26868
L15558 26774
L15577 26718
L15615 26680
L15652 26662
L15727 26643
L15783 26643
L15858 26662
L15896 26680
L15933 26718
L15952 26774
L15952 26868
" />
<path d="M15596 26493
L15577 26474
L15558 26437
L15558 26343
L15577 26305
L15596 26287
L15633 26268
L15671 26268
L15727 26287
L15952 26512
L15952 26268
" />
<path d="M15558 25912
L15558 26099
L15746 26118
L15727 26099
L15708 26062
L15708 25968
L15727 25931
L15746 25912
L15783 25893
L15877 25893
L15915 25912
L15933 25931
L15952 25968
L15952 26062
L15933 26099
L15915 26118
" />
<g transform="rotate(-90 12174.6 26390.4)">
<text x="12174.6" y="26587.2"
textLength="1220.38" font-size="524.934" lengthAdjust="spacingAndGlyphs"
text-anchor="middle" opacity="0">D24</text>
</g>
<path d="M12352 26868
L11958 26868
L11958 26774
L11977 26718
L12015 26680
L12052 26662
L12127 26643
L12183 26643
L12258 26662
L12296 26680
L12333 26718
L12352 26774
L12352 26868
" />
<path d="M11996 26493
L11977 26474
L11958 26437
L11958 26343
L11977 26305
L11996 26287
L12033 26268
L12071 26268
L12127 26287
L12352 26512
L12352 26268
" />
<path d="M12090 25931
L12352 25931
" />
<path d="M11940 26024
L12221 26118
L12221 25874
" />
<g transform="rotate(-90 8774.6 26390.4)">
<text x="8774.6" y="26587.2"
textLength="1220.38" font-size="524.934" lengthAdjust="spacingAndGlyphs"
text-anchor="middle" opacity="0">D23</text>
</g>
<path d="M8952 26868
L8558 26868
L8558 26774
L8577 26718
L8615 26680
L8652 26662
L8727 26643
L8783 26643
L8858 26662
L8896 26680
L8933 26718
L8952 26774
L8952 26868
" />
<path d="M8596 26493
L8577 26474
L8558 26437
L8558 26343
L8577 26305
L8596 26287
L8633 26268
L8671 26268
L8727 26287
L8952 26512
L8952 26268
" />
<path d="M8558 26137
L8558 25893
L8708 26024
L8708 25968
L8727 25931
L8746 25912
L8783 25893
L8877 25893
L8915 25912
L8933 25931
L8952 25968
L8952 26081
L8933 26118
L8915 26137
" />
<g transform="rotate(-90 29774.6 23390.4)">
<text x="29774.6" y="23587.2"
textLength="1220.38" font-size="524.934" lengthAdjust="spacingAndGlyphs"
text-anchor="middle" opacity="0">D22</text>
</g>
<path d="M29952 23868
L29558 23868
L29558 23774
L29577 23718
L29615 23680
L29652 23662
L29727 23643
L29783 23643
L29858 23662
L29896 23680
L29933 23718
L29952 23774
L29952 23868
" />
<path d="M29596 23493
L29577 23474
L29558 23437
L29558 23343
L29577 23305
L29596 23287
L29633 23268
L29671 23268
L29727 23287
L29952 23512
L29952 23268
" />
<path d="M29596 23118
L29577 23099
L29558 23062
L29558 22968
L29577 22931
L29596 22912
L29633 22893
L29671 22893
L29727 22912
L29952 23137
L29952 22893
" />
<g transform="rotate(-90 26174.6 23390.4)">
<text x="26174.6" y="23587.2"
textLength="1220.38" font-size="524.934" lengthAdjust="spacingAndGlyphs"
text-anchor="middle" opacity="0">D21</text>
</g>
<path d="M26352 23868
L25958 23868
L25958 23774
L25977 23718
L26015 23680
L26052 23662
L26127 23643
L26183 23643
L26258 23662
L26296 23680
L26333 23718
L26352 23774
L26352 23868
" />
<path d="M25996 23493
L25977 23474
L25958 23437
L25958 23343
L25977 23305
L25996 23287
L26033 23268
L26071 23268
L26127 23287
L26352 23512
L26352 23268
" />
<path d="M26352 22893
L26352 23118
" />
<path d="M26352 23006
L25958 23006
L26015 23043
L26052 23081
L26071 23118
" />
<g transform="rotate(-90 22774.6 23390.4)">
<text x="22774.6" y="23587.2"
textLength="1220.38" font-size="524.934" lengthAdjust="spacingAndGlyphs"
text-anchor="middle" opacity="0">D20</text>
</g>
<path d="M22952 23868
L22558 23868
L22558 23774
L22577 23718
L22615 23680
L22652 23662
L22727 23643
L22783 23643
L22858 23662
L22896 23680
L22933 23718
L22952 23774
L22952 23868
" />
<path d="M22596 23493
L22577 23474
L22558 23437
L22558 23343
L22577 23305
L22596 23287
L22633 23268
L22671 23268
L22727 23287
L22952 23512
L22952 23268
" />
<path d="M22558 23024
L22558 22987
L22577 22949
L22596 22931
L22633 22912
L22708 22893
L22802 22893
L22877 22912
L22915 22931
L22933 22949
L22952 22987
L22952 23024
L22933 23062
L22915 23081
L22877 23099
L22802 23118
L22708 23118
L22633 23099
L22596 23081
L22577 23062
L22558 23024
" />
<g transform="rotate(-90 19174.6 23390.4)">
<text x="19174.6" y="23587.2"
textLength="1220.38" font-size="524.934" lengthAdjust="spacingAndGlyphs"
text-anchor="middle" opacity="0">D19</text>
</g>
<path d="M19352 23868
L18958 23868
L18958 23774
L18977 23718
L19015 23680
L19052 23662
L19127 23643
L19183 23643
L19258 23662
L19296 23680
L19333 23718
L19352 23774
L19352 23868
" />
<path d="M19352 23268
L19352 23493
" />
<path d="M19352 23380
L18958 23380
L19015 23418
L19052 23455
L19071 23493
" />
<path d="M19352 23081
L19352 23006
L19333 22968
L19315 22949
L19258 22912
L19183 22893
L19033 22893
L18996 22912
L18977 22931
L18958 22968
L18958 23043
L18977 23081
L18996 23099
L19033 23118
L19127 23118
L19165 23099
L19183 23081
L19202 23043
L19202 22968
L19183 22931
L19165 22912
L19127 22893
" />
<g transform="rotate(-90 15774.6 23390.4)">
<text x="15774.6" y="23587.2"
textLength="1220.38" font-size="524.934" lengthAdjust="spacingAndGlyphs"
text-anchor="middle" opacity="0">D18</text>
</g>
<path d="M15952 23868
L15558 23868
L15558 23774
L15577 23718
L15615 23680
L15652 23662
L15727 23643
L15783 23643
L15858 23662
L15896 23680
L15933 23718
L15952 23774
L15952 23868
" />
<path d="M15952 23268
L15952 23493
" />
<path d="M15952 23380
L15558 23380
L15615 23418
L15652 23455
L15671 23493
" />
<path d="M15727 23043
L15708 23081
L15690 23099
L15652 23118
L15633 23118
L15596 23099
L15577 23081
L15558 23043
L15558 22968
L15577 22931
L15596 22912
L15633 22893
L15652 22893
L15690 22912
L15708 22931
L15727 22968
L15727 23043
L15746 23081
L15765 23099
L15802 23118
L15877 23118
L15915 23099
L15933 23081
L15952 23043
L15952 22968
L15933 22931
L15915 22912
L15877 22893
L15802 22893
L15765 22912
L15746 22931
L15727 22968
" />
<g transform="rotate(-90 12174.6 23390.4)">
<text x="12174.6" y="23587.2"
textLength="1220.38" font-size="524.934" lengthAdjust="spacingAndGlyphs"
text-anchor="middle" opacity="0">D17</text>
</g>
<path d="M12352 23868
L11958 23868
L11958 23774
L11977 23718
L12015 23680
L12052 23662
L12127 23643
L12183 23643
L12258 23662
L12296 23680
L12333 23718
L12352 23774
L12352 23868
" />
<path d="M12352 23268
L12352 23493
" />
<path d="M12352 23380
L11958 23380
L12015 23418
L12052 23455
L12071 23493
" />
<path d="M11958 23137
L11958 22874
L12352 23043
" />
<g transform="rotate(-90 8774.6 23390.4)">
<text x="8774.6" y="23587.2"
textLength="1220.38" font-size="524.934" lengthAdjust="spacingAndGlyphs"
text-anchor="middle" opacity="0">D16</text>
</g>
<path d="M8952 23868
L8558 23868
L8558 23774
L8577 23718
L8615 23680
L8652 23662
L8727 23643
L8783 23643
L8858 23662
L8896 23680
L8933 23718
L8952 23774
L8952 23868
" />
<path d="M8952 23268
L8952 23493
" />
<path d="M8952 23380
L8558 23380
L8615 23418
L8652 23455
L8671 23493
" />
<path d="M8558 22931
L8558 23006
L8577 23043
L8596 23062
L8652 23099
L8727 23118
L8877 23118
L8915 23099
L8933 23081
L8952 23043
L8952 22968
L8933 22931
L8915 22912
L8877 22893
L8783 22893
L8746 22912
L8727 22931
L8708 22968
L8708 23043
L8727 23081
L8746 23099
L8783 23118
" />
<g transform="rotate(-90 29374.6 10390.4)">
<text x="29374.6" y="10587.2"
textLength="1220.38" font-size="524.934" lengthAdjust="spacingAndGlyphs"
text-anchor="middle" opacity="0">D15</text>
</g>
<path d="M29552 10868
L29158 10868
L29158 10774
L29177 10718
L29215 10680
L29252 10662
L29327 10643
L29383 10643
L29458 10662
L29496 10680
L29533 10718
L29552 10774
L29552 10868
" />
<path d="M29552 10268
L29552 10493
" />
<path d="M29552 10380
L29158 10380
L29215 10418
L29252 10455
L29271 10493
" />
<path d="M29158 9912
L29158 10099
L29346 10118
L29327 10099
L29308 10062
L29308 9968
L29327 9931
L29346 9912
L29383 9893
L29477 9893
L29515 9912
L29533 9931
L29552 9968
L29552 10062
L29533 10099
L29515 10118
" />
<g transform="rotate(-90 29774.6 20390.4)">
<text x="29774.6" y="20587.2"
textLength="1220.38" font-size="524.934" lengthAdjust="spacingAndGlyphs"
text-anchor="middle" opacity="0">D14</text>
</g>
<path d="M29952 20868
L29558 20868
L29558 20774
L29577 20718
L29615 20680
L29652 20662
L29727 20643
L29783 20643
L29858 20662
L29896 20680
L29933 20718
L29952 20774
L29952 20868
" />
<path d="M29952 20268
L29952 20493
" />
<path d="M29952 20380
L29558 20380
L29615 20418
L29652 20455
L29671 20493
" />
<path d="M29690 19931
L29952 19931
" />
<path d="M29540 20024
L29821 20118
L29821 19874
" />
<g transform="rotate(-90 26174.6 20390.4)">
<text x="26174.6" y="20587.2"
textLength="1220.38" font-size="524.934" lengthAdjust="spacingAndGlyphs"
text-anchor="middle" opacity="0">D13</text>
</g>
<path d="M26352 20868
L25958 20868
L25958 20774
L25977 20718
L26015 20680
L26052 20662
L26127 20643
L26183 20643
L26258 20662
L26296 20680
L26333 20718
L26352 20774
L26352 20868
" />
<path d="M26352 20268
L26352 20493
" />
<path d="M26352 20380
L25958 20380
L26015 20418
L26052 20455
L26071 20493
" />
<path d="M25958 20137
L25958 19893
L26108 20024
L26108 19968
L26127 19931
L26146 19912
L26183 19893
L26277 19893
L26315 19912
L26333 19931
L26352 19968
L26352 20081
L26333 20118
L26315 20137
" />
<g transform="rotate(-90 22774.6 20390.4)">
<text x="22774.6" y="20587.2"
textLength="1220.38" font-size="524.934" lengthAdjust="spacingAndGlyphs"
text-anchor="middle" opacity="0">D12</text>
</g>
<path d="M22952 20868
L22558 20868
L22558 20774
L22577 20718
L22615 20680
L22652 20662
L22727 20643
L22783 20643
L22858 20662
L22896 20680
L22933 20718
L22952 20774
L22952 20868
" />
<path d="M22952 20268
L22952 20493
" />
<path d="M22952 20380
L22558 20380
L22615 20418
L22652 20455
L22671 20493
" />
<path d="M22596 20118
L22577 20099
L22558 20062
L22558 19968
L22577 19931
L22596 19912
L22633 19893
L22671 19893
L22727 19912
L22952 20137
L22952 19893
" />
<g transform="rotate(-90 19174.6 20390.4)">
<text x="19174.6" y="20587.2"
textLength="1220.38" font-size="524.934" lengthAdjust="spacingAndGlyphs"
text-anchor="middle" opacity="0">D11</text>
</g>
<path d="M19352 20868
L18958 20868
L18958 20774
L18977 20718
L19015 20680
L19052 20662
L19127 20643
L19183 20643
L19258 20662
L19296 20680
L19333 20718
L19352 20774
L19352 20868
" />
<path d="M19352 20268
L19352 20493
" />
<path d="M19352 20380
L18958 20380
L19015 20418
L19052 20455
L19071 20493
" />
<path d="M19352 19893
L19352 20118
" />
<path d="M19352 20006
L18958 20006
L19015 20043
L19052 20081
L19071 20118
" />
<g transform="rotate(-90 15774.6 20390.4)">
<text x="15774.6" y="20587.2"
textLength="1220.38" font-size="524.934" lengthAdjust="spacingAndGlyphs"
text-anchor="middle" opacity="0">D10</text>
</g>
<path d="M15952 20868
L15558 20868
L15558 20774
L15577 20718
L15615 20680
L15652 20662
L15727 20643
L15783 20643
L15858 20662
L15896 20680
L15933 20718
L15952 20774
L15952 20868
" />
<path d="M15952 20268
L15952 20493
" />
<path d="M15952 20380
L15558 20380
L15615 20418
L15652 20455
L15671 20493
" />
<path d="M15558 20024
L15558 19987
L15577 19949
L15596 19931
L15633 19912
L15708 19893
L15802 19893
L15877 19912
L15915 19931
L15933 19949
L15952 19987
L15952 20024
L15933 20062
L15915 20081
L15877 20099
L15802 20118
L15708 20118
L15633 20099
L15596 20081
L15577 20062
L15558 20024
" />
<g transform="rotate(-90 12174.6 20390.4)">
<text x="12174.6" y="20587.2"
textLength="845.426" font-size="524.934" lengthAdjust="spacingAndGlyphs"
text-anchor="middle" opacity="0">D9</text>
</g>
<path d="M12352 20680
L11958 20680
L11958 20587
L11977 20530
L12015 20493
L12052 20474
L12127 20455
L12183 20455
L12258 20474
L12296 20493
L12333 20530
L12352 20587
L12352 20680
" />
<path d="M12352 20268
L12352 20193
L12333 20156
L12315 20137
L12258 20099
L12183 20081
L12033 20081
L11996 20099
L11977 20118
L11958 20156
L11958 20230
L11977 20268
L11996 20287
L12033 20305
L12127 20305
L12165 20287
L12183 20268
L12202 20230
L12202 20156
L12183 20118
L12165 20099
L12127 20081
" />
<g transform="rotate(-90 8774.6 20390.4)">
<text x="8774.6" y="20587.2"
textLength="845.426" font-size="524.934" lengthAdjust="spacingAndGlyphs"
text-anchor="middle" opacity="0">D8</text>
</g>
<path d="M8952 20680
L8558 20680
L8558 20587
L8577 20530
L8615 20493
L8652 20474
L8727 20455
L8783 20455
L8858 20474
L8896 20493
L8933 20530
L8952 20587
L8952 20680
" />
<path d="M8727 20230
L8708 20268
L8690 20287
L8652 20305
L8633 20305
L8596 20287
L8577 20268
L8558 20230
L8558 20156
L8577 20118
L8596 20099
L8633 20081
L8652 20081
L8690 20099
L8708 20118
L8727 20156
L8727 20230
L8746 20268
L8765 20287
L8802 20305
L8877 20305
L8915 20287
L8933 20268
L8952 20230
L8952 20156
L8933 20118
L8915 20099
L8877 20081
L8802 20081
L8765 20099
L8746 20118
L8727 20156
" />
<g transform="rotate(-90 29774.6 17590.4)">
<text x="29774.6" y="17787.2"
textLength="845.426" font-size="524.934" lengthAdjust="spacingAndGlyphs"
text-anchor="middle" opacity="0">D7</text>
</g>
<path d="M29952 17880
L29558 17880
L29558 17787
L29577 17730
L29615 17693
L29652 17674
L29727 17655
L29783 17655
L29858 17674
L29896 17693
L29933 17730
L29952 17787
L29952 17880
" />
<path d="M29558 17524
L29558 17262
L29952 17430
" />
<g transform="rotate(-90 26174.6 17590.4)">
<text x="26174.6" y="17787.2"
textLength="845.426" font-size="524.934" lengthAdjust="spacingAndGlyphs"
text-anchor="middle" opacity="0">D6</text>
</g>
<path d="M26352 17880
L25958 17880
L25958 17787
L25977 17730
L26015 17693
L26052 17674
L26127 17655
L26183 17655
L26258 17674
L26296 17693
L26333 17730
L26352 17787
L26352 17880
" />
<path d="M25958 17318
L25958 17393
L25977 17430
L25996 17449
L26052 17487
L26127 17505
L26277 17505
L26315 17487
L26333 17468
L26352 17430
L26352 17356
L26333 17318
L26315 17299
L26277 17281
L26183 17281
L26146 17299
L26127 17318
L26108 17356
L26108 17430
L26127 17468
L26146 17487
L26183 17505
" />
<g transform="rotate(-90 22774.6 17590.4)">
<text x="22774.6" y="17787.2"
textLength="845.426" font-size="524.934" lengthAdjust="spacingAndGlyphs"
text-anchor="middle" opacity="0">D5</text>
</g>
<path d="M22952 17880
L22558 17880
L22558 17787
L22577 17730
L22615 17693
L22652 17674
L22727 17655
L22783 17655
L22858 17674
L22896 17693
L22933 17730
L22952 17787
L22952 17880
" />
<path d="M22558 17299
L22558 17487
L22746 17505
L22727 17487
L22708 17449
L22708 17356
L22727 17318
L22746 17299
L22783 17281
L22877 17281
L22915 17299
L22933 17318
L22952 17356
L22952 17449
L22933 17487
L22915 17505
" />
<g transform="rotate(-90 19174.6 17590.4)">
<text x="19174.6" y="17787.2"
textLength="845.426" font-size="524.934" lengthAdjust="spacingAndGlyphs"
text-anchor="middle" opacity="0">D4</text>
</g>
<path d="M19352 17880
L18958 17880
L18958 17787
L18977 17730
L19015 17693
L19052 17674
L19127 17655
L19183 17655
L19258 17674
L19296 17693
L19333 17730
L19352 17787
L19352 17880
" />
<path d="M19090 17318
L19352 17318
" />
<path d="M18940 17412
L19221 17505
L19221 17262
" />
<g transform="rotate(-90 15774.6 17590.4)">
<text x="15774.6" y="17787.2"
textLength="845.426" font-size="524.934" lengthAdjust="spacingAndGlyphs"
text-anchor="middle" opacity="0">D3</text>
</g>
<path d="M15952 17880
L15558 17880
L15558 17787
L15577 17730
L15615 17693
L15652 17674
L15727 17655
L15783 17655
L15858 17674
L15896 17693
L15933 17730
L15952 17787
L15952 17880
" />
<path d="M15558 17524
L15558 17281
L15708 17412
L15708 17356
L15727 17318
L15746 17299
L15783 17281
L15877 17281
L15915 17299
L15933 17318
L15952 17356
L15952 17468
L15933 17505
L15915 17524
" />
<g transform="rotate(-90 12174.6 17590.4)">
<text x="12174.6" y="17787.2"
textLength="845.426" font-size="524.934" lengthAdjust="spacingAndGlyphs"
text-anchor="middle" opacity="0">D2</text>
</g>
<path d="M12352 17880
L11958 17880
L11958 17787
L11977 17730
L12015 17693
L12052 17674
L12127 17655
L12183 17655
L12258 17674
L12296 17693
L12333 17730
L12352 17787
L12352 17880
" />
<path d="M11996 17505
L11977 17487
L11958 17449
L11958 17356
L11977 17318
L11996 17299
L12033 17281
L12071 17281
L12127 17299
L12352 17524
L12352 17281
" />
<g transform="rotate(-90 8774.6 17590.4)">
<text x="8774.6" y="17787.2"
textLength="845.426" font-size="524.934" lengthAdjust="spacingAndGlyphs"
text-anchor="middle" opacity="0">D1</text>
</g>
<path d="M8952 17880
L8558 17880
L8558 17787
L8577 17730
L8615 17693
L8652 17674
L8727 17655
L8783 17655
L8858 17674
L8896 17693
L8933 17730
L8952 17787
L8952 17880
" />
<path d="M8952 17281
L8952 17505
" />
<path d="M8952 17393
L8558 17393
L8615 17430
L8652 17468
L8671 17505
" />
<g transform="rotate(-90 10774.6 7390.35)">
<text x="10774.6" y="7587.2"
textLength="845.426" font-size="524.934" lengthAdjust="spacingAndGlyphs"
text-anchor="middle" opacity="0">C1</text>
</g>
<path d="M10915 7455
L10933 7474
L10952 7530
L10952 7568
L10933 7624
L10896 7662
L10858 7680
L10783 7699
L10727 7699
L10652 7680
L10615 7662
L10577 7624
L10558 7568
L10558 7530
L10577 7474
L10596 7455
" />
<path d="M10952 7081
L10952 7305
" />
<path d="M10952 7193
L10558 7193
L10615 7230
L10652 7268
L10671 7305
" />
<g >
</g>
</g>
<g style="fill:#000000; fill-opacity:0.0; 
stroke:#000000; stroke-width:59.0551; stroke-opacity:1; 
stroke-linecap:round; stroke-linejoin:round;">
</g>
<g style="fill:#C2C200; fill-opacity:0.0; 
stroke:#C2C200; stroke-width:59.0551; stroke-opacity:1; 
stroke-linecap:round; stroke-linejoin:round;">
</g>
<g style="fill:#C2C200; fill-opacity:0.0; 
stroke:#C2C200; stroke-width:19.685; stroke-opacity:1; 
stroke-linecap:round; stroke-linejoin:round;">
<circle cx="3774.6" cy="33790.4" r="656.168" /> 
<path d="M2790 33790
L4758 33790
" />
<path d="M3774 32806
L3774 34774
" />
<path d="M32174 6590
L31574 6590
" />
<path d="M3774 6590
L4374 6590
" />
<path d="M5174.6 7390.35 A800 800 0.0 0 0 4374.6 6590.35 " />
<path d="M31574.6 6590.35 A800 800 0.0 0 0 30774.6 7390.35 " />
<path d="M31574 32390
L32174 32390
" />
<path d="M30774.6 31590.4 A800 800 0.0 0 0 31574.6 32390.4 " />
<path d="M4374 32390
L3774 32390
" />
<path d="M4374.6 32390.4 A800 800 0.0 0 0 5174.6 31590.4 " />
<path d="M32174.6 35190.4 A1400 1400 0.0 0 0 32174.6 32390.4 " />
<path d="M32174.6 6590.35 A1400 1400 0.0 0 0 32174.6 3790.35 " />
<path d="M3774.6 3790.35 A1400 1400 0.0 0 0 3774.6 6590.35 " />
<path d="M3774.6 32390.4 A1400 1400 0.0 0 0 3774.6 35190.4 " />
<path d="M3774 3790
L32174 3790
" />
<path d="M5174 31590
L5174 7390
" />
<path d="M32174 35190
L3774 35190
" />
<path d="M30774 7390
L30774 31590
" />
<g >
</g>
<g >
</g>
<g >
</g>
<g >
</g>
<g >
</g>
<g >
</g>
<g >
</g>
<g >
</g>
<g >
</g>
<g >
</g>
<g >
</g>
<g >
</g>
<g >
</g>
<g >
</g>
<g >
</g>
<g >
</g>
<g >
</g>
<g >
</g>
<g >
</g>
<g >
</g>
<g >
</g>
<g >
</g>
<g >
</g>
<g >
</g>
<g >
</g>
<g >
</g>
<g >
</g>
<g >
</g>
<g >
</g>
<g >
</g>
<g >
</g>
<g >
</g>
<g >
</g>
<g >
</g>
<g >
</g>
<g >
</g>
<g >
</g>
<g >
</g>
<g >
</g>
<g >
</g>
<g >
</g>
<g >
</g>
<g >
</g>
<g >
</g>
<g >
</g>
<g >
</g>
<g >
</g>
<g >
</g>
<g >
</g>
<g >
</g>
<g >
</g>
<g >
</g>
<g >
</g>
<g >
</g>
<g >
</g>
<g >
</g>
<g >
</g>
<g >
</g>
<g >
</g>
<g >
</g>
<g >
</g>
<g >
</g>
<g >
</g>
<g >
</g>
<g >
</g>
<g >
</g>
<g >
</g>
<g >
</g>
<g >
</g>
<g >
</g>
<g >
</g>
<g >
</g>
<g >
</g>
<g >
</g>
<g >
</g>
<g >
</g>
<g >
</g>
<g >
</g>
<g >
</g>
<g >
</g>
<g >
</g>
<g >
</g>
<g >
</g>
<g >
</g>
<g >
</g>
<g >
</g>
<g >
</g>
<g >
</g>
<g >
</g>
<g >
</g>
<g >
</g>
<g >
</g>
<g >
</g>
<g >
</g>
<g >
</g>
<g >
</g>
<g >
</g>
<g >
</g>
<g >
</g>
<g >
</g>
<g >
</g>
</g> 
</svg>
