<?xml version="1.0" encoding="utf-8"?>
<!-- Generator: Adobe Illustrator 24.0.2, SVG Export Plug-In . SVG Version: 6.00 Build 0)  -->
<svg version="1.1" xmlns="http://www.w3.org/2000/svg" xmlns:xlink="http://www.w3.org/1999/xlink" x="0px" y="0px"
	 viewBox="0 0 296.3 282.5" style="enable-background:new 0 0 296.3 282.5;" xml:space="preserve">
<style type="text/css">
	.st0{fill:none;stroke:#000000;stroke-width:1.000000e-03;stroke-linecap:round;stroke-linejoin:round;stroke-miterlimit:10;}
	.st1{fill:none;stroke:#000000;stroke-width:1.000000e-03;stroke-miterlimit:10;}
	.st2{display:none;}
	.st3{display:inline;}
	
		.st4{fill:#008484;fill-opacity:0;stroke:#008484;stroke-width:1.1339;stroke-linecap:round;stroke-linejoin:round;stroke-miterlimit:10;}
	
		.st5{fill:#008484;fill-opacity:0;stroke:#008484;stroke-width:0.3402;stroke-linecap:round;stroke-linejoin:round;stroke-miterlimit:10;}
	.st6{opacity:0;enable-background:new    ;}
	.st7{fill:none;}
	.st8{fill:#008484;}
	.st9{font-family:'ArialMT';}
	.st10{font-size:3.7795px;}
	.st11{fill:none;stroke:#008484;stroke-width:0.4252;stroke-linecap:round;stroke-linejoin:round;}
	
		.st12{fill:#008484;fill-opacity:0;stroke:#008484;stroke-width:0.4252;stroke-linecap:round;stroke-linejoin:round;stroke-miterlimit:10;}
	.st13{letter-spacing:1;}
</style>
<g id="Layer_2">
	<path class="st0" d="M31.5,233.2h-4.3v0c-5.6,0-10.1,4.5-10.1,10.1c0,5.6,4.5,10.1,10.1,10.1v0h204.5l0,0c5.6,0,10.1-4.5,10.1-10.1
		c0-5.6-4.5-10.1-10.1-10.1l0,0h-4.3l0,0l0,0c-3.2,0-5.8-2.6-5.8-5.8l0,0V53.2l0,0l0,0c0-3.2,2.6-5.8,5.8-5.8l0,0h4.3l0,0
		c5.6,0,10.1-4.5,10.1-10.1s-4.5-10.1-10.1-10.1l0,0H27.2l0,0c-5.6,0-10.1,4.5-10.1,10.1s4.5,10.1,10.1,10.1l0,0h4.3l0,0l0,0
		c3.2,0,5.8,2.6,5.8,5.8l0,0v174.2l0,0l0,0C37.3,230.6,34.7,233.2,31.5,233.2"/>
	<rect x="36.6" y="53.6" class="st0" width="13.5" height="23.7"/>
	<circle class="st0" cx="27.2" cy="243.3" r="4.6"/>
	<circle id="path4718-8-3" class="st1" cx="231.7" cy="243.3" r="4.6"/>
	<circle id="path4718-8-0" class="st1" cx="27.2" cy="37.4" r="4.6"/>
	<circle id="path4718-8-3-2" class="st1" cx="231.7" cy="37.4" r="4.6"/>
	<path class="st0" d="M219.8,29.2L39.1,29.1c0,0,0,0,0,0 M219.8,227.6c0,0,0,24.1,0,24V29.2c0,0,0,24,0,23.9 M39.1,251.9l180.7-0.3
		c0,0,0,0,0,0 M39.1,29.1v198.2c0,0,0,24.2,0,24.2"/>
	<rect id="rect8711" x="88.6" y="26.5" class="st1" width="52.4" height="10.9"/>
	<rect id="rect8732" x="51.2" y="56.5" class="st1" width="37.5" height="17.1"/>
	<rect id="rect8734" x="68.5" y="26.9" class="st1" width="21.3" height="10.9"/>
	<rect id="rect8736" x="167.8" y="26.9" class="st1" width="21.3" height="10.9"/>
</g>
<g id="Layer_1" class="st2">
	<title>SVG Picture created as PCB-brd.svg date 2020/02/12 13:19:33</title>
	<desc>Picture generated by PCBNEW</desc>
	<g transform="translate(0 0) scale(1 1)" class="st3">
	</g>
	<g class="st3">
		<path class="st4" d="M74.5,77.6l-0.6,4.7"/>
		<path class="st4" d="M73.1,74.9L70.8,80h4.4"/>
		<path class="st4" d="M86.3,82.3H83l0.9-7.1"/>
		<path class="st4" d="M89.2,78.6h2.4"/>
		<path class="st4" d="M92.1,82.3h-3.4l0.9-7.1H93"/>
		<path class="st4" d="M95.1,82.3l0.9-7.1h1.7l1,0.3l0.6,0.7l0.3,0.7l0.2,1.4l-0.1,1L99,80.6l-0.4,0.7L97.9,82l-1.1,0.3H95.1"/>
		<path class="st4" d="M107.6,82.3l0.6-4.7"/>
		<path class="st4" d="M108.5,75.2l-0.4,0.3l0.3,0.3l0.4-0.3L108.5,75.2l-0.1,0.7"/>
		<path class="st4" d="M111.6,77.6l-0.6,4.7"/>
		<path class="st4" d="M111.5,78.3l0.4-0.3l0.7-0.3h1l0.6,0.3l0.3,0.7l-0.5,3.7"/>
		<path class="st4" d="M125.8,82.3l0.5-3.7l-0.3-0.7l-0.6-0.3h-1.4l-0.7,0.3"/>
		<path class="st4" d="M125.9,82l-0.7,0.3h-1.7l-0.6-0.3l-0.3-0.7l0.1-0.7l0.4-0.7l0.7-0.3h1.7l0.7-0.3"/>
		<path class="st4" d="M138.7,82.3l-1.9-3.4"/>
		<path class="st4" d="M134.6,82.3l0.9-7.1h2.7l0.6,0.3l0.3,0.3l0.3,0.7l-0.1,1l-0.4,0.7l-0.4,0.3l-0.7,0.3H135"/>
		<path class="st4" d="M142.7,82.3l-0.6-0.3l-0.3-0.3l-0.3-0.7l0.3-2l0.4-0.7l0.4-0.3l0.7-0.3h1l0.6,0.3l0.3,0.3l0.3,0.7l-0.3,2
			l-0.4,0.7l-0.4,0.3l-0.7,0.3H142.7"/>
		<path class="st4" d="M148,77.6l0.8,4.7l1.8-3.4l0.9,3.4l1.9-4.7"/>
		<path class="st4" d="M165.5,75.6l-0.6-0.3h-1l-1.1,0.3l-0.8,0.7l-0.4,0.7l-0.5,1.4l-0.1,1l0.2,1.4l0.3,0.7L162,82l1,0.3h0.7
			l1.1-0.3l0.4-0.3l0.3-2.4H164"/>
		<path class="st4" d="M171.1,82.3l0.5-3.7l-0.3-0.7l-0.6-0.3h-1.3l-0.7,0.3"/>
		<path class="st4" d="M171.1,82l-0.7,0.3h-1.7l-0.6-0.3l-0.3-0.7l0.1-0.7l0.4-0.7l0.7-0.3h1.7l0.7-0.3"/>
		<path class="st4" d="M174.4,82.3l0.6-4.7"/>
		<path class="st4" d="M174.9,78.3l0.4-0.3l0.7-0.3h1l0.6,0.3l0.3,0.7l-0.5,3.7"/>
		<path class="st4" d="M177.9,78.6l0.4-0.7l0.7-0.3h1l0.6,0.3l0.3,0.7l-0.5,3.7"/>
		<path class="st4" d="M186.6,82l-0.7,0.3h-1.3l-0.6-0.3l-0.3-0.7l0.3-2.7l0.4-0.7l0.7-0.3h1.3l0.6,0.3l0.3,0.7l-0.1,0.7l-3.5,0.7"
			/>
	</g>
	<g class="st3">
		<path class="st5" d="M217.8,118v1.5"/>
		<path class="st5" d="M213.8,118v1.5"/>
		<path class="st5" d="M187.6,118v1.5"/>
		<path class="st5" d="M183.6,118v1.5"/>
		<path class="st5" d="M180.4,45.3v1.5"/>
		<path class="st5" d="M176.4,45.3v1.5"/>
		<path class="st5" d="M186.1,45.3v1.5"/>
		<path class="st5" d="M182.1,45.3v1.5"/>
		<path class="st5" d="M157.3,118v1.5"/>
		<path class="st5" d="M153.3,118v1.5"/>
		<path class="st5" d="M191.9,45.3v1.5"/>
		<path class="st5" d="M187.9,45.3v1.5"/>
		<path class="st5" d="M171.4,28.6v7.5"/>
		<path class="st5" d="M178.7,28.6h-7.4"/>
		<path class="st5" d="M178.7,36.1h-7.4"/>
		<path class="st5" d="M178.7,28.6v7.5"/>
		<path class="st5" d="M182.3,28.6h3.8"/>
		<path class="st5" d="M186.1,28.6v3.8"/>
		<path class="st5" d="M140.1,66.4v2.7"/>
		<path class="st5" d="M140.1,69.1h2.7"/>
		<path class="st5" d="M140.1,42.9v-2.7"/>
		<path class="st5" d="M140.1,40.2h2.7"/>
		<path class="st5" d="M169.1,66.4v2.7"/>
		<path class="st5" d="M169.1,69.1h-2.7"/>
		<path class="st5" d="M169.1,42.9v-2.7"/>
		<path class="st5" d="M169.1,40.2h-2.7"/>
		<path class="st5" d="M166.4,40.2v-3.8"/>
		<path class="st5" d="M112.9,75.1v-3.6"/>
		<path class="st5" d="M112.9,55.8v3.6"/>
		<path class="st5" d="M102.2,75.1h10.7"/>
		<path class="st5" d="M95.8,55.8h17"/>
		<path class="st5" d="M45.1,48.1h12.8"/>
		<path class="st5" d="M41.6,36.8V41"/>
		<path class="st5" d="M57.9,29.7H45.1"/>
		<path class="st5" d="M61.4,41v-4.2"/>
		<path class="st5" d="M200.9,48.1h12.8"/>
		<path class="st5" d="M197.4,36.8V41"/>
		<path class="st5" d="M213.7,29.7h-12.8"/>
		<path class="st5" d="M217.2,41v-4.2"/>
		<path class="st5" d="M214,102.5V89.7"/>
		<path class="st5" d="M202.7,106h4.3"/>
		<path class="st5" d="M195.6,89.7v12.8"/>
		<path class="st5" d="M207,86.2h-4.3"/>
		<path class="st5" d="M188.8,102.5V89.7"/>
		<path class="st5" d="M177.5,106h4.3"/>
		<path class="st5" d="M170.4,89.7v12.8"/>
		<path class="st5" d="M181.8,86.2h-4.3"/>
		<path class="st5" d="M163.6,102.5V89.7"/>
		<path class="st5" d="M152.3,106h4.3"/>
		<path class="st5" d="M145.2,89.7v12.8"/>
		<path class="st5" d="M156.6,86.2h-4.3"/>
		<path class="st5" d="M138.4,102.5V89.7"/>
		<path class="st5" d="M127.1,106h4.3"/>
		<path class="st5" d="M120,89.7v12.8"/>
		<path class="st5" d="M131.4,86.2h-4.3"/>
		<path class="st5" d="M113.2,102.5V89.7"/>
		<path class="st5" d="M101.9,106h4.3"/>
		<path class="st5" d="M94.8,89.7v12.8"/>
		<path class="st5" d="M106.2,86.2h-4.3"/>
		<path class="st5" d="M88,102.5V89.7"/>
		<path class="st5" d="M76.7,106H81"/>
		<path class="st5" d="M69.6,89.7v12.8"/>
		<path class="st5" d="M81,86.2h-4.3"/>
		<path class="st5" d="M62.8,102.5V89.7"/>
		<path class="st5" d="M51.5,106h4.3"/>
		<path class="st5" d="M44.4,89.7v12.8"/>
		<path class="st5" d="M55.8,86.2h-4.3"/>
		<path class="st5" d="M56.4,58.3v3.4"/>
		<path class="st5" d="M59.8,58.3h-3.4"/>
		<path class="st5" d="M83.3,71h-3.4"/>
		<path class="st5" d="M83.3,59.1V71"/>
		<path class="st5" d="M79.9,59.1h3.4"/>
		<path class="st5" d="M57.2,71h3.4"/>
		<path class="st5" d="M57.2,59.1V71"/>
		<path class="st5" d="M60.6,59.1h-3.4"/>
		<path class="st5" d="M127.1,118v1.5"/>
		<path class="st5" d="M123.1,118v1.5"/>
		<path class="st5" d="M96.9,118v1.5"/>
		<path class="st5" d="M92.8,118v1.5"/>
		<path class="st5" d="M66.6,118v1.5"/>
		<path class="st5" d="M62.6,118v1.5"/>
		<path class="st5" d="M200.5,120.2h2.6"/>
		<path class="st5" d="M209.5,120.2h-2.6"/>
		<path class="st5" d="M209.5,120.2V114"/>
		<path class="st5" d="M200.5,120.2V116"/>
		<path class="st5" d="M170.3,120.2h2.6"/>
		<path class="st5" d="M179.3,120.2h-2.6"/>
		<path class="st5" d="M179.3,120.2V114"/>
		<path class="st5" d="M170.3,120.2V116"/>
		<path class="st5" d="M140.1,120.2h2.6"/>
		<path class="st5" d="M149,120.2h-2.6"/>
		<path class="st5" d="M149,120.2V114"/>
		<path class="st5" d="M140.1,120.2V116"/>
		<path class="st5" d="M109.8,120.2h2.6"/>
		<path class="st5" d="M118.8,120.2h-2.6"/>
		<path class="st5" d="M118.8,120.2V114"/>
		<path class="st5" d="M109.8,120.2V116"/>
		<path class="st5" d="M79.6,120.2h2.6"/>
		<path class="st5" d="M88.5,120.2h-2.6"/>
		<path class="st5" d="M88.5,120.2V114"/>
		<path class="st5" d="M79.6,120.2V116"/>
		<path class="st5" d="M49.3,120.2H52"/>
		<path class="st5" d="M58.3,120.2h-2.6"/>
		<path class="st5" d="M58.3,120.2V114"/>
		<path class="st5" d="M49.3,120.2V116"/>
		<path class="st5" d="M86.7,36.1v-7.5"/>
		<path class="st5" d="M79.4,36.1h7.4"/>
		<path class="st5" d="M79.4,28.6h7.4"/>
		<path class="st5" d="M79.4,36.1v-7.5"/>
		<path class="st5" d="M75.8,36.1H72"/>
		<path class="st5" d="M72,36.1v-3.8"/>
		<path class="st5" d="M49.6,76.2v-1.1"/>
		<path class="st5" d="M38.1,76.2h-0.7"/>
		<path class="st5" d="M49.6,76.2h-5"/>
		<path class="st5" d="M49.6,54.6v1.1"/>
		<path class="st5" d="M44.6,54.6h5"/>
		<path class="st5" d="M37.4,54.6h0.7"/>
		<path class="st5" d="M133.2,35.7v-7.5"/>
		<path class="st5" d="M104.2,35.7h29"/>
		<path class="st5" d="M104.2,28.2h29"/>
		<path class="st5" d="M104.2,35.7v-7.5"/>
		<path class="st5" d="M100.6,35.7h-3.8"/>
		<path class="st5" d="M96.8,35.7V32"/>
		<path class="st5" d="M212.7,238.8c-1.7-4.4-6.6-6.5-11-4.8c-1.7,0.7-3.2,1.9-4.2,3.5"/>
		<path class="st5" d="M197.6,246.2c2.4,4,7.6,5.3,11.6,2.9c1.6-1,2.8-2.4,3.5-4.2"/>
		<path class="st5" d="M211.2,238.8c-1.7-3.5-5.9-5-9.5-3.3c-1.5,0.7-2.6,1.9-3.3,3.3"/>
		<path class="st5" d="M198.4,244.9c1.7,3.5,5.9,5,9.5,3.3c1.5-0.7,2.6-1.9,3.3-3.3"/>
		<path class="st5" d="M197.6,237.5v1.3"/>
		<path class="st5" d="M197.6,244.9v1.3"/>
		<path class="st5" d="M187.5,238.8c-1.7-4.4-6.6-6.5-11-4.8c-1.7,0.7-3.2,1.9-4.2,3.5"/>
		<path class="st5" d="M172.4,246.2c2.4,4,7.6,5.3,11.6,2.9c1.6-1,2.8-2.4,3.5-4.2"/>
		<path class="st5" d="M186,238.8c-1.7-3.5-5.9-5-9.5-3.3c-1.5,0.7-2.6,1.9-3.3,3.3"/>
		<path class="st5" d="M173.2,244.9c1.7,3.5,5.9,5,9.5,3.3c1.5-0.7,2.6-1.9,3.3-3.3"/>
		<path class="st5" d="M172.4,237.5v1.3"/>
		<path class="st5" d="M172.4,244.9v1.3"/>
		<path class="st5" d="M162.3,238.8c-1.7-4.4-6.6-6.5-11-4.8c-1.7,0.7-3.2,1.9-4.2,3.5"/>
		<path class="st5" d="M147.2,246.2c2.4,4,7.6,5.3,11.6,2.9c1.6-1,2.8-2.4,3.5-4.2"/>
		<path class="st5" d="M160.8,238.8c-1.7-3.5-5.9-5-9.5-3.3c-1.5,0.7-2.6,1.9-3.3,3.3"/>
		<path class="st5" d="M148,244.9c1.7,3.5,5.9,5,9.5,3.3c1.5-0.7,2.6-1.9,3.3-3.3"/>
		<path class="st5" d="M147.2,237.5v1.3"/>
		<path class="st5" d="M147.2,244.9v1.3"/>
		<path class="st5" d="M137.1,238.8c-1.7-4.4-6.6-6.5-11-4.8c-1.7,0.7-3.2,1.9-4.2,3.5"/>
		<path class="st5" d="M122,246.2c2.4,4,7.6,5.3,11.6,2.9c1.6-1,2.8-2.4,3.5-4.2"/>
		<path class="st5" d="M135.6,238.8c-1.7-3.5-5.9-5-9.5-3.3c-1.5,0.7-2.6,1.9-3.3,3.3"/>
		<path class="st5" d="M122.8,244.9c1.7,3.5,5.9,5,9.5,3.3c1.5-0.7,2.6-1.9,3.3-3.3"/>
		<path class="st5" d="M122,237.5v1.3"/>
		<path class="st5" d="M122,244.9v1.3"/>
		<path class="st5" d="M111.9,238.8c-1.7-4.4-6.6-6.5-11-4.8c-1.7,0.7-3.2,1.9-4.2,3.5"/>
		<path class="st5" d="M96.8,246.2c2.4,4,7.6,5.3,11.6,2.9c1.6-1,2.8-2.4,3.5-4.2"/>
		<path class="st5" d="M110.4,238.8c-1.7-3.5-5.9-5-9.5-3.3c-1.5,0.7-2.6,1.9-3.3,3.3"/>
		<path class="st5" d="M97.6,244.9c1.7,3.5,5.9,5,9.5,3.3c1.5-0.7,2.6-1.9,3.3-3.3"/>
		<path class="st5" d="M96.8,237.5v1.3"/>
		<path class="st5" d="M96.8,244.9v1.3"/>
		<path class="st5" d="M86.7,238.8c-1.7-4.4-6.6-6.5-11-4.8c-1.7,0.7-3.2,1.9-4.2,3.5"/>
		<path class="st5" d="M71.6,246.2c2.4,4,7.6,5.3,11.6,2.9c1.6-1,2.8-2.4,3.5-4.2"/>
		<path class="st5" d="M85.2,238.8c-1.7-3.5-5.9-5-9.5-3.3c-1.5,0.7-2.6,1.9-3.3,3.3"/>
		<path class="st5" d="M72.4,244.9c1.7,3.5,5.9,5,9.5,3.3c1.5-0.7,2.6-1.9,3.3-3.3"/>
		<path class="st5" d="M71.6,237.5v1.3"/>
		<path class="st5" d="M71.6,244.9v1.3"/>
		<path class="st5" d="M61.5,238.8c-1.7-4.4-6.6-6.5-11-4.8c-1.7,0.7-3.2,1.9-4.2,3.5"/>
		<path class="st5" d="M46.4,246.2c2.4,4,7.6,5.3,11.6,2.9c1.6-1,2.8-2.4,3.5-4.2"/>
		<path class="st5" d="M60,238.8c-1.7-3.5-5.9-5-9.5-3.3c-1.5,0.7-2.6,1.9-3.3,3.3"/>
		<path class="st5" d="M47.2,244.9c1.7,3.5,5.9,5,9.5,3.3c1.5-0.7,2.6-1.9,3.3-3.3"/>
		<path class="st5" d="M46.4,237.5v1.3"/>
		<path class="st5" d="M46.4,244.9v1.3"/>
		<path class="st5" d="M212.7,217.2c-1.7-4.4-6.6-6.5-11-4.8c-1.7,0.7-3.2,1.9-4.2,3.5"/>
		<path class="st5" d="M197.6,224.6c2.4,4,7.6,5.3,11.6,2.9c1.6-1,2.8-2.4,3.5-4.2"/>
		<path class="st5" d="M211.2,217.2c-1.7-3.5-5.9-5-9.5-3.3c-1.5,0.7-2.6,1.9-3.3,3.3"/>
		<path class="st5" d="M198.4,223.3c1.7,3.5,5.9,5,9.5,3.3c1.5-0.7,2.6-1.9,3.3-3.3"/>
		<path class="st5" d="M197.6,215.9v1.3"/>
		<path class="st5" d="M197.6,223.3v1.3"/>
		<path class="st5" d="M187.5,217.2c-1.7-4.4-6.6-6.5-11-4.8c-1.7,0.7-3.2,1.9-4.2,3.5"/>
		<path class="st5" d="M172.4,224.6c2.4,4,7.6,5.3,11.6,2.9c1.6-1,2.8-2.4,3.5-4.2"/>
		<path class="st5" d="M186,217.2c-1.7-3.5-5.9-5-9.5-3.3c-1.5,0.7-2.6,1.9-3.3,3.3"/>
		<path class="st5" d="M173.2,223.3c1.7,3.5,5.9,5,9.5,3.3c1.5-0.7,2.6-1.9,3.3-3.3"/>
		<path class="st5" d="M172.4,215.9v1.3"/>
		<path class="st5" d="M172.4,223.3v1.3"/>
		<path class="st5" d="M162.3,217.2c-1.7-4.4-6.6-6.5-11-4.8c-1.7,0.7-3.2,1.9-4.2,3.5"/>
		<path class="st5" d="M147.2,224.6c2.4,4,7.6,5.3,11.6,2.9c1.6-1,2.8-2.4,3.5-4.2"/>
		<path class="st5" d="M160.8,217.2c-1.7-3.5-5.9-5-9.5-3.3c-1.5,0.7-2.6,1.9-3.3,3.3"/>
		<path class="st5" d="M148,223.3c1.7,3.5,5.9,5,9.5,3.3c1.5-0.7,2.6-1.9,3.3-3.3"/>
		<path class="st5" d="M147.2,215.9v1.3"/>
		<path class="st5" d="M147.2,223.3v1.3"/>
		<path class="st5" d="M137.1,217.2c-1.7-4.4-6.6-6.5-11-4.8c-1.7,0.7-3.2,1.9-4.2,3.5"/>
		<path class="st5" d="M122,224.6c2.4,4,7.6,5.3,11.6,2.9c1.6-1,2.8-2.4,3.5-4.2"/>
		<path class="st5" d="M135.6,217.2c-1.7-3.5-5.9-5-9.5-3.3c-1.5,0.7-2.6,1.9-3.3,3.3"/>
		<path class="st5" d="M122.8,223.3c1.7,3.5,5.9,5,9.5,3.3c1.5-0.7,2.6-1.9,3.3-3.3"/>
		<path class="st5" d="M122,215.9v1.3"/>
		<path class="st5" d="M122,223.3v1.3"/>
		<path class="st5" d="M111.9,217.2c-1.7-4.4-6.6-6.5-11-4.8c-1.7,0.7-3.2,1.9-4.2,3.5"/>
		<path class="st5" d="M96.8,224.6c2.4,4,7.6,5.3,11.6,2.9c1.6-1,2.8-2.4,3.5-4.2"/>
		<path class="st5" d="M110.4,217.2c-1.7-3.5-5.9-5-9.5-3.3c-1.5,0.7-2.6,1.9-3.3,3.3"/>
		<path class="st5" d="M97.6,223.3c1.7,3.5,5.9,5,9.5,3.3c1.5-0.7,2.6-1.9,3.3-3.3"/>
		<path class="st5" d="M96.8,215.9v1.3"/>
		<path class="st5" d="M96.8,223.3v1.3"/>
		<path class="st5" d="M86.7,217.2c-1.7-4.4-6.6-6.5-11-4.8c-1.7,0.7-3.2,1.9-4.2,3.5"/>
		<path class="st5" d="M71.6,224.6c2.4,4,7.6,5.3,11.6,2.9c1.6-1,2.8-2.4,3.5-4.2"/>
		<path class="st5" d="M85.2,217.2c-1.7-3.5-5.9-5-9.5-3.3c-1.5,0.7-2.6,1.9-3.3,3.3"/>
		<path class="st5" d="M72.4,223.3c1.7,3.5,5.9,5,9.5,3.3c1.5-0.7,2.6-1.9,3.3-3.3"/>
		<path class="st5" d="M71.6,215.9v1.3"/>
		<path class="st5" d="M71.6,223.3v1.3"/>
		<path class="st5" d="M61.5,217.2c-1.7-4.4-6.6-6.5-11-4.8c-1.7,0.7-3.2,1.9-4.2,3.5"/>
		<path class="st5" d="M46.4,224.6c2.4,4,7.6,5.3,11.6,2.9c1.6-1,2.8-2.4,3.5-4.2"/>
		<path class="st5" d="M60,217.2c-1.7-3.5-5.9-5-9.5-3.3c-1.5,0.7-2.6,1.9-3.3,3.3"/>
		<path class="st5" d="M47.2,223.3c1.7,3.5,5.9,5,9.5,3.3c1.5-0.7,2.6-1.9,3.3-3.3"/>
		<path class="st5" d="M46.4,215.9v1.3"/>
		<path class="st5" d="M46.4,223.3v1.3"/>
		<path class="st5" d="M212.7,195.6c-1.7-4.4-6.6-6.5-11-4.8c-1.7,0.7-3.2,1.9-4.2,3.5"/>
		<path class="st5" d="M197.6,203c2.4,4,7.6,5.3,11.6,2.9c1.6-1,2.8-2.4,3.5-4.2"/>
		<path class="st5" d="M211.2,195.6c-1.7-3.5-5.9-5-9.5-3.3c-1.5,0.7-2.6,1.9-3.3,3.3"/>
		<path class="st5" d="M198.4,201.7c1.7,3.5,5.9,5,9.5,3.3c1.5-0.7,2.6-1.9,3.3-3.3"/>
		<path class="st5" d="M197.6,194.3v1.3"/>
		<path class="st5" d="M197.6,201.7v1.3"/>
		<path class="st5" d="M187.5,195.6c-1.7-4.4-6.6-6.5-11-4.8c-1.7,0.7-3.2,1.9-4.2,3.5"/>
		<path class="st5" d="M172.4,203c2.4,4,7.6,5.3,11.6,2.9c1.6-1,2.8-2.4,3.5-4.2"/>
		<path class="st5" d="M186,195.6c-1.7-3.5-5.9-5-9.5-3.3c-1.5,0.7-2.6,1.9-3.3,3.3"/>
		<path class="st5" d="M173.2,201.7c1.7,3.5,5.9,5,9.5,3.3c1.5-0.7,2.6-1.9,3.3-3.3"/>
		<path class="st5" d="M172.4,194.3v1.3"/>
		<path class="st5" d="M172.4,201.7v1.3"/>
		<path class="st5" d="M162.3,195.6c-1.7-4.4-6.6-6.5-11-4.8c-1.7,0.7-3.2,1.9-4.2,3.5"/>
		<path class="st5" d="M147.2,203c2.4,4,7.6,5.3,11.6,2.9c1.6-1,2.8-2.4,3.5-4.2"/>
		<path class="st5" d="M160.8,195.6c-1.7-3.5-5.9-5-9.5-3.3c-1.5,0.7-2.6,1.9-3.3,3.3"/>
		<path class="st5" d="M148,201.7c1.7,3.5,5.9,5,9.5,3.3c1.5-0.7,2.6-1.9,3.3-3.3"/>
		<path class="st5" d="M147.2,194.3v1.3"/>
		<path class="st5" d="M147.2,201.7v1.3"/>
		<path class="st5" d="M137.1,195.6c-1.7-4.4-6.6-6.5-11-4.8c-1.7,0.7-3.2,1.9-4.2,3.5"/>
		<path class="st5" d="M122,203c2.4,4,7.6,5.3,11.6,2.9c1.6-1,2.8-2.4,3.5-4.2"/>
		<path class="st5" d="M135.6,195.6c-1.7-3.5-5.9-5-9.5-3.3c-1.5,0.7-2.6,1.9-3.3,3.3"/>
		<path class="st5" d="M122.8,201.7c1.7,3.5,5.9,5,9.5,3.3c1.5-0.7,2.6-1.9,3.3-3.3"/>
		<path class="st5" d="M122,194.3v1.3"/>
		<path class="st5" d="M122,201.7v1.3"/>
		<path class="st5" d="M111.9,195.6c-1.7-4.4-6.6-6.5-11-4.8c-1.7,0.7-3.2,1.9-4.2,3.5"/>
		<path class="st5" d="M96.8,203c2.4,4,7.6,5.3,11.6,2.9c1.6-1,2.8-2.4,3.5-4.2"/>
		<path class="st5" d="M110.4,195.6c-1.7-3.5-5.9-5-9.5-3.3c-1.5,0.7-2.6,1.9-3.3,3.3"/>
		<path class="st5" d="M97.6,201.7c1.7,3.5,5.9,5,9.5,3.3c1.5-0.7,2.6-1.9,3.3-3.3"/>
		<path class="st5" d="M96.8,194.3v1.3"/>
		<path class="st5" d="M96.8,201.7v1.3"/>
		<path class="st5" d="M86.7,195.6c-1.7-4.4-6.6-6.5-11-4.8c-1.7,0.7-3.2,1.9-4.2,3.5"/>
		<path class="st5" d="M71.6,203c2.4,4,7.6,5.3,11.6,2.9c1.6-1,2.8-2.4,3.5-4.2"/>
		<path class="st5" d="M85.2,195.6c-1.7-3.5-5.9-5-9.5-3.3c-1.5,0.7-2.6,1.9-3.3,3.3"/>
		<path class="st5" d="M72.4,201.7c1.7,3.5,5.9,5,9.5,3.3c1.5-0.7,2.6-1.9,3.3-3.3"/>
		<path class="st5" d="M71.6,194.3v1.3"/>
		<path class="st5" d="M71.6,201.7v1.3"/>
		<path class="st5" d="M61.5,195.6c-1.7-4.4-6.6-6.5-11-4.8c-1.7,0.7-3.2,1.9-4.2,3.5"/>
		<path class="st5" d="M46.4,203c2.4,4,7.6,5.3,11.6,2.9c1.6-1,2.8-2.4,3.5-4.2"/>
		<path class="st5" d="M60,195.6c-1.7-3.5-5.9-5-9.5-3.3c-1.5,0.7-2.6,1.9-3.3,3.3"/>
		<path class="st5" d="M47.2,201.7c1.7,3.5,5.9,5,9.5,3.3c1.5-0.7,2.6-1.9,3.3-3.3"/>
		<path class="st5" d="M46.4,194.3v1.3"/>
		<path class="st5" d="M46.4,201.7v1.3"/>
		<path class="st5" d="M212.7,174c-1.7-4.4-6.6-6.5-11-4.8c-1.7,0.7-3.2,1.9-4.2,3.5"/>
		<path class="st5" d="M197.6,181.4c2.4,4,7.6,5.3,11.6,2.9c1.6-1,2.8-2.4,3.5-4.2"/>
		<path class="st5" d="M211.2,174c-1.7-3.5-5.9-5-9.5-3.3c-1.5,0.7-2.6,1.9-3.3,3.3"/>
		<path class="st5" d="M198.4,180.1c1.7,3.5,5.9,5,9.5,3.3c1.5-0.7,2.6-1.9,3.3-3.3"/>
		<path class="st5" d="M197.6,172.7v1.3"/>
		<path class="st5" d="M197.6,180.1v1.3"/>
		<path class="st5" d="M187.5,174c-1.7-4.4-6.6-6.5-11-4.8c-1.7,0.7-3.2,1.9-4.2,3.5"/>
		<path class="st5" d="M172.4,181.4c2.4,4,7.6,5.3,11.6,2.9c1.6-1,2.8-2.4,3.5-4.2"/>
		<path class="st5" d="M186,174c-1.7-3.5-5.9-5-9.5-3.3c-1.5,0.7-2.6,1.9-3.3,3.3"/>
		<path class="st5" d="M173.2,180.1c1.7,3.5,5.9,5,9.5,3.3c1.5-0.7,2.6-1.9,3.3-3.3"/>
		<path class="st5" d="M172.4,172.7v1.3"/>
		<path class="st5" d="M172.4,180.1v1.3"/>
		<path class="st5" d="M162.3,174c-1.7-4.4-6.6-6.5-11-4.8c-1.7,0.7-3.2,1.9-4.2,3.5"/>
		<path class="st5" d="M147.2,181.4c2.4,4,7.6,5.3,11.6,2.9c1.6-1,2.8-2.4,3.5-4.2"/>
		<path class="st5" d="M160.8,174c-1.7-3.5-5.9-5-9.5-3.3c-1.5,0.7-2.6,1.9-3.3,3.3"/>
		<path class="st5" d="M148,180.1c1.7,3.5,5.9,5,9.5,3.3c1.5-0.7,2.6-1.9,3.3-3.3"/>
		<path class="st5" d="M147.2,172.7v1.3"/>
		<path class="st5" d="M147.2,180.1v1.3"/>
		<path class="st5" d="M137.1,174c-1.7-4.4-6.6-6.5-11-4.8c-1.7,0.7-3.2,1.9-4.2,3.5"/>
		<path class="st5" d="M122,181.4c2.4,4,7.6,5.3,11.6,2.9c1.6-1,2.8-2.4,3.5-4.2"/>
		<path class="st5" d="M135.6,174c-1.7-3.5-5.9-5-9.5-3.3c-1.5,0.7-2.6,1.9-3.3,3.3"/>
		<path class="st5" d="M122.8,180.1c1.7,3.5,5.9,5,9.5,3.3c1.5-0.7,2.6-1.9,3.3-3.3"/>
		<path class="st5" d="M122,172.7v1.3"/>
		<path class="st5" d="M122,180.1v1.3"/>
		<path class="st5" d="M111.9,174c-1.7-4.4-6.6-6.5-11-4.8c-1.7,0.7-3.2,1.9-4.2,3.5"/>
		<path class="st5" d="M96.8,181.4c2.4,4,7.6,5.3,11.6,2.9c1.6-1,2.8-2.4,3.5-4.2"/>
		<path class="st5" d="M110.4,174c-1.7-3.5-5.9-5-9.5-3.3c-1.5,0.7-2.6,1.9-3.3,3.3"/>
		<path class="st5" d="M97.6,180.1c1.7,3.5,5.9,5,9.5,3.3c1.5-0.7,2.6-1.9,3.3-3.3"/>
		<path class="st5" d="M96.8,172.7v1.3"/>
		<path class="st5" d="M96.8,180.1v1.3"/>
		<path class="st5" d="M86.7,174c-1.7-4.4-6.6-6.5-11-4.8c-1.7,0.7-3.2,1.9-4.2,3.5"/>
		<path class="st5" d="M71.6,181.4c2.4,4,7.6,5.3,11.6,2.9c1.6-1,2.8-2.4,3.5-4.2"/>
		<path class="st5" d="M85.2,174c-1.7-3.5-5.9-5-9.5-3.3c-1.5,0.7-2.6,1.9-3.3,3.3"/>
		<path class="st5" d="M72.4,180.1c1.7,3.5,5.9,5,9.5,3.3c1.5-0.7,2.6-1.9,3.3-3.3"/>
		<path class="st5" d="M71.6,172.7v1.3"/>
		<path class="st5" d="M71.6,180.1v1.3"/>
		<path class="st5" d="M61.5,174c-1.7-4.4-6.6-6.5-11-4.8c-1.7,0.7-3.2,1.9-4.2,3.5"/>
		<path class="st5" d="M46.4,181.4c2.4,4,7.6,5.3,11.6,2.9c1.6-1,2.8-2.4,3.5-4.2"/>
		<path class="st5" d="M60,174c-1.7-3.5-5.9-5-9.5-3.3c-1.5,0.7-2.6,1.9-3.3,3.3"/>
		<path class="st5" d="M47.2,180.1c1.7,3.5,5.9,5,9.5,3.3c1.5-0.7,2.6-1.9,3.3-3.3"/>
		<path class="st5" d="M46.4,172.7v1.3"/>
		<path class="st5" d="M46.4,180.1v1.3"/>
		<path class="st5" d="M194.1,68.5c1.7,4.4,6.6,6.5,11,4.8c1.7-0.7,3.2-1.9,4.2-3.5"/>
		<path class="st5" d="M209.2,61.1c-2.4-4-7.6-5.3-11.6-2.9c-1.6,1-2.8,2.4-3.5,4.2"/>
		<path class="st5" d="M195.6,68.5c1.7,3.5,5.9,5,9.5,3.3c1.5-0.7,2.6-1.9,3.3-3.3"/>
		<path class="st5" d="M208.3,62.4c-1.7-3.5-5.9-5-9.5-3.3c-1.5,0.7-2.6,1.9-3.3,3.3"/>
		<path class="st5" d="M209.2,69.8v-1.3"/>
		<path class="st5" d="M209.2,62.4v-1.3"/>
		<path class="st5" d="M212.7,152.4c-1.7-4.4-6.6-6.5-11-4.8c-1.7,0.7-3.2,1.9-4.2,3.5"/>
		<path class="st5" d="M197.6,159.8c2.4,4,7.6,5.3,11.6,2.9c1.6-1,2.8-2.4,3.5-4.2"/>
		<path class="st5" d="M211.2,152.4c-1.7-3.5-5.9-5-9.5-3.3c-1.5,0.7-2.6,1.9-3.3,3.3"/>
		<path class="st5" d="M198.4,158.5c1.7,3.5,5.9,5,9.5,3.3c1.5-0.7,2.6-1.9,3.3-3.3"/>
		<path class="st5" d="M197.6,151.1v1.3"/>
		<path class="st5" d="M197.6,158.5v1.3"/>
		<path class="st5" d="M187.5,152.4c-1.7-4.4-6.6-6.5-11-4.8c-1.7,0.7-3.2,1.9-4.2,3.5"/>
		<path class="st5" d="M172.4,159.8c2.4,4,7.6,5.3,11.6,2.9c1.6-1,2.8-2.4,3.5-4.2"/>
		<path class="st5" d="M186,152.4c-1.7-3.5-5.9-5-9.5-3.3c-1.5,0.7-2.6,1.9-3.3,3.3"/>
		<path class="st5" d="M173.2,158.5c1.7,3.5,5.9,5,9.5,3.3c1.5-0.7,2.6-1.9,3.3-3.3"/>
		<path class="st5" d="M172.4,151.1v1.3"/>
		<path class="st5" d="M172.4,158.5v1.3"/>
		<path class="st5" d="M162.3,152.4c-1.7-4.4-6.6-6.5-11-4.8c-1.7,0.7-3.2,1.9-4.2,3.5"/>
		<path class="st5" d="M147.2,159.8c2.4,4,7.6,5.3,11.6,2.9c1.6-1,2.8-2.4,3.5-4.2"/>
		<path class="st5" d="M160.8,152.4c-1.7-3.5-5.9-5-9.5-3.3c-1.5,0.7-2.6,1.9-3.3,3.3"/>
		<path class="st5" d="M148,158.5c1.7,3.5,5.9,5,9.5,3.3c1.5-0.7,2.6-1.9,3.3-3.3"/>
		<path class="st5" d="M147.2,151.1v1.3"/>
		<path class="st5" d="M147.2,158.5v1.3"/>
		<path class="st5" d="M137.1,152.4c-1.7-4.4-6.6-6.5-11-4.8c-1.7,0.7-3.2,1.9-4.2,3.5"/>
		<path class="st5" d="M122,159.8c2.4,4,7.6,5.3,11.6,2.9c1.6-1,2.8-2.4,3.5-4.2"/>
		<path class="st5" d="M135.6,152.4c-1.7-3.5-5.9-5-9.5-3.3c-1.5,0.7-2.6,1.9-3.3,3.3"/>
		<path class="st5" d="M122.8,158.5c1.7,3.5,5.9,5,9.5,3.3c1.5-0.7,2.6-1.9,3.3-3.3"/>
		<path class="st5" d="M122,151.1v1.3"/>
		<path class="st5" d="M122,158.5v1.3"/>
		<path class="st5" d="M111.9,152.4c-1.7-4.4-6.6-6.5-11-4.8c-1.7,0.7-3.2,1.9-4.2,3.5"/>
		<path class="st5" d="M96.8,159.8c2.4,4,7.6,5.3,11.6,2.9c1.6-1,2.8-2.4,3.5-4.2"/>
		<path class="st5" d="M110.4,152.4c-1.7-3.5-5.9-5-9.5-3.3c-1.5,0.7-2.6,1.9-3.3,3.3"/>
		<path class="st5" d="M97.6,158.5c1.7,3.5,5.9,5,9.5,3.3c1.5-0.7,2.6-1.9,3.3-3.3"/>
		<path class="st5" d="M96.8,151.1v1.3"/>
		<path class="st5" d="M96.8,158.5v1.3"/>
		<path class="st5" d="M86.7,152.4c-1.7-4.4-6.6-6.5-11-4.8c-1.7,0.7-3.2,1.9-4.2,3.5"/>
		<path class="st5" d="M71.6,159.8c2.4,4,7.6,5.3,11.6,2.9c1.6-1,2.8-2.4,3.5-4.2"/>
		<path class="st5" d="M85.2,152.4c-1.7-3.5-5.9-5-9.5-3.3c-1.5,0.7-2.6,1.9-3.3,3.3"/>
		<path class="st5" d="M72.4,158.5c1.7,3.5,5.9,5,9.5,3.3c1.5-0.7,2.6-1.9,3.3-3.3"/>
		<path class="st5" d="M71.6,151.1v1.3"/>
		<path class="st5" d="M71.6,158.5v1.3"/>
		<path class="st5" d="M61.5,152.4c-1.7-4.4-6.6-6.5-11-4.8c-1.7,0.7-3.2,1.9-4.2,3.5"/>
		<path class="st5" d="M46.4,159.8c2.4,4,7.6,5.3,11.6,2.9c1.6-1,2.8-2.4,3.5-4.2"/>
		<path class="st5" d="M60,152.4c-1.7-3.5-5.9-5-9.5-3.3c-1.5,0.7-2.6,1.9-3.3,3.3"/>
		<path class="st5" d="M47.2,158.5c1.7,3.5,5.9,5,9.5,3.3c1.5-0.7,2.6-1.9,3.3-3.3"/>
		<path class="st5" d="M46.4,151.1v1.3"/>
		<path class="st5" d="M46.4,158.5v1.3"/>
		<path class="st5" d="M212.7,130.8c-1.7-4.4-6.6-6.5-11-4.8c-1.7,0.7-3.2,1.9-4.2,3.5"/>
		<path class="st5" d="M197.6,138.2c2.4,4,7.6,5.3,11.6,2.9c1.6-1,2.8-2.4,3.5-4.2"/>
		<path class="st5" d="M211.2,130.8c-1.7-3.5-5.9-5-9.5-3.3c-1.5,0.7-2.6,1.9-3.3,3.3"/>
		<path class="st5" d="M198.4,136.9c1.7,3.5,5.9,5,9.5,3.3c1.5-0.7,2.6-1.9,3.3-3.3"/>
		<path class="st5" d="M197.6,129.5v1.3"/>
		<path class="st5" d="M197.6,136.9v1.3"/>
		<path class="st5" d="M187.5,130.8c-1.7-4.4-6.6-6.5-11-4.8c-1.7,0.7-3.2,1.9-4.2,3.5"/>
		<path class="st5" d="M172.4,138.2c2.4,4,7.6,5.3,11.6,2.9c1.6-1,2.8-2.4,3.5-4.2"/>
		<path class="st5" d="M186,130.8c-1.7-3.5-5.9-5-9.5-3.3c-1.5,0.7-2.6,1.9-3.3,3.3"/>
		<path class="st5" d="M173.2,136.9c1.7,3.5,5.9,5,9.5,3.3c1.5-0.7,2.6-1.9,3.3-3.3"/>
		<path class="st5" d="M172.4,129.5v1.3"/>
		<path class="st5" d="M172.4,136.9v1.3"/>
		<path class="st5" d="M162.3,130.8c-1.7-4.4-6.6-6.5-11-4.8c-1.7,0.7-3.2,1.9-4.2,3.5"/>
		<path class="st5" d="M147.2,138.2c2.4,4,7.6,5.3,11.6,2.9c1.6-1,2.8-2.4,3.5-4.2"/>
		<path class="st5" d="M160.8,130.8c-1.7-3.5-5.9-5-9.5-3.3c-1.5,0.7-2.6,1.9-3.3,3.3"/>
		<path class="st5" d="M148,136.9c1.7,3.5,5.9,5,9.5,3.3c1.5-0.7,2.6-1.9,3.3-3.3"/>
		<path class="st5" d="M147.2,129.5v1.3"/>
		<path class="st5" d="M147.2,136.9v1.3"/>
		<path class="st5" d="M137.1,130.8c-1.7-4.4-6.6-6.5-11-4.8c-1.7,0.7-3.2,1.9-4.2,3.5"/>
		<path class="st5" d="M122,138.2c2.4,4,7.6,5.3,11.6,2.9c1.6-1,2.8-2.4,3.5-4.2"/>
		<path class="st5" d="M135.6,130.8c-1.7-3.5-5.9-5-9.5-3.3c-1.5,0.7-2.6,1.9-3.3,3.3"/>
		<path class="st5" d="M122.8,136.9c1.7,3.5,5.9,5,9.5,3.3c1.5-0.7,2.6-1.9,3.3-3.3"/>
		<path class="st5" d="M122,129.5v1.3"/>
		<path class="st5" d="M122,136.9v1.3"/>
		<path class="st5" d="M111.9,130.8c-1.7-4.4-6.6-6.5-11-4.8c-1.7,0.7-3.2,1.9-4.2,3.5"/>
		<path class="st5" d="M96.8,138.2c2.4,4,7.6,5.3,11.6,2.9c1.6-1,2.8-2.4,3.5-4.2"/>
		<path class="st5" d="M110.4,130.8c-1.7-3.5-5.9-5-9.5-3.3c-1.5,0.7-2.6,1.9-3.3,3.3"/>
		<path class="st5" d="M97.6,136.9c1.7,3.5,5.9,5,9.5,3.3c1.5-0.7,2.6-1.9,3.3-3.3"/>
		<path class="st5" d="M96.8,129.5v1.3"/>
		<path class="st5" d="M96.8,136.9v1.3"/>
		<path class="st5" d="M86.7,130.8c-1.7-4.4-6.6-6.5-11-4.8c-1.7,0.7-3.2,1.9-4.2,3.5"/>
		<path class="st5" d="M71.6,138.2c2.4,4,7.6,5.3,11.6,2.9c1.6-1,2.8-2.4,3.5-4.2"/>
		<path class="st5" d="M85.2,130.8c-1.7-3.5-5.9-5-9.5-3.3c-1.5,0.7-2.6,1.9-3.3,3.3"/>
		<path class="st5" d="M72.4,136.9c1.7,3.5,5.9,5,9.5,3.3c1.5-0.7,2.6-1.9,3.3-3.3"/>
		<path class="st5" d="M71.6,129.5v1.3"/>
		<path class="st5" d="M71.6,136.9v1.3"/>
		<path class="st5" d="M61.5,130.8c-1.7-4.4-6.6-6.5-11-4.8c-1.7,0.7-3.2,1.9-4.2,3.5"/>
		<path class="st5" d="M46.4,138.2c2.4,4,7.6,5.3,11.6,2.9c1.6-1,2.8-2.4,3.5-4.2"/>
		<path class="st5" d="M60,130.8c-1.7-3.5-5.9-5-9.5-3.3c-1.5,0.7-2.6,1.9-3.3,3.3"/>
		<path class="st5" d="M47.2,136.9c1.7,3.5,5.9,5,9.5,3.3c1.5-0.7,2.6-1.9,3.3-3.3"/>
		<path class="st5" d="M46.4,129.5v1.3"/>
		<path class="st5" d="M46.4,136.9v1.3"/>
		<path class="st5" d="M69.6,51.2h1.5"/>
		<path class="st5" d="M69.6,55.2h1.5"/>
	</g>
	<g class="st3">
		<g transform="rotate(-90 29374.6 16490.4)">
			<g class="st6">
				<rect x="45743.1" y="-12676.2" class="st7" width="6.3" height="6.9"/>
				<text transform="matrix(1 0 0 1 45742.8008 -12672.583)" class="st8 st9 st10">R30</text>
			</g>
			<g class="st6">
				<rect x="45743.1" y="-12676.2" class="st7" width="6.3" height="6.9"/>
				<text transform="matrix(1 0 0 1 45742.8008 -12672.585)" class="st11 st9 st10">R30</text>
			</g>
		</g>
		<path class="st12" d="M212.8,120.5l-1.3,0.9"/>
		<path class="st12" d="M212.8,122.2h-2.8v-1.1l0.1-0.3l0.1-0.1l0.3-0.1h0.4l0.3,0.1l0.1,0.1l0.1,0.3v1.1"/>
		<path class="st12" d="M209.9,119.6v-1.8l1.1,0.9v-0.4l0.1-0.3l0.1-0.1l0.3-0.1h0.7l0.3,0.1l0.1,0.1l0.1,0.3v0.8l-0.1,0.3l-0.1,0.1
			"/>
		<path class="st12" d="M209.9,116.1v-0.3l0.1-0.3l0.1-0.1l0.3-0.1l0.5-0.1h0.7l0.5,0.1l0.3,0.1l0.1,0.1l0.1,0.3v0.3l-0.1,0.3
			l-0.1,0.1l-0.3,0.1l-0.5,0.1H211l-0.5-0.1l-0.3-0.1l-0.1-0.1L209.9,116.1"/>
		<g transform="rotate(-90 25174.6 16490.4)">
			<g class="st6">
				<rect x="41543.4" y="-8506.3" class="st7" width="5.7" height="6.9"/>
				<text transform="matrix(1 0 0 1 41542.8008 -8502.3926)" class="st8 st9 st10">R29</text>
			</g>
			<g class="st6">
				<rect x="41543.4" y="-8506.3" class="st7" width="5.7" height="6.9"/>
				<text transform="matrix(1 0 0 1 41542.8008 -8502.3945)" class="st11 st9 st10">R29</text>
			</g>
		</g>
		<path class="st12" d="M182.5,120.5l-1.3,0.9"/>
		<path class="st12" d="M182.5,122.2h-2.8v-1.1l0.1-0.3l0.1-0.1l0.3-0.1h0.4l0.3,0.1l0.1,0.1l0.1,0.3v1.1"/>
		<path class="st12" d="M180,119.5l-0.1-0.1l-0.1-0.3v-0.7l0.1-0.3l0.1-0.1l0.3-0.1h0.3l0.4,0.1l1.6,1.6v-1.8"/>
		<path class="st12" d="M182.5,116.5V116l-0.1-0.3l-0.1-0.1l-0.4-0.3l-0.5-0.1h-1.1l-0.3,0.1l-0.1,0.1l-0.1,0.3v0.5l0.1,0.3l0.1,0.1
			l0.3,0.1h0.7l0.3-0.1l0.1-0.1l0.1-0.3v-0.5l-0.1-0.3l-0.1-0.1l-0.3-0.1"/>
		<g transform="rotate(-90 24774.6 7790.35)">
			<g class="st6">
				<rect x="32506" y="-16809.2" class="st7" width="5.7" height="6.9"/>
				<text transform="matrix(1 0 0 1 32505.3926 -16805.3223)" class="st8 st9 st10">R28</text>
			</g>
			<g class="st6">
				<rect x="32506" y="-16809.2" class="st7" width="5.7" height="6.9"/>
				<text transform="matrix(1 0 0 1 32505.3906 -16805.3242)" class="st11 st9 st10">R28</text>
			</g>
		</g>
		<path class="st12" d="M179.7,57.9l-1.3,0.9"/>
		<path class="st12" d="M179.7,59.5h-2.8v-1.1l0.1-0.3l0.1-0.1l0.3-0.1h0.4L178,58l0.1,0.1l0.1,0.3v1.1"/>
		<path class="st12" d="M177.1,56.8l-0.1-0.1l-0.1-0.3v-0.7l0.1-0.3l0.1-0.1l0.3-0.1h0.3l0.4,0.1l1.6,1.6v-1.8"/>
		<path class="st12" d="M178,53.6l-0.1,0.3l-0.1,0.1l-0.3,0.1h-0.1l-0.3-0.1l-0.1-0.1l-0.1-0.3V53l0.1-0.3l0.1-0.1l0.3-0.1h0.1
			l0.3,0.1l0.1,0.1L178,53V53.6l0.1,0.3l0.1,0.1l0.3,0.1h0.5l0.3-0.1l0.1-0.1l0.1-0.3V53l-0.1-0.3l-0.1-0.1l-0.3-0.1h-0.5l-0.3,0.1
			l-0.1,0.1L178,53"/>
		<g transform="rotate(-90 25574.6 7790.35)">
			<g class="st6">
				<rect x="33306" y="-17603.4" class="st7" width="5.7" height="6.9"/>
				<text transform="matrix(1 0 0 1 33305.3906 -17599.5625)" class="st8 st9 st10">R27</text>
			</g>
			<g class="st6">
				<rect x="33306" y="-17603.4" class="st7" width="5.7" height="6.9"/>
				<text transform="matrix(1 0 0 1 33305.3906 -17599.5645)" class="st11 st9 st10">R27</text>
			</g>
		</g>
		<path class="st12" d="M185.4,57.9l-1.3,0.9"/>
		<path class="st12" d="M185.4,59.5h-2.8v-1.1l0.1-0.3l0.1-0.1l0.3-0.1h0.4l0.3,0.1l0.1,0.1l0.1,0.3v1.1"/>
		<path class="st12" d="M182.9,56.8l-0.1-0.1l-0.1-0.3v-0.7l0.1-0.3l0.1-0.1l0.3-0.1h0.3l0.4,0.1l1.6,1.6v-1.8"/>
		<path class="st12" d="M182.6,54.3v-1.9l2.8,1.2"/>
		<g transform="rotate(-90 20974.6 16490.4)">
			<g class="st6">
				<rect x="37343.4" y="-4336.5" class="st7" width="5.7" height="6.9"/>
				<text transform="matrix(1 0 0 1 37342.8008 -4332.6318)" class="st8 st9 st10">R26</text>
			</g>
			<g class="st6">
				<rect x="37343.4" y="-4336.5" class="st7" width="5.7" height="6.9"/>
				<text transform="matrix(1 0 0 1 37342.8008 -4332.6338)" class="st11 st9 st10">R26</text>
			</g>
		</g>
		<path class="st12" d="M152.3,120.5l-1.3,0.9"/>
		<path class="st12" d="M152.3,122.2h-2.8v-1.1l0.1-0.3l0.1-0.1l0.3-0.1h0.4l0.3,0.1l0.1,0.1l0.1,0.3v1.1"/>
		<path class="st12" d="M149.7,119.5l-0.1-0.1l-0.1-0.3v-0.7l0.1-0.3l0.1-0.1l0.3-0.1h0.3l0.4,0.1l1.6,1.6v-1.8"/>
		<path class="st12" d="M149.5,115.4v0.5l0.1,0.3l0.1,0.1l0.4,0.3l0.5,0.1h1.1l0.3-0.1l0.1-0.1l0.1-0.3v-0.5l-0.1-0.3l-0.1-0.1
			l-0.3-0.1h-0.7l-0.3,0.1l-0.1,0.1l-0.1,0.3v0.5l0.1,0.3l0.1,0.1l0.3,0.1"/>
		<g transform="rotate(-90 26374.6 7790.35)">
			<g class="st6">
				<rect x="34106" y="-18397.7" class="st7" width="5.7" height="6.9"/>
				<text transform="matrix(1 0 0 1 34105.3906 -18393.8027)" class="st8 st9 st10">R25</text>
			</g>
			<g class="st6">
				<rect x="34106" y="-18397.7" class="st7" width="5.7" height="6.9"/>
				<text transform="matrix(1 0 0 1 34105.3906 -18393.8047)" class="st11 st9 st10">R25</text>
			</g>
		</g>
		<path class="st12" d="M191.2,57.9l-1.3,0.9"/>
		<path class="st12" d="M191.2,59.5h-2.8v-1.1l0.1-0.3l0.1-0.1l0.3-0.1h0.4l0.3,0.1l0.1,0.1l0.1,0.3v1.1"/>
		<path class="st12" d="M188.6,56.8l-0.1-0.1l-0.1-0.3v-0.7l0.1-0.3l0.1-0.1l0.3-0.1h0.3l0.4,0.1l1.6,1.6v-1.8"/>
		<path class="st12" d="M188.3,52.6V54l1.4,0.1l-0.1-0.1l-0.1-0.3V53l0.1-0.3l0.1-0.1l0.3-0.1h0.7l0.3,0.1l0.1,0.1l0.1,0.3v0.7
			L191,54l-0.1,0.1"/>
		<g transform="rotate(-90 26241.9 4490.35)">
			<g class="st6">
				<rect x="30696.9" y="-21564.6" class="st7" width="6.1" height="4"/>
				<text transform="matrix(1 0 0 1 30697.9238 -21562.3457)" class="st8 st9 st10">J3</text>
			</g>
			<g class="st6">
				<rect x="30696.9" y="-21564.6" class="st7" width="6.1" height="4"/>
				<text transform="matrix(1 0 0 1 30697.9219 -21562.3477)" class="st11 st9 st10">J3</text>
			</g>
		</g>
		<path class="st12" d="M187.4,33.3h2l0.4,0.1l0.3,0.3l0.1,0.4v0.3"/>
		<path class="st12" d="M187.4,32.2v-1.8l1.1,1V31l0.1-0.3l0.1-0.1l0.3-0.1h0.7l0.3,0.1l0.1,0.1l0.1,0.3v0.8l-0.1,0.3l-0.1,0.1"/>
		<g transform="rotate(-90 19174.6 5590.35)">
			<g class="st6">
				<rect x="24721.8" y="-13448.5" class="st7" width="5.8" height="4.8"/>
				<text transform="matrix(1 0 0 1 24722.2832 -13445.709)" class="st8 st9 st10">U2</text>
			</g>
			<g class="st6">
				<rect x="24721.8" y="-13448.5" class="st7" width="5.8" height="4.8"/>
				<text transform="matrix(1 0 0 1 24722.2813 -13445.7109)" class="st11 st9 st10">U2</text>
			</g>
		</g>
		<path class="st12" d="M136.5,42.4h2.3l0.3-0.1l0.1-0.1l0.1-0.3v-0.5l-0.1-0.3l-0.1-0.1l-0.3-0.1h-2.3"/>
		<path class="st12" d="M136.8,39.6l-0.1-0.1l-0.1-0.3v-0.7l0.1-0.3l0.1-0.1L137,38h0.3l0.4,0.1l1.6,1.6V38"/>
		<g transform="rotate(-90 15374.6 9990.35)">
			<g class="st6">
				<rect x="25290.1" y="-5275.8" class="st7" width="5.8" height="4.8"/>
				<text transform="matrix(1 0 0 1 25290.6035 -5273.0688)" class="st8 st9 st10">U1</text>
			</g>
			<g class="st6">
				<rect x="25290.1" y="-5275.9" class="st7" width="5.8" height="4.8"/>
				<text transform="matrix(1 0 0 1 25290.6016 -5273.0708)" class="st11 st9 st10">U1</text>
			</g>
		</g>
		<path class="st12" d="M109.1,74.1h2.3l0.3-0.1l0.1-0.1l0.1-0.3V73l-0.1-0.3l-0.1-0.1l-0.3-0.1h-2.3"/>
		<path class="st12" d="M112,69.6v1.6"/>
		<path class="st12" d="M112,70.4h-2.8l0.4,0.3l0.3,0.3l0.1,0.3"/>
		<g transform="rotate(-90 7154.12 5390.35)">
			<g class="st6">
				<rect x="12503.1" y="-1717.2" class="st7" width="5.2" height="10.3"/>
				<text transform="matrix(1 0 0 1 12500.5137 -1711.3467)" class="st8 st9 st10">SW10</text>
			</g>
			<g class="st6">
				<rect x="12503.1" y="-1717.2" class="st7" width="5.2" height="10.3"/>
				<text transform="matrix(1 0 0 1 12500.5127 -1711.3486)" class="st11 st9 st10">SW10</text>
			</g>
		</g>
		<path class="st12" d="M52.7,43.9l0.1-0.4v-0.7l-0.1-0.3l-0.1-0.1l-0.3-0.1H52l-0.3,0.1l-0.1,0.1l-0.1,0.3l-0.1,0.5l-0.1,0.3
			L51,43.8l-0.3,0.1h-0.3l-0.3-0.1l-0.1-0.1L50,43.4v-0.7l0.1-0.4"/>
		<path class="st12" d="M50,41.4l2.8-0.7l-2-0.5l2-0.5L50,38.9"/>
		<path class="st12" d="M52.8,36.4V38"/>
		<path class="st12" d="M52.8,37.2H50l0.4,0.3l0.3,0.3l0.1,0.3"/>
		<path class="st12" d="M50,34.6v-0.3l0.1-0.3l0.1-0.1l0.3-0.1l0.5-0.1h0.7l0.5,0.1l0.3,0.1l0.1,0.1l0.1,0.3v0.3l-0.1,0.3L52.5,35
			l-0.3,0.1l-0.5,0.1H51l-0.5-0.1L50.2,35l-0.1-0.1L50,34.6"/>
		<g transform="rotate(-90 28795.1 5390.35)">
			<g class="st6">
				<rect x="34144.1" y="-23201.2" class="st7" width="5" height="8.2"/>
				<text transform="matrix(1 0 0 1 34142.543 -23196.4043)" class="st8 st9 st10">SW9</text>
			</g>
			<g class="st6">
				<rect x="34144.1" y="-23201.2" class="st7" width="5" height="8.2"/>
				<text transform="matrix(1 0 0 1 34142.543 -23196.4063)" class="st11 st9 st10">SW9</text>
			</g>
		</g>
		<path class="st12" d="M208.5,42.6l0.1-0.4v-0.7l-0.1-0.3l-0.1-0.1l-0.3-0.1h-0.3l-0.3,0.1l-0.1,0.1l-0.1,0.3l-0.1,0.5l-0.1,0.3
			l-0.1,0.1l-0.3,0.1h-0.3l-0.3-0.1l-0.1-0.1l-0.1-0.3v-0.7l0.1-0.4"/>
		<path class="st12" d="M205.8,40l2.8-0.7l-2-0.5l2-0.5l-2.8-0.7"/>
		<path class="st12" d="M208.6,36.4v-0.5l-0.1-0.3l-0.1-0.1l-0.4-0.3l-0.5-0.1h-1.1l-0.3,0.1l-0.1,0.1l-0.1,0.3v0.5l0.1,0.3l0.1,0.1
			l0.3,0.1h0.7l0.3-0.1l0.1-0.1l0.1-0.3v-0.5l-0.1-0.3l-0.1-0.1L207,35"/>
		<g transform="rotate(-90 27577 13348.6)">
			<g class="st6">
				<rect x="40827" y="-14033.7" class="st7" width="5" height="8.2"/>
				<text transform="matrix(1 0 0 1 40825.3984 -14028.8252)" class="st8 st9 st10">SW8</text>
			</g>
			<g class="st6">
				<rect x="40827" y="-14033.7" class="st7" width="5" height="8.2"/>
				<text transform="matrix(1 0 0 1 40825.3945 -14028.8262)" class="st11 st9 st10">SW8</text>
			</g>
		</g>
		<path class="st12" d="M199.7,99.9l0.1-0.4v-0.7l-0.1-0.3l-0.1-0.1l-0.3-0.1H199l-0.3,0.1l-0.1,0.1l-0.1,0.3l-0.1,0.5l-0.1,0.3
			l-0.1,0.1l-0.3,0.1h-0.3l-0.3-0.1l-0.1-0.1l-0.1-0.3v-0.7l0.1-0.4"/>
		<path class="st12" d="M197,97.3l2.8-0.7l-2-0.5l2-0.5l-2.8-0.7"/>
		<path class="st12" d="M198.2,93.4l-0.1,0.3l-0.1,0.1l-0.3,0.1h-0.1l-0.3-0.1l-0.1-0.1l-0.1-0.3v-0.5l0.1-0.3l0.1-0.1l0.3-0.1h0.1
			l0.3,0.1l0.1,0.1l0.1,0.3V93.4l0.1,0.3l0.1,0.1l0.3,0.1h0.5l0.3-0.1l0.1-0.1l0.1-0.3v-0.5l-0.1-0.3l-0.1-0.1l-0.3-0.1h-0.5
			l-0.3,0.1l-0.1,0.1l-0.1,0.3"/>
		<g transform="rotate(-90 24077 13348.6)">
			<g class="st6">
				<rect x="37327" y="-10558.9" class="st7" width="5" height="8.2"/>
				<text transform="matrix(1 0 0 1 37325.3984 -10554.0254)" class="st8 st9 st10">SW7</text>
			</g>
			<g class="st6">
				<rect x="37327" y="-10558.9" class="st7" width="5" height="8.2"/>
				<text transform="matrix(1 0 0 1 37325.3945 -10554.0264)" class="st11 st9 st10">SW7</text>
			</g>
		</g>
		<path class="st12" d="M174.5,99.9l0.1-0.4v-0.7l-0.1-0.3l-0.1-0.1l-0.3-0.1h-0.3l-0.3,0.1l-0.1,0.1l-0.1,0.3l-0.1,0.5l-0.1,0.3
			l-0.1,0.1l-0.3,0.1h-0.3l-0.3-0.1l-0.1-0.1l-0.1-0.3v-0.7l0.1-0.4"/>
		<path class="st12" d="M171.8,97.3l2.8-0.7l-2-0.5l2-0.5l-2.8-0.7"/>
		<path class="st12" d="M171.8,94.1v-1.9l2.8,1.2"/>
		<g transform="rotate(-90 20577 13348.6)">
			<g class="st6">
				<rect x="33827" y="-7084.1" class="st7" width="5" height="8.2"/>
				<text transform="matrix(1 0 0 1 33825.3984 -7079.2246)" class="st8 st9 st10">SW6</text>
			</g>
			<g class="st6">
				<rect x="33827" y="-7084.1" class="st7" width="5" height="8.2"/>
				<text transform="matrix(1 0 0 1 33825.3945 -7079.2266)" class="st11 st9 st10">SW6</text>
			</g>
		</g>
		<path class="st12" d="M149.3,99.9l0.1-0.4v-0.7l-0.1-0.3l-0.1-0.1l-0.3-0.1h-0.3l-0.3,0.1l-0.1,0.1l-0.1,0.3l-0.1,0.5l-0.1,0.3
			l-0.1,0.1l-0.3,0.1h-0.3l-0.3-0.1l-0.1-0.1l-0.1-0.3v-0.7l0.1-0.4"/>
		<path class="st12" d="M146.6,97.3l2.8-0.7l-2-0.5l2-0.5l-2.8-0.7"/>
		<path class="st12" d="M146.6,92.6v0.5l0.1,0.3l0.1,0.1l0.4,0.3l0.5,0.1h1.1l0.3-0.1l0.1-0.1l0.1-0.3v-0.5l-0.1-0.3l-0.1-0.1
			l-0.3-0.1h-0.7l-0.3,0.1l-0.1,0.1l-0.1,0.3v0.5l0.1,0.3l0.1,0.1l0.3,0.1"/>
		<g transform="rotate(-90 17077 13348.6)">
			<g class="st6">
				<rect x="30327" y="-3609.3" class="st7" width="5" height="8.2"/>
				<text transform="matrix(1 0 0 1 30325.3945 -3604.4248)" class="st8 st9 st10">SW5</text>
			</g>
			<g class="st6">
				<rect x="30327" y="-3609.3" class="st7" width="5" height="8.2"/>
				<text transform="matrix(1 0 0 1 30325.3926 -3604.4263)" class="st11 st9 st10">SW5</text>
			</g>
		</g>
		<path class="st12" d="M124.1,99.9l0.1-0.4v-0.7l-0.1-0.3l-0.1-0.1l-0.3-0.1h-0.3l-0.3,0.1l-0.1,0.1l-0.1,0.3l-0.1,0.5l-0.1,0.3
			l-0.1,0.1l-0.3,0.1h-0.3l-0.3-0.1l-0.1-0.1l-0.1-0.3v-0.7l0.1-0.4"/>
		<path class="st12" d="M121.4,97.3l2.8-0.7l-2-0.5l2-0.5l-2.8-0.7"/>
		<path class="st12" d="M121.4,92.5v1.3l1.3,0.1l-0.1-0.1l-0.1-0.3v-0.7l0.1-0.3l0.1-0.1l0.3-0.1h0.7l0.3,0.1l0.1,0.1l0.1,0.3v0.7
			l-0.1,0.3l-0.1,0.1"/>
		<g transform="rotate(-90 13577 13348.6)">
			<g class="st6">
				<rect x="26827" y="-134.5" class="st7" width="5" height="8.2"/>
				<text transform="matrix(1 0 0 1 26825.3945 -129.6245)" class="st8 st9 st10">SW4</text>
			</g>
			<g class="st6">
				<rect x="26827" y="-134.5" class="st7" width="5" height="8.2"/>
				<text transform="matrix(1 0 0 1 26825.3926 -129.6265)" class="st11 st9 st10">SW4</text>
			</g>
		</g>
		<path class="st12" d="M98.9,99.9l0.1-0.4v-0.7l-0.1-0.3l-0.1-0.1l-0.3-0.1h-0.3L98,98.4l-0.1,0.1l-0.1,0.3l-0.1,0.5l-0.1,0.3
			l-0.1,0.1L97,99.9h-0.3l-0.3-0.1l-0.1-0.1l-0.1-0.3v-0.7l0.1-0.4"/>
		<path class="st12" d="M96.2,97.3l2.8-0.7l-2-0.5l2-0.5l-2.8-0.7"/>
		<path class="st12" d="M97.1,92.6H99"/>
		<path class="st12" d="M96.1,93.3l2,0.7v-1.8"/>
		<g transform="rotate(-90 10077 13348.6)">
			<g class="st6">
				<rect x="23327" y="3340.3" class="st7" width="5" height="8.2"/>
				<text transform="matrix(1 0 0 1 23325.3945 3345.1753)" class="st8 st9 st10">SW3</text>
			</g>
			<g class="st6">
				<rect x="23327" y="3340.3" class="st7" width="5" height="8.2"/>
				<text transform="matrix(1 0 0 1 23325.3926 3345.1738)" class="st11 st9 st10">SW3</text>
			</g>
		</g>
		<path class="st12" d="M73.7,99.9l0.1-0.4v-0.7l-0.1-0.3l-0.1-0.1l-0.3-0.1H73l-0.3,0.1l-0.1,0.1l-0.1,0.3l-0.1,0.5l-0.1,0.3
			l-0.1,0.1l-0.3,0.1h-0.3l-0.3-0.1l-0.1-0.1L71,99.3v-0.7l0.1-0.4"/>
		<path class="st12" d="M71,97.3l2.8-0.7l-2-0.5l2-0.5L71,94.9"/>
		<path class="st12" d="M71,94.1v-1.8l1.1,0.9v-0.4l0.1-0.3l0.1-0.1l0.3-0.1h0.7l0.3,0.1l0.1,0.1l0.1,0.3v0.8l-0.1,0.3l-0.1,0.1"/>
		<g transform="rotate(-90 6576.96 13348.6)">
			<g class="st6">
				<rect x="19826.9" y="6815.2" class="st7" width="5" height="8.2"/>
				<text transform="matrix(1 0 0 1 19825.3535 6820.0151)" class="st8 st9 st10">SW2</text>
			</g>
			<g class="st6">
				<rect x="19826.9" y="6815.2" class="st7" width="5" height="8.2"/>
				<text transform="matrix(1 0 0 1 19825.3516 6820.0132)" class="st11 st9 st10">SW2</text>
			</g>
		</g>
		<path class="st12" d="M48.5,99.9l0.1-0.4v-0.7l-0.1-0.3l-0.1-0.1l-0.3-0.1h-0.3l-0.3,0.1l-0.1,0.1l-0.1,0.3l-0.1,0.5L47,99.6
			l-0.1,0.1l-0.3,0.1h-0.3l-0.3-0.1l-0.1-0.1l-0.1-0.3v-0.7l0.1-0.4"/>
		<path class="st12" d="M45.8,97.3l2.8-0.7l-2-0.5l2-0.5l-2.8-0.7"/>
		<path class="st12" d="M46.1,93.9l-0.1-0.1l-0.1-0.3v-0.7l0.1-0.3l0.1-0.1l0.3-0.1h0.3l0.4,0.1l1.6,1.6v-1.8"/>
		<g transform="rotate(-90 11974.6 8990.35)">
			<g class="st6">
				<rect x="20897.7" y="-2901.8" class="st7" width="5" height="8.2"/>
				<text transform="matrix(1 0 0 1 20896.123 -2897.0117)" class="st8 st9 st10">SW1</text>
			</g>
			<g class="st6">
				<rect x="20897.7" y="-2901.8" class="st7" width="5" height="8.2"/>
				<text transform="matrix(1 0 0 1 20896.123 -2897.0137)" class="st11 st9 st10">SW1</text>
			</g>
		</g>
		<path class="st12" d="M87.4,68.5l0.1-0.4v-0.7l-0.1-0.3L87.2,67L87,66.9h-0.3L86.4,67l-0.1,0.1l-0.1,0.3L86,68l-0.1,0.3l-0.1,0.1
			l-0.3,0.1h-0.3l-0.3-0.1l-0.1-0.1L84.7,68v-0.7l0.1-0.4"/>
		<path class="st12" d="M84.7,65.9l2.8-0.7l-2-0.5l2-0.5l-2.8-0.7"/>
		<path class="st12" d="M87.5,60.9v1.6"/>
		<path class="st12" d="M87.5,61.8h-2.8l0.4,0.3l0.3,0.3l0.1,0.3"/>
		<g transform="rotate(-90 16774.6 16490.4)">
			<g class="st6">
				<rect x="33143.4" y="-166.7" class="st7" width="5.7" height="6.9"/>
				<text transform="matrix(1 0 0 1 33142.8008 -162.8721)" class="st8 st9 st10">R24</text>
			</g>
			<g class="st6">
				<rect x="33143.4" y="-166.8" class="st7" width="5.7" height="6.9"/>
				<text transform="matrix(1 0 0 1 33142.8008 -162.874)" class="st11 st9 st10">R24</text>
			</g>
		</g>
		<path class="st12" d="M122.1,120.5l-1.3,0.9"/>
		<path class="st12" d="M122.1,122.2h-2.8v-1.1l0.1-0.3l0.1-0.1l0.3-0.1h0.4l0.3,0.1l0.1,0.1l0.1,0.3v1.1"/>
		<path class="st12" d="M119.5,119.5l-0.1-0.1l-0.1-0.3v-0.7l0.1-0.3l0.1-0.1l0.3-0.1h0.3l0.4,0.1l1.6,1.6v-1.8"/>
		<path class="st12" d="M120.2,115.4h1.9"/>
		<path class="st12" d="M119.1,116.1l2,0.7V115"/>
		<g transform="rotate(-90 12574.6 16490.4)">
			<g class="st6">
				<rect x="28943.4" y="4003" class="st7" width="5.7" height="6.9"/>
				<text transform="matrix(1 0 0 1 28942.8027 4006.8882)" class="st8 st9 st10">R23</text>
			</g>
			<g class="st6">
				<rect x="28943.4" y="4003" class="st7" width="5.7" height="6.9"/>
				<text transform="matrix(1 0 0 1 28942.8008 4006.8862)" class="st11 st9 st10">R23</text>
			</g>
		</g>
		<path class="st12" d="M91.8,120.5l-1.3,0.9"/>
		<path class="st12" d="M91.8,122.2H89v-1.1l0.1-0.3l0.1-0.1l0.3-0.1h0.4l0.3,0.1l0.1,0.1l0.1,0.3v1.1"/>
		<path class="st12" d="M89.3,119.5l-0.1-0.1l-0.1-0.3v-0.7l0.1-0.3l0.1-0.1l0.3-0.1h0.3l0.4,0.1l1.6,1.6v-1.8"/>
		<path class="st12" d="M89,116.9v-1.8l1.1,0.9v-0.4l0.1-0.3l0.1-0.1l0.3-0.1h0.7l0.3,0.1l0.1,0.1l0.1,0.3v0.8l-0.1,0.3l-0.1,0.1"/>
		<g transform="rotate(-90 8374.6 16490.4)">
			<g class="st6">
				<rect x="24743.4" y="8172.8" class="st7" width="5.7" height="6.9"/>
				<text transform="matrix(1 0 0 1 24742.8027 8176.6479)" class="st8 st9 st10">R22</text>
			</g>
			<g class="st6">
				<rect x="24743.4" y="8172.8" class="st7" width="5.7" height="6.9"/>
				<text transform="matrix(1 0 0 1 24742.8008 8176.646)" class="st11 st9 st10">R22</text>
			</g>
		</g>
		<path class="st12" d="M61.6,120.5l-1.3,0.9"/>
		<path class="st12" d="M61.6,122.2h-2.8v-1.1l0.1-0.3l0.1-0.1l0.3-0.1h0.4l0.3,0.1l0.1,0.1l0.1,0.3v1.1"/>
		<path class="st12" d="M59,119.5l-0.1-0.1l-0.1-0.3v-0.7l0.1-0.3L59,118l0.3-0.1h0.3L60,118l1.6,1.6v-1.8"/>
		<path class="st12" d="M59,116.8l-0.1-0.1l-0.1-0.3v-0.7l0.1-0.3l0.1-0.1l0.3-0.1h0.3l0.4,0.1l1.6,1.6v-1.8"/>
		<g transform="rotate(-90 27574.6 16190.4)">
			<g class="st6">
				<rect x="43645.7" y="-11188" class="st7" width="5.5" height="5"/>
				<text transform="matrix(1 0 0 1 43645.9063 -11185.0049)" class="st8 st9 st10">Q6</text>
			</g>
			<g class="st6">
				<rect x="43645.7" y="-11188" class="st7" width="5.5" height="5"/>
				<text transform="matrix(1 0 0 1 43645.9063 -11185.0059)" class="st11 st9 st10">Q6</text>
			</g>
		</g>
		<path class="st12" d="M200.1,116.8l-0.1,0.3l-0.3,0.3l-0.4,0.4l-0.1,0.3v0.3"/>
		<path class="st12" d="M199.8,118.2l-0.1,0.3l-0.3,0.3l-0.5,0.1h-0.9l-0.5-0.1l-0.3-0.3l-0.1-0.3v-0.5l0.1-0.3l0.3-0.3l0.5-0.1h0.9
			l0.5,0.1l0.3,0.3l0.1,0.3V118.2"/>
		<path class="st12" d="M197,114.5v0.5l0.1,0.3l0.1,0.1l0.4,0.3l0.5,0.1h1.1l0.3-0.1l0.1-0.1l0.1-0.3v-0.5l-0.1-0.3l-0.1-0.1
			l-0.3-0.1h-0.7l-0.3,0.1l-0.1,0.1l-0.1,0.3v0.5l0.1,0.3l0.1,0.1l0.3,0.1"/>
		<g transform="rotate(-90 23374.6 16190.4)">
			<g class="st6">
				<rect x="39445.7" y="-7018.3" class="st7" width="5.5" height="5"/>
				<text transform="matrix(1 0 0 1 39445.9063 -7015.2441)" class="st8 st9 st10">Q5</text>
			</g>
			<g class="st6">
				<rect x="39445.7" y="-7018.3" class="st7" width="5.5" height="5"/>
				<text transform="matrix(1 0 0 1 39445.9063 -7015.2461)" class="st11 st9 st10">Q5</text>
			</g>
		</g>
		<path class="st12" d="M169.8,116.8l-0.1,0.3l-0.3,0.3l-0.4,0.4l-0.1,0.3v0.3"/>
		<path class="st12" d="M169.6,118.2l-0.1,0.3l-0.3,0.3l-0.5,0.1h-0.9l-0.5-0.1l-0.3-0.3l-0.1-0.3v-0.5l0.1-0.3l0.3-0.3l0.5-0.1h0.9
			l0.5,0.1l0.3,0.3l0.1,0.3V118.2"/>
		<path class="st12" d="M166.7,114.4v1.3l1.4,0.1l-0.1-0.1l-0.1-0.3v-0.7l0.1-0.3l0.1-0.1l0.3-0.1h0.7l0.3,0.1l0.1,0.1l0.1,0.3v0.7
			l-0.1,0.3l-0.1,0.1"/>
		<g transform="rotate(-90 19174.6 16190.4)">
			<g class="st6">
				<rect x="35245.7" y="-2848.5" class="st7" width="5.5" height="5"/>
				<text transform="matrix(1 0 0 1 35245.9063 -2845.4844)" class="st8 st9 st10">Q4</text>
			</g>
			<g class="st6">
				<rect x="35245.7" y="-2848.5" class="st7" width="5.5" height="5"/>
				<text transform="matrix(1 0 0 1 35245.9063 -2845.4858)" class="st11 st9 st10">Q4</text>
			</g>
		</g>
		<path class="st12" d="M139.6,116.8l-0.1,0.3l-0.3,0.3l-0.4,0.4l-0.1,0.3v0.3"/>
		<path class="st12" d="M139.3,118.2l-0.1,0.3l-0.3,0.3l-0.5,0.1h-0.9l-0.5-0.1l-0.3-0.3l-0.1-0.3v-0.5l0.1-0.3l0.3-0.3l0.5-0.1h0.9
			l0.5,0.1l0.3,0.3l0.1,0.3V118.2"/>
		<path class="st12" d="M137.4,114.5h1.9"/>
		<path class="st12" d="M136.4,115.2l2,0.7v-1.8"/>
		<g transform="rotate(-90 14974.6 16190.4)">
			<g class="st6">
				<rect x="31045.7" y="1321.3" class="st7" width="5.5" height="5"/>
				<text transform="matrix(1 0 0 1 31045.9082 1324.2759)" class="st8 st9 st10">Q3</text>
			</g>
			<g class="st6">
				<rect x="31045.7" y="1321.3" class="st7" width="5.5" height="5"/>
				<text transform="matrix(1 0 0 1 31045.9063 1324.2739)" class="st11 st9 st10">Q3</text>
			</g>
		</g>
		<path class="st12" d="M109.4,116.8l-0.1,0.3l-0.3,0.3l-0.4,0.4l-0.1,0.3v0.3"/>
		<path class="st12" d="M109.1,118.2l-0.1,0.3l-0.3,0.3l-0.5,0.1h-0.9l-0.5-0.1l-0.3-0.3l-0.1-0.3v-0.5l0.1-0.3l0.3-0.3l0.5-0.1h0.9
			l0.5,0.1l0.3,0.3l0.1,0.3V118.2"/>
		<path class="st12" d="M106.3,116v-1.8l1.1,0.9v-0.4l0.1-0.3l0.1-0.1l0.3-0.1h0.7l0.3,0.1l0.1,0.1l0.1,0.3v0.8l-0.1,0.3l-0.1,0.1"
			/>
		<g transform="rotate(-90 10774.6 16190.4)">
			<g class="st6">
				<rect x="26845.7" y="5491" class="st7" width="5.5" height="5"/>
				<text transform="matrix(1 0 0 1 26845.9082 5494.0356)" class="st8 st9 st10">Q2</text>
			</g>
			<g class="st6">
				<rect x="26845.7" y="5491" class="st7" width="5.5" height="5"/>
				<text transform="matrix(1 0 0 1 26845.9063 5494.0342)" class="st11 st9 st10">Q2</text>
			</g>
		</g>
		<path class="st12" d="M79.1,116.8l-0.1,0.3l-0.3,0.3l-0.4,0.4l-0.1,0.3v0.3"/>
		<path class="st12" d="M78.9,118.2l-0.1,0.3l-0.3,0.3l-0.5,0.1H77l-0.5-0.1l-0.3-0.3l-0.1-0.3v-0.5l0.1-0.3l0.3-0.3L77,117h0.9
			l0.5,0.1l0.3,0.3l0.1,0.3V118.2"/>
		<path class="st12" d="M76.3,115.9l-0.1-0.1l-0.1-0.3v-0.7l0.1-0.3l0.1-0.1l0.3-0.1h0.3l0.4,0.1l1.6,1.6v-1.8"/>
		<g transform="rotate(-90 6574.6 16190.4)">
			<g class="st6">
				<rect x="22645.7" y="9660.8" class="st7" width="5.5" height="5"/>
				<text transform="matrix(1 0 0 1 22645.9082 9663.7959)" class="st8 st9 st10">Q1</text>
			</g>
			<g class="st6">
				<rect x="22645.7" y="9660.8" class="st7" width="5.5" height="5"/>
				<text transform="matrix(1 0 0 1 22645.9063 9663.7939)" class="st11 st9 st10">Q1</text>
			</g>
		</g>
		<path class="st12" d="M48.9,116.8l-0.1,0.3l-0.3,0.3l-0.4,0.4l-0.1,0.3v0.3"/>
		<path class="st12" d="M48.6,118.2l-0.1,0.3l-0.3,0.3l-0.5,0.1h-0.9l-0.5-0.1l-0.3-0.3l-0.1-0.3v-0.5l0.1-0.3l0.3-0.3l0.5-0.1h0.9
			l0.5,0.1l0.3,0.3l0.1,0.3V118.2"/>
		<path class="st12" d="M48.6,114.3v1.6"/>
		<path class="st12" d="M48.6,115.1h-2.8l0.4,0.3l0.3,0.3l0.1,0.3"/>
		<g transform="rotate(-90 9607.27 4490.35)">
			<g class="st6">
				<rect x="14062.3" y="-5049.7" class="st7" width="6.1" height="4"/>
				<text transform="matrix(1 0 0 1 14063.293 -5047.4839)" class="st8 st9 st10">J4</text>
			</g>
			<g class="st6">
				<rect x="14062.3" y="-5049.7" class="st7" width="6.1" height="4"/>
				<text transform="matrix(1 0 0 1 14063.291 -5047.4858)" class="st11 st9 st10">J4</text>
			</g>
		</g>
		<path class="st12" d="M67.6,33.3h2l0.4,0.1l0.3,0.3l0.1,0.4v0.3"/>
		<path class="st12" d="M68.6,30.7h1.9"/>
		<path class="st12" d="M67.5,31.4l2,0.7v-1.7"/>
		<g transform="rotate(-90 6374.6 10990.4)">
			<g class="st6">
				<rect x="17282.8" y="4659.8" class="st7" width="6.1" height="4"/>
				<text transform="matrix(1 0 0 1 17283.873 4661.9604)" class="st8 st9 st10">J2</text>
			</g>
			<g class="st6">
				<rect x="17282.8" y="4659.8" class="st7" width="6.1" height="4"/>
				<text transform="matrix(1 0 0 1 17283.8711 4661.9585)" class="st11 st9 st10">J2</text>
			</g>
		</g>
		<path class="st12" d="M44.3,80.1h2l0.4,0.1l0.3,0.3l0.1,0.4v0.3"/>
		<path class="st12" d="M44.6,78.9l-0.1-0.1l-0.1-0.3v-0.7l0.1-0.3l0.1-0.1l0.3-0.1h0.3l0.4,0.1l1.6,1.6v-1.8"/>
		<g transform="rotate(-90 13057.3 4440.35)">
			<g class="st6">
				<rect x="17462.6" y="-8524.9" class="st7" width="6.1" height="4"/>
				<text transform="matrix(1 0 0 1 17463.6836 -8522.6738)" class="st8 st9 st10">J1</text>
			</g>
			<g class="st6">
				<rect x="17462.6" y="-8524.9" class="st7" width="6.1" height="4"/>
				<text transform="matrix(1 0 0 1 17463.6836 -8522.6758)" class="st11 st9 st10">J1</text>
			</g>
		</g>
		<path class="st12" d="M92.5,32.9h2l0.4,0.1l0.3,0.3l0.1,0.4V34"/>
		<path class="st12" d="M95.3,30.1v1.6"/>
		<path class="st12" d="M95.3,30.9h-2.8l0.4,0.3l0.3,0.3l0.1,0.3"/>
		<g transform="rotate(-90 29774.6 32390.4)">
			<g class="st6">
				<rect x="61929" y="2826.9" class="st7" width="5.7" height="6.9"/>
				<text transform="matrix(1 0 0 1 61928.3203 2830.728)" class="st8 st9 st10">D43</text>
			</g>
			<g class="st6">
				<rect x="61929" y="2826.8" class="st7" width="5.7" height="6.9"/>
				<text transform="matrix(1 0 0 1 61928.3203 2830.7261)" class="st11 st9 st10">D43</text>
			</g>
		</g>
		<path class="st12" d="M215.7,236.6h-2.8V236l0.1-0.4l0.3-0.3l0.3-0.1l0.5-0.1h0.4l0.5,0.1l0.3,0.1l0.3,0.3l0.1,0.4V236.6"/>
		<path class="st12" d="M213.8,232.6h1.9"/>
		<path class="st12" d="M212.7,233.3l2,0.7v-1.8"/>
		<path class="st12" d="M212.8,231.4v-1.8l1.1,0.9v-0.4l0.1-0.3l0.1-0.1l0.3-0.1h0.7l0.3,0.1l0.1,0.1l0.1,0.3v0.8l-0.1,0.3l-0.1,0.1
			"/>
		<g transform="rotate(-90 26174.6 32390.4)">
			<g class="st6">
				<rect x="58329" y="6400.9" class="st7" width="5.7" height="6.9"/>
				<text transform="matrix(1 0 0 1 58328.3203 6404.8081)" class="st8 st9 st10">D42</text>
			</g>
			<g class="st6">
				<rect x="58329" y="6400.9" class="st7" width="5.7" height="6.9"/>
				<text transform="matrix(1 0 0 1 58328.3203 6404.8062)" class="st11 st9 st10">D42</text>
			</g>
		</g>
		<path class="st12" d="M189.7,236.6h-2.8V236l0.1-0.4l0.3-0.3l0.3-0.1l0.5-0.1h0.4l0.5,0.1l0.3,0.1l0.3,0.3l0.1,0.4V236.6"/>
		<path class="st12" d="M187.8,232.6h1.9"/>
		<path class="st12" d="M186.8,233.3l2,0.7v-1.8"/>
		<path class="st12" d="M187.2,231.2l-0.1-0.1l-0.1-0.3v-0.7l0.1-0.3l0.1-0.1l0.3-0.1h0.3l0.4,0.1l1.6,1.6v-1.8"/>
		<g transform="rotate(-90 22774.6 32390.4)">
			<g class="st6">
				<rect x="54929" y="9776.5" class="st7" width="5.7" height="6.9"/>
				<text transform="matrix(1 0 0 1 54928.3203 9780.3281)" class="st8 st9 st10">D41</text>
			</g>
			<g class="st6">
				<rect x="54929" y="9776.4" class="st7" width="5.7" height="6.9"/>
				<text transform="matrix(1 0 0 1 54928.3203 9780.3262)" class="st11 st9 st10">D41</text>
			</g>
		</g>
		<path class="st12" d="M165.3,236.6h-2.8V236l0.1-0.4l0.3-0.3l0.3-0.1l0.5-0.1h0.4l0.5,0.1l0.3,0.1l0.3,0.3l0.1,0.4V236.6"/>
		<path class="st12" d="M163.4,232.6h1.9"/>
		<path class="st12" d="M162.3,233.3l2,0.7v-1.8"/>
		<path class="st12" d="M165.3,229.6v1.6"/>
		<path class="st12" d="M165.3,230.4h-2.8l0.4,0.3l0.3,0.3l0.1,0.3"/>
		<g transform="rotate(-90 19174.6 32390.4)">
			<g class="st6">
				<rect x="51329" y="13350.5" class="st7" width="5.7" height="6.9"/>
				<text transform="matrix(1 0 0 1 51328.3203 13354.4082)" class="st8 st9 st10">D40</text>
			</g>
			<g class="st6">
				<rect x="51329" y="13350.5" class="st7" width="5.7" height="6.9"/>
				<text transform="matrix(1 0 0 1 51328.3203 13354.4063)" class="st11 st9 st10">D40</text>
			</g>
		</g>
		<path class="st12" d="M139.3,236.6h-2.8V236l0.1-0.4l0.3-0.3l0.3-0.1l0.5-0.1h0.4l0.5,0.1l0.3,0.1l0.3,0.3l0.1,0.4V236.6"/>
		<path class="st12" d="M137.4,232.6h1.9"/>
		<path class="st12" d="M136.4,233.3l2,0.7v-1.8"/>
		<path class="st12" d="M136.5,230.6v-0.3l0.1-0.3l0.1-0.1l0.3-0.1l0.5-0.1h0.7l0.5,0.1l0.3,0.1l0.1,0.1l0.1,0.3v0.3l-0.1,0.3
			l-0.1,0.1l-0.3,0.1l-0.5,0.1h-0.7l-0.5-0.1l-0.3-0.1l-0.1-0.1L136.5,230.6"/>
		<g transform="rotate(-90 15774.6 32390.4)">
			<g class="st6">
				<rect x="47929" y="16726.1" class="st7" width="5.7" height="6.9"/>
				<text transform="matrix(1 0 0 1 47928.3203 16729.9277)" class="st8 st9 st10">D39</text>
			</g>
			<g class="st6">
				<rect x="47929" y="16726" class="st7" width="5.7" height="6.9"/>
				<text transform="matrix(1 0 0 1 47928.3203 16729.9258)" class="st11 st9 st10">D39</text>
			</g>
		</g>
		<path class="st12" d="M114.9,236.6H112V236l0.1-0.4l0.3-0.3l0.3-0.1l0.5-0.1h0.4l0.5,0.1l0.3,0.1l0.3,0.3l0.1,0.4V236.6"/>
		<path class="st12" d="M112,234.1v-1.8l1.1,0.9v-0.4l0.1-0.3l0.1-0.1l0.3-0.1h0.7l0.3,0.1l0.1,0.1l0.1,0.3v0.8l-0.1,0.3l-0.1,0.1"
			/>
		<path class="st12" d="M114.9,231v-0.5l-0.1-0.3l-0.1-0.1l-0.4-0.3l-0.5-0.1h-1.1l-0.3,0.1l-0.1,0.1l-0.1,0.3v0.5l0.1,0.3l0.1,0.1
			l0.3,0.1h0.7l0.3-0.1l0.1-0.1l0.1-0.3v-0.5l-0.1-0.3l-0.1-0.1l-0.3-0.1"/>
		<g transform="rotate(-90 12174.6 32390.4)">
			<g class="st6">
				<rect x="44329" y="20300.1" class="st7" width="5.7" height="6.9"/>
				<text transform="matrix(1 0 0 1 44328.3203 20304.0078)" class="st8 st9 st10">D38</text>
			</g>
			<g class="st6">
				<rect x="44329" y="20300.1" class="st7" width="5.7" height="6.9"/>
				<text transform="matrix(1 0 0 1 44328.3203 20304.0059)" class="st11 st9 st10">D38</text>
			</g>
		</g>
		<path class="st12" d="M88.9,236.6h-2.8V236l0.1-0.4l0.3-0.3l0.3-0.1l0.5-0.1h0.4l0.5,0.1l0.3,0.1l0.3,0.3l0.1,0.4V236.6"/>
		<path class="st12" d="M86.1,234.1v-1.8l1.1,0.9v-0.4l0.1-0.3l0.1-0.1l0.3-0.1h0.7l0.3,0.1l0.1,0.1l0.1,0.3v0.8l-0.1,0.3l-0.1,0.1"
			/>
		<path class="st12" d="M87.3,230.7l-0.1,0.3l-0.1,0.1l-0.3,0.1h-0.1l-0.3-0.1l-0.1-0.1l-0.1-0.3v-0.5l0.1-0.3l0.1-0.1l0.3-0.1h0.1
			l0.3,0.1l0.1,0.1l0.1,0.3V230.7l0.1,0.3l0.1,0.1l0.3,0.1h0.5l0.3-0.1l0.1-0.1l0.1-0.3v-0.5l-0.1-0.3l-0.1-0.1l-0.3-0.1h-0.5
			l-0.3,0.1l-0.1,0.1l-0.1,0.3"/>
		<g transform="rotate(-90 8774.6 32390.4)">
			<g class="st6">
				<rect x="40929" y="23675.7" class="st7" width="5.7" height="6.9"/>
				<text transform="matrix(1 0 0 1 40928.3203 23679.5273)" class="st8 st9 st10">D37</text>
			</g>
			<g class="st6">
				<rect x="40929" y="23675.6" class="st7" width="5.7" height="6.9"/>
				<text transform="matrix(1 0 0 1 40928.3203 23679.5254)" class="st11 st9 st10">D37</text>
			</g>
		</g>
		<path class="st12" d="M64.5,236.6h-2.8V236l0.1-0.4l0.3-0.3l0.3-0.1l0.5-0.1h0.4l0.5,0.1l0.3,0.1l0.3,0.3l0.1,0.4V236.6"/>
		<path class="st12" d="M61.6,234.1v-1.8l1.1,0.9v-0.4l0.1-0.3l0.1-0.1l0.3-0.1h0.7l0.3,0.1l0.1,0.1l0.1,0.3v0.8l-0.1,0.3l-0.1,0.1"
			/>
		<path class="st12" d="M61.6,231.4v-1.9l2.8,1.2"/>
		<g transform="rotate(-90 29774.6 29390.4)">
			<g class="st6">
				<rect x="58950.6" y="-173.1" class="st7" width="5.7" height="6.9"/>
				<text transform="matrix(1 0 0 1 58949.9219 -169.272)" class="st8 st9 st10">D36</text>
			</g>
			<g class="st6">
				<rect x="58950.6" y="-173.2" class="st7" width="5.7" height="6.9"/>
				<text transform="matrix(1 0 0 1 58949.9219 -169.2739)" class="st11 st9 st10">D36</text>
			</g>
		</g>
		<path class="st12" d="M215.7,215h-2.8v-0.7l0.1-0.4l0.3-0.3l0.3-0.1l0.5-0.1h0.4l0.5,0.1l0.3,0.1l0.3,0.3l0.1,0.4V215"/>
		<path class="st12" d="M212.8,212.5v-1.8l1.1,0.9v-0.4l0.1-0.3l0.1-0.1l0.3-0.1h0.7l0.3,0.1l0.1,0.1l0.1,0.3v0.8l-0.1,0.3l-0.1,0.1
			"/>
		<path class="st12" d="M212.8,208.3v0.5l0.1,0.3l0.1,0.1l0.4,0.3l0.5,0.1h1.1l0.3-0.1l0.1-0.1l0.1-0.3v-0.5l-0.1-0.3l-0.1-0.1
			l-0.3-0.1h-0.7l-0.3,0.1l-0.1,0.1l-0.1,0.3v0.5l0.1,0.3l0.1,0.1l0.3,0.1"/>
		<g transform="rotate(-90 26174.6 29390.4)">
			<g class="st6">
				<rect x="55350.6" y="3400.9" class="st7" width="5.7" height="6.9"/>
				<text transform="matrix(1 0 0 1 55349.9219 3404.8081)" class="st8 st9 st10">D35</text>
			</g>
			<g class="st6">
				<rect x="55350.6" y="3400.9" class="st7" width="5.7" height="6.9"/>
				<text transform="matrix(1 0 0 1 55349.9219 3404.8062)" class="st11 st9 st10">D35</text>
			</g>
		</g>
		<path class="st12" d="M189.7,215h-2.8v-0.7l0.1-0.4l0.3-0.3l0.3-0.1l0.5-0.1h0.4l0.5,0.1l0.3,0.1l0.3,0.3l0.1,0.4V215"/>
		<path class="st12" d="M186.9,212.5v-1.8l1.1,0.9v-0.4l0.1-0.3l0.1-0.1l0.3-0.1h0.7l0.3,0.1l0.1,0.1l0.1,0.3v0.8l-0.1,0.3l-0.1,0.1
			"/>
		<path class="st12" d="M186.9,208.2v1.3l1.4,0.1l-0.1-0.1l-0.1-0.3v-0.7l0.1-0.3l0.1-0.1l0.3-0.1h0.7l0.3,0.1l0.1,0.1l0.1,0.3v0.7
			l-0.1,0.3l-0.1,0.1"/>
		<g transform="rotate(-90 22774.6 29390.4)">
			<g class="st6">
				<rect x="51950.6" y="6776.5" class="st7" width="5.7" height="6.9"/>
				<text transform="matrix(1 0 0 1 51949.9219 6780.3281)" class="st8 st9 st10">D34</text>
			</g>
			<g class="st6">
				<rect x="51950.6" y="6776.4" class="st7" width="5.7" height="6.9"/>
				<text transform="matrix(1 0 0 1 51949.9219 6780.3262)" class="st11 st9 st10">D34</text>
			</g>
		</g>
		<path class="st12" d="M165.3,215h-2.8v-0.7l0.1-0.4l0.3-0.3l0.3-0.1l0.5-0.1h0.4l0.5,0.1l0.3,0.1l0.3,0.3l0.1,0.4V215"/>
		<path class="st12" d="M162.4,212.5v-1.8l1.1,0.9v-0.4l0.1-0.3l0.1-0.1l0.3-0.1h0.7l0.3,0.1l0.1,0.1l0.1,0.3v0.8l-0.1,0.3l-0.1,0.1
			"/>
		<path class="st12" d="M163.4,208.3h1.9"/>
		<path class="st12" d="M162.3,209l2,0.7v-1.8"/>
		<g transform="rotate(-90 19174.6 29390.4)">
			<g class="st6">
				<rect x="48350.6" y="10350.5" class="st7" width="5.7" height="6.9"/>
				<text transform="matrix(1 0 0 1 48349.9219 10354.4082)" class="st8 st9 st10">D33</text>
			</g>
			<g class="st6">
				<rect x="48350.6" y="10350.5" class="st7" width="5.7" height="6.9"/>
				<text transform="matrix(1 0 0 1 48349.9219 10354.4063)" class="st11 st9 st10">D33</text>
			</g>
		</g>
		<path class="st12" d="M139.3,215h-2.8v-0.7l0.1-0.4l0.3-0.3l0.3-0.1l0.5-0.1h0.4l0.5,0.1l0.3,0.1l0.3,0.3l0.1,0.4V215"/>
		<path class="st12" d="M136.5,212.5v-1.8l1.1,0.9v-0.4l0.1-0.3l0.1-0.1l0.3-0.1h0.7l0.3,0.1l0.1,0.1l0.1,0.3v0.8l-0.1,0.3l-0.1,0.1
			"/>
		<path class="st12" d="M136.5,209.8V208l1.1,0.9v-0.4l0.1-0.3l0.1-0.1l0.3-0.1h0.7l0.3,0.1l0.1,0.1l0.1,0.3v0.8l-0.1,0.3l-0.1,0.1"
			/>
		<g transform="rotate(-90 15774.6 29390.4)">
			<g class="st6">
				<rect x="44950.6" y="13726.1" class="st7" width="5.7" height="6.9"/>
				<text transform="matrix(1 0 0 1 44949.9219 13729.9277)" class="st8 st9 st10">D32</text>
			</g>
			<g class="st6">
				<rect x="44950.6" y="13726" class="st7" width="5.7" height="6.9"/>
				<text transform="matrix(1 0 0 1 44949.9219 13729.9258)" class="st11 st9 st10">D32</text>
			</g>
		</g>
		<path class="st12" d="M114.9,215H112v-0.7l0.1-0.4l0.3-0.3l0.3-0.1l0.5-0.1h0.4l0.5,0.1l0.3,0.1l0.3,0.3l0.1,0.4V215"/>
		<path class="st12" d="M112,212.5v-1.8l1.1,0.9v-0.4l0.1-0.3l0.1-0.1l0.3-0.1h0.7l0.3,0.1l0.1,0.1l0.1,0.3v0.8l-0.1,0.3l-0.1,0.1"
			/>
		<path class="st12" d="M112.3,209.6l-0.1-0.1l-0.1-0.3v-0.7l0.1-0.3l0.1-0.1l0.3-0.1h0.3l0.4,0.1l1.6,1.6V208"/>
		<g transform="rotate(-90 12174.6 29390.4)">
			<g class="st6">
				<rect x="41350.6" y="17300.1" class="st7" width="5.7" height="6.9"/>
				<text transform="matrix(1 0 0 1 41349.9219 17304.0078)" class="st8 st9 st10">D31</text>
			</g>
			<g class="st6">
				<rect x="41350.6" y="17300.1" class="st7" width="5.7" height="6.9"/>
				<text transform="matrix(1 0 0 1 41349.9219 17304.0059)" class="st11 st9 st10">D31</text>
			</g>
		</g>
		<path class="st12" d="M88.9,215h-2.8v-0.7l0.1-0.4l0.3-0.3l0.3-0.1l0.5-0.1h0.4l0.5,0.1l0.3,0.1l0.3,0.3l0.1,0.4V215"/>
		<path class="st12" d="M86.1,212.5v-1.8l1.1,0.9v-0.4l0.1-0.3l0.1-0.1l0.3-0.1h0.7l0.3,0.1l0.1,0.1l0.1,0.3v0.8l-0.1,0.3l-0.1,0.1"
			/>
		<path class="st12" d="M88.9,208v1.6"/>
		<path class="st12" d="M88.9,208.8h-2.8l0.4,0.3l0.3,0.3l0.1,0.3"/>
		<g transform="rotate(-90 8774.6 29390.4)">
			<g class="st6">
				<rect x="37950.6" y="20675.7" class="st7" width="5.7" height="6.9"/>
				<text transform="matrix(1 0 0 1 37949.9219 20679.5273)" class="st8 st9 st10">D30</text>
			</g>
			<g class="st6">
				<rect x="37950.6" y="20675.6" class="st7" width="5.7" height="6.9"/>
				<text transform="matrix(1 0 0 1 37949.9219 20679.5254)" class="st11 st9 st10">D30</text>
			</g>
		</g>
		<path class="st12" d="M64.5,215h-2.8v-0.7l0.1-0.4l0.3-0.3l0.3-0.1l0.5-0.1h0.4l0.5,0.1l0.3,0.1l0.3,0.3l0.1,0.4V215"/>
		<path class="st12" d="M61.6,212.5v-1.8l1.1,0.9v-0.4l0.1-0.3l0.1-0.1l0.3-0.1h0.7l0.3,0.1l0.1,0.1l0.1,0.3v0.8l-0.1,0.3l-0.1,0.1"
			/>
		<path class="st12" d="M61.6,209v-0.3l0.1-0.3l0.1-0.1l0.3-0.1l0.5-0.1h0.7l0.5,0.1l0.3,0.1l0.1,0.1l0.1,0.3v0.3l-0.1,0.3l-0.1,0.1
			l-0.3,0.1l-0.5,0.1h-0.7l-0.5-0.1l-0.3-0.1l-0.1-0.1L61.6,209"/>
		<g transform="rotate(-90 29774.6 26390.4)">
			<g class="st6">
				<rect x="55972.2" y="-3173.1" class="st7" width="5.7" height="6.9"/>
				<text transform="matrix(1 0 0 1 55971.5234 -3169.272)" class="st8 st9 st10">D29</text>
			</g>
			<g class="st6">
				<rect x="55972.2" y="-3173.2" class="st7" width="5.7" height="6.9"/>
				<text transform="matrix(1 0 0 1 55971.5195 -3169.2739)" class="st11 st9 st10">D29</text>
			</g>
		</g>
		<path class="st12" d="M215.7,193.4h-2.8v-0.7l0.1-0.4l0.3-0.3l0.3-0.1l0.5-0.1h0.4l0.5,0.1l0.3,0.1l0.3,0.3l0.1,0.4V193.4"/>
		<path class="st12" d="M213.1,190.7l-0.1-0.1l-0.1-0.3v-0.7l0.1-0.3l0.1-0.1l0.3-0.1h0.3l0.4,0.1l1.6,1.6v-1.8"/>
		<path class="st12" d="M215.7,187.8v-0.5l-0.1-0.3l-0.1-0.1l-0.4-0.3l-0.5-0.1h-1.1l-0.3,0.1l-0.1,0.1l-0.1,0.3v0.5l0.1,0.3
			l0.1,0.1l0.3,0.1h0.7l0.3-0.1l0.1-0.1l0.1-0.3V187l-0.1-0.3l-0.1-0.1l-0.3-0.1"/>
		<g transform="rotate(-90 26174.6 26390.4)">
			<g class="st6">
				<rect x="52372.2" y="400.9" class="st7" width="5.7" height="6.9"/>
				<text transform="matrix(1 0 0 1 52371.5234 404.8081)" class="st8 st9 st10">D28</text>
			</g>
			<g class="st6">
				<rect x="52372.2" y="400.9" class="st7" width="5.7" height="6.9"/>
				<text transform="matrix(1 0 0 1 52371.5195 404.8062)" class="st11 st9 st10">D28</text>
			</g>
		</g>
		<path class="st12" d="M189.7,193.4h-2.8v-0.7l0.1-0.4l0.3-0.3l0.3-0.1l0.5-0.1h0.4l0.5,0.1l0.3,0.1l0.3,0.3l0.1,0.4V193.4"/>
		<path class="st12" d="M187.2,190.7l-0.1-0.1l-0.1-0.3v-0.7l0.1-0.3l0.1-0.1l0.3-0.1h0.3l0.4,0.1l1.6,1.6v-1.8"/>
		<path class="st12" d="M188.1,187.5l-0.1,0.3l-0.1,0.1l-0.3,0.1h-0.1l-0.3-0.1l-0.1-0.1l-0.1-0.3V187l0.1-0.3l0.1-0.1l0.3-0.1h0.1
			l0.3,0.1l0.1,0.1l0.1,0.3V187.5l0.1,0.3l0.1,0.1l0.3,0.1h0.5l0.3-0.1l0.1-0.1l0.1-0.3V187l-0.1-0.3l-0.1-0.1l-0.3-0.1h-0.5
			l-0.3,0.1l-0.1,0.1l-0.1,0.3"/>
		<g transform="rotate(-90 22774.6 26390.4)">
			<g class="st6">
				<rect x="48972.2" y="3776.5" class="st7" width="5.7" height="6.9"/>
				<text transform="matrix(1 0 0 1 48971.5234 3780.3281)" class="st8 st9 st10">D27</text>
			</g>
			<g class="st6">
				<rect x="48972.2" y="3776.4" class="st7" width="5.7" height="6.9"/>
				<text transform="matrix(1 0 0 1 48971.5195 3780.3262)" class="st11 st9 st10">D27</text>
			</g>
		</g>
		<path class="st12" d="M165.3,193.4h-2.8v-0.7l0.1-0.4l0.3-0.3l0.3-0.1l0.5-0.1h0.4l0.5,0.1l0.3,0.1l0.3,0.3l0.1,0.4V193.4"/>
		<path class="st12" d="M162.7,190.7l-0.1-0.1l-0.1-0.3v-0.7l0.1-0.3l0.1-0.1l0.3-0.1h0.3l0.4,0.1l1.6,1.6v-1.8"/>
		<path class="st12" d="M162.4,188.2v-1.9l2.8,1.2"/>
		<g transform="rotate(-90 19174.6 26390.4)">
			<g class="st6">
				<rect x="45372.2" y="7350.5" class="st7" width="5.7" height="6.9"/>
				<text transform="matrix(1 0 0 1 45371.5234 7354.4082)" class="st8 st9 st10">D26</text>
			</g>
			<g class="st6">
				<rect x="45372.2" y="7350.5" class="st7" width="5.7" height="6.9"/>
				<text transform="matrix(1 0 0 1 45371.5195 7354.4063)" class="st11 st9 st10">D26</text>
			</g>
		</g>
		<path class="st12" d="M139.3,193.4h-2.8v-0.7l0.1-0.4l0.3-0.3l0.3-0.1l0.5-0.1h0.4l0.5,0.1l0.3,0.1l0.3,0.3l0.1,0.4V193.4"/>
		<path class="st12" d="M136.8,190.7l-0.1-0.1l-0.1-0.3v-0.7l0.1-0.3l0.1-0.1l0.3-0.1h0.3l0.4,0.1l1.6,1.6v-1.8"/>
		<path class="st12" d="M136.5,186.7v0.5l0.1,0.3l0.1,0.1l0.4,0.3l0.5,0.1h1.1l0.3-0.1l0.1-0.1l0.1-0.3V187l-0.1-0.3l-0.1-0.1
			l-0.3-0.1h-0.7l-0.3,0.1l-0.1,0.1l-0.1,0.3v0.5l0.1,0.3l0.1,0.1l0.3,0.1"/>
		<g transform="rotate(-90 15774.6 26390.4)">
			<g class="st6">
				<rect x="41972.2" y="10726.1" class="st7" width="5.7" height="6.9"/>
				<text transform="matrix(1 0 0 1 41971.5234 10729.9277)" class="st8 st9 st10">D25</text>
			</g>
			<g class="st6">
				<rect x="41972.2" y="10726" class="st7" width="5.7" height="6.9"/>
				<text transform="matrix(1 0 0 1 41971.5195 10729.9258)" class="st11 st9 st10">D25</text>
			</g>
		</g>
		<path class="st12" d="M114.9,193.4H112v-0.7l0.1-0.4l0.3-0.3l0.3-0.1l0.5-0.1h0.4l0.5,0.1l0.3,0.1l0.3,0.3l0.1,0.4V193.4"/>
		<path class="st12" d="M112.3,190.7l-0.1-0.1l-0.1-0.3v-0.7l0.1-0.3l0.1-0.1l0.3-0.1h0.3l0.4,0.1l1.6,1.6v-1.8"/>
		<path class="st12" d="M112,186.6v1.3l1.4,0.1l-0.1-0.1l-0.1-0.3V187l0.1-0.3l0.1-0.1l0.3-0.1h0.7l0.3,0.1l0.1,0.1l0.1,0.3v0.7
			l-0.1,0.3l-0.1,0.1"/>
		<g transform="rotate(-90 12174.6 26390.4)">
			<g class="st6">
				<rect x="38372.2" y="14300.1" class="st7" width="5.7" height="6.9"/>
				<text transform="matrix(1 0 0 1 38371.5234 14304.0078)" class="st8 st9 st10">D24</text>
			</g>
			<g class="st6">
				<rect x="38372.2" y="14300.1" class="st7" width="5.7" height="6.9"/>
				<text transform="matrix(1 0 0 1 38371.5195 14304.0059)" class="st11 st9 st10">D24</text>
			</g>
		</g>
		<path class="st12" d="M88.9,193.4h-2.8v-0.7l0.1-0.4l0.3-0.3l0.3-0.1l0.5-0.1h0.4l0.5,0.1l0.3,0.1l0.3,0.3l0.1,0.4V193.4"/>
		<path class="st12" d="M86.4,190.7l-0.1-0.1l-0.1-0.3v-0.7l0.1-0.3l0.1-0.1l0.3-0.1h0.3l0.4,0.1l1.6,1.6v-1.8"/>
		<path class="st12" d="M87,186.7h1.9"/>
		<path class="st12" d="M86,187.4l2,0.7v-1.8"/>
		<g transform="rotate(-90 8774.6 26390.4)">
			<g class="st6">
				<rect x="34972.2" y="17675.7" class="st7" width="5.7" height="6.9"/>
				<text transform="matrix(1 0 0 1 34971.5234 17679.5273)" class="st8 st9 st10">D23</text>
			</g>
			<g class="st6">
				<rect x="34972.2" y="17675.6" class="st7" width="5.7" height="6.9"/>
				<text transform="matrix(1 0 0 1 34971.5195 17679.5254)" class="st11 st9 st10">D23</text>
			</g>
		</g>
		<path class="st12" d="M64.5,193.4h-2.8v-0.7l0.1-0.4l0.3-0.3l0.3-0.1l0.5-0.1h0.4l0.5,0.1l0.3,0.1l0.3,0.3l0.1,0.4V193.4"/>
		<path class="st12" d="M61.9,190.7l-0.1-0.1l-0.1-0.3v-0.7l0.1-0.3l0.1-0.1l0.3-0.1h0.3l0.4,0.1l1.6,1.6v-1.8"/>
		<path class="st12" d="M61.6,188.2v-1.8l1.1,0.9V187l0.1-0.3l0.1-0.1l0.3-0.1h0.7l0.3,0.1l0.1,0.1l0.1,0.3v0.8l-0.1,0.3l-0.1,0.1"
			/>
		<g transform="rotate(-90 29774.6 23390.4)">
			<g class="st6">
				<rect x="52993.8" y="-6173.1" class="st7" width="5.7" height="6.9"/>
				<text transform="matrix(1 0 0 1 52993.1211 -6169.272)" class="st8 st9 st10">D22</text>
			</g>
			<g class="st6">
				<rect x="52993.8" y="-6173.2" class="st7" width="5.7" height="6.9"/>
				<text transform="matrix(1 0 0 1 52993.1211 -6169.2739)" class="st11 st9 st10">D22</text>
			</g>
		</g>
		<path class="st12" d="M215.7,171.8h-2.8v-0.7l0.1-0.4l0.3-0.3l0.3-0.1l0.5-0.1h0.4l0.5,0.1l0.3,0.1l0.3,0.3l0.1,0.4V171.8"/>
		<path class="st12" d="M213.1,169.1L213,169l-0.1-0.3v-0.7l0.1-0.3l0.1-0.1l0.3-0.1h0.3l0.4,0.1l1.6,1.6v-1.8"/>
		<path class="st12" d="M213.1,166.4l-0.1-0.1l-0.1-0.3v-0.7l0.1-0.3l0.1-0.1l0.3-0.1h0.3l0.4,0.1l1.6,1.6v-1.8"/>
		<g transform="rotate(-90 26174.6 23390.4)">
			<g class="st6">
				<rect x="49393.8" y="-2599.1" class="st7" width="5.7" height="6.9"/>
				<text transform="matrix(1 0 0 1 49393.1211 -2595.1919)" class="st8 st9 st10">D21</text>
			</g>
			<g class="st6">
				<rect x="49393.8" y="-2599.1" class="st7" width="5.7" height="6.9"/>
				<text transform="matrix(1 0 0 1 49393.1211 -2595.1938)" class="st11 st9 st10">D21</text>
			</g>
		</g>
		<path class="st12" d="M189.7,171.8h-2.8v-0.7l0.1-0.4l0.3-0.3l0.3-0.1l0.5-0.1h0.4l0.5,0.1l0.3,0.1l0.3,0.3l0.1,0.4V171.8"/>
		<path class="st12" d="M187.2,169.1L187,169l-0.1-0.3v-0.7l0.1-0.3l0.1-0.1l0.3-0.1h0.3l0.4,0.1l1.6,1.6v-1.8"/>
		<path class="st12" d="M189.7,164.8v1.6"/>
		<path class="st12" d="M189.7,165.6h-2.8l0.4,0.3l0.3,0.3l0.1,0.3"/>
		<g transform="rotate(-90 22774.6 23390.4)">
			<g class="st6">
				<rect x="45993.8" y="776.5" class="st7" width="5.7" height="6.9"/>
				<text transform="matrix(1 0 0 1 45993.1211 780.3281)" class="st8 st9 st10">D20</text>
			</g>
			<g class="st6">
				<rect x="45993.8" y="776.4" class="st7" width="5.7" height="6.9"/>
				<text transform="matrix(1 0 0 1 45993.1211 780.3262)" class="st11 st9 st10">D20</text>
			</g>
		</g>
		<path class="st12" d="M165.3,171.8h-2.8v-0.7l0.1-0.4l0.3-0.3l0.3-0.1l0.5-0.1h0.4l0.5,0.1l0.3,0.1l0.3,0.3l0.1,0.4V171.8"/>
		<path class="st12" d="M162.7,169.1l-0.1-0.1l-0.1-0.3v-0.7l0.1-0.3l0.1-0.1l0.3-0.1h0.3l0.4,0.1l1.6,1.6v-1.8"/>
		<path class="st12" d="M162.4,165.8v-0.3l0.1-0.3l0.1-0.1l0.3-0.1l0.5-0.1h0.7l0.5,0.1l0.3,0.1l0.1,0.1l0.1,0.3v0.3l-0.1,0.3
			l-0.1,0.1l-0.3,0.1l-0.5,0.1h-0.7l-0.5-0.1l-0.3-0.1l-0.1-0.1L162.4,165.8"/>
		<g transform="rotate(-90 19174.6 23390.4)">
			<g class="st6">
				<rect x="42393.8" y="4350.5" class="st7" width="5.7" height="6.9"/>
				<text transform="matrix(1 0 0 1 42393.1211 4354.4082)" class="st8 st9 st10">D19</text>
			</g>
			<g class="st6">
				<rect x="42393.8" y="4350.5" class="st7" width="5.7" height="6.9"/>
				<text transform="matrix(1 0 0 1 42393.1211 4354.4063)" class="st11 st9 st10">D19</text>
			</g>
		</g>
		<path class="st12" d="M139.3,171.8h-2.8v-0.7l0.1-0.4l0.3-0.3l0.3-0.1l0.5-0.1h0.4l0.5,0.1l0.3,0.1l0.3,0.3l0.1,0.4V171.8"/>
		<path class="st12" d="M139.3,167.5v1.6"/>
		<path class="st12" d="M139.3,168.3h-2.8l0.4,0.3l0.3,0.3l0.1,0.3"/>
		<path class="st12" d="M139.3,166.2v-0.5l-0.1-0.3l-0.1-0.1l-0.4-0.3l-0.5-0.1H137l-0.3,0.1l-0.1,0.1l-0.1,0.3v0.5l0.1,0.3l0.1,0.1
			l0.3,0.1h0.7l0.3-0.1l0.1-0.1l0.1-0.3v-0.5l-0.1-0.3L138,165l-0.3-0.1"/>
		<g transform="rotate(-90 15774.6 23390.4)">
			<g class="st6">
				<rect x="38993.8" y="7726.1" class="st7" width="5.7" height="6.9"/>
				<text transform="matrix(1 0 0 1 38993.1211 7729.9282)" class="st8 st9 st10">D18</text>
			</g>
			<g class="st6">
				<rect x="38993.8" y="7726" class="st7" width="5.7" height="6.9"/>
				<text transform="matrix(1 0 0 1 38993.1211 7729.9263)" class="st11 st9 st10">D18</text>
			</g>
		</g>
		<path class="st12" d="M114.9,171.8H112v-0.7l0.1-0.4l0.3-0.3l0.3-0.1l0.5-0.1h0.4l0.5,0.1l0.3,0.1l0.3,0.3l0.1,0.4V171.8"/>
		<path class="st12" d="M114.9,167.5v1.6"/>
		<path class="st12" d="M114.9,168.3H112l0.4,0.3l0.3,0.3l0.1,0.3"/>
		<path class="st12" d="M113.2,165.9l-0.1,0.3l-0.1,0.1l-0.3,0.1h-0.1l-0.3-0.1l-0.1-0.1l-0.1-0.3v-0.5l0.1-0.3l0.1-0.1l0.3-0.1h0.1
			l0.3,0.1l0.1,0.1l0.1,0.3V165.9l0.1,0.3l0.1,0.1l0.3,0.1h0.5l0.3-0.1l0.1-0.1l0.1-0.3v-0.5l-0.1-0.3l-0.1-0.1l-0.3-0.1h-0.5
			l-0.3,0.1l-0.1,0.1l-0.1,0.3"/>
		<g transform="rotate(-90 12174.6 23390.4)">
			<g class="st6">
				<rect x="35393.8" y="11300.1" class="st7" width="5.7" height="6.9"/>
				<text transform="matrix(1 0 0 1 35393.1211 11304.0078)" class="st8 st9 st10">D17</text>
			</g>
			<g class="st6">
				<rect x="35393.8" y="11300.1" class="st7" width="5.7" height="6.9"/>
				<text transform="matrix(1 0 0 1 35393.1211 11304.0059)" class="st11 st9 st10">D17</text>
			</g>
		</g>
		<path class="st12" d="M88.9,171.8h-2.8v-0.7l0.1-0.4l0.3-0.3l0.3-0.1l0.5-0.1h0.4l0.5,0.1l0.3,0.1l0.3,0.3l0.1,0.4V171.8"/>
		<path class="st12" d="M88.9,167.5v1.6"/>
		<path class="st12" d="M88.9,168.3h-2.8l0.4,0.3l0.3,0.3l0.1,0.3"/>
		<path class="st12" d="M86.1,166.6v-1.9l2.8,1.2"/>
		<g transform="rotate(-90 8774.6 23390.4)">
			<g class="st6">
				<rect x="31993.8" y="14675.7" class="st7" width="5.7" height="6.9"/>
				<text transform="matrix(1 0 0 1 31993.123 14679.5283)" class="st8 st9 st10">D16</text>
			</g>
			<g class="st6">
				<rect x="31993.8" y="14675.6" class="st7" width="5.7" height="6.9"/>
				<text transform="matrix(1 0 0 1 31993.1211 14679.5264)" class="st11 st9 st10">D16</text>
			</g>
		</g>
		<path class="st12" d="M64.5,171.8h-2.8v-0.7l0.1-0.4l0.3-0.3l0.3-0.1l0.5-0.1h0.4l0.5,0.1l0.3,0.1l0.3,0.3l0.1,0.4V171.8"/>
		<path class="st12" d="M64.5,167.5v1.6"/>
		<path class="st12" d="M64.5,168.3h-2.8l0.4,0.3l0.3,0.3l0.1,0.3"/>
		<path class="st12" d="M61.6,165.1v0.5l0.1,0.3l0.1,0.1l0.4,0.3l0.5,0.1h1.1l0.3-0.1l0.1-0.1l0.1-0.3v-0.5l-0.1-0.3l-0.1-0.1
			l-0.3-0.1h-0.7L63,165l-0.1,0.1l-0.1,0.3v0.5l0.1,0.3l0.1,0.1l0.3,0.1"/>
		<g transform="rotate(-90 29374.6 10390.4)">
			<g class="st6">
				<rect x="39687.4" y="-18776" class="st7" width="5.7" height="6.9"/>
				<text transform="matrix(1 0 0 1 39686.7227 -18772.1523)" class="st8 st9 st10">D15</text>
			</g>
			<g class="st6">
				<rect x="39687.4" y="-18776" class="st7" width="5.7" height="6.9"/>
				<text transform="matrix(1 0 0 1 39686.7188 -18772.1543)" class="st11 st9 st10">D15</text>
			</g>
		</g>
		<path class="st12" d="M212.8,78.2h-2.8v-0.7l0.1-0.4l0.3-0.3l0.3-0.1l0.5-0.1h0.4l0.5,0.1l0.3,0.1l0.3,0.3l0.1,0.4V78.2"/>
		<path class="st12" d="M212.8,73.9v1.6"/>
		<path class="st12" d="M212.8,74.7h-2.8l0.4,0.3l0.3,0.3l0.1,0.3"/>
		<path class="st12" d="M209.9,71.4v1.3l1.4,0.1l-0.1-0.1l-0.1-0.3v-0.7l0.1-0.3l0.1-0.1l0.3-0.1h0.7l0.3,0.1l0.1,0.1l0.1,0.3v0.7
			l-0.1,0.3l-0.1,0.1"/>
		<g transform="rotate(-90 29774.6 20390.4)">
			<g class="st6">
				<rect x="50015.4" y="-9173.1" class="st7" width="5.7" height="6.9"/>
				<text transform="matrix(1 0 0 1 50014.7227 -9169.2725)" class="st8 st9 st10">D14</text>
			</g>
			<g class="st6">
				<rect x="50015.4" y="-9173.2" class="st7" width="5.7" height="6.9"/>
				<text transform="matrix(1 0 0 1 50014.7188 -9169.2744)" class="st11 st9 st10">D14</text>
			</g>
		</g>
		<path class="st12" d="M215.7,150.2h-2.8v-0.7l0.1-0.4l0.3-0.3l0.3-0.1l0.5-0.1h0.4l0.5,0.1l0.3,0.1l0.3,0.3l0.1,0.4V150.2"/>
		<path class="st12" d="M215.7,145.9v1.6"/>
		<path class="st12" d="M215.7,146.7h-2.8l0.4,0.3l0.3,0.3l0.1,0.3"/>
		<path class="st12" d="M213.8,143.5h1.9"/>
		<path class="st12" d="M212.7,144.2l2,0.7v-1.8"/>
		<g transform="rotate(-90 26174.6 20390.4)">
			<g class="st6">
				<rect x="46415.4" y="-5599.1" class="st7" width="5.7" height="6.9"/>
				<text transform="matrix(1 0 0 1 46414.7227 -5595.1919)" class="st8 st9 st10">D13</text>
			</g>
			<g class="st6">
				<rect x="46415.4" y="-5599.1" class="st7" width="5.7" height="6.9"/>
				<text transform="matrix(1 0 0 1 46414.7188 -5595.1938)" class="st11 st9 st10">D13</text>
			</g>
		</g>
		<path class="st12" d="M189.7,150.2h-2.8v-0.7l0.1-0.4l0.3-0.3l0.3-0.1l0.5-0.1h0.4l0.5,0.1l0.3,0.1l0.3,0.3l0.1,0.4V150.2"/>
		<path class="st12" d="M189.7,145.9v1.6"/>
		<path class="st12" d="M189.7,146.7h-2.8l0.4,0.3l0.3,0.3l0.1,0.3"/>
		<path class="st12" d="M186.9,145v-1.8l1.1,0.9v-0.4l0.1-0.3l0.1-0.1l0.3-0.1h0.7l0.3,0.1l0.1,0.1l0.1,0.3v0.8l-0.1,0.3l-0.1,0.1"
			/>
		<g transform="rotate(-90 22774.6 20390.4)">
			<g class="st6">
				<rect x="43015.4" y="-2223.5" class="st7" width="5.7" height="6.9"/>
				<text transform="matrix(1 0 0 1 43014.7227 -2219.6719)" class="st8 st9 st10">D12</text>
			</g>
			<g class="st6">
				<rect x="43015.4" y="-2223.6" class="st7" width="5.7" height="6.9"/>
				<text transform="matrix(1 0 0 1 43014.7188 -2219.6738)" class="st11 st9 st10">D12</text>
			</g>
		</g>
		<path class="st12" d="M165.3,150.2h-2.8v-0.7l0.1-0.4l0.3-0.3l0.3-0.1l0.5-0.1h0.4l0.5,0.1l0.3,0.1l0.3,0.3l0.1,0.4V150.2"/>
		<path class="st12" d="M165.3,145.9v1.6"/>
		<path class="st12" d="M165.3,146.7h-2.8l0.4,0.3l0.3,0.3l0.1,0.3"/>
		<path class="st12" d="M162.7,144.8l-0.1-0.1l-0.1-0.3v-0.7l0.1-0.3l0.1-0.1l0.3-0.1h0.3l0.4,0.1l1.6,1.6v-1.8"/>
		<g transform="rotate(-90 19174.6 20390.4)">
			<g class="st6">
				<rect x="39415.2" y="1350.6" class="st7" width="5.9" height="6.7"/>
				<text transform="matrix(1 0 0 1 39414.8633 1354.2349)"><tspan x="0" y="0" class="st8 st9 st10 st13">D</tspan><tspan x="4.6" y="0" class="st8 st9 st10">1</tspan></text>
			</g>
			<g class="st6">
				<rect x="39415.2" y="1350.6" class="st7" width="5.9" height="6.7"/>
				<text transform="matrix(1 0 0 1 39414.8594 1354.2329)"><tspan x="0" y="0" class="st11 st9 st10 st13">D</tspan><tspan x="4.6" y="0" class="st11 st9 st10">1</tspan></text>
			</g>
		</g>
		<path class="st12" d="M139.3,150.2h-2.8v-0.7l0.1-0.4l0.3-0.3l0.3-0.1l0.5-0.1h0.4l0.5,0.1l0.3,0.1l0.3,0.3l0.1,0.4V150.2"/>
		<path class="st12" d="M139.3,145.9v1.6"/>
		<path class="st12" d="M139.3,146.7h-2.8l0.4,0.3l0.3,0.3l0.1,0.3"/>
		<path class="st12" d="M139.3,143.2v1.6"/>
		<path class="st12" d="M139.3,144h-2.8l0.4,0.3l0.3,0.3l0.1,0.3"/>
		<g transform="rotate(-90 15774.6 20390.4)">
			<g class="st6">
				<rect x="36015.4" y="4726.1" class="st7" width="5.7" height="6.9"/>
				<text transform="matrix(1 0 0 1 36014.7227 4729.9282)" class="st8 st9 st10">D10</text>
			</g>
			<g class="st6">
				<rect x="36015.4" y="4726" class="st7" width="5.7" height="6.9"/>
				<text transform="matrix(1 0 0 1 36014.7188 4729.9263)" class="st11 st9 st10">D10</text>
			</g>
		</g>
		<path class="st12" d="M114.9,150.2H112v-0.7l0.1-0.4l0.3-0.3l0.3-0.1l0.5-0.1h0.4l0.5,0.1l0.3,0.1l0.3,0.3l0.1,0.4V150.2"/>
		<path class="st12" d="M114.9,145.9v1.6"/>
		<path class="st12" d="M114.9,146.7H112l0.4,0.3l0.3,0.3l0.1,0.3"/>
		<path class="st12" d="M112,144.2v-0.3l0.1-0.3l0.1-0.1l0.3-0.1l0.5-0.1h0.7l0.5,0.1l0.3,0.1l0.1,0.1l0.1,0.3v0.3l-0.1,0.3
			l-0.1,0.1l-0.3,0.1l-0.5,0.1h-0.7l-0.5-0.1l-0.3-0.1l-0.1-0.1L112,144.2"/>
		<g transform="rotate(-90 12174.6 20390.4)">
			<g class="st6">
				<rect x="32415.4" y="8301.2" class="st7" width="5.6" height="4.8"/>
				<text transform="matrix(1 0 0 1 32415.7734 8304.0322)" class="st8 st9 st10">D9</text>
			</g>
			<g class="st6">
				<rect x="32415.4" y="8301.2" class="st7" width="5.6" height="4.8"/>
				<text transform="matrix(1 0 0 1 32415.7715 8304.0303)" class="st11 st9 st10">D9</text>
			</g>
		</g>
		<path class="st12" d="M88.9,148.9h-2.8v-0.7l0.1-0.4l0.3-0.3l0.3-0.1l0.5-0.1h0.4l0.5,0.1l0.3,0.1l0.3,0.3l0.1,0.4V148.9"/>
		<path class="st12" d="M88.9,145.9v-0.5l-0.1-0.3l-0.1-0.1l-0.4-0.3l-0.5-0.1h-1.1l-0.3,0.1l-0.1,0.1l-0.1,0.3v0.5l0.1,0.3l0.1,0.1
			l0.3,0.1h0.7l0.3-0.1l0.1-0.1l0.1-0.3v-0.5l-0.1-0.3l-0.1-0.1l-0.3-0.1"/>
		<g transform="rotate(-90 8774.6 20390.4)">
			<g class="st6">
				<rect x="29015.4" y="11676.7" class="st7" width="5.6" height="4.8"/>
				<text transform="matrix(1 0 0 1 29015.7734 11679.5518)" class="st8 st9 st10">D8</text>
			</g>
			<g class="st6">
				<rect x="29015.4" y="11676.7" class="st7" width="5.6" height="4.8"/>
				<text transform="matrix(1 0 0 1 29015.7715 11679.5498)" class="st11 st9 st10">D8</text>
			</g>
		</g>
		<path class="st12" d="M64.5,148.9h-2.8v-0.7l0.1-0.4l0.3-0.3l0.3-0.1l0.5-0.1h0.4l0.5,0.1l0.3,0.1l0.3,0.3l0.1,0.4V148.9"/>
		<path class="st12" d="M62.8,145.7l-0.1,0.3l-0.1,0.1l-0.3,0.1h-0.1l-0.3-0.1l-0.1-0.1l-0.1-0.3v-0.5l0.1-0.3l0.1-0.1l0.3-0.1h0.1
			l0.3,0.1l0.1,0.1l0.1,0.3V145.7l0.1,0.3l0.1,0.1l0.3,0.1h0.5l0.3-0.1l0.1-0.1l0.1-0.3v-0.5l-0.1-0.3l-0.1-0.1l-0.3-0.1h-0.5
			l-0.3,0.1l-0.1,0.1l-0.1,0.3"/>
		<g transform="rotate(-90 29774.6 17590.4)">
			<g class="st6">
				<rect x="47235.5" y="-11972.1" class="st7" width="5.6" height="4.8"/>
				<text transform="matrix(1 0 0 1 47235.9336 -11969.248)" class="st8 st9 st10">D7</text>
			</g>
			<g class="st6">
				<rect x="47235.5" y="-11972.1" class="st7" width="5.6" height="4.8"/>
				<text transform="matrix(1 0 0 1 47235.9297 -11969.25)" class="st11 st9 st10">D7</text>
			</g>
		</g>
		<path class="st12" d="M215.7,128.7h-2.8v-0.7l0.1-0.4l0.3-0.3l0.3-0.1l0.5-0.1h0.4l0.5,0.1l0.3,0.1l0.3,0.3l0.1,0.4V128.7"/>
		<path class="st12" d="M212.8,126.2v-1.9l2.8,1.2"/>
		<g transform="rotate(-90 26174.6 17590.4)">
			<g class="st6">
				<rect x="43635.5" y="-8398" class="st7" width="5.6" height="4.8"/>
				<text transform="matrix(1 0 0 1 43635.9336 -8395.168)" class="st8 st9 st10">D6</text>
			</g>
			<g class="st6">
				<rect x="43635.5" y="-8398" class="st7" width="5.6" height="4.8"/>
				<text transform="matrix(1 0 0 1 43635.9297 -8395.1699)" class="st11 st9 st10">D6</text>
			</g>
		</g>
		<path class="st12" d="M189.7,128.7h-2.8v-0.7l0.1-0.4l0.3-0.3l0.3-0.1l0.5-0.1h0.4l0.5,0.1l0.3,0.1l0.3,0.3l0.1,0.4V128.7"/>
		<path class="st12" d="M186.9,124.7v0.5l0.1,0.3l0.1,0.1l0.4,0.3l0.5,0.1h1.1l0.3-0.1l0.1-0.1l0.1-0.3V125l-0.1-0.3l-0.1-0.1
			l-0.3-0.1h-0.7l-0.3,0.1l-0.1,0.1L188,125v0.5l0.1,0.3l0.1,0.1l0.3,0.1"/>
		<g transform="rotate(-90 22774.6 17590.4)">
			<g class="st6">
				<rect x="40235.5" y="-5022.5" class="st7" width="5.6" height="4.8"/>
				<text transform="matrix(1 0 0 1 40235.9336 -5019.6479)" class="st8 st9 st10">D5</text>
			</g>
			<g class="st6">
				<rect x="40235.5" y="-5022.5" class="st7" width="5.6" height="4.8"/>
				<text transform="matrix(1 0 0 1 40235.9297 -5019.6499)" class="st11 st9 st10">D5</text>
			</g>
		</g>
		<path class="st12" d="M165.3,128.7h-2.8v-0.7l0.1-0.4l0.3-0.3l0.3-0.1l0.5-0.1h0.4l0.5,0.1l0.3,0.1l0.3,0.3l0.1,0.4V128.7"/>
		<path class="st12" d="M162.4,124.6v1.4l1.4,0.1l-0.1-0.1l-0.1-0.3V125l0.1-0.3l0.1-0.1l0.3-0.1h0.7l0.3,0.1l0.1,0.1l0.1,0.3v0.7
			l-0.1,0.3L165,126"/>
		<g transform="rotate(-90 19174.6 17590.4)">
			<g class="st6">
				<rect x="36635.5" y="-1448.4" class="st7" width="5.6" height="4.8"/>
				<text transform="matrix(1 0 0 1 36635.9336 -1445.5679)" class="st8 st9 st10">D4</text>
			</g>
			<g class="st6">
				<rect x="36635.5" y="-1448.4" class="st7" width="5.6" height="4.8"/>
				<text transform="matrix(1 0 0 1 36635.9297 -1445.5698)" class="st11 st9 st10">D4</text>
			</g>
		</g>
		<path class="st12" d="M139.3,128.7h-2.8v-0.7l0.1-0.4l0.3-0.3l0.3-0.1l0.5-0.1h0.4l0.5,0.1l0.3,0.1l0.3,0.3l0.1,0.4V128.7"/>
		<path class="st12" d="M137.4,124.7h1.9"/>
		<path class="st12" d="M136.4,125.4l2,0.7v-1.7"/>
		<g transform="rotate(-90 15774.6 17590.4)">
			<g class="st6">
				<rect x="33235.5" y="1927.1" class="st7" width="5.6" height="4.8"/>
				<text transform="matrix(1 0 0 1 33235.9336 1929.9521)" class="st8 st9 st10">D3</text>
			</g>
			<g class="st6">
				<rect x="33235.5" y="1927.1" class="st7" width="5.6" height="4.8"/>
				<text transform="matrix(1 0 0 1 33235.9297 1929.9502)" class="st11 st9 st10">D3</text>
			</g>
		</g>
		<path class="st12" d="M114.9,128.7H112v-0.7l0.1-0.4l0.3-0.3l0.3-0.1l0.5-0.1h0.4l0.5,0.1l0.3,0.1l0.3,0.3l0.1,0.4V128.7"/>
		<path class="st12" d="M112,126.2v-1.7l1.1,0.9V125l0.1-0.3l0.1-0.1l0.3-0.1h0.7l0.3,0.1l0.1,0.1l0.1,0.3v0.8l-0.1,0.3l-0.1,0.1"/>
		<g transform="rotate(-90 12174.6 17590.4)">
			<g class="st6">
				<rect x="29635.5" y="5501.2" class="st7" width="5.6" height="4.8"/>
				<text transform="matrix(1 0 0 1 29635.9336 5504.0322)" class="st8 st9 st10">D2</text>
			</g>
			<g class="st6">
				<rect x="29635.5" y="5501.2" class="st7" width="5.6" height="4.8"/>
				<text transform="matrix(1 0 0 1 29635.9316 5504.0303)" class="st11 st9 st10">D2</text>
			</g>
		</g>
		<path class="st12" d="M88.9,128.7h-2.8v-0.7l0.1-0.4l0.3-0.3l0.3-0.1l0.5-0.1h0.4l0.5,0.1l0.3,0.1l0.3,0.3l0.1,0.4V128.7"/>
		<path class="st12" d="M86.4,126l-0.1-0.1l-0.1-0.3V125l0.1-0.3l0.1-0.1l0.3-0.1h0.3l0.4,0.1l1.6,1.6v-1.7"/>
		<g transform="rotate(-90 8774.6 17590.4)">
			<g class="st6">
				<rect x="26235.5" y="8876.7" class="st7" width="5.6" height="4.8"/>
				<text transform="matrix(1 0 0 1 26235.9336 8879.5518)" class="st8 st9 st10">D1</text>
			</g>
			<g class="st6">
				<rect x="26235.5" y="8876.7" class="st7" width="5.6" height="4.8"/>
				<text transform="matrix(1 0 0 1 26235.9316 8879.5498)" class="st11 st9 st10">D1</text>
			</g>
		</g>
		<path class="st12" d="M64.5,128.7h-2.8v-0.7l0.1-0.4l0.3-0.3l0.3-0.1l0.5-0.1h0.4l0.5,0.1l0.3,0.1l0.3,0.3l0.1,0.4V128.7"/>
		<path class="st12" d="M64.5,124.4v1.6"/>
		<path class="st12" d="M64.5,125.2h-2.8l0.4,0.3l0.3,0.3l0.1,0.3"/>
		<g transform="rotate(-90 10774.6 7390.35)">
			<g class="st6">
				<rect x="18108.9" y="-3308.9" class="st7" width="5.6" height="4.8"/>
				<text transform="matrix(1 0 0 1 18109.3223 -3306.0977)" class="st8 st9 st10">C1</text>
			</g>
			<g class="st6">
				<rect x="18108.9" y="-3308.9" class="st7" width="5.6" height="4.8"/>
				<text transform="matrix(1 0 0 1 18109.3223 -3306.0996)" class="st11 st9 st10">C1</text>
			</g>
		</g>
		<path class="st12" d="M78.6,53.7l0.1,0.1l0.1,0.4v0.3l-0.1,0.4l-0.3,0.3l-0.3,0.1l-0.5,0.1h-0.4l-0.5-0.1l-0.3-0.1l-0.3-0.3
			L76,54.5v-0.3l0.1-0.4l0.1-0.1"/>
		<path class="st12" d="M78.9,51v1.6"/>
		<path class="st12" d="M78.9,51.8H76l0.4,0.3l0.3,0.3l0.1,0.3"/>
	</g>
</g>
</svg>
