<?xml version="1.0" standalone="no"?>
 <!DOCTYPE svg PUBLIC "-//W3C//DTD SVG 1.1//EN" 
 "http://www.w3.org/Graphics/SVG/1.1/DTD/svg11.dtd"> 
<svg
  xmlns:svg="http://www.w3.org/2000/svg"
  xmlns="http://www.w3.org/2000/svg"
  xmlns:xlink="http://www.w3.org/1999/xlink"
  version="1.1"
  width="8.884920cm" height="7.028180cm" viewBox="0 0 34980 27670">
<title>SVG Picture created as PCB-B_SilkS.svg date 2020/06/27 19:56:36 </title>
  <desc>Picture generated by PCBNEW </desc>
<g style="fill:#000000; fill-opacity:1;stroke:#000000; stroke-opacity:1;
stroke-linecap:round; stroke-linejoin:round;"
 transform="translate(0 0) scale(1 1)">
</g>
<g style="fill:#000000; fill-opacity:0.0; 
stroke:#000000; stroke-width:-0.000393701; stroke-opacity:1; 
stroke-linecap:round; stroke-linejoin:round;">
</g>
<g style="fill:#840084; fill-opacity:0.0; 
stroke:#840084; stroke-width:-0.000393701; stroke-opacity:1; 
stroke-linecap:round; stroke-linejoin:round;">
</g>
<g style="fill:#840084; fill-opacity:0.0; 
stroke:#840084; stroke-width:118.11; stroke-opacity:1; 
stroke-linecap:round; stroke-linejoin:round;">
<text x="23644.3" y="5355.31"
textLength="10553.1" font-size="787.402" lengthAdjust="spacingAndGlyphs"
text-anchor="middle" opacity="0">Designed by Electro707</text>
<path d="M28818 5327
L28818 4736
L28678 4736
L28593 4764
L28537 4821
L28509 4877
L28481 4989
L28481 5074
L28509 5186
L28537 5242
L28593 5299
L28678 5327
L28818 5327
" />
<path d="M28003 5299
L28059 5327
L28171 5327
L28228 5299
L28256 5242
L28256 5017
L28228 4961
L28171 4933
L28059 4933
L28003 4961
L27974 5017
L27974 5074
L28256 5130
" />
<path d="M27750 5299
L27693 5327
L27581 5327
L27525 5299
L27496 5242
L27496 5214
L27525 5158
L27581 5130
L27665 5130
L27721 5102
L27750 5045
L27750 5017
L27721 4961
L27665 4933
L27581 4933
L27525 4961
" />
<path d="M27243 5327
L27243 4933
" />
<path d="M27243 4736
L27271 4764
L27243 4792
L27215 4764
L27243 4736
L27243 4792
" />
<path d="M26709 4933
L26709 5411
L26737 5467
L26765 5495
L26822 5524
L26906 5524
L26962 5495
" />
<path d="M26709 5299
L26765 5327
L26878 5327
L26934 5299
L26962 5270
L26990 5214
L26990 5045
L26962 4989
L26934 4961
L26878 4933
L26765 4933
L26709 4961
" />
<path d="M26428 4933
L26428 5327
" />
<path d="M26428 4989
L26400 4961
L26343 4933
L26259 4933
L26203 4961
L26175 5017
L26175 5327
" />
<path d="M25669 5299
L25725 5327
L25837 5327
L25894 5299
L25922 5242
L25922 5017
L25894 4961
L25837 4933
L25725 4933
L25669 4961
L25640 5017
L25640 5074
L25922 5130
" />
<path d="M25134 5327
L25134 4736
" />
<path d="M25134 5299
L25190 5327
L25303 5327
L25359 5299
L25387 5270
L25415 5214
L25415 5045
L25387 4989
L25359 4961
L25303 4933
L25190 4933
L25134 4961
" />
<path d="M24403 5327
L24403 4736
" />
<path d="M24403 4961
L24347 4933
L24234 4933
L24178 4961
L24150 4989
L24122 5045
L24122 5214
L24150 5270
L24178 5299
L24234 5327
L24347 5327
L24403 5299
" />
<path d="M23925 4933
L23784 5327
" />
<path d="M23644 4933
L23784 5327
L23841 5467
L23869 5495
L23925 5524
" />
<path d="M22969 5017
L22772 5017
" />
<path d="M22688 5327
L22969 5327
L22969 4736
L22688 4736
" />
<path d="M22350 5327
L22406 5299
L22435 5242
L22435 4736
" />
<path d="M21900 5299
L21956 5327
L22069 5327
L22125 5299
L22153 5242
L22153 5017
L22125 4961
L22069 4933
L21956 4933
L21900 4961
L21872 5017
L21872 5074
L22153 5130
" />
<path d="M21366 5299
L21422 5327
L21535 5327
L21591 5299
L21619 5270
L21647 5214
L21647 5045
L21619 4989
L21591 4961
L21535 4933
L21422 4933
L21366 4961
" />
<path d="M21197 4933
L20972 4933
" />
<path d="M21113 4736
L21113 5242
L21085 5299
L21028 5327
L20972 5327
" />
<path d="M20775 5327
L20775 4933
" />
<path d="M20775 5045
L20747 4989
L20719 4961
L20663 4933
L20607 4933
" />
<path d="M20325 5327
L20382 5299
L20410 5270
L20438 5214
L20438 5045
L20410 4989
L20382 4961
L20325 4933
L20241 4933
L20185 4961
L20157 4989
L20129 5045
L20129 5214
L20157 5270
L20185 5299
L20241 5327
L20325 5327
" />
<path d="M19932 4736
L19538 4736
L19791 5327
" />
<path d="M19201 4736
L19144 4736
L19088 4764
L19060 4792
L19032 4849
L19004 4961
L19004 5102
L19032 5214
L19060 5270
L19088 5299
L19144 5327
L19201 5327
L19257 5299
L19285 5270
L19313 5214
L19341 5102
L19341 4961
L19313 4849
L19285 4792
L19257 4764
L19201 4736
" />
<path d="M18807 4736
L18413 4736
L18666 5327
" />
</g>
<g style="fill:#840084; fill-opacity:1.0; 
stroke:#840084; stroke-width:3.93701; stroke-opacity:1; 
stroke-linecap:round; stroke-linejoin:round;">
<path style="fill:#840084; fill-opacity:1.0; 
stroke:#840084; stroke-width:3.93701; stroke-opacity:1; 
stroke-linecap:round; stroke-linejoin:round;fill-rule:evenodd;"
d="M 29834.5,2858
29808.3,2866.47
29786.8,2873.26
29761.1,2881.04
29731.8,2889.69
29699.2,2899.08
29663.9,2909.09
29626.2,2919.6
29586.7,2930.48
29545.9,2941.61
29504.1,2952.86
29461.8,2964.11
29419.5,2975.22
29377.6,2986.09
29336.7,2996.58
29297,3006.57
29266,3014.28
29160.7,3039.7
29059.7,3063.12
28963,3084.53
28870.6,3103.94
28782.3,3121.35
28698.3,3136.75
28618.5,3150.17
28543,3161.58
28471.6,3171
28404.4,3178.43
28341.4,3183.86
28282.6,3187.31
28269.6,3187.82
28224.1,3189.45
28224.1,3391.9
28255.4,3391.87
28288.4,3391.41
28325.2,3390.05
28365.9,3387.79
28410.7,3384.61
28459.7,3380.52
28513.1,3375.5
28570.8,3369.53
28594,3367.02
28597.3,3366.91
28596.6,3367.79
28591.9,3369.71
28582.9,3372.75
28572.6,3376
28522,3393.49
28475.5,3413.29
28433,3435.44
28394.6,3459.97
28360,3486.93
28329.4,3516.35
28302.7,3548.26
28279.7,3582.69
28267.2,3605.69
28253,3637.4
28241.7,3669.84
28233.4,3703.71
28227.8,3739.74
28224.8,3778.64
28224.1,3810.04
28225.3,3851.61
28229,3889.77
28235.3,3925.24
28244.3,3958.71
28256.3,3990.9
28267.2,4014.34
28279.2,4036.73
28291.6,4056.67
28305.3,4075.43
28321.4,4094.26
28338.2,4112.06
28368.1,4139.58
28401.2,4164.69
28437.8,4187.51
28478.1,4208.16
28522.3,4226.78
28570.7,4243.48
28572.6,4244.08
28585.1,4248.05
28593.2,4250.86
28597.1,4252.56
28596.9,4253.22
28594,4253.06
28534.5,4246.74
28479.5,4241.36
28428.8,4236.91
28382.5,4233.39
28340.2,4230.78
28301.9,4229.08
28267.5,4228.28
28255.4,4228.21
28224.1,4228.18
28224.1,4431.35
28243.6,4431.38
28257,4431.62
28274.1,4432.26
28293.9,4433.23
28315.5,4434.49
28337.8,4435.96
28359.9,4437.61
28380.8,4439.36
28384.8,4439.72
28446.7,4446.14
28512.7,4454.41
28582.8,4464.49
28611.6,4469.1
28611.6,4256.53
28609.6,4255.67
28610,4254.96
28612.8,4254.67
28613.1,4254.96
28612.8,4256.36
28611.6,4256.53
28611.6,4469.1
28656.7,4476.34
28734.3,4489.93
28815.4,4505.23
28899.8,4522.2
28987.3,4540.8
29077.9,4561.01
29171.3,4582.79
29267.4,4606.1
29365.9,4630.9
29466.8,4657.18
29542.3,4677.4
29566.3,4683.94
29592.1,4691.05
29618.9,4698.55
29646.4,4706.26
29673.7,4714.01
29700.4,4721.63
29725.7,4728.94
29749.1,4735.76
29770,4741.91
29787.7,4747.23
29801.7,4751.53
29805,4752.57
29834.7,4762.08
30161.3,4762.08
30161.3,4511.67
29844.7,4511.67
29844.7,3991.94
29641.6,3991.94
29641.6,4461.26
29613.8,4453.23
29584.2,4444.95
29550.5,4435.99
29513.1,4426.44
29472.4,4416.42
29428.9,4406.04
29383.2,4395.42
29335.7,4384.66
29286.8,4373.86
29237,4363.16
29186.8,4352.64
29156.1,4346.34
29137,4342.51
29114.8,4338.17
29090.3,4333.45
29064.1,4328.46
29036.9,4323.33
29009.3,4318.19
28982,4313.15
28955.7,4308.35
28931.1,4303.89
28908.7,4299.92
28889.3,4296.54
28873.6,4293.89
28867.3,4292.88
28856.8,4291.21
28848.2,4289.83
28842.6,4288.9
28840.7,4288.56
28843,4288.53
28849.5,4288.5
28859.7,4288.48
28873.2,4288.46
28889.5,4288.44
28908,4288.43
28928.3,4288.42
28938.2,4288.42
28951,4288.39
28951,4037.75
28926,4037.74
28901.4,4037.53
28878.1,4037.13
28857.1,4036.52
28839.1,4035.71
28826.5,4034.83
28774,4029.03
28725.6,4021.23
28681.5,4011.46
28641.6,3999.72
28605.9,3986
28574.5,3970.32
28547.4,3952.68
28524.6,3933.09
28506,3911.54
28491.7,3888.05
28481.7,3862.61
28478,3847.84
28475.6,3829.82
28474.9,3809.63
28475.8,3789.52
28477.9,3774.07
28485.3,3747.27
28497.1,3722.45
28513.1,3699.61
28533.4,3678.75
28558.1,3659.88
28586.9,3642.99
28611.6,3631.94
28611.6,3365.91
28609.6,3365.05
28610,3364.34
28612.8,3364.05
28613.1,3364.34
28612.8,3365.74
28611.6,3365.91
28611.6,3631.94
28620.1,3628.09
28657.6,3615.18
28699.3,3604.25
28745.3,3595.32
28795.6,3588.37
28826.5,3585.26
28841,3584.29
28859.3,3583.51
28880.6,3582.93
28904,3582.55
28928.6,3582.36
28953.7,3582.37
28978.3,3582.58
29001.5,3582.98
29022.5,3583.58
29040.5,3584.38
29053.3,3585.26
29105.7,3591
29153.8,3598.68
29197.6,3608.29
29237.2,3619.87
29272.6,3633.4
29303.8,3648.91
29330.9,3666.39
29353.8,3685.87
29354.9,3686.87
29373.6,3708.49
29387.9,3731.87
29397.9,3757.14
29403.7,3784.41
29405.3,3810.04
29403.2,3839.3
29396.7,3866.57
29386,3891.87
29371,3915.17
29351.7,3936.5
29328.1,3955.84
29300.2,3973.2
29268.1,3988.58
29231.6,4001.97
29190.9,4013.38
29145.9,4022.8
29096.6,4030.25
29053.3,4034.83
29038.8,4035.81
29020.5,4036.6
28999.2,4037.18
28975.7,4037.57
28951,4037.75
28951,4288.39
28969.4,4288.35
28996.7,4288.08
29021,4287.59
29042.9,4286.81
29063.3,4285.72
29083,4284.26
29102.8,4282.39
29123.5,4280.05
29145.9,4277.22
29152,4276.42
29212.3,4266.74
29268.9,4254.34
29321.9,4239.23
29371.2,4221.43
29416.7,4200.96
29458.4,4177.84
29496.2,4152.09
29501.3,4148.15
29513.4,4138.2
29526.8,4126.13
29540.6,4113
29553.6,4099.87
29564.7,4087.82
29570.8,4080.53
29594.7,4046.67
29614.8,4010.05
29631.1,3971
29643.4,3929.83
29651.6,3886.85
29653.2,3873.33
29654.4,3858.5
29655.2,3840.32
29655.6,3820.13
29655.6,3799.29
29655.2,3779.15
29654.4,3761.05
29653.2,3746.75
29646.2,3702.47
29635.2,3660.53
29620,3620.96
29600.8,3583.77
29577.7,3549.02
29550.5,3516.71
29519.5,3486.89
29484.5,3459.59
29445.7,3434.82
29403.1,3412.63
29356.6,3393.04
29306.4,3376.08
29252.5,3361.78
29222.2,3355.26
29191.3,3349.45
29161.3,3344.58
29131.5,3340.61
29101.2,3337.45
29069.4,3335.06
29035.6,3333.35
28998.9,3332.29
28958.5,3331.78
28940.4,3331.73
28840.4,3331.66
28866,3327.49
28908.8,3320.29
28954.1,3312.31
29001.5,3303.64
29050.4,3294.37
29100.4,3284.61
29151.1,3274.45
29202,3263.99
29252.7,3253.33
29302.6,3242.57
29351.4,3231.81
29398.5,3221.15
29443.5,3210.67
29486,3200.49
29525.4,3190.71
29561.4,3181.41
29593.5,3172.69
29610.7,3167.78
29641.6,3158.75
29641.6,3628.14
29844.7,3628.14
29844.7,3108.41
30161.3,3108.41
30161.3,3708.46
29925,3708.46
29925,3911.62
30161.3,3911.62
30161.3,4511.67
30161.3,4762.08
30364.4,4762.08
30364.4,2858
Z" /> 
</g>
<g style="fill:#840084; fill-opacity:1.0; 
stroke:#840084; stroke-width:47.2441; stroke-opacity:1; 
stroke-linecap:round; stroke-linejoin:round;">
</g>
<g style="fill:#840084; fill-opacity:0.0; 
stroke:#840084; stroke-width:47.2441; stroke-opacity:1; 
stroke-linecap:round; stroke-linejoin:round;">
<path d="M29220 22833
L29744 22833
" />
<path d="M29220 22310
L29220 22833
" />
<path d="M29220 21810
L30267 21810
" />
<path d="M30267 21810
L30267 4786
" />
<path d="M29220 21810
L29220 4786
" />
<path d="M29220 4786
L30267 4786
" />
<path d="M5220 4786
L6267 4786
" />
<path d="M5220 21810
L5220 4786
" />
<path d="M6267 21810
L6267 4786
" />
<path d="M5220 21810
L6267 21810
" />
<path d="M5220 22310
L5220 22833
" />
<path d="M5220 22833
L5744 22833
" />
</g>
<g style="fill:#840084; fill-opacity:0.0; 
stroke:#840084; stroke-width:59.0551; stroke-opacity:1; 
stroke-linecap:round; stroke-linejoin:round;">
<text x="29744.3" y="23424.2"
textLength="521.372" font-size="524.934" lengthAdjust="spacingAndGlyphs"
text-anchor="middle" opacity="0">J2</text>
<path d="M29875 23011
L29875 23292
L29894 23349
L29931 23386
L29988 23405
L30025 23405
" />
<path d="M29706 23049
L29688 23030
L29650 23011
L29556 23011
L29519 23030
L29500 23049
L29481 23086
L29481 23124
L29500 23180
L29725 23405
L29481 23405
" />
<text x="5744.28" y="23424.2"
textLength="598.144" font-size="524.934" lengthAdjust="spacingAndGlyphs"
text-anchor="middle" opacity="0">J1</text>
<path d="M5875 23011
L5875 23292
L5894 23349
L5931 23386
L5988 23405
L6025 23405
" />
<path d="M5481 23405
L5706 23405
" />
<path d="M5594 23405
L5594 23011
L5631 23068
L5669 23105
L5706 23124
" />
<g >
</g>
</g>
<g style="fill:#000000; fill-opacity:0.0; 
stroke:#000000; stroke-width:59.0551; stroke-opacity:1; 
stroke-linecap:round; stroke-linejoin:round;">
</g>
<g style="fill:#C2C200; fill-opacity:0.0; 
stroke:#C2C200; stroke-width:59.0551; stroke-opacity:1; 
stroke-linecap:round; stroke-linejoin:round;">
</g>
<g style="fill:#C2C200; fill-opacity:0.0; 
stroke:#C2C200; stroke-width:39.3701; stroke-opacity:1; 
stroke-linecap:round; stroke-linejoin:round;">
<path d="M4744 24810
L30744 24810
" />
<path d="M30744 24810
L30744 2810
" />
<path d="M30744 2810
L4744 2810
" />
<path d="M4744 2810
L4744 24810
" />
<g >
</g>
<g >
</g>
<g >
</g>
<g >
</g>
<g >
</g>
<g >
</g>
<g >
</g>
<g >
</g>
<g >
</g>
<g >
</g>
<g >
</g>
<g >
</g>
<g >
</g>
<g >
</g>
<g >
</g>
<g >
</g>
<g >
</g>
<g >
</g>
<g >
</g>
<g >
</g>
<g >
</g>
<g >
</g>
<g >
</g>
<g >
</g>
<g >
</g>
<g >
</g>
<g >
</g>
<g >
</g>
<g >
</g>
<g >
</g>
<g >
</g>
<g >
</g>
<g >
</g>
<g >
</g>
<g >
</g>
<g >
</g>
<g >
</g>
<g >
</g>
<g >
</g>
<g >
</g>
<g >
</g>
<g >
</g>
<g >
</g>
<g >
</g>
<g >
</g>
<g >
</g>
<g >
</g>
<g >
</g>
<g >
</g>
<g >
</g>
<g >
</g>
<g >
</g>
<g >
</g>
</g> 
</svg>
