G04 #@! TF.GenerationSoftware,KiCad,Pcbnew,(5.1.5)-3*
G04 #@! TF.CreationDate,2020-03-12T17:28:53-04:00*
G04 #@! TF.ProjectId,PCB,5043422e-6b69-4636-9164-5f7063625858,rev?*
G04 #@! TF.SameCoordinates,Original*
G04 #@! TF.FileFunction,Legend,Top*
G04 #@! TF.FilePolarity,Positive*
%FSLAX46Y46*%
G04 Gerber Fmt 4.6, Leading zero omitted, Abs format (unit mm)*
G04 Created by KiCad (PCBNEW (5.1.5)-3) date 2020-03-12 17:28:53*
%MOMM*%
%LPD*%
G04 APERTURE LIST*
%ADD10C,0.120000*%
%ADD11C,0.150000*%
G04 APERTURE END LIST*
D10*
X239673000Y-52940000D02*
X238173000Y-52940000D01*
X235673000Y-54190000D02*
X235673000Y-58690000D01*
X238173000Y-59940000D02*
X239673000Y-59940000D01*
X242173000Y-58690000D02*
X242173000Y-54190000D01*
X231977500Y-52940000D02*
X230477500Y-52940000D01*
X227977500Y-54190000D02*
X227977500Y-58690000D01*
X230477500Y-59940000D02*
X231977500Y-59940000D01*
X234477500Y-58690000D02*
X234477500Y-54190000D01*
X224282000Y-52940000D02*
X222782000Y-52940000D01*
X220282000Y-54190000D02*
X220282000Y-58690000D01*
X222782000Y-59940000D02*
X224282000Y-59940000D01*
X226782000Y-58690000D02*
X226782000Y-54190000D01*
X216586500Y-52940000D02*
X215086500Y-52940000D01*
X212586500Y-54190000D02*
X212586500Y-58690000D01*
X215086500Y-59940000D02*
X216586500Y-59940000D01*
X219086500Y-58690000D02*
X219086500Y-54190000D01*
X208891000Y-52940000D02*
X207391000Y-52940000D01*
X204891000Y-54190000D02*
X204891000Y-58690000D01*
X207391000Y-59940000D02*
X208891000Y-59940000D01*
X211391000Y-58690000D02*
X211391000Y-54190000D01*
X201195500Y-52940000D02*
X199695500Y-52940000D01*
X197195500Y-54190000D02*
X197195500Y-58690000D01*
X199695500Y-59940000D02*
X201195500Y-59940000D01*
X203695500Y-58690000D02*
X203695500Y-54190000D01*
X193500000Y-52940000D02*
X192000000Y-52940000D01*
X189500000Y-54190000D02*
X189500000Y-58690000D01*
X192000000Y-59940000D02*
X193500000Y-59940000D01*
X196000000Y-58690000D02*
X196000000Y-54190000D01*
X210760090Y-102583579D02*
G75*
G03X206527401Y-101092001I-2480090J-286421D01*
G01*
X211256836Y-102611784D02*
G75*
G03X205895000Y-101070000I-2976836J-258216D01*
G01*
X210671334Y-104664887D02*
G75*
G02X205720000Y-104414830I-2391334J1794887D01*
G01*
X210239086Y-104423056D02*
G75*
G02X206025316Y-103950000I-1959086J1553056D01*
G01*
X205720000Y-103169188D02*
X205720000Y-104415000D01*
X241240090Y-102583579D02*
G75*
G03X237007401Y-101092001I-2480090J-286421D01*
G01*
X241736836Y-102611784D02*
G75*
G03X236375000Y-101070000I-2976836J-258216D01*
G01*
X241151334Y-104664887D02*
G75*
G02X236200000Y-104414830I-2391334J1794887D01*
G01*
X240719086Y-104423056D02*
G75*
G02X236505316Y-103950000I-1959086J1553056D01*
G01*
X236200000Y-103169188D02*
X236200000Y-104415000D01*
X233620090Y-102583579D02*
G75*
G03X229387401Y-101092001I-2480090J-286421D01*
G01*
X234116836Y-102611784D02*
G75*
G03X228755000Y-101070000I-2976836J-258216D01*
G01*
X233531334Y-104664887D02*
G75*
G02X228580000Y-104414830I-2391334J1794887D01*
G01*
X233099086Y-104423056D02*
G75*
G02X228885316Y-103950000I-1959086J1553056D01*
G01*
X228580000Y-103169188D02*
X228580000Y-104415000D01*
X226000090Y-102583579D02*
G75*
G03X221767401Y-101092001I-2480090J-286421D01*
G01*
X226496836Y-102611784D02*
G75*
G03X221135000Y-101070000I-2976836J-258216D01*
G01*
X225911334Y-104664887D02*
G75*
G02X220960000Y-104414830I-2391334J1794887D01*
G01*
X225479086Y-104423056D02*
G75*
G02X221265316Y-103950000I-1959086J1553056D01*
G01*
X220960000Y-103169188D02*
X220960000Y-104415000D01*
X218380090Y-102583579D02*
G75*
G03X214147401Y-101092001I-2480090J-286421D01*
G01*
X218876836Y-102611784D02*
G75*
G03X213515000Y-101070000I-2976836J-258216D01*
G01*
X218291334Y-104664887D02*
G75*
G02X213340000Y-104414830I-2391334J1794887D01*
G01*
X217859086Y-104423056D02*
G75*
G02X213645316Y-103950000I-1959086J1553056D01*
G01*
X213340000Y-103169188D02*
X213340000Y-104415000D01*
X203140090Y-102583579D02*
G75*
G03X198907401Y-101092001I-2480090J-286421D01*
G01*
X203636836Y-102611784D02*
G75*
G03X198275000Y-101070000I-2976836J-258216D01*
G01*
X203051334Y-104664887D02*
G75*
G02X198100000Y-104414830I-2391334J1794887D01*
G01*
X202619086Y-104423056D02*
G75*
G02X198405316Y-103950000I-1959086J1553056D01*
G01*
X198100000Y-103169188D02*
X198100000Y-104415000D01*
X195520090Y-102583579D02*
G75*
G03X191287401Y-101092001I-2480090J-286421D01*
G01*
X196016836Y-102611784D02*
G75*
G03X190655000Y-101070000I-2976836J-258216D01*
G01*
X195431334Y-104664887D02*
G75*
G02X190480000Y-104414830I-2391334J1794887D01*
G01*
X194999086Y-104423056D02*
G75*
G02X190785316Y-103950000I-1959086J1553056D01*
G01*
X190480000Y-103169188D02*
X190480000Y-104415000D01*
X241240090Y-94963579D02*
G75*
G03X237007401Y-93472001I-2480090J-286421D01*
G01*
X241736836Y-94991784D02*
G75*
G03X236375000Y-93450000I-2976836J-258216D01*
G01*
X241151334Y-97044887D02*
G75*
G02X236200000Y-96794830I-2391334J1794887D01*
G01*
X240719086Y-96803056D02*
G75*
G02X236505316Y-96330000I-1959086J1553056D01*
G01*
X236200000Y-95549188D02*
X236200000Y-96795000D01*
X233620090Y-94963579D02*
G75*
G03X229387401Y-93472001I-2480090J-286421D01*
G01*
X234116836Y-94991784D02*
G75*
G03X228755000Y-93450000I-2976836J-258216D01*
G01*
X233531334Y-97044887D02*
G75*
G02X228580000Y-96794830I-2391334J1794887D01*
G01*
X233099086Y-96803056D02*
G75*
G02X228885316Y-96330000I-1959086J1553056D01*
G01*
X228580000Y-95549188D02*
X228580000Y-96795000D01*
X226000090Y-94963579D02*
G75*
G03X221767401Y-93472001I-2480090J-286421D01*
G01*
X226496836Y-94991784D02*
G75*
G03X221135000Y-93450000I-2976836J-258216D01*
G01*
X225911334Y-97044887D02*
G75*
G02X220960000Y-96794830I-2391334J1794887D01*
G01*
X225479086Y-96803056D02*
G75*
G02X221265316Y-96330000I-1959086J1553056D01*
G01*
X220960000Y-95549188D02*
X220960000Y-96795000D01*
X218380090Y-94963579D02*
G75*
G03X214147401Y-93472001I-2480090J-286421D01*
G01*
X218876836Y-94991784D02*
G75*
G03X213515000Y-93450000I-2976836J-258216D01*
G01*
X218291334Y-97044887D02*
G75*
G02X213340000Y-96794830I-2391334J1794887D01*
G01*
X217859086Y-96803056D02*
G75*
G02X213645316Y-96330000I-1959086J1553056D01*
G01*
X213340000Y-95549188D02*
X213340000Y-96795000D01*
X210760090Y-94963579D02*
G75*
G03X206527401Y-93472001I-2480090J-286421D01*
G01*
X211256836Y-94991784D02*
G75*
G03X205895000Y-93450000I-2976836J-258216D01*
G01*
X210671334Y-97044887D02*
G75*
G02X205720000Y-96794830I-2391334J1794887D01*
G01*
X210239086Y-96803056D02*
G75*
G02X206025316Y-96330000I-1959086J1553056D01*
G01*
X205720000Y-95549188D02*
X205720000Y-96795000D01*
X203140090Y-94963579D02*
G75*
G03X198907401Y-93472001I-2480090J-286421D01*
G01*
X203636836Y-94991784D02*
G75*
G03X198275000Y-93450000I-2976836J-258216D01*
G01*
X203051334Y-97044887D02*
G75*
G02X198100000Y-96794830I-2391334J1794887D01*
G01*
X202619086Y-96803056D02*
G75*
G02X198405316Y-96330000I-1959086J1553056D01*
G01*
X198100000Y-95549188D02*
X198100000Y-96795000D01*
X195520090Y-94963579D02*
G75*
G03X191287401Y-93472001I-2480090J-286421D01*
G01*
X196016836Y-94991784D02*
G75*
G03X190655000Y-93450000I-2976836J-258216D01*
G01*
X195431334Y-97044887D02*
G75*
G02X190480000Y-96794830I-2391334J1794887D01*
G01*
X194999086Y-96803056D02*
G75*
G02X190785316Y-96330000I-1959086J1553056D01*
G01*
X190480000Y-95549188D02*
X190480000Y-96795000D01*
X241240090Y-87343579D02*
G75*
G03X237007401Y-85852001I-2480090J-286421D01*
G01*
X241736836Y-87371784D02*
G75*
G03X236375000Y-85830000I-2976836J-258216D01*
G01*
X241151334Y-89424887D02*
G75*
G02X236200000Y-89174830I-2391334J1794887D01*
G01*
X240719086Y-89183056D02*
G75*
G02X236505316Y-88710000I-1959086J1553056D01*
G01*
X236200000Y-87929188D02*
X236200000Y-89175000D01*
X233620090Y-87343579D02*
G75*
G03X229387401Y-85852001I-2480090J-286421D01*
G01*
X234116836Y-87371784D02*
G75*
G03X228755000Y-85830000I-2976836J-258216D01*
G01*
X233531334Y-89424887D02*
G75*
G02X228580000Y-89174830I-2391334J1794887D01*
G01*
X233099086Y-89183056D02*
G75*
G02X228885316Y-88710000I-1959086J1553056D01*
G01*
X228580000Y-87929188D02*
X228580000Y-89175000D01*
X226000090Y-87343579D02*
G75*
G03X221767401Y-85852001I-2480090J-286421D01*
G01*
X226496836Y-87371784D02*
G75*
G03X221135000Y-85830000I-2976836J-258216D01*
G01*
X225911334Y-89424887D02*
G75*
G02X220960000Y-89174830I-2391334J1794887D01*
G01*
X225479086Y-89183056D02*
G75*
G02X221265316Y-88710000I-1959086J1553056D01*
G01*
X220960000Y-87929188D02*
X220960000Y-89175000D01*
X218380090Y-87343579D02*
G75*
G03X214147401Y-85852001I-2480090J-286421D01*
G01*
X218876836Y-87371784D02*
G75*
G03X213515000Y-85830000I-2976836J-258216D01*
G01*
X218291334Y-89424887D02*
G75*
G02X213340000Y-89174830I-2391334J1794887D01*
G01*
X217859086Y-89183056D02*
G75*
G02X213645316Y-88710000I-1959086J1553056D01*
G01*
X213340000Y-87929188D02*
X213340000Y-89175000D01*
X210760090Y-87343579D02*
G75*
G03X206527401Y-85852001I-2480090J-286421D01*
G01*
X211256836Y-87371784D02*
G75*
G03X205895000Y-85830000I-2976836J-258216D01*
G01*
X210671334Y-89424887D02*
G75*
G02X205720000Y-89174830I-2391334J1794887D01*
G01*
X210239086Y-89183056D02*
G75*
G02X206025316Y-88710000I-1959086J1553056D01*
G01*
X205720000Y-87929188D02*
X205720000Y-89175000D01*
X203140090Y-87343579D02*
G75*
G03X198907401Y-85852001I-2480090J-286421D01*
G01*
X203636836Y-87371784D02*
G75*
G03X198275000Y-85830000I-2976836J-258216D01*
G01*
X203051334Y-89424887D02*
G75*
G02X198100000Y-89174830I-2391334J1794887D01*
G01*
X202619086Y-89183056D02*
G75*
G02X198405316Y-88710000I-1959086J1553056D01*
G01*
X198100000Y-87929188D02*
X198100000Y-89175000D01*
X195520090Y-87343579D02*
G75*
G03X191287401Y-85852001I-2480090J-286421D01*
G01*
X196016836Y-87371784D02*
G75*
G03X190655000Y-85830000I-2976836J-258216D01*
G01*
X195431334Y-89424887D02*
G75*
G02X190480000Y-89174830I-2391334J1794887D01*
G01*
X194999086Y-89183056D02*
G75*
G02X190785316Y-88710000I-1959086J1553056D01*
G01*
X190480000Y-87929188D02*
X190480000Y-89175000D01*
X241240090Y-79723579D02*
G75*
G03X237007401Y-78232001I-2480090J-286421D01*
G01*
X241736836Y-79751784D02*
G75*
G03X236375000Y-78210000I-2976836J-258216D01*
G01*
X241151334Y-81804887D02*
G75*
G02X236200000Y-81554830I-2391334J1794887D01*
G01*
X240719086Y-81563056D02*
G75*
G02X236505316Y-81090000I-1959086J1553056D01*
G01*
X236200000Y-80309188D02*
X236200000Y-81555000D01*
X233620090Y-79723579D02*
G75*
G03X229387401Y-78232001I-2480090J-286421D01*
G01*
X234116836Y-79751784D02*
G75*
G03X228755000Y-78210000I-2976836J-258216D01*
G01*
X233531334Y-81804887D02*
G75*
G02X228580000Y-81554830I-2391334J1794887D01*
G01*
X233099086Y-81563056D02*
G75*
G02X228885316Y-81090000I-1959086J1553056D01*
G01*
X228580000Y-80309188D02*
X228580000Y-81555000D01*
X226000090Y-79723579D02*
G75*
G03X221767401Y-78232001I-2480090J-286421D01*
G01*
X226496836Y-79751784D02*
G75*
G03X221135000Y-78210000I-2976836J-258216D01*
G01*
X225911334Y-81804887D02*
G75*
G02X220960000Y-81554830I-2391334J1794887D01*
G01*
X225479086Y-81563056D02*
G75*
G02X221265316Y-81090000I-1959086J1553056D01*
G01*
X220960000Y-80309188D02*
X220960000Y-81555000D01*
X218380090Y-79723579D02*
G75*
G03X214147401Y-78232001I-2480090J-286421D01*
G01*
X218876836Y-79751784D02*
G75*
G03X213515000Y-78210000I-2976836J-258216D01*
G01*
X218291334Y-81804887D02*
G75*
G02X213340000Y-81554830I-2391334J1794887D01*
G01*
X217859086Y-81563056D02*
G75*
G02X213645316Y-81090000I-1959086J1553056D01*
G01*
X213340000Y-80309188D02*
X213340000Y-81555000D01*
X210760090Y-79723579D02*
G75*
G03X206527401Y-78232001I-2480090J-286421D01*
G01*
X211256836Y-79751784D02*
G75*
G03X205895000Y-78210000I-2976836J-258216D01*
G01*
X210671334Y-81804887D02*
G75*
G02X205720000Y-81554830I-2391334J1794887D01*
G01*
X210239086Y-81563056D02*
G75*
G02X206025316Y-81090000I-1959086J1553056D01*
G01*
X205720000Y-80309188D02*
X205720000Y-81555000D01*
X203140090Y-79723579D02*
G75*
G03X198907401Y-78232001I-2480090J-286421D01*
G01*
X203636836Y-79751784D02*
G75*
G03X198275000Y-78210000I-2976836J-258216D01*
G01*
X203051334Y-81804887D02*
G75*
G02X198100000Y-81554830I-2391334J1794887D01*
G01*
X202619086Y-81563056D02*
G75*
G02X198405316Y-81090000I-1959086J1553056D01*
G01*
X198100000Y-80309188D02*
X198100000Y-81555000D01*
X195520090Y-79723579D02*
G75*
G03X191287401Y-78232001I-2480090J-286421D01*
G01*
X196016836Y-79751784D02*
G75*
G03X190655000Y-78210000I-2976836J-258216D01*
G01*
X195431334Y-81804887D02*
G75*
G02X190480000Y-81554830I-2391334J1794887D01*
G01*
X194999086Y-81563056D02*
G75*
G02X190785316Y-81090000I-1959086J1553056D01*
G01*
X190480000Y-80309188D02*
X190480000Y-81555000D01*
X241240090Y-72103579D02*
G75*
G03X237007401Y-70612001I-2480090J-286421D01*
G01*
X241736836Y-72131784D02*
G75*
G03X236375000Y-70590000I-2976836J-258216D01*
G01*
X241151334Y-74184887D02*
G75*
G02X236200000Y-73934830I-2391334J1794887D01*
G01*
X240719086Y-73943056D02*
G75*
G02X236505316Y-73470000I-1959086J1553056D01*
G01*
X236200000Y-72689188D02*
X236200000Y-73935000D01*
X233620090Y-72103579D02*
G75*
G03X229387401Y-70612001I-2480090J-286421D01*
G01*
X234116836Y-72131784D02*
G75*
G03X228755000Y-70590000I-2976836J-258216D01*
G01*
X233531334Y-74184887D02*
G75*
G02X228580000Y-73934830I-2391334J1794887D01*
G01*
X233099086Y-73943056D02*
G75*
G02X228885316Y-73470000I-1959086J1553056D01*
G01*
X228580000Y-72689188D02*
X228580000Y-73935000D01*
X226000090Y-72103579D02*
G75*
G03X221767401Y-70612001I-2480090J-286421D01*
G01*
X226496836Y-72131784D02*
G75*
G03X221135000Y-70590000I-2976836J-258216D01*
G01*
X225911334Y-74184887D02*
G75*
G02X220960000Y-73934830I-2391334J1794887D01*
G01*
X225479086Y-73943056D02*
G75*
G02X221265316Y-73470000I-1959086J1553056D01*
G01*
X220960000Y-72689188D02*
X220960000Y-73935000D01*
X218380090Y-72103579D02*
G75*
G03X214147401Y-70612001I-2480090J-286421D01*
G01*
X218876836Y-72131784D02*
G75*
G03X213515000Y-70590000I-2976836J-258216D01*
G01*
X218291334Y-74184887D02*
G75*
G02X213340000Y-73934830I-2391334J1794887D01*
G01*
X217859086Y-73943056D02*
G75*
G02X213645316Y-73470000I-1959086J1553056D01*
G01*
X213340000Y-72689188D02*
X213340000Y-73935000D01*
X210760090Y-72103579D02*
G75*
G03X206527401Y-70612001I-2480090J-286421D01*
G01*
X211256836Y-72131784D02*
G75*
G03X205895000Y-70590000I-2976836J-258216D01*
G01*
X210671334Y-74184887D02*
G75*
G02X205720000Y-73934830I-2391334J1794887D01*
G01*
X210239086Y-73943056D02*
G75*
G02X206025316Y-73470000I-1959086J1553056D01*
G01*
X205720000Y-72689188D02*
X205720000Y-73935000D01*
X203140090Y-72103579D02*
G75*
G03X198907401Y-70612001I-2480090J-286421D01*
G01*
X203636836Y-72131784D02*
G75*
G03X198275000Y-70590000I-2976836J-258216D01*
G01*
X203051334Y-74184887D02*
G75*
G02X198100000Y-73934830I-2391334J1794887D01*
G01*
X202619086Y-73943056D02*
G75*
G02X198405316Y-73470000I-1959086J1553056D01*
G01*
X198100000Y-72689188D02*
X198100000Y-73935000D01*
X195520090Y-72103579D02*
G75*
G03X191287401Y-70612001I-2480090J-286421D01*
G01*
X196016836Y-72131784D02*
G75*
G03X190655000Y-70590000I-2976836J-258216D01*
G01*
X195431334Y-74184887D02*
G75*
G02X190480000Y-73934830I-2391334J1794887D01*
G01*
X194999086Y-73943056D02*
G75*
G02X190785316Y-73470000I-1959086J1553056D01*
G01*
X190480000Y-72689188D02*
X190480000Y-73935000D01*
X241240090Y-64483579D02*
G75*
G03X237007401Y-62992001I-2480090J-286421D01*
G01*
X241736836Y-64511784D02*
G75*
G03X236375000Y-62970000I-2976836J-258216D01*
G01*
X241151334Y-66564887D02*
G75*
G02X236200000Y-66314830I-2391334J1794887D01*
G01*
X240719086Y-66323056D02*
G75*
G02X236505316Y-65850000I-1959086J1553056D01*
G01*
X236200000Y-65069188D02*
X236200000Y-66315000D01*
X233620090Y-64483579D02*
G75*
G03X229387401Y-62992001I-2480090J-286421D01*
G01*
X234116836Y-64511784D02*
G75*
G03X228755000Y-62970000I-2976836J-258216D01*
G01*
X233531334Y-66564887D02*
G75*
G02X228580000Y-66314830I-2391334J1794887D01*
G01*
X233099086Y-66323056D02*
G75*
G02X228885316Y-65850000I-1959086J1553056D01*
G01*
X228580000Y-65069188D02*
X228580000Y-66315000D01*
X226000090Y-64483579D02*
G75*
G03X221767401Y-62992001I-2480090J-286421D01*
G01*
X226496836Y-64511784D02*
G75*
G03X221135000Y-62970000I-2976836J-258216D01*
G01*
X225911334Y-66564887D02*
G75*
G02X220960000Y-66314830I-2391334J1794887D01*
G01*
X225479086Y-66323056D02*
G75*
G02X221265316Y-65850000I-1959086J1553056D01*
G01*
X220960000Y-65069188D02*
X220960000Y-66315000D01*
X218380090Y-64483579D02*
G75*
G03X214147401Y-62992001I-2480090J-286421D01*
G01*
X218876836Y-64511784D02*
G75*
G03X213515000Y-62970000I-2976836J-258216D01*
G01*
X218291334Y-66564887D02*
G75*
G02X213340000Y-66314830I-2391334J1794887D01*
G01*
X217859086Y-66323056D02*
G75*
G02X213645316Y-65850000I-1959086J1553056D01*
G01*
X213340000Y-65069188D02*
X213340000Y-66315000D01*
X210760090Y-64483579D02*
G75*
G03X206527401Y-62992001I-2480090J-286421D01*
G01*
X211256836Y-64511784D02*
G75*
G03X205895000Y-62970000I-2976836J-258216D01*
G01*
X210671334Y-66564887D02*
G75*
G02X205720000Y-66314830I-2391334J1794887D01*
G01*
X210239086Y-66323056D02*
G75*
G02X206025316Y-65850000I-1959086J1553056D01*
G01*
X205720000Y-65069188D02*
X205720000Y-66315000D01*
X203140090Y-64483579D02*
G75*
G03X198907401Y-62992001I-2480090J-286421D01*
G01*
X203636836Y-64511784D02*
G75*
G03X198275000Y-62970000I-2976836J-258216D01*
G01*
X203051334Y-66564887D02*
G75*
G02X198100000Y-66314830I-2391334J1794887D01*
G01*
X202619086Y-66323056D02*
G75*
G02X198405316Y-65850000I-1959086J1553056D01*
G01*
X198100000Y-65069188D02*
X198100000Y-66315000D01*
X195520090Y-64483579D02*
G75*
G03X191287401Y-62992001I-2480090J-286421D01*
G01*
X196016836Y-64511784D02*
G75*
G03X190655000Y-62970000I-2976836J-258216D01*
G01*
X195431334Y-66564887D02*
G75*
G02X190480000Y-66314830I-2391334J1794887D01*
G01*
X194999086Y-66323056D02*
G75*
G02X190785316Y-65850000I-1959086J1553056D01*
G01*
X190480000Y-65069188D02*
X190480000Y-66315000D01*
D11*
X235077761Y-57773333D02*
X235125380Y-57630476D01*
X235125380Y-57392380D01*
X235077761Y-57297142D01*
X235030142Y-57249523D01*
X234934904Y-57201904D01*
X234839666Y-57201904D01*
X234744428Y-57249523D01*
X234696809Y-57297142D01*
X234649190Y-57392380D01*
X234601571Y-57582857D01*
X234553952Y-57678095D01*
X234506333Y-57725714D01*
X234411095Y-57773333D01*
X234315857Y-57773333D01*
X234220619Y-57725714D01*
X234173000Y-57678095D01*
X234125380Y-57582857D01*
X234125380Y-57344761D01*
X234173000Y-57201904D01*
X234125380Y-56868571D02*
X235125380Y-56630476D01*
X234411095Y-56440000D01*
X235125380Y-56249523D01*
X234125380Y-56011428D01*
X234125380Y-55725714D02*
X234125380Y-55059047D01*
X235125380Y-55487619D01*
X227382261Y-57773333D02*
X227429880Y-57630476D01*
X227429880Y-57392380D01*
X227382261Y-57297142D01*
X227334642Y-57249523D01*
X227239404Y-57201904D01*
X227144166Y-57201904D01*
X227048928Y-57249523D01*
X227001309Y-57297142D01*
X226953690Y-57392380D01*
X226906071Y-57582857D01*
X226858452Y-57678095D01*
X226810833Y-57725714D01*
X226715595Y-57773333D01*
X226620357Y-57773333D01*
X226525119Y-57725714D01*
X226477500Y-57678095D01*
X226429880Y-57582857D01*
X226429880Y-57344761D01*
X226477500Y-57201904D01*
X226429880Y-56868571D02*
X227429880Y-56630476D01*
X226715595Y-56440000D01*
X227429880Y-56249523D01*
X226429880Y-56011428D01*
X226429880Y-55201904D02*
X226429880Y-55392380D01*
X226477500Y-55487619D01*
X226525119Y-55535238D01*
X226667976Y-55630476D01*
X226858452Y-55678095D01*
X227239404Y-55678095D01*
X227334642Y-55630476D01*
X227382261Y-55582857D01*
X227429880Y-55487619D01*
X227429880Y-55297142D01*
X227382261Y-55201904D01*
X227334642Y-55154285D01*
X227239404Y-55106666D01*
X227001309Y-55106666D01*
X226906071Y-55154285D01*
X226858452Y-55201904D01*
X226810833Y-55297142D01*
X226810833Y-55487619D01*
X226858452Y-55582857D01*
X226906071Y-55630476D01*
X227001309Y-55678095D01*
X219686761Y-57773333D02*
X219734380Y-57630476D01*
X219734380Y-57392380D01*
X219686761Y-57297142D01*
X219639142Y-57249523D01*
X219543904Y-57201904D01*
X219448666Y-57201904D01*
X219353428Y-57249523D01*
X219305809Y-57297142D01*
X219258190Y-57392380D01*
X219210571Y-57582857D01*
X219162952Y-57678095D01*
X219115333Y-57725714D01*
X219020095Y-57773333D01*
X218924857Y-57773333D01*
X218829619Y-57725714D01*
X218782000Y-57678095D01*
X218734380Y-57582857D01*
X218734380Y-57344761D01*
X218782000Y-57201904D01*
X218734380Y-56868571D02*
X219734380Y-56630476D01*
X219020095Y-56440000D01*
X219734380Y-56249523D01*
X218734380Y-56011428D01*
X218734380Y-55154285D02*
X218734380Y-55630476D01*
X219210571Y-55678095D01*
X219162952Y-55630476D01*
X219115333Y-55535238D01*
X219115333Y-55297142D01*
X219162952Y-55201904D01*
X219210571Y-55154285D01*
X219305809Y-55106666D01*
X219543904Y-55106666D01*
X219639142Y-55154285D01*
X219686761Y-55201904D01*
X219734380Y-55297142D01*
X219734380Y-55535238D01*
X219686761Y-55630476D01*
X219639142Y-55678095D01*
X211991261Y-57773333D02*
X212038880Y-57630476D01*
X212038880Y-57392380D01*
X211991261Y-57297142D01*
X211943642Y-57249523D01*
X211848404Y-57201904D01*
X211753166Y-57201904D01*
X211657928Y-57249523D01*
X211610309Y-57297142D01*
X211562690Y-57392380D01*
X211515071Y-57582857D01*
X211467452Y-57678095D01*
X211419833Y-57725714D01*
X211324595Y-57773333D01*
X211229357Y-57773333D01*
X211134119Y-57725714D01*
X211086500Y-57678095D01*
X211038880Y-57582857D01*
X211038880Y-57344761D01*
X211086500Y-57201904D01*
X211038880Y-56868571D02*
X212038880Y-56630476D01*
X211324595Y-56440000D01*
X212038880Y-56249523D01*
X211038880Y-56011428D01*
X211372214Y-55201904D02*
X212038880Y-55201904D01*
X210991261Y-55440000D02*
X211705547Y-55678095D01*
X211705547Y-55059047D01*
X204295761Y-57773333D02*
X204343380Y-57630476D01*
X204343380Y-57392380D01*
X204295761Y-57297142D01*
X204248142Y-57249523D01*
X204152904Y-57201904D01*
X204057666Y-57201904D01*
X203962428Y-57249523D01*
X203914809Y-57297142D01*
X203867190Y-57392380D01*
X203819571Y-57582857D01*
X203771952Y-57678095D01*
X203724333Y-57725714D01*
X203629095Y-57773333D01*
X203533857Y-57773333D01*
X203438619Y-57725714D01*
X203391000Y-57678095D01*
X203343380Y-57582857D01*
X203343380Y-57344761D01*
X203391000Y-57201904D01*
X203343380Y-56868571D02*
X204343380Y-56630476D01*
X203629095Y-56440000D01*
X204343380Y-56249523D01*
X203343380Y-56011428D01*
X203343380Y-55725714D02*
X203343380Y-55106666D01*
X203724333Y-55440000D01*
X203724333Y-55297142D01*
X203771952Y-55201904D01*
X203819571Y-55154285D01*
X203914809Y-55106666D01*
X204152904Y-55106666D01*
X204248142Y-55154285D01*
X204295761Y-55201904D01*
X204343380Y-55297142D01*
X204343380Y-55582857D01*
X204295761Y-55678095D01*
X204248142Y-55725714D01*
X196600261Y-57773333D02*
X196647880Y-57630476D01*
X196647880Y-57392380D01*
X196600261Y-57297142D01*
X196552642Y-57249523D01*
X196457404Y-57201904D01*
X196362166Y-57201904D01*
X196266928Y-57249523D01*
X196219309Y-57297142D01*
X196171690Y-57392380D01*
X196124071Y-57582857D01*
X196076452Y-57678095D01*
X196028833Y-57725714D01*
X195933595Y-57773333D01*
X195838357Y-57773333D01*
X195743119Y-57725714D01*
X195695500Y-57678095D01*
X195647880Y-57582857D01*
X195647880Y-57344761D01*
X195695500Y-57201904D01*
X195647880Y-56868571D02*
X196647880Y-56630476D01*
X195933595Y-56440000D01*
X196647880Y-56249523D01*
X195647880Y-56011428D01*
X195743119Y-55678095D02*
X195695500Y-55630476D01*
X195647880Y-55535238D01*
X195647880Y-55297142D01*
X195695500Y-55201904D01*
X195743119Y-55154285D01*
X195838357Y-55106666D01*
X195933595Y-55106666D01*
X196076452Y-55154285D01*
X196647880Y-55725714D01*
X196647880Y-55106666D01*
X190904761Y-57773333D02*
X190952380Y-57630476D01*
X190952380Y-57392380D01*
X190904761Y-57297142D01*
X190857142Y-57249523D01*
X190761904Y-57201904D01*
X190666666Y-57201904D01*
X190571428Y-57249523D01*
X190523809Y-57297142D01*
X190476190Y-57392380D01*
X190428571Y-57582857D01*
X190380952Y-57678095D01*
X190333333Y-57725714D01*
X190238095Y-57773333D01*
X190142857Y-57773333D01*
X190047619Y-57725714D01*
X190000000Y-57678095D01*
X189952380Y-57582857D01*
X189952380Y-57344761D01*
X190000000Y-57201904D01*
X189952380Y-56868571D02*
X190952380Y-56630476D01*
X190238095Y-56440000D01*
X190952380Y-56249523D01*
X189952380Y-56011428D01*
X190952380Y-55106666D02*
X190952380Y-55678095D01*
X190952380Y-55392380D02*
X189952380Y-55392380D01*
X190095238Y-55487619D01*
X190190476Y-55582857D01*
X190238095Y-55678095D01*
X207065714Y-99362380D02*
X207065714Y-98362380D01*
X207303809Y-98362380D01*
X207446666Y-98410000D01*
X207541904Y-98505238D01*
X207589523Y-98600476D01*
X207637142Y-98790952D01*
X207637142Y-98933809D01*
X207589523Y-99124285D01*
X207541904Y-99219523D01*
X207446666Y-99314761D01*
X207303809Y-99362380D01*
X207065714Y-99362380D01*
X208589523Y-99362380D02*
X208018095Y-99362380D01*
X208303809Y-99362380D02*
X208303809Y-98362380D01*
X208208571Y-98505238D01*
X208113333Y-98600476D01*
X208018095Y-98648095D01*
X209160952Y-98790952D02*
X209065714Y-98743333D01*
X209018095Y-98695714D01*
X208970476Y-98600476D01*
X208970476Y-98552857D01*
X209018095Y-98457619D01*
X209065714Y-98410000D01*
X209160952Y-98362380D01*
X209351428Y-98362380D01*
X209446666Y-98410000D01*
X209494285Y-98457619D01*
X209541904Y-98552857D01*
X209541904Y-98600476D01*
X209494285Y-98695714D01*
X209446666Y-98743333D01*
X209351428Y-98790952D01*
X209160952Y-98790952D01*
X209065714Y-98838571D01*
X209018095Y-98886190D01*
X208970476Y-98981428D01*
X208970476Y-99171904D01*
X209018095Y-99267142D01*
X209065714Y-99314761D01*
X209160952Y-99362380D01*
X209351428Y-99362380D01*
X209446666Y-99314761D01*
X209494285Y-99267142D01*
X209541904Y-99171904D01*
X209541904Y-98981428D01*
X209494285Y-98886190D01*
X209446666Y-98838571D01*
X209351428Y-98790952D01*
X237545714Y-99362380D02*
X237545714Y-98362380D01*
X237783809Y-98362380D01*
X237926666Y-98410000D01*
X238021904Y-98505238D01*
X238069523Y-98600476D01*
X238117142Y-98790952D01*
X238117142Y-98933809D01*
X238069523Y-99124285D01*
X238021904Y-99219523D01*
X237926666Y-99314761D01*
X237783809Y-99362380D01*
X237545714Y-99362380D01*
X238974285Y-98695714D02*
X238974285Y-99362380D01*
X238736190Y-98314761D02*
X238498095Y-99029047D01*
X239117142Y-99029047D01*
X239450476Y-98457619D02*
X239498095Y-98410000D01*
X239593333Y-98362380D01*
X239831428Y-98362380D01*
X239926666Y-98410000D01*
X239974285Y-98457619D01*
X240021904Y-98552857D01*
X240021904Y-98648095D01*
X239974285Y-98790952D01*
X239402857Y-99362380D01*
X240021904Y-99362380D01*
X229925714Y-99362380D02*
X229925714Y-98362380D01*
X230163809Y-98362380D01*
X230306666Y-98410000D01*
X230401904Y-98505238D01*
X230449523Y-98600476D01*
X230497142Y-98790952D01*
X230497142Y-98933809D01*
X230449523Y-99124285D01*
X230401904Y-99219523D01*
X230306666Y-99314761D01*
X230163809Y-99362380D01*
X229925714Y-99362380D01*
X230830476Y-98362380D02*
X231449523Y-98362380D01*
X231116190Y-98743333D01*
X231259047Y-98743333D01*
X231354285Y-98790952D01*
X231401904Y-98838571D01*
X231449523Y-98933809D01*
X231449523Y-99171904D01*
X231401904Y-99267142D01*
X231354285Y-99314761D01*
X231259047Y-99362380D01*
X230973333Y-99362380D01*
X230878095Y-99314761D01*
X230830476Y-99267142D01*
X232306666Y-98362380D02*
X232116190Y-98362380D01*
X232020952Y-98410000D01*
X231973333Y-98457619D01*
X231878095Y-98600476D01*
X231830476Y-98790952D01*
X231830476Y-99171904D01*
X231878095Y-99267142D01*
X231925714Y-99314761D01*
X232020952Y-99362380D01*
X232211428Y-99362380D01*
X232306666Y-99314761D01*
X232354285Y-99267142D01*
X232401904Y-99171904D01*
X232401904Y-98933809D01*
X232354285Y-98838571D01*
X232306666Y-98790952D01*
X232211428Y-98743333D01*
X232020952Y-98743333D01*
X231925714Y-98790952D01*
X231878095Y-98838571D01*
X231830476Y-98933809D01*
X222305714Y-99362380D02*
X222305714Y-98362380D01*
X222543809Y-98362380D01*
X222686666Y-98410000D01*
X222781904Y-98505238D01*
X222829523Y-98600476D01*
X222877142Y-98790952D01*
X222877142Y-98933809D01*
X222829523Y-99124285D01*
X222781904Y-99219523D01*
X222686666Y-99314761D01*
X222543809Y-99362380D01*
X222305714Y-99362380D01*
X223210476Y-98362380D02*
X223829523Y-98362380D01*
X223496190Y-98743333D01*
X223639047Y-98743333D01*
X223734285Y-98790952D01*
X223781904Y-98838571D01*
X223829523Y-98933809D01*
X223829523Y-99171904D01*
X223781904Y-99267142D01*
X223734285Y-99314761D01*
X223639047Y-99362380D01*
X223353333Y-99362380D01*
X223258095Y-99314761D01*
X223210476Y-99267142D01*
X224448571Y-98362380D02*
X224543809Y-98362380D01*
X224639047Y-98410000D01*
X224686666Y-98457619D01*
X224734285Y-98552857D01*
X224781904Y-98743333D01*
X224781904Y-98981428D01*
X224734285Y-99171904D01*
X224686666Y-99267142D01*
X224639047Y-99314761D01*
X224543809Y-99362380D01*
X224448571Y-99362380D01*
X224353333Y-99314761D01*
X224305714Y-99267142D01*
X224258095Y-99171904D01*
X224210476Y-98981428D01*
X224210476Y-98743333D01*
X224258095Y-98552857D01*
X224305714Y-98457619D01*
X224353333Y-98410000D01*
X224448571Y-98362380D01*
X214685714Y-99362380D02*
X214685714Y-98362380D01*
X214923809Y-98362380D01*
X215066666Y-98410000D01*
X215161904Y-98505238D01*
X215209523Y-98600476D01*
X215257142Y-98790952D01*
X215257142Y-98933809D01*
X215209523Y-99124285D01*
X215161904Y-99219523D01*
X215066666Y-99314761D01*
X214923809Y-99362380D01*
X214685714Y-99362380D01*
X215638095Y-98457619D02*
X215685714Y-98410000D01*
X215780952Y-98362380D01*
X216019047Y-98362380D01*
X216114285Y-98410000D01*
X216161904Y-98457619D01*
X216209523Y-98552857D01*
X216209523Y-98648095D01*
X216161904Y-98790952D01*
X215590476Y-99362380D01*
X216209523Y-99362380D01*
X217066666Y-98695714D02*
X217066666Y-99362380D01*
X216828571Y-98314761D02*
X216590476Y-99029047D01*
X217209523Y-99029047D01*
X199445714Y-99362380D02*
X199445714Y-98362380D01*
X199683809Y-98362380D01*
X199826666Y-98410000D01*
X199921904Y-98505238D01*
X199969523Y-98600476D01*
X200017142Y-98790952D01*
X200017142Y-98933809D01*
X199969523Y-99124285D01*
X199921904Y-99219523D01*
X199826666Y-99314761D01*
X199683809Y-99362380D01*
X199445714Y-99362380D01*
X200969523Y-99362380D02*
X200398095Y-99362380D01*
X200683809Y-99362380D02*
X200683809Y-98362380D01*
X200588571Y-98505238D01*
X200493333Y-98600476D01*
X200398095Y-98648095D01*
X201350476Y-98457619D02*
X201398095Y-98410000D01*
X201493333Y-98362380D01*
X201731428Y-98362380D01*
X201826666Y-98410000D01*
X201874285Y-98457619D01*
X201921904Y-98552857D01*
X201921904Y-98648095D01*
X201874285Y-98790952D01*
X201302857Y-99362380D01*
X201921904Y-99362380D01*
X192301904Y-99362380D02*
X192301904Y-98362380D01*
X192540000Y-98362380D01*
X192682857Y-98410000D01*
X192778095Y-98505238D01*
X192825714Y-98600476D01*
X192873333Y-98790952D01*
X192873333Y-98933809D01*
X192825714Y-99124285D01*
X192778095Y-99219523D01*
X192682857Y-99314761D01*
X192540000Y-99362380D01*
X192301904Y-99362380D01*
X193730476Y-98362380D02*
X193540000Y-98362380D01*
X193444761Y-98410000D01*
X193397142Y-98457619D01*
X193301904Y-98600476D01*
X193254285Y-98790952D01*
X193254285Y-99171904D01*
X193301904Y-99267142D01*
X193349523Y-99314761D01*
X193444761Y-99362380D01*
X193635238Y-99362380D01*
X193730476Y-99314761D01*
X193778095Y-99267142D01*
X193825714Y-99171904D01*
X193825714Y-98933809D01*
X193778095Y-98838571D01*
X193730476Y-98790952D01*
X193635238Y-98743333D01*
X193444761Y-98743333D01*
X193349523Y-98790952D01*
X193301904Y-98838571D01*
X193254285Y-98933809D01*
X237545714Y-91742380D02*
X237545714Y-90742380D01*
X237783809Y-90742380D01*
X237926666Y-90790000D01*
X238021904Y-90885238D01*
X238069523Y-90980476D01*
X238117142Y-91170952D01*
X238117142Y-91313809D01*
X238069523Y-91504285D01*
X238021904Y-91599523D01*
X237926666Y-91694761D01*
X237783809Y-91742380D01*
X237545714Y-91742380D01*
X238974285Y-91075714D02*
X238974285Y-91742380D01*
X238736190Y-90694761D02*
X238498095Y-91409047D01*
X239117142Y-91409047D01*
X240021904Y-91742380D02*
X239450476Y-91742380D01*
X239736190Y-91742380D02*
X239736190Y-90742380D01*
X239640952Y-90885238D01*
X239545714Y-90980476D01*
X239450476Y-91028095D01*
X229925714Y-91742380D02*
X229925714Y-90742380D01*
X230163809Y-90742380D01*
X230306666Y-90790000D01*
X230401904Y-90885238D01*
X230449523Y-90980476D01*
X230497142Y-91170952D01*
X230497142Y-91313809D01*
X230449523Y-91504285D01*
X230401904Y-91599523D01*
X230306666Y-91694761D01*
X230163809Y-91742380D01*
X229925714Y-91742380D01*
X230830476Y-90742380D02*
X231449523Y-90742380D01*
X231116190Y-91123333D01*
X231259047Y-91123333D01*
X231354285Y-91170952D01*
X231401904Y-91218571D01*
X231449523Y-91313809D01*
X231449523Y-91551904D01*
X231401904Y-91647142D01*
X231354285Y-91694761D01*
X231259047Y-91742380D01*
X230973333Y-91742380D01*
X230878095Y-91694761D01*
X230830476Y-91647142D01*
X232354285Y-90742380D02*
X231878095Y-90742380D01*
X231830476Y-91218571D01*
X231878095Y-91170952D01*
X231973333Y-91123333D01*
X232211428Y-91123333D01*
X232306666Y-91170952D01*
X232354285Y-91218571D01*
X232401904Y-91313809D01*
X232401904Y-91551904D01*
X232354285Y-91647142D01*
X232306666Y-91694761D01*
X232211428Y-91742380D01*
X231973333Y-91742380D01*
X231878095Y-91694761D01*
X231830476Y-91647142D01*
X222305714Y-91742380D02*
X222305714Y-90742380D01*
X222543809Y-90742380D01*
X222686666Y-90790000D01*
X222781904Y-90885238D01*
X222829523Y-90980476D01*
X222877142Y-91170952D01*
X222877142Y-91313809D01*
X222829523Y-91504285D01*
X222781904Y-91599523D01*
X222686666Y-91694761D01*
X222543809Y-91742380D01*
X222305714Y-91742380D01*
X223258095Y-90837619D02*
X223305714Y-90790000D01*
X223400952Y-90742380D01*
X223639047Y-90742380D01*
X223734285Y-90790000D01*
X223781904Y-90837619D01*
X223829523Y-90932857D01*
X223829523Y-91028095D01*
X223781904Y-91170952D01*
X223210476Y-91742380D01*
X223829523Y-91742380D01*
X224305714Y-91742380D02*
X224496190Y-91742380D01*
X224591428Y-91694761D01*
X224639047Y-91647142D01*
X224734285Y-91504285D01*
X224781904Y-91313809D01*
X224781904Y-90932857D01*
X224734285Y-90837619D01*
X224686666Y-90790000D01*
X224591428Y-90742380D01*
X224400952Y-90742380D01*
X224305714Y-90790000D01*
X224258095Y-90837619D01*
X224210476Y-90932857D01*
X224210476Y-91170952D01*
X224258095Y-91266190D01*
X224305714Y-91313809D01*
X224400952Y-91361428D01*
X224591428Y-91361428D01*
X224686666Y-91313809D01*
X224734285Y-91266190D01*
X224781904Y-91170952D01*
X214685714Y-91742380D02*
X214685714Y-90742380D01*
X214923809Y-90742380D01*
X215066666Y-90790000D01*
X215161904Y-90885238D01*
X215209523Y-90980476D01*
X215257142Y-91170952D01*
X215257142Y-91313809D01*
X215209523Y-91504285D01*
X215161904Y-91599523D01*
X215066666Y-91694761D01*
X214923809Y-91742380D01*
X214685714Y-91742380D01*
X215638095Y-90837619D02*
X215685714Y-90790000D01*
X215780952Y-90742380D01*
X216019047Y-90742380D01*
X216114285Y-90790000D01*
X216161904Y-90837619D01*
X216209523Y-90932857D01*
X216209523Y-91028095D01*
X216161904Y-91170952D01*
X215590476Y-91742380D01*
X216209523Y-91742380D01*
X216542857Y-90742380D02*
X217161904Y-90742380D01*
X216828571Y-91123333D01*
X216971428Y-91123333D01*
X217066666Y-91170952D01*
X217114285Y-91218571D01*
X217161904Y-91313809D01*
X217161904Y-91551904D01*
X217114285Y-91647142D01*
X217066666Y-91694761D01*
X216971428Y-91742380D01*
X216685714Y-91742380D01*
X216590476Y-91694761D01*
X216542857Y-91647142D01*
X207065714Y-91742380D02*
X207065714Y-90742380D01*
X207303809Y-90742380D01*
X207446666Y-90790000D01*
X207541904Y-90885238D01*
X207589523Y-90980476D01*
X207637142Y-91170952D01*
X207637142Y-91313809D01*
X207589523Y-91504285D01*
X207541904Y-91599523D01*
X207446666Y-91694761D01*
X207303809Y-91742380D01*
X207065714Y-91742380D01*
X208589523Y-91742380D02*
X208018095Y-91742380D01*
X208303809Y-91742380D02*
X208303809Y-90742380D01*
X208208571Y-90885238D01*
X208113333Y-90980476D01*
X208018095Y-91028095D01*
X208922857Y-90742380D02*
X209589523Y-90742380D01*
X209160952Y-91742380D01*
X199445714Y-91742380D02*
X199445714Y-90742380D01*
X199683809Y-90742380D01*
X199826666Y-90790000D01*
X199921904Y-90885238D01*
X199969523Y-90980476D01*
X200017142Y-91170952D01*
X200017142Y-91313809D01*
X199969523Y-91504285D01*
X199921904Y-91599523D01*
X199826666Y-91694761D01*
X199683809Y-91742380D01*
X199445714Y-91742380D01*
X200969523Y-91742380D02*
X200398095Y-91742380D01*
X200683809Y-91742380D02*
X200683809Y-90742380D01*
X200588571Y-90885238D01*
X200493333Y-90980476D01*
X200398095Y-91028095D01*
X201921904Y-91742380D02*
X201350476Y-91742380D01*
X201636190Y-91742380D02*
X201636190Y-90742380D01*
X201540952Y-90885238D01*
X201445714Y-90980476D01*
X201350476Y-91028095D01*
X192301904Y-91742380D02*
X192301904Y-90742380D01*
X192540000Y-90742380D01*
X192682857Y-90790000D01*
X192778095Y-90885238D01*
X192825714Y-90980476D01*
X192873333Y-91170952D01*
X192873333Y-91313809D01*
X192825714Y-91504285D01*
X192778095Y-91599523D01*
X192682857Y-91694761D01*
X192540000Y-91742380D01*
X192301904Y-91742380D01*
X193778095Y-90742380D02*
X193301904Y-90742380D01*
X193254285Y-91218571D01*
X193301904Y-91170952D01*
X193397142Y-91123333D01*
X193635238Y-91123333D01*
X193730476Y-91170952D01*
X193778095Y-91218571D01*
X193825714Y-91313809D01*
X193825714Y-91551904D01*
X193778095Y-91647142D01*
X193730476Y-91694761D01*
X193635238Y-91742380D01*
X193397142Y-91742380D01*
X193301904Y-91694761D01*
X193254285Y-91647142D01*
X237545714Y-84122380D02*
X237545714Y-83122380D01*
X237783809Y-83122380D01*
X237926666Y-83170000D01*
X238021904Y-83265238D01*
X238069523Y-83360476D01*
X238117142Y-83550952D01*
X238117142Y-83693809D01*
X238069523Y-83884285D01*
X238021904Y-83979523D01*
X237926666Y-84074761D01*
X237783809Y-84122380D01*
X237545714Y-84122380D01*
X238974285Y-83455714D02*
X238974285Y-84122380D01*
X238736190Y-83074761D02*
X238498095Y-83789047D01*
X239117142Y-83789047D01*
X239688571Y-83122380D02*
X239783809Y-83122380D01*
X239879047Y-83170000D01*
X239926666Y-83217619D01*
X239974285Y-83312857D01*
X240021904Y-83503333D01*
X240021904Y-83741428D01*
X239974285Y-83931904D01*
X239926666Y-84027142D01*
X239879047Y-84074761D01*
X239783809Y-84122380D01*
X239688571Y-84122380D01*
X239593333Y-84074761D01*
X239545714Y-84027142D01*
X239498095Y-83931904D01*
X239450476Y-83741428D01*
X239450476Y-83503333D01*
X239498095Y-83312857D01*
X239545714Y-83217619D01*
X239593333Y-83170000D01*
X239688571Y-83122380D01*
X229925714Y-84122380D02*
X229925714Y-83122380D01*
X230163809Y-83122380D01*
X230306666Y-83170000D01*
X230401904Y-83265238D01*
X230449523Y-83360476D01*
X230497142Y-83550952D01*
X230497142Y-83693809D01*
X230449523Y-83884285D01*
X230401904Y-83979523D01*
X230306666Y-84074761D01*
X230163809Y-84122380D01*
X229925714Y-84122380D01*
X230830476Y-83122380D02*
X231449523Y-83122380D01*
X231116190Y-83503333D01*
X231259047Y-83503333D01*
X231354285Y-83550952D01*
X231401904Y-83598571D01*
X231449523Y-83693809D01*
X231449523Y-83931904D01*
X231401904Y-84027142D01*
X231354285Y-84074761D01*
X231259047Y-84122380D01*
X230973333Y-84122380D01*
X230878095Y-84074761D01*
X230830476Y-84027142D01*
X232306666Y-83455714D02*
X232306666Y-84122380D01*
X232068571Y-83074761D02*
X231830476Y-83789047D01*
X232449523Y-83789047D01*
X222305714Y-84122380D02*
X222305714Y-83122380D01*
X222543809Y-83122380D01*
X222686666Y-83170000D01*
X222781904Y-83265238D01*
X222829523Y-83360476D01*
X222877142Y-83550952D01*
X222877142Y-83693809D01*
X222829523Y-83884285D01*
X222781904Y-83979523D01*
X222686666Y-84074761D01*
X222543809Y-84122380D01*
X222305714Y-84122380D01*
X223258095Y-83217619D02*
X223305714Y-83170000D01*
X223400952Y-83122380D01*
X223639047Y-83122380D01*
X223734285Y-83170000D01*
X223781904Y-83217619D01*
X223829523Y-83312857D01*
X223829523Y-83408095D01*
X223781904Y-83550952D01*
X223210476Y-84122380D01*
X223829523Y-84122380D01*
X224400952Y-83550952D02*
X224305714Y-83503333D01*
X224258095Y-83455714D01*
X224210476Y-83360476D01*
X224210476Y-83312857D01*
X224258095Y-83217619D01*
X224305714Y-83170000D01*
X224400952Y-83122380D01*
X224591428Y-83122380D01*
X224686666Y-83170000D01*
X224734285Y-83217619D01*
X224781904Y-83312857D01*
X224781904Y-83360476D01*
X224734285Y-83455714D01*
X224686666Y-83503333D01*
X224591428Y-83550952D01*
X224400952Y-83550952D01*
X224305714Y-83598571D01*
X224258095Y-83646190D01*
X224210476Y-83741428D01*
X224210476Y-83931904D01*
X224258095Y-84027142D01*
X224305714Y-84074761D01*
X224400952Y-84122380D01*
X224591428Y-84122380D01*
X224686666Y-84074761D01*
X224734285Y-84027142D01*
X224781904Y-83931904D01*
X224781904Y-83741428D01*
X224734285Y-83646190D01*
X224686666Y-83598571D01*
X224591428Y-83550952D01*
X214685714Y-84122380D02*
X214685714Y-83122380D01*
X214923809Y-83122380D01*
X215066666Y-83170000D01*
X215161904Y-83265238D01*
X215209523Y-83360476D01*
X215257142Y-83550952D01*
X215257142Y-83693809D01*
X215209523Y-83884285D01*
X215161904Y-83979523D01*
X215066666Y-84074761D01*
X214923809Y-84122380D01*
X214685714Y-84122380D01*
X215638095Y-83217619D02*
X215685714Y-83170000D01*
X215780952Y-83122380D01*
X216019047Y-83122380D01*
X216114285Y-83170000D01*
X216161904Y-83217619D01*
X216209523Y-83312857D01*
X216209523Y-83408095D01*
X216161904Y-83550952D01*
X215590476Y-84122380D01*
X216209523Y-84122380D01*
X216590476Y-83217619D02*
X216638095Y-83170000D01*
X216733333Y-83122380D01*
X216971428Y-83122380D01*
X217066666Y-83170000D01*
X217114285Y-83217619D01*
X217161904Y-83312857D01*
X217161904Y-83408095D01*
X217114285Y-83550952D01*
X216542857Y-84122380D01*
X217161904Y-84122380D01*
X207065714Y-84122380D02*
X207065714Y-83122380D01*
X207303809Y-83122380D01*
X207446666Y-83170000D01*
X207541904Y-83265238D01*
X207589523Y-83360476D01*
X207637142Y-83550952D01*
X207637142Y-83693809D01*
X207589523Y-83884285D01*
X207541904Y-83979523D01*
X207446666Y-84074761D01*
X207303809Y-84122380D01*
X207065714Y-84122380D01*
X208589523Y-84122380D02*
X208018095Y-84122380D01*
X208303809Y-84122380D02*
X208303809Y-83122380D01*
X208208571Y-83265238D01*
X208113333Y-83360476D01*
X208018095Y-83408095D01*
X209446666Y-83122380D02*
X209256190Y-83122380D01*
X209160952Y-83170000D01*
X209113333Y-83217619D01*
X209018095Y-83360476D01*
X208970476Y-83550952D01*
X208970476Y-83931904D01*
X209018095Y-84027142D01*
X209065714Y-84074761D01*
X209160952Y-84122380D01*
X209351428Y-84122380D01*
X209446666Y-84074761D01*
X209494285Y-84027142D01*
X209541904Y-83931904D01*
X209541904Y-83693809D01*
X209494285Y-83598571D01*
X209446666Y-83550952D01*
X209351428Y-83503333D01*
X209160952Y-83503333D01*
X209065714Y-83550952D01*
X209018095Y-83598571D01*
X208970476Y-83693809D01*
X199445714Y-84122380D02*
X199445714Y-83122380D01*
X199683809Y-83122380D01*
X199826666Y-83170000D01*
X199921904Y-83265238D01*
X199969523Y-83360476D01*
X200017142Y-83550952D01*
X200017142Y-83693809D01*
X199969523Y-83884285D01*
X199921904Y-83979523D01*
X199826666Y-84074761D01*
X199683809Y-84122380D01*
X199445714Y-84122380D01*
X200969523Y-84122380D02*
X200398095Y-84122380D01*
X200683809Y-84122380D02*
X200683809Y-83122380D01*
X200588571Y-83265238D01*
X200493333Y-83360476D01*
X200398095Y-83408095D01*
X201588571Y-83122380D02*
X201683809Y-83122380D01*
X201779047Y-83170000D01*
X201826666Y-83217619D01*
X201874285Y-83312857D01*
X201921904Y-83503333D01*
X201921904Y-83741428D01*
X201874285Y-83931904D01*
X201826666Y-84027142D01*
X201779047Y-84074761D01*
X201683809Y-84122380D01*
X201588571Y-84122380D01*
X201493333Y-84074761D01*
X201445714Y-84027142D01*
X201398095Y-83931904D01*
X201350476Y-83741428D01*
X201350476Y-83503333D01*
X201398095Y-83312857D01*
X201445714Y-83217619D01*
X201493333Y-83170000D01*
X201588571Y-83122380D01*
X192301904Y-84122380D02*
X192301904Y-83122380D01*
X192540000Y-83122380D01*
X192682857Y-83170000D01*
X192778095Y-83265238D01*
X192825714Y-83360476D01*
X192873333Y-83550952D01*
X192873333Y-83693809D01*
X192825714Y-83884285D01*
X192778095Y-83979523D01*
X192682857Y-84074761D01*
X192540000Y-84122380D01*
X192301904Y-84122380D01*
X193730476Y-83455714D02*
X193730476Y-84122380D01*
X193492380Y-83074761D02*
X193254285Y-83789047D01*
X193873333Y-83789047D01*
X237545714Y-76502380D02*
X237545714Y-75502380D01*
X237783809Y-75502380D01*
X237926666Y-75550000D01*
X238021904Y-75645238D01*
X238069523Y-75740476D01*
X238117142Y-75930952D01*
X238117142Y-76073809D01*
X238069523Y-76264285D01*
X238021904Y-76359523D01*
X237926666Y-76454761D01*
X237783809Y-76502380D01*
X237545714Y-76502380D01*
X238450476Y-75502380D02*
X239069523Y-75502380D01*
X238736190Y-75883333D01*
X238879047Y-75883333D01*
X238974285Y-75930952D01*
X239021904Y-75978571D01*
X239069523Y-76073809D01*
X239069523Y-76311904D01*
X239021904Y-76407142D01*
X238974285Y-76454761D01*
X238879047Y-76502380D01*
X238593333Y-76502380D01*
X238498095Y-76454761D01*
X238450476Y-76407142D01*
X239545714Y-76502380D02*
X239736190Y-76502380D01*
X239831428Y-76454761D01*
X239879047Y-76407142D01*
X239974285Y-76264285D01*
X240021904Y-76073809D01*
X240021904Y-75692857D01*
X239974285Y-75597619D01*
X239926666Y-75550000D01*
X239831428Y-75502380D01*
X239640952Y-75502380D01*
X239545714Y-75550000D01*
X239498095Y-75597619D01*
X239450476Y-75692857D01*
X239450476Y-75930952D01*
X239498095Y-76026190D01*
X239545714Y-76073809D01*
X239640952Y-76121428D01*
X239831428Y-76121428D01*
X239926666Y-76073809D01*
X239974285Y-76026190D01*
X240021904Y-75930952D01*
X229925714Y-76502380D02*
X229925714Y-75502380D01*
X230163809Y-75502380D01*
X230306666Y-75550000D01*
X230401904Y-75645238D01*
X230449523Y-75740476D01*
X230497142Y-75930952D01*
X230497142Y-76073809D01*
X230449523Y-76264285D01*
X230401904Y-76359523D01*
X230306666Y-76454761D01*
X230163809Y-76502380D01*
X229925714Y-76502380D01*
X230830476Y-75502380D02*
X231449523Y-75502380D01*
X231116190Y-75883333D01*
X231259047Y-75883333D01*
X231354285Y-75930952D01*
X231401904Y-75978571D01*
X231449523Y-76073809D01*
X231449523Y-76311904D01*
X231401904Y-76407142D01*
X231354285Y-76454761D01*
X231259047Y-76502380D01*
X230973333Y-76502380D01*
X230878095Y-76454761D01*
X230830476Y-76407142D01*
X231782857Y-75502380D02*
X232401904Y-75502380D01*
X232068571Y-75883333D01*
X232211428Y-75883333D01*
X232306666Y-75930952D01*
X232354285Y-75978571D01*
X232401904Y-76073809D01*
X232401904Y-76311904D01*
X232354285Y-76407142D01*
X232306666Y-76454761D01*
X232211428Y-76502380D01*
X231925714Y-76502380D01*
X231830476Y-76454761D01*
X231782857Y-76407142D01*
X222305714Y-76502380D02*
X222305714Y-75502380D01*
X222543809Y-75502380D01*
X222686666Y-75550000D01*
X222781904Y-75645238D01*
X222829523Y-75740476D01*
X222877142Y-75930952D01*
X222877142Y-76073809D01*
X222829523Y-76264285D01*
X222781904Y-76359523D01*
X222686666Y-76454761D01*
X222543809Y-76502380D01*
X222305714Y-76502380D01*
X223258095Y-75597619D02*
X223305714Y-75550000D01*
X223400952Y-75502380D01*
X223639047Y-75502380D01*
X223734285Y-75550000D01*
X223781904Y-75597619D01*
X223829523Y-75692857D01*
X223829523Y-75788095D01*
X223781904Y-75930952D01*
X223210476Y-76502380D01*
X223829523Y-76502380D01*
X224162857Y-75502380D02*
X224829523Y-75502380D01*
X224400952Y-76502380D01*
X214685714Y-76502380D02*
X214685714Y-75502380D01*
X214923809Y-75502380D01*
X215066666Y-75550000D01*
X215161904Y-75645238D01*
X215209523Y-75740476D01*
X215257142Y-75930952D01*
X215257142Y-76073809D01*
X215209523Y-76264285D01*
X215161904Y-76359523D01*
X215066666Y-76454761D01*
X214923809Y-76502380D01*
X214685714Y-76502380D01*
X215638095Y-75597619D02*
X215685714Y-75550000D01*
X215780952Y-75502380D01*
X216019047Y-75502380D01*
X216114285Y-75550000D01*
X216161904Y-75597619D01*
X216209523Y-75692857D01*
X216209523Y-75788095D01*
X216161904Y-75930952D01*
X215590476Y-76502380D01*
X216209523Y-76502380D01*
X217161904Y-76502380D02*
X216590476Y-76502380D01*
X216876190Y-76502380D02*
X216876190Y-75502380D01*
X216780952Y-75645238D01*
X216685714Y-75740476D01*
X216590476Y-75788095D01*
X207065714Y-76502380D02*
X207065714Y-75502380D01*
X207303809Y-75502380D01*
X207446666Y-75550000D01*
X207541904Y-75645238D01*
X207589523Y-75740476D01*
X207637142Y-75930952D01*
X207637142Y-76073809D01*
X207589523Y-76264285D01*
X207541904Y-76359523D01*
X207446666Y-76454761D01*
X207303809Y-76502380D01*
X207065714Y-76502380D01*
X208589523Y-76502380D02*
X208018095Y-76502380D01*
X208303809Y-76502380D02*
X208303809Y-75502380D01*
X208208571Y-75645238D01*
X208113333Y-75740476D01*
X208018095Y-75788095D01*
X209494285Y-75502380D02*
X209018095Y-75502380D01*
X208970476Y-75978571D01*
X209018095Y-75930952D01*
X209113333Y-75883333D01*
X209351428Y-75883333D01*
X209446666Y-75930952D01*
X209494285Y-75978571D01*
X209541904Y-76073809D01*
X209541904Y-76311904D01*
X209494285Y-76407142D01*
X209446666Y-76454761D01*
X209351428Y-76502380D01*
X209113333Y-76502380D01*
X209018095Y-76454761D01*
X208970476Y-76407142D01*
X199921904Y-76502380D02*
X199921904Y-75502380D01*
X200160000Y-75502380D01*
X200302857Y-75550000D01*
X200398095Y-75645238D01*
X200445714Y-75740476D01*
X200493333Y-75930952D01*
X200493333Y-76073809D01*
X200445714Y-76264285D01*
X200398095Y-76359523D01*
X200302857Y-76454761D01*
X200160000Y-76502380D01*
X199921904Y-76502380D01*
X200969523Y-76502380D02*
X201160000Y-76502380D01*
X201255238Y-76454761D01*
X201302857Y-76407142D01*
X201398095Y-76264285D01*
X201445714Y-76073809D01*
X201445714Y-75692857D01*
X201398095Y-75597619D01*
X201350476Y-75550000D01*
X201255238Y-75502380D01*
X201064761Y-75502380D01*
X200969523Y-75550000D01*
X200921904Y-75597619D01*
X200874285Y-75692857D01*
X200874285Y-75930952D01*
X200921904Y-76026190D01*
X200969523Y-76073809D01*
X201064761Y-76121428D01*
X201255238Y-76121428D01*
X201350476Y-76073809D01*
X201398095Y-76026190D01*
X201445714Y-75930952D01*
X192301904Y-76502380D02*
X192301904Y-75502380D01*
X192540000Y-75502380D01*
X192682857Y-75550000D01*
X192778095Y-75645238D01*
X192825714Y-75740476D01*
X192873333Y-75930952D01*
X192873333Y-76073809D01*
X192825714Y-76264285D01*
X192778095Y-76359523D01*
X192682857Y-76454761D01*
X192540000Y-76502380D01*
X192301904Y-76502380D01*
X193206666Y-75502380D02*
X193825714Y-75502380D01*
X193492380Y-75883333D01*
X193635238Y-75883333D01*
X193730476Y-75930952D01*
X193778095Y-75978571D01*
X193825714Y-76073809D01*
X193825714Y-76311904D01*
X193778095Y-76407142D01*
X193730476Y-76454761D01*
X193635238Y-76502380D01*
X193349523Y-76502380D01*
X193254285Y-76454761D01*
X193206666Y-76407142D01*
X237545714Y-68882380D02*
X237545714Y-67882380D01*
X237783809Y-67882380D01*
X237926666Y-67930000D01*
X238021904Y-68025238D01*
X238069523Y-68120476D01*
X238117142Y-68310952D01*
X238117142Y-68453809D01*
X238069523Y-68644285D01*
X238021904Y-68739523D01*
X237926666Y-68834761D01*
X237783809Y-68882380D01*
X237545714Y-68882380D01*
X238450476Y-67882380D02*
X239069523Y-67882380D01*
X238736190Y-68263333D01*
X238879047Y-68263333D01*
X238974285Y-68310952D01*
X239021904Y-68358571D01*
X239069523Y-68453809D01*
X239069523Y-68691904D01*
X239021904Y-68787142D01*
X238974285Y-68834761D01*
X238879047Y-68882380D01*
X238593333Y-68882380D01*
X238498095Y-68834761D01*
X238450476Y-68787142D01*
X239640952Y-68310952D02*
X239545714Y-68263333D01*
X239498095Y-68215714D01*
X239450476Y-68120476D01*
X239450476Y-68072857D01*
X239498095Y-67977619D01*
X239545714Y-67930000D01*
X239640952Y-67882380D01*
X239831428Y-67882380D01*
X239926666Y-67930000D01*
X239974285Y-67977619D01*
X240021904Y-68072857D01*
X240021904Y-68120476D01*
X239974285Y-68215714D01*
X239926666Y-68263333D01*
X239831428Y-68310952D01*
X239640952Y-68310952D01*
X239545714Y-68358571D01*
X239498095Y-68406190D01*
X239450476Y-68501428D01*
X239450476Y-68691904D01*
X239498095Y-68787142D01*
X239545714Y-68834761D01*
X239640952Y-68882380D01*
X239831428Y-68882380D01*
X239926666Y-68834761D01*
X239974285Y-68787142D01*
X240021904Y-68691904D01*
X240021904Y-68501428D01*
X239974285Y-68406190D01*
X239926666Y-68358571D01*
X239831428Y-68310952D01*
X229925714Y-68882380D02*
X229925714Y-67882380D01*
X230163809Y-67882380D01*
X230306666Y-67930000D01*
X230401904Y-68025238D01*
X230449523Y-68120476D01*
X230497142Y-68310952D01*
X230497142Y-68453809D01*
X230449523Y-68644285D01*
X230401904Y-68739523D01*
X230306666Y-68834761D01*
X230163809Y-68882380D01*
X229925714Y-68882380D01*
X230830476Y-67882380D02*
X231449523Y-67882380D01*
X231116190Y-68263333D01*
X231259047Y-68263333D01*
X231354285Y-68310952D01*
X231401904Y-68358571D01*
X231449523Y-68453809D01*
X231449523Y-68691904D01*
X231401904Y-68787142D01*
X231354285Y-68834761D01*
X231259047Y-68882380D01*
X230973333Y-68882380D01*
X230878095Y-68834761D01*
X230830476Y-68787142D01*
X231830476Y-67977619D02*
X231878095Y-67930000D01*
X231973333Y-67882380D01*
X232211428Y-67882380D01*
X232306666Y-67930000D01*
X232354285Y-67977619D01*
X232401904Y-68072857D01*
X232401904Y-68168095D01*
X232354285Y-68310952D01*
X231782857Y-68882380D01*
X232401904Y-68882380D01*
X222305714Y-68882380D02*
X222305714Y-67882380D01*
X222543809Y-67882380D01*
X222686666Y-67930000D01*
X222781904Y-68025238D01*
X222829523Y-68120476D01*
X222877142Y-68310952D01*
X222877142Y-68453809D01*
X222829523Y-68644285D01*
X222781904Y-68739523D01*
X222686666Y-68834761D01*
X222543809Y-68882380D01*
X222305714Y-68882380D01*
X223258095Y-67977619D02*
X223305714Y-67930000D01*
X223400952Y-67882380D01*
X223639047Y-67882380D01*
X223734285Y-67930000D01*
X223781904Y-67977619D01*
X223829523Y-68072857D01*
X223829523Y-68168095D01*
X223781904Y-68310952D01*
X223210476Y-68882380D01*
X223829523Y-68882380D01*
X224686666Y-67882380D02*
X224496190Y-67882380D01*
X224400952Y-67930000D01*
X224353333Y-67977619D01*
X224258095Y-68120476D01*
X224210476Y-68310952D01*
X224210476Y-68691904D01*
X224258095Y-68787142D01*
X224305714Y-68834761D01*
X224400952Y-68882380D01*
X224591428Y-68882380D01*
X224686666Y-68834761D01*
X224734285Y-68787142D01*
X224781904Y-68691904D01*
X224781904Y-68453809D01*
X224734285Y-68358571D01*
X224686666Y-68310952D01*
X224591428Y-68263333D01*
X224400952Y-68263333D01*
X224305714Y-68310952D01*
X224258095Y-68358571D01*
X224210476Y-68453809D01*
X214685714Y-68882380D02*
X214685714Y-67882380D01*
X214923809Y-67882380D01*
X215066666Y-67930000D01*
X215161904Y-68025238D01*
X215209523Y-68120476D01*
X215257142Y-68310952D01*
X215257142Y-68453809D01*
X215209523Y-68644285D01*
X215161904Y-68739523D01*
X215066666Y-68834761D01*
X214923809Y-68882380D01*
X214685714Y-68882380D01*
X215638095Y-67977619D02*
X215685714Y-67930000D01*
X215780952Y-67882380D01*
X216019047Y-67882380D01*
X216114285Y-67930000D01*
X216161904Y-67977619D01*
X216209523Y-68072857D01*
X216209523Y-68168095D01*
X216161904Y-68310952D01*
X215590476Y-68882380D01*
X216209523Y-68882380D01*
X216828571Y-67882380D02*
X216923809Y-67882380D01*
X217019047Y-67930000D01*
X217066666Y-67977619D01*
X217114285Y-68072857D01*
X217161904Y-68263333D01*
X217161904Y-68501428D01*
X217114285Y-68691904D01*
X217066666Y-68787142D01*
X217019047Y-68834761D01*
X216923809Y-68882380D01*
X216828571Y-68882380D01*
X216733333Y-68834761D01*
X216685714Y-68787142D01*
X216638095Y-68691904D01*
X216590476Y-68501428D01*
X216590476Y-68263333D01*
X216638095Y-68072857D01*
X216685714Y-67977619D01*
X216733333Y-67930000D01*
X216828571Y-67882380D01*
X207065714Y-68882380D02*
X207065714Y-67882380D01*
X207303809Y-67882380D01*
X207446666Y-67930000D01*
X207541904Y-68025238D01*
X207589523Y-68120476D01*
X207637142Y-68310952D01*
X207637142Y-68453809D01*
X207589523Y-68644285D01*
X207541904Y-68739523D01*
X207446666Y-68834761D01*
X207303809Y-68882380D01*
X207065714Y-68882380D01*
X208589523Y-68882380D02*
X208018095Y-68882380D01*
X208303809Y-68882380D02*
X208303809Y-67882380D01*
X208208571Y-68025238D01*
X208113333Y-68120476D01*
X208018095Y-68168095D01*
X209446666Y-68215714D02*
X209446666Y-68882380D01*
X209208571Y-67834761D02*
X208970476Y-68549047D01*
X209589523Y-68549047D01*
X199921904Y-68882380D02*
X199921904Y-67882380D01*
X200160000Y-67882380D01*
X200302857Y-67930000D01*
X200398095Y-68025238D01*
X200445714Y-68120476D01*
X200493333Y-68310952D01*
X200493333Y-68453809D01*
X200445714Y-68644285D01*
X200398095Y-68739523D01*
X200302857Y-68834761D01*
X200160000Y-68882380D01*
X199921904Y-68882380D01*
X201064761Y-68310952D02*
X200969523Y-68263333D01*
X200921904Y-68215714D01*
X200874285Y-68120476D01*
X200874285Y-68072857D01*
X200921904Y-67977619D01*
X200969523Y-67930000D01*
X201064761Y-67882380D01*
X201255238Y-67882380D01*
X201350476Y-67930000D01*
X201398095Y-67977619D01*
X201445714Y-68072857D01*
X201445714Y-68120476D01*
X201398095Y-68215714D01*
X201350476Y-68263333D01*
X201255238Y-68310952D01*
X201064761Y-68310952D01*
X200969523Y-68358571D01*
X200921904Y-68406190D01*
X200874285Y-68501428D01*
X200874285Y-68691904D01*
X200921904Y-68787142D01*
X200969523Y-68834761D01*
X201064761Y-68882380D01*
X201255238Y-68882380D01*
X201350476Y-68834761D01*
X201398095Y-68787142D01*
X201445714Y-68691904D01*
X201445714Y-68501428D01*
X201398095Y-68406190D01*
X201350476Y-68358571D01*
X201255238Y-68310952D01*
X192301904Y-68882380D02*
X192301904Y-67882380D01*
X192540000Y-67882380D01*
X192682857Y-67930000D01*
X192778095Y-68025238D01*
X192825714Y-68120476D01*
X192873333Y-68310952D01*
X192873333Y-68453809D01*
X192825714Y-68644285D01*
X192778095Y-68739523D01*
X192682857Y-68834761D01*
X192540000Y-68882380D01*
X192301904Y-68882380D01*
X193254285Y-67977619D02*
X193301904Y-67930000D01*
X193397142Y-67882380D01*
X193635238Y-67882380D01*
X193730476Y-67930000D01*
X193778095Y-67977619D01*
X193825714Y-68072857D01*
X193825714Y-68168095D01*
X193778095Y-68310952D01*
X193206666Y-68882380D01*
X193825714Y-68882380D01*
X237545714Y-61262380D02*
X237545714Y-60262380D01*
X237783809Y-60262380D01*
X237926666Y-60310000D01*
X238021904Y-60405238D01*
X238069523Y-60500476D01*
X238117142Y-60690952D01*
X238117142Y-60833809D01*
X238069523Y-61024285D01*
X238021904Y-61119523D01*
X237926666Y-61214761D01*
X237783809Y-61262380D01*
X237545714Y-61262380D01*
X238450476Y-60262380D02*
X239069523Y-60262380D01*
X238736190Y-60643333D01*
X238879047Y-60643333D01*
X238974285Y-60690952D01*
X239021904Y-60738571D01*
X239069523Y-60833809D01*
X239069523Y-61071904D01*
X239021904Y-61167142D01*
X238974285Y-61214761D01*
X238879047Y-61262380D01*
X238593333Y-61262380D01*
X238498095Y-61214761D01*
X238450476Y-61167142D01*
X239402857Y-60262380D02*
X240069523Y-60262380D01*
X239640952Y-61262380D01*
X229925714Y-61262380D02*
X229925714Y-60262380D01*
X230163809Y-60262380D01*
X230306666Y-60310000D01*
X230401904Y-60405238D01*
X230449523Y-60500476D01*
X230497142Y-60690952D01*
X230497142Y-60833809D01*
X230449523Y-61024285D01*
X230401904Y-61119523D01*
X230306666Y-61214761D01*
X230163809Y-61262380D01*
X229925714Y-61262380D01*
X230830476Y-60262380D02*
X231449523Y-60262380D01*
X231116190Y-60643333D01*
X231259047Y-60643333D01*
X231354285Y-60690952D01*
X231401904Y-60738571D01*
X231449523Y-60833809D01*
X231449523Y-61071904D01*
X231401904Y-61167142D01*
X231354285Y-61214761D01*
X231259047Y-61262380D01*
X230973333Y-61262380D01*
X230878095Y-61214761D01*
X230830476Y-61167142D01*
X232401904Y-61262380D02*
X231830476Y-61262380D01*
X232116190Y-61262380D02*
X232116190Y-60262380D01*
X232020952Y-60405238D01*
X231925714Y-60500476D01*
X231830476Y-60548095D01*
X222305714Y-61262380D02*
X222305714Y-60262380D01*
X222543809Y-60262380D01*
X222686666Y-60310000D01*
X222781904Y-60405238D01*
X222829523Y-60500476D01*
X222877142Y-60690952D01*
X222877142Y-60833809D01*
X222829523Y-61024285D01*
X222781904Y-61119523D01*
X222686666Y-61214761D01*
X222543809Y-61262380D01*
X222305714Y-61262380D01*
X223258095Y-60357619D02*
X223305714Y-60310000D01*
X223400952Y-60262380D01*
X223639047Y-60262380D01*
X223734285Y-60310000D01*
X223781904Y-60357619D01*
X223829523Y-60452857D01*
X223829523Y-60548095D01*
X223781904Y-60690952D01*
X223210476Y-61262380D01*
X223829523Y-61262380D01*
X224734285Y-60262380D02*
X224258095Y-60262380D01*
X224210476Y-60738571D01*
X224258095Y-60690952D01*
X224353333Y-60643333D01*
X224591428Y-60643333D01*
X224686666Y-60690952D01*
X224734285Y-60738571D01*
X224781904Y-60833809D01*
X224781904Y-61071904D01*
X224734285Y-61167142D01*
X224686666Y-61214761D01*
X224591428Y-61262380D01*
X224353333Y-61262380D01*
X224258095Y-61214761D01*
X224210476Y-61167142D01*
X214685714Y-61262380D02*
X214685714Y-60262380D01*
X214923809Y-60262380D01*
X215066666Y-60310000D01*
X215161904Y-60405238D01*
X215209523Y-60500476D01*
X215257142Y-60690952D01*
X215257142Y-60833809D01*
X215209523Y-61024285D01*
X215161904Y-61119523D01*
X215066666Y-61214761D01*
X214923809Y-61262380D01*
X214685714Y-61262380D01*
X216209523Y-61262380D02*
X215638095Y-61262380D01*
X215923809Y-61262380D02*
X215923809Y-60262380D01*
X215828571Y-60405238D01*
X215733333Y-60500476D01*
X215638095Y-60548095D01*
X216685714Y-61262380D02*
X216876190Y-61262380D01*
X216971428Y-61214761D01*
X217019047Y-61167142D01*
X217114285Y-61024285D01*
X217161904Y-60833809D01*
X217161904Y-60452857D01*
X217114285Y-60357619D01*
X217066666Y-60310000D01*
X216971428Y-60262380D01*
X216780952Y-60262380D01*
X216685714Y-60310000D01*
X216638095Y-60357619D01*
X216590476Y-60452857D01*
X216590476Y-60690952D01*
X216638095Y-60786190D01*
X216685714Y-60833809D01*
X216780952Y-60881428D01*
X216971428Y-60881428D01*
X217066666Y-60833809D01*
X217114285Y-60786190D01*
X217161904Y-60690952D01*
X207065714Y-61262380D02*
X207065714Y-60262380D01*
X207303809Y-60262380D01*
X207446666Y-60310000D01*
X207541904Y-60405238D01*
X207589523Y-60500476D01*
X207637142Y-60690952D01*
X207637142Y-60833809D01*
X207589523Y-61024285D01*
X207541904Y-61119523D01*
X207446666Y-61214761D01*
X207303809Y-61262380D01*
X207065714Y-61262380D01*
X208589523Y-61262380D02*
X208018095Y-61262380D01*
X208303809Y-61262380D02*
X208303809Y-60262380D01*
X208208571Y-60405238D01*
X208113333Y-60500476D01*
X208018095Y-60548095D01*
X208922857Y-60262380D02*
X209541904Y-60262380D01*
X209208571Y-60643333D01*
X209351428Y-60643333D01*
X209446666Y-60690952D01*
X209494285Y-60738571D01*
X209541904Y-60833809D01*
X209541904Y-61071904D01*
X209494285Y-61167142D01*
X209446666Y-61214761D01*
X209351428Y-61262380D01*
X209065714Y-61262380D01*
X208970476Y-61214761D01*
X208922857Y-61167142D01*
X199921904Y-61262380D02*
X199921904Y-60262380D01*
X200160000Y-60262380D01*
X200302857Y-60310000D01*
X200398095Y-60405238D01*
X200445714Y-60500476D01*
X200493333Y-60690952D01*
X200493333Y-60833809D01*
X200445714Y-61024285D01*
X200398095Y-61119523D01*
X200302857Y-61214761D01*
X200160000Y-61262380D01*
X199921904Y-61262380D01*
X200826666Y-60262380D02*
X201493333Y-60262380D01*
X201064761Y-61262380D01*
X192301904Y-61262380D02*
X192301904Y-60262380D01*
X192540000Y-60262380D01*
X192682857Y-60310000D01*
X192778095Y-60405238D01*
X192825714Y-60500476D01*
X192873333Y-60690952D01*
X192873333Y-60833809D01*
X192825714Y-61024285D01*
X192778095Y-61119523D01*
X192682857Y-61214761D01*
X192540000Y-61262380D01*
X192301904Y-61262380D01*
X193825714Y-61262380D02*
X193254285Y-61262380D01*
X193540000Y-61262380D02*
X193540000Y-60262380D01*
X193444761Y-60405238D01*
X193349523Y-60500476D01*
X193254285Y-60548095D01*
M02*
