M48
; DRILL file {KiCad 5.1.6+dfsg1-1} date Wed Jul  1 01:52:52 2020
; FORMAT={-:-/ absolute / inch / decimal}
; #@! TF.CreationDate,2020-07-01T01:52:52-04:00
; #@! TF.GenerationSoftware,Kicad,Pcbnew,5.1.6+dfsg1-1
; #@! TF.FileFunction,Plated,1,2,PTH
FMAT,2
INCH
T1C0.0157
T2C0.0354
T3C0.0394
T4C0.0433
%
G90
G05
T1
X7.435Y-2.765
X7.635Y-3.945
X7.695Y-3.9112
X7.75Y-2.7
X7.995Y-3.655
X8.05Y-2.735
X8.295Y-3.345
X8.41Y-2.2462
X8.595Y-3.915
X8.705Y-3.8838
X8.715Y-2.215
X8.895Y-3.635
X9.005Y-3.6038
X9.295Y-4.16
X9.56Y-3.72
T2
X8.405Y-3.42
X8.475Y-3.48
X8.535Y-3.42
X8.595Y-3.48
X7.805Y-2.52
X7.875Y-2.58
X7.935Y-2.52
X7.995Y-2.58
X9.305Y-4.02
X9.375Y-4.08
X9.435Y-4.02
X9.495Y-4.08
X7.505Y-4.02
X7.575Y-4.08
X7.635Y-4.02
X7.695Y-4.08
X9.005Y-2.52
X9.075Y-2.58
X9.135Y-2.52
X9.195Y-2.58
X7.505Y-2.82
X7.575Y-2.88
X7.635Y-2.82
X7.695Y-2.88
X8.405Y-2.82
X8.475Y-2.88
X8.535Y-2.82
X8.595Y-2.88
X8.705Y-3.12
X8.775Y-3.18
X8.835Y-3.12
X8.895Y-3.18
X8.705Y-2.82
X8.775Y-2.88
X8.835Y-2.82
X8.895Y-2.88
X8.105Y-3.42
X8.175Y-3.48
X8.235Y-3.42
X8.295Y-3.48
X8.405Y-4.02
X8.475Y-4.08
X8.535Y-4.02
X8.595Y-4.08
X9.305Y-3.72
X9.375Y-3.78
X9.435Y-3.72
X9.495Y-3.78
X9.005Y-2.82
X9.075Y-2.88
X9.135Y-2.82
X9.195Y-2.88
X7.805Y-3.42
X7.875Y-3.48
X7.935Y-3.42
X7.995Y-3.48
X8.105Y-2.82
X8.175Y-2.88
X8.235Y-2.82
X8.295Y-2.88
X8.705Y-2.52
X8.775Y-2.58
X8.835Y-2.52
X8.895Y-2.58
X8.405Y-2.52
X8.475Y-2.58
X8.535Y-2.52
X8.595Y-2.58
X9.305Y-3.42
X9.375Y-3.48
X9.435Y-3.42
X9.495Y-3.48
X7.805Y-3.72
X7.875Y-3.78
X7.935Y-3.72
X7.995Y-3.78
X7.505Y-2.52
X7.575Y-2.58
X7.635Y-2.52
X7.695Y-2.58
X8.705Y-4.02
X8.775Y-4.08
X8.835Y-4.02
X8.895Y-4.08
X9.305Y-2.52
X9.375Y-2.58
X9.435Y-2.52
X9.495Y-2.58
X8.705Y-3.42
X8.775Y-3.48
X8.835Y-3.42
X8.895Y-3.48
X7.505Y-3.42
X7.575Y-3.48
X7.635Y-3.42
X7.695Y-3.48
X8.405Y-3.12
X8.475Y-3.18
X8.535Y-3.12
X8.595Y-3.18
X8.105Y-4.02
X8.175Y-4.08
X8.235Y-4.02
X8.295Y-4.08
X8.105Y-3.12
X8.175Y-3.18
X8.235Y-3.12
X8.295Y-3.18
X9.005Y-4.02
X9.075Y-4.08
X9.135Y-4.02
X9.195Y-4.08
X7.505Y-3.72
X7.575Y-3.78
X7.635Y-3.72
X7.695Y-3.78
X9.005Y-3.12
X9.075Y-3.18
X9.135Y-3.12
X9.195Y-3.18
X9.305Y-3.12
X9.375Y-3.18
X9.435Y-3.12
X9.495Y-3.18
X7.805Y-4.02
X7.875Y-4.08
X7.935Y-4.02
X7.995Y-4.08
X7.805Y-3.12
X7.875Y-3.18
X7.935Y-3.12
X7.995Y-3.18
X9.005Y-3.72
X9.075Y-3.78
X9.135Y-3.72
X9.195Y-3.78
X7.505Y-3.12
X7.575Y-3.18
X7.635Y-3.12
X7.695Y-3.18
X8.105Y-2.52
X8.175Y-2.58
X8.235Y-2.52
X8.295Y-2.58
X8.705Y-3.72
X8.775Y-3.78
X8.835Y-3.72
X8.895Y-3.78
X9.005Y-3.42
X9.075Y-3.48
X9.135Y-3.42
X9.195Y-3.48
X8.405Y-3.72
X8.475Y-3.78
X8.535Y-3.72
X8.595Y-3.78
X9.305Y-2.82
X9.375Y-2.88
X9.435Y-2.82
X9.495Y-2.88
X8.105Y-3.72
X8.175Y-3.78
X8.235Y-3.72
X8.295Y-3.78
X7.805Y-2.82
X7.875Y-2.88
X7.935Y-2.82
X7.995Y-2.88
T3
X9.7Y-2.25
X9.7Y-2.35
X9.7Y-2.45
X9.7Y-2.55
X9.7Y-2.65
X9.7Y-2.75
X9.7Y-2.85
X9.7Y-2.95
X9.7Y-3.05
X9.7Y-3.15
X9.7Y-3.25
X9.7Y-3.35
X9.7Y-3.45
X9.7Y-3.55
X9.7Y-3.65
X9.7Y-3.75
X9.7Y-3.85
X9.7Y-3.95
X7.3Y-2.25
X7.3Y-2.35
X7.3Y-2.45
X7.3Y-2.55
X7.3Y-2.65
X7.3Y-2.75
X7.3Y-2.85
X7.3Y-2.95
X7.3Y-3.05
X7.3Y-3.15
X7.3Y-3.25
X7.3Y-3.35
X7.3Y-3.45
X7.3Y-3.55
X7.3Y-3.65
X7.3Y-3.75
X7.3Y-3.85
X7.3Y-3.95
T4
X9.019Y-2.0941
X9.019Y-2.35
X9.1962Y-2.0941
X9.1962Y-2.35
X8.7152Y-2.0941
X8.7152Y-2.35
X8.8924Y-2.0941
X8.8924Y-2.35
X7.5Y-2.0941
X7.5Y-2.35
X7.6772Y-2.0941
X7.6772Y-2.35
X9.3228Y-2.0941
X9.3228Y-2.35
X9.5Y-2.0941
X9.5Y-2.35
X8.1076Y-2.0941
X8.1076Y-2.35
X8.2848Y-2.0941
X8.2848Y-2.35
X8.4114Y-2.0941
X8.4114Y-2.35
X8.5886Y-2.0941
X8.5886Y-2.35
X7.8038Y-2.0941
X7.8038Y-2.35
X7.981Y-2.0941
X7.981Y-2.35
T0
M30
