G04 #@! TF.GenerationSoftware,KiCad,Pcbnew,5.1.6+dfsg1-1*
G04 #@! TF.CreationDate,2020-07-01T01:52:51-04:00*
G04 #@! TF.ProjectId,PCB,5043422e-6b69-4636-9164-5f7063625858,rev?*
G04 #@! TF.SameCoordinates,Original*
G04 #@! TF.FileFunction,Soldermask,Bot*
G04 #@! TF.FilePolarity,Negative*
%FSLAX46Y46*%
G04 Gerber Fmt 4.6, Leading zero omitted, Abs format (unit mm)*
G04 Created by KiCad (PCBNEW 5.1.6+dfsg1-1) date 2020-07-01 01:52:51*
%MOMM*%
%LPD*%
G01*
G04 APERTURE LIST*
%ADD10C,2.000000*%
%ADD11O,1.700000X1.700000*%
%ADD12R,1.700000X1.700000*%
%ADD13C,1.800000*%
G04 APERTURE END LIST*
D10*
X236800000Y-53190000D03*
X241300000Y-53190000D03*
X236800000Y-59690000D03*
X241300000Y-59690000D03*
X229083330Y-53190000D03*
X233583330Y-53190000D03*
X229083330Y-59690000D03*
X233583330Y-59690000D03*
X221366664Y-53190000D03*
X225866664Y-53190000D03*
X221366664Y-59690000D03*
X225866664Y-59690000D03*
X213649998Y-53190000D03*
X218149998Y-53190000D03*
X213649998Y-59690000D03*
X218149998Y-59690000D03*
X205933332Y-53190000D03*
X210433332Y-53190000D03*
X205933332Y-59690000D03*
X210433332Y-59690000D03*
X198216666Y-53190000D03*
X202716666Y-53190000D03*
X198216666Y-59690000D03*
X202716666Y-59690000D03*
X190500000Y-53190000D03*
X195000000Y-53190000D03*
X190500000Y-59690000D03*
X195000000Y-59690000D03*
D11*
X246380000Y-57150000D03*
X246380000Y-59690000D03*
X246380000Y-62230000D03*
X246380000Y-64770000D03*
X246380000Y-67310000D03*
X246380000Y-69850000D03*
X246380000Y-72390000D03*
X246380000Y-74930000D03*
X246380000Y-77470000D03*
X246380000Y-80010000D03*
X246380000Y-82550000D03*
X246380000Y-85090000D03*
X246380000Y-87630000D03*
X246380000Y-90170000D03*
X246380000Y-92710000D03*
X246380000Y-95250000D03*
X246380000Y-97790000D03*
D12*
X246380000Y-100330000D03*
X185420000Y-100330000D03*
D11*
X185420000Y-97790000D03*
X185420000Y-95250000D03*
X185420000Y-92710000D03*
X185420000Y-90170000D03*
X185420000Y-87630000D03*
X185420000Y-85090000D03*
X185420000Y-82550000D03*
X185420000Y-80010000D03*
X185420000Y-77470000D03*
X185420000Y-74930000D03*
X185420000Y-72390000D03*
X185420000Y-69850000D03*
X185420000Y-67310000D03*
X185420000Y-64770000D03*
X185420000Y-62230000D03*
X185420000Y-59690000D03*
X185420000Y-57150000D03*
G36*
G01*
X204967000Y-102558000D02*
X204967000Y-101658000D01*
G75*
G02*
X205417000Y-101208000I450000J0D01*
G01*
X206317000Y-101208000D01*
G75*
G02*
X206767000Y-101658000I0J-450000D01*
G01*
X206767000Y-102558000D01*
G75*
G02*
X206317000Y-103008000I-450000J0D01*
G01*
X205417000Y-103008000D01*
G75*
G02*
X204967000Y-102558000I0J450000D01*
G01*
G37*
D13*
X207645000Y-103632000D03*
X209169000Y-102108000D03*
X210693000Y-103632000D03*
G36*
G01*
X235447000Y-102558000D02*
X235447000Y-101658000D01*
G75*
G02*
X235897000Y-101208000I450000J0D01*
G01*
X236797000Y-101208000D01*
G75*
G02*
X237247000Y-101658000I0J-450000D01*
G01*
X237247000Y-102558000D01*
G75*
G02*
X236797000Y-103008000I-450000J0D01*
G01*
X235897000Y-103008000D01*
G75*
G02*
X235447000Y-102558000I0J450000D01*
G01*
G37*
X238125000Y-103632000D03*
X239649000Y-102108000D03*
X241173000Y-103632000D03*
G36*
G01*
X227827000Y-102558000D02*
X227827000Y-101658000D01*
G75*
G02*
X228277000Y-101208000I450000J0D01*
G01*
X229177000Y-101208000D01*
G75*
G02*
X229627000Y-101658000I0J-450000D01*
G01*
X229627000Y-102558000D01*
G75*
G02*
X229177000Y-103008000I-450000J0D01*
G01*
X228277000Y-103008000D01*
G75*
G02*
X227827000Y-102558000I0J450000D01*
G01*
G37*
X230505000Y-103632000D03*
X232029000Y-102108000D03*
X233553000Y-103632000D03*
G36*
G01*
X220207000Y-102558000D02*
X220207000Y-101658000D01*
G75*
G02*
X220657000Y-101208000I450000J0D01*
G01*
X221557000Y-101208000D01*
G75*
G02*
X222007000Y-101658000I0J-450000D01*
G01*
X222007000Y-102558000D01*
G75*
G02*
X221557000Y-103008000I-450000J0D01*
G01*
X220657000Y-103008000D01*
G75*
G02*
X220207000Y-102558000I0J450000D01*
G01*
G37*
X222885000Y-103632000D03*
X224409000Y-102108000D03*
X225933000Y-103632000D03*
G36*
G01*
X212587000Y-102558000D02*
X212587000Y-101658000D01*
G75*
G02*
X213037000Y-101208000I450000J0D01*
G01*
X213937000Y-101208000D01*
G75*
G02*
X214387000Y-101658000I0J-450000D01*
G01*
X214387000Y-102558000D01*
G75*
G02*
X213937000Y-103008000I-450000J0D01*
G01*
X213037000Y-103008000D01*
G75*
G02*
X212587000Y-102558000I0J450000D01*
G01*
G37*
X215265000Y-103632000D03*
X216789000Y-102108000D03*
X218313000Y-103632000D03*
G36*
G01*
X197347000Y-102558000D02*
X197347000Y-101658000D01*
G75*
G02*
X197797000Y-101208000I450000J0D01*
G01*
X198697000Y-101208000D01*
G75*
G02*
X199147000Y-101658000I0J-450000D01*
G01*
X199147000Y-102558000D01*
G75*
G02*
X198697000Y-103008000I-450000J0D01*
G01*
X197797000Y-103008000D01*
G75*
G02*
X197347000Y-102558000I0J450000D01*
G01*
G37*
X200025000Y-103632000D03*
X201549000Y-102108000D03*
X203073000Y-103632000D03*
G36*
G01*
X189727000Y-102558000D02*
X189727000Y-101658000D01*
G75*
G02*
X190177000Y-101208000I450000J0D01*
G01*
X191077000Y-101208000D01*
G75*
G02*
X191527000Y-101658000I0J-450000D01*
G01*
X191527000Y-102558000D01*
G75*
G02*
X191077000Y-103008000I-450000J0D01*
G01*
X190177000Y-103008000D01*
G75*
G02*
X189727000Y-102558000I0J450000D01*
G01*
G37*
X192405000Y-103632000D03*
X193929000Y-102108000D03*
X195453000Y-103632000D03*
G36*
G01*
X235447000Y-94938000D02*
X235447000Y-94038000D01*
G75*
G02*
X235897000Y-93588000I450000J0D01*
G01*
X236797000Y-93588000D01*
G75*
G02*
X237247000Y-94038000I0J-450000D01*
G01*
X237247000Y-94938000D01*
G75*
G02*
X236797000Y-95388000I-450000J0D01*
G01*
X235897000Y-95388000D01*
G75*
G02*
X235447000Y-94938000I0J450000D01*
G01*
G37*
X238125000Y-96012000D03*
X239649000Y-94488000D03*
X241173000Y-96012000D03*
G36*
G01*
X227827000Y-94938000D02*
X227827000Y-94038000D01*
G75*
G02*
X228277000Y-93588000I450000J0D01*
G01*
X229177000Y-93588000D01*
G75*
G02*
X229627000Y-94038000I0J-450000D01*
G01*
X229627000Y-94938000D01*
G75*
G02*
X229177000Y-95388000I-450000J0D01*
G01*
X228277000Y-95388000D01*
G75*
G02*
X227827000Y-94938000I0J450000D01*
G01*
G37*
X230505000Y-96012000D03*
X232029000Y-94488000D03*
X233553000Y-96012000D03*
G36*
G01*
X220207000Y-94938000D02*
X220207000Y-94038000D01*
G75*
G02*
X220657000Y-93588000I450000J0D01*
G01*
X221557000Y-93588000D01*
G75*
G02*
X222007000Y-94038000I0J-450000D01*
G01*
X222007000Y-94938000D01*
G75*
G02*
X221557000Y-95388000I-450000J0D01*
G01*
X220657000Y-95388000D01*
G75*
G02*
X220207000Y-94938000I0J450000D01*
G01*
G37*
X222885000Y-96012000D03*
X224409000Y-94488000D03*
X225933000Y-96012000D03*
G36*
G01*
X212587000Y-94938000D02*
X212587000Y-94038000D01*
G75*
G02*
X213037000Y-93588000I450000J0D01*
G01*
X213937000Y-93588000D01*
G75*
G02*
X214387000Y-94038000I0J-450000D01*
G01*
X214387000Y-94938000D01*
G75*
G02*
X213937000Y-95388000I-450000J0D01*
G01*
X213037000Y-95388000D01*
G75*
G02*
X212587000Y-94938000I0J450000D01*
G01*
G37*
X215265000Y-96012000D03*
X216789000Y-94488000D03*
X218313000Y-96012000D03*
G36*
G01*
X204967000Y-94938000D02*
X204967000Y-94038000D01*
G75*
G02*
X205417000Y-93588000I450000J0D01*
G01*
X206317000Y-93588000D01*
G75*
G02*
X206767000Y-94038000I0J-450000D01*
G01*
X206767000Y-94938000D01*
G75*
G02*
X206317000Y-95388000I-450000J0D01*
G01*
X205417000Y-95388000D01*
G75*
G02*
X204967000Y-94938000I0J450000D01*
G01*
G37*
X207645000Y-96012000D03*
X209169000Y-94488000D03*
X210693000Y-96012000D03*
G36*
G01*
X197347000Y-94938000D02*
X197347000Y-94038000D01*
G75*
G02*
X197797000Y-93588000I450000J0D01*
G01*
X198697000Y-93588000D01*
G75*
G02*
X199147000Y-94038000I0J-450000D01*
G01*
X199147000Y-94938000D01*
G75*
G02*
X198697000Y-95388000I-450000J0D01*
G01*
X197797000Y-95388000D01*
G75*
G02*
X197347000Y-94938000I0J450000D01*
G01*
G37*
X200025000Y-96012000D03*
X201549000Y-94488000D03*
X203073000Y-96012000D03*
G36*
G01*
X189727000Y-94938000D02*
X189727000Y-94038000D01*
G75*
G02*
X190177000Y-93588000I450000J0D01*
G01*
X191077000Y-93588000D01*
G75*
G02*
X191527000Y-94038000I0J-450000D01*
G01*
X191527000Y-94938000D01*
G75*
G02*
X191077000Y-95388000I-450000J0D01*
G01*
X190177000Y-95388000D01*
G75*
G02*
X189727000Y-94938000I0J450000D01*
G01*
G37*
X192405000Y-96012000D03*
X193929000Y-94488000D03*
X195453000Y-96012000D03*
G36*
G01*
X235447000Y-87318000D02*
X235447000Y-86418000D01*
G75*
G02*
X235897000Y-85968000I450000J0D01*
G01*
X236797000Y-85968000D01*
G75*
G02*
X237247000Y-86418000I0J-450000D01*
G01*
X237247000Y-87318000D01*
G75*
G02*
X236797000Y-87768000I-450000J0D01*
G01*
X235897000Y-87768000D01*
G75*
G02*
X235447000Y-87318000I0J450000D01*
G01*
G37*
X238125000Y-88392000D03*
X239649000Y-86868000D03*
X241173000Y-88392000D03*
G36*
G01*
X227827000Y-87318000D02*
X227827000Y-86418000D01*
G75*
G02*
X228277000Y-85968000I450000J0D01*
G01*
X229177000Y-85968000D01*
G75*
G02*
X229627000Y-86418000I0J-450000D01*
G01*
X229627000Y-87318000D01*
G75*
G02*
X229177000Y-87768000I-450000J0D01*
G01*
X228277000Y-87768000D01*
G75*
G02*
X227827000Y-87318000I0J450000D01*
G01*
G37*
X230505000Y-88392000D03*
X232029000Y-86868000D03*
X233553000Y-88392000D03*
G36*
G01*
X220207000Y-87318000D02*
X220207000Y-86418000D01*
G75*
G02*
X220657000Y-85968000I450000J0D01*
G01*
X221557000Y-85968000D01*
G75*
G02*
X222007000Y-86418000I0J-450000D01*
G01*
X222007000Y-87318000D01*
G75*
G02*
X221557000Y-87768000I-450000J0D01*
G01*
X220657000Y-87768000D01*
G75*
G02*
X220207000Y-87318000I0J450000D01*
G01*
G37*
X222885000Y-88392000D03*
X224409000Y-86868000D03*
X225933000Y-88392000D03*
G36*
G01*
X212587000Y-87318000D02*
X212587000Y-86418000D01*
G75*
G02*
X213037000Y-85968000I450000J0D01*
G01*
X213937000Y-85968000D01*
G75*
G02*
X214387000Y-86418000I0J-450000D01*
G01*
X214387000Y-87318000D01*
G75*
G02*
X213937000Y-87768000I-450000J0D01*
G01*
X213037000Y-87768000D01*
G75*
G02*
X212587000Y-87318000I0J450000D01*
G01*
G37*
X215265000Y-88392000D03*
X216789000Y-86868000D03*
X218313000Y-88392000D03*
G36*
G01*
X204967000Y-87318000D02*
X204967000Y-86418000D01*
G75*
G02*
X205417000Y-85968000I450000J0D01*
G01*
X206317000Y-85968000D01*
G75*
G02*
X206767000Y-86418000I0J-450000D01*
G01*
X206767000Y-87318000D01*
G75*
G02*
X206317000Y-87768000I-450000J0D01*
G01*
X205417000Y-87768000D01*
G75*
G02*
X204967000Y-87318000I0J450000D01*
G01*
G37*
X207645000Y-88392000D03*
X209169000Y-86868000D03*
X210693000Y-88392000D03*
G36*
G01*
X197347000Y-87318000D02*
X197347000Y-86418000D01*
G75*
G02*
X197797000Y-85968000I450000J0D01*
G01*
X198697000Y-85968000D01*
G75*
G02*
X199147000Y-86418000I0J-450000D01*
G01*
X199147000Y-87318000D01*
G75*
G02*
X198697000Y-87768000I-450000J0D01*
G01*
X197797000Y-87768000D01*
G75*
G02*
X197347000Y-87318000I0J450000D01*
G01*
G37*
X200025000Y-88392000D03*
X201549000Y-86868000D03*
X203073000Y-88392000D03*
G36*
G01*
X189727000Y-87318000D02*
X189727000Y-86418000D01*
G75*
G02*
X190177000Y-85968000I450000J0D01*
G01*
X191077000Y-85968000D01*
G75*
G02*
X191527000Y-86418000I0J-450000D01*
G01*
X191527000Y-87318000D01*
G75*
G02*
X191077000Y-87768000I-450000J0D01*
G01*
X190177000Y-87768000D01*
G75*
G02*
X189727000Y-87318000I0J450000D01*
G01*
G37*
X192405000Y-88392000D03*
X193929000Y-86868000D03*
X195453000Y-88392000D03*
G36*
G01*
X235447000Y-79698000D02*
X235447000Y-78798000D01*
G75*
G02*
X235897000Y-78348000I450000J0D01*
G01*
X236797000Y-78348000D01*
G75*
G02*
X237247000Y-78798000I0J-450000D01*
G01*
X237247000Y-79698000D01*
G75*
G02*
X236797000Y-80148000I-450000J0D01*
G01*
X235897000Y-80148000D01*
G75*
G02*
X235447000Y-79698000I0J450000D01*
G01*
G37*
X238125000Y-80772000D03*
X239649000Y-79248000D03*
X241173000Y-80772000D03*
G36*
G01*
X227827000Y-79698000D02*
X227827000Y-78798000D01*
G75*
G02*
X228277000Y-78348000I450000J0D01*
G01*
X229177000Y-78348000D01*
G75*
G02*
X229627000Y-78798000I0J-450000D01*
G01*
X229627000Y-79698000D01*
G75*
G02*
X229177000Y-80148000I-450000J0D01*
G01*
X228277000Y-80148000D01*
G75*
G02*
X227827000Y-79698000I0J450000D01*
G01*
G37*
X230505000Y-80772000D03*
X232029000Y-79248000D03*
X233553000Y-80772000D03*
G36*
G01*
X220207000Y-79698000D02*
X220207000Y-78798000D01*
G75*
G02*
X220657000Y-78348000I450000J0D01*
G01*
X221557000Y-78348000D01*
G75*
G02*
X222007000Y-78798000I0J-450000D01*
G01*
X222007000Y-79698000D01*
G75*
G02*
X221557000Y-80148000I-450000J0D01*
G01*
X220657000Y-80148000D01*
G75*
G02*
X220207000Y-79698000I0J450000D01*
G01*
G37*
X222885000Y-80772000D03*
X224409000Y-79248000D03*
X225933000Y-80772000D03*
G36*
G01*
X212587000Y-79698000D02*
X212587000Y-78798000D01*
G75*
G02*
X213037000Y-78348000I450000J0D01*
G01*
X213937000Y-78348000D01*
G75*
G02*
X214387000Y-78798000I0J-450000D01*
G01*
X214387000Y-79698000D01*
G75*
G02*
X213937000Y-80148000I-450000J0D01*
G01*
X213037000Y-80148000D01*
G75*
G02*
X212587000Y-79698000I0J450000D01*
G01*
G37*
X215265000Y-80772000D03*
X216789000Y-79248000D03*
X218313000Y-80772000D03*
G36*
G01*
X204967000Y-79698000D02*
X204967000Y-78798000D01*
G75*
G02*
X205417000Y-78348000I450000J0D01*
G01*
X206317000Y-78348000D01*
G75*
G02*
X206767000Y-78798000I0J-450000D01*
G01*
X206767000Y-79698000D01*
G75*
G02*
X206317000Y-80148000I-450000J0D01*
G01*
X205417000Y-80148000D01*
G75*
G02*
X204967000Y-79698000I0J450000D01*
G01*
G37*
X207645000Y-80772000D03*
X209169000Y-79248000D03*
X210693000Y-80772000D03*
G36*
G01*
X197347000Y-79698000D02*
X197347000Y-78798000D01*
G75*
G02*
X197797000Y-78348000I450000J0D01*
G01*
X198697000Y-78348000D01*
G75*
G02*
X199147000Y-78798000I0J-450000D01*
G01*
X199147000Y-79698000D01*
G75*
G02*
X198697000Y-80148000I-450000J0D01*
G01*
X197797000Y-80148000D01*
G75*
G02*
X197347000Y-79698000I0J450000D01*
G01*
G37*
X200025000Y-80772000D03*
X201549000Y-79248000D03*
X203073000Y-80772000D03*
G36*
G01*
X189727000Y-79698000D02*
X189727000Y-78798000D01*
G75*
G02*
X190177000Y-78348000I450000J0D01*
G01*
X191077000Y-78348000D01*
G75*
G02*
X191527000Y-78798000I0J-450000D01*
G01*
X191527000Y-79698000D01*
G75*
G02*
X191077000Y-80148000I-450000J0D01*
G01*
X190177000Y-80148000D01*
G75*
G02*
X189727000Y-79698000I0J450000D01*
G01*
G37*
X192405000Y-80772000D03*
X193929000Y-79248000D03*
X195453000Y-80772000D03*
G36*
G01*
X235447000Y-72078000D02*
X235447000Y-71178000D01*
G75*
G02*
X235897000Y-70728000I450000J0D01*
G01*
X236797000Y-70728000D01*
G75*
G02*
X237247000Y-71178000I0J-450000D01*
G01*
X237247000Y-72078000D01*
G75*
G02*
X236797000Y-72528000I-450000J0D01*
G01*
X235897000Y-72528000D01*
G75*
G02*
X235447000Y-72078000I0J450000D01*
G01*
G37*
X238125000Y-73152000D03*
X239649000Y-71628000D03*
X241173000Y-73152000D03*
G36*
G01*
X227827000Y-72078000D02*
X227827000Y-71178000D01*
G75*
G02*
X228277000Y-70728000I450000J0D01*
G01*
X229177000Y-70728000D01*
G75*
G02*
X229627000Y-71178000I0J-450000D01*
G01*
X229627000Y-72078000D01*
G75*
G02*
X229177000Y-72528000I-450000J0D01*
G01*
X228277000Y-72528000D01*
G75*
G02*
X227827000Y-72078000I0J450000D01*
G01*
G37*
X230505000Y-73152000D03*
X232029000Y-71628000D03*
X233553000Y-73152000D03*
G36*
G01*
X220207000Y-72078000D02*
X220207000Y-71178000D01*
G75*
G02*
X220657000Y-70728000I450000J0D01*
G01*
X221557000Y-70728000D01*
G75*
G02*
X222007000Y-71178000I0J-450000D01*
G01*
X222007000Y-72078000D01*
G75*
G02*
X221557000Y-72528000I-450000J0D01*
G01*
X220657000Y-72528000D01*
G75*
G02*
X220207000Y-72078000I0J450000D01*
G01*
G37*
X222885000Y-73152000D03*
X224409000Y-71628000D03*
X225933000Y-73152000D03*
G36*
G01*
X212587000Y-72078000D02*
X212587000Y-71178000D01*
G75*
G02*
X213037000Y-70728000I450000J0D01*
G01*
X213937000Y-70728000D01*
G75*
G02*
X214387000Y-71178000I0J-450000D01*
G01*
X214387000Y-72078000D01*
G75*
G02*
X213937000Y-72528000I-450000J0D01*
G01*
X213037000Y-72528000D01*
G75*
G02*
X212587000Y-72078000I0J450000D01*
G01*
G37*
X215265000Y-73152000D03*
X216789000Y-71628000D03*
X218313000Y-73152000D03*
G36*
G01*
X204967000Y-72078000D02*
X204967000Y-71178000D01*
G75*
G02*
X205417000Y-70728000I450000J0D01*
G01*
X206317000Y-70728000D01*
G75*
G02*
X206767000Y-71178000I0J-450000D01*
G01*
X206767000Y-72078000D01*
G75*
G02*
X206317000Y-72528000I-450000J0D01*
G01*
X205417000Y-72528000D01*
G75*
G02*
X204967000Y-72078000I0J450000D01*
G01*
G37*
X207645000Y-73152000D03*
X209169000Y-71628000D03*
X210693000Y-73152000D03*
G36*
G01*
X197347000Y-72078000D02*
X197347000Y-71178000D01*
G75*
G02*
X197797000Y-70728000I450000J0D01*
G01*
X198697000Y-70728000D01*
G75*
G02*
X199147000Y-71178000I0J-450000D01*
G01*
X199147000Y-72078000D01*
G75*
G02*
X198697000Y-72528000I-450000J0D01*
G01*
X197797000Y-72528000D01*
G75*
G02*
X197347000Y-72078000I0J450000D01*
G01*
G37*
X200025000Y-73152000D03*
X201549000Y-71628000D03*
X203073000Y-73152000D03*
G36*
G01*
X189727000Y-72078000D02*
X189727000Y-71178000D01*
G75*
G02*
X190177000Y-70728000I450000J0D01*
G01*
X191077000Y-70728000D01*
G75*
G02*
X191527000Y-71178000I0J-450000D01*
G01*
X191527000Y-72078000D01*
G75*
G02*
X191077000Y-72528000I-450000J0D01*
G01*
X190177000Y-72528000D01*
G75*
G02*
X189727000Y-72078000I0J450000D01*
G01*
G37*
X192405000Y-73152000D03*
X193929000Y-71628000D03*
X195453000Y-73152000D03*
G36*
G01*
X235447000Y-64458000D02*
X235447000Y-63558000D01*
G75*
G02*
X235897000Y-63108000I450000J0D01*
G01*
X236797000Y-63108000D01*
G75*
G02*
X237247000Y-63558000I0J-450000D01*
G01*
X237247000Y-64458000D01*
G75*
G02*
X236797000Y-64908000I-450000J0D01*
G01*
X235897000Y-64908000D01*
G75*
G02*
X235447000Y-64458000I0J450000D01*
G01*
G37*
X238125000Y-65532000D03*
X239649000Y-64008000D03*
X241173000Y-65532000D03*
G36*
G01*
X227827000Y-64458000D02*
X227827000Y-63558000D01*
G75*
G02*
X228277000Y-63108000I450000J0D01*
G01*
X229177000Y-63108000D01*
G75*
G02*
X229627000Y-63558000I0J-450000D01*
G01*
X229627000Y-64458000D01*
G75*
G02*
X229177000Y-64908000I-450000J0D01*
G01*
X228277000Y-64908000D01*
G75*
G02*
X227827000Y-64458000I0J450000D01*
G01*
G37*
X230505000Y-65532000D03*
X232029000Y-64008000D03*
X233553000Y-65532000D03*
G36*
G01*
X220207000Y-64458000D02*
X220207000Y-63558000D01*
G75*
G02*
X220657000Y-63108000I450000J0D01*
G01*
X221557000Y-63108000D01*
G75*
G02*
X222007000Y-63558000I0J-450000D01*
G01*
X222007000Y-64458000D01*
G75*
G02*
X221557000Y-64908000I-450000J0D01*
G01*
X220657000Y-64908000D01*
G75*
G02*
X220207000Y-64458000I0J450000D01*
G01*
G37*
X222885000Y-65532000D03*
X224409000Y-64008000D03*
X225933000Y-65532000D03*
G36*
G01*
X212587000Y-64458000D02*
X212587000Y-63558000D01*
G75*
G02*
X213037000Y-63108000I450000J0D01*
G01*
X213937000Y-63108000D01*
G75*
G02*
X214387000Y-63558000I0J-450000D01*
G01*
X214387000Y-64458000D01*
G75*
G02*
X213937000Y-64908000I-450000J0D01*
G01*
X213037000Y-64908000D01*
G75*
G02*
X212587000Y-64458000I0J450000D01*
G01*
G37*
X215265000Y-65532000D03*
X216789000Y-64008000D03*
X218313000Y-65532000D03*
G36*
G01*
X204967000Y-64458000D02*
X204967000Y-63558000D01*
G75*
G02*
X205417000Y-63108000I450000J0D01*
G01*
X206317000Y-63108000D01*
G75*
G02*
X206767000Y-63558000I0J-450000D01*
G01*
X206767000Y-64458000D01*
G75*
G02*
X206317000Y-64908000I-450000J0D01*
G01*
X205417000Y-64908000D01*
G75*
G02*
X204967000Y-64458000I0J450000D01*
G01*
G37*
X207645000Y-65532000D03*
X209169000Y-64008000D03*
X210693000Y-65532000D03*
G36*
G01*
X197347000Y-64458000D02*
X197347000Y-63558000D01*
G75*
G02*
X197797000Y-63108000I450000J0D01*
G01*
X198697000Y-63108000D01*
G75*
G02*
X199147000Y-63558000I0J-450000D01*
G01*
X199147000Y-64458000D01*
G75*
G02*
X198697000Y-64908000I-450000J0D01*
G01*
X197797000Y-64908000D01*
G75*
G02*
X197347000Y-64458000I0J450000D01*
G01*
G37*
X200025000Y-65532000D03*
X201549000Y-64008000D03*
X203073000Y-65532000D03*
G36*
G01*
X189727000Y-64458000D02*
X189727000Y-63558000D01*
G75*
G02*
X190177000Y-63108000I450000J0D01*
G01*
X191077000Y-63108000D01*
G75*
G02*
X191527000Y-63558000I0J-450000D01*
G01*
X191527000Y-64458000D01*
G75*
G02*
X191077000Y-64908000I-450000J0D01*
G01*
X190177000Y-64908000D01*
G75*
G02*
X189727000Y-64458000I0J450000D01*
G01*
G37*
X192405000Y-65532000D03*
X193929000Y-64008000D03*
X195453000Y-65532000D03*
M02*
