G04 #@! TF.GenerationSoftware,KiCad,Pcbnew,5.1.5+dfsg1-2*
G04 #@! TF.CreationDate,2020-01-03T23:49:53-05:00*
G04 #@! TF.ProjectId,PCB,5043422e-6b69-4636-9164-5f7063625858,rev?*
G04 #@! TF.SameCoordinates,Original*
G04 #@! TF.FileFunction,Legend,Top*
G04 #@! TF.FilePolarity,Positive*
%FSLAX46Y46*%
G04 Gerber Fmt 4.6, Leading zero omitted, Abs format (unit mm)*
G04 Created by KiCad (PCBNEW 5.1.5+dfsg1-2) date 2020-01-03 23:49:53*
%MOMM*%
%LPD*%
G04 APERTURE LIST*
%ADD10C,0.400000*%
%ADD11C,0.120000*%
%ADD12C,0.150000*%
G04 APERTURE END LIST*
D10*
X162983101Y-56360285D02*
X162774767Y-58026952D01*
X162506910Y-55407904D02*
X161688458Y-57193619D01*
X163236077Y-57193619D01*
X167179529Y-58026952D02*
X165989053Y-58026952D01*
X166301553Y-55526952D01*
X168176553Y-56717428D02*
X169009886Y-56717428D01*
X169203339Y-58026952D02*
X168012863Y-58026952D01*
X168325363Y-55526952D01*
X169515839Y-55526952D01*
X170274767Y-58026952D02*
X170587267Y-55526952D01*
X171182505Y-55526952D01*
X171524767Y-55646000D01*
X171733101Y-55884095D01*
X171822386Y-56122190D01*
X171881910Y-56598380D01*
X171837267Y-56955523D01*
X171658696Y-57431714D01*
X171509886Y-57669809D01*
X171242029Y-57907904D01*
X170870005Y-58026952D01*
X170274767Y-58026952D01*
X174679529Y-58026952D02*
X174887863Y-56360285D01*
X174992029Y-55526952D02*
X174858101Y-55646000D01*
X174962267Y-55765047D01*
X175096196Y-55646000D01*
X174992029Y-55526952D01*
X174962267Y-55765047D01*
X176078339Y-56360285D02*
X175870005Y-58026952D01*
X176048577Y-56598380D02*
X176182505Y-56479333D01*
X176435482Y-56360285D01*
X176792625Y-56360285D01*
X177015839Y-56479333D01*
X177105125Y-56717428D01*
X176941434Y-58026952D01*
X181108101Y-58026952D02*
X181271791Y-56717428D01*
X181182505Y-56479333D01*
X180959291Y-56360285D01*
X180483101Y-56360285D01*
X180230124Y-56479333D01*
X181122982Y-57907904D02*
X180870005Y-58026952D01*
X180274767Y-58026952D01*
X180051553Y-57907904D01*
X179962267Y-57669809D01*
X179992029Y-57431714D01*
X180140839Y-57193619D01*
X180393815Y-57074571D01*
X180989053Y-57074571D01*
X181242029Y-56955523D01*
X185631910Y-58026952D02*
X184947386Y-56836476D01*
X184203339Y-58026952D02*
X184515839Y-55526952D01*
X185468220Y-55526952D01*
X185691434Y-55646000D01*
X185795601Y-55765047D01*
X185884886Y-56003142D01*
X185840244Y-56360285D01*
X185691434Y-56598380D01*
X185557505Y-56717428D01*
X185304529Y-56836476D01*
X184352148Y-56836476D01*
X187060482Y-58026952D02*
X186837267Y-57907904D01*
X186733101Y-57788857D01*
X186643815Y-57550761D01*
X186733101Y-56836476D01*
X186881910Y-56598380D01*
X187015839Y-56479333D01*
X187268815Y-56360285D01*
X187625958Y-56360285D01*
X187849172Y-56479333D01*
X187953339Y-56598380D01*
X188042625Y-56836476D01*
X187953339Y-57550761D01*
X187804529Y-57788857D01*
X187670601Y-57907904D01*
X187417624Y-58026952D01*
X187060482Y-58026952D01*
X188935482Y-56360285D02*
X189203339Y-58026952D01*
X189828339Y-56836476D01*
X190155720Y-58026952D01*
X190840244Y-56360285D01*
X195096196Y-55646000D02*
X194872982Y-55526952D01*
X194515839Y-55526952D01*
X194143815Y-55646000D01*
X193875958Y-55884095D01*
X193727148Y-56122190D01*
X193548577Y-56598380D01*
X193503934Y-56955523D01*
X193563458Y-57431714D01*
X193652744Y-57669809D01*
X193861077Y-57907904D01*
X194203339Y-58026952D01*
X194441434Y-58026952D01*
X194813458Y-57907904D01*
X194947386Y-57788857D01*
X195051553Y-56955523D01*
X194575363Y-56955523D01*
X197060482Y-58026952D02*
X197224172Y-56717428D01*
X197134886Y-56479333D01*
X196911672Y-56360285D01*
X196435482Y-56360285D01*
X196182505Y-56479333D01*
X197075363Y-57907904D02*
X196822386Y-58026952D01*
X196227148Y-58026952D01*
X196003934Y-57907904D01*
X195914648Y-57669809D01*
X195944410Y-57431714D01*
X196093220Y-57193619D01*
X196346196Y-57074571D01*
X196941434Y-57074571D01*
X197194410Y-56955523D01*
X198250958Y-58026952D02*
X198459291Y-56360285D01*
X198429529Y-56598380D02*
X198563458Y-56479333D01*
X198816434Y-56360285D01*
X199173577Y-56360285D01*
X199396791Y-56479333D01*
X199486077Y-56717428D01*
X199322386Y-58026952D01*
X199486077Y-56717428D02*
X199634886Y-56479333D01*
X199887863Y-56360285D01*
X200245005Y-56360285D01*
X200468220Y-56479333D01*
X200557505Y-56717428D01*
X200393815Y-58026952D01*
X202551553Y-57907904D02*
X202298577Y-58026952D01*
X201822386Y-58026952D01*
X201599172Y-57907904D01*
X201509886Y-57669809D01*
X201628934Y-56717428D01*
X201777744Y-56479333D01*
X202030720Y-56360285D01*
X202506910Y-56360285D01*
X202730125Y-56479333D01*
X202819410Y-56717428D01*
X202789648Y-56955523D01*
X201569410Y-57193619D01*
D11*
X212142000Y-70604748D02*
X212142000Y-71127252D01*
X213562000Y-70604748D02*
X213562000Y-71127252D01*
X201474000Y-70604748D02*
X201474000Y-71127252D01*
X202894000Y-70604748D02*
X202894000Y-71127252D01*
X198934000Y-44950748D02*
X198934000Y-45473252D01*
X200354000Y-44950748D02*
X200354000Y-45473252D01*
X200966000Y-44950748D02*
X200966000Y-45473252D01*
X202386000Y-44950748D02*
X202386000Y-45473252D01*
X190806000Y-70604748D02*
X190806000Y-71127252D01*
X192226000Y-70604748D02*
X192226000Y-71127252D01*
X202998000Y-44950748D02*
X202998000Y-45473252D01*
X204418000Y-44950748D02*
X204418000Y-45473252D01*
X202371000Y-39056000D02*
X202371000Y-40386000D01*
X201041000Y-39056000D02*
X202371000Y-39056000D01*
X199771000Y-39056000D02*
X199771000Y-41716000D01*
X199771000Y-41716000D02*
X197171000Y-41716000D01*
X199771000Y-39056000D02*
X197171000Y-39056000D01*
X197171000Y-39056000D02*
X197171000Y-41716000D01*
X195422000Y-43150000D02*
X195422000Y-41810000D01*
X196372000Y-43150000D02*
X195422000Y-43150000D01*
X196372000Y-44100000D02*
X196372000Y-43150000D01*
X196372000Y-53370000D02*
X195422000Y-53370000D01*
X196372000Y-52420000D02*
X196372000Y-53370000D01*
X186152000Y-43150000D02*
X187102000Y-43150000D01*
X186152000Y-44100000D02*
X186152000Y-43150000D01*
X186152000Y-53370000D02*
X187102000Y-53370000D01*
X186152000Y-52420000D02*
X186152000Y-53370000D01*
X170525000Y-48660000D02*
X176535000Y-48660000D01*
X172775000Y-55480000D02*
X176535000Y-55480000D01*
X176535000Y-48660000D02*
X176535000Y-49920000D01*
X176535000Y-55480000D02*
X176535000Y-54220000D01*
X158388000Y-43458000D02*
X158388000Y-41958000D01*
X157138000Y-39458000D02*
X152638000Y-39458000D01*
X151388000Y-41958000D02*
X151388000Y-43458000D01*
X152638000Y-45958000D02*
X157138000Y-45958000D01*
X213356000Y-43458000D02*
X213356000Y-41958000D01*
X212106000Y-39458000D02*
X207606000Y-39458000D01*
X206356000Y-41958000D02*
X206356000Y-43458000D01*
X207606000Y-45958000D02*
X212106000Y-45958000D01*
X209730000Y-59386000D02*
X208230000Y-59386000D01*
X205730000Y-60636000D02*
X205730000Y-65136000D01*
X208230000Y-66386000D02*
X209730000Y-66386000D01*
X212230000Y-65136000D02*
X212230000Y-60636000D01*
X200840000Y-59386000D02*
X199340000Y-59386000D01*
X196840000Y-60636000D02*
X196840000Y-65136000D01*
X199340000Y-66386000D02*
X200840000Y-66386000D01*
X203340000Y-65136000D02*
X203340000Y-60636000D01*
X191950000Y-59386000D02*
X190450000Y-59386000D01*
X187950000Y-60636000D02*
X187950000Y-65136000D01*
X190450000Y-66386000D02*
X191950000Y-66386000D01*
X194450000Y-65136000D02*
X194450000Y-60636000D01*
X183060000Y-59386000D02*
X181560000Y-59386000D01*
X179060000Y-60636000D02*
X179060000Y-65136000D01*
X181560000Y-66386000D02*
X183060000Y-66386000D01*
X185560000Y-65136000D02*
X185560000Y-60636000D01*
X174170000Y-59386000D02*
X172670000Y-59386000D01*
X170170000Y-60636000D02*
X170170000Y-65136000D01*
X172670000Y-66386000D02*
X174170000Y-66386000D01*
X176670000Y-65136000D02*
X176670000Y-60636000D01*
X165280000Y-59386000D02*
X163780000Y-59386000D01*
X161280000Y-60636000D02*
X161280000Y-65136000D01*
X163780000Y-66386000D02*
X165280000Y-66386000D01*
X167780000Y-65136000D02*
X167780000Y-60636000D01*
X156390000Y-59386000D02*
X154890000Y-59386000D01*
X152390000Y-60636000D02*
X152390000Y-65136000D01*
X154890000Y-66386000D02*
X156390000Y-66386000D01*
X158890000Y-65136000D02*
X158890000Y-60636000D01*
X158104000Y-49842000D02*
X156904000Y-49842000D01*
X156904000Y-49842000D02*
X156904000Y-54042000D01*
X156904000Y-54042000D02*
X158104000Y-54042000D01*
X164904000Y-49842000D02*
X166104000Y-49842000D01*
X166104000Y-49842000D02*
X166104000Y-54042000D01*
X166104000Y-54042000D02*
X164904000Y-54042000D01*
X157804000Y-49542000D02*
X156604000Y-49542000D01*
X156604000Y-49542000D02*
X156604000Y-50742000D01*
X180138000Y-70604748D02*
X180138000Y-71127252D01*
X181558000Y-70604748D02*
X181558000Y-71127252D01*
X169470000Y-70604748D02*
X169470000Y-71127252D01*
X170890000Y-70604748D02*
X170890000Y-71127252D01*
X158802000Y-70604748D02*
X158802000Y-71127252D01*
X160222000Y-70604748D02*
X160222000Y-71127252D01*
X207462000Y-71372000D02*
X207462000Y-69912000D01*
X210622000Y-71372000D02*
X210622000Y-69212000D01*
X210622000Y-71372000D02*
X209692000Y-71372000D01*
X207462000Y-71372000D02*
X208392000Y-71372000D01*
X196794000Y-71372000D02*
X196794000Y-69912000D01*
X199954000Y-71372000D02*
X199954000Y-69212000D01*
X199954000Y-71372000D02*
X199024000Y-71372000D01*
X196794000Y-71372000D02*
X197724000Y-71372000D01*
X186126000Y-71372000D02*
X186126000Y-69912000D01*
X189286000Y-71372000D02*
X189286000Y-69212000D01*
X189286000Y-71372000D02*
X188356000Y-71372000D01*
X186126000Y-71372000D02*
X187056000Y-71372000D01*
X175458000Y-71372000D02*
X175458000Y-69912000D01*
X178618000Y-71372000D02*
X178618000Y-69212000D01*
X178618000Y-71372000D02*
X177688000Y-71372000D01*
X175458000Y-71372000D02*
X176388000Y-71372000D01*
X164790000Y-71372000D02*
X164790000Y-69912000D01*
X167950000Y-71372000D02*
X167950000Y-69212000D01*
X167950000Y-71372000D02*
X167020000Y-71372000D01*
X164790000Y-71372000D02*
X165720000Y-71372000D01*
X154122000Y-71372000D02*
X154122000Y-69912000D01*
X157282000Y-71372000D02*
X157282000Y-69212000D01*
X157282000Y-71372000D02*
X156352000Y-71372000D01*
X154122000Y-71372000D02*
X155052000Y-71372000D01*
X162119000Y-41716000D02*
X162119000Y-40386000D01*
X163449000Y-41716000D02*
X162119000Y-41716000D01*
X164719000Y-41716000D02*
X164719000Y-39056000D01*
X164719000Y-39056000D02*
X167319000Y-39056000D01*
X164719000Y-41716000D02*
X167319000Y-41716000D01*
X167319000Y-41716000D02*
X167319000Y-39056000D01*
X149900000Y-48260000D02*
X150160000Y-48260000D01*
X152440000Y-48260000D02*
X154210000Y-48260000D01*
X154210000Y-48260000D02*
X154210000Y-48640000D01*
X154210000Y-55880000D02*
X152440000Y-55880000D01*
X150160000Y-55880000D02*
X149900000Y-55880000D01*
X154210000Y-55880000D02*
X154210000Y-55500000D01*
X170882000Y-41589000D02*
X170882000Y-40259000D01*
X172212000Y-41589000D02*
X170882000Y-41589000D01*
X173482000Y-41589000D02*
X173482000Y-38929000D01*
X173482000Y-38929000D02*
X183702000Y-38929000D01*
X173482000Y-41589000D02*
X183702000Y-41589000D01*
X183702000Y-41589000D02*
X183702000Y-38929000D01*
X206418500Y-115380000D02*
X206418500Y-115845000D01*
X206418500Y-112755000D02*
X206418500Y-113220000D01*
X211232979Y-115380429D02*
G75*
G02X206723816Y-115380000I-2254479J1080429D01*
G01*
X211232979Y-113219571D02*
G75*
G03X206723816Y-113220000I-2254479J-1080429D01*
G01*
X211766315Y-115380827D02*
G75*
G02X206418500Y-115844830I-2787815J1080827D01*
G01*
X211766315Y-113219173D02*
G75*
G03X206418500Y-112755170I-2787815J-1080827D01*
G01*
X197528500Y-115380000D02*
X197528500Y-115845000D01*
X197528500Y-112755000D02*
X197528500Y-113220000D01*
X202342979Y-115380429D02*
G75*
G02X197833816Y-115380000I-2254479J1080429D01*
G01*
X202342979Y-113219571D02*
G75*
G03X197833816Y-113220000I-2254479J-1080429D01*
G01*
X202876315Y-115380827D02*
G75*
G02X197528500Y-115844830I-2787815J1080827D01*
G01*
X202876315Y-113219173D02*
G75*
G03X197528500Y-112755170I-2787815J-1080827D01*
G01*
X188638500Y-115380000D02*
X188638500Y-115845000D01*
X188638500Y-112755000D02*
X188638500Y-113220000D01*
X193452979Y-115380429D02*
G75*
G02X188943816Y-115380000I-2254479J1080429D01*
G01*
X193452979Y-113219571D02*
G75*
G03X188943816Y-113220000I-2254479J-1080429D01*
G01*
X193986315Y-115380827D02*
G75*
G02X188638500Y-115844830I-2787815J1080827D01*
G01*
X193986315Y-113219173D02*
G75*
G03X188638500Y-112755170I-2787815J-1080827D01*
G01*
X179748500Y-115380000D02*
X179748500Y-115845000D01*
X179748500Y-112755000D02*
X179748500Y-113220000D01*
X184562979Y-115380429D02*
G75*
G02X180053816Y-115380000I-2254479J1080429D01*
G01*
X184562979Y-113219571D02*
G75*
G03X180053816Y-113220000I-2254479J-1080429D01*
G01*
X185096315Y-115380827D02*
G75*
G02X179748500Y-115844830I-2787815J1080827D01*
G01*
X185096315Y-113219173D02*
G75*
G03X179748500Y-112755170I-2787815J-1080827D01*
G01*
X170858500Y-115380000D02*
X170858500Y-115845000D01*
X170858500Y-112755000D02*
X170858500Y-113220000D01*
X175672979Y-115380429D02*
G75*
G02X171163816Y-115380000I-2254479J1080429D01*
G01*
X175672979Y-113219571D02*
G75*
G03X171163816Y-113220000I-2254479J-1080429D01*
G01*
X176206315Y-115380827D02*
G75*
G02X170858500Y-115844830I-2787815J1080827D01*
G01*
X176206315Y-113219173D02*
G75*
G03X170858500Y-112755170I-2787815J-1080827D01*
G01*
X161968500Y-115380000D02*
X161968500Y-115845000D01*
X161968500Y-112755000D02*
X161968500Y-113220000D01*
X166782979Y-115380429D02*
G75*
G02X162273816Y-115380000I-2254479J1080429D01*
G01*
X166782979Y-113219571D02*
G75*
G03X162273816Y-113220000I-2254479J-1080429D01*
G01*
X167316315Y-115380827D02*
G75*
G02X161968500Y-115844830I-2787815J1080827D01*
G01*
X167316315Y-113219173D02*
G75*
G03X161968500Y-112755170I-2787815J-1080827D01*
G01*
X153078500Y-115380000D02*
X153078500Y-115845000D01*
X153078500Y-112755000D02*
X153078500Y-113220000D01*
X157892979Y-115380429D02*
G75*
G02X153383816Y-115380000I-2254479J1080429D01*
G01*
X157892979Y-113219571D02*
G75*
G03X153383816Y-113220000I-2254479J-1080429D01*
G01*
X158426315Y-115380827D02*
G75*
G02X153078500Y-115844830I-2787815J1080827D01*
G01*
X158426315Y-113219173D02*
G75*
G03X153078500Y-112755170I-2787815J-1080827D01*
G01*
X206418500Y-107760000D02*
X206418500Y-108225000D01*
X206418500Y-105135000D02*
X206418500Y-105600000D01*
X211232979Y-107760429D02*
G75*
G02X206723816Y-107760000I-2254479J1080429D01*
G01*
X211232979Y-105599571D02*
G75*
G03X206723816Y-105600000I-2254479J-1080429D01*
G01*
X211766315Y-107760827D02*
G75*
G02X206418500Y-108224830I-2787815J1080827D01*
G01*
X211766315Y-105599173D02*
G75*
G03X206418500Y-105135170I-2787815J-1080827D01*
G01*
X197528500Y-107760000D02*
X197528500Y-108225000D01*
X197528500Y-105135000D02*
X197528500Y-105600000D01*
X202342979Y-107760429D02*
G75*
G02X197833816Y-107760000I-2254479J1080429D01*
G01*
X202342979Y-105599571D02*
G75*
G03X197833816Y-105600000I-2254479J-1080429D01*
G01*
X202876315Y-107760827D02*
G75*
G02X197528500Y-108224830I-2787815J1080827D01*
G01*
X202876315Y-105599173D02*
G75*
G03X197528500Y-105135170I-2787815J-1080827D01*
G01*
X188638500Y-107760000D02*
X188638500Y-108225000D01*
X188638500Y-105135000D02*
X188638500Y-105600000D01*
X193452979Y-107760429D02*
G75*
G02X188943816Y-107760000I-2254479J1080429D01*
G01*
X193452979Y-105599571D02*
G75*
G03X188943816Y-105600000I-2254479J-1080429D01*
G01*
X193986315Y-107760827D02*
G75*
G02X188638500Y-108224830I-2787815J1080827D01*
G01*
X193986315Y-105599173D02*
G75*
G03X188638500Y-105135170I-2787815J-1080827D01*
G01*
X179748500Y-107760000D02*
X179748500Y-108225000D01*
X179748500Y-105135000D02*
X179748500Y-105600000D01*
X184562979Y-107760429D02*
G75*
G02X180053816Y-107760000I-2254479J1080429D01*
G01*
X184562979Y-105599571D02*
G75*
G03X180053816Y-105600000I-2254479J-1080429D01*
G01*
X185096315Y-107760827D02*
G75*
G02X179748500Y-108224830I-2787815J1080827D01*
G01*
X185096315Y-105599173D02*
G75*
G03X179748500Y-105135170I-2787815J-1080827D01*
G01*
X170858500Y-107760000D02*
X170858500Y-108225000D01*
X170858500Y-105135000D02*
X170858500Y-105600000D01*
X175672979Y-107760429D02*
G75*
G02X171163816Y-107760000I-2254479J1080429D01*
G01*
X175672979Y-105599571D02*
G75*
G03X171163816Y-105600000I-2254479J-1080429D01*
G01*
X176206315Y-107760827D02*
G75*
G02X170858500Y-108224830I-2787815J1080827D01*
G01*
X176206315Y-105599173D02*
G75*
G03X170858500Y-105135170I-2787815J-1080827D01*
G01*
X161968500Y-107760000D02*
X161968500Y-108225000D01*
X161968500Y-105135000D02*
X161968500Y-105600000D01*
X166782979Y-107760429D02*
G75*
G02X162273816Y-107760000I-2254479J1080429D01*
G01*
X166782979Y-105599571D02*
G75*
G03X162273816Y-105600000I-2254479J-1080429D01*
G01*
X167316315Y-107760827D02*
G75*
G02X161968500Y-108224830I-2787815J1080827D01*
G01*
X167316315Y-105599173D02*
G75*
G03X161968500Y-105135170I-2787815J-1080827D01*
G01*
X153078500Y-107760000D02*
X153078500Y-108225000D01*
X153078500Y-105135000D02*
X153078500Y-105600000D01*
X157892979Y-107760429D02*
G75*
G02X153383816Y-107760000I-2254479J1080429D01*
G01*
X157892979Y-105599571D02*
G75*
G03X153383816Y-105600000I-2254479J-1080429D01*
G01*
X158426315Y-107760827D02*
G75*
G02X153078500Y-108224830I-2787815J1080827D01*
G01*
X158426315Y-105599173D02*
G75*
G03X153078500Y-105135170I-2787815J-1080827D01*
G01*
X206418500Y-100140000D02*
X206418500Y-100605000D01*
X206418500Y-97515000D02*
X206418500Y-97980000D01*
X211232979Y-100140429D02*
G75*
G02X206723816Y-100140000I-2254479J1080429D01*
G01*
X211232979Y-97979571D02*
G75*
G03X206723816Y-97980000I-2254479J-1080429D01*
G01*
X211766315Y-100140827D02*
G75*
G02X206418500Y-100604830I-2787815J1080827D01*
G01*
X211766315Y-97979173D02*
G75*
G03X206418500Y-97515170I-2787815J-1080827D01*
G01*
X197528500Y-100140000D02*
X197528500Y-100605000D01*
X197528500Y-97515000D02*
X197528500Y-97980000D01*
X202342979Y-100140429D02*
G75*
G02X197833816Y-100140000I-2254479J1080429D01*
G01*
X202342979Y-97979571D02*
G75*
G03X197833816Y-97980000I-2254479J-1080429D01*
G01*
X202876315Y-100140827D02*
G75*
G02X197528500Y-100604830I-2787815J1080827D01*
G01*
X202876315Y-97979173D02*
G75*
G03X197528500Y-97515170I-2787815J-1080827D01*
G01*
X188638500Y-100140000D02*
X188638500Y-100605000D01*
X188638500Y-97515000D02*
X188638500Y-97980000D01*
X193452979Y-100140429D02*
G75*
G02X188943816Y-100140000I-2254479J1080429D01*
G01*
X193452979Y-97979571D02*
G75*
G03X188943816Y-97980000I-2254479J-1080429D01*
G01*
X193986315Y-100140827D02*
G75*
G02X188638500Y-100604830I-2787815J1080827D01*
G01*
X193986315Y-97979173D02*
G75*
G03X188638500Y-97515170I-2787815J-1080827D01*
G01*
X179748500Y-100140000D02*
X179748500Y-100605000D01*
X179748500Y-97515000D02*
X179748500Y-97980000D01*
X184562979Y-100140429D02*
G75*
G02X180053816Y-100140000I-2254479J1080429D01*
G01*
X184562979Y-97979571D02*
G75*
G03X180053816Y-97980000I-2254479J-1080429D01*
G01*
X185096315Y-100140827D02*
G75*
G02X179748500Y-100604830I-2787815J1080827D01*
G01*
X185096315Y-97979173D02*
G75*
G03X179748500Y-97515170I-2787815J-1080827D01*
G01*
X170858500Y-100140000D02*
X170858500Y-100605000D01*
X170858500Y-97515000D02*
X170858500Y-97980000D01*
X175672979Y-100140429D02*
G75*
G02X171163816Y-100140000I-2254479J1080429D01*
G01*
X175672979Y-97979571D02*
G75*
G03X171163816Y-97980000I-2254479J-1080429D01*
G01*
X176206315Y-100140827D02*
G75*
G02X170858500Y-100604830I-2787815J1080827D01*
G01*
X176206315Y-97979173D02*
G75*
G03X170858500Y-97515170I-2787815J-1080827D01*
G01*
X161968500Y-100140000D02*
X161968500Y-100605000D01*
X161968500Y-97515000D02*
X161968500Y-97980000D01*
X166782979Y-100140429D02*
G75*
G02X162273816Y-100140000I-2254479J1080429D01*
G01*
X166782979Y-97979571D02*
G75*
G03X162273816Y-97980000I-2254479J-1080429D01*
G01*
X167316315Y-100140827D02*
G75*
G02X161968500Y-100604830I-2787815J1080827D01*
G01*
X167316315Y-97979173D02*
G75*
G03X161968500Y-97515170I-2787815J-1080827D01*
G01*
X153078500Y-100140000D02*
X153078500Y-100605000D01*
X153078500Y-97515000D02*
X153078500Y-97980000D01*
X157892979Y-100140429D02*
G75*
G02X153383816Y-100140000I-2254479J1080429D01*
G01*
X157892979Y-97979571D02*
G75*
G03X153383816Y-97980000I-2254479J-1080429D01*
G01*
X158426315Y-100140827D02*
G75*
G02X153078500Y-100604830I-2787815J1080827D01*
G01*
X158426315Y-97979173D02*
G75*
G03X153078500Y-97515170I-2787815J-1080827D01*
G01*
X206418500Y-92520000D02*
X206418500Y-92985000D01*
X206418500Y-89895000D02*
X206418500Y-90360000D01*
X211232979Y-92520429D02*
G75*
G02X206723816Y-92520000I-2254479J1080429D01*
G01*
X211232979Y-90359571D02*
G75*
G03X206723816Y-90360000I-2254479J-1080429D01*
G01*
X211766315Y-92520827D02*
G75*
G02X206418500Y-92984830I-2787815J1080827D01*
G01*
X211766315Y-90359173D02*
G75*
G03X206418500Y-89895170I-2787815J-1080827D01*
G01*
X197528500Y-92520000D02*
X197528500Y-92985000D01*
X197528500Y-89895000D02*
X197528500Y-90360000D01*
X202342979Y-92520429D02*
G75*
G02X197833816Y-92520000I-2254479J1080429D01*
G01*
X202342979Y-90359571D02*
G75*
G03X197833816Y-90360000I-2254479J-1080429D01*
G01*
X202876315Y-92520827D02*
G75*
G02X197528500Y-92984830I-2787815J1080827D01*
G01*
X202876315Y-90359173D02*
G75*
G03X197528500Y-89895170I-2787815J-1080827D01*
G01*
X188638500Y-92520000D02*
X188638500Y-92985000D01*
X188638500Y-89895000D02*
X188638500Y-90360000D01*
X193452979Y-92520429D02*
G75*
G02X188943816Y-92520000I-2254479J1080429D01*
G01*
X193452979Y-90359571D02*
G75*
G03X188943816Y-90360000I-2254479J-1080429D01*
G01*
X193986315Y-92520827D02*
G75*
G02X188638500Y-92984830I-2787815J1080827D01*
G01*
X193986315Y-90359173D02*
G75*
G03X188638500Y-89895170I-2787815J-1080827D01*
G01*
X179748500Y-92520000D02*
X179748500Y-92985000D01*
X179748500Y-89895000D02*
X179748500Y-90360000D01*
X184562979Y-92520429D02*
G75*
G02X180053816Y-92520000I-2254479J1080429D01*
G01*
X184562979Y-90359571D02*
G75*
G03X180053816Y-90360000I-2254479J-1080429D01*
G01*
X185096315Y-92520827D02*
G75*
G02X179748500Y-92984830I-2787815J1080827D01*
G01*
X185096315Y-90359173D02*
G75*
G03X179748500Y-89895170I-2787815J-1080827D01*
G01*
X170858500Y-92520000D02*
X170858500Y-92985000D01*
X170858500Y-89895000D02*
X170858500Y-90360000D01*
X175672979Y-92520429D02*
G75*
G02X171163816Y-92520000I-2254479J1080429D01*
G01*
X175672979Y-90359571D02*
G75*
G03X171163816Y-90360000I-2254479J-1080429D01*
G01*
X176206315Y-92520827D02*
G75*
G02X170858500Y-92984830I-2787815J1080827D01*
G01*
X176206315Y-90359173D02*
G75*
G03X170858500Y-89895170I-2787815J-1080827D01*
G01*
X161968500Y-92520000D02*
X161968500Y-92985000D01*
X161968500Y-89895000D02*
X161968500Y-90360000D01*
X166782979Y-92520429D02*
G75*
G02X162273816Y-92520000I-2254479J1080429D01*
G01*
X166782979Y-90359571D02*
G75*
G03X162273816Y-90360000I-2254479J-1080429D01*
G01*
X167316315Y-92520827D02*
G75*
G02X161968500Y-92984830I-2787815J1080827D01*
G01*
X167316315Y-90359173D02*
G75*
G03X161968500Y-89895170I-2787815J-1080827D01*
G01*
X153078500Y-92520000D02*
X153078500Y-92985000D01*
X153078500Y-89895000D02*
X153078500Y-90360000D01*
X157892979Y-92520429D02*
G75*
G02X153383816Y-92520000I-2254479J1080429D01*
G01*
X157892979Y-90359571D02*
G75*
G03X153383816Y-90360000I-2254479J-1080429D01*
G01*
X158426315Y-92520827D02*
G75*
G02X153078500Y-92984830I-2787815J1080827D01*
G01*
X158426315Y-90359173D02*
G75*
G03X153078500Y-89895170I-2787815J-1080827D01*
G01*
X210522500Y-50990000D02*
X210522500Y-50525000D01*
X210522500Y-53615000D02*
X210522500Y-53150000D01*
X205708021Y-50989571D02*
G75*
G02X210217184Y-50990000I2254479J-1080429D01*
G01*
X205708021Y-53150429D02*
G75*
G03X210217184Y-53150000I2254479J1080429D01*
G01*
X205174685Y-50989173D02*
G75*
G02X210522500Y-50525170I2787815J-1080827D01*
G01*
X205174685Y-53150827D02*
G75*
G03X210522500Y-53614830I2787815J1080827D01*
G01*
X206418500Y-84900000D02*
X206418500Y-85365000D01*
X206418500Y-82275000D02*
X206418500Y-82740000D01*
X211232979Y-84900429D02*
G75*
G02X206723816Y-84900000I-2254479J1080429D01*
G01*
X211232979Y-82739571D02*
G75*
G03X206723816Y-82740000I-2254479J-1080429D01*
G01*
X211766315Y-84900827D02*
G75*
G02X206418500Y-85364830I-2787815J1080827D01*
G01*
X211766315Y-82739173D02*
G75*
G03X206418500Y-82275170I-2787815J-1080827D01*
G01*
X197528500Y-84900000D02*
X197528500Y-85365000D01*
X197528500Y-82275000D02*
X197528500Y-82740000D01*
X202342979Y-84900429D02*
G75*
G02X197833816Y-84900000I-2254479J1080429D01*
G01*
X202342979Y-82739571D02*
G75*
G03X197833816Y-82740000I-2254479J-1080429D01*
G01*
X202876315Y-84900827D02*
G75*
G02X197528500Y-85364830I-2787815J1080827D01*
G01*
X202876315Y-82739173D02*
G75*
G03X197528500Y-82275170I-2787815J-1080827D01*
G01*
X188638500Y-84900000D02*
X188638500Y-85365000D01*
X188638500Y-82275000D02*
X188638500Y-82740000D01*
X193452979Y-84900429D02*
G75*
G02X188943816Y-84900000I-2254479J1080429D01*
G01*
X193452979Y-82739571D02*
G75*
G03X188943816Y-82740000I-2254479J-1080429D01*
G01*
X193986315Y-84900827D02*
G75*
G02X188638500Y-85364830I-2787815J1080827D01*
G01*
X193986315Y-82739173D02*
G75*
G03X188638500Y-82275170I-2787815J-1080827D01*
G01*
X179748500Y-84900000D02*
X179748500Y-85365000D01*
X179748500Y-82275000D02*
X179748500Y-82740000D01*
X184562979Y-84900429D02*
G75*
G02X180053816Y-84900000I-2254479J1080429D01*
G01*
X184562979Y-82739571D02*
G75*
G03X180053816Y-82740000I-2254479J-1080429D01*
G01*
X185096315Y-84900827D02*
G75*
G02X179748500Y-85364830I-2787815J1080827D01*
G01*
X185096315Y-82739173D02*
G75*
G03X179748500Y-82275170I-2787815J-1080827D01*
G01*
X170858500Y-84900000D02*
X170858500Y-85365000D01*
X170858500Y-82275000D02*
X170858500Y-82740000D01*
X175672979Y-84900429D02*
G75*
G02X171163816Y-84900000I-2254479J1080429D01*
G01*
X175672979Y-82739571D02*
G75*
G03X171163816Y-82740000I-2254479J-1080429D01*
G01*
X176206315Y-84900827D02*
G75*
G02X170858500Y-85364830I-2787815J1080827D01*
G01*
X176206315Y-82739173D02*
G75*
G03X170858500Y-82275170I-2787815J-1080827D01*
G01*
X161968500Y-84900000D02*
X161968500Y-85365000D01*
X161968500Y-82275000D02*
X161968500Y-82740000D01*
X166782979Y-84900429D02*
G75*
G02X162273816Y-84900000I-2254479J1080429D01*
G01*
X166782979Y-82739571D02*
G75*
G03X162273816Y-82740000I-2254479J-1080429D01*
G01*
X167316315Y-84900827D02*
G75*
G02X161968500Y-85364830I-2787815J1080827D01*
G01*
X167316315Y-82739173D02*
G75*
G03X161968500Y-82275170I-2787815J-1080827D01*
G01*
X153078500Y-84900000D02*
X153078500Y-85365000D01*
X153078500Y-82275000D02*
X153078500Y-82740000D01*
X157892979Y-84900429D02*
G75*
G02X153383816Y-84900000I-2254479J1080429D01*
G01*
X157892979Y-82739571D02*
G75*
G03X153383816Y-82740000I-2254479J-1080429D01*
G01*
X158426315Y-84900827D02*
G75*
G02X153078500Y-85364830I-2787815J1080827D01*
G01*
X158426315Y-82739173D02*
G75*
G03X153078500Y-82275170I-2787815J-1080827D01*
G01*
X206418500Y-77280000D02*
X206418500Y-77745000D01*
X206418500Y-74655000D02*
X206418500Y-75120000D01*
X211232979Y-77280429D02*
G75*
G02X206723816Y-77280000I-2254479J1080429D01*
G01*
X211232979Y-75119571D02*
G75*
G03X206723816Y-75120000I-2254479J-1080429D01*
G01*
X211766315Y-77280827D02*
G75*
G02X206418500Y-77744830I-2787815J1080827D01*
G01*
X211766315Y-75119173D02*
G75*
G03X206418500Y-74655170I-2787815J-1080827D01*
G01*
X197528500Y-77280000D02*
X197528500Y-77745000D01*
X197528500Y-74655000D02*
X197528500Y-75120000D01*
X202342979Y-77280429D02*
G75*
G02X197833816Y-77280000I-2254479J1080429D01*
G01*
X202342979Y-75119571D02*
G75*
G03X197833816Y-75120000I-2254479J-1080429D01*
G01*
X202876315Y-77280827D02*
G75*
G02X197528500Y-77744830I-2787815J1080827D01*
G01*
X202876315Y-75119173D02*
G75*
G03X197528500Y-74655170I-2787815J-1080827D01*
G01*
X188638500Y-77280000D02*
X188638500Y-77745000D01*
X188638500Y-74655000D02*
X188638500Y-75120000D01*
X193452979Y-77280429D02*
G75*
G02X188943816Y-77280000I-2254479J1080429D01*
G01*
X193452979Y-75119571D02*
G75*
G03X188943816Y-75120000I-2254479J-1080429D01*
G01*
X193986315Y-77280827D02*
G75*
G02X188638500Y-77744830I-2787815J1080827D01*
G01*
X193986315Y-75119173D02*
G75*
G03X188638500Y-74655170I-2787815J-1080827D01*
G01*
X179748500Y-77280000D02*
X179748500Y-77745000D01*
X179748500Y-74655000D02*
X179748500Y-75120000D01*
X184562979Y-77280429D02*
G75*
G02X180053816Y-77280000I-2254479J1080429D01*
G01*
X184562979Y-75119571D02*
G75*
G03X180053816Y-75120000I-2254479J-1080429D01*
G01*
X185096315Y-77280827D02*
G75*
G02X179748500Y-77744830I-2787815J1080827D01*
G01*
X185096315Y-75119173D02*
G75*
G03X179748500Y-74655170I-2787815J-1080827D01*
G01*
X170858500Y-77280000D02*
X170858500Y-77745000D01*
X170858500Y-74655000D02*
X170858500Y-75120000D01*
X175672979Y-77280429D02*
G75*
G02X171163816Y-77280000I-2254479J1080429D01*
G01*
X175672979Y-75119571D02*
G75*
G03X171163816Y-75120000I-2254479J-1080429D01*
G01*
X176206315Y-77280827D02*
G75*
G02X170858500Y-77744830I-2787815J1080827D01*
G01*
X176206315Y-75119173D02*
G75*
G03X170858500Y-74655170I-2787815J-1080827D01*
G01*
X161968500Y-77280000D02*
X161968500Y-77745000D01*
X161968500Y-74655000D02*
X161968500Y-75120000D01*
X166782979Y-77280429D02*
G75*
G02X162273816Y-77280000I-2254479J1080429D01*
G01*
X166782979Y-75119571D02*
G75*
G03X162273816Y-75120000I-2254479J-1080429D01*
G01*
X167316315Y-77280827D02*
G75*
G02X161968500Y-77744830I-2787815J1080827D01*
G01*
X167316315Y-75119173D02*
G75*
G03X161968500Y-74655170I-2787815J-1080827D01*
G01*
X153078500Y-77280000D02*
X153078500Y-77745000D01*
X153078500Y-74655000D02*
X153078500Y-75120000D01*
X157892979Y-77280429D02*
G75*
G02X153383816Y-77280000I-2254479J1080429D01*
G01*
X157892979Y-75119571D02*
G75*
G03X153383816Y-75120000I-2254479J-1080429D01*
G01*
X158426315Y-77280827D02*
G75*
G02X153078500Y-77744830I-2787815J1080827D01*
G01*
X158426315Y-75119173D02*
G75*
G03X153078500Y-74655170I-2787815J-1080827D01*
G01*
X161282748Y-48462000D02*
X161805252Y-48462000D01*
X161282748Y-47042000D02*
X161805252Y-47042000D01*
D12*
X211780380Y-71508857D02*
X211304190Y-71842190D01*
X211780380Y-72080285D02*
X210780380Y-72080285D01*
X210780380Y-71699333D01*
X210828000Y-71604095D01*
X210875619Y-71556476D01*
X210970857Y-71508857D01*
X211113714Y-71508857D01*
X211208952Y-71556476D01*
X211256571Y-71604095D01*
X211304190Y-71699333D01*
X211304190Y-72080285D01*
X210780380Y-71175523D02*
X210780380Y-70556476D01*
X211161333Y-70889809D01*
X211161333Y-70746952D01*
X211208952Y-70651714D01*
X211256571Y-70604095D01*
X211351809Y-70556476D01*
X211589904Y-70556476D01*
X211685142Y-70604095D01*
X211732761Y-70651714D01*
X211780380Y-70746952D01*
X211780380Y-71032666D01*
X211732761Y-71127904D01*
X211685142Y-71175523D01*
X210780380Y-69937428D02*
X210780380Y-69842190D01*
X210828000Y-69746952D01*
X210875619Y-69699333D01*
X210970857Y-69651714D01*
X211161333Y-69604095D01*
X211399428Y-69604095D01*
X211589904Y-69651714D01*
X211685142Y-69699333D01*
X211732761Y-69746952D01*
X211780380Y-69842190D01*
X211780380Y-69937428D01*
X211732761Y-70032666D01*
X211685142Y-70080285D01*
X211589904Y-70127904D01*
X211399428Y-70175523D01*
X211161333Y-70175523D01*
X210970857Y-70127904D01*
X210875619Y-70080285D01*
X210828000Y-70032666D01*
X210780380Y-69937428D01*
X201112380Y-71508857D02*
X200636190Y-71842190D01*
X201112380Y-72080285D02*
X200112380Y-72080285D01*
X200112380Y-71699333D01*
X200160000Y-71604095D01*
X200207619Y-71556476D01*
X200302857Y-71508857D01*
X200445714Y-71508857D01*
X200540952Y-71556476D01*
X200588571Y-71604095D01*
X200636190Y-71699333D01*
X200636190Y-72080285D01*
X200207619Y-71127904D02*
X200160000Y-71080285D01*
X200112380Y-70985047D01*
X200112380Y-70746952D01*
X200160000Y-70651714D01*
X200207619Y-70604095D01*
X200302857Y-70556476D01*
X200398095Y-70556476D01*
X200540952Y-70604095D01*
X201112380Y-71175523D01*
X201112380Y-70556476D01*
X201112380Y-70080285D02*
X201112380Y-69889809D01*
X201064761Y-69794571D01*
X201017142Y-69746952D01*
X200874285Y-69651714D01*
X200683809Y-69604095D01*
X200302857Y-69604095D01*
X200207619Y-69651714D01*
X200160000Y-69699333D01*
X200112380Y-69794571D01*
X200112380Y-69985047D01*
X200160000Y-70080285D01*
X200207619Y-70127904D01*
X200302857Y-70175523D01*
X200540952Y-70175523D01*
X200636190Y-70127904D01*
X200683809Y-70080285D01*
X200731428Y-69985047D01*
X200731428Y-69794571D01*
X200683809Y-69699333D01*
X200636190Y-69651714D01*
X200540952Y-69604095D01*
X200096380Y-49410857D02*
X199620190Y-49744190D01*
X200096380Y-49982285D02*
X199096380Y-49982285D01*
X199096380Y-49601333D01*
X199144000Y-49506095D01*
X199191619Y-49458476D01*
X199286857Y-49410857D01*
X199429714Y-49410857D01*
X199524952Y-49458476D01*
X199572571Y-49506095D01*
X199620190Y-49601333D01*
X199620190Y-49982285D01*
X199191619Y-49029904D02*
X199144000Y-48982285D01*
X199096380Y-48887047D01*
X199096380Y-48648952D01*
X199144000Y-48553714D01*
X199191619Y-48506095D01*
X199286857Y-48458476D01*
X199382095Y-48458476D01*
X199524952Y-48506095D01*
X200096380Y-49077523D01*
X200096380Y-48458476D01*
X199524952Y-47887047D02*
X199477333Y-47982285D01*
X199429714Y-48029904D01*
X199334476Y-48077523D01*
X199286857Y-48077523D01*
X199191619Y-48029904D01*
X199144000Y-47982285D01*
X199096380Y-47887047D01*
X199096380Y-47696571D01*
X199144000Y-47601333D01*
X199191619Y-47553714D01*
X199286857Y-47506095D01*
X199334476Y-47506095D01*
X199429714Y-47553714D01*
X199477333Y-47601333D01*
X199524952Y-47696571D01*
X199524952Y-47887047D01*
X199572571Y-47982285D01*
X199620190Y-48029904D01*
X199715428Y-48077523D01*
X199905904Y-48077523D01*
X200001142Y-48029904D01*
X200048761Y-47982285D01*
X200096380Y-47887047D01*
X200096380Y-47696571D01*
X200048761Y-47601333D01*
X200001142Y-47553714D01*
X199905904Y-47506095D01*
X199715428Y-47506095D01*
X199620190Y-47553714D01*
X199572571Y-47601333D01*
X199524952Y-47696571D01*
X202128380Y-49410857D02*
X201652190Y-49744190D01*
X202128380Y-49982285D02*
X201128380Y-49982285D01*
X201128380Y-49601333D01*
X201176000Y-49506095D01*
X201223619Y-49458476D01*
X201318857Y-49410857D01*
X201461714Y-49410857D01*
X201556952Y-49458476D01*
X201604571Y-49506095D01*
X201652190Y-49601333D01*
X201652190Y-49982285D01*
X201223619Y-49029904D02*
X201176000Y-48982285D01*
X201128380Y-48887047D01*
X201128380Y-48648952D01*
X201176000Y-48553714D01*
X201223619Y-48506095D01*
X201318857Y-48458476D01*
X201414095Y-48458476D01*
X201556952Y-48506095D01*
X202128380Y-49077523D01*
X202128380Y-48458476D01*
X201128380Y-48125142D02*
X201128380Y-47458476D01*
X202128380Y-47887047D01*
X190444380Y-71508857D02*
X189968190Y-71842190D01*
X190444380Y-72080285D02*
X189444380Y-72080285D01*
X189444380Y-71699333D01*
X189492000Y-71604095D01*
X189539619Y-71556476D01*
X189634857Y-71508857D01*
X189777714Y-71508857D01*
X189872952Y-71556476D01*
X189920571Y-71604095D01*
X189968190Y-71699333D01*
X189968190Y-72080285D01*
X189539619Y-71127904D02*
X189492000Y-71080285D01*
X189444380Y-70985047D01*
X189444380Y-70746952D01*
X189492000Y-70651714D01*
X189539619Y-70604095D01*
X189634857Y-70556476D01*
X189730095Y-70556476D01*
X189872952Y-70604095D01*
X190444380Y-71175523D01*
X190444380Y-70556476D01*
X189444380Y-69699333D02*
X189444380Y-69889809D01*
X189492000Y-69985047D01*
X189539619Y-70032666D01*
X189682476Y-70127904D01*
X189872952Y-70175523D01*
X190253904Y-70175523D01*
X190349142Y-70127904D01*
X190396761Y-70080285D01*
X190444380Y-69985047D01*
X190444380Y-69794571D01*
X190396761Y-69699333D01*
X190349142Y-69651714D01*
X190253904Y-69604095D01*
X190015809Y-69604095D01*
X189920571Y-69651714D01*
X189872952Y-69699333D01*
X189825333Y-69794571D01*
X189825333Y-69985047D01*
X189872952Y-70080285D01*
X189920571Y-70127904D01*
X190015809Y-70175523D01*
X204160380Y-49410857D02*
X203684190Y-49744190D01*
X204160380Y-49982285D02*
X203160380Y-49982285D01*
X203160380Y-49601333D01*
X203208000Y-49506095D01*
X203255619Y-49458476D01*
X203350857Y-49410857D01*
X203493714Y-49410857D01*
X203588952Y-49458476D01*
X203636571Y-49506095D01*
X203684190Y-49601333D01*
X203684190Y-49982285D01*
X203255619Y-49029904D02*
X203208000Y-48982285D01*
X203160380Y-48887047D01*
X203160380Y-48648952D01*
X203208000Y-48553714D01*
X203255619Y-48506095D01*
X203350857Y-48458476D01*
X203446095Y-48458476D01*
X203588952Y-48506095D01*
X204160380Y-49077523D01*
X204160380Y-48458476D01*
X203160380Y-47553714D02*
X203160380Y-48029904D01*
X203636571Y-48077523D01*
X203588952Y-48029904D01*
X203541333Y-47934666D01*
X203541333Y-47696571D01*
X203588952Y-47601333D01*
X203636571Y-47553714D01*
X203731809Y-47506095D01*
X203969904Y-47506095D01*
X204065142Y-47553714D01*
X204112761Y-47601333D01*
X204160380Y-47696571D01*
X204160380Y-47934666D01*
X204112761Y-48029904D01*
X204065142Y-48077523D01*
X202823380Y-40719333D02*
X203537666Y-40719333D01*
X203680523Y-40766952D01*
X203775761Y-40862190D01*
X203823380Y-41005047D01*
X203823380Y-41100285D01*
X202823380Y-40338380D02*
X202823380Y-39719333D01*
X203204333Y-40052666D01*
X203204333Y-39909809D01*
X203251952Y-39814571D01*
X203299571Y-39766952D01*
X203394809Y-39719333D01*
X203632904Y-39719333D01*
X203728142Y-39766952D01*
X203775761Y-39814571D01*
X203823380Y-39909809D01*
X203823380Y-40195523D01*
X203775761Y-40290761D01*
X203728142Y-40338380D01*
X184872380Y-43941904D02*
X185681904Y-43941904D01*
X185777142Y-43894285D01*
X185824761Y-43846666D01*
X185872380Y-43751428D01*
X185872380Y-43560952D01*
X185824761Y-43465714D01*
X185777142Y-43418095D01*
X185681904Y-43370476D01*
X184872380Y-43370476D01*
X184967619Y-42941904D02*
X184920000Y-42894285D01*
X184872380Y-42799047D01*
X184872380Y-42560952D01*
X184920000Y-42465714D01*
X184967619Y-42418095D01*
X185062857Y-42370476D01*
X185158095Y-42370476D01*
X185300952Y-42418095D01*
X185872380Y-42989523D01*
X185872380Y-42370476D01*
X175220380Y-55117904D02*
X176029904Y-55117904D01*
X176125142Y-55070285D01*
X176172761Y-55022666D01*
X176220380Y-54927428D01*
X176220380Y-54736952D01*
X176172761Y-54641714D01*
X176125142Y-54594095D01*
X176029904Y-54546476D01*
X175220380Y-54546476D01*
X176220380Y-53546476D02*
X176220380Y-54117904D01*
X176220380Y-53832190D02*
X175220380Y-53832190D01*
X175363238Y-53927428D01*
X175458476Y-54022666D01*
X175506095Y-54117904D01*
X155292761Y-44481523D02*
X155340380Y-44338666D01*
X155340380Y-44100571D01*
X155292761Y-44005333D01*
X155245142Y-43957714D01*
X155149904Y-43910095D01*
X155054666Y-43910095D01*
X154959428Y-43957714D01*
X154911809Y-44005333D01*
X154864190Y-44100571D01*
X154816571Y-44291047D01*
X154768952Y-44386285D01*
X154721333Y-44433904D01*
X154626095Y-44481523D01*
X154530857Y-44481523D01*
X154435619Y-44433904D01*
X154388000Y-44386285D01*
X154340380Y-44291047D01*
X154340380Y-44052952D01*
X154388000Y-43910095D01*
X154340380Y-43576761D02*
X155340380Y-43338666D01*
X154626095Y-43148190D01*
X155340380Y-42957714D01*
X154340380Y-42719619D01*
X155340380Y-41814857D02*
X155340380Y-42386285D01*
X155340380Y-42100571D02*
X154340380Y-42100571D01*
X154483238Y-42195809D01*
X154578476Y-42291047D01*
X154626095Y-42386285D01*
X154340380Y-41195809D02*
X154340380Y-41100571D01*
X154388000Y-41005333D01*
X154435619Y-40957714D01*
X154530857Y-40910095D01*
X154721333Y-40862476D01*
X154959428Y-40862476D01*
X155149904Y-40910095D01*
X155245142Y-40957714D01*
X155292761Y-41005333D01*
X155340380Y-41100571D01*
X155340380Y-41195809D01*
X155292761Y-41291047D01*
X155245142Y-41338666D01*
X155149904Y-41386285D01*
X154959428Y-41433904D01*
X154721333Y-41433904D01*
X154530857Y-41386285D01*
X154435619Y-41338666D01*
X154388000Y-41291047D01*
X154340380Y-41195809D01*
X210260761Y-44005333D02*
X210308380Y-43862476D01*
X210308380Y-43624380D01*
X210260761Y-43529142D01*
X210213142Y-43481523D01*
X210117904Y-43433904D01*
X210022666Y-43433904D01*
X209927428Y-43481523D01*
X209879809Y-43529142D01*
X209832190Y-43624380D01*
X209784571Y-43814857D01*
X209736952Y-43910095D01*
X209689333Y-43957714D01*
X209594095Y-44005333D01*
X209498857Y-44005333D01*
X209403619Y-43957714D01*
X209356000Y-43910095D01*
X209308380Y-43814857D01*
X209308380Y-43576761D01*
X209356000Y-43433904D01*
X209308380Y-43100571D02*
X210308380Y-42862476D01*
X209594095Y-42672000D01*
X210308380Y-42481523D01*
X209308380Y-42243428D01*
X210308380Y-41814857D02*
X210308380Y-41624380D01*
X210260761Y-41529142D01*
X210213142Y-41481523D01*
X210070285Y-41386285D01*
X209879809Y-41338666D01*
X209498857Y-41338666D01*
X209403619Y-41386285D01*
X209356000Y-41433904D01*
X209308380Y-41529142D01*
X209308380Y-41719619D01*
X209356000Y-41814857D01*
X209403619Y-41862476D01*
X209498857Y-41910095D01*
X209736952Y-41910095D01*
X209832190Y-41862476D01*
X209879809Y-41814857D01*
X209927428Y-41719619D01*
X209927428Y-41529142D01*
X209879809Y-41433904D01*
X209832190Y-41386285D01*
X209736952Y-41338666D01*
X207166761Y-64219333D02*
X207214380Y-64076476D01*
X207214380Y-63838380D01*
X207166761Y-63743142D01*
X207119142Y-63695523D01*
X207023904Y-63647904D01*
X206928666Y-63647904D01*
X206833428Y-63695523D01*
X206785809Y-63743142D01*
X206738190Y-63838380D01*
X206690571Y-64028857D01*
X206642952Y-64124095D01*
X206595333Y-64171714D01*
X206500095Y-64219333D01*
X206404857Y-64219333D01*
X206309619Y-64171714D01*
X206262000Y-64124095D01*
X206214380Y-64028857D01*
X206214380Y-63790761D01*
X206262000Y-63647904D01*
X206214380Y-63314571D02*
X207214380Y-63076476D01*
X206500095Y-62886000D01*
X207214380Y-62695523D01*
X206214380Y-62457428D01*
X206642952Y-61933619D02*
X206595333Y-62028857D01*
X206547714Y-62076476D01*
X206452476Y-62124095D01*
X206404857Y-62124095D01*
X206309619Y-62076476D01*
X206262000Y-62028857D01*
X206214380Y-61933619D01*
X206214380Y-61743142D01*
X206262000Y-61647904D01*
X206309619Y-61600285D01*
X206404857Y-61552666D01*
X206452476Y-61552666D01*
X206547714Y-61600285D01*
X206595333Y-61647904D01*
X206642952Y-61743142D01*
X206642952Y-61933619D01*
X206690571Y-62028857D01*
X206738190Y-62076476D01*
X206833428Y-62124095D01*
X207023904Y-62124095D01*
X207119142Y-62076476D01*
X207166761Y-62028857D01*
X207214380Y-61933619D01*
X207214380Y-61743142D01*
X207166761Y-61647904D01*
X207119142Y-61600285D01*
X207023904Y-61552666D01*
X206833428Y-61552666D01*
X206738190Y-61600285D01*
X206690571Y-61647904D01*
X206642952Y-61743142D01*
X198276761Y-64219333D02*
X198324380Y-64076476D01*
X198324380Y-63838380D01*
X198276761Y-63743142D01*
X198229142Y-63695523D01*
X198133904Y-63647904D01*
X198038666Y-63647904D01*
X197943428Y-63695523D01*
X197895809Y-63743142D01*
X197848190Y-63838380D01*
X197800571Y-64028857D01*
X197752952Y-64124095D01*
X197705333Y-64171714D01*
X197610095Y-64219333D01*
X197514857Y-64219333D01*
X197419619Y-64171714D01*
X197372000Y-64124095D01*
X197324380Y-64028857D01*
X197324380Y-63790761D01*
X197372000Y-63647904D01*
X197324380Y-63314571D02*
X198324380Y-63076476D01*
X197610095Y-62886000D01*
X198324380Y-62695523D01*
X197324380Y-62457428D01*
X197324380Y-62171714D02*
X197324380Y-61505047D01*
X198324380Y-61933619D01*
X189386761Y-64219333D02*
X189434380Y-64076476D01*
X189434380Y-63838380D01*
X189386761Y-63743142D01*
X189339142Y-63695523D01*
X189243904Y-63647904D01*
X189148666Y-63647904D01*
X189053428Y-63695523D01*
X189005809Y-63743142D01*
X188958190Y-63838380D01*
X188910571Y-64028857D01*
X188862952Y-64124095D01*
X188815333Y-64171714D01*
X188720095Y-64219333D01*
X188624857Y-64219333D01*
X188529619Y-64171714D01*
X188482000Y-64124095D01*
X188434380Y-64028857D01*
X188434380Y-63790761D01*
X188482000Y-63647904D01*
X188434380Y-63314571D02*
X189434380Y-63076476D01*
X188720095Y-62886000D01*
X189434380Y-62695523D01*
X188434380Y-62457428D01*
X188434380Y-61647904D02*
X188434380Y-61838380D01*
X188482000Y-61933619D01*
X188529619Y-61981238D01*
X188672476Y-62076476D01*
X188862952Y-62124095D01*
X189243904Y-62124095D01*
X189339142Y-62076476D01*
X189386761Y-62028857D01*
X189434380Y-61933619D01*
X189434380Y-61743142D01*
X189386761Y-61647904D01*
X189339142Y-61600285D01*
X189243904Y-61552666D01*
X189005809Y-61552666D01*
X188910571Y-61600285D01*
X188862952Y-61647904D01*
X188815333Y-61743142D01*
X188815333Y-61933619D01*
X188862952Y-62028857D01*
X188910571Y-62076476D01*
X189005809Y-62124095D01*
X180496761Y-64219333D02*
X180544380Y-64076476D01*
X180544380Y-63838380D01*
X180496761Y-63743142D01*
X180449142Y-63695523D01*
X180353904Y-63647904D01*
X180258666Y-63647904D01*
X180163428Y-63695523D01*
X180115809Y-63743142D01*
X180068190Y-63838380D01*
X180020571Y-64028857D01*
X179972952Y-64124095D01*
X179925333Y-64171714D01*
X179830095Y-64219333D01*
X179734857Y-64219333D01*
X179639619Y-64171714D01*
X179592000Y-64124095D01*
X179544380Y-64028857D01*
X179544380Y-63790761D01*
X179592000Y-63647904D01*
X179544380Y-63314571D02*
X180544380Y-63076476D01*
X179830095Y-62886000D01*
X180544380Y-62695523D01*
X179544380Y-62457428D01*
X179544380Y-61600285D02*
X179544380Y-62076476D01*
X180020571Y-62124095D01*
X179972952Y-62076476D01*
X179925333Y-61981238D01*
X179925333Y-61743142D01*
X179972952Y-61647904D01*
X180020571Y-61600285D01*
X180115809Y-61552666D01*
X180353904Y-61552666D01*
X180449142Y-61600285D01*
X180496761Y-61647904D01*
X180544380Y-61743142D01*
X180544380Y-61981238D01*
X180496761Y-62076476D01*
X180449142Y-62124095D01*
X171606761Y-64219333D02*
X171654380Y-64076476D01*
X171654380Y-63838380D01*
X171606761Y-63743142D01*
X171559142Y-63695523D01*
X171463904Y-63647904D01*
X171368666Y-63647904D01*
X171273428Y-63695523D01*
X171225809Y-63743142D01*
X171178190Y-63838380D01*
X171130571Y-64028857D01*
X171082952Y-64124095D01*
X171035333Y-64171714D01*
X170940095Y-64219333D01*
X170844857Y-64219333D01*
X170749619Y-64171714D01*
X170702000Y-64124095D01*
X170654380Y-64028857D01*
X170654380Y-63790761D01*
X170702000Y-63647904D01*
X170654380Y-63314571D02*
X171654380Y-63076476D01*
X170940095Y-62886000D01*
X171654380Y-62695523D01*
X170654380Y-62457428D01*
X170987714Y-61647904D02*
X171654380Y-61647904D01*
X170606761Y-61886000D02*
X171321047Y-62124095D01*
X171321047Y-61505047D01*
X162716761Y-64219333D02*
X162764380Y-64076476D01*
X162764380Y-63838380D01*
X162716761Y-63743142D01*
X162669142Y-63695523D01*
X162573904Y-63647904D01*
X162478666Y-63647904D01*
X162383428Y-63695523D01*
X162335809Y-63743142D01*
X162288190Y-63838380D01*
X162240571Y-64028857D01*
X162192952Y-64124095D01*
X162145333Y-64171714D01*
X162050095Y-64219333D01*
X161954857Y-64219333D01*
X161859619Y-64171714D01*
X161812000Y-64124095D01*
X161764380Y-64028857D01*
X161764380Y-63790761D01*
X161812000Y-63647904D01*
X161764380Y-63314571D02*
X162764380Y-63076476D01*
X162050095Y-62886000D01*
X162764380Y-62695523D01*
X161764380Y-62457428D01*
X161764380Y-62171714D02*
X161764380Y-61552666D01*
X162145333Y-61886000D01*
X162145333Y-61743142D01*
X162192952Y-61647904D01*
X162240571Y-61600285D01*
X162335809Y-61552666D01*
X162573904Y-61552666D01*
X162669142Y-61600285D01*
X162716761Y-61647904D01*
X162764380Y-61743142D01*
X162764380Y-62028857D01*
X162716761Y-62124095D01*
X162669142Y-62171714D01*
X153826761Y-64219333D02*
X153874380Y-64076476D01*
X153874380Y-63838380D01*
X153826761Y-63743142D01*
X153779142Y-63695523D01*
X153683904Y-63647904D01*
X153588666Y-63647904D01*
X153493428Y-63695523D01*
X153445809Y-63743142D01*
X153398190Y-63838380D01*
X153350571Y-64028857D01*
X153302952Y-64124095D01*
X153255333Y-64171714D01*
X153160095Y-64219333D01*
X153064857Y-64219333D01*
X152969619Y-64171714D01*
X152922000Y-64124095D01*
X152874380Y-64028857D01*
X152874380Y-63790761D01*
X152922000Y-63647904D01*
X152874380Y-63314571D02*
X153874380Y-63076476D01*
X153160095Y-62886000D01*
X153874380Y-62695523D01*
X152874380Y-62457428D01*
X152969619Y-62124095D02*
X152922000Y-62076476D01*
X152874380Y-61981238D01*
X152874380Y-61743142D01*
X152922000Y-61647904D01*
X152969619Y-61600285D01*
X153064857Y-61552666D01*
X153160095Y-61552666D01*
X153302952Y-61600285D01*
X153874380Y-62171714D01*
X153874380Y-61552666D01*
X167536761Y-53149333D02*
X167584380Y-53006476D01*
X167584380Y-52768380D01*
X167536761Y-52673142D01*
X167489142Y-52625523D01*
X167393904Y-52577904D01*
X167298666Y-52577904D01*
X167203428Y-52625523D01*
X167155809Y-52673142D01*
X167108190Y-52768380D01*
X167060571Y-52958857D01*
X167012952Y-53054095D01*
X166965333Y-53101714D01*
X166870095Y-53149333D01*
X166774857Y-53149333D01*
X166679619Y-53101714D01*
X166632000Y-53054095D01*
X166584380Y-52958857D01*
X166584380Y-52720761D01*
X166632000Y-52577904D01*
X166584380Y-52244571D02*
X167584380Y-52006476D01*
X166870095Y-51816000D01*
X167584380Y-51625523D01*
X166584380Y-51387428D01*
X167584380Y-50482666D02*
X167584380Y-51054095D01*
X167584380Y-50768380D02*
X166584380Y-50768380D01*
X166727238Y-50863619D01*
X166822476Y-50958857D01*
X166870095Y-51054095D01*
X179776380Y-71508857D02*
X179300190Y-71842190D01*
X179776380Y-72080285D02*
X178776380Y-72080285D01*
X178776380Y-71699333D01*
X178824000Y-71604095D01*
X178871619Y-71556476D01*
X178966857Y-71508857D01*
X179109714Y-71508857D01*
X179204952Y-71556476D01*
X179252571Y-71604095D01*
X179300190Y-71699333D01*
X179300190Y-72080285D01*
X178871619Y-71127904D02*
X178824000Y-71080285D01*
X178776380Y-70985047D01*
X178776380Y-70746952D01*
X178824000Y-70651714D01*
X178871619Y-70604095D01*
X178966857Y-70556476D01*
X179062095Y-70556476D01*
X179204952Y-70604095D01*
X179776380Y-71175523D01*
X179776380Y-70556476D01*
X179109714Y-69699333D02*
X179776380Y-69699333D01*
X178728761Y-69937428D02*
X179443047Y-70175523D01*
X179443047Y-69556476D01*
X169108380Y-71508857D02*
X168632190Y-71842190D01*
X169108380Y-72080285D02*
X168108380Y-72080285D01*
X168108380Y-71699333D01*
X168156000Y-71604095D01*
X168203619Y-71556476D01*
X168298857Y-71508857D01*
X168441714Y-71508857D01*
X168536952Y-71556476D01*
X168584571Y-71604095D01*
X168632190Y-71699333D01*
X168632190Y-72080285D01*
X168203619Y-71127904D02*
X168156000Y-71080285D01*
X168108380Y-70985047D01*
X168108380Y-70746952D01*
X168156000Y-70651714D01*
X168203619Y-70604095D01*
X168298857Y-70556476D01*
X168394095Y-70556476D01*
X168536952Y-70604095D01*
X169108380Y-71175523D01*
X169108380Y-70556476D01*
X168108380Y-70223142D02*
X168108380Y-69604095D01*
X168489333Y-69937428D01*
X168489333Y-69794571D01*
X168536952Y-69699333D01*
X168584571Y-69651714D01*
X168679809Y-69604095D01*
X168917904Y-69604095D01*
X169013142Y-69651714D01*
X169060761Y-69699333D01*
X169108380Y-69794571D01*
X169108380Y-70080285D01*
X169060761Y-70175523D01*
X169013142Y-70223142D01*
X158440380Y-71508857D02*
X157964190Y-71842190D01*
X158440380Y-72080285D02*
X157440380Y-72080285D01*
X157440380Y-71699333D01*
X157488000Y-71604095D01*
X157535619Y-71556476D01*
X157630857Y-71508857D01*
X157773714Y-71508857D01*
X157868952Y-71556476D01*
X157916571Y-71604095D01*
X157964190Y-71699333D01*
X157964190Y-72080285D01*
X157535619Y-71127904D02*
X157488000Y-71080285D01*
X157440380Y-70985047D01*
X157440380Y-70746952D01*
X157488000Y-70651714D01*
X157535619Y-70604095D01*
X157630857Y-70556476D01*
X157726095Y-70556476D01*
X157868952Y-70604095D01*
X158440380Y-71175523D01*
X158440380Y-70556476D01*
X157535619Y-70175523D02*
X157488000Y-70127904D01*
X157440380Y-70032666D01*
X157440380Y-69794571D01*
X157488000Y-69699333D01*
X157535619Y-69651714D01*
X157630857Y-69604095D01*
X157726095Y-69604095D01*
X157868952Y-69651714D01*
X158440380Y-70223142D01*
X158440380Y-69604095D01*
X207303619Y-70199238D02*
X207256000Y-70294476D01*
X207160761Y-70389714D01*
X207017904Y-70532571D01*
X206970285Y-70627809D01*
X206970285Y-70723047D01*
X207208380Y-70675428D02*
X207160761Y-70770666D01*
X207065523Y-70865904D01*
X206875047Y-70913523D01*
X206541714Y-70913523D01*
X206351238Y-70865904D01*
X206256000Y-70770666D01*
X206208380Y-70675428D01*
X206208380Y-70484952D01*
X206256000Y-70389714D01*
X206351238Y-70294476D01*
X206541714Y-70246857D01*
X206875047Y-70246857D01*
X207065523Y-70294476D01*
X207160761Y-70389714D01*
X207208380Y-70484952D01*
X207208380Y-70675428D01*
X206208380Y-69389714D02*
X206208380Y-69580190D01*
X206256000Y-69675428D01*
X206303619Y-69723047D01*
X206446476Y-69818285D01*
X206636952Y-69865904D01*
X207017904Y-69865904D01*
X207113142Y-69818285D01*
X207160761Y-69770666D01*
X207208380Y-69675428D01*
X207208380Y-69484952D01*
X207160761Y-69389714D01*
X207113142Y-69342095D01*
X207017904Y-69294476D01*
X206779809Y-69294476D01*
X206684571Y-69342095D01*
X206636952Y-69389714D01*
X206589333Y-69484952D01*
X206589333Y-69675428D01*
X206636952Y-69770666D01*
X206684571Y-69818285D01*
X206779809Y-69865904D01*
X196635619Y-70199238D02*
X196588000Y-70294476D01*
X196492761Y-70389714D01*
X196349904Y-70532571D01*
X196302285Y-70627809D01*
X196302285Y-70723047D01*
X196540380Y-70675428D02*
X196492761Y-70770666D01*
X196397523Y-70865904D01*
X196207047Y-70913523D01*
X195873714Y-70913523D01*
X195683238Y-70865904D01*
X195588000Y-70770666D01*
X195540380Y-70675428D01*
X195540380Y-70484952D01*
X195588000Y-70389714D01*
X195683238Y-70294476D01*
X195873714Y-70246857D01*
X196207047Y-70246857D01*
X196397523Y-70294476D01*
X196492761Y-70389714D01*
X196540380Y-70484952D01*
X196540380Y-70675428D01*
X195540380Y-69342095D02*
X195540380Y-69818285D01*
X196016571Y-69865904D01*
X195968952Y-69818285D01*
X195921333Y-69723047D01*
X195921333Y-69484952D01*
X195968952Y-69389714D01*
X196016571Y-69342095D01*
X196111809Y-69294476D01*
X196349904Y-69294476D01*
X196445142Y-69342095D01*
X196492761Y-69389714D01*
X196540380Y-69484952D01*
X196540380Y-69723047D01*
X196492761Y-69818285D01*
X196445142Y-69865904D01*
X185967619Y-70199238D02*
X185920000Y-70294476D01*
X185824761Y-70389714D01*
X185681904Y-70532571D01*
X185634285Y-70627809D01*
X185634285Y-70723047D01*
X185872380Y-70675428D02*
X185824761Y-70770666D01*
X185729523Y-70865904D01*
X185539047Y-70913523D01*
X185205714Y-70913523D01*
X185015238Y-70865904D01*
X184920000Y-70770666D01*
X184872380Y-70675428D01*
X184872380Y-70484952D01*
X184920000Y-70389714D01*
X185015238Y-70294476D01*
X185205714Y-70246857D01*
X185539047Y-70246857D01*
X185729523Y-70294476D01*
X185824761Y-70389714D01*
X185872380Y-70484952D01*
X185872380Y-70675428D01*
X185205714Y-69389714D02*
X185872380Y-69389714D01*
X184824761Y-69627809D02*
X185539047Y-69865904D01*
X185539047Y-69246857D01*
X175299619Y-70199238D02*
X175252000Y-70294476D01*
X175156761Y-70389714D01*
X175013904Y-70532571D01*
X174966285Y-70627809D01*
X174966285Y-70723047D01*
X175204380Y-70675428D02*
X175156761Y-70770666D01*
X175061523Y-70865904D01*
X174871047Y-70913523D01*
X174537714Y-70913523D01*
X174347238Y-70865904D01*
X174252000Y-70770666D01*
X174204380Y-70675428D01*
X174204380Y-70484952D01*
X174252000Y-70389714D01*
X174347238Y-70294476D01*
X174537714Y-70246857D01*
X174871047Y-70246857D01*
X175061523Y-70294476D01*
X175156761Y-70389714D01*
X175204380Y-70484952D01*
X175204380Y-70675428D01*
X174204380Y-69913523D02*
X174204380Y-69294476D01*
X174585333Y-69627809D01*
X174585333Y-69484952D01*
X174632952Y-69389714D01*
X174680571Y-69342095D01*
X174775809Y-69294476D01*
X175013904Y-69294476D01*
X175109142Y-69342095D01*
X175156761Y-69389714D01*
X175204380Y-69484952D01*
X175204380Y-69770666D01*
X175156761Y-69865904D01*
X175109142Y-69913523D01*
X164631619Y-70199238D02*
X164584000Y-70294476D01*
X164488761Y-70389714D01*
X164345904Y-70532571D01*
X164298285Y-70627809D01*
X164298285Y-70723047D01*
X164536380Y-70675428D02*
X164488761Y-70770666D01*
X164393523Y-70865904D01*
X164203047Y-70913523D01*
X163869714Y-70913523D01*
X163679238Y-70865904D01*
X163584000Y-70770666D01*
X163536380Y-70675428D01*
X163536380Y-70484952D01*
X163584000Y-70389714D01*
X163679238Y-70294476D01*
X163869714Y-70246857D01*
X164203047Y-70246857D01*
X164393523Y-70294476D01*
X164488761Y-70389714D01*
X164536380Y-70484952D01*
X164536380Y-70675428D01*
X163631619Y-69865904D02*
X163584000Y-69818285D01*
X163536380Y-69723047D01*
X163536380Y-69484952D01*
X163584000Y-69389714D01*
X163631619Y-69342095D01*
X163726857Y-69294476D01*
X163822095Y-69294476D01*
X163964952Y-69342095D01*
X164536380Y-69913523D01*
X164536380Y-69294476D01*
X153963619Y-70199238D02*
X153916000Y-70294476D01*
X153820761Y-70389714D01*
X153677904Y-70532571D01*
X153630285Y-70627809D01*
X153630285Y-70723047D01*
X153868380Y-70675428D02*
X153820761Y-70770666D01*
X153725523Y-70865904D01*
X153535047Y-70913523D01*
X153201714Y-70913523D01*
X153011238Y-70865904D01*
X152916000Y-70770666D01*
X152868380Y-70675428D01*
X152868380Y-70484952D01*
X152916000Y-70389714D01*
X153011238Y-70294476D01*
X153201714Y-70246857D01*
X153535047Y-70246857D01*
X153725523Y-70294476D01*
X153820761Y-70389714D01*
X153868380Y-70484952D01*
X153868380Y-70675428D01*
X153868380Y-69294476D02*
X153868380Y-69865904D01*
X153868380Y-69580190D02*
X152868380Y-69580190D01*
X153011238Y-69675428D01*
X153106476Y-69770666D01*
X153154095Y-69865904D01*
X160571380Y-40719333D02*
X161285666Y-40719333D01*
X161428523Y-40766952D01*
X161523761Y-40862190D01*
X161571380Y-41005047D01*
X161571380Y-41100285D01*
X160904714Y-39814571D02*
X161571380Y-39814571D01*
X160523761Y-40052666D02*
X161238047Y-40290761D01*
X161238047Y-39671714D01*
X152360380Y-57229333D02*
X153074666Y-57229333D01*
X153217523Y-57276952D01*
X153312761Y-57372190D01*
X153360380Y-57515047D01*
X153360380Y-57610285D01*
X152455619Y-56800761D02*
X152408000Y-56753142D01*
X152360380Y-56657904D01*
X152360380Y-56419809D01*
X152408000Y-56324571D01*
X152455619Y-56276952D01*
X152550857Y-56229333D01*
X152646095Y-56229333D01*
X152788952Y-56276952D01*
X153360380Y-56848380D01*
X153360380Y-56229333D01*
X169334380Y-40592333D02*
X170048666Y-40592333D01*
X170191523Y-40639952D01*
X170286761Y-40735190D01*
X170334380Y-40878047D01*
X170334380Y-40973285D01*
X170334380Y-39592333D02*
X170334380Y-40163761D01*
X170334380Y-39878047D02*
X169334380Y-39878047D01*
X169477238Y-39973285D01*
X169572476Y-40068523D01*
X169620095Y-40163761D01*
X212796380Y-112466285D02*
X211796380Y-112466285D01*
X211796380Y-112228190D01*
X211844000Y-112085333D01*
X211939238Y-111990095D01*
X212034476Y-111942476D01*
X212224952Y-111894857D01*
X212367809Y-111894857D01*
X212558285Y-111942476D01*
X212653523Y-111990095D01*
X212748761Y-112085333D01*
X212796380Y-112228190D01*
X212796380Y-112466285D01*
X212129714Y-111037714D02*
X212796380Y-111037714D01*
X211748761Y-111275809D02*
X212463047Y-111513904D01*
X212463047Y-110894857D01*
X211796380Y-110609142D02*
X211796380Y-109990095D01*
X212177333Y-110323428D01*
X212177333Y-110180571D01*
X212224952Y-110085333D01*
X212272571Y-110037714D01*
X212367809Y-109990095D01*
X212605904Y-109990095D01*
X212701142Y-110037714D01*
X212748761Y-110085333D01*
X212796380Y-110180571D01*
X212796380Y-110466285D01*
X212748761Y-110561523D01*
X212701142Y-110609142D01*
X203652380Y-112466285D02*
X202652380Y-112466285D01*
X202652380Y-112228190D01*
X202700000Y-112085333D01*
X202795238Y-111990095D01*
X202890476Y-111942476D01*
X203080952Y-111894857D01*
X203223809Y-111894857D01*
X203414285Y-111942476D01*
X203509523Y-111990095D01*
X203604761Y-112085333D01*
X203652380Y-112228190D01*
X203652380Y-112466285D01*
X202985714Y-111037714D02*
X203652380Y-111037714D01*
X202604761Y-111275809D02*
X203319047Y-111513904D01*
X203319047Y-110894857D01*
X202747619Y-110561523D02*
X202700000Y-110513904D01*
X202652380Y-110418666D01*
X202652380Y-110180571D01*
X202700000Y-110085333D01*
X202747619Y-110037714D01*
X202842857Y-109990095D01*
X202938095Y-109990095D01*
X203080952Y-110037714D01*
X203652380Y-110609142D01*
X203652380Y-109990095D01*
X195016380Y-112466285D02*
X194016380Y-112466285D01*
X194016380Y-112228190D01*
X194064000Y-112085333D01*
X194159238Y-111990095D01*
X194254476Y-111942476D01*
X194444952Y-111894857D01*
X194587809Y-111894857D01*
X194778285Y-111942476D01*
X194873523Y-111990095D01*
X194968761Y-112085333D01*
X195016380Y-112228190D01*
X195016380Y-112466285D01*
X194349714Y-111037714D02*
X195016380Y-111037714D01*
X193968761Y-111275809D02*
X194683047Y-111513904D01*
X194683047Y-110894857D01*
X195016380Y-109990095D02*
X195016380Y-110561523D01*
X195016380Y-110275809D02*
X194016380Y-110275809D01*
X194159238Y-110371047D01*
X194254476Y-110466285D01*
X194302095Y-110561523D01*
X185872380Y-112466285D02*
X184872380Y-112466285D01*
X184872380Y-112228190D01*
X184920000Y-112085333D01*
X185015238Y-111990095D01*
X185110476Y-111942476D01*
X185300952Y-111894857D01*
X185443809Y-111894857D01*
X185634285Y-111942476D01*
X185729523Y-111990095D01*
X185824761Y-112085333D01*
X185872380Y-112228190D01*
X185872380Y-112466285D01*
X185205714Y-111037714D02*
X185872380Y-111037714D01*
X184824761Y-111275809D02*
X185539047Y-111513904D01*
X185539047Y-110894857D01*
X184872380Y-110323428D02*
X184872380Y-110228190D01*
X184920000Y-110132952D01*
X184967619Y-110085333D01*
X185062857Y-110037714D01*
X185253333Y-109990095D01*
X185491428Y-109990095D01*
X185681904Y-110037714D01*
X185777142Y-110085333D01*
X185824761Y-110132952D01*
X185872380Y-110228190D01*
X185872380Y-110323428D01*
X185824761Y-110418666D01*
X185777142Y-110466285D01*
X185681904Y-110513904D01*
X185491428Y-110561523D01*
X185253333Y-110561523D01*
X185062857Y-110513904D01*
X184967619Y-110466285D01*
X184920000Y-110418666D01*
X184872380Y-110323428D01*
X177236380Y-112466285D02*
X176236380Y-112466285D01*
X176236380Y-112228190D01*
X176284000Y-112085333D01*
X176379238Y-111990095D01*
X176474476Y-111942476D01*
X176664952Y-111894857D01*
X176807809Y-111894857D01*
X176998285Y-111942476D01*
X177093523Y-111990095D01*
X177188761Y-112085333D01*
X177236380Y-112228190D01*
X177236380Y-112466285D01*
X176236380Y-111561523D02*
X176236380Y-110942476D01*
X176617333Y-111275809D01*
X176617333Y-111132952D01*
X176664952Y-111037714D01*
X176712571Y-110990095D01*
X176807809Y-110942476D01*
X177045904Y-110942476D01*
X177141142Y-110990095D01*
X177188761Y-111037714D01*
X177236380Y-111132952D01*
X177236380Y-111418666D01*
X177188761Y-111513904D01*
X177141142Y-111561523D01*
X177236380Y-110466285D02*
X177236380Y-110275809D01*
X177188761Y-110180571D01*
X177141142Y-110132952D01*
X176998285Y-110037714D01*
X176807809Y-109990095D01*
X176426857Y-109990095D01*
X176331619Y-110037714D01*
X176284000Y-110085333D01*
X176236380Y-110180571D01*
X176236380Y-110371047D01*
X176284000Y-110466285D01*
X176331619Y-110513904D01*
X176426857Y-110561523D01*
X176664952Y-110561523D01*
X176760190Y-110513904D01*
X176807809Y-110466285D01*
X176855428Y-110371047D01*
X176855428Y-110180571D01*
X176807809Y-110085333D01*
X176760190Y-110037714D01*
X176664952Y-109990095D01*
X168092380Y-112466285D02*
X167092380Y-112466285D01*
X167092380Y-112228190D01*
X167140000Y-112085333D01*
X167235238Y-111990095D01*
X167330476Y-111942476D01*
X167520952Y-111894857D01*
X167663809Y-111894857D01*
X167854285Y-111942476D01*
X167949523Y-111990095D01*
X168044761Y-112085333D01*
X168092380Y-112228190D01*
X168092380Y-112466285D01*
X167092380Y-111561523D02*
X167092380Y-110942476D01*
X167473333Y-111275809D01*
X167473333Y-111132952D01*
X167520952Y-111037714D01*
X167568571Y-110990095D01*
X167663809Y-110942476D01*
X167901904Y-110942476D01*
X167997142Y-110990095D01*
X168044761Y-111037714D01*
X168092380Y-111132952D01*
X168092380Y-111418666D01*
X168044761Y-111513904D01*
X167997142Y-111561523D01*
X167520952Y-110371047D02*
X167473333Y-110466285D01*
X167425714Y-110513904D01*
X167330476Y-110561523D01*
X167282857Y-110561523D01*
X167187619Y-110513904D01*
X167140000Y-110466285D01*
X167092380Y-110371047D01*
X167092380Y-110180571D01*
X167140000Y-110085333D01*
X167187619Y-110037714D01*
X167282857Y-109990095D01*
X167330476Y-109990095D01*
X167425714Y-110037714D01*
X167473333Y-110085333D01*
X167520952Y-110180571D01*
X167520952Y-110371047D01*
X167568571Y-110466285D01*
X167616190Y-110513904D01*
X167711428Y-110561523D01*
X167901904Y-110561523D01*
X167997142Y-110513904D01*
X168044761Y-110466285D01*
X168092380Y-110371047D01*
X168092380Y-110180571D01*
X168044761Y-110085333D01*
X167997142Y-110037714D01*
X167901904Y-109990095D01*
X167711428Y-109990095D01*
X167616190Y-110037714D01*
X167568571Y-110085333D01*
X167520952Y-110180571D01*
X159456380Y-112466285D02*
X158456380Y-112466285D01*
X158456380Y-112228190D01*
X158504000Y-112085333D01*
X158599238Y-111990095D01*
X158694476Y-111942476D01*
X158884952Y-111894857D01*
X159027809Y-111894857D01*
X159218285Y-111942476D01*
X159313523Y-111990095D01*
X159408761Y-112085333D01*
X159456380Y-112228190D01*
X159456380Y-112466285D01*
X158456380Y-111561523D02*
X158456380Y-110942476D01*
X158837333Y-111275809D01*
X158837333Y-111132952D01*
X158884952Y-111037714D01*
X158932571Y-110990095D01*
X159027809Y-110942476D01*
X159265904Y-110942476D01*
X159361142Y-110990095D01*
X159408761Y-111037714D01*
X159456380Y-111132952D01*
X159456380Y-111418666D01*
X159408761Y-111513904D01*
X159361142Y-111561523D01*
X158456380Y-110609142D02*
X158456380Y-109942476D01*
X159456380Y-110371047D01*
X212796380Y-104846285D02*
X211796380Y-104846285D01*
X211796380Y-104608190D01*
X211844000Y-104465333D01*
X211939238Y-104370095D01*
X212034476Y-104322476D01*
X212224952Y-104274857D01*
X212367809Y-104274857D01*
X212558285Y-104322476D01*
X212653523Y-104370095D01*
X212748761Y-104465333D01*
X212796380Y-104608190D01*
X212796380Y-104846285D01*
X211796380Y-103941523D02*
X211796380Y-103322476D01*
X212177333Y-103655809D01*
X212177333Y-103512952D01*
X212224952Y-103417714D01*
X212272571Y-103370095D01*
X212367809Y-103322476D01*
X212605904Y-103322476D01*
X212701142Y-103370095D01*
X212748761Y-103417714D01*
X212796380Y-103512952D01*
X212796380Y-103798666D01*
X212748761Y-103893904D01*
X212701142Y-103941523D01*
X211796380Y-102465333D02*
X211796380Y-102655809D01*
X211844000Y-102751047D01*
X211891619Y-102798666D01*
X212034476Y-102893904D01*
X212224952Y-102941523D01*
X212605904Y-102941523D01*
X212701142Y-102893904D01*
X212748761Y-102846285D01*
X212796380Y-102751047D01*
X212796380Y-102560571D01*
X212748761Y-102465333D01*
X212701142Y-102417714D01*
X212605904Y-102370095D01*
X212367809Y-102370095D01*
X212272571Y-102417714D01*
X212224952Y-102465333D01*
X212177333Y-102560571D01*
X212177333Y-102751047D01*
X212224952Y-102846285D01*
X212272571Y-102893904D01*
X212367809Y-102941523D01*
X203652380Y-104846285D02*
X202652380Y-104846285D01*
X202652380Y-104608190D01*
X202700000Y-104465333D01*
X202795238Y-104370095D01*
X202890476Y-104322476D01*
X203080952Y-104274857D01*
X203223809Y-104274857D01*
X203414285Y-104322476D01*
X203509523Y-104370095D01*
X203604761Y-104465333D01*
X203652380Y-104608190D01*
X203652380Y-104846285D01*
X202652380Y-103941523D02*
X202652380Y-103322476D01*
X203033333Y-103655809D01*
X203033333Y-103512952D01*
X203080952Y-103417714D01*
X203128571Y-103370095D01*
X203223809Y-103322476D01*
X203461904Y-103322476D01*
X203557142Y-103370095D01*
X203604761Y-103417714D01*
X203652380Y-103512952D01*
X203652380Y-103798666D01*
X203604761Y-103893904D01*
X203557142Y-103941523D01*
X202652380Y-102417714D02*
X202652380Y-102893904D01*
X203128571Y-102941523D01*
X203080952Y-102893904D01*
X203033333Y-102798666D01*
X203033333Y-102560571D01*
X203080952Y-102465333D01*
X203128571Y-102417714D01*
X203223809Y-102370095D01*
X203461904Y-102370095D01*
X203557142Y-102417714D01*
X203604761Y-102465333D01*
X203652380Y-102560571D01*
X203652380Y-102798666D01*
X203604761Y-102893904D01*
X203557142Y-102941523D01*
X195016380Y-104846285D02*
X194016380Y-104846285D01*
X194016380Y-104608190D01*
X194064000Y-104465333D01*
X194159238Y-104370095D01*
X194254476Y-104322476D01*
X194444952Y-104274857D01*
X194587809Y-104274857D01*
X194778285Y-104322476D01*
X194873523Y-104370095D01*
X194968761Y-104465333D01*
X195016380Y-104608190D01*
X195016380Y-104846285D01*
X194016380Y-103941523D02*
X194016380Y-103322476D01*
X194397333Y-103655809D01*
X194397333Y-103512952D01*
X194444952Y-103417714D01*
X194492571Y-103370095D01*
X194587809Y-103322476D01*
X194825904Y-103322476D01*
X194921142Y-103370095D01*
X194968761Y-103417714D01*
X195016380Y-103512952D01*
X195016380Y-103798666D01*
X194968761Y-103893904D01*
X194921142Y-103941523D01*
X194349714Y-102465333D02*
X195016380Y-102465333D01*
X193968761Y-102703428D02*
X194683047Y-102941523D01*
X194683047Y-102322476D01*
X185872380Y-104846285D02*
X184872380Y-104846285D01*
X184872380Y-104608190D01*
X184920000Y-104465333D01*
X185015238Y-104370095D01*
X185110476Y-104322476D01*
X185300952Y-104274857D01*
X185443809Y-104274857D01*
X185634285Y-104322476D01*
X185729523Y-104370095D01*
X185824761Y-104465333D01*
X185872380Y-104608190D01*
X185872380Y-104846285D01*
X184872380Y-103941523D02*
X184872380Y-103322476D01*
X185253333Y-103655809D01*
X185253333Y-103512952D01*
X185300952Y-103417714D01*
X185348571Y-103370095D01*
X185443809Y-103322476D01*
X185681904Y-103322476D01*
X185777142Y-103370095D01*
X185824761Y-103417714D01*
X185872380Y-103512952D01*
X185872380Y-103798666D01*
X185824761Y-103893904D01*
X185777142Y-103941523D01*
X184872380Y-102989142D02*
X184872380Y-102370095D01*
X185253333Y-102703428D01*
X185253333Y-102560571D01*
X185300952Y-102465333D01*
X185348571Y-102417714D01*
X185443809Y-102370095D01*
X185681904Y-102370095D01*
X185777142Y-102417714D01*
X185824761Y-102465333D01*
X185872380Y-102560571D01*
X185872380Y-102846285D01*
X185824761Y-102941523D01*
X185777142Y-102989142D01*
X177236380Y-104846285D02*
X176236380Y-104846285D01*
X176236380Y-104608190D01*
X176284000Y-104465333D01*
X176379238Y-104370095D01*
X176474476Y-104322476D01*
X176664952Y-104274857D01*
X176807809Y-104274857D01*
X176998285Y-104322476D01*
X177093523Y-104370095D01*
X177188761Y-104465333D01*
X177236380Y-104608190D01*
X177236380Y-104846285D01*
X176236380Y-103941523D02*
X176236380Y-103322476D01*
X176617333Y-103655809D01*
X176617333Y-103512952D01*
X176664952Y-103417714D01*
X176712571Y-103370095D01*
X176807809Y-103322476D01*
X177045904Y-103322476D01*
X177141142Y-103370095D01*
X177188761Y-103417714D01*
X177236380Y-103512952D01*
X177236380Y-103798666D01*
X177188761Y-103893904D01*
X177141142Y-103941523D01*
X176331619Y-102941523D02*
X176284000Y-102893904D01*
X176236380Y-102798666D01*
X176236380Y-102560571D01*
X176284000Y-102465333D01*
X176331619Y-102417714D01*
X176426857Y-102370095D01*
X176522095Y-102370095D01*
X176664952Y-102417714D01*
X177236380Y-102989142D01*
X177236380Y-102370095D01*
X168092380Y-104846285D02*
X167092380Y-104846285D01*
X167092380Y-104608190D01*
X167140000Y-104465333D01*
X167235238Y-104370095D01*
X167330476Y-104322476D01*
X167520952Y-104274857D01*
X167663809Y-104274857D01*
X167854285Y-104322476D01*
X167949523Y-104370095D01*
X168044761Y-104465333D01*
X168092380Y-104608190D01*
X168092380Y-104846285D01*
X167092380Y-103941523D02*
X167092380Y-103322476D01*
X167473333Y-103655809D01*
X167473333Y-103512952D01*
X167520952Y-103417714D01*
X167568571Y-103370095D01*
X167663809Y-103322476D01*
X167901904Y-103322476D01*
X167997142Y-103370095D01*
X168044761Y-103417714D01*
X168092380Y-103512952D01*
X168092380Y-103798666D01*
X168044761Y-103893904D01*
X167997142Y-103941523D01*
X168092380Y-102370095D02*
X168092380Y-102941523D01*
X168092380Y-102655809D02*
X167092380Y-102655809D01*
X167235238Y-102751047D01*
X167330476Y-102846285D01*
X167378095Y-102941523D01*
X159456380Y-104846285D02*
X158456380Y-104846285D01*
X158456380Y-104608190D01*
X158504000Y-104465333D01*
X158599238Y-104370095D01*
X158694476Y-104322476D01*
X158884952Y-104274857D01*
X159027809Y-104274857D01*
X159218285Y-104322476D01*
X159313523Y-104370095D01*
X159408761Y-104465333D01*
X159456380Y-104608190D01*
X159456380Y-104846285D01*
X158456380Y-103941523D02*
X158456380Y-103322476D01*
X158837333Y-103655809D01*
X158837333Y-103512952D01*
X158884952Y-103417714D01*
X158932571Y-103370095D01*
X159027809Y-103322476D01*
X159265904Y-103322476D01*
X159361142Y-103370095D01*
X159408761Y-103417714D01*
X159456380Y-103512952D01*
X159456380Y-103798666D01*
X159408761Y-103893904D01*
X159361142Y-103941523D01*
X158456380Y-102703428D02*
X158456380Y-102608190D01*
X158504000Y-102512952D01*
X158551619Y-102465333D01*
X158646857Y-102417714D01*
X158837333Y-102370095D01*
X159075428Y-102370095D01*
X159265904Y-102417714D01*
X159361142Y-102465333D01*
X159408761Y-102512952D01*
X159456380Y-102608190D01*
X159456380Y-102703428D01*
X159408761Y-102798666D01*
X159361142Y-102846285D01*
X159265904Y-102893904D01*
X159075428Y-102941523D01*
X158837333Y-102941523D01*
X158646857Y-102893904D01*
X158551619Y-102846285D01*
X158504000Y-102798666D01*
X158456380Y-102703428D01*
X212796380Y-97226285D02*
X211796380Y-97226285D01*
X211796380Y-96988190D01*
X211844000Y-96845333D01*
X211939238Y-96750095D01*
X212034476Y-96702476D01*
X212224952Y-96654857D01*
X212367809Y-96654857D01*
X212558285Y-96702476D01*
X212653523Y-96750095D01*
X212748761Y-96845333D01*
X212796380Y-96988190D01*
X212796380Y-97226285D01*
X211891619Y-96273904D02*
X211844000Y-96226285D01*
X211796380Y-96131047D01*
X211796380Y-95892952D01*
X211844000Y-95797714D01*
X211891619Y-95750095D01*
X211986857Y-95702476D01*
X212082095Y-95702476D01*
X212224952Y-95750095D01*
X212796380Y-96321523D01*
X212796380Y-95702476D01*
X212796380Y-95226285D02*
X212796380Y-95035809D01*
X212748761Y-94940571D01*
X212701142Y-94892952D01*
X212558285Y-94797714D01*
X212367809Y-94750095D01*
X211986857Y-94750095D01*
X211891619Y-94797714D01*
X211844000Y-94845333D01*
X211796380Y-94940571D01*
X211796380Y-95131047D01*
X211844000Y-95226285D01*
X211891619Y-95273904D01*
X211986857Y-95321523D01*
X212224952Y-95321523D01*
X212320190Y-95273904D01*
X212367809Y-95226285D01*
X212415428Y-95131047D01*
X212415428Y-94940571D01*
X212367809Y-94845333D01*
X212320190Y-94797714D01*
X212224952Y-94750095D01*
X203652380Y-97226285D02*
X202652380Y-97226285D01*
X202652380Y-96988190D01*
X202700000Y-96845333D01*
X202795238Y-96750095D01*
X202890476Y-96702476D01*
X203080952Y-96654857D01*
X203223809Y-96654857D01*
X203414285Y-96702476D01*
X203509523Y-96750095D01*
X203604761Y-96845333D01*
X203652380Y-96988190D01*
X203652380Y-97226285D01*
X202747619Y-96273904D02*
X202700000Y-96226285D01*
X202652380Y-96131047D01*
X202652380Y-95892952D01*
X202700000Y-95797714D01*
X202747619Y-95750095D01*
X202842857Y-95702476D01*
X202938095Y-95702476D01*
X203080952Y-95750095D01*
X203652380Y-96321523D01*
X203652380Y-95702476D01*
X203080952Y-95131047D02*
X203033333Y-95226285D01*
X202985714Y-95273904D01*
X202890476Y-95321523D01*
X202842857Y-95321523D01*
X202747619Y-95273904D01*
X202700000Y-95226285D01*
X202652380Y-95131047D01*
X202652380Y-94940571D01*
X202700000Y-94845333D01*
X202747619Y-94797714D01*
X202842857Y-94750095D01*
X202890476Y-94750095D01*
X202985714Y-94797714D01*
X203033333Y-94845333D01*
X203080952Y-94940571D01*
X203080952Y-95131047D01*
X203128571Y-95226285D01*
X203176190Y-95273904D01*
X203271428Y-95321523D01*
X203461904Y-95321523D01*
X203557142Y-95273904D01*
X203604761Y-95226285D01*
X203652380Y-95131047D01*
X203652380Y-94940571D01*
X203604761Y-94845333D01*
X203557142Y-94797714D01*
X203461904Y-94750095D01*
X203271428Y-94750095D01*
X203176190Y-94797714D01*
X203128571Y-94845333D01*
X203080952Y-94940571D01*
X195016380Y-97226285D02*
X194016380Y-97226285D01*
X194016380Y-96988190D01*
X194064000Y-96845333D01*
X194159238Y-96750095D01*
X194254476Y-96702476D01*
X194444952Y-96654857D01*
X194587809Y-96654857D01*
X194778285Y-96702476D01*
X194873523Y-96750095D01*
X194968761Y-96845333D01*
X195016380Y-96988190D01*
X195016380Y-97226285D01*
X194111619Y-96273904D02*
X194064000Y-96226285D01*
X194016380Y-96131047D01*
X194016380Y-95892952D01*
X194064000Y-95797714D01*
X194111619Y-95750095D01*
X194206857Y-95702476D01*
X194302095Y-95702476D01*
X194444952Y-95750095D01*
X195016380Y-96321523D01*
X195016380Y-95702476D01*
X194016380Y-95369142D02*
X194016380Y-94702476D01*
X195016380Y-95131047D01*
X185872380Y-97226285D02*
X184872380Y-97226285D01*
X184872380Y-96988190D01*
X184920000Y-96845333D01*
X185015238Y-96750095D01*
X185110476Y-96702476D01*
X185300952Y-96654857D01*
X185443809Y-96654857D01*
X185634285Y-96702476D01*
X185729523Y-96750095D01*
X185824761Y-96845333D01*
X185872380Y-96988190D01*
X185872380Y-97226285D01*
X184967619Y-96273904D02*
X184920000Y-96226285D01*
X184872380Y-96131047D01*
X184872380Y-95892952D01*
X184920000Y-95797714D01*
X184967619Y-95750095D01*
X185062857Y-95702476D01*
X185158095Y-95702476D01*
X185300952Y-95750095D01*
X185872380Y-96321523D01*
X185872380Y-95702476D01*
X184872380Y-94845333D02*
X184872380Y-95035809D01*
X184920000Y-95131047D01*
X184967619Y-95178666D01*
X185110476Y-95273904D01*
X185300952Y-95321523D01*
X185681904Y-95321523D01*
X185777142Y-95273904D01*
X185824761Y-95226285D01*
X185872380Y-95131047D01*
X185872380Y-94940571D01*
X185824761Y-94845333D01*
X185777142Y-94797714D01*
X185681904Y-94750095D01*
X185443809Y-94750095D01*
X185348571Y-94797714D01*
X185300952Y-94845333D01*
X185253333Y-94940571D01*
X185253333Y-95131047D01*
X185300952Y-95226285D01*
X185348571Y-95273904D01*
X185443809Y-95321523D01*
X177236380Y-97226285D02*
X176236380Y-97226285D01*
X176236380Y-96988190D01*
X176284000Y-96845333D01*
X176379238Y-96750095D01*
X176474476Y-96702476D01*
X176664952Y-96654857D01*
X176807809Y-96654857D01*
X176998285Y-96702476D01*
X177093523Y-96750095D01*
X177188761Y-96845333D01*
X177236380Y-96988190D01*
X177236380Y-97226285D01*
X176331619Y-96273904D02*
X176284000Y-96226285D01*
X176236380Y-96131047D01*
X176236380Y-95892952D01*
X176284000Y-95797714D01*
X176331619Y-95750095D01*
X176426857Y-95702476D01*
X176522095Y-95702476D01*
X176664952Y-95750095D01*
X177236380Y-96321523D01*
X177236380Y-95702476D01*
X176236380Y-94797714D02*
X176236380Y-95273904D01*
X176712571Y-95321523D01*
X176664952Y-95273904D01*
X176617333Y-95178666D01*
X176617333Y-94940571D01*
X176664952Y-94845333D01*
X176712571Y-94797714D01*
X176807809Y-94750095D01*
X177045904Y-94750095D01*
X177141142Y-94797714D01*
X177188761Y-94845333D01*
X177236380Y-94940571D01*
X177236380Y-95178666D01*
X177188761Y-95273904D01*
X177141142Y-95321523D01*
X168092380Y-97226285D02*
X167092380Y-97226285D01*
X167092380Y-96988190D01*
X167140000Y-96845333D01*
X167235238Y-96750095D01*
X167330476Y-96702476D01*
X167520952Y-96654857D01*
X167663809Y-96654857D01*
X167854285Y-96702476D01*
X167949523Y-96750095D01*
X168044761Y-96845333D01*
X168092380Y-96988190D01*
X168092380Y-97226285D01*
X167187619Y-96273904D02*
X167140000Y-96226285D01*
X167092380Y-96131047D01*
X167092380Y-95892952D01*
X167140000Y-95797714D01*
X167187619Y-95750095D01*
X167282857Y-95702476D01*
X167378095Y-95702476D01*
X167520952Y-95750095D01*
X168092380Y-96321523D01*
X168092380Y-95702476D01*
X167425714Y-94845333D02*
X168092380Y-94845333D01*
X167044761Y-95083428D02*
X167759047Y-95321523D01*
X167759047Y-94702476D01*
X159456380Y-97226285D02*
X158456380Y-97226285D01*
X158456380Y-96988190D01*
X158504000Y-96845333D01*
X158599238Y-96750095D01*
X158694476Y-96702476D01*
X158884952Y-96654857D01*
X159027809Y-96654857D01*
X159218285Y-96702476D01*
X159313523Y-96750095D01*
X159408761Y-96845333D01*
X159456380Y-96988190D01*
X159456380Y-97226285D01*
X158551619Y-96273904D02*
X158504000Y-96226285D01*
X158456380Y-96131047D01*
X158456380Y-95892952D01*
X158504000Y-95797714D01*
X158551619Y-95750095D01*
X158646857Y-95702476D01*
X158742095Y-95702476D01*
X158884952Y-95750095D01*
X159456380Y-96321523D01*
X159456380Y-95702476D01*
X158456380Y-95369142D02*
X158456380Y-94750095D01*
X158837333Y-95083428D01*
X158837333Y-94940571D01*
X158884952Y-94845333D01*
X158932571Y-94797714D01*
X159027809Y-94750095D01*
X159265904Y-94750095D01*
X159361142Y-94797714D01*
X159408761Y-94845333D01*
X159456380Y-94940571D01*
X159456380Y-95226285D01*
X159408761Y-95321523D01*
X159361142Y-95369142D01*
X212796380Y-89606285D02*
X211796380Y-89606285D01*
X211796380Y-89368190D01*
X211844000Y-89225333D01*
X211939238Y-89130095D01*
X212034476Y-89082476D01*
X212224952Y-89034857D01*
X212367809Y-89034857D01*
X212558285Y-89082476D01*
X212653523Y-89130095D01*
X212748761Y-89225333D01*
X212796380Y-89368190D01*
X212796380Y-89606285D01*
X211891619Y-88653904D02*
X211844000Y-88606285D01*
X211796380Y-88511047D01*
X211796380Y-88272952D01*
X211844000Y-88177714D01*
X211891619Y-88130095D01*
X211986857Y-88082476D01*
X212082095Y-88082476D01*
X212224952Y-88130095D01*
X212796380Y-88701523D01*
X212796380Y-88082476D01*
X211891619Y-87701523D02*
X211844000Y-87653904D01*
X211796380Y-87558666D01*
X211796380Y-87320571D01*
X211844000Y-87225333D01*
X211891619Y-87177714D01*
X211986857Y-87130095D01*
X212082095Y-87130095D01*
X212224952Y-87177714D01*
X212796380Y-87749142D01*
X212796380Y-87130095D01*
X203652380Y-89606285D02*
X202652380Y-89606285D01*
X202652380Y-89368190D01*
X202700000Y-89225333D01*
X202795238Y-89130095D01*
X202890476Y-89082476D01*
X203080952Y-89034857D01*
X203223809Y-89034857D01*
X203414285Y-89082476D01*
X203509523Y-89130095D01*
X203604761Y-89225333D01*
X203652380Y-89368190D01*
X203652380Y-89606285D01*
X202747619Y-88653904D02*
X202700000Y-88606285D01*
X202652380Y-88511047D01*
X202652380Y-88272952D01*
X202700000Y-88177714D01*
X202747619Y-88130095D01*
X202842857Y-88082476D01*
X202938095Y-88082476D01*
X203080952Y-88130095D01*
X203652380Y-88701523D01*
X203652380Y-88082476D01*
X203652380Y-87130095D02*
X203652380Y-87701523D01*
X203652380Y-87415809D02*
X202652380Y-87415809D01*
X202795238Y-87511047D01*
X202890476Y-87606285D01*
X202938095Y-87701523D01*
X195016380Y-89606285D02*
X194016380Y-89606285D01*
X194016380Y-89368190D01*
X194064000Y-89225333D01*
X194159238Y-89130095D01*
X194254476Y-89082476D01*
X194444952Y-89034857D01*
X194587809Y-89034857D01*
X194778285Y-89082476D01*
X194873523Y-89130095D01*
X194968761Y-89225333D01*
X195016380Y-89368190D01*
X195016380Y-89606285D01*
X194111619Y-88653904D02*
X194064000Y-88606285D01*
X194016380Y-88511047D01*
X194016380Y-88272952D01*
X194064000Y-88177714D01*
X194111619Y-88130095D01*
X194206857Y-88082476D01*
X194302095Y-88082476D01*
X194444952Y-88130095D01*
X195016380Y-88701523D01*
X195016380Y-88082476D01*
X194016380Y-87463428D02*
X194016380Y-87368190D01*
X194064000Y-87272952D01*
X194111619Y-87225333D01*
X194206857Y-87177714D01*
X194397333Y-87130095D01*
X194635428Y-87130095D01*
X194825904Y-87177714D01*
X194921142Y-87225333D01*
X194968761Y-87272952D01*
X195016380Y-87368190D01*
X195016380Y-87463428D01*
X194968761Y-87558666D01*
X194921142Y-87606285D01*
X194825904Y-87653904D01*
X194635428Y-87701523D01*
X194397333Y-87701523D01*
X194206857Y-87653904D01*
X194111619Y-87606285D01*
X194064000Y-87558666D01*
X194016380Y-87463428D01*
X185872380Y-89606285D02*
X184872380Y-89606285D01*
X184872380Y-89368190D01*
X184920000Y-89225333D01*
X185015238Y-89130095D01*
X185110476Y-89082476D01*
X185300952Y-89034857D01*
X185443809Y-89034857D01*
X185634285Y-89082476D01*
X185729523Y-89130095D01*
X185824761Y-89225333D01*
X185872380Y-89368190D01*
X185872380Y-89606285D01*
X185872380Y-88082476D02*
X185872380Y-88653904D01*
X185872380Y-88368190D02*
X184872380Y-88368190D01*
X185015238Y-88463428D01*
X185110476Y-88558666D01*
X185158095Y-88653904D01*
X185872380Y-87606285D02*
X185872380Y-87415809D01*
X185824761Y-87320571D01*
X185777142Y-87272952D01*
X185634285Y-87177714D01*
X185443809Y-87130095D01*
X185062857Y-87130095D01*
X184967619Y-87177714D01*
X184920000Y-87225333D01*
X184872380Y-87320571D01*
X184872380Y-87511047D01*
X184920000Y-87606285D01*
X184967619Y-87653904D01*
X185062857Y-87701523D01*
X185300952Y-87701523D01*
X185396190Y-87653904D01*
X185443809Y-87606285D01*
X185491428Y-87511047D01*
X185491428Y-87320571D01*
X185443809Y-87225333D01*
X185396190Y-87177714D01*
X185300952Y-87130095D01*
X177236380Y-89606285D02*
X176236380Y-89606285D01*
X176236380Y-89368190D01*
X176284000Y-89225333D01*
X176379238Y-89130095D01*
X176474476Y-89082476D01*
X176664952Y-89034857D01*
X176807809Y-89034857D01*
X176998285Y-89082476D01*
X177093523Y-89130095D01*
X177188761Y-89225333D01*
X177236380Y-89368190D01*
X177236380Y-89606285D01*
X177236380Y-88082476D02*
X177236380Y-88653904D01*
X177236380Y-88368190D02*
X176236380Y-88368190D01*
X176379238Y-88463428D01*
X176474476Y-88558666D01*
X176522095Y-88653904D01*
X176664952Y-87511047D02*
X176617333Y-87606285D01*
X176569714Y-87653904D01*
X176474476Y-87701523D01*
X176426857Y-87701523D01*
X176331619Y-87653904D01*
X176284000Y-87606285D01*
X176236380Y-87511047D01*
X176236380Y-87320571D01*
X176284000Y-87225333D01*
X176331619Y-87177714D01*
X176426857Y-87130095D01*
X176474476Y-87130095D01*
X176569714Y-87177714D01*
X176617333Y-87225333D01*
X176664952Y-87320571D01*
X176664952Y-87511047D01*
X176712571Y-87606285D01*
X176760190Y-87653904D01*
X176855428Y-87701523D01*
X177045904Y-87701523D01*
X177141142Y-87653904D01*
X177188761Y-87606285D01*
X177236380Y-87511047D01*
X177236380Y-87320571D01*
X177188761Y-87225333D01*
X177141142Y-87177714D01*
X177045904Y-87130095D01*
X176855428Y-87130095D01*
X176760190Y-87177714D01*
X176712571Y-87225333D01*
X176664952Y-87320571D01*
X168092380Y-89606285D02*
X167092380Y-89606285D01*
X167092380Y-89368190D01*
X167140000Y-89225333D01*
X167235238Y-89130095D01*
X167330476Y-89082476D01*
X167520952Y-89034857D01*
X167663809Y-89034857D01*
X167854285Y-89082476D01*
X167949523Y-89130095D01*
X168044761Y-89225333D01*
X168092380Y-89368190D01*
X168092380Y-89606285D01*
X168092380Y-88082476D02*
X168092380Y-88653904D01*
X168092380Y-88368190D02*
X167092380Y-88368190D01*
X167235238Y-88463428D01*
X167330476Y-88558666D01*
X167378095Y-88653904D01*
X167092380Y-87749142D02*
X167092380Y-87082476D01*
X168092380Y-87511047D01*
X159456380Y-89606285D02*
X158456380Y-89606285D01*
X158456380Y-89368190D01*
X158504000Y-89225333D01*
X158599238Y-89130095D01*
X158694476Y-89082476D01*
X158884952Y-89034857D01*
X159027809Y-89034857D01*
X159218285Y-89082476D01*
X159313523Y-89130095D01*
X159408761Y-89225333D01*
X159456380Y-89368190D01*
X159456380Y-89606285D01*
X159456380Y-88082476D02*
X159456380Y-88653904D01*
X159456380Y-88368190D02*
X158456380Y-88368190D01*
X158599238Y-88463428D01*
X158694476Y-88558666D01*
X158742095Y-88653904D01*
X158456380Y-87225333D02*
X158456380Y-87415809D01*
X158504000Y-87511047D01*
X158551619Y-87558666D01*
X158694476Y-87653904D01*
X158884952Y-87701523D01*
X159265904Y-87701523D01*
X159361142Y-87653904D01*
X159408761Y-87606285D01*
X159456380Y-87511047D01*
X159456380Y-87320571D01*
X159408761Y-87225333D01*
X159361142Y-87177714D01*
X159265904Y-87130095D01*
X159027809Y-87130095D01*
X158932571Y-87177714D01*
X158884952Y-87225333D01*
X158837333Y-87320571D01*
X158837333Y-87511047D01*
X158884952Y-87606285D01*
X158932571Y-87653904D01*
X159027809Y-87701523D01*
X211780380Y-56586285D02*
X210780380Y-56586285D01*
X210780380Y-56348190D01*
X210828000Y-56205333D01*
X210923238Y-56110095D01*
X211018476Y-56062476D01*
X211208952Y-56014857D01*
X211351809Y-56014857D01*
X211542285Y-56062476D01*
X211637523Y-56110095D01*
X211732761Y-56205333D01*
X211780380Y-56348190D01*
X211780380Y-56586285D01*
X211780380Y-55062476D02*
X211780380Y-55633904D01*
X211780380Y-55348190D02*
X210780380Y-55348190D01*
X210923238Y-55443428D01*
X211018476Y-55538666D01*
X211066095Y-55633904D01*
X210780380Y-54157714D02*
X210780380Y-54633904D01*
X211256571Y-54681523D01*
X211208952Y-54633904D01*
X211161333Y-54538666D01*
X211161333Y-54300571D01*
X211208952Y-54205333D01*
X211256571Y-54157714D01*
X211351809Y-54110095D01*
X211589904Y-54110095D01*
X211685142Y-54157714D01*
X211732761Y-54205333D01*
X211780380Y-54300571D01*
X211780380Y-54538666D01*
X211732761Y-54633904D01*
X211685142Y-54681523D01*
X212796380Y-81986285D02*
X211796380Y-81986285D01*
X211796380Y-81748190D01*
X211844000Y-81605333D01*
X211939238Y-81510095D01*
X212034476Y-81462476D01*
X212224952Y-81414857D01*
X212367809Y-81414857D01*
X212558285Y-81462476D01*
X212653523Y-81510095D01*
X212748761Y-81605333D01*
X212796380Y-81748190D01*
X212796380Y-81986285D01*
X212796380Y-80462476D02*
X212796380Y-81033904D01*
X212796380Y-80748190D02*
X211796380Y-80748190D01*
X211939238Y-80843428D01*
X212034476Y-80938666D01*
X212082095Y-81033904D01*
X212129714Y-79605333D02*
X212796380Y-79605333D01*
X211748761Y-79843428D02*
X212463047Y-80081523D01*
X212463047Y-79462476D01*
X203652380Y-81986285D02*
X202652380Y-81986285D01*
X202652380Y-81748190D01*
X202700000Y-81605333D01*
X202795238Y-81510095D01*
X202890476Y-81462476D01*
X203080952Y-81414857D01*
X203223809Y-81414857D01*
X203414285Y-81462476D01*
X203509523Y-81510095D01*
X203604761Y-81605333D01*
X203652380Y-81748190D01*
X203652380Y-81986285D01*
X203652380Y-80462476D02*
X203652380Y-81033904D01*
X203652380Y-80748190D02*
X202652380Y-80748190D01*
X202795238Y-80843428D01*
X202890476Y-80938666D01*
X202938095Y-81033904D01*
X202652380Y-80129142D02*
X202652380Y-79510095D01*
X203033333Y-79843428D01*
X203033333Y-79700571D01*
X203080952Y-79605333D01*
X203128571Y-79557714D01*
X203223809Y-79510095D01*
X203461904Y-79510095D01*
X203557142Y-79557714D01*
X203604761Y-79605333D01*
X203652380Y-79700571D01*
X203652380Y-79986285D01*
X203604761Y-80081523D01*
X203557142Y-80129142D01*
X195016380Y-81986285D02*
X194016380Y-81986285D01*
X194016380Y-81748190D01*
X194064000Y-81605333D01*
X194159238Y-81510095D01*
X194254476Y-81462476D01*
X194444952Y-81414857D01*
X194587809Y-81414857D01*
X194778285Y-81462476D01*
X194873523Y-81510095D01*
X194968761Y-81605333D01*
X195016380Y-81748190D01*
X195016380Y-81986285D01*
X195016380Y-80462476D02*
X195016380Y-81033904D01*
X195016380Y-80748190D02*
X194016380Y-80748190D01*
X194159238Y-80843428D01*
X194254476Y-80938666D01*
X194302095Y-81033904D01*
X194111619Y-80081523D02*
X194064000Y-80033904D01*
X194016380Y-79938666D01*
X194016380Y-79700571D01*
X194064000Y-79605333D01*
X194111619Y-79557714D01*
X194206857Y-79510095D01*
X194302095Y-79510095D01*
X194444952Y-79557714D01*
X195016380Y-80129142D01*
X195016380Y-79510095D01*
X185872380Y-81986285D02*
X184872380Y-81986285D01*
X184872380Y-81748190D01*
X184920000Y-81605333D01*
X185015238Y-81510095D01*
X185110476Y-81462476D01*
X185300952Y-81414857D01*
X185443809Y-81414857D01*
X185634285Y-81462476D01*
X185729523Y-81510095D01*
X185824761Y-81605333D01*
X185872380Y-81748190D01*
X185872380Y-81986285D01*
X185872380Y-80462476D02*
X185872380Y-81033904D01*
X185872380Y-80748190D02*
X184872380Y-80748190D01*
X185015238Y-80843428D01*
X185110476Y-80938666D01*
X185158095Y-81033904D01*
X185872380Y-79510095D02*
X185872380Y-80081523D01*
X185872380Y-79795809D02*
X184872380Y-79795809D01*
X185015238Y-79891047D01*
X185110476Y-79986285D01*
X185158095Y-80081523D01*
X177236380Y-81986285D02*
X176236380Y-81986285D01*
X176236380Y-81748190D01*
X176284000Y-81605333D01*
X176379238Y-81510095D01*
X176474476Y-81462476D01*
X176664952Y-81414857D01*
X176807809Y-81414857D01*
X176998285Y-81462476D01*
X177093523Y-81510095D01*
X177188761Y-81605333D01*
X177236380Y-81748190D01*
X177236380Y-81986285D01*
X177236380Y-80462476D02*
X177236380Y-81033904D01*
X177236380Y-80748190D02*
X176236380Y-80748190D01*
X176379238Y-80843428D01*
X176474476Y-80938666D01*
X176522095Y-81033904D01*
X176236380Y-79843428D02*
X176236380Y-79748190D01*
X176284000Y-79652952D01*
X176331619Y-79605333D01*
X176426857Y-79557714D01*
X176617333Y-79510095D01*
X176855428Y-79510095D01*
X177045904Y-79557714D01*
X177141142Y-79605333D01*
X177188761Y-79652952D01*
X177236380Y-79748190D01*
X177236380Y-79843428D01*
X177188761Y-79938666D01*
X177141142Y-79986285D01*
X177045904Y-80033904D01*
X176855428Y-80081523D01*
X176617333Y-80081523D01*
X176426857Y-80033904D01*
X176331619Y-79986285D01*
X176284000Y-79938666D01*
X176236380Y-79843428D01*
X168092380Y-81510095D02*
X167092380Y-81510095D01*
X167092380Y-81272000D01*
X167140000Y-81129142D01*
X167235238Y-81033904D01*
X167330476Y-80986285D01*
X167520952Y-80938666D01*
X167663809Y-80938666D01*
X167854285Y-80986285D01*
X167949523Y-81033904D01*
X168044761Y-81129142D01*
X168092380Y-81272000D01*
X168092380Y-81510095D01*
X168092380Y-80462476D02*
X168092380Y-80272000D01*
X168044761Y-80176761D01*
X167997142Y-80129142D01*
X167854285Y-80033904D01*
X167663809Y-79986285D01*
X167282857Y-79986285D01*
X167187619Y-80033904D01*
X167140000Y-80081523D01*
X167092380Y-80176761D01*
X167092380Y-80367238D01*
X167140000Y-80462476D01*
X167187619Y-80510095D01*
X167282857Y-80557714D01*
X167520952Y-80557714D01*
X167616190Y-80510095D01*
X167663809Y-80462476D01*
X167711428Y-80367238D01*
X167711428Y-80176761D01*
X167663809Y-80081523D01*
X167616190Y-80033904D01*
X167520952Y-79986285D01*
X159456380Y-81510095D02*
X158456380Y-81510095D01*
X158456380Y-81272000D01*
X158504000Y-81129142D01*
X158599238Y-81033904D01*
X158694476Y-80986285D01*
X158884952Y-80938666D01*
X159027809Y-80938666D01*
X159218285Y-80986285D01*
X159313523Y-81033904D01*
X159408761Y-81129142D01*
X159456380Y-81272000D01*
X159456380Y-81510095D01*
X158884952Y-80367238D02*
X158837333Y-80462476D01*
X158789714Y-80510095D01*
X158694476Y-80557714D01*
X158646857Y-80557714D01*
X158551619Y-80510095D01*
X158504000Y-80462476D01*
X158456380Y-80367238D01*
X158456380Y-80176761D01*
X158504000Y-80081523D01*
X158551619Y-80033904D01*
X158646857Y-79986285D01*
X158694476Y-79986285D01*
X158789714Y-80033904D01*
X158837333Y-80081523D01*
X158884952Y-80176761D01*
X158884952Y-80367238D01*
X158932571Y-80462476D01*
X158980190Y-80510095D01*
X159075428Y-80557714D01*
X159265904Y-80557714D01*
X159361142Y-80510095D01*
X159408761Y-80462476D01*
X159456380Y-80367238D01*
X159456380Y-80176761D01*
X159408761Y-80081523D01*
X159361142Y-80033904D01*
X159265904Y-79986285D01*
X159075428Y-79986285D01*
X158980190Y-80033904D01*
X158932571Y-80081523D01*
X158884952Y-80176761D01*
X212796380Y-74398095D02*
X211796380Y-74398095D01*
X211796380Y-74160000D01*
X211844000Y-74017142D01*
X211939238Y-73921904D01*
X212034476Y-73874285D01*
X212224952Y-73826666D01*
X212367809Y-73826666D01*
X212558285Y-73874285D01*
X212653523Y-73921904D01*
X212748761Y-74017142D01*
X212796380Y-74160000D01*
X212796380Y-74398095D01*
X211796380Y-73493333D02*
X211796380Y-72826666D01*
X212796380Y-73255238D01*
X203652380Y-74398095D02*
X202652380Y-74398095D01*
X202652380Y-74160000D01*
X202700000Y-74017142D01*
X202795238Y-73921904D01*
X202890476Y-73874285D01*
X203080952Y-73826666D01*
X203223809Y-73826666D01*
X203414285Y-73874285D01*
X203509523Y-73921904D01*
X203604761Y-74017142D01*
X203652380Y-74160000D01*
X203652380Y-74398095D01*
X202652380Y-72969523D02*
X202652380Y-73160000D01*
X202700000Y-73255238D01*
X202747619Y-73302857D01*
X202890476Y-73398095D01*
X203080952Y-73445714D01*
X203461904Y-73445714D01*
X203557142Y-73398095D01*
X203604761Y-73350476D01*
X203652380Y-73255238D01*
X203652380Y-73064761D01*
X203604761Y-72969523D01*
X203557142Y-72921904D01*
X203461904Y-72874285D01*
X203223809Y-72874285D01*
X203128571Y-72921904D01*
X203080952Y-72969523D01*
X203033333Y-73064761D01*
X203033333Y-73255238D01*
X203080952Y-73350476D01*
X203128571Y-73398095D01*
X203223809Y-73445714D01*
X195016380Y-74398095D02*
X194016380Y-74398095D01*
X194016380Y-74160000D01*
X194064000Y-74017142D01*
X194159238Y-73921904D01*
X194254476Y-73874285D01*
X194444952Y-73826666D01*
X194587809Y-73826666D01*
X194778285Y-73874285D01*
X194873523Y-73921904D01*
X194968761Y-74017142D01*
X195016380Y-74160000D01*
X195016380Y-74398095D01*
X194016380Y-72921904D02*
X194016380Y-73398095D01*
X194492571Y-73445714D01*
X194444952Y-73398095D01*
X194397333Y-73302857D01*
X194397333Y-73064761D01*
X194444952Y-72969523D01*
X194492571Y-72921904D01*
X194587809Y-72874285D01*
X194825904Y-72874285D01*
X194921142Y-72921904D01*
X194968761Y-72969523D01*
X195016380Y-73064761D01*
X195016380Y-73302857D01*
X194968761Y-73398095D01*
X194921142Y-73445714D01*
X185872380Y-74398095D02*
X184872380Y-74398095D01*
X184872380Y-74160000D01*
X184920000Y-74017142D01*
X185015238Y-73921904D01*
X185110476Y-73874285D01*
X185300952Y-73826666D01*
X185443809Y-73826666D01*
X185634285Y-73874285D01*
X185729523Y-73921904D01*
X185824761Y-74017142D01*
X185872380Y-74160000D01*
X185872380Y-74398095D01*
X185205714Y-72969523D02*
X185872380Y-72969523D01*
X184824761Y-73207619D02*
X185539047Y-73445714D01*
X185539047Y-72826666D01*
X177236380Y-74398095D02*
X176236380Y-74398095D01*
X176236380Y-74160000D01*
X176284000Y-74017142D01*
X176379238Y-73921904D01*
X176474476Y-73874285D01*
X176664952Y-73826666D01*
X176807809Y-73826666D01*
X176998285Y-73874285D01*
X177093523Y-73921904D01*
X177188761Y-74017142D01*
X177236380Y-74160000D01*
X177236380Y-74398095D01*
X176236380Y-73493333D02*
X176236380Y-72874285D01*
X176617333Y-73207619D01*
X176617333Y-73064761D01*
X176664952Y-72969523D01*
X176712571Y-72921904D01*
X176807809Y-72874285D01*
X177045904Y-72874285D01*
X177141142Y-72921904D01*
X177188761Y-72969523D01*
X177236380Y-73064761D01*
X177236380Y-73350476D01*
X177188761Y-73445714D01*
X177141142Y-73493333D01*
X168092380Y-74398095D02*
X167092380Y-74398095D01*
X167092380Y-74160000D01*
X167140000Y-74017142D01*
X167235238Y-73921904D01*
X167330476Y-73874285D01*
X167520952Y-73826666D01*
X167663809Y-73826666D01*
X167854285Y-73874285D01*
X167949523Y-73921904D01*
X168044761Y-74017142D01*
X168092380Y-74160000D01*
X168092380Y-74398095D01*
X167187619Y-73445714D02*
X167140000Y-73398095D01*
X167092380Y-73302857D01*
X167092380Y-73064761D01*
X167140000Y-72969523D01*
X167187619Y-72921904D01*
X167282857Y-72874285D01*
X167378095Y-72874285D01*
X167520952Y-72921904D01*
X168092380Y-73493333D01*
X168092380Y-72874285D01*
X159456380Y-74398095D02*
X158456380Y-74398095D01*
X158456380Y-74160000D01*
X158504000Y-74017142D01*
X158599238Y-73921904D01*
X158694476Y-73874285D01*
X158884952Y-73826666D01*
X159027809Y-73826666D01*
X159218285Y-73874285D01*
X159313523Y-73921904D01*
X159408761Y-74017142D01*
X159456380Y-74160000D01*
X159456380Y-74398095D01*
X159456380Y-72874285D02*
X159456380Y-73445714D01*
X159456380Y-73160000D02*
X158456380Y-73160000D01*
X158599238Y-73255238D01*
X158694476Y-73350476D01*
X158742095Y-73445714D01*
X164441142Y-47918666D02*
X164488761Y-47966285D01*
X164536380Y-48109142D01*
X164536380Y-48204380D01*
X164488761Y-48347238D01*
X164393523Y-48442476D01*
X164298285Y-48490095D01*
X164107809Y-48537714D01*
X163964952Y-48537714D01*
X163774476Y-48490095D01*
X163679238Y-48442476D01*
X163584000Y-48347238D01*
X163536380Y-48204380D01*
X163536380Y-48109142D01*
X163584000Y-47966285D01*
X163631619Y-47918666D01*
X164536380Y-46966285D02*
X164536380Y-47537714D01*
X164536380Y-47252000D02*
X163536380Y-47252000D01*
X163679238Y-47347238D01*
X163774476Y-47442476D01*
X163822095Y-47537714D01*
M02*
