G04 #@! TF.GenerationSoftware,KiCad,Pcbnew,(5.1.5)-3*
G04 #@! TF.CreationDate,2020-03-12T17:38:11-04:00*
G04 #@! TF.ProjectId,PCB,5043422e-6b69-4636-9164-5f7063625858,rev?*
G04 #@! TF.SameCoordinates,Original*
G04 #@! TF.FileFunction,Soldermask,Bot*
G04 #@! TF.FilePolarity,Negative*
%FSLAX46Y46*%
G04 Gerber Fmt 4.6, Leading zero omitted, Abs format (unit mm)*
G04 Created by KiCad (PCBNEW (5.1.5)-3) date 2020-03-12 17:38:11*
%MOMM*%
%LPD*%
G04 APERTURE LIST*
%ADD10C,0.100000*%
G04 APERTURE END LIST*
D10*
G36*
X146539000Y-149441000D02*
G01*
X144037000Y-149441000D01*
X144037000Y-147739000D01*
X146539000Y-147739000D01*
X146539000Y-149441000D01*
G37*
G36*
X138234823Y-147751313D02*
G01*
X138395242Y-147799976D01*
X138527906Y-147870886D01*
X138543078Y-147878996D01*
X138672659Y-147985341D01*
X138779004Y-148114922D01*
X138779005Y-148114924D01*
X138858024Y-148262758D01*
X138906687Y-148423177D01*
X138923117Y-148590000D01*
X138906687Y-148756823D01*
X138858024Y-148917242D01*
X138787114Y-149049906D01*
X138779004Y-149065078D01*
X138672659Y-149194659D01*
X138543078Y-149301004D01*
X138543076Y-149301005D01*
X138395242Y-149380024D01*
X138234823Y-149428687D01*
X138109804Y-149441000D01*
X137226196Y-149441000D01*
X137101177Y-149428687D01*
X136940758Y-149380024D01*
X136792924Y-149301005D01*
X136792922Y-149301004D01*
X136663341Y-149194659D01*
X136556996Y-149065078D01*
X136548886Y-149049906D01*
X136477976Y-148917242D01*
X136429313Y-148756823D01*
X136412883Y-148590000D01*
X136429313Y-148423177D01*
X136477976Y-148262758D01*
X136556995Y-148114924D01*
X136556996Y-148114922D01*
X136663341Y-147985341D01*
X136792922Y-147878996D01*
X136808094Y-147870886D01*
X136940758Y-147799976D01*
X137101177Y-147751313D01*
X137226196Y-147739000D01*
X138109804Y-147739000D01*
X138234823Y-147751313D01*
G37*
G36*
X119946823Y-147751313D02*
G01*
X120107242Y-147799976D01*
X120239906Y-147870886D01*
X120255078Y-147878996D01*
X120384659Y-147985341D01*
X120491004Y-148114922D01*
X120491005Y-148114924D01*
X120570024Y-148262758D01*
X120618687Y-148423177D01*
X120635117Y-148590000D01*
X120618687Y-148756823D01*
X120570024Y-148917242D01*
X120499114Y-149049906D01*
X120491004Y-149065078D01*
X120384659Y-149194659D01*
X120255078Y-149301004D01*
X120255076Y-149301005D01*
X120107242Y-149380024D01*
X119946823Y-149428687D01*
X119821804Y-149441000D01*
X118938196Y-149441000D01*
X118813177Y-149428687D01*
X118652758Y-149380024D01*
X118504924Y-149301005D01*
X118504922Y-149301004D01*
X118375341Y-149194659D01*
X118268996Y-149065078D01*
X118260886Y-149049906D01*
X118189976Y-148917242D01*
X118141313Y-148756823D01*
X118124883Y-148590000D01*
X118141313Y-148423177D01*
X118189976Y-148262758D01*
X118268995Y-148114924D01*
X118268996Y-148114922D01*
X118375341Y-147985341D01*
X118504922Y-147878996D01*
X118520094Y-147870886D01*
X118652758Y-147799976D01*
X118813177Y-147751313D01*
X118938196Y-147739000D01*
X119821804Y-147739000D01*
X119946823Y-147751313D01*
G37*
G36*
X112326823Y-147751313D02*
G01*
X112487242Y-147799976D01*
X112619906Y-147870886D01*
X112635078Y-147878996D01*
X112764659Y-147985341D01*
X112871004Y-148114922D01*
X112871005Y-148114924D01*
X112950024Y-148262758D01*
X112998687Y-148423177D01*
X113015117Y-148590000D01*
X112998687Y-148756823D01*
X112950024Y-148917242D01*
X112879114Y-149049906D01*
X112871004Y-149065078D01*
X112764659Y-149194659D01*
X112635078Y-149301004D01*
X112635076Y-149301005D01*
X112487242Y-149380024D01*
X112326823Y-149428687D01*
X112201804Y-149441000D01*
X111318196Y-149441000D01*
X111193177Y-149428687D01*
X111032758Y-149380024D01*
X110884924Y-149301005D01*
X110884922Y-149301004D01*
X110755341Y-149194659D01*
X110648996Y-149065078D01*
X110640886Y-149049906D01*
X110569976Y-148917242D01*
X110521313Y-148756823D01*
X110504883Y-148590000D01*
X110521313Y-148423177D01*
X110569976Y-148262758D01*
X110648995Y-148114924D01*
X110648996Y-148114922D01*
X110755341Y-147985341D01*
X110884922Y-147878996D01*
X110900094Y-147870886D01*
X111032758Y-147799976D01*
X111193177Y-147751313D01*
X111318196Y-147739000D01*
X112201804Y-147739000D01*
X112326823Y-147751313D01*
G37*
G36*
X153918228Y-147136703D02*
G01*
X154073100Y-147200853D01*
X154212481Y-147293985D01*
X154331015Y-147412519D01*
X154424147Y-147551900D01*
X154488297Y-147706772D01*
X154521000Y-147871184D01*
X154521000Y-148038816D01*
X154488297Y-148203228D01*
X154424147Y-148358100D01*
X154331015Y-148497481D01*
X154212481Y-148616015D01*
X154073100Y-148709147D01*
X153918228Y-148773297D01*
X153753816Y-148806000D01*
X153586184Y-148806000D01*
X153421772Y-148773297D01*
X153266900Y-148709147D01*
X153127519Y-148616015D01*
X153008985Y-148497481D01*
X152915853Y-148358100D01*
X152851703Y-148203228D01*
X152819000Y-148038816D01*
X152819000Y-147871184D01*
X152851703Y-147706772D01*
X152915853Y-147551900D01*
X153008985Y-147412519D01*
X153127519Y-147293985D01*
X153266900Y-147200853D01*
X153421772Y-147136703D01*
X153586184Y-147104000D01*
X153753816Y-147104000D01*
X153918228Y-147136703D01*
G37*
G36*
X160268228Y-147136703D02*
G01*
X160423100Y-147200853D01*
X160562481Y-147293985D01*
X160681015Y-147412519D01*
X160774147Y-147551900D01*
X160838297Y-147706772D01*
X160871000Y-147871184D01*
X160871000Y-148038816D01*
X160838297Y-148203228D01*
X160774147Y-148358100D01*
X160681015Y-148497481D01*
X160562481Y-148616015D01*
X160423100Y-148709147D01*
X160268228Y-148773297D01*
X160103816Y-148806000D01*
X159936184Y-148806000D01*
X159771772Y-148773297D01*
X159616900Y-148709147D01*
X159477519Y-148616015D01*
X159358985Y-148497481D01*
X159265853Y-148358100D01*
X159201703Y-148203228D01*
X159169000Y-148038816D01*
X159169000Y-147871184D01*
X159201703Y-147706772D01*
X159265853Y-147551900D01*
X159358985Y-147412519D01*
X159477519Y-147293985D01*
X159616900Y-147200853D01*
X159771772Y-147136703D01*
X159936184Y-147104000D01*
X160103816Y-147104000D01*
X160268228Y-147136703D01*
G37*
G36*
X126631000Y-146951000D02*
G01*
X124829000Y-146951000D01*
X124829000Y-145149000D01*
X126631000Y-145149000D01*
X126631000Y-146951000D01*
G37*
G36*
X128383512Y-145153927D02*
G01*
X128532812Y-145183624D01*
X128696784Y-145251544D01*
X128844354Y-145350147D01*
X128969853Y-145475646D01*
X129068456Y-145623216D01*
X129136376Y-145787188D01*
X129171000Y-145961259D01*
X129171000Y-146138741D01*
X129136376Y-146312812D01*
X129068456Y-146476784D01*
X128969853Y-146624354D01*
X128844354Y-146749853D01*
X128696784Y-146848456D01*
X128532812Y-146916376D01*
X128383512Y-146946073D01*
X128358742Y-146951000D01*
X128181258Y-146951000D01*
X128156488Y-146946073D01*
X128007188Y-146916376D01*
X127843216Y-146848456D01*
X127695646Y-146749853D01*
X127570147Y-146624354D01*
X127471544Y-146476784D01*
X127403624Y-146312812D01*
X127369000Y-146138741D01*
X127369000Y-145961259D01*
X127403624Y-145787188D01*
X127471544Y-145623216D01*
X127570147Y-145475646D01*
X127695646Y-145350147D01*
X127843216Y-145251544D01*
X128007188Y-145183624D01*
X128156488Y-145153927D01*
X128181258Y-145149000D01*
X128358742Y-145149000D01*
X128383512Y-145153927D01*
G37*
G36*
X145854823Y-145211313D02*
G01*
X146015242Y-145259976D01*
X146147906Y-145330886D01*
X146163078Y-145338996D01*
X146292659Y-145445341D01*
X146399004Y-145574922D01*
X146399005Y-145574924D01*
X146478024Y-145722758D01*
X146526687Y-145883177D01*
X146543117Y-146050000D01*
X146526687Y-146216823D01*
X146478024Y-146377242D01*
X146407114Y-146509906D01*
X146399004Y-146525078D01*
X146292659Y-146654659D01*
X146163078Y-146761004D01*
X146163076Y-146761005D01*
X146015242Y-146840024D01*
X145854823Y-146888687D01*
X145729804Y-146901000D01*
X144846196Y-146901000D01*
X144721177Y-146888687D01*
X144560758Y-146840024D01*
X144412924Y-146761005D01*
X144412922Y-146761004D01*
X144283341Y-146654659D01*
X144176996Y-146525078D01*
X144168886Y-146509906D01*
X144097976Y-146377242D01*
X144049313Y-146216823D01*
X144032883Y-146050000D01*
X144049313Y-145883177D01*
X144097976Y-145722758D01*
X144176995Y-145574924D01*
X144176996Y-145574922D01*
X144283341Y-145445341D01*
X144412922Y-145338996D01*
X144428094Y-145330886D01*
X144560758Y-145259976D01*
X144721177Y-145211313D01*
X144846196Y-145199000D01*
X145729804Y-145199000D01*
X145854823Y-145211313D01*
G37*
G36*
X138234823Y-145211313D02*
G01*
X138395242Y-145259976D01*
X138527906Y-145330886D01*
X138543078Y-145338996D01*
X138672659Y-145445341D01*
X138779004Y-145574922D01*
X138779005Y-145574924D01*
X138858024Y-145722758D01*
X138906687Y-145883177D01*
X138923117Y-146050000D01*
X138906687Y-146216823D01*
X138858024Y-146377242D01*
X138787114Y-146509906D01*
X138779004Y-146525078D01*
X138672659Y-146654659D01*
X138543078Y-146761004D01*
X138543076Y-146761005D01*
X138395242Y-146840024D01*
X138234823Y-146888687D01*
X138109804Y-146901000D01*
X137226196Y-146901000D01*
X137101177Y-146888687D01*
X136940758Y-146840024D01*
X136792924Y-146761005D01*
X136792922Y-146761004D01*
X136663341Y-146654659D01*
X136556996Y-146525078D01*
X136548886Y-146509906D01*
X136477976Y-146377242D01*
X136429313Y-146216823D01*
X136412883Y-146050000D01*
X136429313Y-145883177D01*
X136477976Y-145722758D01*
X136556995Y-145574924D01*
X136556996Y-145574922D01*
X136663341Y-145445341D01*
X136792922Y-145338996D01*
X136808094Y-145330886D01*
X136940758Y-145259976D01*
X137101177Y-145211313D01*
X137226196Y-145199000D01*
X138109804Y-145199000D01*
X138234823Y-145211313D01*
G37*
G36*
X119946823Y-145211313D02*
G01*
X120107242Y-145259976D01*
X120239906Y-145330886D01*
X120255078Y-145338996D01*
X120384659Y-145445341D01*
X120491004Y-145574922D01*
X120491005Y-145574924D01*
X120570024Y-145722758D01*
X120618687Y-145883177D01*
X120635117Y-146050000D01*
X120618687Y-146216823D01*
X120570024Y-146377242D01*
X120499114Y-146509906D01*
X120491004Y-146525078D01*
X120384659Y-146654659D01*
X120255078Y-146761004D01*
X120255076Y-146761005D01*
X120107242Y-146840024D01*
X119946823Y-146888687D01*
X119821804Y-146901000D01*
X118938196Y-146901000D01*
X118813177Y-146888687D01*
X118652758Y-146840024D01*
X118504924Y-146761005D01*
X118504922Y-146761004D01*
X118375341Y-146654659D01*
X118268996Y-146525078D01*
X118260886Y-146509906D01*
X118189976Y-146377242D01*
X118141313Y-146216823D01*
X118124883Y-146050000D01*
X118141313Y-145883177D01*
X118189976Y-145722758D01*
X118268995Y-145574924D01*
X118268996Y-145574922D01*
X118375341Y-145445341D01*
X118504922Y-145338996D01*
X118520094Y-145330886D01*
X118652758Y-145259976D01*
X118813177Y-145211313D01*
X118938196Y-145199000D01*
X119821804Y-145199000D01*
X119946823Y-145211313D01*
G37*
G36*
X112326823Y-145211313D02*
G01*
X112487242Y-145259976D01*
X112619906Y-145330886D01*
X112635078Y-145338996D01*
X112764659Y-145445341D01*
X112871004Y-145574922D01*
X112871005Y-145574924D01*
X112950024Y-145722758D01*
X112998687Y-145883177D01*
X113015117Y-146050000D01*
X112998687Y-146216823D01*
X112950024Y-146377242D01*
X112879114Y-146509906D01*
X112871004Y-146525078D01*
X112764659Y-146654659D01*
X112635078Y-146761004D01*
X112635076Y-146761005D01*
X112487242Y-146840024D01*
X112326823Y-146888687D01*
X112201804Y-146901000D01*
X111318196Y-146901000D01*
X111193177Y-146888687D01*
X111032758Y-146840024D01*
X110884924Y-146761005D01*
X110884922Y-146761004D01*
X110755341Y-146654659D01*
X110648996Y-146525078D01*
X110640886Y-146509906D01*
X110569976Y-146377242D01*
X110521313Y-146216823D01*
X110504883Y-146050000D01*
X110521313Y-145883177D01*
X110569976Y-145722758D01*
X110648995Y-145574924D01*
X110648996Y-145574922D01*
X110755341Y-145445341D01*
X110884922Y-145338996D01*
X110900094Y-145330886D01*
X111032758Y-145259976D01*
X111193177Y-145211313D01*
X111318196Y-145199000D01*
X112201804Y-145199000D01*
X112326823Y-145211313D01*
G37*
G36*
X105041000Y-145681000D02*
G01*
X103239000Y-145681000D01*
X103239000Y-143879000D01*
X105041000Y-143879000D01*
X105041000Y-145681000D01*
G37*
G36*
X166001000Y-145681000D02*
G01*
X164199000Y-145681000D01*
X164199000Y-143879000D01*
X166001000Y-143879000D01*
X166001000Y-145681000D01*
G37*
G36*
X128383512Y-142613927D02*
G01*
X128532812Y-142643624D01*
X128696784Y-142711544D01*
X128844354Y-142810147D01*
X128969853Y-142935646D01*
X129068456Y-143083216D01*
X129136376Y-143247188D01*
X129171000Y-143421259D01*
X129171000Y-143598741D01*
X129136376Y-143772812D01*
X129068456Y-143936784D01*
X128969853Y-144084354D01*
X128844354Y-144209853D01*
X128696784Y-144308456D01*
X128532812Y-144376376D01*
X128383512Y-144406073D01*
X128358742Y-144411000D01*
X128181258Y-144411000D01*
X128156488Y-144406073D01*
X128007188Y-144376376D01*
X127843216Y-144308456D01*
X127695646Y-144209853D01*
X127570147Y-144084354D01*
X127471544Y-143936784D01*
X127403624Y-143772812D01*
X127369000Y-143598741D01*
X127369000Y-143421259D01*
X127403624Y-143247188D01*
X127471544Y-143083216D01*
X127570147Y-142935646D01*
X127695646Y-142810147D01*
X127843216Y-142711544D01*
X128007188Y-142643624D01*
X128156488Y-142613927D01*
X128181258Y-142609000D01*
X128358742Y-142609000D01*
X128383512Y-142613927D01*
G37*
G36*
X125843512Y-142613927D02*
G01*
X125992812Y-142643624D01*
X126156784Y-142711544D01*
X126304354Y-142810147D01*
X126429853Y-142935646D01*
X126528456Y-143083216D01*
X126596376Y-143247188D01*
X126631000Y-143421259D01*
X126631000Y-143598741D01*
X126596376Y-143772812D01*
X126528456Y-143936784D01*
X126429853Y-144084354D01*
X126304354Y-144209853D01*
X126156784Y-144308456D01*
X125992812Y-144376376D01*
X125843512Y-144406073D01*
X125818742Y-144411000D01*
X125641258Y-144411000D01*
X125616488Y-144406073D01*
X125467188Y-144376376D01*
X125303216Y-144308456D01*
X125155646Y-144209853D01*
X125030147Y-144084354D01*
X124931544Y-143936784D01*
X124863624Y-143772812D01*
X124829000Y-143598741D01*
X124829000Y-143421259D01*
X124863624Y-143247188D01*
X124931544Y-143083216D01*
X125030147Y-142935646D01*
X125155646Y-142810147D01*
X125303216Y-142711544D01*
X125467188Y-142643624D01*
X125616488Y-142613927D01*
X125641258Y-142609000D01*
X125818742Y-142609000D01*
X125843512Y-142613927D01*
G37*
G36*
X138234823Y-142671313D02*
G01*
X138395242Y-142719976D01*
X138527906Y-142790886D01*
X138543078Y-142798996D01*
X138672659Y-142905341D01*
X138779004Y-143034922D01*
X138779005Y-143034924D01*
X138858024Y-143182758D01*
X138906687Y-143343177D01*
X138923117Y-143510000D01*
X138906687Y-143676823D01*
X138858024Y-143837242D01*
X138787114Y-143969906D01*
X138779004Y-143985078D01*
X138672659Y-144114659D01*
X138543078Y-144221004D01*
X138543076Y-144221005D01*
X138395242Y-144300024D01*
X138234823Y-144348687D01*
X138109804Y-144361000D01*
X137226196Y-144361000D01*
X137101177Y-144348687D01*
X136940758Y-144300024D01*
X136792924Y-144221005D01*
X136792922Y-144221004D01*
X136663341Y-144114659D01*
X136556996Y-143985078D01*
X136548886Y-143969906D01*
X136477976Y-143837242D01*
X136429313Y-143676823D01*
X136412883Y-143510000D01*
X136429313Y-143343177D01*
X136477976Y-143182758D01*
X136556995Y-143034924D01*
X136556996Y-143034922D01*
X136663341Y-142905341D01*
X136792922Y-142798996D01*
X136808094Y-142790886D01*
X136940758Y-142719976D01*
X137101177Y-142671313D01*
X137226196Y-142659000D01*
X138109804Y-142659000D01*
X138234823Y-142671313D01*
G37*
G36*
X145854823Y-142671313D02*
G01*
X146015242Y-142719976D01*
X146147906Y-142790886D01*
X146163078Y-142798996D01*
X146292659Y-142905341D01*
X146399004Y-143034922D01*
X146399005Y-143034924D01*
X146478024Y-143182758D01*
X146526687Y-143343177D01*
X146543117Y-143510000D01*
X146526687Y-143676823D01*
X146478024Y-143837242D01*
X146407114Y-143969906D01*
X146399004Y-143985078D01*
X146292659Y-144114659D01*
X146163078Y-144221004D01*
X146163076Y-144221005D01*
X146015242Y-144300024D01*
X145854823Y-144348687D01*
X145729804Y-144361000D01*
X144846196Y-144361000D01*
X144721177Y-144348687D01*
X144560758Y-144300024D01*
X144412924Y-144221005D01*
X144412922Y-144221004D01*
X144283341Y-144114659D01*
X144176996Y-143985078D01*
X144168886Y-143969906D01*
X144097976Y-143837242D01*
X144049313Y-143676823D01*
X144032883Y-143510000D01*
X144049313Y-143343177D01*
X144097976Y-143182758D01*
X144176995Y-143034924D01*
X144176996Y-143034922D01*
X144283341Y-142905341D01*
X144412922Y-142798996D01*
X144428094Y-142790886D01*
X144560758Y-142719976D01*
X144721177Y-142671313D01*
X144846196Y-142659000D01*
X145729804Y-142659000D01*
X145854823Y-142671313D01*
G37*
G36*
X119946823Y-142671313D02*
G01*
X120107242Y-142719976D01*
X120239906Y-142790886D01*
X120255078Y-142798996D01*
X120384659Y-142905341D01*
X120491004Y-143034922D01*
X120491005Y-143034924D01*
X120570024Y-143182758D01*
X120618687Y-143343177D01*
X120635117Y-143510000D01*
X120618687Y-143676823D01*
X120570024Y-143837242D01*
X120499114Y-143969906D01*
X120491004Y-143985078D01*
X120384659Y-144114659D01*
X120255078Y-144221004D01*
X120255076Y-144221005D01*
X120107242Y-144300024D01*
X119946823Y-144348687D01*
X119821804Y-144361000D01*
X118938196Y-144361000D01*
X118813177Y-144348687D01*
X118652758Y-144300024D01*
X118504924Y-144221005D01*
X118504922Y-144221004D01*
X118375341Y-144114659D01*
X118268996Y-143985078D01*
X118260886Y-143969906D01*
X118189976Y-143837242D01*
X118141313Y-143676823D01*
X118124883Y-143510000D01*
X118141313Y-143343177D01*
X118189976Y-143182758D01*
X118268995Y-143034924D01*
X118268996Y-143034922D01*
X118375341Y-142905341D01*
X118504922Y-142798996D01*
X118520094Y-142790886D01*
X118652758Y-142719976D01*
X118813177Y-142671313D01*
X118938196Y-142659000D01*
X119821804Y-142659000D01*
X119946823Y-142671313D01*
G37*
G36*
X112326823Y-142671313D02*
G01*
X112487242Y-142719976D01*
X112619906Y-142790886D01*
X112635078Y-142798996D01*
X112764659Y-142905341D01*
X112871004Y-143034922D01*
X112871005Y-143034924D01*
X112950024Y-143182758D01*
X112998687Y-143343177D01*
X113015117Y-143510000D01*
X112998687Y-143676823D01*
X112950024Y-143837242D01*
X112879114Y-143969906D01*
X112871004Y-143985078D01*
X112764659Y-144114659D01*
X112635078Y-144221004D01*
X112635076Y-144221005D01*
X112487242Y-144300024D01*
X112326823Y-144348687D01*
X112201804Y-144361000D01*
X111318196Y-144361000D01*
X111193177Y-144348687D01*
X111032758Y-144300024D01*
X110884924Y-144221005D01*
X110884922Y-144221004D01*
X110755341Y-144114659D01*
X110648996Y-143985078D01*
X110640886Y-143969906D01*
X110569976Y-143837242D01*
X110521313Y-143676823D01*
X110504883Y-143510000D01*
X110521313Y-143343177D01*
X110569976Y-143182758D01*
X110648995Y-143034924D01*
X110648996Y-143034922D01*
X110755341Y-142905341D01*
X110884922Y-142798996D01*
X110900094Y-142790886D01*
X111032758Y-142719976D01*
X111193177Y-142671313D01*
X111318196Y-142659000D01*
X112201804Y-142659000D01*
X112326823Y-142671313D01*
G37*
G36*
X104253512Y-141343927D02*
G01*
X104402812Y-141373624D01*
X104566784Y-141441544D01*
X104714354Y-141540147D01*
X104839853Y-141665646D01*
X104938456Y-141813216D01*
X105006376Y-141977188D01*
X105041000Y-142151259D01*
X105041000Y-142328741D01*
X105006376Y-142502812D01*
X104938456Y-142666784D01*
X104839853Y-142814354D01*
X104714354Y-142939853D01*
X104566784Y-143038456D01*
X104402812Y-143106376D01*
X104253512Y-143136073D01*
X104228742Y-143141000D01*
X104051258Y-143141000D01*
X104026488Y-143136073D01*
X103877188Y-143106376D01*
X103713216Y-143038456D01*
X103565646Y-142939853D01*
X103440147Y-142814354D01*
X103341544Y-142666784D01*
X103273624Y-142502812D01*
X103239000Y-142328741D01*
X103239000Y-142151259D01*
X103273624Y-141977188D01*
X103341544Y-141813216D01*
X103440147Y-141665646D01*
X103565646Y-141540147D01*
X103713216Y-141441544D01*
X103877188Y-141373624D01*
X104026488Y-141343927D01*
X104051258Y-141339000D01*
X104228742Y-141339000D01*
X104253512Y-141343927D01*
G37*
G36*
X165213512Y-141343927D02*
G01*
X165362812Y-141373624D01*
X165526784Y-141441544D01*
X165674354Y-141540147D01*
X165799853Y-141665646D01*
X165898456Y-141813216D01*
X165966376Y-141977188D01*
X166001000Y-142151259D01*
X166001000Y-142328741D01*
X165966376Y-142502812D01*
X165898456Y-142666784D01*
X165799853Y-142814354D01*
X165674354Y-142939853D01*
X165526784Y-143038456D01*
X165362812Y-143106376D01*
X165213512Y-143136073D01*
X165188742Y-143141000D01*
X165011258Y-143141000D01*
X164986488Y-143136073D01*
X164837188Y-143106376D01*
X164673216Y-143038456D01*
X164525646Y-142939853D01*
X164400147Y-142814354D01*
X164301544Y-142666784D01*
X164233624Y-142502812D01*
X164199000Y-142328741D01*
X164199000Y-142151259D01*
X164233624Y-141977188D01*
X164301544Y-141813216D01*
X164400147Y-141665646D01*
X164525646Y-141540147D01*
X164673216Y-141441544D01*
X164837188Y-141373624D01*
X164986488Y-141343927D01*
X165011258Y-141339000D01*
X165188742Y-141339000D01*
X165213512Y-141343927D01*
G37*
G36*
X125843512Y-140073927D02*
G01*
X125992812Y-140103624D01*
X126156784Y-140171544D01*
X126304354Y-140270147D01*
X126429853Y-140395646D01*
X126528456Y-140543216D01*
X126596376Y-140707188D01*
X126631000Y-140881259D01*
X126631000Y-141058741D01*
X126596376Y-141232812D01*
X126528456Y-141396784D01*
X126429853Y-141544354D01*
X126304354Y-141669853D01*
X126156784Y-141768456D01*
X125992812Y-141836376D01*
X125843512Y-141866073D01*
X125818742Y-141871000D01*
X125641258Y-141871000D01*
X125616488Y-141866073D01*
X125467188Y-141836376D01*
X125303216Y-141768456D01*
X125155646Y-141669853D01*
X125030147Y-141544354D01*
X124931544Y-141396784D01*
X124863624Y-141232812D01*
X124829000Y-141058741D01*
X124829000Y-140881259D01*
X124863624Y-140707188D01*
X124931544Y-140543216D01*
X125030147Y-140395646D01*
X125155646Y-140270147D01*
X125303216Y-140171544D01*
X125467188Y-140103624D01*
X125616488Y-140073927D01*
X125641258Y-140069000D01*
X125818742Y-140069000D01*
X125843512Y-140073927D01*
G37*
G36*
X128383512Y-140073927D02*
G01*
X128532812Y-140103624D01*
X128696784Y-140171544D01*
X128844354Y-140270147D01*
X128969853Y-140395646D01*
X129068456Y-140543216D01*
X129136376Y-140707188D01*
X129171000Y-140881259D01*
X129171000Y-141058741D01*
X129136376Y-141232812D01*
X129068456Y-141396784D01*
X128969853Y-141544354D01*
X128844354Y-141669853D01*
X128696784Y-141768456D01*
X128532812Y-141836376D01*
X128383512Y-141866073D01*
X128358742Y-141871000D01*
X128181258Y-141871000D01*
X128156488Y-141866073D01*
X128007188Y-141836376D01*
X127843216Y-141768456D01*
X127695646Y-141669853D01*
X127570147Y-141544354D01*
X127471544Y-141396784D01*
X127403624Y-141232812D01*
X127369000Y-141058741D01*
X127369000Y-140881259D01*
X127403624Y-140707188D01*
X127471544Y-140543216D01*
X127570147Y-140395646D01*
X127695646Y-140270147D01*
X127843216Y-140171544D01*
X128007188Y-140103624D01*
X128156488Y-140073927D01*
X128181258Y-140069000D01*
X128358742Y-140069000D01*
X128383512Y-140073927D01*
G37*
G36*
X145854823Y-140131313D02*
G01*
X146015242Y-140179976D01*
X146147906Y-140250886D01*
X146163078Y-140258996D01*
X146292659Y-140365341D01*
X146399004Y-140494922D01*
X146399005Y-140494924D01*
X146478024Y-140642758D01*
X146526687Y-140803177D01*
X146543117Y-140970000D01*
X146526687Y-141136823D01*
X146478024Y-141297242D01*
X146407114Y-141429906D01*
X146399004Y-141445078D01*
X146292659Y-141574659D01*
X146163078Y-141681004D01*
X146163076Y-141681005D01*
X146015242Y-141760024D01*
X145854823Y-141808687D01*
X145729804Y-141821000D01*
X144846196Y-141821000D01*
X144721177Y-141808687D01*
X144560758Y-141760024D01*
X144412924Y-141681005D01*
X144412922Y-141681004D01*
X144283341Y-141574659D01*
X144176996Y-141445078D01*
X144168886Y-141429906D01*
X144097976Y-141297242D01*
X144049313Y-141136823D01*
X144032883Y-140970000D01*
X144049313Y-140803177D01*
X144097976Y-140642758D01*
X144176995Y-140494924D01*
X144176996Y-140494922D01*
X144283341Y-140365341D01*
X144412922Y-140258996D01*
X144428094Y-140250886D01*
X144560758Y-140179976D01*
X144721177Y-140131313D01*
X144846196Y-140119000D01*
X145729804Y-140119000D01*
X145854823Y-140131313D01*
G37*
G36*
X138234823Y-140131313D02*
G01*
X138395242Y-140179976D01*
X138527906Y-140250886D01*
X138543078Y-140258996D01*
X138672659Y-140365341D01*
X138779004Y-140494922D01*
X138779005Y-140494924D01*
X138858024Y-140642758D01*
X138906687Y-140803177D01*
X138923117Y-140970000D01*
X138906687Y-141136823D01*
X138858024Y-141297242D01*
X138787114Y-141429906D01*
X138779004Y-141445078D01*
X138672659Y-141574659D01*
X138543078Y-141681004D01*
X138543076Y-141681005D01*
X138395242Y-141760024D01*
X138234823Y-141808687D01*
X138109804Y-141821000D01*
X137226196Y-141821000D01*
X137101177Y-141808687D01*
X136940758Y-141760024D01*
X136792924Y-141681005D01*
X136792922Y-141681004D01*
X136663341Y-141574659D01*
X136556996Y-141445078D01*
X136548886Y-141429906D01*
X136477976Y-141297242D01*
X136429313Y-141136823D01*
X136412883Y-140970000D01*
X136429313Y-140803177D01*
X136477976Y-140642758D01*
X136556995Y-140494924D01*
X136556996Y-140494922D01*
X136663341Y-140365341D01*
X136792922Y-140258996D01*
X136808094Y-140250886D01*
X136940758Y-140179976D01*
X137101177Y-140131313D01*
X137226196Y-140119000D01*
X138109804Y-140119000D01*
X138234823Y-140131313D01*
G37*
G36*
X119946823Y-140131313D02*
G01*
X120107242Y-140179976D01*
X120239906Y-140250886D01*
X120255078Y-140258996D01*
X120384659Y-140365341D01*
X120491004Y-140494922D01*
X120491005Y-140494924D01*
X120570024Y-140642758D01*
X120618687Y-140803177D01*
X120635117Y-140970000D01*
X120618687Y-141136823D01*
X120570024Y-141297242D01*
X120499114Y-141429906D01*
X120491004Y-141445078D01*
X120384659Y-141574659D01*
X120255078Y-141681004D01*
X120255076Y-141681005D01*
X120107242Y-141760024D01*
X119946823Y-141808687D01*
X119821804Y-141821000D01*
X118938196Y-141821000D01*
X118813177Y-141808687D01*
X118652758Y-141760024D01*
X118504924Y-141681005D01*
X118504922Y-141681004D01*
X118375341Y-141574659D01*
X118268996Y-141445078D01*
X118260886Y-141429906D01*
X118189976Y-141297242D01*
X118141313Y-141136823D01*
X118124883Y-140970000D01*
X118141313Y-140803177D01*
X118189976Y-140642758D01*
X118268995Y-140494924D01*
X118268996Y-140494922D01*
X118375341Y-140365341D01*
X118504922Y-140258996D01*
X118520094Y-140250886D01*
X118652758Y-140179976D01*
X118813177Y-140131313D01*
X118938196Y-140119000D01*
X119821804Y-140119000D01*
X119946823Y-140131313D01*
G37*
G36*
X112326823Y-140131313D02*
G01*
X112487242Y-140179976D01*
X112619906Y-140250886D01*
X112635078Y-140258996D01*
X112764659Y-140365341D01*
X112871004Y-140494922D01*
X112871005Y-140494924D01*
X112950024Y-140642758D01*
X112998687Y-140803177D01*
X113015117Y-140970000D01*
X112998687Y-141136823D01*
X112950024Y-141297242D01*
X112879114Y-141429906D01*
X112871004Y-141445078D01*
X112764659Y-141574659D01*
X112635078Y-141681004D01*
X112635076Y-141681005D01*
X112487242Y-141760024D01*
X112326823Y-141808687D01*
X112201804Y-141821000D01*
X111318196Y-141821000D01*
X111193177Y-141808687D01*
X111032758Y-141760024D01*
X110884924Y-141681005D01*
X110884922Y-141681004D01*
X110755341Y-141574659D01*
X110648996Y-141445078D01*
X110640886Y-141429906D01*
X110569976Y-141297242D01*
X110521313Y-141136823D01*
X110504883Y-140970000D01*
X110521313Y-140803177D01*
X110569976Y-140642758D01*
X110648995Y-140494924D01*
X110648996Y-140494922D01*
X110755341Y-140365341D01*
X110884922Y-140258996D01*
X110900094Y-140250886D01*
X111032758Y-140179976D01*
X111193177Y-140131313D01*
X111318196Y-140119000D01*
X112201804Y-140119000D01*
X112326823Y-140131313D01*
G37*
G36*
X165213512Y-138803927D02*
G01*
X165362812Y-138833624D01*
X165526784Y-138901544D01*
X165674354Y-139000147D01*
X165799853Y-139125646D01*
X165898456Y-139273216D01*
X165966376Y-139437188D01*
X166001000Y-139611259D01*
X166001000Y-139788741D01*
X165966376Y-139962812D01*
X165898456Y-140126784D01*
X165799853Y-140274354D01*
X165674354Y-140399853D01*
X165526784Y-140498456D01*
X165362812Y-140566376D01*
X165213512Y-140596073D01*
X165188742Y-140601000D01*
X165011258Y-140601000D01*
X164986488Y-140596073D01*
X164837188Y-140566376D01*
X164673216Y-140498456D01*
X164525646Y-140399853D01*
X164400147Y-140274354D01*
X164301544Y-140126784D01*
X164233624Y-139962812D01*
X164199000Y-139788741D01*
X164199000Y-139611259D01*
X164233624Y-139437188D01*
X164301544Y-139273216D01*
X164400147Y-139125646D01*
X164525646Y-139000147D01*
X164673216Y-138901544D01*
X164837188Y-138833624D01*
X164986488Y-138803927D01*
X165011258Y-138799000D01*
X165188742Y-138799000D01*
X165213512Y-138803927D01*
G37*
G36*
X104253512Y-138803927D02*
G01*
X104402812Y-138833624D01*
X104566784Y-138901544D01*
X104714354Y-139000147D01*
X104839853Y-139125646D01*
X104938456Y-139273216D01*
X105006376Y-139437188D01*
X105041000Y-139611259D01*
X105041000Y-139788741D01*
X105006376Y-139962812D01*
X104938456Y-140126784D01*
X104839853Y-140274354D01*
X104714354Y-140399853D01*
X104566784Y-140498456D01*
X104402812Y-140566376D01*
X104253512Y-140596073D01*
X104228742Y-140601000D01*
X104051258Y-140601000D01*
X104026488Y-140596073D01*
X103877188Y-140566376D01*
X103713216Y-140498456D01*
X103565646Y-140399853D01*
X103440147Y-140274354D01*
X103341544Y-140126784D01*
X103273624Y-139962812D01*
X103239000Y-139788741D01*
X103239000Y-139611259D01*
X103273624Y-139437188D01*
X103341544Y-139273216D01*
X103440147Y-139125646D01*
X103565646Y-139000147D01*
X103713216Y-138901544D01*
X103877188Y-138833624D01*
X104026488Y-138803927D01*
X104051258Y-138799000D01*
X104228742Y-138799000D01*
X104253512Y-138803927D01*
G37*
G36*
X119946823Y-137591313D02*
G01*
X120107242Y-137639976D01*
X120239906Y-137710886D01*
X120255078Y-137718996D01*
X120384659Y-137825341D01*
X120491004Y-137954922D01*
X120491005Y-137954924D01*
X120570024Y-138102758D01*
X120618687Y-138263177D01*
X120635117Y-138430000D01*
X120618687Y-138596823D01*
X120570024Y-138757242D01*
X120529197Y-138833624D01*
X120491004Y-138905078D01*
X120384659Y-139034659D01*
X120255078Y-139141004D01*
X120255076Y-139141005D01*
X120107242Y-139220024D01*
X119946823Y-139268687D01*
X119821804Y-139281000D01*
X118938196Y-139281000D01*
X118813177Y-139268687D01*
X118652758Y-139220024D01*
X118504924Y-139141005D01*
X118504922Y-139141004D01*
X118375341Y-139034659D01*
X118268996Y-138905078D01*
X118230803Y-138833624D01*
X118189976Y-138757242D01*
X118141313Y-138596823D01*
X118124883Y-138430000D01*
X118141313Y-138263177D01*
X118189976Y-138102758D01*
X118268995Y-137954924D01*
X118268996Y-137954922D01*
X118375341Y-137825341D01*
X118504922Y-137718996D01*
X118520094Y-137710886D01*
X118652758Y-137639976D01*
X118813177Y-137591313D01*
X118938196Y-137579000D01*
X119821804Y-137579000D01*
X119946823Y-137591313D01*
G37*
G36*
X145854823Y-137591313D02*
G01*
X146015242Y-137639976D01*
X146147906Y-137710886D01*
X146163078Y-137718996D01*
X146292659Y-137825341D01*
X146399004Y-137954922D01*
X146399005Y-137954924D01*
X146478024Y-138102758D01*
X146526687Y-138263177D01*
X146543117Y-138430000D01*
X146526687Y-138596823D01*
X146478024Y-138757242D01*
X146437197Y-138833624D01*
X146399004Y-138905078D01*
X146292659Y-139034659D01*
X146163078Y-139141004D01*
X146163076Y-139141005D01*
X146015242Y-139220024D01*
X145854823Y-139268687D01*
X145729804Y-139281000D01*
X144846196Y-139281000D01*
X144721177Y-139268687D01*
X144560758Y-139220024D01*
X144412924Y-139141005D01*
X144412922Y-139141004D01*
X144283341Y-139034659D01*
X144176996Y-138905078D01*
X144138803Y-138833624D01*
X144097976Y-138757242D01*
X144049313Y-138596823D01*
X144032883Y-138430000D01*
X144049313Y-138263177D01*
X144097976Y-138102758D01*
X144176995Y-137954924D01*
X144176996Y-137954922D01*
X144283341Y-137825341D01*
X144412922Y-137718996D01*
X144428094Y-137710886D01*
X144560758Y-137639976D01*
X144721177Y-137591313D01*
X144846196Y-137579000D01*
X145729804Y-137579000D01*
X145854823Y-137591313D01*
G37*
G36*
X138234823Y-137591313D02*
G01*
X138395242Y-137639976D01*
X138527906Y-137710886D01*
X138543078Y-137718996D01*
X138672659Y-137825341D01*
X138779004Y-137954922D01*
X138779005Y-137954924D01*
X138858024Y-138102758D01*
X138906687Y-138263177D01*
X138923117Y-138430000D01*
X138906687Y-138596823D01*
X138858024Y-138757242D01*
X138817197Y-138833624D01*
X138779004Y-138905078D01*
X138672659Y-139034659D01*
X138543078Y-139141004D01*
X138543076Y-139141005D01*
X138395242Y-139220024D01*
X138234823Y-139268687D01*
X138109804Y-139281000D01*
X137226196Y-139281000D01*
X137101177Y-139268687D01*
X136940758Y-139220024D01*
X136792924Y-139141005D01*
X136792922Y-139141004D01*
X136663341Y-139034659D01*
X136556996Y-138905078D01*
X136518803Y-138833624D01*
X136477976Y-138757242D01*
X136429313Y-138596823D01*
X136412883Y-138430000D01*
X136429313Y-138263177D01*
X136477976Y-138102758D01*
X136556995Y-137954924D01*
X136556996Y-137954922D01*
X136663341Y-137825341D01*
X136792922Y-137718996D01*
X136808094Y-137710886D01*
X136940758Y-137639976D01*
X137101177Y-137591313D01*
X137226196Y-137579000D01*
X138109804Y-137579000D01*
X138234823Y-137591313D01*
G37*
G36*
X112326823Y-137591313D02*
G01*
X112487242Y-137639976D01*
X112619906Y-137710886D01*
X112635078Y-137718996D01*
X112764659Y-137825341D01*
X112871004Y-137954922D01*
X112871005Y-137954924D01*
X112950024Y-138102758D01*
X112998687Y-138263177D01*
X113015117Y-138430000D01*
X112998687Y-138596823D01*
X112950024Y-138757242D01*
X112909197Y-138833624D01*
X112871004Y-138905078D01*
X112764659Y-139034659D01*
X112635078Y-139141004D01*
X112635076Y-139141005D01*
X112487242Y-139220024D01*
X112326823Y-139268687D01*
X112201804Y-139281000D01*
X111318196Y-139281000D01*
X111193177Y-139268687D01*
X111032758Y-139220024D01*
X110884924Y-139141005D01*
X110884922Y-139141004D01*
X110755341Y-139034659D01*
X110648996Y-138905078D01*
X110610803Y-138833624D01*
X110569976Y-138757242D01*
X110521313Y-138596823D01*
X110504883Y-138430000D01*
X110521313Y-138263177D01*
X110569976Y-138102758D01*
X110648995Y-137954924D01*
X110648996Y-137954922D01*
X110755341Y-137825341D01*
X110884922Y-137718996D01*
X110900094Y-137710886D01*
X111032758Y-137639976D01*
X111193177Y-137591313D01*
X111318196Y-137579000D01*
X112201804Y-137579000D01*
X112326823Y-137591313D01*
G37*
G36*
X160268228Y-136976703D02*
G01*
X160423100Y-137040853D01*
X160562481Y-137133985D01*
X160681015Y-137252519D01*
X160774147Y-137391900D01*
X160838297Y-137546772D01*
X160871000Y-137711184D01*
X160871000Y-137878816D01*
X160838297Y-138043228D01*
X160774147Y-138198100D01*
X160681015Y-138337481D01*
X160562481Y-138456015D01*
X160423100Y-138549147D01*
X160268228Y-138613297D01*
X160103816Y-138646000D01*
X159936184Y-138646000D01*
X159771772Y-138613297D01*
X159616900Y-138549147D01*
X159477519Y-138456015D01*
X159358985Y-138337481D01*
X159265853Y-138198100D01*
X159201703Y-138043228D01*
X159169000Y-137878816D01*
X159169000Y-137711184D01*
X159201703Y-137546772D01*
X159265853Y-137391900D01*
X159358985Y-137252519D01*
X159477519Y-137133985D01*
X159616900Y-137040853D01*
X159771772Y-136976703D01*
X159936184Y-136944000D01*
X160103816Y-136944000D01*
X160268228Y-136976703D01*
G37*
G36*
X153918228Y-136976703D02*
G01*
X154073100Y-137040853D01*
X154212481Y-137133985D01*
X154331015Y-137252519D01*
X154424147Y-137391900D01*
X154488297Y-137546772D01*
X154521000Y-137711184D01*
X154521000Y-137878816D01*
X154488297Y-138043228D01*
X154424147Y-138198100D01*
X154331015Y-138337481D01*
X154212481Y-138456015D01*
X154073100Y-138549147D01*
X153918228Y-138613297D01*
X153753816Y-138646000D01*
X153586184Y-138646000D01*
X153421772Y-138613297D01*
X153266900Y-138549147D01*
X153127519Y-138456015D01*
X153008985Y-138337481D01*
X152915853Y-138198100D01*
X152851703Y-138043228D01*
X152819000Y-137878816D01*
X152819000Y-137711184D01*
X152851703Y-137546772D01*
X152915853Y-137391900D01*
X153008985Y-137252519D01*
X153127519Y-137133985D01*
X153266900Y-137040853D01*
X153421772Y-136976703D01*
X153586184Y-136944000D01*
X153753816Y-136944000D01*
X153918228Y-136976703D01*
G37*
G36*
X104253512Y-136263927D02*
G01*
X104402812Y-136293624D01*
X104566784Y-136361544D01*
X104714354Y-136460147D01*
X104839853Y-136585646D01*
X104938456Y-136733216D01*
X105006376Y-136897188D01*
X105041000Y-137071259D01*
X105041000Y-137248741D01*
X105006376Y-137422812D01*
X104938456Y-137586784D01*
X104839853Y-137734354D01*
X104714354Y-137859853D01*
X104566784Y-137958456D01*
X104402812Y-138026376D01*
X104253512Y-138056073D01*
X104228742Y-138061000D01*
X104051258Y-138061000D01*
X104026488Y-138056073D01*
X103877188Y-138026376D01*
X103713216Y-137958456D01*
X103565646Y-137859853D01*
X103440147Y-137734354D01*
X103341544Y-137586784D01*
X103273624Y-137422812D01*
X103239000Y-137248741D01*
X103239000Y-137071259D01*
X103273624Y-136897188D01*
X103341544Y-136733216D01*
X103440147Y-136585646D01*
X103565646Y-136460147D01*
X103713216Y-136361544D01*
X103877188Y-136293624D01*
X104026488Y-136263927D01*
X104051258Y-136259000D01*
X104228742Y-136259000D01*
X104253512Y-136263927D01*
G37*
G36*
X165213512Y-136263927D02*
G01*
X165362812Y-136293624D01*
X165526784Y-136361544D01*
X165674354Y-136460147D01*
X165799853Y-136585646D01*
X165898456Y-136733216D01*
X165966376Y-136897188D01*
X166001000Y-137071259D01*
X166001000Y-137248741D01*
X165966376Y-137422812D01*
X165898456Y-137586784D01*
X165799853Y-137734354D01*
X165674354Y-137859853D01*
X165526784Y-137958456D01*
X165362812Y-138026376D01*
X165213512Y-138056073D01*
X165188742Y-138061000D01*
X165011258Y-138061000D01*
X164986488Y-138056073D01*
X164837188Y-138026376D01*
X164673216Y-137958456D01*
X164525646Y-137859853D01*
X164400147Y-137734354D01*
X164301544Y-137586784D01*
X164233624Y-137422812D01*
X164199000Y-137248741D01*
X164199000Y-137071259D01*
X164233624Y-136897188D01*
X164301544Y-136733216D01*
X164400147Y-136585646D01*
X164525646Y-136460147D01*
X164673216Y-136361544D01*
X164837188Y-136293624D01*
X164986488Y-136263927D01*
X165011258Y-136259000D01*
X165188742Y-136259000D01*
X165213512Y-136263927D01*
G37*
G36*
X125978228Y-135706703D02*
G01*
X126133100Y-135770853D01*
X126272481Y-135863985D01*
X126391015Y-135982519D01*
X126484147Y-136121900D01*
X126548297Y-136276772D01*
X126581000Y-136441184D01*
X126581000Y-136608816D01*
X126548297Y-136773228D01*
X126484147Y-136928100D01*
X126391015Y-137067481D01*
X126272481Y-137186015D01*
X126133100Y-137279147D01*
X125978228Y-137343297D01*
X125813816Y-137376000D01*
X125646184Y-137376000D01*
X125481772Y-137343297D01*
X125326900Y-137279147D01*
X125187519Y-137186015D01*
X125068985Y-137067481D01*
X124975853Y-136928100D01*
X124911703Y-136773228D01*
X124879000Y-136608816D01*
X124879000Y-136441184D01*
X124911703Y-136276772D01*
X124975853Y-136121900D01*
X125068985Y-135982519D01*
X125187519Y-135863985D01*
X125326900Y-135770853D01*
X125481772Y-135706703D01*
X125646184Y-135674000D01*
X125813816Y-135674000D01*
X125978228Y-135706703D01*
G37*
G36*
X133598228Y-135706703D02*
G01*
X133753100Y-135770853D01*
X133892481Y-135863985D01*
X134011015Y-135982519D01*
X134104147Y-136121900D01*
X134168297Y-136276772D01*
X134201000Y-136441184D01*
X134201000Y-136608816D01*
X134168297Y-136773228D01*
X134104147Y-136928100D01*
X134011015Y-137067481D01*
X133892481Y-137186015D01*
X133753100Y-137279147D01*
X133598228Y-137343297D01*
X133433816Y-137376000D01*
X133266184Y-137376000D01*
X133101772Y-137343297D01*
X132946900Y-137279147D01*
X132807519Y-137186015D01*
X132688985Y-137067481D01*
X132595853Y-136928100D01*
X132531703Y-136773228D01*
X132499000Y-136608816D01*
X132499000Y-136441184D01*
X132531703Y-136276772D01*
X132595853Y-136121900D01*
X132688985Y-135982519D01*
X132807519Y-135863985D01*
X132946900Y-135770853D01*
X133101772Y-135706703D01*
X133266184Y-135674000D01*
X133433816Y-135674000D01*
X133598228Y-135706703D01*
G37*
G36*
X138234823Y-135051313D02*
G01*
X138395242Y-135099976D01*
X138527906Y-135170886D01*
X138543078Y-135178996D01*
X138672659Y-135285341D01*
X138779004Y-135414922D01*
X138779005Y-135414924D01*
X138858024Y-135562758D01*
X138906687Y-135723177D01*
X138923117Y-135890000D01*
X138906687Y-136056823D01*
X138858024Y-136217242D01*
X138817197Y-136293624D01*
X138779004Y-136365078D01*
X138672659Y-136494659D01*
X138543078Y-136601004D01*
X138543076Y-136601005D01*
X138395242Y-136680024D01*
X138234823Y-136728687D01*
X138109804Y-136741000D01*
X137226196Y-136741000D01*
X137101177Y-136728687D01*
X136940758Y-136680024D01*
X136792924Y-136601005D01*
X136792922Y-136601004D01*
X136663341Y-136494659D01*
X136556996Y-136365078D01*
X136518803Y-136293624D01*
X136477976Y-136217242D01*
X136429313Y-136056823D01*
X136412883Y-135890000D01*
X136429313Y-135723177D01*
X136477976Y-135562758D01*
X136556995Y-135414924D01*
X136556996Y-135414922D01*
X136663341Y-135285341D01*
X136792922Y-135178996D01*
X136808094Y-135170886D01*
X136940758Y-135099976D01*
X137101177Y-135051313D01*
X137226196Y-135039000D01*
X138109804Y-135039000D01*
X138234823Y-135051313D01*
G37*
G36*
X119946823Y-135051313D02*
G01*
X120107242Y-135099976D01*
X120239906Y-135170886D01*
X120255078Y-135178996D01*
X120384659Y-135285341D01*
X120491004Y-135414922D01*
X120491005Y-135414924D01*
X120570024Y-135562758D01*
X120618687Y-135723177D01*
X120635117Y-135890000D01*
X120618687Y-136056823D01*
X120570024Y-136217242D01*
X120529197Y-136293624D01*
X120491004Y-136365078D01*
X120384659Y-136494659D01*
X120255078Y-136601004D01*
X120255076Y-136601005D01*
X120107242Y-136680024D01*
X119946823Y-136728687D01*
X119821804Y-136741000D01*
X118938196Y-136741000D01*
X118813177Y-136728687D01*
X118652758Y-136680024D01*
X118504924Y-136601005D01*
X118504922Y-136601004D01*
X118375341Y-136494659D01*
X118268996Y-136365078D01*
X118230803Y-136293624D01*
X118189976Y-136217242D01*
X118141313Y-136056823D01*
X118124883Y-135890000D01*
X118141313Y-135723177D01*
X118189976Y-135562758D01*
X118268995Y-135414924D01*
X118268996Y-135414922D01*
X118375341Y-135285341D01*
X118504922Y-135178996D01*
X118520094Y-135170886D01*
X118652758Y-135099976D01*
X118813177Y-135051313D01*
X118938196Y-135039000D01*
X119821804Y-135039000D01*
X119946823Y-135051313D01*
G37*
G36*
X112326823Y-135051313D02*
G01*
X112487242Y-135099976D01*
X112619906Y-135170886D01*
X112635078Y-135178996D01*
X112764659Y-135285341D01*
X112871004Y-135414922D01*
X112871005Y-135414924D01*
X112950024Y-135562758D01*
X112998687Y-135723177D01*
X113015117Y-135890000D01*
X112998687Y-136056823D01*
X112950024Y-136217242D01*
X112909197Y-136293624D01*
X112871004Y-136365078D01*
X112764659Y-136494659D01*
X112635078Y-136601004D01*
X112635076Y-136601005D01*
X112487242Y-136680024D01*
X112326823Y-136728687D01*
X112201804Y-136741000D01*
X111318196Y-136741000D01*
X111193177Y-136728687D01*
X111032758Y-136680024D01*
X110884924Y-136601005D01*
X110884922Y-136601004D01*
X110755341Y-136494659D01*
X110648996Y-136365078D01*
X110610803Y-136293624D01*
X110569976Y-136217242D01*
X110521313Y-136056823D01*
X110504883Y-135890000D01*
X110521313Y-135723177D01*
X110569976Y-135562758D01*
X110648995Y-135414924D01*
X110648996Y-135414922D01*
X110755341Y-135285341D01*
X110884922Y-135178996D01*
X110900094Y-135170886D01*
X111032758Y-135099976D01*
X111193177Y-135051313D01*
X111318196Y-135039000D01*
X112201804Y-135039000D01*
X112326823Y-135051313D01*
G37*
G36*
X145854823Y-135051313D02*
G01*
X146015242Y-135099976D01*
X146147906Y-135170886D01*
X146163078Y-135178996D01*
X146292659Y-135285341D01*
X146399004Y-135414922D01*
X146399005Y-135414924D01*
X146478024Y-135562758D01*
X146526687Y-135723177D01*
X146543117Y-135890000D01*
X146526687Y-136056823D01*
X146478024Y-136217242D01*
X146437197Y-136293624D01*
X146399004Y-136365078D01*
X146292659Y-136494659D01*
X146163078Y-136601004D01*
X146163076Y-136601005D01*
X146015242Y-136680024D01*
X145854823Y-136728687D01*
X145729804Y-136741000D01*
X144846196Y-136741000D01*
X144721177Y-136728687D01*
X144560758Y-136680024D01*
X144412924Y-136601005D01*
X144412922Y-136601004D01*
X144283341Y-136494659D01*
X144176996Y-136365078D01*
X144138803Y-136293624D01*
X144097976Y-136217242D01*
X144049313Y-136056823D01*
X144032883Y-135890000D01*
X144049313Y-135723177D01*
X144097976Y-135562758D01*
X144176995Y-135414924D01*
X144176996Y-135414922D01*
X144283341Y-135285341D01*
X144412922Y-135178996D01*
X144428094Y-135170886D01*
X144560758Y-135099976D01*
X144721177Y-135051313D01*
X144846196Y-135039000D01*
X145729804Y-135039000D01*
X145854823Y-135051313D01*
G37*
G36*
X104253512Y-133723927D02*
G01*
X104402812Y-133753624D01*
X104566784Y-133821544D01*
X104714354Y-133920147D01*
X104839853Y-134045646D01*
X104938456Y-134193216D01*
X105006376Y-134357188D01*
X105041000Y-134531259D01*
X105041000Y-134708741D01*
X105006376Y-134882812D01*
X104938456Y-135046784D01*
X104839853Y-135194354D01*
X104714354Y-135319853D01*
X104566784Y-135418456D01*
X104402812Y-135486376D01*
X104253512Y-135516073D01*
X104228742Y-135521000D01*
X104051258Y-135521000D01*
X104026488Y-135516073D01*
X103877188Y-135486376D01*
X103713216Y-135418456D01*
X103565646Y-135319853D01*
X103440147Y-135194354D01*
X103341544Y-135046784D01*
X103273624Y-134882812D01*
X103239000Y-134708741D01*
X103239000Y-134531259D01*
X103273624Y-134357188D01*
X103341544Y-134193216D01*
X103440147Y-134045646D01*
X103565646Y-133920147D01*
X103713216Y-133821544D01*
X103877188Y-133753624D01*
X104026488Y-133723927D01*
X104051258Y-133719000D01*
X104228742Y-133719000D01*
X104253512Y-133723927D01*
G37*
G36*
X165213512Y-133723927D02*
G01*
X165362812Y-133753624D01*
X165526784Y-133821544D01*
X165674354Y-133920147D01*
X165799853Y-134045646D01*
X165898456Y-134193216D01*
X165966376Y-134357188D01*
X166001000Y-134531259D01*
X166001000Y-134708741D01*
X165966376Y-134882812D01*
X165898456Y-135046784D01*
X165799853Y-135194354D01*
X165674354Y-135319853D01*
X165526784Y-135418456D01*
X165362812Y-135486376D01*
X165213512Y-135516073D01*
X165188742Y-135521000D01*
X165011258Y-135521000D01*
X164986488Y-135516073D01*
X164837188Y-135486376D01*
X164673216Y-135418456D01*
X164525646Y-135319853D01*
X164400147Y-135194354D01*
X164301544Y-135046784D01*
X164233624Y-134882812D01*
X164199000Y-134708741D01*
X164199000Y-134531259D01*
X164233624Y-134357188D01*
X164301544Y-134193216D01*
X164400147Y-134045646D01*
X164525646Y-133920147D01*
X164673216Y-133821544D01*
X164837188Y-133753624D01*
X164986488Y-133723927D01*
X165011258Y-133719000D01*
X165188742Y-133719000D01*
X165213512Y-133723927D01*
G37*
G36*
X133598228Y-133166703D02*
G01*
X133753100Y-133230853D01*
X133892481Y-133323985D01*
X134011015Y-133442519D01*
X134104147Y-133581900D01*
X134168297Y-133736772D01*
X134201000Y-133901184D01*
X134201000Y-134068816D01*
X134168297Y-134233228D01*
X134104147Y-134388100D01*
X134011015Y-134527481D01*
X133892481Y-134646015D01*
X133753100Y-134739147D01*
X133598228Y-134803297D01*
X133433816Y-134836000D01*
X133266184Y-134836000D01*
X133101772Y-134803297D01*
X132946900Y-134739147D01*
X132807519Y-134646015D01*
X132688985Y-134527481D01*
X132595853Y-134388100D01*
X132531703Y-134233228D01*
X132499000Y-134068816D01*
X132499000Y-133901184D01*
X132531703Y-133736772D01*
X132595853Y-133581900D01*
X132688985Y-133442519D01*
X132807519Y-133323985D01*
X132946900Y-133230853D01*
X133101772Y-133166703D01*
X133266184Y-133134000D01*
X133433816Y-133134000D01*
X133598228Y-133166703D01*
G37*
G36*
X160268228Y-133166703D02*
G01*
X160423100Y-133230853D01*
X160562481Y-133323985D01*
X160681015Y-133442519D01*
X160774147Y-133581900D01*
X160838297Y-133736772D01*
X160871000Y-133901184D01*
X160871000Y-134068816D01*
X160838297Y-134233228D01*
X160774147Y-134388100D01*
X160681015Y-134527481D01*
X160562481Y-134646015D01*
X160423100Y-134739147D01*
X160268228Y-134803297D01*
X160103816Y-134836000D01*
X159936184Y-134836000D01*
X159771772Y-134803297D01*
X159616900Y-134739147D01*
X159477519Y-134646015D01*
X159358985Y-134527481D01*
X159265853Y-134388100D01*
X159201703Y-134233228D01*
X159169000Y-134068816D01*
X159169000Y-133901184D01*
X159201703Y-133736772D01*
X159265853Y-133581900D01*
X159358985Y-133442519D01*
X159477519Y-133323985D01*
X159616900Y-133230853D01*
X159771772Y-133166703D01*
X159936184Y-133134000D01*
X160103816Y-133134000D01*
X160268228Y-133166703D01*
G37*
G36*
X153918228Y-133166703D02*
G01*
X154073100Y-133230853D01*
X154212481Y-133323985D01*
X154331015Y-133442519D01*
X154424147Y-133581900D01*
X154488297Y-133736772D01*
X154521000Y-133901184D01*
X154521000Y-134068816D01*
X154488297Y-134233228D01*
X154424147Y-134388100D01*
X154331015Y-134527481D01*
X154212481Y-134646015D01*
X154073100Y-134739147D01*
X153918228Y-134803297D01*
X153753816Y-134836000D01*
X153586184Y-134836000D01*
X153421772Y-134803297D01*
X153266900Y-134739147D01*
X153127519Y-134646015D01*
X153008985Y-134527481D01*
X152915853Y-134388100D01*
X152851703Y-134233228D01*
X152819000Y-134068816D01*
X152819000Y-133901184D01*
X152851703Y-133736772D01*
X152915853Y-133581900D01*
X153008985Y-133442519D01*
X153127519Y-133323985D01*
X153266900Y-133230853D01*
X153421772Y-133166703D01*
X153586184Y-133134000D01*
X153753816Y-133134000D01*
X153918228Y-133166703D01*
G37*
G36*
X125978228Y-133166703D02*
G01*
X126133100Y-133230853D01*
X126272481Y-133323985D01*
X126391015Y-133442519D01*
X126484147Y-133581900D01*
X126548297Y-133736772D01*
X126581000Y-133901184D01*
X126581000Y-134068816D01*
X126548297Y-134233228D01*
X126484147Y-134388100D01*
X126391015Y-134527481D01*
X126272481Y-134646015D01*
X126133100Y-134739147D01*
X125978228Y-134803297D01*
X125813816Y-134836000D01*
X125646184Y-134836000D01*
X125481772Y-134803297D01*
X125326900Y-134739147D01*
X125187519Y-134646015D01*
X125068985Y-134527481D01*
X124975853Y-134388100D01*
X124911703Y-134233228D01*
X124879000Y-134068816D01*
X124879000Y-133901184D01*
X124911703Y-133736772D01*
X124975853Y-133581900D01*
X125068985Y-133442519D01*
X125187519Y-133323985D01*
X125326900Y-133230853D01*
X125481772Y-133166703D01*
X125646184Y-133134000D01*
X125813816Y-133134000D01*
X125978228Y-133166703D01*
G37*
G36*
X119946823Y-132511313D02*
G01*
X120107242Y-132559976D01*
X120239906Y-132630886D01*
X120255078Y-132638996D01*
X120384659Y-132745341D01*
X120491004Y-132874922D01*
X120491005Y-132874924D01*
X120570024Y-133022758D01*
X120618687Y-133183177D01*
X120635117Y-133350000D01*
X120618687Y-133516823D01*
X120570024Y-133677242D01*
X120529197Y-133753624D01*
X120491004Y-133825078D01*
X120384659Y-133954659D01*
X120255078Y-134061004D01*
X120255076Y-134061005D01*
X120107242Y-134140024D01*
X119946823Y-134188687D01*
X119821804Y-134201000D01*
X118938196Y-134201000D01*
X118813177Y-134188687D01*
X118652758Y-134140024D01*
X118504924Y-134061005D01*
X118504922Y-134061004D01*
X118375341Y-133954659D01*
X118268996Y-133825078D01*
X118230803Y-133753624D01*
X118189976Y-133677242D01*
X118141313Y-133516823D01*
X118124883Y-133350000D01*
X118141313Y-133183177D01*
X118189976Y-133022758D01*
X118268995Y-132874924D01*
X118268996Y-132874922D01*
X118375341Y-132745341D01*
X118504922Y-132638996D01*
X118520094Y-132630886D01*
X118652758Y-132559976D01*
X118813177Y-132511313D01*
X118938196Y-132499000D01*
X119821804Y-132499000D01*
X119946823Y-132511313D01*
G37*
G36*
X138234823Y-132511313D02*
G01*
X138395242Y-132559976D01*
X138527906Y-132630886D01*
X138543078Y-132638996D01*
X138672659Y-132745341D01*
X138779004Y-132874922D01*
X138779005Y-132874924D01*
X138858024Y-133022758D01*
X138906687Y-133183177D01*
X138923117Y-133350000D01*
X138906687Y-133516823D01*
X138858024Y-133677242D01*
X138817197Y-133753624D01*
X138779004Y-133825078D01*
X138672659Y-133954659D01*
X138543078Y-134061004D01*
X138543076Y-134061005D01*
X138395242Y-134140024D01*
X138234823Y-134188687D01*
X138109804Y-134201000D01*
X137226196Y-134201000D01*
X137101177Y-134188687D01*
X136940758Y-134140024D01*
X136792924Y-134061005D01*
X136792922Y-134061004D01*
X136663341Y-133954659D01*
X136556996Y-133825078D01*
X136518803Y-133753624D01*
X136477976Y-133677242D01*
X136429313Y-133516823D01*
X136412883Y-133350000D01*
X136429313Y-133183177D01*
X136477976Y-133022758D01*
X136556995Y-132874924D01*
X136556996Y-132874922D01*
X136663341Y-132745341D01*
X136792922Y-132638996D01*
X136808094Y-132630886D01*
X136940758Y-132559976D01*
X137101177Y-132511313D01*
X137226196Y-132499000D01*
X138109804Y-132499000D01*
X138234823Y-132511313D01*
G37*
G36*
X112326823Y-132511313D02*
G01*
X112487242Y-132559976D01*
X112619906Y-132630886D01*
X112635078Y-132638996D01*
X112764659Y-132745341D01*
X112871004Y-132874922D01*
X112871005Y-132874924D01*
X112950024Y-133022758D01*
X112998687Y-133183177D01*
X113015117Y-133350000D01*
X112998687Y-133516823D01*
X112950024Y-133677242D01*
X112909197Y-133753624D01*
X112871004Y-133825078D01*
X112764659Y-133954659D01*
X112635078Y-134061004D01*
X112635076Y-134061005D01*
X112487242Y-134140024D01*
X112326823Y-134188687D01*
X112201804Y-134201000D01*
X111318196Y-134201000D01*
X111193177Y-134188687D01*
X111032758Y-134140024D01*
X110884924Y-134061005D01*
X110884922Y-134061004D01*
X110755341Y-133954659D01*
X110648996Y-133825078D01*
X110610803Y-133753624D01*
X110569976Y-133677242D01*
X110521313Y-133516823D01*
X110504883Y-133350000D01*
X110521313Y-133183177D01*
X110569976Y-133022758D01*
X110648995Y-132874924D01*
X110648996Y-132874922D01*
X110755341Y-132745341D01*
X110884922Y-132638996D01*
X110900094Y-132630886D01*
X111032758Y-132559976D01*
X111193177Y-132511313D01*
X111318196Y-132499000D01*
X112201804Y-132499000D01*
X112326823Y-132511313D01*
G37*
G36*
X145854823Y-132511313D02*
G01*
X146015242Y-132559976D01*
X146147906Y-132630886D01*
X146163078Y-132638996D01*
X146292659Y-132745341D01*
X146399004Y-132874922D01*
X146399005Y-132874924D01*
X146478024Y-133022758D01*
X146526687Y-133183177D01*
X146543117Y-133350000D01*
X146526687Y-133516823D01*
X146478024Y-133677242D01*
X146437197Y-133753624D01*
X146399004Y-133825078D01*
X146292659Y-133954659D01*
X146163078Y-134061004D01*
X146163076Y-134061005D01*
X146015242Y-134140024D01*
X145854823Y-134188687D01*
X145729804Y-134201000D01*
X144846196Y-134201000D01*
X144721177Y-134188687D01*
X144560758Y-134140024D01*
X144412924Y-134061005D01*
X144412922Y-134061004D01*
X144283341Y-133954659D01*
X144176996Y-133825078D01*
X144138803Y-133753624D01*
X144097976Y-133677242D01*
X144049313Y-133516823D01*
X144032883Y-133350000D01*
X144049313Y-133183177D01*
X144097976Y-133022758D01*
X144176995Y-132874924D01*
X144176996Y-132874922D01*
X144283341Y-132745341D01*
X144412922Y-132638996D01*
X144428094Y-132630886D01*
X144560758Y-132559976D01*
X144721177Y-132511313D01*
X144846196Y-132499000D01*
X145729804Y-132499000D01*
X145854823Y-132511313D01*
G37*
G36*
X104253512Y-131183927D02*
G01*
X104402812Y-131213624D01*
X104566784Y-131281544D01*
X104714354Y-131380147D01*
X104839853Y-131505646D01*
X104938456Y-131653216D01*
X105006376Y-131817188D01*
X105041000Y-131991259D01*
X105041000Y-132168741D01*
X105006376Y-132342812D01*
X104938456Y-132506784D01*
X104839853Y-132654354D01*
X104714354Y-132779853D01*
X104566784Y-132878456D01*
X104402812Y-132946376D01*
X104253512Y-132976073D01*
X104228742Y-132981000D01*
X104051258Y-132981000D01*
X104026488Y-132976073D01*
X103877188Y-132946376D01*
X103713216Y-132878456D01*
X103565646Y-132779853D01*
X103440147Y-132654354D01*
X103341544Y-132506784D01*
X103273624Y-132342812D01*
X103239000Y-132168741D01*
X103239000Y-131991259D01*
X103273624Y-131817188D01*
X103341544Y-131653216D01*
X103440147Y-131505646D01*
X103565646Y-131380147D01*
X103713216Y-131281544D01*
X103877188Y-131213624D01*
X104026488Y-131183927D01*
X104051258Y-131179000D01*
X104228742Y-131179000D01*
X104253512Y-131183927D01*
G37*
G36*
X165213512Y-131183927D02*
G01*
X165362812Y-131213624D01*
X165526784Y-131281544D01*
X165674354Y-131380147D01*
X165799853Y-131505646D01*
X165898456Y-131653216D01*
X165966376Y-131817188D01*
X166001000Y-131991259D01*
X166001000Y-132168741D01*
X165966376Y-132342812D01*
X165898456Y-132506784D01*
X165799853Y-132654354D01*
X165674354Y-132779853D01*
X165526784Y-132878456D01*
X165362812Y-132946376D01*
X165213512Y-132976073D01*
X165188742Y-132981000D01*
X165011258Y-132981000D01*
X164986488Y-132976073D01*
X164837188Y-132946376D01*
X164673216Y-132878456D01*
X164525646Y-132779853D01*
X164400147Y-132654354D01*
X164301544Y-132506784D01*
X164233624Y-132342812D01*
X164199000Y-132168741D01*
X164199000Y-131991259D01*
X164233624Y-131817188D01*
X164301544Y-131653216D01*
X164400147Y-131505646D01*
X164525646Y-131380147D01*
X164673216Y-131281544D01*
X164837188Y-131213624D01*
X164986488Y-131183927D01*
X165011258Y-131179000D01*
X165188742Y-131179000D01*
X165213512Y-131183927D01*
G37*
G36*
X133598228Y-130626703D02*
G01*
X133753100Y-130690853D01*
X133892481Y-130783985D01*
X134011015Y-130902519D01*
X134104147Y-131041900D01*
X134168297Y-131196772D01*
X134201000Y-131361184D01*
X134201000Y-131528816D01*
X134168297Y-131693228D01*
X134104147Y-131848100D01*
X134011015Y-131987481D01*
X133892481Y-132106015D01*
X133753100Y-132199147D01*
X133598228Y-132263297D01*
X133433816Y-132296000D01*
X133266184Y-132296000D01*
X133101772Y-132263297D01*
X132946900Y-132199147D01*
X132807519Y-132106015D01*
X132688985Y-131987481D01*
X132595853Y-131848100D01*
X132531703Y-131693228D01*
X132499000Y-131528816D01*
X132499000Y-131361184D01*
X132531703Y-131196772D01*
X132595853Y-131041900D01*
X132688985Y-130902519D01*
X132807519Y-130783985D01*
X132946900Y-130690853D01*
X133101772Y-130626703D01*
X133266184Y-130594000D01*
X133433816Y-130594000D01*
X133598228Y-130626703D01*
G37*
G36*
X125978228Y-130626703D02*
G01*
X126133100Y-130690853D01*
X126272481Y-130783985D01*
X126391015Y-130902519D01*
X126484147Y-131041900D01*
X126548297Y-131196772D01*
X126581000Y-131361184D01*
X126581000Y-131528816D01*
X126548297Y-131693228D01*
X126484147Y-131848100D01*
X126391015Y-131987481D01*
X126272481Y-132106015D01*
X126133100Y-132199147D01*
X125978228Y-132263297D01*
X125813816Y-132296000D01*
X125646184Y-132296000D01*
X125481772Y-132263297D01*
X125326900Y-132199147D01*
X125187519Y-132106015D01*
X125068985Y-131987481D01*
X124975853Y-131848100D01*
X124911703Y-131693228D01*
X124879000Y-131528816D01*
X124879000Y-131361184D01*
X124911703Y-131196772D01*
X124975853Y-131041900D01*
X125068985Y-130902519D01*
X125187519Y-130783985D01*
X125326900Y-130690853D01*
X125481772Y-130626703D01*
X125646184Y-130594000D01*
X125813816Y-130594000D01*
X125978228Y-130626703D01*
G37*
G36*
X113011000Y-131661000D02*
G01*
X110509000Y-131661000D01*
X110509000Y-129959000D01*
X113011000Y-129959000D01*
X113011000Y-131661000D01*
G37*
G36*
X138234823Y-129971313D02*
G01*
X138395242Y-130019976D01*
X138527906Y-130090886D01*
X138543078Y-130098996D01*
X138672659Y-130205341D01*
X138779004Y-130334922D01*
X138779005Y-130334924D01*
X138858024Y-130482758D01*
X138906687Y-130643177D01*
X138923117Y-130810000D01*
X138906687Y-130976823D01*
X138858024Y-131137242D01*
X138817197Y-131213624D01*
X138779004Y-131285078D01*
X138672659Y-131414659D01*
X138543078Y-131521004D01*
X138543076Y-131521005D01*
X138395242Y-131600024D01*
X138234823Y-131648687D01*
X138109804Y-131661000D01*
X137226196Y-131661000D01*
X137101177Y-131648687D01*
X136940758Y-131600024D01*
X136792924Y-131521005D01*
X136792922Y-131521004D01*
X136663341Y-131414659D01*
X136556996Y-131285078D01*
X136518803Y-131213624D01*
X136477976Y-131137242D01*
X136429313Y-130976823D01*
X136412883Y-130810000D01*
X136429313Y-130643177D01*
X136477976Y-130482758D01*
X136556995Y-130334924D01*
X136556996Y-130334922D01*
X136663341Y-130205341D01*
X136792922Y-130098996D01*
X136808094Y-130090886D01*
X136940758Y-130019976D01*
X137101177Y-129971313D01*
X137226196Y-129959000D01*
X138109804Y-129959000D01*
X138234823Y-129971313D01*
G37*
G36*
X145854823Y-129971313D02*
G01*
X146015242Y-130019976D01*
X146147906Y-130090886D01*
X146163078Y-130098996D01*
X146292659Y-130205341D01*
X146399004Y-130334922D01*
X146399005Y-130334924D01*
X146478024Y-130482758D01*
X146526687Y-130643177D01*
X146543117Y-130810000D01*
X146526687Y-130976823D01*
X146478024Y-131137242D01*
X146437197Y-131213624D01*
X146399004Y-131285078D01*
X146292659Y-131414659D01*
X146163078Y-131521004D01*
X146163076Y-131521005D01*
X146015242Y-131600024D01*
X145854823Y-131648687D01*
X145729804Y-131661000D01*
X144846196Y-131661000D01*
X144721177Y-131648687D01*
X144560758Y-131600024D01*
X144412924Y-131521005D01*
X144412922Y-131521004D01*
X144283341Y-131414659D01*
X144176996Y-131285078D01*
X144138803Y-131213624D01*
X144097976Y-131137242D01*
X144049313Y-130976823D01*
X144032883Y-130810000D01*
X144049313Y-130643177D01*
X144097976Y-130482758D01*
X144176995Y-130334924D01*
X144176996Y-130334922D01*
X144283341Y-130205341D01*
X144412922Y-130098996D01*
X144428094Y-130090886D01*
X144560758Y-130019976D01*
X144721177Y-129971313D01*
X144846196Y-129959000D01*
X145729804Y-129959000D01*
X145854823Y-129971313D01*
G37*
G36*
X119946823Y-129971313D02*
G01*
X120107242Y-130019976D01*
X120239906Y-130090886D01*
X120255078Y-130098996D01*
X120384659Y-130205341D01*
X120491004Y-130334922D01*
X120491005Y-130334924D01*
X120570024Y-130482758D01*
X120618687Y-130643177D01*
X120635117Y-130810000D01*
X120618687Y-130976823D01*
X120570024Y-131137242D01*
X120529197Y-131213624D01*
X120491004Y-131285078D01*
X120384659Y-131414659D01*
X120255078Y-131521004D01*
X120255076Y-131521005D01*
X120107242Y-131600024D01*
X119946823Y-131648687D01*
X119821804Y-131661000D01*
X118938196Y-131661000D01*
X118813177Y-131648687D01*
X118652758Y-131600024D01*
X118504924Y-131521005D01*
X118504922Y-131521004D01*
X118375341Y-131414659D01*
X118268996Y-131285078D01*
X118230803Y-131213624D01*
X118189976Y-131137242D01*
X118141313Y-130976823D01*
X118124883Y-130810000D01*
X118141313Y-130643177D01*
X118189976Y-130482758D01*
X118268995Y-130334924D01*
X118268996Y-130334922D01*
X118375341Y-130205341D01*
X118504922Y-130098996D01*
X118520094Y-130090886D01*
X118652758Y-130019976D01*
X118813177Y-129971313D01*
X118938196Y-129959000D01*
X119821804Y-129959000D01*
X119946823Y-129971313D01*
G37*
G36*
X104253512Y-128643927D02*
G01*
X104402812Y-128673624D01*
X104566784Y-128741544D01*
X104714354Y-128840147D01*
X104839853Y-128965646D01*
X104938456Y-129113216D01*
X105006376Y-129277188D01*
X105041000Y-129451259D01*
X105041000Y-129628741D01*
X105006376Y-129802812D01*
X104938456Y-129966784D01*
X104839853Y-130114354D01*
X104714354Y-130239853D01*
X104566784Y-130338456D01*
X104402812Y-130406376D01*
X104253512Y-130436073D01*
X104228742Y-130441000D01*
X104051258Y-130441000D01*
X104026488Y-130436073D01*
X103877188Y-130406376D01*
X103713216Y-130338456D01*
X103565646Y-130239853D01*
X103440147Y-130114354D01*
X103341544Y-129966784D01*
X103273624Y-129802812D01*
X103239000Y-129628741D01*
X103239000Y-129451259D01*
X103273624Y-129277188D01*
X103341544Y-129113216D01*
X103440147Y-128965646D01*
X103565646Y-128840147D01*
X103713216Y-128741544D01*
X103877188Y-128673624D01*
X104026488Y-128643927D01*
X104051258Y-128639000D01*
X104228742Y-128639000D01*
X104253512Y-128643927D01*
G37*
G36*
X165213512Y-128643927D02*
G01*
X165362812Y-128673624D01*
X165526784Y-128741544D01*
X165674354Y-128840147D01*
X165799853Y-128965646D01*
X165898456Y-129113216D01*
X165966376Y-129277188D01*
X166001000Y-129451259D01*
X166001000Y-129628741D01*
X165966376Y-129802812D01*
X165898456Y-129966784D01*
X165799853Y-130114354D01*
X165674354Y-130239853D01*
X165526784Y-130338456D01*
X165362812Y-130406376D01*
X165213512Y-130436073D01*
X165188742Y-130441000D01*
X165011258Y-130441000D01*
X164986488Y-130436073D01*
X164837188Y-130406376D01*
X164673216Y-130338456D01*
X164525646Y-130239853D01*
X164400147Y-130114354D01*
X164301544Y-129966784D01*
X164233624Y-129802812D01*
X164199000Y-129628741D01*
X164199000Y-129451259D01*
X164233624Y-129277188D01*
X164301544Y-129113216D01*
X164400147Y-128965646D01*
X164525646Y-128840147D01*
X164673216Y-128741544D01*
X164837188Y-128673624D01*
X164986488Y-128643927D01*
X165011258Y-128639000D01*
X165188742Y-128639000D01*
X165213512Y-128643927D01*
G37*
G36*
X133598228Y-128086703D02*
G01*
X133753100Y-128150853D01*
X133892481Y-128243985D01*
X134011015Y-128362519D01*
X134104147Y-128501900D01*
X134168297Y-128656772D01*
X134201000Y-128821184D01*
X134201000Y-128988816D01*
X134168297Y-129153228D01*
X134104147Y-129308100D01*
X134011015Y-129447481D01*
X133892481Y-129566015D01*
X133753100Y-129659147D01*
X133598228Y-129723297D01*
X133433816Y-129756000D01*
X133266184Y-129756000D01*
X133101772Y-129723297D01*
X132946900Y-129659147D01*
X132807519Y-129566015D01*
X132688985Y-129447481D01*
X132595853Y-129308100D01*
X132531703Y-129153228D01*
X132499000Y-128988816D01*
X132499000Y-128821184D01*
X132531703Y-128656772D01*
X132595853Y-128501900D01*
X132688985Y-128362519D01*
X132807519Y-128243985D01*
X132946900Y-128150853D01*
X133101772Y-128086703D01*
X133266184Y-128054000D01*
X133433816Y-128054000D01*
X133598228Y-128086703D01*
G37*
G36*
X125978228Y-128086703D02*
G01*
X126133100Y-128150853D01*
X126272481Y-128243985D01*
X126391015Y-128362519D01*
X126484147Y-128501900D01*
X126548297Y-128656772D01*
X126581000Y-128821184D01*
X126581000Y-128988816D01*
X126548297Y-129153228D01*
X126484147Y-129308100D01*
X126391015Y-129447481D01*
X126272481Y-129566015D01*
X126133100Y-129659147D01*
X125978228Y-129723297D01*
X125813816Y-129756000D01*
X125646184Y-129756000D01*
X125481772Y-129723297D01*
X125326900Y-129659147D01*
X125187519Y-129566015D01*
X125068985Y-129447481D01*
X124975853Y-129308100D01*
X124911703Y-129153228D01*
X124879000Y-128988816D01*
X124879000Y-128821184D01*
X124911703Y-128656772D01*
X124975853Y-128501900D01*
X125068985Y-128362519D01*
X125187519Y-128243985D01*
X125326900Y-128150853D01*
X125481772Y-128086703D01*
X125646184Y-128054000D01*
X125813816Y-128054000D01*
X125978228Y-128086703D01*
G37*
G36*
X165213512Y-126103927D02*
G01*
X165362812Y-126133624D01*
X165526784Y-126201544D01*
X165674354Y-126300147D01*
X165799853Y-126425646D01*
X165898456Y-126573216D01*
X165966376Y-126737188D01*
X166001000Y-126911259D01*
X166001000Y-127088741D01*
X165966376Y-127262812D01*
X165898456Y-127426784D01*
X165799853Y-127574354D01*
X165674354Y-127699853D01*
X165526784Y-127798456D01*
X165362812Y-127866376D01*
X165213512Y-127896073D01*
X165188742Y-127901000D01*
X165011258Y-127901000D01*
X164986488Y-127896073D01*
X164837188Y-127866376D01*
X164673216Y-127798456D01*
X164525646Y-127699853D01*
X164400147Y-127574354D01*
X164301544Y-127426784D01*
X164233624Y-127262812D01*
X164199000Y-127088741D01*
X164199000Y-126911259D01*
X164233624Y-126737188D01*
X164301544Y-126573216D01*
X164400147Y-126425646D01*
X164525646Y-126300147D01*
X164673216Y-126201544D01*
X164837188Y-126133624D01*
X164986488Y-126103927D01*
X165011258Y-126099000D01*
X165188742Y-126099000D01*
X165213512Y-126103927D01*
G37*
G36*
X104253512Y-126103927D02*
G01*
X104402812Y-126133624D01*
X104566784Y-126201544D01*
X104714354Y-126300147D01*
X104839853Y-126425646D01*
X104938456Y-126573216D01*
X105006376Y-126737188D01*
X105041000Y-126911259D01*
X105041000Y-127088741D01*
X105006376Y-127262812D01*
X104938456Y-127426784D01*
X104839853Y-127574354D01*
X104714354Y-127699853D01*
X104566784Y-127798456D01*
X104402812Y-127866376D01*
X104253512Y-127896073D01*
X104228742Y-127901000D01*
X104051258Y-127901000D01*
X104026488Y-127896073D01*
X103877188Y-127866376D01*
X103713216Y-127798456D01*
X103565646Y-127699853D01*
X103440147Y-127574354D01*
X103341544Y-127426784D01*
X103273624Y-127262812D01*
X103239000Y-127088741D01*
X103239000Y-126911259D01*
X103273624Y-126737188D01*
X103341544Y-126573216D01*
X103440147Y-126425646D01*
X103565646Y-126300147D01*
X103713216Y-126201544D01*
X103877188Y-126133624D01*
X104026488Y-126103927D01*
X104051258Y-126099000D01*
X104228742Y-126099000D01*
X104253512Y-126103927D01*
G37*
G36*
X138488823Y-125907313D02*
G01*
X138649242Y-125955976D01*
X138690874Y-125978229D01*
X138797078Y-126034996D01*
X138926659Y-126141341D01*
X139033004Y-126270922D01*
X139033005Y-126270924D01*
X139112024Y-126418758D01*
X139112025Y-126418761D01*
X139114114Y-126425647D01*
X139160687Y-126579177D01*
X139177117Y-126746000D01*
X139160687Y-126912823D01*
X139112024Y-127073242D01*
X139053199Y-127183295D01*
X139033004Y-127221078D01*
X138926659Y-127350659D01*
X138797078Y-127457004D01*
X138797076Y-127457005D01*
X138649242Y-127536024D01*
X138488823Y-127584687D01*
X138363804Y-127597000D01*
X137480196Y-127597000D01*
X137355177Y-127584687D01*
X137194758Y-127536024D01*
X137046924Y-127457005D01*
X137046922Y-127457004D01*
X136917341Y-127350659D01*
X136810996Y-127221078D01*
X136790801Y-127183295D01*
X136731976Y-127073242D01*
X136683313Y-126912823D01*
X136666883Y-126746000D01*
X136683313Y-126579177D01*
X136729886Y-126425647D01*
X136731975Y-126418761D01*
X136731976Y-126418758D01*
X136810995Y-126270924D01*
X136810996Y-126270922D01*
X136917341Y-126141341D01*
X137046922Y-126034996D01*
X137153126Y-125978229D01*
X137194758Y-125955976D01*
X137355177Y-125907313D01*
X137480196Y-125895000D01*
X138363804Y-125895000D01*
X138488823Y-125907313D01*
G37*
G36*
X146108823Y-125907313D02*
G01*
X146269242Y-125955976D01*
X146310874Y-125978229D01*
X146417078Y-126034996D01*
X146546659Y-126141341D01*
X146653004Y-126270922D01*
X146653005Y-126270924D01*
X146732024Y-126418758D01*
X146732025Y-126418761D01*
X146734114Y-126425647D01*
X146780687Y-126579177D01*
X146797117Y-126746000D01*
X146780687Y-126912823D01*
X146732024Y-127073242D01*
X146673199Y-127183295D01*
X146653004Y-127221078D01*
X146546659Y-127350659D01*
X146417078Y-127457004D01*
X146417076Y-127457005D01*
X146269242Y-127536024D01*
X146108823Y-127584687D01*
X145983804Y-127597000D01*
X145100196Y-127597000D01*
X144975177Y-127584687D01*
X144814758Y-127536024D01*
X144666924Y-127457005D01*
X144666922Y-127457004D01*
X144537341Y-127350659D01*
X144430996Y-127221078D01*
X144410801Y-127183295D01*
X144351976Y-127073242D01*
X144303313Y-126912823D01*
X144286883Y-126746000D01*
X144303313Y-126579177D01*
X144349886Y-126425647D01*
X144351975Y-126418761D01*
X144351976Y-126418758D01*
X144430995Y-126270924D01*
X144430996Y-126270922D01*
X144537341Y-126141341D01*
X144666922Y-126034996D01*
X144773126Y-125978229D01*
X144814758Y-125955976D01*
X144975177Y-125907313D01*
X145100196Y-125895000D01*
X145983804Y-125895000D01*
X146108823Y-125907313D01*
G37*
G36*
X125978228Y-125546703D02*
G01*
X126133100Y-125610853D01*
X126272481Y-125703985D01*
X126391015Y-125822519D01*
X126484147Y-125961900D01*
X126548297Y-126116772D01*
X126581000Y-126281184D01*
X126581000Y-126448816D01*
X126548297Y-126613228D01*
X126484147Y-126768100D01*
X126391015Y-126907481D01*
X126272481Y-127026015D01*
X126133100Y-127119147D01*
X125978228Y-127183297D01*
X125813816Y-127216000D01*
X125646184Y-127216000D01*
X125481772Y-127183297D01*
X125326900Y-127119147D01*
X125187519Y-127026015D01*
X125068985Y-126907481D01*
X124975853Y-126768100D01*
X124911703Y-126613228D01*
X124879000Y-126448816D01*
X124879000Y-126281184D01*
X124911703Y-126116772D01*
X124975853Y-125961900D01*
X125068985Y-125822519D01*
X125187519Y-125703985D01*
X125326900Y-125610853D01*
X125481772Y-125546703D01*
X125646184Y-125514000D01*
X125813816Y-125514000D01*
X125978228Y-125546703D01*
G37*
G36*
X133598228Y-125546703D02*
G01*
X133753100Y-125610853D01*
X133892481Y-125703985D01*
X134011015Y-125822519D01*
X134104147Y-125961900D01*
X134168297Y-126116772D01*
X134201000Y-126281184D01*
X134201000Y-126448816D01*
X134168297Y-126613228D01*
X134104147Y-126768100D01*
X134011015Y-126907481D01*
X133892481Y-127026015D01*
X133753100Y-127119147D01*
X133598228Y-127183297D01*
X133433816Y-127216000D01*
X133266184Y-127216000D01*
X133101772Y-127183297D01*
X132946900Y-127119147D01*
X132807519Y-127026015D01*
X132688985Y-126907481D01*
X132595853Y-126768100D01*
X132531703Y-126613228D01*
X132499000Y-126448816D01*
X132499000Y-126281184D01*
X132531703Y-126116772D01*
X132595853Y-125961900D01*
X132688985Y-125822519D01*
X132807519Y-125703985D01*
X132946900Y-125610853D01*
X133101772Y-125546703D01*
X133266184Y-125514000D01*
X133433816Y-125514000D01*
X133598228Y-125546703D01*
G37*
G36*
X116373228Y-124911703D02*
G01*
X116528100Y-124975853D01*
X116667481Y-125068985D01*
X116786015Y-125187519D01*
X116879147Y-125326900D01*
X116943297Y-125481772D01*
X116976000Y-125646184D01*
X116976000Y-125813816D01*
X116943297Y-125978228D01*
X116879147Y-126133100D01*
X116786015Y-126272481D01*
X116667481Y-126391015D01*
X116528100Y-126484147D01*
X116373228Y-126548297D01*
X116208816Y-126581000D01*
X116041184Y-126581000D01*
X115876772Y-126548297D01*
X115721900Y-126484147D01*
X115582519Y-126391015D01*
X115463985Y-126272481D01*
X115370853Y-126133100D01*
X115306703Y-125978228D01*
X115274000Y-125813816D01*
X115274000Y-125646184D01*
X115306703Y-125481772D01*
X115370853Y-125326900D01*
X115463985Y-125187519D01*
X115582519Y-125068985D01*
X115721900Y-124975853D01*
X115876772Y-124911703D01*
X116041184Y-124879000D01*
X116208816Y-124879000D01*
X116373228Y-124911703D01*
G37*
G36*
X111373228Y-124911703D02*
G01*
X111528100Y-124975853D01*
X111667481Y-125068985D01*
X111786015Y-125187519D01*
X111879147Y-125326900D01*
X111943297Y-125481772D01*
X111976000Y-125646184D01*
X111976000Y-125813816D01*
X111943297Y-125978228D01*
X111879147Y-126133100D01*
X111786015Y-126272481D01*
X111667481Y-126391015D01*
X111528100Y-126484147D01*
X111373228Y-126548297D01*
X111208816Y-126581000D01*
X111041184Y-126581000D01*
X110876772Y-126548297D01*
X110721900Y-126484147D01*
X110582519Y-126391015D01*
X110463985Y-126272481D01*
X110370853Y-126133100D01*
X110306703Y-125978228D01*
X110274000Y-125813816D01*
X110274000Y-125646184D01*
X110306703Y-125481772D01*
X110370853Y-125326900D01*
X110463985Y-125187519D01*
X110582519Y-125068985D01*
X110721900Y-124975853D01*
X110876772Y-124911703D01*
X111041184Y-124879000D01*
X111208816Y-124879000D01*
X111373228Y-124911703D01*
G37*
G36*
X104253512Y-123563927D02*
G01*
X104402812Y-123593624D01*
X104566784Y-123661544D01*
X104714354Y-123760147D01*
X104839853Y-123885646D01*
X104938456Y-124033216D01*
X105006376Y-124197188D01*
X105041000Y-124371259D01*
X105041000Y-124548741D01*
X105006376Y-124722812D01*
X104938456Y-124886784D01*
X104839853Y-125034354D01*
X104714354Y-125159853D01*
X104566784Y-125258456D01*
X104402812Y-125326376D01*
X104253512Y-125356073D01*
X104228742Y-125361000D01*
X104051258Y-125361000D01*
X104026488Y-125356073D01*
X103877188Y-125326376D01*
X103713216Y-125258456D01*
X103565646Y-125159853D01*
X103440147Y-125034354D01*
X103341544Y-124886784D01*
X103273624Y-124722812D01*
X103239000Y-124548741D01*
X103239000Y-124371259D01*
X103273624Y-124197188D01*
X103341544Y-124033216D01*
X103440147Y-123885646D01*
X103565646Y-123760147D01*
X103713216Y-123661544D01*
X103877188Y-123593624D01*
X104026488Y-123563927D01*
X104051258Y-123559000D01*
X104228742Y-123559000D01*
X104253512Y-123563927D01*
G37*
G36*
X165213512Y-123563927D02*
G01*
X165362812Y-123593624D01*
X165526784Y-123661544D01*
X165674354Y-123760147D01*
X165799853Y-123885646D01*
X165898456Y-124033216D01*
X165966376Y-124197188D01*
X166001000Y-124371259D01*
X166001000Y-124548741D01*
X165966376Y-124722812D01*
X165898456Y-124886784D01*
X165799853Y-125034354D01*
X165674354Y-125159853D01*
X165526784Y-125258456D01*
X165362812Y-125326376D01*
X165213512Y-125356073D01*
X165188742Y-125361000D01*
X165011258Y-125361000D01*
X164986488Y-125356073D01*
X164837188Y-125326376D01*
X164673216Y-125258456D01*
X164525646Y-125159853D01*
X164400147Y-125034354D01*
X164301544Y-124886784D01*
X164233624Y-124722812D01*
X164199000Y-124548741D01*
X164199000Y-124371259D01*
X164233624Y-124197188D01*
X164301544Y-124033216D01*
X164400147Y-123885646D01*
X164525646Y-123760147D01*
X164673216Y-123661544D01*
X164837188Y-123593624D01*
X164986488Y-123563927D01*
X165011258Y-123559000D01*
X165188742Y-123559000D01*
X165213512Y-123563927D01*
G37*
G36*
X121137642Y-123743781D02*
G01*
X121283414Y-123804162D01*
X121283416Y-123804163D01*
X121414608Y-123891822D01*
X121526178Y-124003392D01*
X121572841Y-124073229D01*
X121613838Y-124134586D01*
X121674219Y-124280358D01*
X121705000Y-124435107D01*
X121705000Y-124592893D01*
X121674219Y-124747642D01*
X121616585Y-124886782D01*
X121613837Y-124893416D01*
X121526178Y-125024608D01*
X121414608Y-125136178D01*
X121283416Y-125223837D01*
X121283415Y-125223838D01*
X121283414Y-125223838D01*
X121137642Y-125284219D01*
X120982893Y-125315000D01*
X120825107Y-125315000D01*
X120670358Y-125284219D01*
X120524586Y-125223838D01*
X120524585Y-125223838D01*
X120524584Y-125223837D01*
X120393392Y-125136178D01*
X120281822Y-125024608D01*
X120194163Y-124893416D01*
X120191415Y-124886782D01*
X120133781Y-124747642D01*
X120103000Y-124592893D01*
X120103000Y-124435107D01*
X120133781Y-124280358D01*
X120194162Y-124134586D01*
X120235159Y-124073229D01*
X120281822Y-124003392D01*
X120393392Y-123891822D01*
X120524584Y-123804163D01*
X120524586Y-123804162D01*
X120670358Y-123743781D01*
X120825107Y-123713000D01*
X120982893Y-123713000D01*
X121137642Y-123743781D01*
G37*
G36*
X146108823Y-123367313D02*
G01*
X146269242Y-123415976D01*
X146401906Y-123486886D01*
X146417078Y-123494996D01*
X146546659Y-123601341D01*
X146653004Y-123730922D01*
X146653005Y-123730924D01*
X146732024Y-123878758D01*
X146732025Y-123878761D01*
X146734114Y-123885647D01*
X146780687Y-124039177D01*
X146797117Y-124206000D01*
X146780687Y-124372823D01*
X146732024Y-124533242D01*
X146700140Y-124592892D01*
X146653004Y-124681078D01*
X146546659Y-124810659D01*
X146417078Y-124917004D01*
X146417076Y-124917005D01*
X146269242Y-124996024D01*
X146108823Y-125044687D01*
X145983804Y-125057000D01*
X145100196Y-125057000D01*
X144975177Y-125044687D01*
X144814758Y-124996024D01*
X144666924Y-124917005D01*
X144666922Y-124917004D01*
X144537341Y-124810659D01*
X144430996Y-124681078D01*
X144383860Y-124592892D01*
X144351976Y-124533242D01*
X144303313Y-124372823D01*
X144286883Y-124206000D01*
X144303313Y-124039177D01*
X144349886Y-123885647D01*
X144351975Y-123878761D01*
X144351976Y-123878758D01*
X144430995Y-123730924D01*
X144430996Y-123730922D01*
X144537341Y-123601341D01*
X144666922Y-123494996D01*
X144682094Y-123486886D01*
X144814758Y-123415976D01*
X144975177Y-123367313D01*
X145100196Y-123355000D01*
X145983804Y-123355000D01*
X146108823Y-123367313D01*
G37*
G36*
X138488823Y-123367313D02*
G01*
X138649242Y-123415976D01*
X138781906Y-123486886D01*
X138797078Y-123494996D01*
X138926659Y-123601341D01*
X139033004Y-123730922D01*
X139033005Y-123730924D01*
X139112024Y-123878758D01*
X139112025Y-123878761D01*
X139114114Y-123885647D01*
X139160687Y-124039177D01*
X139177117Y-124206000D01*
X139160687Y-124372823D01*
X139112024Y-124533242D01*
X139080140Y-124592892D01*
X139033004Y-124681078D01*
X138926659Y-124810659D01*
X138797078Y-124917004D01*
X138797076Y-124917005D01*
X138649242Y-124996024D01*
X138488823Y-125044687D01*
X138363804Y-125057000D01*
X137480196Y-125057000D01*
X137355177Y-125044687D01*
X137194758Y-124996024D01*
X137046924Y-124917005D01*
X137046922Y-124917004D01*
X136917341Y-124810659D01*
X136810996Y-124681078D01*
X136763860Y-124592892D01*
X136731976Y-124533242D01*
X136683313Y-124372823D01*
X136666883Y-124206000D01*
X136683313Y-124039177D01*
X136729886Y-123885647D01*
X136731975Y-123878761D01*
X136731976Y-123878758D01*
X136810995Y-123730924D01*
X136810996Y-123730922D01*
X136917341Y-123601341D01*
X137046922Y-123494996D01*
X137062094Y-123486886D01*
X137194758Y-123415976D01*
X137355177Y-123367313D01*
X137480196Y-123355000D01*
X138363804Y-123355000D01*
X138488823Y-123367313D01*
G37*
G36*
X160268228Y-123006703D02*
G01*
X160423100Y-123070853D01*
X160562481Y-123163985D01*
X160681015Y-123282519D01*
X160774147Y-123421900D01*
X160838297Y-123576772D01*
X160871000Y-123741184D01*
X160871000Y-123908816D01*
X160838297Y-124073228D01*
X160774147Y-124228100D01*
X160681015Y-124367481D01*
X160562481Y-124486015D01*
X160423100Y-124579147D01*
X160268228Y-124643297D01*
X160103816Y-124676000D01*
X159936184Y-124676000D01*
X159771772Y-124643297D01*
X159616900Y-124579147D01*
X159477519Y-124486015D01*
X159358985Y-124367481D01*
X159265853Y-124228100D01*
X159201703Y-124073228D01*
X159169000Y-123908816D01*
X159169000Y-123741184D01*
X159201703Y-123576772D01*
X159265853Y-123421900D01*
X159358985Y-123282519D01*
X159477519Y-123163985D01*
X159616900Y-123070853D01*
X159771772Y-123006703D01*
X159936184Y-122974000D01*
X160103816Y-122974000D01*
X160268228Y-123006703D01*
G37*
G36*
X153918228Y-123006703D02*
G01*
X154073100Y-123070853D01*
X154212481Y-123163985D01*
X154331015Y-123282519D01*
X154424147Y-123421900D01*
X154488297Y-123576772D01*
X154521000Y-123741184D01*
X154521000Y-123908816D01*
X154488297Y-124073228D01*
X154424147Y-124228100D01*
X154331015Y-124367481D01*
X154212481Y-124486015D01*
X154073100Y-124579147D01*
X153918228Y-124643297D01*
X153753816Y-124676000D01*
X153586184Y-124676000D01*
X153421772Y-124643297D01*
X153266900Y-124579147D01*
X153127519Y-124486015D01*
X153008985Y-124367481D01*
X152915853Y-124228100D01*
X152851703Y-124073228D01*
X152819000Y-123908816D01*
X152819000Y-123741184D01*
X152851703Y-123576772D01*
X152915853Y-123421900D01*
X153008985Y-123282519D01*
X153127519Y-123163985D01*
X153266900Y-123070853D01*
X153421772Y-123006703D01*
X153586184Y-122974000D01*
X153753816Y-122974000D01*
X153918228Y-123006703D01*
G37*
G36*
X133598228Y-123006703D02*
G01*
X133753100Y-123070853D01*
X133892481Y-123163985D01*
X134011015Y-123282519D01*
X134104147Y-123421900D01*
X134168297Y-123576772D01*
X134201000Y-123741184D01*
X134201000Y-123908816D01*
X134168297Y-124073228D01*
X134104147Y-124228100D01*
X134011015Y-124367481D01*
X133892481Y-124486015D01*
X133753100Y-124579147D01*
X133598228Y-124643297D01*
X133433816Y-124676000D01*
X133266184Y-124676000D01*
X133101772Y-124643297D01*
X132946900Y-124579147D01*
X132807519Y-124486015D01*
X132688985Y-124367481D01*
X132595853Y-124228100D01*
X132531703Y-124073228D01*
X132499000Y-123908816D01*
X132499000Y-123741184D01*
X132531703Y-123576772D01*
X132595853Y-123421900D01*
X132688985Y-123282519D01*
X132807519Y-123163985D01*
X132946900Y-123070853D01*
X133101772Y-123006703D01*
X133266184Y-122974000D01*
X133433816Y-122974000D01*
X133598228Y-123006703D01*
G37*
G36*
X125978228Y-123006703D02*
G01*
X126133100Y-123070853D01*
X126272481Y-123163985D01*
X126391015Y-123282519D01*
X126484147Y-123421900D01*
X126548297Y-123576772D01*
X126581000Y-123741184D01*
X126581000Y-123908816D01*
X126548297Y-124073228D01*
X126484147Y-124228100D01*
X126391015Y-124367481D01*
X126272481Y-124486015D01*
X126133100Y-124579147D01*
X125978228Y-124643297D01*
X125813816Y-124676000D01*
X125646184Y-124676000D01*
X125481772Y-124643297D01*
X125326900Y-124579147D01*
X125187519Y-124486015D01*
X125068985Y-124367481D01*
X124975853Y-124228100D01*
X124911703Y-124073228D01*
X124879000Y-123908816D01*
X124879000Y-123741184D01*
X124911703Y-123576772D01*
X124975853Y-123421900D01*
X125068985Y-123282519D01*
X125187519Y-123163985D01*
X125326900Y-123070853D01*
X125481772Y-123006703D01*
X125646184Y-122974000D01*
X125813816Y-122974000D01*
X125978228Y-123006703D01*
G37*
G36*
X116373228Y-121736703D02*
G01*
X116528100Y-121800853D01*
X116667481Y-121893985D01*
X116786015Y-122012519D01*
X116879147Y-122151900D01*
X116943297Y-122306772D01*
X116976000Y-122471184D01*
X116976000Y-122638816D01*
X116943297Y-122803228D01*
X116879147Y-122958100D01*
X116786015Y-123097481D01*
X116667481Y-123216015D01*
X116528100Y-123309147D01*
X116373228Y-123373297D01*
X116208816Y-123406000D01*
X116041184Y-123406000D01*
X115876772Y-123373297D01*
X115721900Y-123309147D01*
X115582519Y-123216015D01*
X115463985Y-123097481D01*
X115370853Y-122958100D01*
X115306703Y-122803228D01*
X115274000Y-122638816D01*
X115274000Y-122471184D01*
X115306703Y-122306772D01*
X115370853Y-122151900D01*
X115463985Y-122012519D01*
X115582519Y-121893985D01*
X115721900Y-121800853D01*
X115876772Y-121736703D01*
X116041184Y-121704000D01*
X116208816Y-121704000D01*
X116373228Y-121736703D01*
G37*
G36*
X111373228Y-121736703D02*
G01*
X111528100Y-121800853D01*
X111667481Y-121893985D01*
X111786015Y-122012519D01*
X111879147Y-122151900D01*
X111943297Y-122306772D01*
X111976000Y-122471184D01*
X111976000Y-122638816D01*
X111943297Y-122803228D01*
X111879147Y-122958100D01*
X111786015Y-123097481D01*
X111667481Y-123216015D01*
X111528100Y-123309147D01*
X111373228Y-123373297D01*
X111208816Y-123406000D01*
X111041184Y-123406000D01*
X110876772Y-123373297D01*
X110721900Y-123309147D01*
X110582519Y-123216015D01*
X110463985Y-123097481D01*
X110370853Y-122958100D01*
X110306703Y-122803228D01*
X110274000Y-122638816D01*
X110274000Y-122471184D01*
X110306703Y-122306772D01*
X110370853Y-122151900D01*
X110463985Y-122012519D01*
X110582519Y-121893985D01*
X110721900Y-121800853D01*
X110876772Y-121736703D01*
X111041184Y-121704000D01*
X111208816Y-121704000D01*
X111373228Y-121736703D01*
G37*
G36*
X104253512Y-121023927D02*
G01*
X104402812Y-121053624D01*
X104566784Y-121121544D01*
X104714354Y-121220147D01*
X104839853Y-121345646D01*
X104938456Y-121493216D01*
X105006376Y-121657188D01*
X105041000Y-121831259D01*
X105041000Y-122008741D01*
X105006376Y-122182812D01*
X104938456Y-122346784D01*
X104839853Y-122494354D01*
X104714354Y-122619853D01*
X104566784Y-122718456D01*
X104402812Y-122786376D01*
X104253512Y-122816073D01*
X104228742Y-122821000D01*
X104051258Y-122821000D01*
X104026488Y-122816073D01*
X103877188Y-122786376D01*
X103713216Y-122718456D01*
X103565646Y-122619853D01*
X103440147Y-122494354D01*
X103341544Y-122346784D01*
X103273624Y-122182812D01*
X103239000Y-122008741D01*
X103239000Y-121831259D01*
X103273624Y-121657188D01*
X103341544Y-121493216D01*
X103440147Y-121345646D01*
X103565646Y-121220147D01*
X103713216Y-121121544D01*
X103877188Y-121053624D01*
X104026488Y-121023927D01*
X104051258Y-121019000D01*
X104228742Y-121019000D01*
X104253512Y-121023927D01*
G37*
G36*
X165213512Y-121023927D02*
G01*
X165362812Y-121053624D01*
X165526784Y-121121544D01*
X165674354Y-121220147D01*
X165799853Y-121345646D01*
X165898456Y-121493216D01*
X165966376Y-121657188D01*
X166001000Y-121831259D01*
X166001000Y-122008741D01*
X165966376Y-122182812D01*
X165898456Y-122346784D01*
X165799853Y-122494354D01*
X165674354Y-122619853D01*
X165526784Y-122718456D01*
X165362812Y-122786376D01*
X165213512Y-122816073D01*
X165188742Y-122821000D01*
X165011258Y-122821000D01*
X164986488Y-122816073D01*
X164837188Y-122786376D01*
X164673216Y-122718456D01*
X164525646Y-122619853D01*
X164400147Y-122494354D01*
X164301544Y-122346784D01*
X164233624Y-122182812D01*
X164199000Y-122008741D01*
X164199000Y-121831259D01*
X164233624Y-121657188D01*
X164301544Y-121493216D01*
X164400147Y-121345646D01*
X164525646Y-121220147D01*
X164673216Y-121121544D01*
X164837188Y-121053624D01*
X164986488Y-121023927D01*
X165011258Y-121019000D01*
X165188742Y-121019000D01*
X165213512Y-121023927D01*
G37*
G36*
X138488823Y-120827313D02*
G01*
X138649242Y-120875976D01*
X138781906Y-120946886D01*
X138797078Y-120954996D01*
X138926659Y-121061341D01*
X139033004Y-121190922D01*
X139033005Y-121190924D01*
X139112024Y-121338758D01*
X139112025Y-121338761D01*
X139114114Y-121345647D01*
X139160687Y-121499177D01*
X139177117Y-121666000D01*
X139160687Y-121832823D01*
X139112024Y-121993242D01*
X139053199Y-122103295D01*
X139033004Y-122141078D01*
X138926659Y-122270659D01*
X138797078Y-122377004D01*
X138797076Y-122377005D01*
X138649242Y-122456024D01*
X138488823Y-122504687D01*
X138363804Y-122517000D01*
X137480196Y-122517000D01*
X137355177Y-122504687D01*
X137194758Y-122456024D01*
X137046924Y-122377005D01*
X137046922Y-122377004D01*
X136917341Y-122270659D01*
X136810996Y-122141078D01*
X136790801Y-122103295D01*
X136731976Y-121993242D01*
X136683313Y-121832823D01*
X136666883Y-121666000D01*
X136683313Y-121499177D01*
X136729886Y-121345647D01*
X136731975Y-121338761D01*
X136731976Y-121338758D01*
X136810995Y-121190924D01*
X136810996Y-121190922D01*
X136917341Y-121061341D01*
X137046922Y-120954996D01*
X137062094Y-120946886D01*
X137194758Y-120875976D01*
X137355177Y-120827313D01*
X137480196Y-120815000D01*
X138363804Y-120815000D01*
X138488823Y-120827313D01*
G37*
G36*
X146108823Y-120827313D02*
G01*
X146269242Y-120875976D01*
X146401906Y-120946886D01*
X146417078Y-120954996D01*
X146546659Y-121061341D01*
X146653004Y-121190922D01*
X146653005Y-121190924D01*
X146732024Y-121338758D01*
X146732025Y-121338761D01*
X146734114Y-121345647D01*
X146780687Y-121499177D01*
X146797117Y-121666000D01*
X146780687Y-121832823D01*
X146732024Y-121993242D01*
X146673199Y-122103295D01*
X146653004Y-122141078D01*
X146546659Y-122270659D01*
X146417078Y-122377004D01*
X146417076Y-122377005D01*
X146269242Y-122456024D01*
X146108823Y-122504687D01*
X145983804Y-122517000D01*
X145100196Y-122517000D01*
X144975177Y-122504687D01*
X144814758Y-122456024D01*
X144666924Y-122377005D01*
X144666922Y-122377004D01*
X144537341Y-122270659D01*
X144430996Y-122141078D01*
X144410801Y-122103295D01*
X144351976Y-121993242D01*
X144303313Y-121832823D01*
X144286883Y-121666000D01*
X144303313Y-121499177D01*
X144349886Y-121345647D01*
X144351975Y-121338761D01*
X144351976Y-121338758D01*
X144430995Y-121190924D01*
X144430996Y-121190922D01*
X144537341Y-121061341D01*
X144666922Y-120954996D01*
X144682094Y-120946886D01*
X144814758Y-120875976D01*
X144975177Y-120827313D01*
X145100196Y-120815000D01*
X145983804Y-120815000D01*
X146108823Y-120827313D01*
G37*
G36*
X133598228Y-120466703D02*
G01*
X133753100Y-120530853D01*
X133892481Y-120623985D01*
X134011015Y-120742519D01*
X134104147Y-120881900D01*
X134168297Y-121036772D01*
X134201000Y-121201184D01*
X134201000Y-121368816D01*
X134168297Y-121533228D01*
X134104147Y-121688100D01*
X134011015Y-121827481D01*
X133892481Y-121946015D01*
X133753100Y-122039147D01*
X133598228Y-122103297D01*
X133433816Y-122136000D01*
X133266184Y-122136000D01*
X133101772Y-122103297D01*
X132946900Y-122039147D01*
X132807519Y-121946015D01*
X132688985Y-121827481D01*
X132595853Y-121688100D01*
X132531703Y-121533228D01*
X132499000Y-121368816D01*
X132499000Y-121201184D01*
X132531703Y-121036772D01*
X132595853Y-120881900D01*
X132688985Y-120742519D01*
X132807519Y-120623985D01*
X132946900Y-120530853D01*
X133101772Y-120466703D01*
X133266184Y-120434000D01*
X133433816Y-120434000D01*
X133598228Y-120466703D01*
G37*
G36*
X125978228Y-120466703D02*
G01*
X126133100Y-120530853D01*
X126272481Y-120623985D01*
X126391015Y-120742519D01*
X126484147Y-120881900D01*
X126548297Y-121036772D01*
X126581000Y-121201184D01*
X126581000Y-121368816D01*
X126548297Y-121533228D01*
X126484147Y-121688100D01*
X126391015Y-121827481D01*
X126272481Y-121946015D01*
X126133100Y-122039147D01*
X125978228Y-122103297D01*
X125813816Y-122136000D01*
X125646184Y-122136000D01*
X125481772Y-122103297D01*
X125326900Y-122039147D01*
X125187519Y-121946015D01*
X125068985Y-121827481D01*
X124975853Y-121688100D01*
X124911703Y-121533228D01*
X124879000Y-121368816D01*
X124879000Y-121201184D01*
X124911703Y-121036772D01*
X124975853Y-120881900D01*
X125068985Y-120742519D01*
X125187519Y-120623985D01*
X125326900Y-120530853D01*
X125481772Y-120466703D01*
X125646184Y-120434000D01*
X125813816Y-120434000D01*
X125978228Y-120466703D01*
G37*
G36*
X153918228Y-119196703D02*
G01*
X154073100Y-119260853D01*
X154212481Y-119353985D01*
X154331015Y-119472519D01*
X154424147Y-119611900D01*
X154488297Y-119766772D01*
X154521000Y-119931184D01*
X154521000Y-120098816D01*
X154488297Y-120263228D01*
X154424147Y-120418100D01*
X154331015Y-120557481D01*
X154212481Y-120676015D01*
X154073100Y-120769147D01*
X153918228Y-120833297D01*
X153753816Y-120866000D01*
X153586184Y-120866000D01*
X153421772Y-120833297D01*
X153266900Y-120769147D01*
X153127519Y-120676015D01*
X153008985Y-120557481D01*
X152915853Y-120418100D01*
X152851703Y-120263228D01*
X152819000Y-120098816D01*
X152819000Y-119931184D01*
X152851703Y-119766772D01*
X152915853Y-119611900D01*
X153008985Y-119472519D01*
X153127519Y-119353985D01*
X153266900Y-119260853D01*
X153421772Y-119196703D01*
X153586184Y-119164000D01*
X153753816Y-119164000D01*
X153918228Y-119196703D01*
G37*
G36*
X160268228Y-119196703D02*
G01*
X160423100Y-119260853D01*
X160562481Y-119353985D01*
X160681015Y-119472519D01*
X160774147Y-119611900D01*
X160838297Y-119766772D01*
X160871000Y-119931184D01*
X160871000Y-120098816D01*
X160838297Y-120263228D01*
X160774147Y-120418100D01*
X160681015Y-120557481D01*
X160562481Y-120676015D01*
X160423100Y-120769147D01*
X160268228Y-120833297D01*
X160103816Y-120866000D01*
X159936184Y-120866000D01*
X159771772Y-120833297D01*
X159616900Y-120769147D01*
X159477519Y-120676015D01*
X159358985Y-120557481D01*
X159265853Y-120418100D01*
X159201703Y-120263228D01*
X159169000Y-120098816D01*
X159169000Y-119931184D01*
X159201703Y-119766772D01*
X159265853Y-119611900D01*
X159358985Y-119472519D01*
X159477519Y-119353985D01*
X159616900Y-119260853D01*
X159771772Y-119196703D01*
X159936184Y-119164000D01*
X160103816Y-119164000D01*
X160268228Y-119196703D01*
G37*
G36*
X121137642Y-118863781D02*
G01*
X121283414Y-118924162D01*
X121283416Y-118924163D01*
X121414608Y-119011822D01*
X121526178Y-119123392D01*
X121613837Y-119254584D01*
X121613838Y-119254586D01*
X121674219Y-119400358D01*
X121705000Y-119555107D01*
X121705000Y-119712893D01*
X121674219Y-119867642D01*
X121634022Y-119964686D01*
X121613837Y-120013416D01*
X121526178Y-120144608D01*
X121414608Y-120256178D01*
X121283416Y-120343837D01*
X121283415Y-120343838D01*
X121283414Y-120343838D01*
X121137642Y-120404219D01*
X120982893Y-120435000D01*
X120825107Y-120435000D01*
X120670358Y-120404219D01*
X120524586Y-120343838D01*
X120524585Y-120343838D01*
X120524584Y-120343837D01*
X120393392Y-120256178D01*
X120281822Y-120144608D01*
X120194163Y-120013416D01*
X120173978Y-119964686D01*
X120133781Y-119867642D01*
X120103000Y-119712893D01*
X120103000Y-119555107D01*
X120133781Y-119400358D01*
X120194162Y-119254586D01*
X120194163Y-119254584D01*
X120281822Y-119123392D01*
X120393392Y-119011822D01*
X120524584Y-118924163D01*
X120524586Y-118924162D01*
X120670358Y-118863781D01*
X120825107Y-118833000D01*
X120982893Y-118833000D01*
X121137642Y-118863781D01*
G37*
G36*
X104253512Y-118483927D02*
G01*
X104402812Y-118513624D01*
X104566784Y-118581544D01*
X104714354Y-118680147D01*
X104839853Y-118805646D01*
X104938456Y-118953216D01*
X105006376Y-119117188D01*
X105041000Y-119291259D01*
X105041000Y-119468741D01*
X105006376Y-119642812D01*
X104938456Y-119806784D01*
X104839853Y-119954354D01*
X104714354Y-120079853D01*
X104566784Y-120178456D01*
X104402812Y-120246376D01*
X104253512Y-120276073D01*
X104228742Y-120281000D01*
X104051258Y-120281000D01*
X104026488Y-120276073D01*
X103877188Y-120246376D01*
X103713216Y-120178456D01*
X103565646Y-120079853D01*
X103440147Y-119954354D01*
X103341544Y-119806784D01*
X103273624Y-119642812D01*
X103239000Y-119468741D01*
X103239000Y-119291259D01*
X103273624Y-119117188D01*
X103341544Y-118953216D01*
X103440147Y-118805646D01*
X103565646Y-118680147D01*
X103713216Y-118581544D01*
X103877188Y-118513624D01*
X104026488Y-118483927D01*
X104051258Y-118479000D01*
X104228742Y-118479000D01*
X104253512Y-118483927D01*
G37*
G36*
X165213512Y-118483927D02*
G01*
X165362812Y-118513624D01*
X165526784Y-118581544D01*
X165674354Y-118680147D01*
X165799853Y-118805646D01*
X165898456Y-118953216D01*
X165966376Y-119117188D01*
X166001000Y-119291259D01*
X166001000Y-119468741D01*
X165966376Y-119642812D01*
X165898456Y-119806784D01*
X165799853Y-119954354D01*
X165674354Y-120079853D01*
X165526784Y-120178456D01*
X165362812Y-120246376D01*
X165213512Y-120276073D01*
X165188742Y-120281000D01*
X165011258Y-120281000D01*
X164986488Y-120276073D01*
X164837188Y-120246376D01*
X164673216Y-120178456D01*
X164525646Y-120079853D01*
X164400147Y-119954354D01*
X164301544Y-119806784D01*
X164233624Y-119642812D01*
X164199000Y-119468741D01*
X164199000Y-119291259D01*
X164233624Y-119117188D01*
X164301544Y-118953216D01*
X164400147Y-118805646D01*
X164525646Y-118680147D01*
X164673216Y-118581544D01*
X164837188Y-118513624D01*
X164986488Y-118483927D01*
X165011258Y-118479000D01*
X165188742Y-118479000D01*
X165213512Y-118483927D01*
G37*
G36*
X138488823Y-118287313D02*
G01*
X138649242Y-118335976D01*
X138781906Y-118406886D01*
X138797078Y-118414996D01*
X138926659Y-118521341D01*
X139033004Y-118650922D01*
X139033005Y-118650924D01*
X139112024Y-118798758D01*
X139112025Y-118798761D01*
X139114114Y-118805647D01*
X139160687Y-118959177D01*
X139177117Y-119126000D01*
X139160687Y-119292823D01*
X139112024Y-119453242D01*
X139057576Y-119555107D01*
X139033004Y-119601078D01*
X138926659Y-119730659D01*
X138797078Y-119837004D01*
X138797076Y-119837005D01*
X138649242Y-119916024D01*
X138488823Y-119964687D01*
X138363804Y-119977000D01*
X137480196Y-119977000D01*
X137355177Y-119964687D01*
X137194758Y-119916024D01*
X137046924Y-119837005D01*
X137046922Y-119837004D01*
X136917341Y-119730659D01*
X136810996Y-119601078D01*
X136786424Y-119555107D01*
X136731976Y-119453242D01*
X136683313Y-119292823D01*
X136666883Y-119126000D01*
X136683313Y-118959177D01*
X136729886Y-118805647D01*
X136731975Y-118798761D01*
X136731976Y-118798758D01*
X136810995Y-118650924D01*
X136810996Y-118650922D01*
X136917341Y-118521341D01*
X137046922Y-118414996D01*
X137062094Y-118406886D01*
X137194758Y-118335976D01*
X137355177Y-118287313D01*
X137480196Y-118275000D01*
X138363804Y-118275000D01*
X138488823Y-118287313D01*
G37*
G36*
X146108823Y-118287313D02*
G01*
X146269242Y-118335976D01*
X146401906Y-118406886D01*
X146417078Y-118414996D01*
X146546659Y-118521341D01*
X146653004Y-118650922D01*
X146653005Y-118650924D01*
X146732024Y-118798758D01*
X146732025Y-118798761D01*
X146734114Y-118805647D01*
X146780687Y-118959177D01*
X146797117Y-119126000D01*
X146780687Y-119292823D01*
X146732024Y-119453242D01*
X146677576Y-119555107D01*
X146653004Y-119601078D01*
X146546659Y-119730659D01*
X146417078Y-119837004D01*
X146417076Y-119837005D01*
X146269242Y-119916024D01*
X146108823Y-119964687D01*
X145983804Y-119977000D01*
X145100196Y-119977000D01*
X144975177Y-119964687D01*
X144814758Y-119916024D01*
X144666924Y-119837005D01*
X144666922Y-119837004D01*
X144537341Y-119730659D01*
X144430996Y-119601078D01*
X144406424Y-119555107D01*
X144351976Y-119453242D01*
X144303313Y-119292823D01*
X144286883Y-119126000D01*
X144303313Y-118959177D01*
X144349886Y-118805647D01*
X144351975Y-118798761D01*
X144351976Y-118798758D01*
X144430995Y-118650924D01*
X144430996Y-118650922D01*
X144537341Y-118521341D01*
X144666922Y-118414996D01*
X144682094Y-118406886D01*
X144814758Y-118335976D01*
X144975177Y-118287313D01*
X145100196Y-118275000D01*
X145983804Y-118275000D01*
X146108823Y-118287313D01*
G37*
G36*
X133598228Y-117926703D02*
G01*
X133753100Y-117990853D01*
X133892481Y-118083985D01*
X134011015Y-118202519D01*
X134104147Y-118341900D01*
X134168297Y-118496772D01*
X134201000Y-118661184D01*
X134201000Y-118828816D01*
X134168297Y-118993228D01*
X134104147Y-119148100D01*
X134011015Y-119287481D01*
X133892481Y-119406015D01*
X133753100Y-119499147D01*
X133598228Y-119563297D01*
X133433816Y-119596000D01*
X133266184Y-119596000D01*
X133101772Y-119563297D01*
X132946900Y-119499147D01*
X132807519Y-119406015D01*
X132688985Y-119287481D01*
X132595853Y-119148100D01*
X132531703Y-118993228D01*
X132499000Y-118828816D01*
X132499000Y-118661184D01*
X132531703Y-118496772D01*
X132595853Y-118341900D01*
X132688985Y-118202519D01*
X132807519Y-118083985D01*
X132946900Y-117990853D01*
X133101772Y-117926703D01*
X133266184Y-117894000D01*
X133433816Y-117894000D01*
X133598228Y-117926703D01*
G37*
G36*
X125978228Y-117926703D02*
G01*
X126133100Y-117990853D01*
X126272481Y-118083985D01*
X126391015Y-118202519D01*
X126484147Y-118341900D01*
X126548297Y-118496772D01*
X126581000Y-118661184D01*
X126581000Y-118828816D01*
X126548297Y-118993228D01*
X126484147Y-119148100D01*
X126391015Y-119287481D01*
X126272481Y-119406015D01*
X126133100Y-119499147D01*
X125978228Y-119563297D01*
X125813816Y-119596000D01*
X125646184Y-119596000D01*
X125481772Y-119563297D01*
X125326900Y-119499147D01*
X125187519Y-119406015D01*
X125068985Y-119287481D01*
X124975853Y-119148100D01*
X124911703Y-118993228D01*
X124879000Y-118828816D01*
X124879000Y-118661184D01*
X124911703Y-118496772D01*
X124975853Y-118341900D01*
X125068985Y-118202519D01*
X125187519Y-118083985D01*
X125326900Y-117990853D01*
X125481772Y-117926703D01*
X125646184Y-117894000D01*
X125813816Y-117894000D01*
X125978228Y-117926703D01*
G37*
G36*
X165213512Y-115943927D02*
G01*
X165362812Y-115973624D01*
X165526784Y-116041544D01*
X165674354Y-116140147D01*
X165799853Y-116265646D01*
X165898456Y-116413216D01*
X165966376Y-116577188D01*
X166001000Y-116751259D01*
X166001000Y-116928741D01*
X165966376Y-117102812D01*
X165898456Y-117266784D01*
X165799853Y-117414354D01*
X165674354Y-117539853D01*
X165526784Y-117638456D01*
X165362812Y-117706376D01*
X165213512Y-117736073D01*
X165188742Y-117741000D01*
X165011258Y-117741000D01*
X164986488Y-117736073D01*
X164837188Y-117706376D01*
X164673216Y-117638456D01*
X164525646Y-117539853D01*
X164400147Y-117414354D01*
X164301544Y-117266784D01*
X164233624Y-117102812D01*
X164199000Y-116928741D01*
X164199000Y-116751259D01*
X164233624Y-116577188D01*
X164301544Y-116413216D01*
X164400147Y-116265646D01*
X164525646Y-116140147D01*
X164673216Y-116041544D01*
X164837188Y-115973624D01*
X164986488Y-115943927D01*
X165011258Y-115939000D01*
X165188742Y-115939000D01*
X165213512Y-115943927D01*
G37*
G36*
X104253512Y-115943927D02*
G01*
X104402812Y-115973624D01*
X104566784Y-116041544D01*
X104714354Y-116140147D01*
X104839853Y-116265646D01*
X104938456Y-116413216D01*
X105006376Y-116577188D01*
X105041000Y-116751259D01*
X105041000Y-116928741D01*
X105006376Y-117102812D01*
X104938456Y-117266784D01*
X104839853Y-117414354D01*
X104714354Y-117539853D01*
X104566784Y-117638456D01*
X104402812Y-117706376D01*
X104253512Y-117736073D01*
X104228742Y-117741000D01*
X104051258Y-117741000D01*
X104026488Y-117736073D01*
X103877188Y-117706376D01*
X103713216Y-117638456D01*
X103565646Y-117539853D01*
X103440147Y-117414354D01*
X103341544Y-117266784D01*
X103273624Y-117102812D01*
X103239000Y-116928741D01*
X103239000Y-116751259D01*
X103273624Y-116577188D01*
X103341544Y-116413216D01*
X103440147Y-116265646D01*
X103565646Y-116140147D01*
X103713216Y-116041544D01*
X103877188Y-115973624D01*
X104026488Y-115943927D01*
X104051258Y-115939000D01*
X104228742Y-115939000D01*
X104253512Y-115943927D01*
G37*
G36*
X138488823Y-115747313D02*
G01*
X138649242Y-115795976D01*
X138690874Y-115818229D01*
X138797078Y-115874996D01*
X138926659Y-115981341D01*
X139033004Y-116110922D01*
X139033005Y-116110924D01*
X139112024Y-116258758D01*
X139112025Y-116258761D01*
X139114114Y-116265647D01*
X139160687Y-116419177D01*
X139177117Y-116586000D01*
X139160687Y-116752823D01*
X139112024Y-116913242D01*
X139053199Y-117023295D01*
X139033004Y-117061078D01*
X138926659Y-117190659D01*
X138797078Y-117297004D01*
X138797076Y-117297005D01*
X138649242Y-117376024D01*
X138488823Y-117424687D01*
X138363804Y-117437000D01*
X137480196Y-117437000D01*
X137355177Y-117424687D01*
X137194758Y-117376024D01*
X137046924Y-117297005D01*
X137046922Y-117297004D01*
X136917341Y-117190659D01*
X136810996Y-117061078D01*
X136790801Y-117023295D01*
X136731976Y-116913242D01*
X136683313Y-116752823D01*
X136666883Y-116586000D01*
X136683313Y-116419177D01*
X136729886Y-116265647D01*
X136731975Y-116258761D01*
X136731976Y-116258758D01*
X136810995Y-116110924D01*
X136810996Y-116110922D01*
X136917341Y-115981341D01*
X137046922Y-115874996D01*
X137153126Y-115818229D01*
X137194758Y-115795976D01*
X137355177Y-115747313D01*
X137480196Y-115735000D01*
X138363804Y-115735000D01*
X138488823Y-115747313D01*
G37*
G36*
X146108823Y-115747313D02*
G01*
X146269242Y-115795976D01*
X146310874Y-115818229D01*
X146417078Y-115874996D01*
X146546659Y-115981341D01*
X146653004Y-116110922D01*
X146653005Y-116110924D01*
X146732024Y-116258758D01*
X146732025Y-116258761D01*
X146734114Y-116265647D01*
X146780687Y-116419177D01*
X146797117Y-116586000D01*
X146780687Y-116752823D01*
X146732024Y-116913242D01*
X146673199Y-117023295D01*
X146653004Y-117061078D01*
X146546659Y-117190659D01*
X146417078Y-117297004D01*
X146417076Y-117297005D01*
X146269242Y-117376024D01*
X146108823Y-117424687D01*
X145983804Y-117437000D01*
X145100196Y-117437000D01*
X144975177Y-117424687D01*
X144814758Y-117376024D01*
X144666924Y-117297005D01*
X144666922Y-117297004D01*
X144537341Y-117190659D01*
X144430996Y-117061078D01*
X144410801Y-117023295D01*
X144351976Y-116913242D01*
X144303313Y-116752823D01*
X144286883Y-116586000D01*
X144303313Y-116419177D01*
X144349886Y-116265647D01*
X144351975Y-116258761D01*
X144351976Y-116258758D01*
X144430995Y-116110924D01*
X144430996Y-116110922D01*
X144537341Y-115981341D01*
X144666922Y-115874996D01*
X144773126Y-115818229D01*
X144814758Y-115795976D01*
X144975177Y-115747313D01*
X145100196Y-115735000D01*
X145983804Y-115735000D01*
X146108823Y-115747313D01*
G37*
G36*
X125978228Y-115386703D02*
G01*
X126133100Y-115450853D01*
X126272481Y-115543985D01*
X126391015Y-115662519D01*
X126484147Y-115801900D01*
X126548297Y-115956772D01*
X126581000Y-116121184D01*
X126581000Y-116288816D01*
X126548297Y-116453228D01*
X126484147Y-116608100D01*
X126391015Y-116747481D01*
X126272481Y-116866015D01*
X126133100Y-116959147D01*
X125978228Y-117023297D01*
X125813816Y-117056000D01*
X125646184Y-117056000D01*
X125481772Y-117023297D01*
X125326900Y-116959147D01*
X125187519Y-116866015D01*
X125068985Y-116747481D01*
X124975853Y-116608100D01*
X124911703Y-116453228D01*
X124879000Y-116288816D01*
X124879000Y-116121184D01*
X124911703Y-115956772D01*
X124975853Y-115801900D01*
X125068985Y-115662519D01*
X125187519Y-115543985D01*
X125326900Y-115450853D01*
X125481772Y-115386703D01*
X125646184Y-115354000D01*
X125813816Y-115354000D01*
X125978228Y-115386703D01*
G37*
G36*
X133598228Y-115386703D02*
G01*
X133753100Y-115450853D01*
X133892481Y-115543985D01*
X134011015Y-115662519D01*
X134104147Y-115801900D01*
X134168297Y-115956772D01*
X134201000Y-116121184D01*
X134201000Y-116288816D01*
X134168297Y-116453228D01*
X134104147Y-116608100D01*
X134011015Y-116747481D01*
X133892481Y-116866015D01*
X133753100Y-116959147D01*
X133598228Y-117023297D01*
X133433816Y-117056000D01*
X133266184Y-117056000D01*
X133101772Y-117023297D01*
X132946900Y-116959147D01*
X132807519Y-116866015D01*
X132688985Y-116747481D01*
X132595853Y-116608100D01*
X132531703Y-116453228D01*
X132499000Y-116288816D01*
X132499000Y-116121184D01*
X132531703Y-115956772D01*
X132595853Y-115801900D01*
X132688985Y-115662519D01*
X132807519Y-115543985D01*
X132946900Y-115450853D01*
X133101772Y-115386703D01*
X133266184Y-115354000D01*
X133433816Y-115354000D01*
X133598228Y-115386703D01*
G37*
G36*
X115738228Y-114751703D02*
G01*
X115893100Y-114815853D01*
X116032481Y-114908985D01*
X116151015Y-115027519D01*
X116244147Y-115166900D01*
X116308297Y-115321772D01*
X116341000Y-115486184D01*
X116341000Y-115653816D01*
X116308297Y-115818228D01*
X116244147Y-115973100D01*
X116151015Y-116112481D01*
X116032481Y-116231015D01*
X115893100Y-116324147D01*
X115738228Y-116388297D01*
X115573816Y-116421000D01*
X115406184Y-116421000D01*
X115241772Y-116388297D01*
X115086900Y-116324147D01*
X114947519Y-116231015D01*
X114828985Y-116112481D01*
X114735853Y-115973100D01*
X114671703Y-115818228D01*
X114639000Y-115653816D01*
X114639000Y-115486184D01*
X114671703Y-115321772D01*
X114735853Y-115166900D01*
X114828985Y-115027519D01*
X114947519Y-114908985D01*
X115086900Y-114815853D01*
X115241772Y-114751703D01*
X115406184Y-114719000D01*
X115573816Y-114719000D01*
X115738228Y-114751703D01*
G37*
G36*
X110738228Y-114751703D02*
G01*
X110893100Y-114815853D01*
X111032481Y-114908985D01*
X111151015Y-115027519D01*
X111244147Y-115166900D01*
X111308297Y-115321772D01*
X111341000Y-115486184D01*
X111341000Y-115653816D01*
X111308297Y-115818228D01*
X111244147Y-115973100D01*
X111151015Y-116112481D01*
X111032481Y-116231015D01*
X110893100Y-116324147D01*
X110738228Y-116388297D01*
X110573816Y-116421000D01*
X110406184Y-116421000D01*
X110241772Y-116388297D01*
X110086900Y-116324147D01*
X109947519Y-116231015D01*
X109828985Y-116112481D01*
X109735853Y-115973100D01*
X109671703Y-115818228D01*
X109639000Y-115653816D01*
X109639000Y-115486184D01*
X109671703Y-115321772D01*
X109735853Y-115166900D01*
X109828985Y-115027519D01*
X109947519Y-114908985D01*
X110086900Y-114815853D01*
X110241772Y-114751703D01*
X110406184Y-114719000D01*
X110573816Y-114719000D01*
X110738228Y-114751703D01*
G37*
G36*
X165213512Y-113403927D02*
G01*
X165362812Y-113433624D01*
X165526784Y-113501544D01*
X165674354Y-113600147D01*
X165799853Y-113725646D01*
X165898456Y-113873216D01*
X165966376Y-114037188D01*
X166001000Y-114211259D01*
X166001000Y-114388741D01*
X165966376Y-114562812D01*
X165898456Y-114726784D01*
X165799853Y-114874354D01*
X165674354Y-114999853D01*
X165526784Y-115098456D01*
X165362812Y-115166376D01*
X165213512Y-115196073D01*
X165188742Y-115201000D01*
X165011258Y-115201000D01*
X164986488Y-115196073D01*
X164837188Y-115166376D01*
X164673216Y-115098456D01*
X164525646Y-114999853D01*
X164400147Y-114874354D01*
X164301544Y-114726784D01*
X164233624Y-114562812D01*
X164199000Y-114388741D01*
X164199000Y-114211259D01*
X164233624Y-114037188D01*
X164301544Y-113873216D01*
X164400147Y-113725646D01*
X164525646Y-113600147D01*
X164673216Y-113501544D01*
X164837188Y-113433624D01*
X164986488Y-113403927D01*
X165011258Y-113399000D01*
X165188742Y-113399000D01*
X165213512Y-113403927D01*
G37*
G36*
X104253512Y-113403927D02*
G01*
X104402812Y-113433624D01*
X104566784Y-113501544D01*
X104714354Y-113600147D01*
X104839853Y-113725646D01*
X104938456Y-113873216D01*
X105006376Y-114037188D01*
X105041000Y-114211259D01*
X105041000Y-114388741D01*
X105006376Y-114562812D01*
X104938456Y-114726784D01*
X104839853Y-114874354D01*
X104714354Y-114999853D01*
X104566784Y-115098456D01*
X104402812Y-115166376D01*
X104253512Y-115196073D01*
X104228742Y-115201000D01*
X104051258Y-115201000D01*
X104026488Y-115196073D01*
X103877188Y-115166376D01*
X103713216Y-115098456D01*
X103565646Y-114999853D01*
X103440147Y-114874354D01*
X103341544Y-114726784D01*
X103273624Y-114562812D01*
X103239000Y-114388741D01*
X103239000Y-114211259D01*
X103273624Y-114037188D01*
X103341544Y-113873216D01*
X103440147Y-113725646D01*
X103565646Y-113600147D01*
X103713216Y-113501544D01*
X103877188Y-113433624D01*
X104026488Y-113403927D01*
X104051258Y-113399000D01*
X104228742Y-113399000D01*
X104253512Y-113403927D01*
G37*
G36*
X138488823Y-113207313D02*
G01*
X138649242Y-113255976D01*
X138781906Y-113326886D01*
X138797078Y-113334996D01*
X138926659Y-113441341D01*
X139033004Y-113570922D01*
X139033005Y-113570924D01*
X139112024Y-113718758D01*
X139112025Y-113718761D01*
X139114114Y-113725647D01*
X139160687Y-113879177D01*
X139177117Y-114046000D01*
X139160687Y-114212823D01*
X139112024Y-114373242D01*
X139053199Y-114483295D01*
X139033004Y-114521078D01*
X138926659Y-114650659D01*
X138797078Y-114757004D01*
X138797076Y-114757005D01*
X138649242Y-114836024D01*
X138488823Y-114884687D01*
X138363804Y-114897000D01*
X137480196Y-114897000D01*
X137355177Y-114884687D01*
X137194758Y-114836024D01*
X137046924Y-114757005D01*
X137046922Y-114757004D01*
X136917341Y-114650659D01*
X136810996Y-114521078D01*
X136790801Y-114483295D01*
X136731976Y-114373242D01*
X136683313Y-114212823D01*
X136666883Y-114046000D01*
X136683313Y-113879177D01*
X136729886Y-113725647D01*
X136731975Y-113718761D01*
X136731976Y-113718758D01*
X136810995Y-113570924D01*
X136810996Y-113570922D01*
X136917341Y-113441341D01*
X137046922Y-113334996D01*
X137062094Y-113326886D01*
X137194758Y-113255976D01*
X137355177Y-113207313D01*
X137480196Y-113195000D01*
X138363804Y-113195000D01*
X138488823Y-113207313D01*
G37*
G36*
X146108823Y-113207313D02*
G01*
X146269242Y-113255976D01*
X146401906Y-113326886D01*
X146417078Y-113334996D01*
X146546659Y-113441341D01*
X146653004Y-113570922D01*
X146653005Y-113570924D01*
X146732024Y-113718758D01*
X146732025Y-113718761D01*
X146734114Y-113725647D01*
X146780687Y-113879177D01*
X146797117Y-114046000D01*
X146780687Y-114212823D01*
X146732024Y-114373242D01*
X146673199Y-114483295D01*
X146653004Y-114521078D01*
X146546659Y-114650659D01*
X146417078Y-114757004D01*
X146417076Y-114757005D01*
X146269242Y-114836024D01*
X146108823Y-114884687D01*
X145983804Y-114897000D01*
X145100196Y-114897000D01*
X144975177Y-114884687D01*
X144814758Y-114836024D01*
X144666924Y-114757005D01*
X144666922Y-114757004D01*
X144537341Y-114650659D01*
X144430996Y-114521078D01*
X144410801Y-114483295D01*
X144351976Y-114373242D01*
X144303313Y-114212823D01*
X144286883Y-114046000D01*
X144303313Y-113879177D01*
X144349886Y-113725647D01*
X144351975Y-113718761D01*
X144351976Y-113718758D01*
X144430995Y-113570924D01*
X144430996Y-113570922D01*
X144537341Y-113441341D01*
X144666922Y-113334996D01*
X144682094Y-113326886D01*
X144814758Y-113255976D01*
X144975177Y-113207313D01*
X145100196Y-113195000D01*
X145983804Y-113195000D01*
X146108823Y-113207313D01*
G37*
G36*
X125978228Y-112846703D02*
G01*
X126133100Y-112910853D01*
X126272481Y-113003985D01*
X126391015Y-113122519D01*
X126484147Y-113261900D01*
X126548297Y-113416772D01*
X126581000Y-113581184D01*
X126581000Y-113748816D01*
X126548297Y-113913228D01*
X126484147Y-114068100D01*
X126391015Y-114207481D01*
X126272481Y-114326015D01*
X126133100Y-114419147D01*
X125978228Y-114483297D01*
X125813816Y-114516000D01*
X125646184Y-114516000D01*
X125481772Y-114483297D01*
X125326900Y-114419147D01*
X125187519Y-114326015D01*
X125068985Y-114207481D01*
X124975853Y-114068100D01*
X124911703Y-113913228D01*
X124879000Y-113748816D01*
X124879000Y-113581184D01*
X124911703Y-113416772D01*
X124975853Y-113261900D01*
X125068985Y-113122519D01*
X125187519Y-113003985D01*
X125326900Y-112910853D01*
X125481772Y-112846703D01*
X125646184Y-112814000D01*
X125813816Y-112814000D01*
X125978228Y-112846703D01*
G37*
G36*
X133598228Y-112846703D02*
G01*
X133753100Y-112910853D01*
X133892481Y-113003985D01*
X134011015Y-113122519D01*
X134104147Y-113261900D01*
X134168297Y-113416772D01*
X134201000Y-113581184D01*
X134201000Y-113748816D01*
X134168297Y-113913228D01*
X134104147Y-114068100D01*
X134011015Y-114207481D01*
X133892481Y-114326015D01*
X133753100Y-114419147D01*
X133598228Y-114483297D01*
X133433816Y-114516000D01*
X133266184Y-114516000D01*
X133101772Y-114483297D01*
X132946900Y-114419147D01*
X132807519Y-114326015D01*
X132688985Y-114207481D01*
X132595853Y-114068100D01*
X132531703Y-113913228D01*
X132499000Y-113748816D01*
X132499000Y-113581184D01*
X132531703Y-113416772D01*
X132595853Y-113261900D01*
X132688985Y-113122519D01*
X132807519Y-113003985D01*
X132946900Y-112910853D01*
X133101772Y-112846703D01*
X133266184Y-112814000D01*
X133433816Y-112814000D01*
X133598228Y-112846703D01*
G37*
G36*
X104253512Y-110863927D02*
G01*
X104402812Y-110893624D01*
X104566784Y-110961544D01*
X104714354Y-111060147D01*
X104839853Y-111185646D01*
X104938456Y-111333216D01*
X105006376Y-111497188D01*
X105041000Y-111671259D01*
X105041000Y-111848741D01*
X105006376Y-112022812D01*
X104938456Y-112186784D01*
X104839853Y-112334354D01*
X104714354Y-112459853D01*
X104566784Y-112558456D01*
X104402812Y-112626376D01*
X104253512Y-112656073D01*
X104228742Y-112661000D01*
X104051258Y-112661000D01*
X104026488Y-112656073D01*
X103877188Y-112626376D01*
X103713216Y-112558456D01*
X103565646Y-112459853D01*
X103440147Y-112334354D01*
X103341544Y-112186784D01*
X103273624Y-112022812D01*
X103239000Y-111848741D01*
X103239000Y-111671259D01*
X103273624Y-111497188D01*
X103341544Y-111333216D01*
X103440147Y-111185646D01*
X103565646Y-111060147D01*
X103713216Y-110961544D01*
X103877188Y-110893624D01*
X104026488Y-110863927D01*
X104051258Y-110859000D01*
X104228742Y-110859000D01*
X104253512Y-110863927D01*
G37*
G36*
X165213512Y-110863927D02*
G01*
X165362812Y-110893624D01*
X165526784Y-110961544D01*
X165674354Y-111060147D01*
X165799853Y-111185646D01*
X165898456Y-111333216D01*
X165966376Y-111497188D01*
X166001000Y-111671259D01*
X166001000Y-111848741D01*
X165966376Y-112022812D01*
X165898456Y-112186784D01*
X165799853Y-112334354D01*
X165674354Y-112459853D01*
X165526784Y-112558456D01*
X165362812Y-112626376D01*
X165213512Y-112656073D01*
X165188742Y-112661000D01*
X165011258Y-112661000D01*
X164986488Y-112656073D01*
X164837188Y-112626376D01*
X164673216Y-112558456D01*
X164525646Y-112459853D01*
X164400147Y-112334354D01*
X164301544Y-112186784D01*
X164233624Y-112022812D01*
X164199000Y-111848741D01*
X164199000Y-111671259D01*
X164233624Y-111497188D01*
X164301544Y-111333216D01*
X164400147Y-111185646D01*
X164525646Y-111060147D01*
X164673216Y-110961544D01*
X164837188Y-110893624D01*
X164986488Y-110863927D01*
X165011258Y-110859000D01*
X165188742Y-110859000D01*
X165213512Y-110863927D01*
G37*
G36*
X146108823Y-110667313D02*
G01*
X146269242Y-110715976D01*
X146401906Y-110786886D01*
X146417078Y-110794996D01*
X146546659Y-110901341D01*
X146653004Y-111030922D01*
X146653005Y-111030924D01*
X146732024Y-111178758D01*
X146732025Y-111178761D01*
X146734114Y-111185647D01*
X146780687Y-111339177D01*
X146797117Y-111506000D01*
X146780687Y-111672823D01*
X146732024Y-111833242D01*
X146673199Y-111943295D01*
X146653004Y-111981078D01*
X146546659Y-112110659D01*
X146417078Y-112217004D01*
X146417076Y-112217005D01*
X146269242Y-112296024D01*
X146108823Y-112344687D01*
X145983804Y-112357000D01*
X145100196Y-112357000D01*
X144975177Y-112344687D01*
X144814758Y-112296024D01*
X144666924Y-112217005D01*
X144666922Y-112217004D01*
X144537341Y-112110659D01*
X144430996Y-111981078D01*
X144410801Y-111943295D01*
X144351976Y-111833242D01*
X144303313Y-111672823D01*
X144286883Y-111506000D01*
X144303313Y-111339177D01*
X144349886Y-111185647D01*
X144351975Y-111178761D01*
X144351976Y-111178758D01*
X144430995Y-111030924D01*
X144430996Y-111030922D01*
X144537341Y-110901341D01*
X144666922Y-110794996D01*
X144682094Y-110786886D01*
X144814758Y-110715976D01*
X144975177Y-110667313D01*
X145100196Y-110655000D01*
X145983804Y-110655000D01*
X146108823Y-110667313D01*
G37*
G36*
X138488823Y-110667313D02*
G01*
X138649242Y-110715976D01*
X138781906Y-110786886D01*
X138797078Y-110794996D01*
X138926659Y-110901341D01*
X139033004Y-111030922D01*
X139033005Y-111030924D01*
X139112024Y-111178758D01*
X139112025Y-111178761D01*
X139114114Y-111185647D01*
X139160687Y-111339177D01*
X139177117Y-111506000D01*
X139160687Y-111672823D01*
X139112024Y-111833242D01*
X139053199Y-111943295D01*
X139033004Y-111981078D01*
X138926659Y-112110659D01*
X138797078Y-112217004D01*
X138797076Y-112217005D01*
X138649242Y-112296024D01*
X138488823Y-112344687D01*
X138363804Y-112357000D01*
X137480196Y-112357000D01*
X137355177Y-112344687D01*
X137194758Y-112296024D01*
X137046924Y-112217005D01*
X137046922Y-112217004D01*
X136917341Y-112110659D01*
X136810996Y-111981078D01*
X136790801Y-111943295D01*
X136731976Y-111833242D01*
X136683313Y-111672823D01*
X136666883Y-111506000D01*
X136683313Y-111339177D01*
X136729886Y-111185647D01*
X136731975Y-111178761D01*
X136731976Y-111178758D01*
X136810995Y-111030924D01*
X136810996Y-111030922D01*
X136917341Y-110901341D01*
X137046922Y-110794996D01*
X137062094Y-110786886D01*
X137194758Y-110715976D01*
X137355177Y-110667313D01*
X137480196Y-110655000D01*
X138363804Y-110655000D01*
X138488823Y-110667313D01*
G37*
G36*
X125978228Y-110306703D02*
G01*
X126133100Y-110370853D01*
X126272481Y-110463985D01*
X126391015Y-110582519D01*
X126484147Y-110721900D01*
X126548297Y-110876772D01*
X126581000Y-111041184D01*
X126581000Y-111208816D01*
X126548297Y-111373228D01*
X126484147Y-111528100D01*
X126391015Y-111667481D01*
X126272481Y-111786015D01*
X126133100Y-111879147D01*
X125978228Y-111943297D01*
X125813816Y-111976000D01*
X125646184Y-111976000D01*
X125481772Y-111943297D01*
X125326900Y-111879147D01*
X125187519Y-111786015D01*
X125068985Y-111667481D01*
X124975853Y-111528100D01*
X124911703Y-111373228D01*
X124879000Y-111208816D01*
X124879000Y-111041184D01*
X124911703Y-110876772D01*
X124975853Y-110721900D01*
X125068985Y-110582519D01*
X125187519Y-110463985D01*
X125326900Y-110370853D01*
X125481772Y-110306703D01*
X125646184Y-110274000D01*
X125813816Y-110274000D01*
X125978228Y-110306703D01*
G37*
G36*
X133598228Y-110306703D02*
G01*
X133753100Y-110370853D01*
X133892481Y-110463985D01*
X134011015Y-110582519D01*
X134104147Y-110721900D01*
X134168297Y-110876772D01*
X134201000Y-111041184D01*
X134201000Y-111208816D01*
X134168297Y-111373228D01*
X134104147Y-111528100D01*
X134011015Y-111667481D01*
X133892481Y-111786015D01*
X133753100Y-111879147D01*
X133598228Y-111943297D01*
X133433816Y-111976000D01*
X133266184Y-111976000D01*
X133101772Y-111943297D01*
X132946900Y-111879147D01*
X132807519Y-111786015D01*
X132688985Y-111667481D01*
X132595853Y-111528100D01*
X132531703Y-111373228D01*
X132499000Y-111208816D01*
X132499000Y-111041184D01*
X132531703Y-110876772D01*
X132595853Y-110721900D01*
X132688985Y-110582519D01*
X132807519Y-110463985D01*
X132946900Y-110370853D01*
X133101772Y-110306703D01*
X133266184Y-110274000D01*
X133433816Y-110274000D01*
X133598228Y-110306703D01*
G37*
G36*
X160268228Y-109036703D02*
G01*
X160423100Y-109100853D01*
X160562481Y-109193985D01*
X160681015Y-109312519D01*
X160774147Y-109451900D01*
X160838297Y-109606772D01*
X160871000Y-109771184D01*
X160871000Y-109938816D01*
X160838297Y-110103228D01*
X160774147Y-110258100D01*
X160681015Y-110397481D01*
X160562481Y-110516015D01*
X160423100Y-110609147D01*
X160268228Y-110673297D01*
X160103816Y-110706000D01*
X159936184Y-110706000D01*
X159771772Y-110673297D01*
X159616900Y-110609147D01*
X159477519Y-110516015D01*
X159358985Y-110397481D01*
X159265853Y-110258100D01*
X159201703Y-110103228D01*
X159169000Y-109938816D01*
X159169000Y-109771184D01*
X159201703Y-109606772D01*
X159265853Y-109451900D01*
X159358985Y-109312519D01*
X159477519Y-109193985D01*
X159616900Y-109100853D01*
X159771772Y-109036703D01*
X159936184Y-109004000D01*
X160103816Y-109004000D01*
X160268228Y-109036703D01*
G37*
G36*
X153918228Y-109036703D02*
G01*
X154073100Y-109100853D01*
X154212481Y-109193985D01*
X154331015Y-109312519D01*
X154424147Y-109451900D01*
X154488297Y-109606772D01*
X154521000Y-109771184D01*
X154521000Y-109938816D01*
X154488297Y-110103228D01*
X154424147Y-110258100D01*
X154331015Y-110397481D01*
X154212481Y-110516015D01*
X154073100Y-110609147D01*
X153918228Y-110673297D01*
X153753816Y-110706000D01*
X153586184Y-110706000D01*
X153421772Y-110673297D01*
X153266900Y-110609147D01*
X153127519Y-110516015D01*
X153008985Y-110397481D01*
X152915853Y-110258100D01*
X152851703Y-110103228D01*
X152819000Y-109938816D01*
X152819000Y-109771184D01*
X152851703Y-109606772D01*
X152915853Y-109451900D01*
X153008985Y-109312519D01*
X153127519Y-109193985D01*
X153266900Y-109100853D01*
X153421772Y-109036703D01*
X153586184Y-109004000D01*
X153753816Y-109004000D01*
X153918228Y-109036703D01*
G37*
G36*
X104253512Y-108323927D02*
G01*
X104402812Y-108353624D01*
X104566784Y-108421544D01*
X104714354Y-108520147D01*
X104839853Y-108645646D01*
X104938456Y-108793216D01*
X105006376Y-108957188D01*
X105041000Y-109131259D01*
X105041000Y-109308741D01*
X105006376Y-109482812D01*
X104938456Y-109646784D01*
X104839853Y-109794354D01*
X104714354Y-109919853D01*
X104566784Y-110018456D01*
X104402812Y-110086376D01*
X104253512Y-110116073D01*
X104228742Y-110121000D01*
X104051258Y-110121000D01*
X104026488Y-110116073D01*
X103877188Y-110086376D01*
X103713216Y-110018456D01*
X103565646Y-109919853D01*
X103440147Y-109794354D01*
X103341544Y-109646784D01*
X103273624Y-109482812D01*
X103239000Y-109308741D01*
X103239000Y-109131259D01*
X103273624Y-108957188D01*
X103341544Y-108793216D01*
X103440147Y-108645646D01*
X103565646Y-108520147D01*
X103713216Y-108421544D01*
X103877188Y-108353624D01*
X104026488Y-108323927D01*
X104051258Y-108319000D01*
X104228742Y-108319000D01*
X104253512Y-108323927D01*
G37*
G36*
X165213512Y-108323927D02*
G01*
X165362812Y-108353624D01*
X165526784Y-108421544D01*
X165674354Y-108520147D01*
X165799853Y-108645646D01*
X165898456Y-108793216D01*
X165966376Y-108957188D01*
X166001000Y-109131259D01*
X166001000Y-109308741D01*
X165966376Y-109482812D01*
X165898456Y-109646784D01*
X165799853Y-109794354D01*
X165674354Y-109919853D01*
X165526784Y-110018456D01*
X165362812Y-110086376D01*
X165213512Y-110116073D01*
X165188742Y-110121000D01*
X165011258Y-110121000D01*
X164986488Y-110116073D01*
X164837188Y-110086376D01*
X164673216Y-110018456D01*
X164525646Y-109919853D01*
X164400147Y-109794354D01*
X164301544Y-109646784D01*
X164233624Y-109482812D01*
X164199000Y-109308741D01*
X164199000Y-109131259D01*
X164233624Y-108957188D01*
X164301544Y-108793216D01*
X164400147Y-108645646D01*
X164525646Y-108520147D01*
X164673216Y-108421544D01*
X164837188Y-108353624D01*
X164986488Y-108323927D01*
X165011258Y-108319000D01*
X165188742Y-108319000D01*
X165213512Y-108323927D01*
G37*
G36*
X146108823Y-108127313D02*
G01*
X146269242Y-108175976D01*
X146401906Y-108246886D01*
X146417078Y-108254996D01*
X146546659Y-108361341D01*
X146653004Y-108490922D01*
X146653005Y-108490924D01*
X146732024Y-108638758D01*
X146732025Y-108638761D01*
X146734114Y-108645647D01*
X146780687Y-108799177D01*
X146797117Y-108966000D01*
X146780687Y-109132823D01*
X146732024Y-109293242D01*
X146673199Y-109403295D01*
X146653004Y-109441078D01*
X146546659Y-109570659D01*
X146417078Y-109677004D01*
X146417076Y-109677005D01*
X146269242Y-109756024D01*
X146108823Y-109804687D01*
X145983804Y-109817000D01*
X145100196Y-109817000D01*
X144975177Y-109804687D01*
X144814758Y-109756024D01*
X144666924Y-109677005D01*
X144666922Y-109677004D01*
X144537341Y-109570659D01*
X144430996Y-109441078D01*
X144410801Y-109403295D01*
X144351976Y-109293242D01*
X144303313Y-109132823D01*
X144286883Y-108966000D01*
X144303313Y-108799177D01*
X144349886Y-108645647D01*
X144351975Y-108638761D01*
X144351976Y-108638758D01*
X144430995Y-108490924D01*
X144430996Y-108490922D01*
X144537341Y-108361341D01*
X144666922Y-108254996D01*
X144682094Y-108246886D01*
X144814758Y-108175976D01*
X144975177Y-108127313D01*
X145100196Y-108115000D01*
X145983804Y-108115000D01*
X146108823Y-108127313D01*
G37*
G36*
X139173000Y-109817000D02*
G01*
X136671000Y-109817000D01*
X136671000Y-108115000D01*
X139173000Y-108115000D01*
X139173000Y-109817000D01*
G37*
G36*
X133598228Y-107766703D02*
G01*
X133753100Y-107830853D01*
X133892481Y-107923985D01*
X134011015Y-108042519D01*
X134104147Y-108181900D01*
X134168297Y-108336772D01*
X134201000Y-108501184D01*
X134201000Y-108668816D01*
X134168297Y-108833228D01*
X134104147Y-108988100D01*
X134011015Y-109127481D01*
X133892481Y-109246015D01*
X133753100Y-109339147D01*
X133598228Y-109403297D01*
X133433816Y-109436000D01*
X133266184Y-109436000D01*
X133101772Y-109403297D01*
X132946900Y-109339147D01*
X132807519Y-109246015D01*
X132688985Y-109127481D01*
X132595853Y-108988100D01*
X132531703Y-108833228D01*
X132499000Y-108668816D01*
X132499000Y-108501184D01*
X132531703Y-108336772D01*
X132595853Y-108181900D01*
X132688985Y-108042519D01*
X132807519Y-107923985D01*
X132946900Y-107830853D01*
X133101772Y-107766703D01*
X133266184Y-107734000D01*
X133433816Y-107734000D01*
X133598228Y-107766703D01*
G37*
G36*
X125978228Y-107766703D02*
G01*
X126133100Y-107830853D01*
X126272481Y-107923985D01*
X126391015Y-108042519D01*
X126484147Y-108181900D01*
X126548297Y-108336772D01*
X126581000Y-108501184D01*
X126581000Y-108668816D01*
X126548297Y-108833228D01*
X126484147Y-108988100D01*
X126391015Y-109127481D01*
X126272481Y-109246015D01*
X126133100Y-109339147D01*
X125978228Y-109403297D01*
X125813816Y-109436000D01*
X125646184Y-109436000D01*
X125481772Y-109403297D01*
X125326900Y-109339147D01*
X125187519Y-109246015D01*
X125068985Y-109127481D01*
X124975853Y-108988100D01*
X124911703Y-108833228D01*
X124879000Y-108668816D01*
X124879000Y-108501184D01*
X124911703Y-108336772D01*
X124975853Y-108181900D01*
X125068985Y-108042519D01*
X125187519Y-107923985D01*
X125326900Y-107830853D01*
X125481772Y-107766703D01*
X125646184Y-107734000D01*
X125813816Y-107734000D01*
X125978228Y-107766703D01*
G37*
G36*
X165213512Y-105783927D02*
G01*
X165362812Y-105813624D01*
X165526784Y-105881544D01*
X165674354Y-105980147D01*
X165799853Y-106105646D01*
X165898456Y-106253216D01*
X165966376Y-106417188D01*
X166001000Y-106591259D01*
X166001000Y-106768741D01*
X165966376Y-106942812D01*
X165898456Y-107106784D01*
X165799853Y-107254354D01*
X165674354Y-107379853D01*
X165526784Y-107478456D01*
X165362812Y-107546376D01*
X165213512Y-107576073D01*
X165188742Y-107581000D01*
X165011258Y-107581000D01*
X164986488Y-107576073D01*
X164837188Y-107546376D01*
X164673216Y-107478456D01*
X164525646Y-107379853D01*
X164400147Y-107254354D01*
X164301544Y-107106784D01*
X164233624Y-106942812D01*
X164199000Y-106768741D01*
X164199000Y-106591259D01*
X164233624Y-106417188D01*
X164301544Y-106253216D01*
X164400147Y-106105646D01*
X164525646Y-105980147D01*
X164673216Y-105881544D01*
X164837188Y-105813624D01*
X164986488Y-105783927D01*
X165011258Y-105779000D01*
X165188742Y-105779000D01*
X165213512Y-105783927D01*
G37*
G36*
X104253512Y-105783927D02*
G01*
X104402812Y-105813624D01*
X104566784Y-105881544D01*
X104714354Y-105980147D01*
X104839853Y-106105646D01*
X104938456Y-106253216D01*
X105006376Y-106417188D01*
X105041000Y-106591259D01*
X105041000Y-106768741D01*
X105006376Y-106942812D01*
X104938456Y-107106784D01*
X104839853Y-107254354D01*
X104714354Y-107379853D01*
X104566784Y-107478456D01*
X104402812Y-107546376D01*
X104253512Y-107576073D01*
X104228742Y-107581000D01*
X104051258Y-107581000D01*
X104026488Y-107576073D01*
X103877188Y-107546376D01*
X103713216Y-107478456D01*
X103565646Y-107379853D01*
X103440147Y-107254354D01*
X103341544Y-107106784D01*
X103273624Y-106942812D01*
X103239000Y-106768741D01*
X103239000Y-106591259D01*
X103273624Y-106417188D01*
X103341544Y-106253216D01*
X103440147Y-106105646D01*
X103565646Y-105980147D01*
X103713216Y-105881544D01*
X103877188Y-105813624D01*
X104026488Y-105783927D01*
X104051258Y-105779000D01*
X104228742Y-105779000D01*
X104253512Y-105783927D01*
G37*
G36*
X133598228Y-105226703D02*
G01*
X133753100Y-105290853D01*
X133892481Y-105383985D01*
X134011015Y-105502519D01*
X134104147Y-105641900D01*
X134168297Y-105796772D01*
X134201000Y-105961184D01*
X134201000Y-106128816D01*
X134168297Y-106293228D01*
X134104147Y-106448100D01*
X134011015Y-106587481D01*
X133892481Y-106706015D01*
X133753100Y-106799147D01*
X133598228Y-106863297D01*
X133433816Y-106896000D01*
X133266184Y-106896000D01*
X133101772Y-106863297D01*
X132946900Y-106799147D01*
X132807519Y-106706015D01*
X132688985Y-106587481D01*
X132595853Y-106448100D01*
X132531703Y-106293228D01*
X132499000Y-106128816D01*
X132499000Y-105961184D01*
X132531703Y-105796772D01*
X132595853Y-105641900D01*
X132688985Y-105502519D01*
X132807519Y-105383985D01*
X132946900Y-105290853D01*
X133101772Y-105226703D01*
X133266184Y-105194000D01*
X133433816Y-105194000D01*
X133598228Y-105226703D01*
G37*
G36*
X125978228Y-105226703D02*
G01*
X126133100Y-105290853D01*
X126272481Y-105383985D01*
X126391015Y-105502519D01*
X126484147Y-105641900D01*
X126548297Y-105796772D01*
X126581000Y-105961184D01*
X126581000Y-106128816D01*
X126548297Y-106293228D01*
X126484147Y-106448100D01*
X126391015Y-106587481D01*
X126272481Y-106706015D01*
X126133100Y-106799147D01*
X125978228Y-106863297D01*
X125813816Y-106896000D01*
X125646184Y-106896000D01*
X125481772Y-106863297D01*
X125326900Y-106799147D01*
X125187519Y-106706015D01*
X125068985Y-106587481D01*
X124975853Y-106448100D01*
X124911703Y-106293228D01*
X124879000Y-106128816D01*
X124879000Y-105961184D01*
X124911703Y-105796772D01*
X124975853Y-105641900D01*
X125068985Y-105502519D01*
X125187519Y-105383985D01*
X125326900Y-105290853D01*
X125481772Y-105226703D01*
X125646184Y-105194000D01*
X125813816Y-105194000D01*
X125978228Y-105226703D01*
G37*
G36*
X165213512Y-103243927D02*
G01*
X165362812Y-103273624D01*
X165526784Y-103341544D01*
X165674354Y-103440147D01*
X165799853Y-103565646D01*
X165898456Y-103713216D01*
X165966376Y-103877188D01*
X166001000Y-104051259D01*
X166001000Y-104228741D01*
X165966376Y-104402812D01*
X165898456Y-104566784D01*
X165799853Y-104714354D01*
X165674354Y-104839853D01*
X165526784Y-104938456D01*
X165362812Y-105006376D01*
X165213512Y-105036073D01*
X165188742Y-105041000D01*
X165011258Y-105041000D01*
X164986488Y-105036073D01*
X164837188Y-105006376D01*
X164673216Y-104938456D01*
X164525646Y-104839853D01*
X164400147Y-104714354D01*
X164301544Y-104566784D01*
X164233624Y-104402812D01*
X164199000Y-104228741D01*
X164199000Y-104051259D01*
X164233624Y-103877188D01*
X164301544Y-103713216D01*
X164400147Y-103565646D01*
X164525646Y-103440147D01*
X164673216Y-103341544D01*
X164837188Y-103273624D01*
X164986488Y-103243927D01*
X165011258Y-103239000D01*
X165188742Y-103239000D01*
X165213512Y-103243927D01*
G37*
G36*
X104253512Y-103243927D02*
G01*
X104402812Y-103273624D01*
X104566784Y-103341544D01*
X104714354Y-103440147D01*
X104839853Y-103565646D01*
X104938456Y-103713216D01*
X105006376Y-103877188D01*
X105041000Y-104051259D01*
X105041000Y-104228741D01*
X105006376Y-104402812D01*
X104938456Y-104566784D01*
X104839853Y-104714354D01*
X104714354Y-104839853D01*
X104566784Y-104938456D01*
X104402812Y-105006376D01*
X104253512Y-105036073D01*
X104228742Y-105041000D01*
X104051258Y-105041000D01*
X104026488Y-105036073D01*
X103877188Y-105006376D01*
X103713216Y-104938456D01*
X103565646Y-104839853D01*
X103440147Y-104714354D01*
X103341544Y-104566784D01*
X103273624Y-104402812D01*
X103239000Y-104228741D01*
X103239000Y-104051259D01*
X103273624Y-103877188D01*
X103341544Y-103713216D01*
X103440147Y-103565646D01*
X103565646Y-103440147D01*
X103713216Y-103341544D01*
X103877188Y-103273624D01*
X104026488Y-103243927D01*
X104051258Y-103239000D01*
X104228742Y-103239000D01*
X104253512Y-103243927D01*
G37*
G36*
X157007000Y-104635500D02*
G01*
X154905000Y-104635500D01*
X154905000Y-102628500D01*
X157007000Y-102628500D01*
X157007000Y-104635500D01*
G37*
G36*
X126581000Y-104356000D02*
G01*
X124879000Y-104356000D01*
X124879000Y-102654000D01*
X126581000Y-102654000D01*
X126581000Y-104356000D01*
G37*
G36*
X133598228Y-102686703D02*
G01*
X133753100Y-102750853D01*
X133892481Y-102843985D01*
X134011015Y-102962519D01*
X134104147Y-103101900D01*
X134168297Y-103256772D01*
X134201000Y-103421184D01*
X134201000Y-103588816D01*
X134168297Y-103753228D01*
X134104147Y-103908100D01*
X134011015Y-104047481D01*
X133892481Y-104166015D01*
X133753100Y-104259147D01*
X133598228Y-104323297D01*
X133433816Y-104356000D01*
X133266184Y-104356000D01*
X133101772Y-104323297D01*
X132946900Y-104259147D01*
X132807519Y-104166015D01*
X132688985Y-104047481D01*
X132595853Y-103908100D01*
X132531703Y-103753228D01*
X132499000Y-103588816D01*
X132499000Y-103421184D01*
X132531703Y-103256772D01*
X132595853Y-103101900D01*
X132688985Y-102962519D01*
X132807519Y-102843985D01*
X132946900Y-102750853D01*
X133101772Y-102686703D01*
X133266184Y-102654000D01*
X133433816Y-102654000D01*
X133598228Y-102686703D01*
G37*
G36*
X160907393Y-101111304D02*
G01*
X161144101Y-101209352D01*
X161144103Y-101209353D01*
X161357135Y-101351696D01*
X161538304Y-101532865D01*
X161642457Y-101688742D01*
X161680648Y-101745899D01*
X161778696Y-101982607D01*
X161828680Y-102233893D01*
X161828680Y-102490107D01*
X161778696Y-102741393D01*
X161715898Y-102893000D01*
X161680647Y-102978103D01*
X161538304Y-103191135D01*
X161357135Y-103372304D01*
X161144103Y-103514647D01*
X161144102Y-103514648D01*
X161144101Y-103514648D01*
X160907393Y-103612696D01*
X160656107Y-103662680D01*
X160399893Y-103662680D01*
X160148607Y-103612696D01*
X159911899Y-103514648D01*
X159911898Y-103514648D01*
X159911897Y-103514647D01*
X159698865Y-103372304D01*
X159517696Y-103191135D01*
X159375353Y-102978103D01*
X159340102Y-102893000D01*
X159277304Y-102741393D01*
X159227320Y-102490107D01*
X159227320Y-102233893D01*
X159277304Y-101982607D01*
X159375352Y-101745899D01*
X159413543Y-101688742D01*
X159517696Y-101532865D01*
X159698865Y-101351696D01*
X159911897Y-101209353D01*
X159911899Y-101209352D01*
X160148607Y-101111304D01*
X160399893Y-101061320D01*
X160656107Y-101061320D01*
X160907393Y-101111304D01*
G37*
G36*
X139821331Y-99360211D02*
G01*
X140149092Y-99495974D01*
X140444070Y-99693072D01*
X140694928Y-99943930D01*
X140892026Y-100238908D01*
X141027789Y-100566669D01*
X141097000Y-100914616D01*
X141097000Y-101269384D01*
X141027789Y-101617331D01*
X140892026Y-101945092D01*
X140694928Y-102240070D01*
X140444070Y-102490928D01*
X140149092Y-102688026D01*
X139821331Y-102823789D01*
X139473384Y-102893000D01*
X139118616Y-102893000D01*
X138770669Y-102823789D01*
X138442908Y-102688026D01*
X138147930Y-102490928D01*
X137897072Y-102240070D01*
X137699974Y-101945092D01*
X137564211Y-101617331D01*
X137495000Y-101269384D01*
X137495000Y-100914616D01*
X137564211Y-100566669D01*
X137699974Y-100238908D01*
X137897072Y-99943930D01*
X138147930Y-99693072D01*
X138442908Y-99495974D01*
X138770669Y-99360211D01*
X139118616Y-99291000D01*
X139473384Y-99291000D01*
X139821331Y-99360211D01*
G37*
G36*
X165213512Y-100703927D02*
G01*
X165362812Y-100733624D01*
X165526784Y-100801544D01*
X165674354Y-100900147D01*
X165799853Y-101025646D01*
X165898456Y-101173216D01*
X165966376Y-101337188D01*
X166001000Y-101511259D01*
X166001000Y-101688741D01*
X165966376Y-101862812D01*
X165898456Y-102026784D01*
X165799853Y-102174354D01*
X165674354Y-102299853D01*
X165526784Y-102398456D01*
X165362812Y-102466376D01*
X165213512Y-102496073D01*
X165188742Y-102501000D01*
X165011258Y-102501000D01*
X164986488Y-102496073D01*
X164837188Y-102466376D01*
X164673216Y-102398456D01*
X164525646Y-102299853D01*
X164400147Y-102174354D01*
X164301544Y-102026784D01*
X164233624Y-101862812D01*
X164199000Y-101688741D01*
X164199000Y-101511259D01*
X164233624Y-101337188D01*
X164301544Y-101173216D01*
X164400147Y-101025646D01*
X164525646Y-100900147D01*
X164673216Y-100801544D01*
X164837188Y-100733624D01*
X164986488Y-100703927D01*
X165011258Y-100699000D01*
X165188742Y-100699000D01*
X165213512Y-100703927D01*
G37*
G36*
X104253512Y-100703927D02*
G01*
X104402812Y-100733624D01*
X104566784Y-100801544D01*
X104714354Y-100900147D01*
X104839853Y-101025646D01*
X104938456Y-101173216D01*
X105006376Y-101337188D01*
X105041000Y-101511259D01*
X105041000Y-101688741D01*
X105006376Y-101862812D01*
X104938456Y-102026784D01*
X104839853Y-102174354D01*
X104714354Y-102299853D01*
X104566784Y-102398456D01*
X104402812Y-102466376D01*
X104253512Y-102496073D01*
X104228742Y-102501000D01*
X104051258Y-102501000D01*
X104026488Y-102496073D01*
X103877188Y-102466376D01*
X103713216Y-102398456D01*
X103565646Y-102299853D01*
X103440147Y-102174354D01*
X103341544Y-102026784D01*
X103273624Y-101862812D01*
X103239000Y-101688741D01*
X103239000Y-101511259D01*
X103273624Y-101337188D01*
X103341544Y-101173216D01*
X103440147Y-101025646D01*
X103565646Y-100900147D01*
X103713216Y-100801544D01*
X103877188Y-100733624D01*
X104026488Y-100703927D01*
X104051258Y-100699000D01*
X104228742Y-100699000D01*
X104253512Y-100703927D01*
G37*
G36*
X117867740Y-101108626D02*
G01*
X117916136Y-101118253D01*
X117953902Y-101133896D01*
X118007311Y-101156019D01*
X118007312Y-101156020D01*
X118089369Y-101210848D01*
X118159152Y-101280631D01*
X118159153Y-101280633D01*
X118213981Y-101362689D01*
X118236104Y-101416098D01*
X118251747Y-101453864D01*
X118271000Y-101550656D01*
X118271000Y-101649344D01*
X118251795Y-101745897D01*
X118251747Y-101746135D01*
X118213981Y-101837311D01*
X118213980Y-101837312D01*
X118159152Y-101919369D01*
X118089369Y-101989152D01*
X118048062Y-102016752D01*
X118007311Y-102043981D01*
X117953902Y-102066104D01*
X117916136Y-102081747D01*
X117867740Y-102091373D01*
X117819345Y-102101000D01*
X117720655Y-102101000D01*
X117672260Y-102091373D01*
X117623864Y-102081747D01*
X117586098Y-102066104D01*
X117532689Y-102043981D01*
X117491938Y-102016752D01*
X117450631Y-101989152D01*
X117380848Y-101919369D01*
X117326020Y-101837312D01*
X117326019Y-101837311D01*
X117288253Y-101746135D01*
X117288206Y-101745897D01*
X117269000Y-101649344D01*
X117269000Y-101550656D01*
X117288253Y-101453864D01*
X117303896Y-101416098D01*
X117326019Y-101362689D01*
X117380847Y-101280633D01*
X117380848Y-101280631D01*
X117450631Y-101210848D01*
X117532688Y-101156020D01*
X117532689Y-101156019D01*
X117586098Y-101133896D01*
X117623864Y-101118253D01*
X117672260Y-101108627D01*
X117720655Y-101099000D01*
X117819345Y-101099000D01*
X117867740Y-101108626D01*
G37*
G36*
X113467740Y-101108626D02*
G01*
X113516136Y-101118253D01*
X113553902Y-101133896D01*
X113607311Y-101156019D01*
X113607312Y-101156020D01*
X113689369Y-101210848D01*
X113759152Y-101280631D01*
X113759153Y-101280633D01*
X113813981Y-101362689D01*
X113836104Y-101416098D01*
X113851747Y-101453864D01*
X113871000Y-101550656D01*
X113871000Y-101649344D01*
X113851795Y-101745897D01*
X113851747Y-101746135D01*
X113813981Y-101837311D01*
X113813980Y-101837312D01*
X113759152Y-101919369D01*
X113689369Y-101989152D01*
X113648062Y-102016752D01*
X113607311Y-102043981D01*
X113553902Y-102066104D01*
X113516136Y-102081747D01*
X113467740Y-102091373D01*
X113419345Y-102101000D01*
X113320655Y-102101000D01*
X113272260Y-102091373D01*
X113223864Y-102081747D01*
X113186098Y-102066104D01*
X113132689Y-102043981D01*
X113091938Y-102016752D01*
X113050631Y-101989152D01*
X112980848Y-101919369D01*
X112926020Y-101837312D01*
X112926019Y-101837311D01*
X112888253Y-101746135D01*
X112888206Y-101745897D01*
X112869000Y-101649344D01*
X112869000Y-101550656D01*
X112888253Y-101453864D01*
X112903896Y-101416098D01*
X112926019Y-101362689D01*
X112980847Y-101280633D01*
X112980848Y-101280631D01*
X113050631Y-101210848D01*
X113132688Y-101156020D01*
X113132689Y-101156019D01*
X113186098Y-101133896D01*
X113223864Y-101118253D01*
X113272260Y-101108627D01*
X113320655Y-101099000D01*
X113419345Y-101099000D01*
X113467740Y-101108626D01*
G37*
G36*
X156101936Y-100093340D02*
G01*
X156200220Y-100103020D01*
X156389381Y-100160401D01*
X156563712Y-100253583D01*
X156716515Y-100378985D01*
X156841917Y-100531788D01*
X156935099Y-100706119D01*
X156992480Y-100895280D01*
X157011855Y-101092000D01*
X156992480Y-101288720D01*
X156935099Y-101477881D01*
X156841917Y-101652212D01*
X156716515Y-101805015D01*
X156563712Y-101930417D01*
X156389381Y-102023599D01*
X156200220Y-102080980D01*
X156101936Y-102090660D01*
X156052795Y-102095500D01*
X155859205Y-102095500D01*
X155810064Y-102090660D01*
X155711780Y-102080980D01*
X155522619Y-102023599D01*
X155348288Y-101930417D01*
X155195485Y-101805015D01*
X155070083Y-101652212D01*
X154976901Y-101477881D01*
X154919520Y-101288720D01*
X154900145Y-101092000D01*
X154919520Y-100895280D01*
X154976901Y-100706119D01*
X155070083Y-100531788D01*
X155195485Y-100378985D01*
X155348288Y-100253583D01*
X155522619Y-100160401D01*
X155711780Y-100103020D01*
X155810064Y-100093340D01*
X155859205Y-100088500D01*
X156052795Y-100088500D01*
X156101936Y-100093340D01*
G37*
G36*
X161828680Y-99852680D02*
G01*
X159227320Y-99852680D01*
X159227320Y-97251320D01*
X161828680Y-97251320D01*
X161828680Y-99852680D01*
G37*
G36*
X156101936Y-97553340D02*
G01*
X156200220Y-97563020D01*
X156389381Y-97620401D01*
X156563712Y-97713583D01*
X156716515Y-97838985D01*
X156841917Y-97991788D01*
X156935099Y-98166119D01*
X156992480Y-98355280D01*
X157011855Y-98552000D01*
X156992480Y-98748720D01*
X156935099Y-98937881D01*
X156841917Y-99112212D01*
X156716515Y-99265015D01*
X156563712Y-99390417D01*
X156389381Y-99483599D01*
X156200220Y-99540980D01*
X156101936Y-99550660D01*
X156052795Y-99555500D01*
X155859205Y-99555500D01*
X155810064Y-99550660D01*
X155711780Y-99540980D01*
X155522619Y-99483599D01*
X155348288Y-99390417D01*
X155195485Y-99265015D01*
X155070083Y-99112212D01*
X154976901Y-98937881D01*
X154919520Y-98748720D01*
X154900145Y-98552000D01*
X154919520Y-98355280D01*
X154976901Y-98166119D01*
X155070083Y-97991788D01*
X155195485Y-97838985D01*
X155348288Y-97713583D01*
X155522619Y-97620401D01*
X155711780Y-97563020D01*
X155810064Y-97553340D01*
X155859205Y-97548500D01*
X156052795Y-97548500D01*
X156101936Y-97553340D01*
G37*
G36*
X131697393Y-96285304D02*
G01*
X131934101Y-96383352D01*
X131934103Y-96383353D01*
X132147135Y-96525696D01*
X132328304Y-96706865D01*
X132470647Y-96919897D01*
X132470648Y-96919899D01*
X132568696Y-97156607D01*
X132618680Y-97407893D01*
X132618680Y-97664107D01*
X132568696Y-97915393D01*
X132470648Y-98152101D01*
X132470647Y-98152103D01*
X132328304Y-98365135D01*
X132147135Y-98546304D01*
X131934103Y-98688647D01*
X131934102Y-98688648D01*
X131934101Y-98688648D01*
X131697393Y-98786696D01*
X131446107Y-98836680D01*
X131189893Y-98836680D01*
X130938607Y-98786696D01*
X130701899Y-98688648D01*
X130701898Y-98688648D01*
X130701897Y-98688647D01*
X130488865Y-98546304D01*
X130307696Y-98365135D01*
X130165353Y-98152103D01*
X130165352Y-98152101D01*
X130067304Y-97915393D01*
X130017320Y-97664107D01*
X130017320Y-97407893D01*
X130067304Y-97156607D01*
X130165352Y-96919899D01*
X130165353Y-96919897D01*
X130307696Y-96706865D01*
X130488865Y-96525696D01*
X130701897Y-96383353D01*
X130701899Y-96383352D01*
X130938607Y-96285304D01*
X131189893Y-96235320D01*
X131446107Y-96235320D01*
X131697393Y-96285304D01*
G37*
G36*
X128808680Y-98836680D02*
G01*
X126207320Y-98836680D01*
X126207320Y-96235320D01*
X128808680Y-96235320D01*
X128808680Y-98836680D01*
G37*
M02*
