G04 #@! TF.GenerationSoftware,KiCad,Pcbnew,(5.99.0-9618-g5ca7a2c457)*
G04 #@! TF.CreationDate,2021-03-10T23:01:37-05:00*
G04 #@! TF.ProjectId,PCB,5043422e-6b69-4636-9164-5f7063625858,rev?*
G04 #@! TF.SameCoordinates,Original*
G04 #@! TF.FileFunction,Soldermask,Top*
G04 #@! TF.FilePolarity,Negative*
%FSLAX46Y46*%
G04 Gerber Fmt 4.6, Leading zero omitted, Abs format (unit mm)*
G04 Created by KiCad (PCBNEW (5.99.0-9618-g5ca7a2c457)) date 2021-03-10 23:01:37*
%MOMM*%
%LPD*%
G01*
G04 APERTURE LIST*
G04 Aperture macros list*
%AMRoundRect*
0 Rectangle with rounded corners*
0 $1 Rounding radius*
0 $2 $3 $4 $5 $6 $7 $8 $9 X,Y pos of 4 corners*
0 Add a 4 corners polygon primitive as box body*
4,1,4,$2,$3,$4,$5,$6,$7,$8,$9,$2,$3,0*
0 Add four circle primitives for the rounded corners*
1,1,$1+$1,$2,$3*
1,1,$1+$1,$4,$5*
1,1,$1+$1,$6,$7*
1,1,$1+$1,$8,$9*
0 Add four rect primitives between the rounded corners*
20,1,$1+$1,$2,$3,$4,$5,0*
20,1,$1+$1,$4,$5,$6,$7,0*
20,1,$1+$1,$6,$7,$8,$9,0*
20,1,$1+$1,$8,$9,$2,$3,0*%
G04 Aperture macros list end*
%ADD10O,1.700000X1.700000*%
%ADD11R,1.700000X1.700000*%
%ADD12RoundRect,0.250000X0.450000X-0.350000X0.450000X0.350000X-0.450000X0.350000X-0.450000X-0.350000X0*%
%ADD13C,1.600000*%
%ADD14O,1.600000X1.600000*%
%ADD15C,1.500000*%
%ADD16RoundRect,0.250000X-0.475000X0.337500X-0.475000X-0.337500X0.475000X-0.337500X0.475000X0.337500X0*%
%ADD17R,1.800000X1.800000*%
%ADD18C,1.800000*%
%ADD19C,2.000000*%
%ADD20R,1.600000X1.600000*%
%ADD21R,1.500000X1.500000*%
%ADD22R,2.400000X1.600000*%
%ADD23O,2.400000X1.600000*%
%ADD24C,3.200000*%
%ADD25RoundRect,0.250001X0.462499X0.624999X-0.462499X0.624999X-0.462499X-0.624999X0.462499X-0.624999X0*%
%ADD26RoundRect,0.250000X0.450000X-0.325000X0.450000X0.325000X-0.450000X0.325000X-0.450000X-0.325000X0*%
%ADD27R,1.200000X0.400000*%
%ADD28C,1.700000*%
%ADD29C,3.500000*%
%ADD30O,3.500000X3.500000*%
%ADD31R,2.000000X1.905000*%
%ADD32O,2.000000X1.905000*%
G04 APERTURE END LIST*
D10*
X152908000Y-80264000D03*
D11*
X150368000Y-80264000D03*
D10*
X162560000Y-80264000D03*
D11*
X160020000Y-80264000D03*
D12*
X114808000Y-96028000D03*
X114808000Y-98028000D03*
X116840000Y-96028000D03*
X116840000Y-98028000D03*
D11*
X104140000Y-144780000D03*
D10*
X104140000Y-142240000D03*
X104140000Y-139700000D03*
X104140000Y-137160000D03*
X104140000Y-134620000D03*
X104140000Y-132080000D03*
X104140000Y-129540000D03*
X104140000Y-127000000D03*
X104140000Y-124460000D03*
X104140000Y-121920000D03*
X104140000Y-119380000D03*
X104140000Y-116840000D03*
X104140000Y-114300000D03*
X104140000Y-111760000D03*
X104140000Y-109220000D03*
X104140000Y-106680000D03*
X104140000Y-104140000D03*
X104140000Y-101600000D03*
D13*
X150368000Y-101092000D03*
D14*
X150368000Y-111252000D03*
D13*
X157480000Y-138684000D03*
D14*
X157480000Y-148844000D03*
D13*
X111125000Y-117602000D03*
X116125000Y-117602000D03*
X111125000Y-122428000D03*
X116125000Y-122428000D03*
X150368000Y-138684000D03*
D14*
X150368000Y-148844000D03*
D15*
X120904000Y-117602000D03*
X120904000Y-122482000D03*
D13*
X157480000Y-119888000D03*
D14*
X157480000Y-130048000D03*
D13*
X157480000Y-101092000D03*
D14*
X157480000Y-111252000D03*
D16*
X107696000Y-100562500D03*
X107696000Y-102637500D03*
D17*
X137668000Y-82804000D03*
D18*
X139827000Y-82804000D03*
X141986000Y-82804000D03*
X144145000Y-82804000D03*
D19*
X125072000Y-84836000D03*
X131572000Y-84836000D03*
X125072000Y-80336000D03*
X131572000Y-80336000D03*
D20*
X127000000Y-99060000D03*
D14*
X127000000Y-101600000D03*
X127000000Y-104140000D03*
X127000000Y-106680000D03*
X127000000Y-109220000D03*
X127000000Y-111760000D03*
X127000000Y-114300000D03*
X127000000Y-116840000D03*
X127000000Y-119380000D03*
X127000000Y-121920000D03*
X127000000Y-124460000D03*
X127000000Y-127000000D03*
X127000000Y-129540000D03*
X127000000Y-132080000D03*
X134620000Y-132080000D03*
X134620000Y-129540000D03*
X134620000Y-127000000D03*
X134620000Y-124460000D03*
X134620000Y-121920000D03*
X134620000Y-119380000D03*
X134620000Y-116840000D03*
X134620000Y-114300000D03*
X134620000Y-111760000D03*
X134620000Y-109220000D03*
X134620000Y-106680000D03*
X134620000Y-104140000D03*
X134620000Y-101600000D03*
X134620000Y-99060000D03*
D13*
X137795000Y-90170000D03*
D14*
X127635000Y-90170000D03*
D11*
X133096000Y-137668000D03*
D10*
X133096000Y-140208000D03*
X130556000Y-137668000D03*
X130556000Y-140208000D03*
X128016000Y-137668000D03*
X128016000Y-140208000D03*
D21*
X156464000Y-97536000D03*
D15*
X159004000Y-94996000D03*
X161544000Y-97536000D03*
D21*
X149352000Y-97536000D03*
D15*
X151892000Y-94996000D03*
X154432000Y-97536000D03*
D21*
X149352000Y-116332000D03*
D15*
X151892000Y-113792000D03*
X154432000Y-116332000D03*
D21*
X156464000Y-135128000D03*
D15*
X159004000Y-132588000D03*
X161544000Y-135128000D03*
D21*
X149352000Y-135128000D03*
D15*
X151892000Y-132588000D03*
X154432000Y-135128000D03*
D13*
X161544000Y-111252000D03*
D14*
X161544000Y-101092000D03*
D13*
X154432000Y-111252000D03*
D14*
X154432000Y-101092000D03*
D13*
X161544000Y-130048000D03*
D14*
X161544000Y-119888000D03*
D13*
X154432000Y-130048000D03*
D14*
X154432000Y-119888000D03*
D13*
X154432000Y-148844000D03*
D14*
X154432000Y-138684000D03*
D11*
X165100000Y-144780000D03*
D10*
X165100000Y-142240000D03*
X165100000Y-139700000D03*
X165100000Y-137160000D03*
X165100000Y-134620000D03*
X165100000Y-132080000D03*
X165100000Y-129540000D03*
X165100000Y-127000000D03*
X165100000Y-124460000D03*
X165100000Y-121920000D03*
X165100000Y-119380000D03*
X165100000Y-116840000D03*
X165100000Y-114300000D03*
X165100000Y-111760000D03*
X165100000Y-109220000D03*
X165100000Y-106680000D03*
X165100000Y-104140000D03*
X165100000Y-101600000D03*
D22*
X146304000Y-146050000D03*
D23*
X146304000Y-143510000D03*
X146304000Y-140970000D03*
X146304000Y-138430000D03*
X146304000Y-135890000D03*
X146304000Y-133350000D03*
X146304000Y-130810000D03*
X146304000Y-128270000D03*
X138684000Y-128270000D03*
X138684000Y-130810000D03*
X138684000Y-133350000D03*
X138684000Y-135890000D03*
X138684000Y-138430000D03*
X138684000Y-140970000D03*
X138684000Y-143510000D03*
X138684000Y-146050000D03*
D21*
X156464000Y-116332000D03*
D15*
X159004000Y-113792000D03*
X161544000Y-116332000D03*
D13*
X150368000Y-119888000D03*
D14*
X150368000Y-130048000D03*
D13*
X161544000Y-148844000D03*
D14*
X161544000Y-138684000D03*
D24*
X109220000Y-147955000D03*
D22*
X114300000Y-128270000D03*
D23*
X114300000Y-130810000D03*
X114300000Y-133350000D03*
X114300000Y-135890000D03*
X114300000Y-138430000D03*
X114300000Y-140970000D03*
X114300000Y-143510000D03*
X114300000Y-146050000D03*
X121920000Y-146050000D03*
X121920000Y-143510000D03*
X121920000Y-140970000D03*
X121920000Y-138430000D03*
X121920000Y-135890000D03*
X121920000Y-133350000D03*
X121920000Y-130810000D03*
X121920000Y-128270000D03*
D22*
X146304000Y-120650000D03*
D23*
X146304000Y-118110000D03*
X146304000Y-115570000D03*
X146304000Y-113030000D03*
X146304000Y-110490000D03*
X146304000Y-107950000D03*
X146304000Y-105410000D03*
X146304000Y-102870000D03*
X138684000Y-102870000D03*
X138684000Y-105410000D03*
X138684000Y-107950000D03*
X138684000Y-110490000D03*
X138684000Y-113030000D03*
X138684000Y-115570000D03*
X138684000Y-118110000D03*
X138684000Y-120650000D03*
D16*
X122428000Y-101388000D03*
X122428000Y-103463000D03*
D25*
X106643500Y-96520000D03*
X103668500Y-96520000D03*
D26*
X109220000Y-98561000D03*
X109220000Y-96511000D03*
D27*
X118424000Y-104330500D03*
X118424000Y-103695500D03*
X118424000Y-103060500D03*
X118424000Y-102425500D03*
X118424000Y-101790500D03*
X118424000Y-101155500D03*
X118424000Y-100520500D03*
X118424000Y-99885500D03*
X113224000Y-99885500D03*
X113224000Y-100520500D03*
X113224000Y-101155500D03*
X113224000Y-101790500D03*
X113224000Y-102425500D03*
X113224000Y-103060500D03*
X113224000Y-103695500D03*
X113224000Y-104330500D03*
D16*
X110744000Y-100562500D03*
X110744000Y-102637500D03*
D11*
X109220000Y-92710000D03*
D28*
X111720000Y-92710000D03*
X111720000Y-90710000D03*
X109220000Y-90710000D03*
D29*
X116490000Y-88000000D03*
X104450000Y-88000000D03*
D30*
X163830000Y-87630000D03*
D31*
X147170000Y-85090000D03*
D32*
X147170000Y-87630000D03*
X147170000Y-90170000D03*
M02*
