M48
; DRILL file {KiCad (5.99.0-9618-g5ca7a2c457)} date Wed Mar 10 23:01:31 2021
; FORMAT={-:-/ absolute / inch / decimal}
; #@! TF.CreationDate,2021-03-10T23:01:31-05:00
; #@! TF.GenerationSoftware,Kicad,Pcbnew,(5.99.0-9618-g5ca7a2c457)
; #@! TF.FileFunction,Plated,1,2,PTH
FMAT,2
INCH
T1C0.0130
T2C0.0315
T3C0.0354
T4C0.0362
T5C0.0394
T6C0.0433
T7C0.0917
%
G90
G05
T1
X4.21Y-5.35
X4.21Y-5.73
X4.24Y-4.09
X4.3Y-4.09
X4.34Y-4.725
X4.36Y-4.09
X4.375Y-4.725
X4.38Y-3.88
X4.41Y-4.725
X4.56Y-4.1
X4.82Y-3.9
X4.89Y-4.115
X4.905Y-5.47
X5.0898Y-3.9602
X5.09Y-3.85
X5.205Y-5.02
X5.21Y-3.75
X5.3315Y-5.285
X5.36Y-5.515
X5.365Y-4.875
X5.555Y-4.35
X5.56Y-4.25
X5.5631Y-4.4969
X5.6Y-4.92
X5.619Y-4.9761
X6.15Y-4.9
X6.28Y-4.27
X6.335Y-5.215
X6.43Y-5.22
X6.44Y-4.335
T2
X4.375Y-4.63
X4.375Y-4.82
X4.5Y-5.05
X4.5Y-5.15
X4.5Y-5.25
X4.5Y-5.35
X4.5Y-5.45
X4.5Y-5.55
X4.5Y-5.65
X4.5Y-5.75
X4.5719Y-4.63
X4.5719Y-4.82
X4.76Y-4.63
X4.76Y-4.8221
X4.8Y-5.05
X4.8Y-5.15
X4.8Y-5.25
X4.8Y-5.35
X4.8Y-5.45
X4.8Y-5.55
X4.8Y-5.65
X4.8Y-5.75
X5.0Y-3.9
X5.0Y-4.0
X5.0Y-4.1
X5.0Y-4.2
X5.0Y-4.3
X5.0Y-4.4
X5.0Y-4.5
X5.0Y-4.6
X5.0Y-4.7
X5.0Y-4.8
X5.0Y-4.9
X5.0Y-5.0
X5.0Y-5.1
X5.0Y-5.2
X5.025Y-3.55
X5.3Y-3.9
X5.3Y-4.0
X5.3Y-4.1
X5.3Y-4.2
X5.3Y-4.3
X5.3Y-4.4
X5.3Y-4.5
X5.3Y-4.6
X5.3Y-4.7
X5.3Y-4.8
X5.3Y-4.9
X5.3Y-5.0
X5.3Y-5.1
X5.3Y-5.2
X5.425Y-3.55
X5.46Y-4.05
X5.46Y-4.15
X5.46Y-4.25
X5.46Y-4.35
X5.46Y-4.45
X5.46Y-4.55
X5.46Y-4.65
X5.46Y-4.75
X5.46Y-5.05
X5.46Y-5.15
X5.46Y-5.25
X5.46Y-5.35
X5.46Y-5.45
X5.46Y-5.55
X5.46Y-5.65
X5.46Y-5.75
X5.76Y-4.05
X5.76Y-4.15
X5.76Y-4.25
X5.76Y-4.35
X5.76Y-4.45
X5.76Y-4.55
X5.76Y-4.65
X5.76Y-4.75
X5.76Y-5.05
X5.76Y-5.15
X5.76Y-5.25
X5.76Y-5.35
X5.76Y-5.45
X5.76Y-5.55
X5.76Y-5.65
X5.76Y-5.75
X5.88Y-3.84
X5.88Y-4.58
X5.88Y-5.32
X5.92Y-3.98
X5.92Y-4.38
X5.92Y-4.72
X5.92Y-5.12
X5.92Y-5.46
X5.92Y-5.86
X5.98Y-3.74
X5.98Y-4.48
X5.98Y-5.22
X6.08Y-3.84
X6.08Y-3.98
X6.08Y-4.38
X6.08Y-4.58
X6.08Y-4.72
X6.08Y-5.12
X6.08Y-5.32
X6.08Y-5.46
X6.08Y-5.86
X6.16Y-3.84
X6.16Y-4.58
X6.16Y-5.32
X6.2Y-3.98
X6.2Y-4.38
X6.2Y-4.72
X6.2Y-5.12
X6.2Y-5.46
X6.2Y-5.86
X6.26Y-3.74
X6.26Y-4.48
X6.26Y-5.22
X6.36Y-3.84
X6.36Y-3.98
X6.36Y-4.38
X6.36Y-4.58
X6.36Y-4.72
X6.36Y-5.12
X6.36Y-5.32
X6.36Y-5.46
X6.36Y-5.86
T3
X5.42Y-3.26
X5.505Y-3.26
X5.59Y-3.26
X5.675Y-3.26
T4
X4.3Y-3.5713
X4.3Y-3.65
X4.3984Y-3.5713
X4.3984Y-3.65
T5
X4.1Y-4.0
X4.1Y-4.1
X4.1Y-4.2
X4.1Y-4.3
X4.1Y-4.4
X4.1Y-4.5
X4.1Y-4.6
X4.1Y-4.7
X4.1Y-4.8
X4.1Y-4.9
X4.1Y-5.0
X4.1Y-5.1
X4.1Y-5.2
X4.1Y-5.3
X4.1Y-5.4
X4.1Y-5.5
X4.1Y-5.6
X4.1Y-5.7
X5.04Y-5.42
X5.04Y-5.52
X5.14Y-5.42
X5.14Y-5.52
X5.24Y-5.42
X5.24Y-5.52
X5.92Y-3.16
X6.02Y-3.16
X6.3Y-3.16
X6.4Y-3.16
X6.5Y-4.0
X6.5Y-4.1
X6.5Y-4.2
X6.5Y-4.3
X6.5Y-4.4
X6.5Y-4.5
X6.5Y-4.6
X6.5Y-4.7
X6.5Y-4.8
X6.5Y-4.9
X6.5Y-5.0
X6.5Y-5.1
X6.5Y-5.2
X6.5Y-5.3
X6.5Y-5.4
X6.5Y-5.5
X6.5Y-5.6
X6.5Y-5.7
T6
X4.9241Y-3.1628
X4.9241Y-3.34
X5.18Y-3.1628
X5.18Y-3.34
X5.7941Y-3.35
X5.7941Y-3.45
X5.7941Y-3.55
T7
X4.1122Y-3.4646
X4.5862Y-3.4646
T0
M30
