G04 #@! TF.GenerationSoftware,KiCad,Pcbnew,(5.99.0-9618-g5ca7a2c457)*
G04 #@! TF.CreationDate,2021-03-10T23:01:37-05:00*
G04 #@! TF.ProjectId,PCB,5043422e-6b69-4636-9164-5f7063625858,rev?*
G04 #@! TF.SameCoordinates,Original*
G04 #@! TF.FileFunction,Legend,Bot*
G04 #@! TF.FilePolarity,Positive*
%FSLAX46Y46*%
G04 Gerber Fmt 4.6, Leading zero omitted, Abs format (unit mm)*
G04 Created by KiCad (PCBNEW (5.99.0-9618-g5ca7a2c457)) date 2021-03-10 23:01:37*
%MOMM*%
%LPD*%
G01*
G04 APERTURE LIST*
%ADD10C,0.150000*%
%ADD11C,0.190500*%
%ADD12C,0.010000*%
G04 APERTURE END LIST*
D10*
X136850380Y-107062095D02*
X135850380Y-107062095D01*
X135850380Y-107300190D01*
X135898000Y-107443047D01*
X135993238Y-107538285D01*
X136088476Y-107585904D01*
X136278952Y-107633523D01*
X136421809Y-107633523D01*
X136612285Y-107585904D01*
X136707523Y-107538285D01*
X136802761Y-107443047D01*
X136850380Y-107300190D01*
X136850380Y-107062095D01*
X136802761Y-108443047D02*
X136850380Y-108347809D01*
X136850380Y-108157333D01*
X136802761Y-108062095D01*
X136707523Y-108014476D01*
X136326571Y-108014476D01*
X136231333Y-108062095D01*
X136183714Y-108157333D01*
X136183714Y-108347809D01*
X136231333Y-108443047D01*
X136326571Y-108490666D01*
X136421809Y-108490666D01*
X136517047Y-108014476D01*
X136802761Y-108871619D02*
X136850380Y-108966857D01*
X136850380Y-109157333D01*
X136802761Y-109252571D01*
X136707523Y-109300190D01*
X136659904Y-109300190D01*
X136564666Y-109252571D01*
X136517047Y-109157333D01*
X136517047Y-109014476D01*
X136469428Y-108919238D01*
X136374190Y-108871619D01*
X136326571Y-108871619D01*
X136231333Y-108919238D01*
X136183714Y-109014476D01*
X136183714Y-109157333D01*
X136231333Y-109252571D01*
X136850380Y-109728761D02*
X136183714Y-109728761D01*
X135850380Y-109728761D02*
X135898000Y-109681142D01*
X135945619Y-109728761D01*
X135898000Y-109776380D01*
X135850380Y-109728761D01*
X135945619Y-109728761D01*
X136183714Y-110633523D02*
X136993238Y-110633523D01*
X137088476Y-110585904D01*
X137136095Y-110538285D01*
X137183714Y-110443047D01*
X137183714Y-110300190D01*
X137136095Y-110204952D01*
X136802761Y-110633523D02*
X136850380Y-110538285D01*
X136850380Y-110347809D01*
X136802761Y-110252571D01*
X136755142Y-110204952D01*
X136659904Y-110157333D01*
X136374190Y-110157333D01*
X136278952Y-110204952D01*
X136231333Y-110252571D01*
X136183714Y-110347809D01*
X136183714Y-110538285D01*
X136231333Y-110633523D01*
X136183714Y-111109714D02*
X136850380Y-111109714D01*
X136278952Y-111109714D02*
X136231333Y-111157333D01*
X136183714Y-111252571D01*
X136183714Y-111395428D01*
X136231333Y-111490666D01*
X136326571Y-111538285D01*
X136850380Y-111538285D01*
X136802761Y-112395428D02*
X136850380Y-112300190D01*
X136850380Y-112109714D01*
X136802761Y-112014476D01*
X136707523Y-111966857D01*
X136326571Y-111966857D01*
X136231333Y-112014476D01*
X136183714Y-112109714D01*
X136183714Y-112300190D01*
X136231333Y-112395428D01*
X136326571Y-112443047D01*
X136421809Y-112443047D01*
X136517047Y-111966857D01*
X136850380Y-113300190D02*
X135850380Y-113300190D01*
X136802761Y-113300190D02*
X136850380Y-113204952D01*
X136850380Y-113014476D01*
X136802761Y-112919238D01*
X136755142Y-112871619D01*
X136659904Y-112824000D01*
X136374190Y-112824000D01*
X136278952Y-112871619D01*
X136231333Y-112919238D01*
X136183714Y-113014476D01*
X136183714Y-113204952D01*
X136231333Y-113300190D01*
X136850380Y-114538285D02*
X135850380Y-114538285D01*
X136231333Y-114538285D02*
X136183714Y-114633523D01*
X136183714Y-114824000D01*
X136231333Y-114919238D01*
X136278952Y-114966857D01*
X136374190Y-115014476D01*
X136659904Y-115014476D01*
X136755142Y-114966857D01*
X136802761Y-114919238D01*
X136850380Y-114824000D01*
X136850380Y-114633523D01*
X136802761Y-114538285D01*
X136183714Y-115347809D02*
X136850380Y-115585904D01*
X136183714Y-115824000D02*
X136850380Y-115585904D01*
X137088476Y-115490666D01*
X137136095Y-115443047D01*
X137183714Y-115347809D01*
X136326571Y-116966857D02*
X136326571Y-117300190D01*
X136850380Y-117443047D02*
X136850380Y-116966857D01*
X135850380Y-116966857D01*
X135850380Y-117443047D01*
X136850380Y-118014476D02*
X136802761Y-117919238D01*
X136707523Y-117871619D01*
X135850380Y-117871619D01*
X136802761Y-118776380D02*
X136850380Y-118681142D01*
X136850380Y-118490666D01*
X136802761Y-118395428D01*
X136707523Y-118347809D01*
X136326571Y-118347809D01*
X136231333Y-118395428D01*
X136183714Y-118490666D01*
X136183714Y-118681142D01*
X136231333Y-118776380D01*
X136326571Y-118824000D01*
X136421809Y-118824000D01*
X136517047Y-118347809D01*
X136802761Y-119681142D02*
X136850380Y-119585904D01*
X136850380Y-119395428D01*
X136802761Y-119300190D01*
X136755142Y-119252571D01*
X136659904Y-119204952D01*
X136374190Y-119204952D01*
X136278952Y-119252571D01*
X136231333Y-119300190D01*
X136183714Y-119395428D01*
X136183714Y-119585904D01*
X136231333Y-119681142D01*
X136183714Y-119966857D02*
X136183714Y-120347809D01*
X135850380Y-120109714D02*
X136707523Y-120109714D01*
X136802761Y-120157333D01*
X136850380Y-120252571D01*
X136850380Y-120347809D01*
X136850380Y-120681142D02*
X136183714Y-120681142D01*
X136374190Y-120681142D02*
X136278952Y-120728761D01*
X136231333Y-120776380D01*
X136183714Y-120871619D01*
X136183714Y-120966857D01*
X136850380Y-121443047D02*
X136802761Y-121347809D01*
X136755142Y-121300190D01*
X136659904Y-121252571D01*
X136374190Y-121252571D01*
X136278952Y-121300190D01*
X136231333Y-121347809D01*
X136183714Y-121443047D01*
X136183714Y-121585904D01*
X136231333Y-121681142D01*
X136278952Y-121728761D01*
X136374190Y-121776380D01*
X136659904Y-121776380D01*
X136755142Y-121728761D01*
X136802761Y-121681142D01*
X136850380Y-121585904D01*
X136850380Y-121443047D01*
X135850380Y-122109714D02*
X135850380Y-122776380D01*
X136850380Y-122347809D01*
X135850380Y-123347809D02*
X135850380Y-123443047D01*
X135898000Y-123538285D01*
X135945619Y-123585904D01*
X136040857Y-123633523D01*
X136231333Y-123681142D01*
X136469428Y-123681142D01*
X136659904Y-123633523D01*
X136755142Y-123585904D01*
X136802761Y-123538285D01*
X136850380Y-123443047D01*
X136850380Y-123347809D01*
X136802761Y-123252571D01*
X136755142Y-123204952D01*
X136659904Y-123157333D01*
X136469428Y-123109714D01*
X136231333Y-123109714D01*
X136040857Y-123157333D01*
X135945619Y-123204952D01*
X135898000Y-123252571D01*
X135850380Y-123347809D01*
X135850380Y-124014476D02*
X135850380Y-124681142D01*
X136850380Y-124252571D01*
D11*
X129256608Y-101745142D02*
X130272608Y-101745142D01*
X128676037Y-101382285D02*
X129764608Y-101019428D01*
X129764608Y-101962857D01*
X129692037Y-102543428D02*
X129692037Y-103704571D01*
X130272608Y-104430285D02*
X128748608Y-104430285D01*
X129256608Y-105156000D02*
X130272608Y-105156000D01*
X129401751Y-105156000D02*
X129329180Y-105228571D01*
X129256608Y-105373714D01*
X129256608Y-105591428D01*
X129329180Y-105736571D01*
X129474322Y-105809142D01*
X130272608Y-105809142D01*
X129692037Y-106534857D02*
X129692037Y-107696000D01*
X129837180Y-108349142D02*
X129837180Y-109074857D01*
X130272608Y-108204000D02*
X128748608Y-108712000D01*
X130272608Y-109220000D01*
X129692037Y-109728000D02*
X129692037Y-110889142D01*
X130272608Y-112485714D02*
X129546894Y-111977714D01*
X130272608Y-111614857D02*
X128748608Y-111614857D01*
X128748608Y-112195428D01*
X128821180Y-112340571D01*
X128893751Y-112413142D01*
X129038894Y-112485714D01*
X129256608Y-112485714D01*
X129401751Y-112413142D01*
X129474322Y-112340571D01*
X129546894Y-112195428D01*
X129546894Y-111614857D01*
X130272608Y-113356571D02*
X130200037Y-113211428D01*
X130127465Y-113138857D01*
X129982322Y-113066285D01*
X129546894Y-113066285D01*
X129401751Y-113138857D01*
X129329180Y-113211428D01*
X129256608Y-113356571D01*
X129256608Y-113574285D01*
X129329180Y-113719428D01*
X129401751Y-113792000D01*
X129546894Y-113864571D01*
X129982322Y-113864571D01*
X130127465Y-113792000D01*
X130200037Y-113719428D01*
X130272608Y-113574285D01*
X130272608Y-113356571D01*
X129256608Y-114372571D02*
X130272608Y-114662857D01*
X129546894Y-114953142D01*
X130272608Y-115243428D01*
X129256608Y-115533714D01*
X130200037Y-117202857D02*
X130272608Y-117420571D01*
X130272608Y-117783428D01*
X130200037Y-117928571D01*
X130127465Y-118001142D01*
X129982322Y-118073714D01*
X129837180Y-118073714D01*
X129692037Y-118001142D01*
X129619465Y-117928571D01*
X129546894Y-117783428D01*
X129474322Y-117493142D01*
X129401751Y-117348000D01*
X129329180Y-117275428D01*
X129184037Y-117202857D01*
X129038894Y-117202857D01*
X128893751Y-117275428D01*
X128821180Y-117348000D01*
X128748608Y-117493142D01*
X128748608Y-117856000D01*
X128821180Y-118073714D01*
X130272608Y-118944571D02*
X130200037Y-118799428D01*
X130127465Y-118726857D01*
X129982322Y-118654285D01*
X129546894Y-118654285D01*
X129401751Y-118726857D01*
X129329180Y-118799428D01*
X129256608Y-118944571D01*
X129256608Y-119162285D01*
X129329180Y-119307428D01*
X129401751Y-119380000D01*
X129546894Y-119452571D01*
X129982322Y-119452571D01*
X130127465Y-119380000D01*
X130200037Y-119307428D01*
X130272608Y-119162285D01*
X130272608Y-118944571D01*
X130272608Y-120323428D02*
X130200037Y-120178285D01*
X130054894Y-120105714D01*
X128748608Y-120105714D01*
X130272608Y-121557142D02*
X128748608Y-121557142D01*
X130200037Y-121557142D02*
X130272608Y-121412000D01*
X130272608Y-121121714D01*
X130200037Y-120976571D01*
X130127465Y-120904000D01*
X129982322Y-120831428D01*
X129546894Y-120831428D01*
X129401751Y-120904000D01*
X129329180Y-120976571D01*
X129256608Y-121121714D01*
X129256608Y-121412000D01*
X129329180Y-121557142D01*
X130200037Y-122863428D02*
X130272608Y-122718285D01*
X130272608Y-122428000D01*
X130200037Y-122282857D01*
X130054894Y-122210285D01*
X129474322Y-122210285D01*
X129329180Y-122282857D01*
X129256608Y-122428000D01*
X129256608Y-122718285D01*
X129329180Y-122863428D01*
X129474322Y-122936000D01*
X129619465Y-122936000D01*
X129764608Y-122210285D01*
X130272608Y-123589142D02*
X129256608Y-123589142D01*
X129546894Y-123589142D02*
X129401751Y-123661714D01*
X129329180Y-123734285D01*
X129256608Y-123879428D01*
X129256608Y-124024571D01*
X130272608Y-124532571D02*
X129256608Y-124532571D01*
X128748608Y-124532571D02*
X128821180Y-124460000D01*
X128893751Y-124532571D01*
X128821180Y-124605142D01*
X128748608Y-124532571D01*
X128893751Y-124532571D01*
X129256608Y-125258285D02*
X130272608Y-125258285D01*
X129401751Y-125258285D02*
X129329180Y-125330857D01*
X129256608Y-125476000D01*
X129256608Y-125693714D01*
X129329180Y-125838857D01*
X129474322Y-125911428D01*
X130272608Y-125911428D01*
X129256608Y-127290285D02*
X130490322Y-127290285D01*
X130635465Y-127217714D01*
X130708037Y-127145142D01*
X130780608Y-127000000D01*
X130780608Y-126782285D01*
X130708037Y-126637142D01*
X130200037Y-127290285D02*
X130272608Y-127145142D01*
X130272608Y-126854857D01*
X130200037Y-126709714D01*
X130127465Y-126637142D01*
X129982322Y-126564571D01*
X129546894Y-126564571D01*
X129401751Y-126637142D01*
X129329180Y-126709714D01*
X129256608Y-126854857D01*
X129256608Y-127145142D01*
X129329180Y-127290285D01*
X130272608Y-129177142D02*
X128748608Y-129177142D01*
X130272608Y-130048000D02*
X129401751Y-129394857D01*
X128748608Y-130048000D02*
X129619465Y-129177142D01*
X130272608Y-130701142D02*
X129256608Y-130701142D01*
X128748608Y-130701142D02*
X128821180Y-130628571D01*
X128893751Y-130701142D01*
X128821180Y-130773714D01*
X128748608Y-130701142D01*
X128893751Y-130701142D01*
X129256608Y-131209142D02*
X129256608Y-131789714D01*
X128748608Y-131426857D02*
X130054894Y-131426857D01*
X130200037Y-131499428D01*
X130272608Y-131644571D01*
X130272608Y-131789714D01*
X132726248Y-110199714D02*
X131202248Y-110199714D01*
X132290820Y-110707714D01*
X131202248Y-111215714D01*
X132726248Y-111215714D01*
X132726248Y-112594571D02*
X131927962Y-112594571D01*
X131782820Y-112522000D01*
X131710248Y-112376857D01*
X131710248Y-112086571D01*
X131782820Y-111941428D01*
X132653677Y-112594571D02*
X132726248Y-112449428D01*
X132726248Y-112086571D01*
X132653677Y-111941428D01*
X132508534Y-111868857D01*
X132363391Y-111868857D01*
X132218248Y-111941428D01*
X132145677Y-112086571D01*
X132145677Y-112449428D01*
X132073105Y-112594571D01*
X132726248Y-113320285D02*
X131710248Y-113320285D01*
X131202248Y-113320285D02*
X131274820Y-113247714D01*
X131347391Y-113320285D01*
X131274820Y-113392857D01*
X131202248Y-113320285D01*
X131347391Y-113320285D01*
X131710248Y-114046000D02*
X132726248Y-114046000D01*
X131855391Y-114046000D02*
X131782820Y-114118571D01*
X131710248Y-114263714D01*
X131710248Y-114481428D01*
X131782820Y-114626571D01*
X131927962Y-114699142D01*
X132726248Y-114699142D01*
X131927962Y-117093999D02*
X132000534Y-117311714D01*
X132073105Y-117384285D01*
X132218248Y-117456857D01*
X132435962Y-117456857D01*
X132581105Y-117384285D01*
X132653677Y-117311714D01*
X132726248Y-117166571D01*
X132726248Y-116585999D01*
X131202248Y-116585999D01*
X131202248Y-117093999D01*
X131274820Y-117239142D01*
X131347391Y-117311714D01*
X131492534Y-117384285D01*
X131637677Y-117384285D01*
X131782820Y-117311714D01*
X131855391Y-117239142D01*
X131927962Y-117093999D01*
X131927962Y-116585999D01*
X132726248Y-118327714D02*
X132653677Y-118182571D01*
X132581105Y-118109999D01*
X132435962Y-118037428D01*
X132000534Y-118037428D01*
X131855391Y-118109999D01*
X131782820Y-118182571D01*
X131710248Y-118327714D01*
X131710248Y-118545428D01*
X131782820Y-118690571D01*
X131855391Y-118763142D01*
X132000534Y-118835714D01*
X132435962Y-118835714D01*
X132581105Y-118763142D01*
X132653677Y-118690571D01*
X132726248Y-118545428D01*
X132726248Y-118327714D01*
X132726248Y-120141999D02*
X131927962Y-120141999D01*
X131782820Y-120069428D01*
X131710248Y-119924285D01*
X131710248Y-119633999D01*
X131782820Y-119488857D01*
X132653677Y-120141999D02*
X132726248Y-119996857D01*
X132726248Y-119633999D01*
X132653677Y-119488857D01*
X132508534Y-119416285D01*
X132363391Y-119416285D01*
X132218248Y-119488857D01*
X132145677Y-119633999D01*
X132145677Y-119996857D01*
X132073105Y-120141999D01*
X132726248Y-120867714D02*
X131710248Y-120867714D01*
X132000534Y-120867714D02*
X131855391Y-120940285D01*
X131782820Y-121012857D01*
X131710248Y-121157999D01*
X131710248Y-121303142D01*
X132726248Y-122464285D02*
X131202248Y-122464285D01*
X132653677Y-122464285D02*
X132726248Y-122319142D01*
X132726248Y-122028857D01*
X132653677Y-121883714D01*
X132581105Y-121811142D01*
X132435962Y-121738571D01*
X132000534Y-121738571D01*
X131855391Y-121811142D01*
X131782820Y-121883714D01*
X131710248Y-122028857D01*
X131710248Y-122319142D01*
X131782820Y-122464285D01*
D12*
X153923098Y-91660000D02*
X154034049Y-91624125D01*
X154034049Y-91624125D02*
X154125233Y-91595400D01*
X154125233Y-91595400D02*
X154233913Y-91562467D01*
X154233913Y-91562467D02*
X154358154Y-91525855D01*
X154358154Y-91525855D02*
X154496020Y-91486090D01*
X154496020Y-91486090D02*
X154645577Y-91443701D01*
X154645577Y-91443701D02*
X154804888Y-91399214D01*
X154804888Y-91399214D02*
X154972019Y-91353157D01*
X154972019Y-91353157D02*
X155145035Y-91306057D01*
X155145035Y-91306057D02*
X155321999Y-91258442D01*
X155321999Y-91258442D02*
X155500977Y-91210839D01*
X155500977Y-91210839D02*
X155680033Y-91163776D01*
X155680033Y-91163776D02*
X155857232Y-91117779D01*
X155857232Y-91117779D02*
X156030639Y-91073378D01*
X156030639Y-91073378D02*
X156198318Y-91031098D01*
X156198318Y-91031098D02*
X156329863Y-90998460D01*
X156329863Y-90998460D02*
X156775364Y-90890847D01*
X156775364Y-90890847D02*
X157202800Y-90791725D01*
X157202800Y-90791725D02*
X157612212Y-90701087D01*
X157612212Y-90701087D02*
X158003638Y-90618928D01*
X158003638Y-90618928D02*
X158377121Y-90545239D01*
X158377121Y-90545239D02*
X158732698Y-90480014D01*
X158732698Y-90480014D02*
X159070410Y-90423247D01*
X159070410Y-90423247D02*
X159390298Y-90374929D01*
X159390298Y-90374929D02*
X159692400Y-90335054D01*
X159692400Y-90335054D02*
X159976758Y-90303615D01*
X159976758Y-90303615D02*
X160243410Y-90280605D01*
X160243410Y-90280605D02*
X160492397Y-90266017D01*
X160492397Y-90266017D02*
X160547500Y-90263840D01*
X160547500Y-90263840D02*
X160740000Y-90256965D01*
X160740000Y-90256965D02*
X160740000Y-89400000D01*
X160740000Y-89400000D02*
X160607500Y-89400095D01*
X160607500Y-89400095D02*
X160467937Y-89402067D01*
X160467937Y-89402067D02*
X160312211Y-89407819D01*
X160312211Y-89407819D02*
X160139785Y-89417391D01*
X160139785Y-89417391D02*
X159950121Y-89430822D01*
X159950121Y-89430822D02*
X159742682Y-89448151D01*
X159742682Y-89448151D02*
X159516933Y-89469418D01*
X159516933Y-89469418D02*
X159272335Y-89494662D01*
X159272335Y-89494662D02*
X159174338Y-89505305D01*
X159174338Y-89505305D02*
X159160412Y-89505751D01*
X159160412Y-89505751D02*
X159163159Y-89502050D01*
X159163159Y-89502050D02*
X159183271Y-89493910D01*
X159183271Y-89493910D02*
X159221440Y-89481043D01*
X159221440Y-89481043D02*
X159265000Y-89467286D01*
X159265000Y-89467286D02*
X159479156Y-89393270D01*
X159479156Y-89393270D02*
X159675994Y-89309456D01*
X159675994Y-89309456D02*
X159855714Y-89215694D01*
X159855714Y-89215694D02*
X160018517Y-89111830D01*
X160018517Y-89111830D02*
X160164605Y-88997716D01*
X160164605Y-88997716D02*
X160294177Y-88873198D01*
X160294177Y-88873198D02*
X160407436Y-88738127D01*
X160407436Y-88738127D02*
X160504581Y-88592351D01*
X160504581Y-88592351D02*
X160557574Y-88495000D01*
X160557574Y-88495000D02*
X160617921Y-88360767D01*
X160617921Y-88360767D02*
X160665420Y-88223468D01*
X160665420Y-88223468D02*
X160700709Y-88080079D01*
X160700709Y-88080079D02*
X160724425Y-87927576D01*
X160724425Y-87927576D02*
X160737206Y-87762935D01*
X160737206Y-87762935D02*
X160740000Y-87629999D01*
X160740000Y-87629999D02*
X160734963Y-87454038D01*
X160734963Y-87454038D02*
X160719433Y-87292486D01*
X160719433Y-87292486D02*
X160692779Y-87142355D01*
X160692779Y-87142355D02*
X160654371Y-87000655D01*
X160654371Y-87000655D02*
X160603578Y-86864398D01*
X160603578Y-86864398D02*
X160557596Y-86765211D01*
X160557596Y-86765211D02*
X160506907Y-86670400D01*
X160506907Y-86670400D02*
X160454411Y-86585997D01*
X160454411Y-86585997D02*
X160396196Y-86506619D01*
X160396196Y-86506619D02*
X160328349Y-86426881D01*
X160328349Y-86426881D02*
X160256981Y-86351540D01*
X160256981Y-86351540D02*
X160130550Y-86235039D01*
X160130550Y-86235039D02*
X159990359Y-86128760D01*
X159990359Y-86128760D02*
X159835460Y-86032172D01*
X159835460Y-86032172D02*
X159664908Y-85944742D01*
X159664908Y-85944742D02*
X159477759Y-85865938D01*
X159477759Y-85865938D02*
X159273066Y-85795226D01*
X159273066Y-85795226D02*
X159265000Y-85792713D01*
X159265000Y-85792713D02*
X159212020Y-85775889D01*
X159212020Y-85775889D02*
X159177647Y-85764025D01*
X159177647Y-85764025D02*
X159161188Y-85756828D01*
X159161188Y-85756828D02*
X159161950Y-85754009D01*
X159161950Y-85754009D02*
X159174338Y-85754694D01*
X159174338Y-85754694D02*
X159426239Y-85781460D01*
X159426239Y-85781460D02*
X159659087Y-85804233D01*
X159659087Y-85804233D02*
X159873421Y-85823054D01*
X159873421Y-85823054D02*
X160069775Y-85837961D01*
X160069775Y-85837961D02*
X160248688Y-85848995D01*
X160248688Y-85848995D02*
X160410697Y-85856194D01*
X160410697Y-85856194D02*
X160556338Y-85859597D01*
X160556338Y-85859597D02*
X160607500Y-85859904D01*
X160607500Y-85859904D02*
X160740000Y-85860000D01*
X160740000Y-85860000D02*
X160740000Y-85000000D01*
X160740000Y-85000000D02*
X160657500Y-84999854D01*
X160657500Y-84999854D02*
X160600873Y-84998848D01*
X160600873Y-84998848D02*
X160528513Y-84996159D01*
X160528513Y-84996159D02*
X160444593Y-84992034D01*
X160444593Y-84992034D02*
X160353288Y-84986719D01*
X160353288Y-84986719D02*
X160258772Y-84980462D01*
X160258772Y-84980462D02*
X160165217Y-84973507D01*
X160165217Y-84973507D02*
X160076798Y-84966103D01*
X160076798Y-84966103D02*
X160060000Y-84964580D01*
X160060000Y-84964580D02*
X159797973Y-84937378D01*
X159797973Y-84937378D02*
X159518300Y-84902376D01*
X159518300Y-84902376D02*
X159221688Y-84859718D01*
X159221688Y-84859718D02*
X159100000Y-84840204D01*
X159100000Y-84840204D02*
X159100000Y-85740000D01*
X159100000Y-85740000D02*
X159108231Y-85743658D01*
X159108231Y-85743658D02*
X159106666Y-85746666D01*
X159106666Y-85746666D02*
X159094799Y-85747863D01*
X159094799Y-85747863D02*
X159093333Y-85746666D01*
X159093333Y-85746666D02*
X159094706Y-85740721D01*
X159094706Y-85740721D02*
X159100000Y-85740000D01*
X159100000Y-85740000D02*
X159100000Y-84840204D01*
X159100000Y-84840204D02*
X158908846Y-84809550D01*
X158908846Y-84809550D02*
X158580481Y-84752017D01*
X158580481Y-84752017D02*
X158237300Y-84687264D01*
X158237300Y-84687264D02*
X157880012Y-84615438D01*
X157880012Y-84615438D02*
X157509323Y-84536682D01*
X157509323Y-84536682D02*
X157125942Y-84451143D01*
X157125942Y-84451143D02*
X156730576Y-84358966D01*
X156730576Y-84358966D02*
X156323934Y-84260296D01*
X156323934Y-84260296D02*
X155906721Y-84155277D01*
X155906721Y-84155277D02*
X155479647Y-84044057D01*
X155479647Y-84044057D02*
X155160000Y-83958475D01*
X155160000Y-83958475D02*
X155058491Y-83930785D01*
X155058491Y-83930785D02*
X154949527Y-83900695D01*
X154949527Y-83900695D02*
X154835706Y-83868951D01*
X154835706Y-83868951D02*
X154719626Y-83836295D01*
X154719626Y-83836295D02*
X154603888Y-83803472D01*
X154603888Y-83803472D02*
X154491090Y-83771225D01*
X154491090Y-83771225D02*
X154383832Y-83740298D01*
X154383832Y-83740298D02*
X154284711Y-83711436D01*
X154284711Y-83711436D02*
X154196327Y-83685381D01*
X154196327Y-83685381D02*
X154121280Y-83662879D01*
X154121280Y-83662879D02*
X154062168Y-83644673D01*
X154062168Y-83644673D02*
X154048230Y-83640256D01*
X154048230Y-83640256D02*
X153922308Y-83599999D01*
X153922308Y-83599999D02*
X152801154Y-83599999D01*
X152801154Y-83599999D02*
X152540000Y-83599999D01*
X152540000Y-83599999D02*
X152540000Y-84660000D01*
X152540000Y-84660000D02*
X153880000Y-84660000D01*
X153880000Y-84660000D02*
X153880000Y-86860000D01*
X153880000Y-86860000D02*
X154740000Y-86860000D01*
X154740000Y-86860000D02*
X154740000Y-84873397D01*
X154740000Y-84873397D02*
X154857500Y-84907373D01*
X154857500Y-84907373D02*
X154982586Y-84942408D01*
X154982586Y-84942408D02*
X155125379Y-84980367D01*
X155125379Y-84980367D02*
X155283876Y-85020783D01*
X155283876Y-85020783D02*
X155456073Y-85063186D01*
X155456073Y-85063186D02*
X155639966Y-85107110D01*
X155639966Y-85107110D02*
X155833553Y-85152087D01*
X155833553Y-85152087D02*
X156034829Y-85197648D01*
X156034829Y-85197648D02*
X156241792Y-85243325D01*
X156241792Y-85243325D02*
X156452437Y-85288652D01*
X156452437Y-85288652D02*
X156664763Y-85333160D01*
X156664763Y-85333160D02*
X156795000Y-85359860D01*
X156795000Y-85359860D02*
X156875895Y-85376059D01*
X156875895Y-85376059D02*
X156969609Y-85394417D01*
X156969609Y-85394417D02*
X157073321Y-85414413D01*
X157073321Y-85414413D02*
X157184207Y-85435523D01*
X157184207Y-85435523D02*
X157299446Y-85457226D01*
X157299446Y-85457226D02*
X157416216Y-85478998D01*
X157416216Y-85478998D02*
X157531695Y-85500319D01*
X157531695Y-85500319D02*
X157643060Y-85520665D01*
X157643060Y-85520665D02*
X157747491Y-85539514D01*
X157747491Y-85539514D02*
X157842163Y-85556344D01*
X157842163Y-85556344D02*
X157924256Y-85570632D01*
X157924256Y-85570632D02*
X157990948Y-85581857D01*
X157990948Y-85581857D02*
X158017500Y-85586135D01*
X158017500Y-85586135D02*
X158061995Y-85593198D01*
X158061995Y-85593198D02*
X158098179Y-85599029D01*
X158098179Y-85599029D02*
X158122134Y-85602991D01*
X158122134Y-85602991D02*
X158130000Y-85604438D01*
X158130000Y-85604438D02*
X158120348Y-85604558D01*
X158120348Y-85604558D02*
X158092780Y-85604670D01*
X158092780Y-85604670D02*
X158049381Y-85604770D01*
X158049381Y-85604770D02*
X157992236Y-85604856D01*
X157992236Y-85604856D02*
X157923428Y-85604924D01*
X157923428Y-85604924D02*
X157845044Y-85604972D01*
X157845044Y-85604972D02*
X157759166Y-85604997D01*
X157759166Y-85604997D02*
X157717500Y-85605000D01*
X157717500Y-85605000D02*
X157662987Y-85605135D01*
X157662987Y-85605135D02*
X157662987Y-86666080D01*
X157662987Y-86666080D02*
X157769146Y-86666128D01*
X157769146Y-86666128D02*
X157873258Y-86667017D01*
X157873258Y-86667017D02*
X157971654Y-86668746D01*
X157971654Y-86668746D02*
X158060660Y-86671315D01*
X158060660Y-86671315D02*
X158136606Y-86674725D01*
X158136606Y-86674725D02*
X158190000Y-86678445D01*
X158190000Y-86678445D02*
X158412540Y-86703033D01*
X158412540Y-86703033D02*
X158617224Y-86736018D01*
X158617224Y-86736018D02*
X158804013Y-86777379D01*
X158804013Y-86777379D02*
X158972870Y-86827098D01*
X158972870Y-86827098D02*
X159123759Y-86885153D01*
X159123759Y-86885153D02*
X159256643Y-86951526D01*
X159256643Y-86951526D02*
X159371484Y-87026197D01*
X159371484Y-87026197D02*
X159468246Y-87109145D01*
X159468246Y-87109145D02*
X159546891Y-87200351D01*
X159546891Y-87200351D02*
X159607384Y-87299795D01*
X159607384Y-87299795D02*
X159649686Y-87407457D01*
X159649686Y-87407457D02*
X159665148Y-87469979D01*
X159665148Y-87469979D02*
X159675325Y-87546251D01*
X159675325Y-87546251D02*
X159678514Y-87631725D01*
X159678514Y-87631725D02*
X159674694Y-87716857D01*
X159674694Y-87716857D02*
X159665838Y-87782254D01*
X159665838Y-87782254D02*
X159634250Y-87895715D01*
X159634250Y-87895715D02*
X159584511Y-88000786D01*
X159584511Y-88000786D02*
X159516627Y-88097463D01*
X159516627Y-88097463D02*
X159430604Y-88185744D01*
X159430604Y-88185744D02*
X159326449Y-88265625D01*
X159326449Y-88265625D02*
X159204165Y-88337103D01*
X159204165Y-88337103D02*
X159100000Y-88383895D01*
X159100000Y-88383895D02*
X159100000Y-89510000D01*
X159100000Y-89510000D02*
X159108231Y-89513658D01*
X159108231Y-89513658D02*
X159106666Y-89516666D01*
X159106666Y-89516666D02*
X159094799Y-89517863D01*
X159094799Y-89517863D02*
X159093333Y-89516666D01*
X159093333Y-89516666D02*
X159094706Y-89510721D01*
X159094706Y-89510721D02*
X159100000Y-89510000D01*
X159100000Y-89510000D02*
X159100000Y-88383895D01*
X159100000Y-88383895D02*
X159063761Y-88400175D01*
X159063761Y-88400175D02*
X158905241Y-88454838D01*
X158905241Y-88454838D02*
X158728611Y-88501089D01*
X158728611Y-88501089D02*
X158533878Y-88538924D01*
X158533878Y-88538924D02*
X158321046Y-88568340D01*
X158321046Y-88568340D02*
X158190000Y-88581483D01*
X158190000Y-88581483D02*
X158128857Y-88585600D01*
X158128857Y-88585600D02*
X158051399Y-88588886D01*
X158051399Y-88588886D02*
X157961290Y-88591340D01*
X157961290Y-88591340D02*
X157862197Y-88592962D01*
X157862197Y-88592962D02*
X157757787Y-88593753D01*
X157757787Y-88593753D02*
X157651725Y-88593711D01*
X157651725Y-88593711D02*
X157547679Y-88592838D01*
X157547679Y-88592838D02*
X157449313Y-88591134D01*
X157449313Y-88591134D02*
X157360295Y-88588597D01*
X157360295Y-88588597D02*
X157284290Y-88585229D01*
X157284290Y-88585229D02*
X157230000Y-88581483D01*
X157230000Y-88581483D02*
X157008279Y-88557186D01*
X157008279Y-88557186D02*
X156804706Y-88524700D01*
X156804706Y-88524700D02*
X156619165Y-88483985D01*
X156619165Y-88483985D02*
X156451540Y-88435003D01*
X156451540Y-88435003D02*
X156301715Y-88377715D01*
X156301715Y-88377715D02*
X156169575Y-88312082D01*
X156169575Y-88312082D02*
X156055002Y-88238063D01*
X156055002Y-88238063D02*
X155957881Y-88155621D01*
X155957881Y-88155621D02*
X155953563Y-88151359D01*
X155953563Y-88151359D02*
X155874424Y-88059867D01*
X155874424Y-88059867D02*
X155813720Y-87960893D01*
X155813720Y-87960893D02*
X155771241Y-87853931D01*
X155771241Y-87853931D02*
X155746782Y-87738475D01*
X155746782Y-87738475D02*
X155740000Y-87630000D01*
X155740000Y-87630000D02*
X155749076Y-87506149D01*
X155749076Y-87506149D02*
X155776305Y-87390692D01*
X155776305Y-87390692D02*
X155821687Y-87283631D01*
X155821687Y-87283631D02*
X155885221Y-87184965D01*
X155885221Y-87184965D02*
X155966908Y-87094694D01*
X155966908Y-87094694D02*
X156066747Y-87012818D01*
X156066747Y-87012818D02*
X156184738Y-86939337D01*
X156184738Y-86939337D02*
X156320881Y-86874251D01*
X156320881Y-86874251D02*
X156475176Y-86817561D01*
X156475176Y-86817561D02*
X156647622Y-86769267D01*
X156647622Y-86769267D02*
X156838220Y-86729368D01*
X156838220Y-86729368D02*
X157046969Y-86697864D01*
X157046969Y-86697864D02*
X157230000Y-86678445D01*
X157230000Y-86678445D02*
X157291318Y-86674291D01*
X157291318Y-86674291D02*
X157368947Y-86670978D01*
X157368947Y-86670978D02*
X157459216Y-86668505D01*
X157459216Y-86668505D02*
X157558453Y-86666872D01*
X157558453Y-86666872D02*
X157662987Y-86666080D01*
X157662987Y-86666080D02*
X157662987Y-85605135D01*
X157662987Y-85605135D02*
X157585190Y-85605330D01*
X157585190Y-85605330D02*
X157469468Y-85606449D01*
X157469468Y-85606449D02*
X157366930Y-85608548D01*
X157366930Y-85608548D02*
X157274173Y-85611817D01*
X157274173Y-85611817D02*
X157187792Y-85616449D01*
X157187792Y-85616449D02*
X157104385Y-85622633D01*
X157104385Y-85622633D02*
X157020548Y-85630561D01*
X157020548Y-85630561D02*
X156932877Y-85640424D01*
X156932877Y-85640424D02*
X156837969Y-85652414D01*
X156837969Y-85652414D02*
X156812281Y-85655824D01*
X156812281Y-85655824D02*
X156557226Y-85696767D01*
X156557226Y-85696767D02*
X156317419Y-85749266D01*
X156317419Y-85749266D02*
X156093092Y-85813236D01*
X156093092Y-85813236D02*
X155884480Y-85888590D01*
X155884480Y-85888590D02*
X155691817Y-85975242D01*
X155691817Y-85975242D02*
X155515336Y-86073107D01*
X155515336Y-86073107D02*
X155355273Y-86182098D01*
X155355273Y-86182098D02*
X155333493Y-86198779D01*
X155333493Y-86198779D02*
X155282508Y-86240896D01*
X155282508Y-86240896D02*
X155225566Y-86291997D01*
X155225566Y-86291997D02*
X155167299Y-86347577D01*
X155167299Y-86347577D02*
X155112336Y-86403130D01*
X155112336Y-86403130D02*
X155065306Y-86454150D01*
X155065306Y-86454150D02*
X155039390Y-86485000D01*
X155039390Y-86485000D02*
X154938461Y-86628358D01*
X154938461Y-86628358D02*
X154853296Y-86783346D01*
X154853296Y-86783346D02*
X154784423Y-86948641D01*
X154784423Y-86948641D02*
X154732368Y-87122918D01*
X154732368Y-87122918D02*
X154697656Y-87304856D01*
X154697656Y-87304856D02*
X154690554Y-87362105D01*
X154690554Y-87362105D02*
X154685551Y-87424858D01*
X154685551Y-87424858D02*
X154682225Y-87501819D01*
X154682225Y-87501819D02*
X154680575Y-87587271D01*
X154680575Y-87587271D02*
X154680601Y-87675493D01*
X154680601Y-87675493D02*
X154682304Y-87760764D01*
X154682304Y-87760764D02*
X154685683Y-87837365D01*
X154685683Y-87837365D02*
X154690554Y-87897894D01*
X154690554Y-87897894D02*
X154720162Y-88085323D01*
X154720162Y-88085323D02*
X154767089Y-88262865D01*
X154767089Y-88262865D02*
X154831195Y-88430394D01*
X154831195Y-88430394D02*
X154912344Y-88587785D01*
X154912344Y-88587785D02*
X155010398Y-88734914D01*
X155010398Y-88734914D02*
X155125218Y-88871655D01*
X155125218Y-88871655D02*
X155256668Y-88997882D01*
X155256668Y-88997882D02*
X155404610Y-89113472D01*
X155404610Y-89113472D02*
X155568905Y-89218299D01*
X155568905Y-89218299D02*
X155749416Y-89312237D01*
X155749416Y-89312237D02*
X155946005Y-89395162D01*
X155946005Y-89395162D02*
X156158536Y-89466949D01*
X156158536Y-89466949D02*
X156386869Y-89527472D01*
X156386869Y-89527472D02*
X156515000Y-89555090D01*
X156515000Y-89555090D02*
X156645821Y-89579687D01*
X156645821Y-89579687D02*
X156772702Y-89600269D01*
X156772702Y-89600269D02*
X156898854Y-89617103D01*
X156898854Y-89617103D02*
X157027493Y-89630459D01*
X157027493Y-89630459D02*
X157161829Y-89640603D01*
X157161829Y-89640603D02*
X157305077Y-89647806D01*
X157305077Y-89647806D02*
X157460449Y-89652333D01*
X157460449Y-89652333D02*
X157631159Y-89654455D01*
X157631159Y-89654455D02*
X157708048Y-89654693D01*
X157708048Y-89654693D02*
X158131096Y-89655000D01*
X158131096Y-89655000D02*
X158023048Y-89672644D01*
X158023048Y-89672644D02*
X157841786Y-89703089D01*
X157841786Y-89703089D02*
X157649962Y-89736879D01*
X157649962Y-89736879D02*
X157449519Y-89773598D01*
X157449519Y-89773598D02*
X157242401Y-89812829D01*
X157242401Y-89812829D02*
X157030550Y-89854155D01*
X157030550Y-89854155D02*
X156815908Y-89897160D01*
X156815908Y-89897160D02*
X156600420Y-89941428D01*
X156600420Y-89941428D02*
X156386027Y-89986540D01*
X156386027Y-89986540D02*
X156174673Y-90032082D01*
X156174673Y-90032082D02*
X155968300Y-90077636D01*
X155968300Y-90077636D02*
X155768852Y-90122785D01*
X155768852Y-90122785D02*
X155578271Y-90167113D01*
X155578271Y-90167113D02*
X155398500Y-90210204D01*
X155398500Y-90210204D02*
X155231483Y-90251639D01*
X155231483Y-90251639D02*
X155079161Y-90291004D01*
X155079161Y-90291004D02*
X154943479Y-90327880D01*
X154943479Y-90327880D02*
X154870746Y-90348673D01*
X154870746Y-90348673D02*
X154740000Y-90386892D01*
X154740000Y-90386892D02*
X154740000Y-88400000D01*
X154740000Y-88400000D02*
X153880000Y-88400000D01*
X153880000Y-88400000D02*
X153880000Y-90600000D01*
X153880000Y-90600000D02*
X152540000Y-90600000D01*
X152540000Y-90600000D02*
X152540000Y-88060000D01*
X152540000Y-88060000D02*
X153540000Y-88060000D01*
X153540000Y-88060000D02*
X153540000Y-87200000D01*
X153540000Y-87200000D02*
X152540000Y-87200000D01*
X152540000Y-87200000D02*
X152540000Y-84660000D01*
X152540000Y-84660000D02*
X152540000Y-83599999D01*
X152540000Y-83599999D02*
X151680000Y-83600000D01*
X151680000Y-83600000D02*
X151680000Y-91660000D01*
X151680000Y-91660000D02*
X153923098Y-91660000D01*
X153923098Y-91660000D02*
X153923098Y-91660000D01*
G36*
X159518300Y-84902376D02*
G01*
X159797973Y-84937378D01*
X160060000Y-84964580D01*
X160076798Y-84966103D01*
X160165217Y-84973507D01*
X160258772Y-84980462D01*
X160353288Y-84986719D01*
X160444593Y-84992034D01*
X160528513Y-84996159D01*
X160600873Y-84998848D01*
X160657500Y-84999854D01*
X160740000Y-85000000D01*
X160740000Y-85860000D01*
X160607500Y-85859904D01*
X160556338Y-85859597D01*
X160410697Y-85856194D01*
X160248688Y-85848995D01*
X160069775Y-85837961D01*
X159873421Y-85823054D01*
X159659087Y-85804233D01*
X159426239Y-85781460D01*
X159174338Y-85754694D01*
X159161950Y-85754009D01*
X159161188Y-85756828D01*
X159177647Y-85764025D01*
X159212020Y-85775889D01*
X159265000Y-85792713D01*
X159273066Y-85795226D01*
X159477759Y-85865938D01*
X159664908Y-85944742D01*
X159835460Y-86032172D01*
X159990359Y-86128760D01*
X160130550Y-86235039D01*
X160256981Y-86351540D01*
X160328349Y-86426881D01*
X160396196Y-86506619D01*
X160454411Y-86585997D01*
X160506907Y-86670400D01*
X160557596Y-86765211D01*
X160603578Y-86864398D01*
X160654371Y-87000655D01*
X160692779Y-87142355D01*
X160719433Y-87292486D01*
X160734963Y-87454038D01*
X160740000Y-87629999D01*
X160737206Y-87762935D01*
X160724425Y-87927576D01*
X160700709Y-88080079D01*
X160665420Y-88223468D01*
X160617921Y-88360767D01*
X160557574Y-88495000D01*
X160504581Y-88592351D01*
X160407436Y-88738127D01*
X160294177Y-88873198D01*
X160164605Y-88997716D01*
X160018517Y-89111830D01*
X159855714Y-89215694D01*
X159675994Y-89309456D01*
X159479156Y-89393270D01*
X159265000Y-89467286D01*
X159221440Y-89481043D01*
X159183271Y-89493910D01*
X159163159Y-89502050D01*
X159160412Y-89505751D01*
X159174338Y-89505305D01*
X159272335Y-89494662D01*
X159516933Y-89469418D01*
X159742682Y-89448151D01*
X159950121Y-89430822D01*
X160139785Y-89417391D01*
X160312211Y-89407819D01*
X160467937Y-89402067D01*
X160607500Y-89400095D01*
X160740000Y-89400000D01*
X160740000Y-90256965D01*
X160547500Y-90263840D01*
X160492397Y-90266017D01*
X160243410Y-90280605D01*
X159976758Y-90303615D01*
X159692400Y-90335054D01*
X159390298Y-90374929D01*
X159070410Y-90423247D01*
X158732698Y-90480014D01*
X158377121Y-90545239D01*
X158003638Y-90618928D01*
X157612212Y-90701087D01*
X157202800Y-90791725D01*
X156775364Y-90890847D01*
X156329863Y-90998460D01*
X156198318Y-91031098D01*
X156030639Y-91073378D01*
X155857232Y-91117779D01*
X155680033Y-91163776D01*
X155500977Y-91210839D01*
X155321999Y-91258442D01*
X155145035Y-91306057D01*
X154972019Y-91353157D01*
X154804888Y-91399214D01*
X154645577Y-91443701D01*
X154496020Y-91486090D01*
X154358154Y-91525855D01*
X154233913Y-91562467D01*
X154125233Y-91595400D01*
X154034049Y-91624125D01*
X153923098Y-91660000D01*
X151680000Y-91660000D01*
X151680000Y-88060000D01*
X152540000Y-88060000D01*
X152540000Y-90600000D01*
X153880000Y-90600000D01*
X153880000Y-88400000D01*
X154740000Y-88400000D01*
X154740000Y-90386892D01*
X154870746Y-90348673D01*
X154943479Y-90327880D01*
X155079161Y-90291004D01*
X155231483Y-90251639D01*
X155398500Y-90210204D01*
X155578271Y-90167113D01*
X155768852Y-90122785D01*
X155968300Y-90077636D01*
X156174673Y-90032082D01*
X156386027Y-89986540D01*
X156600420Y-89941428D01*
X156815908Y-89897160D01*
X157030550Y-89854155D01*
X157242401Y-89812829D01*
X157449519Y-89773598D01*
X157649962Y-89736879D01*
X157841786Y-89703089D01*
X158023048Y-89672644D01*
X158131096Y-89655000D01*
X157708048Y-89654693D01*
X157631159Y-89654455D01*
X157460449Y-89652333D01*
X157305077Y-89647806D01*
X157161829Y-89640603D01*
X157027493Y-89630459D01*
X156898854Y-89617103D01*
X156772702Y-89600269D01*
X156645821Y-89579687D01*
X156515000Y-89555090D01*
X156386869Y-89527472D01*
X156346102Y-89516666D01*
X159093333Y-89516666D01*
X159094799Y-89517863D01*
X159106666Y-89516666D01*
X159108231Y-89513658D01*
X159100000Y-89510000D01*
X159094706Y-89510721D01*
X159093333Y-89516666D01*
X156346102Y-89516666D01*
X156158536Y-89466949D01*
X155946005Y-89395162D01*
X155749416Y-89312237D01*
X155568905Y-89218299D01*
X155404610Y-89113472D01*
X155256668Y-88997882D01*
X155125218Y-88871655D01*
X155010398Y-88734914D01*
X154912344Y-88587785D01*
X154831195Y-88430394D01*
X154767089Y-88262865D01*
X154720162Y-88085323D01*
X154690554Y-87897894D01*
X154685683Y-87837365D01*
X154682304Y-87760764D01*
X154680601Y-87675493D01*
X154680588Y-87630000D01*
X155740000Y-87630000D01*
X155746782Y-87738475D01*
X155771241Y-87853931D01*
X155813720Y-87960893D01*
X155874424Y-88059867D01*
X155953563Y-88151359D01*
X155957881Y-88155621D01*
X156055002Y-88238063D01*
X156169575Y-88312082D01*
X156301715Y-88377715D01*
X156451540Y-88435003D01*
X156619165Y-88483985D01*
X156804706Y-88524700D01*
X157008279Y-88557186D01*
X157230000Y-88581483D01*
X157284290Y-88585229D01*
X157360295Y-88588597D01*
X157449313Y-88591134D01*
X157547679Y-88592838D01*
X157651725Y-88593711D01*
X157757787Y-88593753D01*
X157862197Y-88592962D01*
X157961290Y-88591340D01*
X158051399Y-88588886D01*
X158128857Y-88585600D01*
X158190000Y-88581483D01*
X158321046Y-88568340D01*
X158533878Y-88538924D01*
X158728611Y-88501089D01*
X158905241Y-88454838D01*
X159063761Y-88400175D01*
X159100000Y-88383895D01*
X159204165Y-88337103D01*
X159326449Y-88265625D01*
X159430604Y-88185744D01*
X159516627Y-88097463D01*
X159584511Y-88000786D01*
X159634250Y-87895715D01*
X159665838Y-87782254D01*
X159674694Y-87716857D01*
X159678514Y-87631725D01*
X159675325Y-87546251D01*
X159665148Y-87469979D01*
X159649686Y-87407457D01*
X159607384Y-87299795D01*
X159546891Y-87200351D01*
X159468246Y-87109145D01*
X159371484Y-87026197D01*
X159256643Y-86951526D01*
X159123759Y-86885153D01*
X158972870Y-86827098D01*
X158804013Y-86777379D01*
X158617224Y-86736018D01*
X158412540Y-86703033D01*
X158190000Y-86678445D01*
X158136606Y-86674725D01*
X158060660Y-86671315D01*
X157971654Y-86668746D01*
X157873258Y-86667017D01*
X157769146Y-86666128D01*
X157662987Y-86666080D01*
X157558453Y-86666872D01*
X157459216Y-86668505D01*
X157368947Y-86670978D01*
X157291318Y-86674291D01*
X157230000Y-86678445D01*
X157046969Y-86697864D01*
X156838220Y-86729368D01*
X156647622Y-86769267D01*
X156475176Y-86817561D01*
X156320881Y-86874251D01*
X156184738Y-86939337D01*
X156066747Y-87012818D01*
X155966908Y-87094694D01*
X155885221Y-87184965D01*
X155821687Y-87283631D01*
X155776305Y-87390692D01*
X155749076Y-87506149D01*
X155740000Y-87630000D01*
X154680588Y-87630000D01*
X154680575Y-87587271D01*
X154682225Y-87501819D01*
X154685551Y-87424858D01*
X154690554Y-87362105D01*
X154697656Y-87304856D01*
X154732368Y-87122918D01*
X154784423Y-86948641D01*
X154853296Y-86783346D01*
X154938461Y-86628358D01*
X155039390Y-86485000D01*
X155065306Y-86454150D01*
X155112336Y-86403130D01*
X155167299Y-86347577D01*
X155225566Y-86291997D01*
X155282508Y-86240896D01*
X155333493Y-86198779D01*
X155355273Y-86182098D01*
X155515336Y-86073107D01*
X155691817Y-85975242D01*
X155884480Y-85888590D01*
X156093092Y-85813236D01*
X156317419Y-85749266D01*
X156329295Y-85746666D01*
X159093333Y-85746666D01*
X159094799Y-85747863D01*
X159106666Y-85746666D01*
X159108231Y-85743658D01*
X159100000Y-85740000D01*
X159094706Y-85740721D01*
X159093333Y-85746666D01*
X156329295Y-85746666D01*
X156557226Y-85696767D01*
X156812281Y-85655824D01*
X156837969Y-85652414D01*
X156932877Y-85640424D01*
X157020548Y-85630561D01*
X157104385Y-85622633D01*
X157187792Y-85616449D01*
X157274173Y-85611817D01*
X157366930Y-85608548D01*
X157469468Y-85606449D01*
X157585190Y-85605330D01*
X157662987Y-85605135D01*
X157717500Y-85605000D01*
X157759166Y-85604997D01*
X157845044Y-85604972D01*
X157923428Y-85604924D01*
X157992236Y-85604856D01*
X158049381Y-85604770D01*
X158092780Y-85604670D01*
X158120348Y-85604558D01*
X158130000Y-85604438D01*
X158122134Y-85602991D01*
X158098179Y-85599029D01*
X158061995Y-85593198D01*
X158017500Y-85586135D01*
X157990948Y-85581857D01*
X157924256Y-85570632D01*
X157842163Y-85556344D01*
X157747491Y-85539514D01*
X157643060Y-85520665D01*
X157531695Y-85500319D01*
X157416216Y-85478998D01*
X157299446Y-85457226D01*
X157184207Y-85435523D01*
X157073321Y-85414413D01*
X156969609Y-85394417D01*
X156875895Y-85376059D01*
X156795000Y-85359860D01*
X156664763Y-85333160D01*
X156452437Y-85288652D01*
X156241792Y-85243325D01*
X156034829Y-85197648D01*
X155833553Y-85152087D01*
X155639966Y-85107110D01*
X155456073Y-85063186D01*
X155283876Y-85020783D01*
X155125379Y-84980367D01*
X154982586Y-84942408D01*
X154857500Y-84907373D01*
X154740000Y-84873397D01*
X154740000Y-86860000D01*
X153880000Y-86860000D01*
X153880000Y-84660000D01*
X152540000Y-84660000D01*
X152540000Y-87200000D01*
X153540000Y-87200000D01*
X153540000Y-88060000D01*
X152540000Y-88060000D01*
X151680000Y-88060000D01*
X151680000Y-83600000D01*
X152540000Y-83599999D01*
X153922308Y-83599999D01*
X154048230Y-83640256D01*
X154062168Y-83644673D01*
X154121280Y-83662879D01*
X154196327Y-83685381D01*
X154284711Y-83711436D01*
X154383832Y-83740298D01*
X154491090Y-83771225D01*
X154603888Y-83803472D01*
X154719626Y-83836295D01*
X154835706Y-83868951D01*
X154949527Y-83900695D01*
X155058491Y-83930785D01*
X155160000Y-83958475D01*
X155479647Y-84044057D01*
X155906721Y-84155277D01*
X156323934Y-84260296D01*
X156730576Y-84358966D01*
X157125942Y-84451143D01*
X157509323Y-84536682D01*
X157880012Y-84615438D01*
X158237300Y-84687264D01*
X158580481Y-84752017D01*
X158908846Y-84809550D01*
X159100000Y-84840204D01*
X159221688Y-84859718D01*
X159518300Y-84902376D01*
G37*
X159518300Y-84902376D02*
X159797973Y-84937378D01*
X160060000Y-84964580D01*
X160076798Y-84966103D01*
X160165217Y-84973507D01*
X160258772Y-84980462D01*
X160353288Y-84986719D01*
X160444593Y-84992034D01*
X160528513Y-84996159D01*
X160600873Y-84998848D01*
X160657500Y-84999854D01*
X160740000Y-85000000D01*
X160740000Y-85860000D01*
X160607500Y-85859904D01*
X160556338Y-85859597D01*
X160410697Y-85856194D01*
X160248688Y-85848995D01*
X160069775Y-85837961D01*
X159873421Y-85823054D01*
X159659087Y-85804233D01*
X159426239Y-85781460D01*
X159174338Y-85754694D01*
X159161950Y-85754009D01*
X159161188Y-85756828D01*
X159177647Y-85764025D01*
X159212020Y-85775889D01*
X159265000Y-85792713D01*
X159273066Y-85795226D01*
X159477759Y-85865938D01*
X159664908Y-85944742D01*
X159835460Y-86032172D01*
X159990359Y-86128760D01*
X160130550Y-86235039D01*
X160256981Y-86351540D01*
X160328349Y-86426881D01*
X160396196Y-86506619D01*
X160454411Y-86585997D01*
X160506907Y-86670400D01*
X160557596Y-86765211D01*
X160603578Y-86864398D01*
X160654371Y-87000655D01*
X160692779Y-87142355D01*
X160719433Y-87292486D01*
X160734963Y-87454038D01*
X160740000Y-87629999D01*
X160737206Y-87762935D01*
X160724425Y-87927576D01*
X160700709Y-88080079D01*
X160665420Y-88223468D01*
X160617921Y-88360767D01*
X160557574Y-88495000D01*
X160504581Y-88592351D01*
X160407436Y-88738127D01*
X160294177Y-88873198D01*
X160164605Y-88997716D01*
X160018517Y-89111830D01*
X159855714Y-89215694D01*
X159675994Y-89309456D01*
X159479156Y-89393270D01*
X159265000Y-89467286D01*
X159221440Y-89481043D01*
X159183271Y-89493910D01*
X159163159Y-89502050D01*
X159160412Y-89505751D01*
X159174338Y-89505305D01*
X159272335Y-89494662D01*
X159516933Y-89469418D01*
X159742682Y-89448151D01*
X159950121Y-89430822D01*
X160139785Y-89417391D01*
X160312211Y-89407819D01*
X160467937Y-89402067D01*
X160607500Y-89400095D01*
X160740000Y-89400000D01*
X160740000Y-90256965D01*
X160547500Y-90263840D01*
X160492397Y-90266017D01*
X160243410Y-90280605D01*
X159976758Y-90303615D01*
X159692400Y-90335054D01*
X159390298Y-90374929D01*
X159070410Y-90423247D01*
X158732698Y-90480014D01*
X158377121Y-90545239D01*
X158003638Y-90618928D01*
X157612212Y-90701087D01*
X157202800Y-90791725D01*
X156775364Y-90890847D01*
X156329863Y-90998460D01*
X156198318Y-91031098D01*
X156030639Y-91073378D01*
X155857232Y-91117779D01*
X155680033Y-91163776D01*
X155500977Y-91210839D01*
X155321999Y-91258442D01*
X155145035Y-91306057D01*
X154972019Y-91353157D01*
X154804888Y-91399214D01*
X154645577Y-91443701D01*
X154496020Y-91486090D01*
X154358154Y-91525855D01*
X154233913Y-91562467D01*
X154125233Y-91595400D01*
X154034049Y-91624125D01*
X153923098Y-91660000D01*
X151680000Y-91660000D01*
X151680000Y-88060000D01*
X152540000Y-88060000D01*
X152540000Y-90600000D01*
X153880000Y-90600000D01*
X153880000Y-88400000D01*
X154740000Y-88400000D01*
X154740000Y-90386892D01*
X154870746Y-90348673D01*
X154943479Y-90327880D01*
X155079161Y-90291004D01*
X155231483Y-90251639D01*
X155398500Y-90210204D01*
X155578271Y-90167113D01*
X155768852Y-90122785D01*
X155968300Y-90077636D01*
X156174673Y-90032082D01*
X156386027Y-89986540D01*
X156600420Y-89941428D01*
X156815908Y-89897160D01*
X157030550Y-89854155D01*
X157242401Y-89812829D01*
X157449519Y-89773598D01*
X157649962Y-89736879D01*
X157841786Y-89703089D01*
X158023048Y-89672644D01*
X158131096Y-89655000D01*
X157708048Y-89654693D01*
X157631159Y-89654455D01*
X157460449Y-89652333D01*
X157305077Y-89647806D01*
X157161829Y-89640603D01*
X157027493Y-89630459D01*
X156898854Y-89617103D01*
X156772702Y-89600269D01*
X156645821Y-89579687D01*
X156515000Y-89555090D01*
X156386869Y-89527472D01*
X156346102Y-89516666D01*
X159093333Y-89516666D01*
X159094799Y-89517863D01*
X159106666Y-89516666D01*
X159108231Y-89513658D01*
X159100000Y-89510000D01*
X159094706Y-89510721D01*
X159093333Y-89516666D01*
X156346102Y-89516666D01*
X156158536Y-89466949D01*
X155946005Y-89395162D01*
X155749416Y-89312237D01*
X155568905Y-89218299D01*
X155404610Y-89113472D01*
X155256668Y-88997882D01*
X155125218Y-88871655D01*
X155010398Y-88734914D01*
X154912344Y-88587785D01*
X154831195Y-88430394D01*
X154767089Y-88262865D01*
X154720162Y-88085323D01*
X154690554Y-87897894D01*
X154685683Y-87837365D01*
X154682304Y-87760764D01*
X154680601Y-87675493D01*
X154680588Y-87630000D01*
X155740000Y-87630000D01*
X155746782Y-87738475D01*
X155771241Y-87853931D01*
X155813720Y-87960893D01*
X155874424Y-88059867D01*
X155953563Y-88151359D01*
X155957881Y-88155621D01*
X156055002Y-88238063D01*
X156169575Y-88312082D01*
X156301715Y-88377715D01*
X156451540Y-88435003D01*
X156619165Y-88483985D01*
X156804706Y-88524700D01*
X157008279Y-88557186D01*
X157230000Y-88581483D01*
X157284290Y-88585229D01*
X157360295Y-88588597D01*
X157449313Y-88591134D01*
X157547679Y-88592838D01*
X157651725Y-88593711D01*
X157757787Y-88593753D01*
X157862197Y-88592962D01*
X157961290Y-88591340D01*
X158051399Y-88588886D01*
X158128857Y-88585600D01*
X158190000Y-88581483D01*
X158321046Y-88568340D01*
X158533878Y-88538924D01*
X158728611Y-88501089D01*
X158905241Y-88454838D01*
X159063761Y-88400175D01*
X159100000Y-88383895D01*
X159204165Y-88337103D01*
X159326449Y-88265625D01*
X159430604Y-88185744D01*
X159516627Y-88097463D01*
X159584511Y-88000786D01*
X159634250Y-87895715D01*
X159665838Y-87782254D01*
X159674694Y-87716857D01*
X159678514Y-87631725D01*
X159675325Y-87546251D01*
X159665148Y-87469979D01*
X159649686Y-87407457D01*
X159607384Y-87299795D01*
X159546891Y-87200351D01*
X159468246Y-87109145D01*
X159371484Y-87026197D01*
X159256643Y-86951526D01*
X159123759Y-86885153D01*
X158972870Y-86827098D01*
X158804013Y-86777379D01*
X158617224Y-86736018D01*
X158412540Y-86703033D01*
X158190000Y-86678445D01*
X158136606Y-86674725D01*
X158060660Y-86671315D01*
X157971654Y-86668746D01*
X157873258Y-86667017D01*
X157769146Y-86666128D01*
X157662987Y-86666080D01*
X157558453Y-86666872D01*
X157459216Y-86668505D01*
X157368947Y-86670978D01*
X157291318Y-86674291D01*
X157230000Y-86678445D01*
X157046969Y-86697864D01*
X156838220Y-86729368D01*
X156647622Y-86769267D01*
X156475176Y-86817561D01*
X156320881Y-86874251D01*
X156184738Y-86939337D01*
X156066747Y-87012818D01*
X155966908Y-87094694D01*
X155885221Y-87184965D01*
X155821687Y-87283631D01*
X155776305Y-87390692D01*
X155749076Y-87506149D01*
X155740000Y-87630000D01*
X154680588Y-87630000D01*
X154680575Y-87587271D01*
X154682225Y-87501819D01*
X154685551Y-87424858D01*
X154690554Y-87362105D01*
X154697656Y-87304856D01*
X154732368Y-87122918D01*
X154784423Y-86948641D01*
X154853296Y-86783346D01*
X154938461Y-86628358D01*
X155039390Y-86485000D01*
X155065306Y-86454150D01*
X155112336Y-86403130D01*
X155167299Y-86347577D01*
X155225566Y-86291997D01*
X155282508Y-86240896D01*
X155333493Y-86198779D01*
X155355273Y-86182098D01*
X155515336Y-86073107D01*
X155691817Y-85975242D01*
X155884480Y-85888590D01*
X156093092Y-85813236D01*
X156317419Y-85749266D01*
X156329295Y-85746666D01*
X159093333Y-85746666D01*
X159094799Y-85747863D01*
X159106666Y-85746666D01*
X159108231Y-85743658D01*
X159100000Y-85740000D01*
X159094706Y-85740721D01*
X159093333Y-85746666D01*
X156329295Y-85746666D01*
X156557226Y-85696767D01*
X156812281Y-85655824D01*
X156837969Y-85652414D01*
X156932877Y-85640424D01*
X157020548Y-85630561D01*
X157104385Y-85622633D01*
X157187792Y-85616449D01*
X157274173Y-85611817D01*
X157366930Y-85608548D01*
X157469468Y-85606449D01*
X157585190Y-85605330D01*
X157662987Y-85605135D01*
X157717500Y-85605000D01*
X157759166Y-85604997D01*
X157845044Y-85604972D01*
X157923428Y-85604924D01*
X157992236Y-85604856D01*
X158049381Y-85604770D01*
X158092780Y-85604670D01*
X158120348Y-85604558D01*
X158130000Y-85604438D01*
X158122134Y-85602991D01*
X158098179Y-85599029D01*
X158061995Y-85593198D01*
X158017500Y-85586135D01*
X157990948Y-85581857D01*
X157924256Y-85570632D01*
X157842163Y-85556344D01*
X157747491Y-85539514D01*
X157643060Y-85520665D01*
X157531695Y-85500319D01*
X157416216Y-85478998D01*
X157299446Y-85457226D01*
X157184207Y-85435523D01*
X157073321Y-85414413D01*
X156969609Y-85394417D01*
X156875895Y-85376059D01*
X156795000Y-85359860D01*
X156664763Y-85333160D01*
X156452437Y-85288652D01*
X156241792Y-85243325D01*
X156034829Y-85197648D01*
X155833553Y-85152087D01*
X155639966Y-85107110D01*
X155456073Y-85063186D01*
X155283876Y-85020783D01*
X155125379Y-84980367D01*
X154982586Y-84942408D01*
X154857500Y-84907373D01*
X154740000Y-84873397D01*
X154740000Y-86860000D01*
X153880000Y-86860000D01*
X153880000Y-84660000D01*
X152540000Y-84660000D01*
X152540000Y-87200000D01*
X153540000Y-87200000D01*
X153540000Y-88060000D01*
X152540000Y-88060000D01*
X151680000Y-88060000D01*
X151680000Y-83600000D01*
X152540000Y-83599999D01*
X153922308Y-83599999D01*
X154048230Y-83640256D01*
X154062168Y-83644673D01*
X154121280Y-83662879D01*
X154196327Y-83685381D01*
X154284711Y-83711436D01*
X154383832Y-83740298D01*
X154491090Y-83771225D01*
X154603888Y-83803472D01*
X154719626Y-83836295D01*
X154835706Y-83868951D01*
X154949527Y-83900695D01*
X155058491Y-83930785D01*
X155160000Y-83958475D01*
X155479647Y-84044057D01*
X155906721Y-84155277D01*
X156323934Y-84260296D01*
X156730576Y-84358966D01*
X157125942Y-84451143D01*
X157509323Y-84536682D01*
X157880012Y-84615438D01*
X158237300Y-84687264D01*
X158580481Y-84752017D01*
X158908846Y-84809550D01*
X159100000Y-84840204D01*
X159221688Y-84859718D01*
X159518300Y-84902376D01*
M02*
