%FSLAX45Y45*%
G04 Gerber Fmt 4.5, Leading zero omitted, Abs format (unit mm)*
G04 Created by KiCad (PCBNEW (5.99.0-9618-g5ca7a2c457)) date 2021-03-10 23:01:31*
%MOMM*%
%LPD*%
G01*
G04 APERTURE LIST*
%TA.AperFunction,Profile*%
%ADD10C,0.050000*%
%TD*%
%ADD11C,0.200000*%
%ADD12C,0.320000*%
%ADD13C,0.350000*%
G04 APERTURE END LIST*
D10*
X10160000Y-9525000D02*
X10160000Y-15113000D01*
X16764000Y-7747000D02*
X16764000Y-9525000D01*
X10160000Y-9525000D02*
X10160000Y-7747000D01*
X10160000Y-7747000D02*
X13335000Y-7747000D01*
X13335000Y-7747000D02*
X16764000Y-7747000D01*
X10160000Y-15113000D02*
X16764000Y-15113000D01*
X16764000Y-15113000D02*
X16764000Y-9525000D01*
D11*
D12*
X10762000Y-14635500D02*
X11082000Y-14955500D01*
X11082000Y-14635500D02*
X10762000Y-14955500D01*
D13*
X16558000Y-8763000D02*
G75*
G03*
X16558000Y-8763000I-175000J0D01*
G01*
D11*
X10415119Y-15425976D02*
X10415119Y-15225976D01*
X10462738Y-15225976D01*
X10491310Y-15235500D01*
X10510357Y-15254548D01*
X10519881Y-15273595D01*
X10529405Y-15311690D01*
X10529405Y-15340262D01*
X10519881Y-15378357D01*
X10510357Y-15397405D01*
X10491310Y-15416452D01*
X10462738Y-15425976D01*
X10415119Y-15425976D01*
X10615119Y-15425976D02*
X10615119Y-15292643D01*
X10615119Y-15330738D02*
X10624643Y-15311690D01*
X10634167Y-15302167D01*
X10653214Y-15292643D01*
X10672262Y-15292643D01*
X10738929Y-15425976D02*
X10738929Y-15292643D01*
X10738929Y-15225976D02*
X10729405Y-15235500D01*
X10738929Y-15245024D01*
X10748452Y-15235500D01*
X10738929Y-15225976D01*
X10738929Y-15245024D01*
X10862738Y-15425976D02*
X10843690Y-15416452D01*
X10834167Y-15397405D01*
X10834167Y-15225976D01*
X10967500Y-15425976D02*
X10948452Y-15416452D01*
X10938929Y-15397405D01*
X10938929Y-15225976D01*
X11196071Y-15425976D02*
X11196071Y-15225976D01*
X11262738Y-15368833D01*
X11329405Y-15225976D01*
X11329405Y-15425976D01*
X11510357Y-15425976D02*
X11510357Y-15321214D01*
X11500833Y-15302167D01*
X11481786Y-15292643D01*
X11443690Y-15292643D01*
X11424643Y-15302167D01*
X11510357Y-15416452D02*
X11491309Y-15425976D01*
X11443690Y-15425976D01*
X11424643Y-15416452D01*
X11415119Y-15397405D01*
X11415119Y-15378357D01*
X11424643Y-15359309D01*
X11443690Y-15349786D01*
X11491309Y-15349786D01*
X11510357Y-15340262D01*
X11605595Y-15292643D02*
X11605595Y-15492643D01*
X11605595Y-15302167D02*
X11624643Y-15292643D01*
X11662738Y-15292643D01*
X11681786Y-15302167D01*
X11691309Y-15311690D01*
X11700833Y-15330738D01*
X11700833Y-15387881D01*
X11691309Y-15406928D01*
X11681786Y-15416452D01*
X11662738Y-15425976D01*
X11624643Y-15425976D01*
X11605595Y-15416452D01*
X11786548Y-15406928D02*
X11796071Y-15416452D01*
X11786548Y-15425976D01*
X11777024Y-15416452D01*
X11786548Y-15406928D01*
X11786548Y-15425976D01*
X11786548Y-15302167D02*
X11796071Y-15311690D01*
X11786548Y-15321214D01*
X11777024Y-15311690D01*
X11786548Y-15302167D01*
X11786548Y-15321214D01*
X9957500Y-15655500D02*
X10157500Y-15855500D01*
X10157500Y-15655500D02*
X9957500Y-15855500D01*
X10396071Y-15645976D02*
X10519881Y-15645976D01*
X10453214Y-15722167D01*
X10481786Y-15722167D01*
X10500833Y-15731690D01*
X10510357Y-15741214D01*
X10519881Y-15760262D01*
X10519881Y-15807881D01*
X10510357Y-15826928D01*
X10500833Y-15836452D01*
X10481786Y-15845976D01*
X10424643Y-15845976D01*
X10405595Y-15836452D01*
X10396071Y-15826928D01*
X10605595Y-15826928D02*
X10615119Y-15836452D01*
X10605595Y-15845976D01*
X10596071Y-15836452D01*
X10605595Y-15826928D01*
X10605595Y-15845976D01*
X10691310Y-15665024D02*
X10700833Y-15655500D01*
X10719881Y-15645976D01*
X10767500Y-15645976D01*
X10786548Y-15655500D01*
X10796071Y-15665024D01*
X10805595Y-15684071D01*
X10805595Y-15703119D01*
X10796071Y-15731690D01*
X10681786Y-15845976D01*
X10805595Y-15845976D01*
X10929405Y-15645976D02*
X10948452Y-15645976D01*
X10967500Y-15655500D01*
X10977024Y-15665024D01*
X10986548Y-15684071D01*
X10996071Y-15722167D01*
X10996071Y-15769786D01*
X10986548Y-15807881D01*
X10977024Y-15826928D01*
X10967500Y-15836452D01*
X10948452Y-15845976D01*
X10929405Y-15845976D01*
X10910357Y-15836452D01*
X10900833Y-15826928D01*
X10891310Y-15807881D01*
X10881786Y-15769786D01*
X10881786Y-15722167D01*
X10891310Y-15684071D01*
X10900833Y-15665024D01*
X10910357Y-15655500D01*
X10929405Y-15645976D01*
X11119881Y-15645976D02*
X11138929Y-15645976D01*
X11157976Y-15655500D01*
X11167500Y-15665024D01*
X11177024Y-15684071D01*
X11186548Y-15722167D01*
X11186548Y-15769786D01*
X11177024Y-15807881D01*
X11167500Y-15826928D01*
X11157976Y-15836452D01*
X11138929Y-15845976D01*
X11119881Y-15845976D01*
X11100833Y-15836452D01*
X11091310Y-15826928D01*
X11081786Y-15807881D01*
X11072262Y-15769786D01*
X11072262Y-15722167D01*
X11081786Y-15684071D01*
X11091310Y-15665024D01*
X11100833Y-15655500D01*
X11119881Y-15645976D01*
X11272262Y-15845976D02*
X11272262Y-15712643D01*
X11272262Y-15731690D02*
X11281786Y-15722167D01*
X11300833Y-15712643D01*
X11329405Y-15712643D01*
X11348452Y-15722167D01*
X11357976Y-15741214D01*
X11357976Y-15845976D01*
X11357976Y-15741214D02*
X11367500Y-15722167D01*
X11386548Y-15712643D01*
X11415119Y-15712643D01*
X11434167Y-15722167D01*
X11443690Y-15741214D01*
X11443690Y-15845976D01*
X11538928Y-15845976D02*
X11538928Y-15712643D01*
X11538928Y-15731690D02*
X11548452Y-15722167D01*
X11567500Y-15712643D01*
X11596071Y-15712643D01*
X11615119Y-15722167D01*
X11624643Y-15741214D01*
X11624643Y-15845976D01*
X11624643Y-15741214D02*
X11634167Y-15722167D01*
X11653214Y-15712643D01*
X11681786Y-15712643D01*
X11700833Y-15722167D01*
X11710357Y-15741214D01*
X11710357Y-15845976D01*
X12100833Y-15636452D02*
X11929405Y-15893595D01*
X12357976Y-15645976D02*
X12377024Y-15645976D01*
X12396071Y-15655500D01*
X12405595Y-15665024D01*
X12415119Y-15684071D01*
X12424643Y-15722167D01*
X12424643Y-15769786D01*
X12415119Y-15807881D01*
X12405595Y-15826928D01*
X12396071Y-15836452D01*
X12377024Y-15845976D01*
X12357976Y-15845976D01*
X12338928Y-15836452D01*
X12329405Y-15826928D01*
X12319881Y-15807881D01*
X12310357Y-15769786D01*
X12310357Y-15722167D01*
X12319881Y-15684071D01*
X12329405Y-15665024D01*
X12338928Y-15655500D01*
X12357976Y-15645976D01*
X12510357Y-15826928D02*
X12519881Y-15836452D01*
X12510357Y-15845976D01*
X12500833Y-15836452D01*
X12510357Y-15826928D01*
X12510357Y-15845976D01*
X12710357Y-15845976D02*
X12596071Y-15845976D01*
X12653214Y-15845976D02*
X12653214Y-15645976D01*
X12634167Y-15674548D01*
X12615119Y-15693595D01*
X12596071Y-15703119D01*
X12786548Y-15665024D02*
X12796071Y-15655500D01*
X12815119Y-15645976D01*
X12862738Y-15645976D01*
X12881786Y-15655500D01*
X12891309Y-15665024D01*
X12900833Y-15684071D01*
X12900833Y-15703119D01*
X12891309Y-15731690D01*
X12777024Y-15845976D01*
X12900833Y-15845976D01*
X13072262Y-15645976D02*
X13034167Y-15645976D01*
X13015119Y-15655500D01*
X13005595Y-15665024D01*
X12986548Y-15693595D01*
X12977024Y-15731690D01*
X12977024Y-15807881D01*
X12986548Y-15826928D01*
X12996071Y-15836452D01*
X13015119Y-15845976D01*
X13053214Y-15845976D01*
X13072262Y-15836452D01*
X13081786Y-15826928D01*
X13091309Y-15807881D01*
X13091309Y-15760262D01*
X13081786Y-15741214D01*
X13072262Y-15731690D01*
X13053214Y-15722167D01*
X13015119Y-15722167D01*
X12996071Y-15731690D01*
X12986548Y-15741214D01*
X12977024Y-15760262D01*
X13215119Y-15645976D02*
X13234167Y-15645976D01*
X13253214Y-15655500D01*
X13262738Y-15665024D01*
X13272262Y-15684071D01*
X13281786Y-15722167D01*
X13281786Y-15769786D01*
X13272262Y-15807881D01*
X13262738Y-15826928D01*
X13253214Y-15836452D01*
X13234167Y-15845976D01*
X13215119Y-15845976D01*
X13196071Y-15836452D01*
X13186548Y-15826928D01*
X13177024Y-15807881D01*
X13167500Y-15769786D01*
X13167500Y-15722167D01*
X13177024Y-15684071D01*
X13186548Y-15665024D01*
X13196071Y-15655500D01*
X13215119Y-15645976D01*
X13357976Y-15645976D02*
X13357976Y-15684071D01*
X13434167Y-15645976D02*
X13434167Y-15684071D01*
X13729405Y-15922167D02*
X13719881Y-15912643D01*
X13700833Y-15884071D01*
X13691309Y-15865024D01*
X13681786Y-15836452D01*
X13672262Y-15788833D01*
X13672262Y-15750738D01*
X13681786Y-15703119D01*
X13691309Y-15674548D01*
X13700833Y-15655500D01*
X13719881Y-15626928D01*
X13729405Y-15617405D01*
X13910357Y-15845976D02*
X13796071Y-15845976D01*
X13853214Y-15845976D02*
X13853214Y-15645976D01*
X13834167Y-15674548D01*
X13815119Y-15693595D01*
X13796071Y-15703119D01*
X14148452Y-15845976D02*
X14148452Y-15645976D01*
X14234167Y-15845976D02*
X14234167Y-15741214D01*
X14224643Y-15722167D01*
X14205595Y-15712643D01*
X14177024Y-15712643D01*
X14157976Y-15722167D01*
X14148452Y-15731690D01*
X14357976Y-15845976D02*
X14338928Y-15836452D01*
X14329405Y-15826928D01*
X14319881Y-15807881D01*
X14319881Y-15750738D01*
X14329405Y-15731690D01*
X14338928Y-15722167D01*
X14357976Y-15712643D01*
X14386548Y-15712643D01*
X14405595Y-15722167D01*
X14415119Y-15731690D01*
X14424643Y-15750738D01*
X14424643Y-15807881D01*
X14415119Y-15826928D01*
X14405595Y-15836452D01*
X14386548Y-15845976D01*
X14357976Y-15845976D01*
X14538928Y-15845976D02*
X14519881Y-15836452D01*
X14510357Y-15817405D01*
X14510357Y-15645976D01*
X14691309Y-15836452D02*
X14672262Y-15845976D01*
X14634167Y-15845976D01*
X14615119Y-15836452D01*
X14605595Y-15817405D01*
X14605595Y-15741214D01*
X14615119Y-15722167D01*
X14634167Y-15712643D01*
X14672262Y-15712643D01*
X14691309Y-15722167D01*
X14700833Y-15741214D01*
X14700833Y-15760262D01*
X14605595Y-15779309D01*
X14767500Y-15922167D02*
X14777024Y-15912643D01*
X14796071Y-15884071D01*
X14805595Y-15865024D01*
X14815119Y-15836452D01*
X14824643Y-15788833D01*
X14824643Y-15750738D01*
X14815119Y-15703119D01*
X14805595Y-15674548D01*
X14796071Y-15655500D01*
X14777024Y-15626928D01*
X14767500Y-15617405D01*
X15129405Y-15922167D02*
X15119881Y-15912643D01*
X15100833Y-15884071D01*
X15091309Y-15865024D01*
X15081786Y-15836452D01*
X15072262Y-15788833D01*
X15072262Y-15750738D01*
X15081786Y-15703119D01*
X15091309Y-15674548D01*
X15100833Y-15655500D01*
X15119881Y-15626928D01*
X15129405Y-15617405D01*
X15205595Y-15712643D02*
X15205595Y-15845976D01*
X15205595Y-15731690D02*
X15215119Y-15722167D01*
X15234167Y-15712643D01*
X15262738Y-15712643D01*
X15281786Y-15722167D01*
X15291309Y-15741214D01*
X15291309Y-15845976D01*
X15415119Y-15845976D02*
X15396071Y-15836452D01*
X15386548Y-15826928D01*
X15377024Y-15807881D01*
X15377024Y-15750738D01*
X15386548Y-15731690D01*
X15396071Y-15722167D01*
X15415119Y-15712643D01*
X15443690Y-15712643D01*
X15462738Y-15722167D01*
X15472262Y-15731690D01*
X15481786Y-15750738D01*
X15481786Y-15807881D01*
X15472262Y-15826928D01*
X15462738Y-15836452D01*
X15443690Y-15845976D01*
X15415119Y-15845976D01*
X15538928Y-15712643D02*
X15615119Y-15712643D01*
X15567500Y-15645976D02*
X15567500Y-15817405D01*
X15577024Y-15836452D01*
X15596071Y-15845976D01*
X15615119Y-15845976D01*
X15834167Y-15712643D02*
X15834167Y-15912643D01*
X15834167Y-15722167D02*
X15853214Y-15712643D01*
X15891309Y-15712643D01*
X15910357Y-15722167D01*
X15919881Y-15731690D01*
X15929405Y-15750738D01*
X15929405Y-15807881D01*
X15919881Y-15826928D01*
X15910357Y-15836452D01*
X15891309Y-15845976D01*
X15853214Y-15845976D01*
X15834167Y-15836452D01*
X16043690Y-15845976D02*
X16024643Y-15836452D01*
X16015119Y-15817405D01*
X16015119Y-15645976D01*
X16205595Y-15845976D02*
X16205595Y-15741214D01*
X16196071Y-15722167D01*
X16177024Y-15712643D01*
X16138928Y-15712643D01*
X16119881Y-15722167D01*
X16205595Y-15836452D02*
X16186548Y-15845976D01*
X16138928Y-15845976D01*
X16119881Y-15836452D01*
X16110357Y-15817405D01*
X16110357Y-15798357D01*
X16119881Y-15779309D01*
X16138928Y-15769786D01*
X16186548Y-15769786D01*
X16205595Y-15760262D01*
X16272262Y-15712643D02*
X16348452Y-15712643D01*
X16300833Y-15645976D02*
X16300833Y-15817405D01*
X16310357Y-15836452D01*
X16329405Y-15845976D01*
X16348452Y-15845976D01*
X16491309Y-15836452D02*
X16472262Y-15845976D01*
X16434167Y-15845976D01*
X16415119Y-15836452D01*
X16405595Y-15817405D01*
X16405595Y-15741214D01*
X16415119Y-15722167D01*
X16434167Y-15712643D01*
X16472262Y-15712643D01*
X16491309Y-15722167D01*
X16500833Y-15741214D01*
X16500833Y-15760262D01*
X16405595Y-15779309D01*
X16672262Y-15845976D02*
X16672262Y-15645976D01*
X16672262Y-15836452D02*
X16653214Y-15845976D01*
X16615119Y-15845976D01*
X16596071Y-15836452D01*
X16586548Y-15826928D01*
X16577024Y-15807881D01*
X16577024Y-15750738D01*
X16586548Y-15731690D01*
X16596071Y-15722167D01*
X16615119Y-15712643D01*
X16653214Y-15712643D01*
X16672262Y-15722167D01*
X16748452Y-15922167D02*
X16757976Y-15912643D01*
X16777024Y-15884071D01*
X16786548Y-15865024D01*
X16796071Y-15836452D01*
X16805595Y-15788833D01*
X16805595Y-15750738D01*
X16796071Y-15703119D01*
X16786548Y-15674548D01*
X16777024Y-15655500D01*
X16757976Y-15626928D01*
X16748452Y-15617405D01*
X10157500Y-16075500D02*
G75*
G03*
X10157500Y-16075500I-100000J0D01*
G01*
X10396071Y-15965976D02*
X10519881Y-15965976D01*
X10453214Y-16042167D01*
X10481786Y-16042167D01*
X10500833Y-16051690D01*
X10510357Y-16061214D01*
X10519881Y-16080262D01*
X10519881Y-16127881D01*
X10510357Y-16146928D01*
X10500833Y-16156452D01*
X10481786Y-16165976D01*
X10424643Y-16165976D01*
X10405595Y-16156452D01*
X10396071Y-16146928D01*
X10605595Y-16146928D02*
X10615119Y-16156452D01*
X10605595Y-16165976D01*
X10596071Y-16156452D01*
X10605595Y-16146928D01*
X10605595Y-16165976D01*
X10796071Y-15965976D02*
X10700833Y-15965976D01*
X10691310Y-16061214D01*
X10700833Y-16051690D01*
X10719881Y-16042167D01*
X10767500Y-16042167D01*
X10786548Y-16051690D01*
X10796071Y-16061214D01*
X10805595Y-16080262D01*
X10805595Y-16127881D01*
X10796071Y-16146928D01*
X10786548Y-16156452D01*
X10767500Y-16165976D01*
X10719881Y-16165976D01*
X10700833Y-16156452D01*
X10691310Y-16146928D01*
X10929405Y-15965976D02*
X10948452Y-15965976D01*
X10967500Y-15975500D01*
X10977024Y-15985024D01*
X10986548Y-16004071D01*
X10996071Y-16042167D01*
X10996071Y-16089786D01*
X10986548Y-16127881D01*
X10977024Y-16146928D01*
X10967500Y-16156452D01*
X10948452Y-16165976D01*
X10929405Y-16165976D01*
X10910357Y-16156452D01*
X10900833Y-16146928D01*
X10891310Y-16127881D01*
X10881786Y-16089786D01*
X10881786Y-16042167D01*
X10891310Y-16004071D01*
X10900833Y-15985024D01*
X10910357Y-15975500D01*
X10929405Y-15965976D01*
X11119881Y-15965976D02*
X11138929Y-15965976D01*
X11157976Y-15975500D01*
X11167500Y-15985024D01*
X11177024Y-16004071D01*
X11186548Y-16042167D01*
X11186548Y-16089786D01*
X11177024Y-16127881D01*
X11167500Y-16146928D01*
X11157976Y-16156452D01*
X11138929Y-16165976D01*
X11119881Y-16165976D01*
X11100833Y-16156452D01*
X11091310Y-16146928D01*
X11081786Y-16127881D01*
X11072262Y-16089786D01*
X11072262Y-16042167D01*
X11081786Y-16004071D01*
X11091310Y-15985024D01*
X11100833Y-15975500D01*
X11119881Y-15965976D01*
X11272262Y-16165976D02*
X11272262Y-16032643D01*
X11272262Y-16051690D02*
X11281786Y-16042167D01*
X11300833Y-16032643D01*
X11329405Y-16032643D01*
X11348452Y-16042167D01*
X11357976Y-16061214D01*
X11357976Y-16165976D01*
X11357976Y-16061214D02*
X11367500Y-16042167D01*
X11386548Y-16032643D01*
X11415119Y-16032643D01*
X11434167Y-16042167D01*
X11443690Y-16061214D01*
X11443690Y-16165976D01*
X11538928Y-16165976D02*
X11538928Y-16032643D01*
X11538928Y-16051690D02*
X11548452Y-16042167D01*
X11567500Y-16032643D01*
X11596071Y-16032643D01*
X11615119Y-16042167D01*
X11624643Y-16061214D01*
X11624643Y-16165976D01*
X11624643Y-16061214D02*
X11634167Y-16042167D01*
X11653214Y-16032643D01*
X11681786Y-16032643D01*
X11700833Y-16042167D01*
X11710357Y-16061214D01*
X11710357Y-16165976D01*
X12100833Y-15956452D02*
X11929405Y-16213595D01*
X12357976Y-15965976D02*
X12377024Y-15965976D01*
X12396071Y-15975500D01*
X12405595Y-15985024D01*
X12415119Y-16004071D01*
X12424643Y-16042167D01*
X12424643Y-16089786D01*
X12415119Y-16127881D01*
X12405595Y-16146928D01*
X12396071Y-16156452D01*
X12377024Y-16165976D01*
X12357976Y-16165976D01*
X12338928Y-16156452D01*
X12329405Y-16146928D01*
X12319881Y-16127881D01*
X12310357Y-16089786D01*
X12310357Y-16042167D01*
X12319881Y-16004071D01*
X12329405Y-15985024D01*
X12338928Y-15975500D01*
X12357976Y-15965976D01*
X12510357Y-16146928D02*
X12519881Y-16156452D01*
X12510357Y-16165976D01*
X12500833Y-16156452D01*
X12510357Y-16146928D01*
X12510357Y-16165976D01*
X12710357Y-16165976D02*
X12596071Y-16165976D01*
X12653214Y-16165976D02*
X12653214Y-15965976D01*
X12634167Y-15994548D01*
X12615119Y-16013595D01*
X12596071Y-16023119D01*
X12777024Y-15965976D02*
X12900833Y-15965976D01*
X12834167Y-16042167D01*
X12862738Y-16042167D01*
X12881786Y-16051690D01*
X12891309Y-16061214D01*
X12900833Y-16080262D01*
X12900833Y-16127881D01*
X12891309Y-16146928D01*
X12881786Y-16156452D01*
X12862738Y-16165976D01*
X12805595Y-16165976D01*
X12786548Y-16156452D01*
X12777024Y-16146928D01*
X12967500Y-15965976D02*
X13100833Y-15965976D01*
X13015119Y-16165976D01*
X13205595Y-16051690D02*
X13186548Y-16042167D01*
X13177024Y-16032643D01*
X13167500Y-16013595D01*
X13167500Y-16004071D01*
X13177024Y-15985024D01*
X13186548Y-15975500D01*
X13205595Y-15965976D01*
X13243690Y-15965976D01*
X13262738Y-15975500D01*
X13272262Y-15985024D01*
X13281786Y-16004071D01*
X13281786Y-16013595D01*
X13272262Y-16032643D01*
X13262738Y-16042167D01*
X13243690Y-16051690D01*
X13205595Y-16051690D01*
X13186548Y-16061214D01*
X13177024Y-16070738D01*
X13167500Y-16089786D01*
X13167500Y-16127881D01*
X13177024Y-16146928D01*
X13186548Y-16156452D01*
X13205595Y-16165976D01*
X13243690Y-16165976D01*
X13262738Y-16156452D01*
X13272262Y-16146928D01*
X13281786Y-16127881D01*
X13281786Y-16089786D01*
X13272262Y-16070738D01*
X13262738Y-16061214D01*
X13243690Y-16051690D01*
X13357976Y-15965976D02*
X13357976Y-16004071D01*
X13434167Y-15965976D02*
X13434167Y-16004071D01*
X13729405Y-16242167D02*
X13719881Y-16232643D01*
X13700833Y-16204071D01*
X13691309Y-16185024D01*
X13681786Y-16156452D01*
X13672262Y-16108833D01*
X13672262Y-16070738D01*
X13681786Y-16023119D01*
X13691309Y-15994548D01*
X13700833Y-15975500D01*
X13719881Y-15946928D01*
X13729405Y-15937405D01*
X13910357Y-16165976D02*
X13796071Y-16165976D01*
X13853214Y-16165976D02*
X13853214Y-15965976D01*
X13834167Y-15994548D01*
X13815119Y-16013595D01*
X13796071Y-16023119D01*
X14148452Y-16165976D02*
X14148452Y-15965976D01*
X14234167Y-16165976D02*
X14234167Y-16061214D01*
X14224643Y-16042167D01*
X14205595Y-16032643D01*
X14177024Y-16032643D01*
X14157976Y-16042167D01*
X14148452Y-16051690D01*
X14357976Y-16165976D02*
X14338928Y-16156452D01*
X14329405Y-16146928D01*
X14319881Y-16127881D01*
X14319881Y-16070738D01*
X14329405Y-16051690D01*
X14338928Y-16042167D01*
X14357976Y-16032643D01*
X14386548Y-16032643D01*
X14405595Y-16042167D01*
X14415119Y-16051690D01*
X14424643Y-16070738D01*
X14424643Y-16127881D01*
X14415119Y-16146928D01*
X14405595Y-16156452D01*
X14386548Y-16165976D01*
X14357976Y-16165976D01*
X14538928Y-16165976D02*
X14519881Y-16156452D01*
X14510357Y-16137405D01*
X14510357Y-15965976D01*
X14691309Y-16156452D02*
X14672262Y-16165976D01*
X14634167Y-16165976D01*
X14615119Y-16156452D01*
X14605595Y-16137405D01*
X14605595Y-16061214D01*
X14615119Y-16042167D01*
X14634167Y-16032643D01*
X14672262Y-16032643D01*
X14691309Y-16042167D01*
X14700833Y-16061214D01*
X14700833Y-16080262D01*
X14605595Y-16099309D01*
X14767500Y-16242167D02*
X14777024Y-16232643D01*
X14796071Y-16204071D01*
X14805595Y-16185024D01*
X14815119Y-16156452D01*
X14824643Y-16108833D01*
X14824643Y-16070738D01*
X14815119Y-16023119D01*
X14805595Y-15994548D01*
X14796071Y-15975500D01*
X14777024Y-15946928D01*
X14767500Y-15937405D01*
X15129405Y-16242167D02*
X15119881Y-16232643D01*
X15100833Y-16204071D01*
X15091309Y-16185024D01*
X15081786Y-16156452D01*
X15072262Y-16108833D01*
X15072262Y-16070738D01*
X15081786Y-16023119D01*
X15091309Y-15994548D01*
X15100833Y-15975500D01*
X15119881Y-15946928D01*
X15129405Y-15937405D01*
X15205595Y-16032643D02*
X15205595Y-16165976D01*
X15205595Y-16051690D02*
X15215119Y-16042167D01*
X15234167Y-16032643D01*
X15262738Y-16032643D01*
X15281786Y-16042167D01*
X15291309Y-16061214D01*
X15291309Y-16165976D01*
X15415119Y-16165976D02*
X15396071Y-16156452D01*
X15386548Y-16146928D01*
X15377024Y-16127881D01*
X15377024Y-16070738D01*
X15386548Y-16051690D01*
X15396071Y-16042167D01*
X15415119Y-16032643D01*
X15443690Y-16032643D01*
X15462738Y-16042167D01*
X15472262Y-16051690D01*
X15481786Y-16070738D01*
X15481786Y-16127881D01*
X15472262Y-16146928D01*
X15462738Y-16156452D01*
X15443690Y-16165976D01*
X15415119Y-16165976D01*
X15538928Y-16032643D02*
X15615119Y-16032643D01*
X15567500Y-15965976D02*
X15567500Y-16137405D01*
X15577024Y-16156452D01*
X15596071Y-16165976D01*
X15615119Y-16165976D01*
X15834167Y-16032643D02*
X15834167Y-16232643D01*
X15834167Y-16042167D02*
X15853214Y-16032643D01*
X15891309Y-16032643D01*
X15910357Y-16042167D01*
X15919881Y-16051690D01*
X15929405Y-16070738D01*
X15929405Y-16127881D01*
X15919881Y-16146928D01*
X15910357Y-16156452D01*
X15891309Y-16165976D01*
X15853214Y-16165976D01*
X15834167Y-16156452D01*
X16043690Y-16165976D02*
X16024643Y-16156452D01*
X16015119Y-16137405D01*
X16015119Y-15965976D01*
X16205595Y-16165976D02*
X16205595Y-16061214D01*
X16196071Y-16042167D01*
X16177024Y-16032643D01*
X16138928Y-16032643D01*
X16119881Y-16042167D01*
X16205595Y-16156452D02*
X16186548Y-16165976D01*
X16138928Y-16165976D01*
X16119881Y-16156452D01*
X16110357Y-16137405D01*
X16110357Y-16118357D01*
X16119881Y-16099309D01*
X16138928Y-16089786D01*
X16186548Y-16089786D01*
X16205595Y-16080262D01*
X16272262Y-16032643D02*
X16348452Y-16032643D01*
X16300833Y-15965976D02*
X16300833Y-16137405D01*
X16310357Y-16156452D01*
X16329405Y-16165976D01*
X16348452Y-16165976D01*
X16491309Y-16156452D02*
X16472262Y-16165976D01*
X16434167Y-16165976D01*
X16415119Y-16156452D01*
X16405595Y-16137405D01*
X16405595Y-16061214D01*
X16415119Y-16042167D01*
X16434167Y-16032643D01*
X16472262Y-16032643D01*
X16491309Y-16042167D01*
X16500833Y-16061214D01*
X16500833Y-16080262D01*
X16405595Y-16099309D01*
X16672262Y-16165976D02*
X16672262Y-15965976D01*
X16672262Y-16156452D02*
X16653214Y-16165976D01*
X16615119Y-16165976D01*
X16596071Y-16156452D01*
X16586548Y-16146928D01*
X16577024Y-16127881D01*
X16577024Y-16070738D01*
X16586548Y-16051690D01*
X16596071Y-16042167D01*
X16615119Y-16032643D01*
X16653214Y-16032643D01*
X16672262Y-16042167D01*
X16748452Y-16242167D02*
X16757976Y-16232643D01*
X16777024Y-16204071D01*
X16786548Y-16185024D01*
X16796071Y-16156452D01*
X16805595Y-16108833D01*
X16805595Y-16070738D01*
X16796071Y-16023119D01*
X16786548Y-15994548D01*
X16777024Y-15975500D01*
X16757976Y-15946928D01*
X16748452Y-15937405D01*
M02*
