M48
; DRILL file {KiCad (5.1.5)-3} date 4/21/2020 4:31:05 PM
; FORMAT={-:-/ absolute / metric / decimal}
; #@! TF.CreationDate,2020-04-21T16:31:05-04:00
; #@! TF.GenerationSoftware,Kicad,Pcbnew,(5.1.5)-3
; #@! TF.FileFunction,Plated,1,2,PTH
FMAT,2
METRIC
T1C0.400
T2C0.800
T3C0.900
T4C0.920
T5C1.000
T6C1.001
T7C1.100
T8C2.330
%
G90
G05
T1
X106.934Y-135.89
X106.934Y-145.542
X111.125Y-120.015
X124.587Y-138.938
X129.281Y-100.589
X129.286Y-97.79
X132.207Y-128.016
X132.334Y-95.25
X135.419Y-134.239
X136.144Y-140.081
X136.271Y-123.825
X141.097Y-110.49
X141.224Y-107.95
X141.302Y-114.222
X142.208Y-125.719
X142.658Y-126.619
X156.21Y-124.46
X159.512Y-108.458
X160.909Y-132.461
X163.322Y-132.588
X163.576Y-110.236
T2
X161.544Y-101.092
X161.544Y-111.252
X156.464Y-116.332
X159.004Y-113.792
X161.544Y-116.332
X127.635Y-90.17
X137.795Y-90.17
X150.368Y-119.888
X150.368Y-130.048
X149.352Y-135.128
X151.892Y-132.588
X154.432Y-135.128
X154.432Y-101.092
X154.432Y-111.252
X114.3Y-128.27
X114.3Y-130.81
X114.3Y-133.35
X114.3Y-135.89
X114.3Y-138.43
X114.3Y-140.97
X114.3Y-143.51
X114.3Y-146.05
X121.92Y-128.27
X121.92Y-130.81
X121.92Y-133.35
X121.92Y-135.89
X121.92Y-138.43
X121.92Y-140.97
X121.92Y-143.51
X121.92Y-146.05
X120.904Y-117.602
X120.904Y-122.482
X150.368Y-101.092
X150.368Y-111.252
X156.464Y-135.128
X159.004Y-132.588
X161.544Y-135.128
X154.432Y-138.684
X154.432Y-148.844
X109.22Y-97.79
X114.22Y-97.79
X157.48Y-101.092
X157.48Y-111.252
X111.125Y-122.428
X116.125Y-122.428
X161.544Y-138.684
X161.544Y-148.844
X156.464Y-97.536
X159.004Y-94.996
X161.544Y-97.536
X150.368Y-138.684
X150.368Y-148.844
X154.432Y-119.888
X154.432Y-130.048
X111.125Y-117.602
X116.125Y-117.602
X138.684Y-102.87
X138.684Y-105.41
X138.684Y-107.95
X138.684Y-110.49
X138.684Y-113.03
X138.684Y-115.57
X138.684Y-118.11
X138.684Y-120.65
X146.304Y-102.87
X146.304Y-105.41
X146.304Y-107.95
X146.304Y-110.49
X146.304Y-113.03
X146.304Y-115.57
X146.304Y-118.11
X146.304Y-120.65
X149.352Y-97.536
X151.892Y-94.996
X154.432Y-97.536
X161.544Y-119.888
X161.544Y-130.048
X138.684Y-128.27
X138.684Y-130.81
X138.684Y-133.35
X138.684Y-135.89
X138.684Y-138.43
X138.684Y-140.97
X138.684Y-143.51
X138.684Y-146.05
X146.304Y-128.27
X146.304Y-130.81
X146.304Y-133.35
X146.304Y-135.89
X146.304Y-138.43
X146.304Y-140.97
X146.304Y-143.51
X146.304Y-146.05
X157.48Y-119.888
X157.48Y-130.048
X149.352Y-116.332
X151.892Y-113.792
X154.432Y-116.332
X127.0Y-99.06
X127.0Y-101.6
X127.0Y-104.14
X127.0Y-106.68
X127.0Y-109.22
X127.0Y-111.76
X127.0Y-114.3
X127.0Y-116.84
X127.0Y-119.38
X127.0Y-121.92
X127.0Y-124.46
X127.0Y-127.0
X127.0Y-129.54
X127.0Y-132.08
X134.62Y-99.06
X134.62Y-101.6
X134.62Y-104.14
X134.62Y-106.68
X134.62Y-109.22
X134.62Y-111.76
X134.62Y-114.3
X134.62Y-116.84
X134.62Y-119.38
X134.62Y-121.92
X134.62Y-124.46
X134.62Y-127.0
X134.62Y-129.54
X134.62Y-132.08
X157.48Y-138.684
X157.48Y-148.844
T3
X137.668Y-82.804
X139.827Y-82.804
X141.986Y-82.804
X144.145Y-82.804
T4
X109.22Y-90.71
X109.22Y-92.71
X111.72Y-90.71
X111.72Y-92.71
T5
X128.016Y-137.668
X128.016Y-140.208
X130.556Y-137.668
X130.556Y-140.208
X133.096Y-137.668
X133.096Y-140.208
X165.1Y-101.6
X165.1Y-104.14
X165.1Y-106.68
X165.1Y-109.22
X165.1Y-111.76
X165.1Y-114.3
X165.1Y-116.84
X165.1Y-119.38
X165.1Y-121.92
X165.1Y-124.46
X165.1Y-127.0
X165.1Y-129.54
X165.1Y-132.08
X165.1Y-134.62
X165.1Y-137.16
X165.1Y-139.7
X165.1Y-142.24
X165.1Y-144.78
X104.14Y-101.6
X104.14Y-104.14
X104.14Y-106.68
X104.14Y-109.22
X104.14Y-111.76
X104.14Y-114.3
X104.14Y-116.84
X104.14Y-119.38
X104.14Y-121.92
X104.14Y-124.46
X104.14Y-127.0
X104.14Y-129.54
X104.14Y-132.08
X104.14Y-134.62
X104.14Y-137.16
X104.14Y-139.7
X104.14Y-142.24
X104.14Y-144.78
T6
X150.368Y-80.264
X154.178Y-80.264
X159.004Y-80.264
X162.814Y-80.264
T7
X125.072Y-80.336
X125.072Y-84.836
X131.572Y-80.336
X131.572Y-84.836
X147.17Y-85.09
X147.17Y-87.63
X147.17Y-90.17
T8
X104.45Y-88.0
X116.49Y-88.0
T0
M30
