G04 #@! TF.GenerationSoftware,KiCad,Pcbnew,5.1.6+dfsg1-1*
G04 #@! TF.CreationDate,2020-07-01T01:52:50-04:00*
G04 #@! TF.ProjectId,PCB,5043422e-6b69-4636-9164-5f7063625858,rev?*
G04 #@! TF.SameCoordinates,Original*
G04 #@! TF.FileFunction,Legend,Bot*
G04 #@! TF.FilePolarity,Positive*
%FSLAX46Y46*%
G04 Gerber Fmt 4.6, Leading zero omitted, Abs format (unit mm)*
G04 Created by KiCad (PCBNEW 5.1.6+dfsg1-1) date 2020-07-01 01:52:50*
%MOMM*%
%LPD*%
G01*
G04 APERTURE LIST*
%ADD10C,0.300000*%
%ADD11C,0.010000*%
%ADD12C,0.120000*%
%ADD13C,0.150000*%
G04 APERTURE END LIST*
D10*
X244028857Y-57193571D02*
X244028857Y-55693571D01*
X243671714Y-55693571D01*
X243457428Y-55765000D01*
X243314571Y-55907857D01*
X243243142Y-56050714D01*
X243171714Y-56336428D01*
X243171714Y-56550714D01*
X243243142Y-56836428D01*
X243314571Y-56979285D01*
X243457428Y-57122142D01*
X243671714Y-57193571D01*
X244028857Y-57193571D01*
X241957428Y-57122142D02*
X242100285Y-57193571D01*
X242386000Y-57193571D01*
X242528857Y-57122142D01*
X242600285Y-56979285D01*
X242600285Y-56407857D01*
X242528857Y-56265000D01*
X242386000Y-56193571D01*
X242100285Y-56193571D01*
X241957428Y-56265000D01*
X241886000Y-56407857D01*
X241886000Y-56550714D01*
X242600285Y-56693571D01*
X241314571Y-57122142D02*
X241171714Y-57193571D01*
X240886000Y-57193571D01*
X240743142Y-57122142D01*
X240671714Y-56979285D01*
X240671714Y-56907857D01*
X240743142Y-56765000D01*
X240886000Y-56693571D01*
X241100285Y-56693571D01*
X241243142Y-56622142D01*
X241314571Y-56479285D01*
X241314571Y-56407857D01*
X241243142Y-56265000D01*
X241100285Y-56193571D01*
X240886000Y-56193571D01*
X240743142Y-56265000D01*
X240028857Y-57193571D02*
X240028857Y-56193571D01*
X240028857Y-55693571D02*
X240100285Y-55765000D01*
X240028857Y-55836428D01*
X239957428Y-55765000D01*
X240028857Y-55693571D01*
X240028857Y-55836428D01*
X238671714Y-56193571D02*
X238671714Y-57407857D01*
X238743142Y-57550714D01*
X238814571Y-57622142D01*
X238957428Y-57693571D01*
X239171714Y-57693571D01*
X239314571Y-57622142D01*
X238671714Y-57122142D02*
X238814571Y-57193571D01*
X239100285Y-57193571D01*
X239243142Y-57122142D01*
X239314571Y-57050714D01*
X239386000Y-56907857D01*
X239386000Y-56479285D01*
X239314571Y-56336428D01*
X239243142Y-56265000D01*
X239100285Y-56193571D01*
X238814571Y-56193571D01*
X238671714Y-56265000D01*
X237957428Y-56193571D02*
X237957428Y-57193571D01*
X237957428Y-56336428D02*
X237886000Y-56265000D01*
X237743142Y-56193571D01*
X237528857Y-56193571D01*
X237386000Y-56265000D01*
X237314571Y-56407857D01*
X237314571Y-57193571D01*
X236028857Y-57122142D02*
X236171714Y-57193571D01*
X236457428Y-57193571D01*
X236600285Y-57122142D01*
X236671714Y-56979285D01*
X236671714Y-56407857D01*
X236600285Y-56265000D01*
X236457428Y-56193571D01*
X236171714Y-56193571D01*
X236028857Y-56265000D01*
X235957428Y-56407857D01*
X235957428Y-56550714D01*
X236671714Y-56693571D01*
X234671714Y-57193571D02*
X234671714Y-55693571D01*
X234671714Y-57122142D02*
X234814571Y-57193571D01*
X235100285Y-57193571D01*
X235243142Y-57122142D01*
X235314571Y-57050714D01*
X235386000Y-56907857D01*
X235386000Y-56479285D01*
X235314571Y-56336428D01*
X235243142Y-56265000D01*
X235100285Y-56193571D01*
X234814571Y-56193571D01*
X234671714Y-56265000D01*
X232814571Y-57193571D02*
X232814571Y-55693571D01*
X232814571Y-56265000D02*
X232671714Y-56193571D01*
X232386000Y-56193571D01*
X232243142Y-56265000D01*
X232171714Y-56336428D01*
X232100285Y-56479285D01*
X232100285Y-56907857D01*
X232171714Y-57050714D01*
X232243142Y-57122142D01*
X232386000Y-57193571D01*
X232671714Y-57193571D01*
X232814571Y-57122142D01*
X231600285Y-56193571D02*
X231243142Y-57193571D01*
X230886000Y-56193571D02*
X231243142Y-57193571D01*
X231386000Y-57550714D01*
X231457428Y-57622142D01*
X231600285Y-57693571D01*
X229171714Y-56407857D02*
X228671714Y-56407857D01*
X228457428Y-57193571D02*
X229171714Y-57193571D01*
X229171714Y-55693571D01*
X228457428Y-55693571D01*
X227600285Y-57193571D02*
X227743142Y-57122142D01*
X227814571Y-56979285D01*
X227814571Y-55693571D01*
X226457428Y-57122142D02*
X226600285Y-57193571D01*
X226886000Y-57193571D01*
X227028857Y-57122142D01*
X227100285Y-56979285D01*
X227100285Y-56407857D01*
X227028857Y-56265000D01*
X226886000Y-56193571D01*
X226600285Y-56193571D01*
X226457428Y-56265000D01*
X226386000Y-56407857D01*
X226386000Y-56550714D01*
X227100285Y-56693571D01*
X225100285Y-57122142D02*
X225243142Y-57193571D01*
X225528857Y-57193571D01*
X225671714Y-57122142D01*
X225743142Y-57050714D01*
X225814571Y-56907857D01*
X225814571Y-56479285D01*
X225743142Y-56336428D01*
X225671714Y-56265000D01*
X225528857Y-56193571D01*
X225243142Y-56193571D01*
X225100285Y-56265000D01*
X224671714Y-56193571D02*
X224100285Y-56193571D01*
X224457428Y-55693571D02*
X224457428Y-56979285D01*
X224386000Y-57122142D01*
X224243142Y-57193571D01*
X224100285Y-57193571D01*
X223600285Y-57193571D02*
X223600285Y-56193571D01*
X223600285Y-56479285D02*
X223528857Y-56336428D01*
X223457428Y-56265000D01*
X223314571Y-56193571D01*
X223171714Y-56193571D01*
X222457428Y-57193571D02*
X222600285Y-57122142D01*
X222671714Y-57050714D01*
X222743142Y-56907857D01*
X222743142Y-56479285D01*
X222671714Y-56336428D01*
X222600285Y-56265000D01*
X222457428Y-56193571D01*
X222243142Y-56193571D01*
X222100285Y-56265000D01*
X222028857Y-56336428D01*
X221957428Y-56479285D01*
X221957428Y-56907857D01*
X222028857Y-57050714D01*
X222100285Y-57122142D01*
X222243142Y-57193571D01*
X222457428Y-57193571D01*
X221457428Y-55693571D02*
X220457428Y-55693571D01*
X221100285Y-57193571D01*
X219600285Y-55693571D02*
X219457428Y-55693571D01*
X219314571Y-55765000D01*
X219243142Y-55836428D01*
X219171714Y-55979285D01*
X219100285Y-56265000D01*
X219100285Y-56622142D01*
X219171714Y-56907857D01*
X219243142Y-57050714D01*
X219314571Y-57122142D01*
X219457428Y-57193571D01*
X219600285Y-57193571D01*
X219743142Y-57122142D01*
X219814571Y-57050714D01*
X219886000Y-56907857D01*
X219957428Y-56622142D01*
X219957428Y-56265000D01*
X219886000Y-55979285D01*
X219814571Y-55836428D01*
X219743142Y-55765000D01*
X219600285Y-55693571D01*
X218600285Y-55693571D02*
X217600285Y-55693571D01*
X218243142Y-57193571D01*
D11*
G36*
X246609249Y-50921810D02*
G01*
X246542673Y-50943336D01*
X246487958Y-50960573D01*
X246422745Y-50980334D01*
X246348195Y-51002303D01*
X246265468Y-51026164D01*
X246175727Y-51051599D01*
X246080133Y-51078294D01*
X245979846Y-51105930D01*
X245876029Y-51134192D01*
X245769842Y-51162763D01*
X245662447Y-51191327D01*
X245555004Y-51219568D01*
X245448677Y-51247167D01*
X245344624Y-51273811D01*
X245244009Y-51299181D01*
X245165076Y-51318765D01*
X244897754Y-51383338D01*
X244641272Y-51442816D01*
X244395606Y-51497202D01*
X244160732Y-51546502D01*
X243936625Y-51590719D01*
X243723261Y-51629857D01*
X243520618Y-51663920D01*
X243328670Y-51692913D01*
X243147395Y-51716840D01*
X242976767Y-51735705D01*
X242816763Y-51749512D01*
X242667359Y-51758265D01*
X242634295Y-51759571D01*
X242518786Y-51763697D01*
X242518786Y-52277917D01*
X242598292Y-52277859D01*
X242682036Y-52276676D01*
X242775479Y-52273224D01*
X242878943Y-52267481D01*
X242992750Y-52259422D01*
X243117223Y-52249024D01*
X243252683Y-52236263D01*
X243399454Y-52221115D01*
X243458257Y-52214728D01*
X243466613Y-52214461D01*
X243464964Y-52216682D01*
X243452896Y-52221566D01*
X243429993Y-52229287D01*
X243403855Y-52237542D01*
X243275351Y-52281955D01*
X243157239Y-52332247D01*
X243049399Y-52388509D01*
X242951709Y-52450832D01*
X242864050Y-52519306D01*
X242786300Y-52594022D01*
X242718340Y-52675071D01*
X242660048Y-52762544D01*
X242628250Y-52820959D01*
X242592039Y-52901505D01*
X242563537Y-52983891D01*
X242542362Y-53069931D01*
X242528131Y-53161441D01*
X242520462Y-53260233D01*
X242518786Y-53340000D01*
X242521808Y-53445586D01*
X242531126Y-53542524D01*
X242547120Y-53632610D01*
X242570167Y-53717636D01*
X242600645Y-53799397D01*
X242628237Y-53858914D01*
X242658652Y-53915805D01*
X242690152Y-53966451D01*
X242725084Y-54014082D01*
X242765795Y-54061928D01*
X242808620Y-54107136D01*
X242884484Y-54177043D01*
X242968606Y-54240815D01*
X243061552Y-54298772D01*
X243163891Y-54351234D01*
X243276190Y-54398521D01*
X243399015Y-54440951D01*
X243403855Y-54442459D01*
X243435645Y-54452554D01*
X243456271Y-54459673D01*
X243466147Y-54463992D01*
X243465690Y-54465683D01*
X243458257Y-54465272D01*
X243307104Y-54449211D01*
X243167384Y-54435546D01*
X243038774Y-54424253D01*
X242920952Y-54415308D01*
X242813596Y-54408687D01*
X242716383Y-54404368D01*
X242628991Y-54402325D01*
X242598292Y-54402141D01*
X242518786Y-54402084D01*
X242518786Y-54918125D01*
X242568290Y-54918212D01*
X242602268Y-54918816D01*
X242645688Y-54920429D01*
X242696043Y-54922904D01*
X242750831Y-54926093D01*
X242807545Y-54929848D01*
X242863682Y-54934021D01*
X242916738Y-54938464D01*
X242926818Y-54939378D01*
X243084046Y-54955700D01*
X243251863Y-54976703D01*
X243429844Y-55002300D01*
X243502863Y-55014009D01*
X243502863Y-54474090D01*
X243497924Y-54471894D01*
X243498863Y-54470089D01*
X243505984Y-54469371D01*
X243506863Y-54470089D01*
X243506040Y-54473657D01*
X243502863Y-54474090D01*
X243502863Y-55014009D01*
X243617564Y-55032403D01*
X243814599Y-55066926D01*
X244020523Y-55105780D01*
X244234913Y-55148880D01*
X244457344Y-55196137D01*
X244687391Y-55247464D01*
X244924629Y-55302775D01*
X245168634Y-55361982D01*
X245418981Y-55424998D01*
X245675246Y-55491735D01*
X245867049Y-55543089D01*
X245927959Y-55559704D01*
X245993343Y-55577759D01*
X246061641Y-55596807D01*
X246131294Y-55616402D01*
X246200742Y-55636098D01*
X246268426Y-55655448D01*
X246332787Y-55674005D01*
X246392264Y-55691324D01*
X246445298Y-55706958D01*
X246490330Y-55720460D01*
X246525800Y-55731384D01*
X246534164Y-55734035D01*
X246609723Y-55758191D01*
X247439173Y-55758191D01*
X247439173Y-55122141D01*
X246635110Y-55122141D01*
X246635110Y-53802037D01*
X246119069Y-53802037D01*
X246119069Y-54994092D01*
X246048564Y-54973705D01*
X245973506Y-54952682D01*
X245887823Y-54929905D01*
X245792718Y-54905654D01*
X245689391Y-54880209D01*
X245579047Y-54853853D01*
X245462886Y-54826865D01*
X245342110Y-54799526D01*
X245217923Y-54772117D01*
X245091525Y-54744919D01*
X244964120Y-54718213D01*
X244885972Y-54702191D01*
X244837431Y-54692471D01*
X244781198Y-54681455D01*
X244718966Y-54669457D01*
X244652429Y-54656790D01*
X244583280Y-54643767D01*
X244513213Y-54630703D01*
X244443920Y-54617909D01*
X244377095Y-54605701D01*
X244314432Y-54594390D01*
X244257624Y-54584291D01*
X244208364Y-54575718D01*
X244168346Y-54568983D01*
X244152414Y-54566416D01*
X244125715Y-54562177D01*
X244104003Y-54558678D01*
X244089629Y-54556301D01*
X244084909Y-54555433D01*
X244090700Y-54555361D01*
X244107243Y-54555293D01*
X244133284Y-54555233D01*
X244167574Y-54555182D01*
X244208861Y-54555141D01*
X244255896Y-54555113D01*
X244307427Y-54555098D01*
X244332428Y-54555096D01*
X244365139Y-54555015D01*
X244365139Y-53918397D01*
X244301438Y-53918368D01*
X244238966Y-53917835D01*
X244179924Y-53916798D01*
X244126516Y-53915256D01*
X244080945Y-53913210D01*
X244048906Y-53910978D01*
X243915371Y-53896224D01*
X243792551Y-53876432D01*
X243680469Y-53851613D01*
X243579147Y-53821779D01*
X243488606Y-53786943D01*
X243408870Y-53747116D01*
X243339960Y-53702310D01*
X243281898Y-53652538D01*
X243234707Y-53597810D01*
X243198408Y-53538138D01*
X243173025Y-53473536D01*
X243163747Y-53436020D01*
X243157640Y-53390254D01*
X243155727Y-53338965D01*
X243158019Y-53287882D01*
X243163333Y-53248640D01*
X243182288Y-53180558D01*
X243212133Y-53117511D01*
X243252867Y-53059500D01*
X243304485Y-53006527D01*
X243366983Y-52958595D01*
X243440359Y-52915705D01*
X243502863Y-52887627D01*
X243502863Y-52211911D01*
X243497924Y-52209716D01*
X243498863Y-52207911D01*
X243505984Y-52207193D01*
X243506863Y-52207911D01*
X243506040Y-52211478D01*
X243502863Y-52211911D01*
X243502863Y-52887627D01*
X243524608Y-52877858D01*
X243619727Y-52845058D01*
X243725714Y-52817305D01*
X243842563Y-52794603D01*
X243970272Y-52776951D01*
X244048906Y-52769065D01*
X244085594Y-52766595D01*
X244132073Y-52764623D01*
X244186143Y-52763151D01*
X244245603Y-52762177D01*
X244308254Y-52761703D01*
X244371896Y-52761728D01*
X244434329Y-52762251D01*
X244493353Y-52763274D01*
X244546768Y-52764796D01*
X244592374Y-52766817D01*
X244624951Y-52769065D01*
X244757994Y-52783645D01*
X244880148Y-52803138D01*
X244991481Y-52827568D01*
X245092064Y-52856960D01*
X245181966Y-52891335D01*
X245261256Y-52930719D01*
X245330006Y-52975133D01*
X245388283Y-53024602D01*
X245390874Y-53027160D01*
X245438361Y-53082059D01*
X245474786Y-53141448D01*
X245500275Y-53205631D01*
X245514952Y-53274910D01*
X245519022Y-53340000D01*
X245513576Y-53414317D01*
X245497237Y-53483596D01*
X245470005Y-53547838D01*
X245431882Y-53607042D01*
X245382866Y-53661209D01*
X245322958Y-53710339D01*
X245252158Y-53754431D01*
X245170465Y-53793485D01*
X245077881Y-53827502D01*
X244974405Y-53856481D01*
X244860038Y-53880422D01*
X244734778Y-53899325D01*
X244624951Y-53910978D01*
X244588158Y-53913470D01*
X244541576Y-53915458D01*
X244487411Y-53916942D01*
X244427864Y-53917922D01*
X244365139Y-53918397D01*
X244365139Y-54555015D01*
X244411820Y-54554898D01*
X244481259Y-54554226D01*
X244542786Y-54552967D01*
X244598445Y-54551005D01*
X244650278Y-54548226D01*
X244700326Y-54544515D01*
X244750632Y-54539758D01*
X244803239Y-54533839D01*
X244860188Y-54526645D01*
X244875603Y-54524599D01*
X245028647Y-54500031D01*
X245172543Y-54468529D01*
X245307150Y-54430144D01*
X245432327Y-54384928D01*
X245547934Y-54332933D01*
X245653830Y-54274209D01*
X245749876Y-54208809D01*
X245762945Y-54198800D01*
X245793539Y-54173528D01*
X245827706Y-54142865D01*
X245862669Y-54109514D01*
X245895650Y-54076180D01*
X245923870Y-54045566D01*
X245939420Y-54027054D01*
X245999983Y-53941033D01*
X246051086Y-53848032D01*
X246092413Y-53748848D01*
X246123649Y-53644273D01*
X246144477Y-53535102D01*
X246148739Y-53500749D01*
X246151741Y-53463095D01*
X246153737Y-53416914D01*
X246154727Y-53365639D01*
X246154711Y-53312702D01*
X246153689Y-53261535D01*
X246151662Y-53215571D01*
X246148739Y-53179251D01*
X246130972Y-53066785D01*
X246102814Y-52960251D01*
X246064347Y-52859726D01*
X246015654Y-52765284D01*
X245956817Y-52676999D01*
X245887920Y-52594949D01*
X245809043Y-52519206D01*
X245720272Y-52449847D01*
X245621687Y-52386946D01*
X245513372Y-52330578D01*
X245395409Y-52280819D01*
X245267880Y-52237744D01*
X245130870Y-52201427D01*
X245053985Y-52184855D01*
X244975486Y-52170095D01*
X244899352Y-52157745D01*
X244823654Y-52147644D01*
X244746465Y-52139630D01*
X244665857Y-52133543D01*
X244579901Y-52129221D01*
X244486671Y-52126504D01*
X244384237Y-52125231D01*
X244338100Y-52125088D01*
X244084251Y-52124905D01*
X244149085Y-52114317D01*
X244257851Y-52096049D01*
X244372954Y-52075773D01*
X244493229Y-52053740D01*
X244617510Y-52030200D01*
X244744631Y-52005402D01*
X244873426Y-51979597D01*
X245002729Y-51953034D01*
X245131375Y-51925964D01*
X245258197Y-51898637D01*
X245382031Y-51871303D01*
X245501709Y-51844211D01*
X245616067Y-51817612D01*
X245723938Y-51791756D01*
X245824156Y-51766893D01*
X245915556Y-51743272D01*
X245996972Y-51721144D01*
X246040615Y-51708667D01*
X246119069Y-51685734D01*
X246119069Y-52877964D01*
X246635110Y-52877964D01*
X246635110Y-51557860D01*
X247439173Y-51557860D01*
X247439173Y-53081980D01*
X246839126Y-53081980D01*
X246839126Y-53598021D01*
X247439173Y-53598021D01*
X247439173Y-55122141D01*
X247439173Y-55758191D01*
X247955214Y-55758191D01*
X247955214Y-50921810D01*
X246609249Y-50921810D01*
G37*
X246609249Y-50921810D02*
X246542673Y-50943336D01*
X246487958Y-50960573D01*
X246422745Y-50980334D01*
X246348195Y-51002303D01*
X246265468Y-51026164D01*
X246175727Y-51051599D01*
X246080133Y-51078294D01*
X245979846Y-51105930D01*
X245876029Y-51134192D01*
X245769842Y-51162763D01*
X245662447Y-51191327D01*
X245555004Y-51219568D01*
X245448677Y-51247167D01*
X245344624Y-51273811D01*
X245244009Y-51299181D01*
X245165076Y-51318765D01*
X244897754Y-51383338D01*
X244641272Y-51442816D01*
X244395606Y-51497202D01*
X244160732Y-51546502D01*
X243936625Y-51590719D01*
X243723261Y-51629857D01*
X243520618Y-51663920D01*
X243328670Y-51692913D01*
X243147395Y-51716840D01*
X242976767Y-51735705D01*
X242816763Y-51749512D01*
X242667359Y-51758265D01*
X242634295Y-51759571D01*
X242518786Y-51763697D01*
X242518786Y-52277917D01*
X242598292Y-52277859D01*
X242682036Y-52276676D01*
X242775479Y-52273224D01*
X242878943Y-52267481D01*
X242992750Y-52259422D01*
X243117223Y-52249024D01*
X243252683Y-52236263D01*
X243399454Y-52221115D01*
X243458257Y-52214728D01*
X243466613Y-52214461D01*
X243464964Y-52216682D01*
X243452896Y-52221566D01*
X243429993Y-52229287D01*
X243403855Y-52237542D01*
X243275351Y-52281955D01*
X243157239Y-52332247D01*
X243049399Y-52388509D01*
X242951709Y-52450832D01*
X242864050Y-52519306D01*
X242786300Y-52594022D01*
X242718340Y-52675071D01*
X242660048Y-52762544D01*
X242628250Y-52820959D01*
X242592039Y-52901505D01*
X242563537Y-52983891D01*
X242542362Y-53069931D01*
X242528131Y-53161441D01*
X242520462Y-53260233D01*
X242518786Y-53340000D01*
X242521808Y-53445586D01*
X242531126Y-53542524D01*
X242547120Y-53632610D01*
X242570167Y-53717636D01*
X242600645Y-53799397D01*
X242628237Y-53858914D01*
X242658652Y-53915805D01*
X242690152Y-53966451D01*
X242725084Y-54014082D01*
X242765795Y-54061928D01*
X242808620Y-54107136D01*
X242884484Y-54177043D01*
X242968606Y-54240815D01*
X243061552Y-54298772D01*
X243163891Y-54351234D01*
X243276190Y-54398521D01*
X243399015Y-54440951D01*
X243403855Y-54442459D01*
X243435645Y-54452554D01*
X243456271Y-54459673D01*
X243466147Y-54463992D01*
X243465690Y-54465683D01*
X243458257Y-54465272D01*
X243307104Y-54449211D01*
X243167384Y-54435546D01*
X243038774Y-54424253D01*
X242920952Y-54415308D01*
X242813596Y-54408687D01*
X242716383Y-54404368D01*
X242628991Y-54402325D01*
X242598292Y-54402141D01*
X242518786Y-54402084D01*
X242518786Y-54918125D01*
X242568290Y-54918212D01*
X242602268Y-54918816D01*
X242645688Y-54920429D01*
X242696043Y-54922904D01*
X242750831Y-54926093D01*
X242807545Y-54929848D01*
X242863682Y-54934021D01*
X242916738Y-54938464D01*
X242926818Y-54939378D01*
X243084046Y-54955700D01*
X243251863Y-54976703D01*
X243429844Y-55002300D01*
X243502863Y-55014009D01*
X243502863Y-54474090D01*
X243497924Y-54471894D01*
X243498863Y-54470089D01*
X243505984Y-54469371D01*
X243506863Y-54470089D01*
X243506040Y-54473657D01*
X243502863Y-54474090D01*
X243502863Y-55014009D01*
X243617564Y-55032403D01*
X243814599Y-55066926D01*
X244020523Y-55105780D01*
X244234913Y-55148880D01*
X244457344Y-55196137D01*
X244687391Y-55247464D01*
X244924629Y-55302775D01*
X245168634Y-55361982D01*
X245418981Y-55424998D01*
X245675246Y-55491735D01*
X245867049Y-55543089D01*
X245927959Y-55559704D01*
X245993343Y-55577759D01*
X246061641Y-55596807D01*
X246131294Y-55616402D01*
X246200742Y-55636098D01*
X246268426Y-55655448D01*
X246332787Y-55674005D01*
X246392264Y-55691324D01*
X246445298Y-55706958D01*
X246490330Y-55720460D01*
X246525800Y-55731384D01*
X246534164Y-55734035D01*
X246609723Y-55758191D01*
X247439173Y-55758191D01*
X247439173Y-55122141D01*
X246635110Y-55122141D01*
X246635110Y-53802037D01*
X246119069Y-53802037D01*
X246119069Y-54994092D01*
X246048564Y-54973705D01*
X245973506Y-54952682D01*
X245887823Y-54929905D01*
X245792718Y-54905654D01*
X245689391Y-54880209D01*
X245579047Y-54853853D01*
X245462886Y-54826865D01*
X245342110Y-54799526D01*
X245217923Y-54772117D01*
X245091525Y-54744919D01*
X244964120Y-54718213D01*
X244885972Y-54702191D01*
X244837431Y-54692471D01*
X244781198Y-54681455D01*
X244718966Y-54669457D01*
X244652429Y-54656790D01*
X244583280Y-54643767D01*
X244513213Y-54630703D01*
X244443920Y-54617909D01*
X244377095Y-54605701D01*
X244314432Y-54594390D01*
X244257624Y-54584291D01*
X244208364Y-54575718D01*
X244168346Y-54568983D01*
X244152414Y-54566416D01*
X244125715Y-54562177D01*
X244104003Y-54558678D01*
X244089629Y-54556301D01*
X244084909Y-54555433D01*
X244090700Y-54555361D01*
X244107243Y-54555293D01*
X244133284Y-54555233D01*
X244167574Y-54555182D01*
X244208861Y-54555141D01*
X244255896Y-54555113D01*
X244307427Y-54555098D01*
X244332428Y-54555096D01*
X244365139Y-54555015D01*
X244365139Y-53918397D01*
X244301438Y-53918368D01*
X244238966Y-53917835D01*
X244179924Y-53916798D01*
X244126516Y-53915256D01*
X244080945Y-53913210D01*
X244048906Y-53910978D01*
X243915371Y-53896224D01*
X243792551Y-53876432D01*
X243680469Y-53851613D01*
X243579147Y-53821779D01*
X243488606Y-53786943D01*
X243408870Y-53747116D01*
X243339960Y-53702310D01*
X243281898Y-53652538D01*
X243234707Y-53597810D01*
X243198408Y-53538138D01*
X243173025Y-53473536D01*
X243163747Y-53436020D01*
X243157640Y-53390254D01*
X243155727Y-53338965D01*
X243158019Y-53287882D01*
X243163333Y-53248640D01*
X243182288Y-53180558D01*
X243212133Y-53117511D01*
X243252867Y-53059500D01*
X243304485Y-53006527D01*
X243366983Y-52958595D01*
X243440359Y-52915705D01*
X243502863Y-52887627D01*
X243502863Y-52211911D01*
X243497924Y-52209716D01*
X243498863Y-52207911D01*
X243505984Y-52207193D01*
X243506863Y-52207911D01*
X243506040Y-52211478D01*
X243502863Y-52211911D01*
X243502863Y-52887627D01*
X243524608Y-52877858D01*
X243619727Y-52845058D01*
X243725714Y-52817305D01*
X243842563Y-52794603D01*
X243970272Y-52776951D01*
X244048906Y-52769065D01*
X244085594Y-52766595D01*
X244132073Y-52764623D01*
X244186143Y-52763151D01*
X244245603Y-52762177D01*
X244308254Y-52761703D01*
X244371896Y-52761728D01*
X244434329Y-52762251D01*
X244493353Y-52763274D01*
X244546768Y-52764796D01*
X244592374Y-52766817D01*
X244624951Y-52769065D01*
X244757994Y-52783645D01*
X244880148Y-52803138D01*
X244991481Y-52827568D01*
X245092064Y-52856960D01*
X245181966Y-52891335D01*
X245261256Y-52930719D01*
X245330006Y-52975133D01*
X245388283Y-53024602D01*
X245390874Y-53027160D01*
X245438361Y-53082059D01*
X245474786Y-53141448D01*
X245500275Y-53205631D01*
X245514952Y-53274910D01*
X245519022Y-53340000D01*
X245513576Y-53414317D01*
X245497237Y-53483596D01*
X245470005Y-53547838D01*
X245431882Y-53607042D01*
X245382866Y-53661209D01*
X245322958Y-53710339D01*
X245252158Y-53754431D01*
X245170465Y-53793485D01*
X245077881Y-53827502D01*
X244974405Y-53856481D01*
X244860038Y-53880422D01*
X244734778Y-53899325D01*
X244624951Y-53910978D01*
X244588158Y-53913470D01*
X244541576Y-53915458D01*
X244487411Y-53916942D01*
X244427864Y-53917922D01*
X244365139Y-53918397D01*
X244365139Y-54555015D01*
X244411820Y-54554898D01*
X244481259Y-54554226D01*
X244542786Y-54552967D01*
X244598445Y-54551005D01*
X244650278Y-54548226D01*
X244700326Y-54544515D01*
X244750632Y-54539758D01*
X244803239Y-54533839D01*
X244860188Y-54526645D01*
X244875603Y-54524599D01*
X245028647Y-54500031D01*
X245172543Y-54468529D01*
X245307150Y-54430144D01*
X245432327Y-54384928D01*
X245547934Y-54332933D01*
X245653830Y-54274209D01*
X245749876Y-54208809D01*
X245762945Y-54198800D01*
X245793539Y-54173528D01*
X245827706Y-54142865D01*
X245862669Y-54109514D01*
X245895650Y-54076180D01*
X245923870Y-54045566D01*
X245939420Y-54027054D01*
X245999983Y-53941033D01*
X246051086Y-53848032D01*
X246092413Y-53748848D01*
X246123649Y-53644273D01*
X246144477Y-53535102D01*
X246148739Y-53500749D01*
X246151741Y-53463095D01*
X246153737Y-53416914D01*
X246154727Y-53365639D01*
X246154711Y-53312702D01*
X246153689Y-53261535D01*
X246151662Y-53215571D01*
X246148739Y-53179251D01*
X246130972Y-53066785D01*
X246102814Y-52960251D01*
X246064347Y-52859726D01*
X246015654Y-52765284D01*
X245956817Y-52676999D01*
X245887920Y-52594949D01*
X245809043Y-52519206D01*
X245720272Y-52449847D01*
X245621687Y-52386946D01*
X245513372Y-52330578D01*
X245395409Y-52280819D01*
X245267880Y-52237744D01*
X245130870Y-52201427D01*
X245053985Y-52184855D01*
X244975486Y-52170095D01*
X244899352Y-52157745D01*
X244823654Y-52147644D01*
X244746465Y-52139630D01*
X244665857Y-52133543D01*
X244579901Y-52129221D01*
X244486671Y-52126504D01*
X244384237Y-52125231D01*
X244338100Y-52125088D01*
X244084251Y-52124905D01*
X244149085Y-52114317D01*
X244257851Y-52096049D01*
X244372954Y-52075773D01*
X244493229Y-52053740D01*
X244617510Y-52030200D01*
X244744631Y-52005402D01*
X244873426Y-51979597D01*
X245002729Y-51953034D01*
X245131375Y-51925964D01*
X245258197Y-51898637D01*
X245382031Y-51871303D01*
X245501709Y-51844211D01*
X245616067Y-51817612D01*
X245723938Y-51791756D01*
X245824156Y-51766893D01*
X245915556Y-51743272D01*
X245996972Y-51721144D01*
X246040615Y-51708667D01*
X246119069Y-51685734D01*
X246119069Y-52877964D01*
X246635110Y-52877964D01*
X246635110Y-51557860D01*
X247439173Y-51557860D01*
X247439173Y-53081980D01*
X246839126Y-53081980D01*
X246839126Y-53598021D01*
X247439173Y-53598021D01*
X247439173Y-55122141D01*
X247439173Y-55758191D01*
X247955214Y-55758191D01*
X247955214Y-50921810D01*
X246609249Y-50921810D01*
D12*
X245050000Y-101660000D02*
X246380000Y-101660000D01*
X245050000Y-100330000D02*
X245050000Y-101660000D01*
X245050000Y-99060000D02*
X247710000Y-99060000D01*
X247710000Y-99060000D02*
X247710000Y-55820000D01*
X245050000Y-99060000D02*
X245050000Y-55820000D01*
X245050000Y-55820000D02*
X247710000Y-55820000D01*
X184090000Y-55820000D02*
X186750000Y-55820000D01*
X184090000Y-99060000D02*
X184090000Y-55820000D01*
X186750000Y-99060000D02*
X186750000Y-55820000D01*
X184090000Y-99060000D02*
X186750000Y-99060000D01*
X184090000Y-100330000D02*
X184090000Y-101660000D01*
X184090000Y-101660000D02*
X185420000Y-101660000D01*
D13*
X246713333Y-102112380D02*
X246713333Y-102826666D01*
X246760952Y-102969523D01*
X246856190Y-103064761D01*
X246999047Y-103112380D01*
X247094285Y-103112380D01*
X246284761Y-102207619D02*
X246237142Y-102160000D01*
X246141904Y-102112380D01*
X245903809Y-102112380D01*
X245808571Y-102160000D01*
X245760952Y-102207619D01*
X245713333Y-102302857D01*
X245713333Y-102398095D01*
X245760952Y-102540952D01*
X246332380Y-103112380D01*
X245713333Y-103112380D01*
X185753333Y-102112380D02*
X185753333Y-102826666D01*
X185800952Y-102969523D01*
X185896190Y-103064761D01*
X186039047Y-103112380D01*
X186134285Y-103112380D01*
X184753333Y-103112380D02*
X185324761Y-103112380D01*
X185039047Y-103112380D02*
X185039047Y-102112380D01*
X185134285Y-102255238D01*
X185229523Y-102350476D01*
X185324761Y-102398095D01*
M02*
